<?xml version="1.0" encoding="utf-8" standalone="no"?>
<!DOCTYPE svg PUBLIC "-//W3C//DTD SVG 1.1//EN"
  "http://www.w3.org/Graphics/SVG/1.1/DTD/svg11.dtd">
<svg xmlns:xlink="http://www.w3.org/1999/xlink" width="360pt" height="180pt" viewBox="0 0 360 180" xmlns="http://www.w3.org/2000/svg" version="1.1">
 <metadata>
  <rdf:RDF xmlns:dc="http://purl.org/dc/elements/1.1/" xmlns:cc="http://creativecommons.org/ns#" xmlns:rdf="http://www.w3.org/1999/02/22-rdf-syntax-ns#">
   <cc:Work>
    <dc:type rdf:resource="http://purl.org/dc/dcmitype/StillImage"/>
    <dc:date>2025-10-22T15:49:40.855831</dc:date>
    <dc:format>image/svg+xml</dc:format>
    <dc:creator>
     <cc:Agent>
      <dc:title>Matplotlib v3.10.5, https://matplotlib.org/</dc:title>
     </cc:Agent>
    </dc:creator>
   </cc:Work>
  </rdf:RDF>
 </metadata>
 <defs>
  <style type="text/css">*{stroke-linejoin: round; stroke-linecap: butt}</style>
 </defs>
 <g id="figure_1">
  <g id="patch_1">
   <path d="M 0 180 
L 360 180 
L 360 0 
L 0 0 
z
" style="fill: #ffffff"/>
  </g>
  <g id="axes_1">
   <g id="patch_2">
    <path d="M 27.9 138.821875 
L 338.85 138.821875 
L 338.85 10.8 
L 27.9 10.8 
z
" style="fill: #ffffff"/>
   </g>
   <g id="matplotlib.axis_1">
    <g id="xtick_1">
     <g id="line2d_1">
      <path d="M 27.9 138.821875 
L 27.9 10.8 
" clip-path="url(#pce20654812)" style="fill: none; stroke: #b0b0b0; stroke-width: 0.8; stroke-linecap: square"/>
     </g>
     <g id="line2d_2">
      <defs>
       <path id="me3c7edc678" d="M 0 0 
L 0 3.5 
" style="stroke: #000000; stroke-width: 0.8"/>
      </defs>
      <g>
       <use xlink:href="#me3c7edc678" x="27.9" y="138.821875" style="stroke: #000000; stroke-width: 0.8"/>
      </g>
     </g>
     <g id="text_1">
      <!-- $\infty \leftarrow $ -->
      <g transform="translate(17.55 153.420312) scale(0.1 -0.1)">
       <defs>
        <path id="DejaVuSans-221e" d="M 2916 1091 
Q 2819 1203 2666 1466 
Q 2456 1091 2272 925 
Q 2041 725 1681 725 
Q 1259 725 981 1041 
Q 688 1372 688 1919 
Q 688 2444 981 2800 
Q 1244 3116 1688 3116 
Q 1916 3116 2084 3022 
Q 2281 2919 2416 2741 
Q 2541 2581 2666 2366 
Q 2875 2741 3059 2906 
Q 3291 3106 3650 3106 
Q 4072 3106 4350 2791 
Q 4644 2459 4644 1913 
Q 4644 1388 4350 1031 
Q 4088 716 3644 716 
Q 3416 716 3247 809 
Q 3078 894 2916 1091 
z
M 1647 1134 
Q 2163 1134 2472 1884 
Q 2075 2703 1647 2703 
Q 1334 2703 1175 2478 
Q 1003 2238 1003 1919 
Q 1003 1569 1175 1353 
Q 1350 1134 1647 1134 
z
M 3684 2697 
Q 3219 2697 2859 1947 
Q 3253 1128 3684 1128 
Q 3997 1128 4156 1353 
Q 4328 1594 4328 1913 
Q 4328 2263 4156 2478 
Q 3981 2697 3684 2697 
z
" transform="scale(0.015625)"/>
        <path id="DejaVuSans-2190" d="M 313 1866 
L 313 2147 
L 1541 3375 
L 1916 3000 
L 1188 2272 
L 4997 2272 
L 4997 1741 
L 1188 1741 
L 1916 1013 
L 1541 638 
L 313 1866 
z
" transform="scale(0.015625)"/>
       </defs>
       <use xlink:href="#DejaVuSans-221e" transform="translate(0 0.265625)"/>
       <use xlink:href="#DejaVuSans-2190" transform="translate(102.783203 0.265625)"/>
      </g>
     </g>
    </g>
    <g id="xtick_2">
     <g id="line2d_3">
      <path d="M 66.76875 138.821875 
L 66.76875 10.8 
" clip-path="url(#pce20654812)" style="fill: none; stroke: #b0b0b0; stroke-width: 0.8; stroke-linecap: square"/>
     </g>
     <g id="line2d_4">
      <g>
       <use xlink:href="#me3c7edc678" x="66.76875" y="138.821875" style="stroke: #000000; stroke-width: 0.8"/>
      </g>
     </g>
     <g id="text_2">
      <!-- −15 -->
      <g transform="translate(56.216406 153.420312) scale(0.1 -0.1)">
       <defs>
        <path id="DejaVuSans-2212" d="M 678 2272 
L 4684 2272 
L 4684 1741 
L 678 1741 
L 678 2272 
z
" transform="scale(0.015625)"/>
        <path id="DejaVuSans-31" d="M 794 531 
L 1825 531 
L 1825 4091 
L 703 3866 
L 703 4441 
L 1819 4666 
L 2450 4666 
L 2450 531 
L 3481 531 
L 3481 0 
L 794 0 
L 794 531 
z
" transform="scale(0.015625)"/>
        <path id="DejaVuSans-35" d="M 691 4666 
L 3169 4666 
L 3169 4134 
L 1269 4134 
L 1269 2991 
Q 1406 3038 1543 3061 
Q 1681 3084 1819 3084 
Q 2600 3084 3056 2656 
Q 3513 2228 3513 1497 
Q 3513 744 3044 326 
Q 2575 -91 1722 -91 
Q 1428 -91 1123 -41 
Q 819 9 494 109 
L 494 744 
Q 775 591 1075 516 
Q 1375 441 1709 441 
Q 2250 441 2565 725 
Q 2881 1009 2881 1497 
Q 2881 1984 2565 2268 
Q 2250 2553 1709 2553 
Q 1456 2553 1204 2497 
Q 953 2441 691 2322 
L 691 4666 
z
" transform="scale(0.015625)"/>
       </defs>
       <use xlink:href="#DejaVuSans-2212"/>
       <use xlink:href="#DejaVuSans-31" transform="translate(83.789062 0)"/>
       <use xlink:href="#DejaVuSans-35" transform="translate(147.412109 0)"/>
      </g>
     </g>
    </g>
    <g id="xtick_3">
     <g id="line2d_5">
      <path d="M 105.6375 138.821875 
L 105.6375 10.8 
" clip-path="url(#pce20654812)" style="fill: none; stroke: #b0b0b0; stroke-width: 0.8; stroke-linecap: square"/>
     </g>
     <g id="line2d_6">
      <g>
       <use xlink:href="#me3c7edc678" x="105.6375" y="138.821875" style="stroke: #000000; stroke-width: 0.8"/>
      </g>
     </g>
     <g id="text_3">
      <!-- −10 -->
      <g transform="translate(95.085156 153.420312) scale(0.1 -0.1)">
       <defs>
        <path id="DejaVuSans-30" d="M 2034 4250 
Q 1547 4250 1301 3770 
Q 1056 3291 1056 2328 
Q 1056 1369 1301 889 
Q 1547 409 2034 409 
Q 2525 409 2770 889 
Q 3016 1369 3016 2328 
Q 3016 3291 2770 3770 
Q 2525 4250 2034 4250 
z
M 2034 4750 
Q 2819 4750 3233 4129 
Q 3647 3509 3647 2328 
Q 3647 1150 3233 529 
Q 2819 -91 2034 -91 
Q 1250 -91 836 529 
Q 422 1150 422 2328 
Q 422 3509 836 4129 
Q 1250 4750 2034 4750 
z
" transform="scale(0.015625)"/>
       </defs>
       <use xlink:href="#DejaVuSans-2212"/>
       <use xlink:href="#DejaVuSans-31" transform="translate(83.789062 0)"/>
       <use xlink:href="#DejaVuSans-30" transform="translate(147.412109 0)"/>
      </g>
     </g>
    </g>
    <g id="xtick_4">
     <g id="line2d_7">
      <path d="M 144.50625 138.821875 
L 144.50625 10.8 
" clip-path="url(#pce20654812)" style="fill: none; stroke: #b0b0b0; stroke-width: 0.8; stroke-linecap: square"/>
     </g>
     <g id="line2d_8">
      <g>
       <use xlink:href="#me3c7edc678" x="144.50625" y="138.821875" style="stroke: #000000; stroke-width: 0.8"/>
      </g>
     </g>
     <g id="text_4">
      <!-- −5 -->
      <g transform="translate(137.135156 153.420312) scale(0.1 -0.1)">
       <use xlink:href="#DejaVuSans-2212"/>
       <use xlink:href="#DejaVuSans-35" transform="translate(83.789062 0)"/>
      </g>
     </g>
    </g>
    <g id="xtick_5">
     <g id="line2d_9">
      <path d="M 183.375 138.821875 
L 183.375 10.8 
" clip-path="url(#pce20654812)" style="fill: none; stroke: #b0b0b0; stroke-width: 0.8; stroke-linecap: square"/>
     </g>
     <g id="line2d_10">
      <g>
       <use xlink:href="#me3c7edc678" x="183.375" y="138.821875" style="stroke: #000000; stroke-width: 0.8"/>
      </g>
     </g>
     <g id="text_5">
      <!-- 0 -->
      <g transform="translate(180.19375 153.420312) scale(0.1 -0.1)">
       <use xlink:href="#DejaVuSans-30"/>
      </g>
     </g>
    </g>
    <g id="xtick_6">
     <g id="line2d_11">
      <path d="M 222.24375 138.821875 
L 222.24375 10.8 
" clip-path="url(#pce20654812)" style="fill: none; stroke: #b0b0b0; stroke-width: 0.8; stroke-linecap: square"/>
     </g>
     <g id="line2d_12">
      <g>
       <use xlink:href="#me3c7edc678" x="222.24375" y="138.821875" style="stroke: #000000; stroke-width: 0.8"/>
      </g>
     </g>
     <g id="text_6">
      <!-- 5 -->
      <g transform="translate(219.0625 153.420312) scale(0.1 -0.1)">
       <use xlink:href="#DejaVuSans-35"/>
      </g>
     </g>
    </g>
    <g id="xtick_7">
     <g id="line2d_13">
      <path d="M 261.1125 138.821875 
L 261.1125 10.8 
" clip-path="url(#pce20654812)" style="fill: none; stroke: #b0b0b0; stroke-width: 0.8; stroke-linecap: square"/>
     </g>
     <g id="line2d_14">
      <g>
       <use xlink:href="#me3c7edc678" x="261.1125" y="138.821875" style="stroke: #000000; stroke-width: 0.8"/>
      </g>
     </g>
     <g id="text_7">
      <!-- 10 -->
      <g transform="translate(254.75 153.420312) scale(0.1 -0.1)">
       <use xlink:href="#DejaVuSans-31"/>
       <use xlink:href="#DejaVuSans-30" transform="translate(63.623047 0)"/>
      </g>
     </g>
    </g>
    <g id="xtick_8">
     <g id="line2d_15">
      <path d="M 299.98125 138.821875 
L 299.98125 10.8 
" clip-path="url(#pce20654812)" style="fill: none; stroke: #b0b0b0; stroke-width: 0.8; stroke-linecap: square"/>
     </g>
     <g id="line2d_16">
      <g>
       <use xlink:href="#me3c7edc678" x="299.98125" y="138.821875" style="stroke: #000000; stroke-width: 0.8"/>
      </g>
     </g>
     <g id="text_8">
      <!-- 15 -->
      <g transform="translate(293.61875 153.420312) scale(0.1 -0.1)">
       <use xlink:href="#DejaVuSans-31"/>
       <use xlink:href="#DejaVuSans-35" transform="translate(63.623047 0)"/>
      </g>
     </g>
    </g>
    <g id="xtick_9">
     <g id="line2d_17">
      <path d="M 338.85 138.821875 
L 338.85 10.8 
" clip-path="url(#pce20654812)" style="fill: none; stroke: #b0b0b0; stroke-width: 0.8; stroke-linecap: square"/>
     </g>
     <g id="line2d_18">
      <g>
       <use xlink:href="#me3c7edc678" x="338.85" y="138.821875" style="stroke: #000000; stroke-width: 0.8"/>
      </g>
     </g>
     <g id="text_9">
      <!-- $\rightarrow \infty$ -->
      <g transform="translate(328.5 153.420312) scale(0.1 -0.1)">
       <defs>
        <path id="DejaVuSans-2192" d="M 5050 2147 
L 5050 1866 
L 3822 638 
L 3447 1013 
L 4175 1741 
L 366 1741 
L 366 2272 
L 4175 2272 
L 3447 3000 
L 3822 3375 
L 5050 2147 
z
" transform="scale(0.015625)"/>
       </defs>
       <use xlink:href="#DejaVuSans-2192" transform="translate(19.482422 0.265625)"/>
       <use xlink:href="#DejaVuSans-221e" transform="translate(122.753906 0.265625)"/>
      </g>
     </g>
    </g>
    <g id="text_10">
     <!-- Sample number $n$ -->
     <g transform="translate(138.725 167.1) scale(0.1 -0.1)">
      <defs>
       <path id="DejaVuSans-53" d="M 3425 4513 
L 3425 3897 
Q 3066 4069 2747 4153 
Q 2428 4238 2131 4238 
Q 1616 4238 1336 4038 
Q 1056 3838 1056 3469 
Q 1056 3159 1242 3001 
Q 1428 2844 1947 2747 
L 2328 2669 
Q 3034 2534 3370 2195 
Q 3706 1856 3706 1288 
Q 3706 609 3251 259 
Q 2797 -91 1919 -91 
Q 1588 -91 1214 -16 
Q 841 59 441 206 
L 441 856 
Q 825 641 1194 531 
Q 1563 422 1919 422 
Q 2459 422 2753 634 
Q 3047 847 3047 1241 
Q 3047 1584 2836 1778 
Q 2625 1972 2144 2069 
L 1759 2144 
Q 1053 2284 737 2584 
Q 422 2884 422 3419 
Q 422 4038 858 4394 
Q 1294 4750 2059 4750 
Q 2388 4750 2728 4690 
Q 3069 4631 3425 4513 
z
" transform="scale(0.015625)"/>
       <path id="DejaVuSans-61" d="M 2194 1759 
Q 1497 1759 1228 1600 
Q 959 1441 959 1056 
Q 959 750 1161 570 
Q 1363 391 1709 391 
Q 2188 391 2477 730 
Q 2766 1069 2766 1631 
L 2766 1759 
L 2194 1759 
z
M 3341 1997 
L 3341 0 
L 2766 0 
L 2766 531 
Q 2569 213 2275 61 
Q 1981 -91 1556 -91 
Q 1019 -91 701 211 
Q 384 513 384 1019 
Q 384 1609 779 1909 
Q 1175 2209 1959 2209 
L 2766 2209 
L 2766 2266 
Q 2766 2663 2505 2880 
Q 2244 3097 1772 3097 
Q 1472 3097 1187 3025 
Q 903 2953 641 2809 
L 641 3341 
Q 956 3463 1253 3523 
Q 1550 3584 1831 3584 
Q 2591 3584 2966 3190 
Q 3341 2797 3341 1997 
z
" transform="scale(0.015625)"/>
       <path id="DejaVuSans-6d" d="M 3328 2828 
Q 3544 3216 3844 3400 
Q 4144 3584 4550 3584 
Q 5097 3584 5394 3201 
Q 5691 2819 5691 2113 
L 5691 0 
L 5113 0 
L 5113 2094 
Q 5113 2597 4934 2840 
Q 4756 3084 4391 3084 
Q 3944 3084 3684 2787 
Q 3425 2491 3425 1978 
L 3425 0 
L 2847 0 
L 2847 2094 
Q 2847 2600 2669 2842 
Q 2491 3084 2119 3084 
Q 1678 3084 1418 2786 
Q 1159 2488 1159 1978 
L 1159 0 
L 581 0 
L 581 3500 
L 1159 3500 
L 1159 2956 
Q 1356 3278 1631 3431 
Q 1906 3584 2284 3584 
Q 2666 3584 2933 3390 
Q 3200 3197 3328 2828 
z
" transform="scale(0.015625)"/>
       <path id="DejaVuSans-70" d="M 1159 525 
L 1159 -1331 
L 581 -1331 
L 581 3500 
L 1159 3500 
L 1159 2969 
Q 1341 3281 1617 3432 
Q 1894 3584 2278 3584 
Q 2916 3584 3314 3078 
Q 3713 2572 3713 1747 
Q 3713 922 3314 415 
Q 2916 -91 2278 -91 
Q 1894 -91 1617 61 
Q 1341 213 1159 525 
z
M 3116 1747 
Q 3116 2381 2855 2742 
Q 2594 3103 2138 3103 
Q 1681 3103 1420 2742 
Q 1159 2381 1159 1747 
Q 1159 1113 1420 752 
Q 1681 391 2138 391 
Q 2594 391 2855 752 
Q 3116 1113 3116 1747 
z
" transform="scale(0.015625)"/>
       <path id="DejaVuSans-6c" d="M 603 4863 
L 1178 4863 
L 1178 0 
L 603 0 
L 603 4863 
z
" transform="scale(0.015625)"/>
       <path id="DejaVuSans-65" d="M 3597 1894 
L 3597 1613 
L 953 1613 
Q 991 1019 1311 708 
Q 1631 397 2203 397 
Q 2534 397 2845 478 
Q 3156 559 3463 722 
L 3463 178 
Q 3153 47 2828 -22 
Q 2503 -91 2169 -91 
Q 1331 -91 842 396 
Q 353 884 353 1716 
Q 353 2575 817 3079 
Q 1281 3584 2069 3584 
Q 2775 3584 3186 3129 
Q 3597 2675 3597 1894 
z
M 3022 2063 
Q 3016 2534 2758 2815 
Q 2500 3097 2075 3097 
Q 1594 3097 1305 2825 
Q 1016 2553 972 2059 
L 3022 2063 
z
" transform="scale(0.015625)"/>
       <path id="DejaVuSans-20" transform="scale(0.015625)"/>
       <path id="DejaVuSans-6e" d="M 3513 2113 
L 3513 0 
L 2938 0 
L 2938 2094 
Q 2938 2591 2744 2837 
Q 2550 3084 2163 3084 
Q 1697 3084 1428 2787 
Q 1159 2491 1159 1978 
L 1159 0 
L 581 0 
L 581 3500 
L 1159 3500 
L 1159 2956 
Q 1366 3272 1645 3428 
Q 1925 3584 2291 3584 
Q 2894 3584 3203 3211 
Q 3513 2838 3513 2113 
z
" transform="scale(0.015625)"/>
       <path id="DejaVuSans-75" d="M 544 1381 
L 544 3500 
L 1119 3500 
L 1119 1403 
Q 1119 906 1312 657 
Q 1506 409 1894 409 
Q 2359 409 2629 706 
Q 2900 1003 2900 1516 
L 2900 3500 
L 3475 3500 
L 3475 0 
L 2900 0 
L 2900 538 
Q 2691 219 2414 64 
Q 2138 -91 1772 -91 
Q 1169 -91 856 284 
Q 544 659 544 1381 
z
M 1991 3584 
L 1991 3584 
z
" transform="scale(0.015625)"/>
       <path id="DejaVuSans-62" d="M 3116 1747 
Q 3116 2381 2855 2742 
Q 2594 3103 2138 3103 
Q 1681 3103 1420 2742 
Q 1159 2381 1159 1747 
Q 1159 1113 1420 752 
Q 1681 391 2138 391 
Q 2594 391 2855 752 
Q 3116 1113 3116 1747 
z
M 1159 2969 
Q 1341 3281 1617 3432 
Q 1894 3584 2278 3584 
Q 2916 3584 3314 3078 
Q 3713 2572 3713 1747 
Q 3713 922 3314 415 
Q 2916 -91 2278 -91 
Q 1894 -91 1617 61 
Q 1341 213 1159 525 
L 1159 0 
L 581 0 
L 581 4863 
L 1159 4863 
L 1159 2969 
z
" transform="scale(0.015625)"/>
       <path id="DejaVuSans-72" d="M 2631 2963 
Q 2534 3019 2420 3045 
Q 2306 3072 2169 3072 
Q 1681 3072 1420 2755 
Q 1159 2438 1159 1844 
L 1159 0 
L 581 0 
L 581 3500 
L 1159 3500 
L 1159 2956 
Q 1341 3275 1631 3429 
Q 1922 3584 2338 3584 
Q 2397 3584 2469 3576 
Q 2541 3569 2628 3553 
L 2631 2963 
z
" transform="scale(0.015625)"/>
       <path id="DejaVuSans-Oblique-6e" d="M 3566 2113 
L 3156 0 
L 2578 0 
L 2988 2091 
Q 3016 2238 3031 2350 
Q 3047 2463 3047 2528 
Q 3047 2791 2881 2937 
Q 2716 3084 2419 3084 
Q 1956 3084 1622 2776 
Q 1288 2469 1184 1941 
L 800 0 
L 225 0 
L 903 3500 
L 1478 3500 
L 1363 2950 
Q 1603 3253 1940 3418 
Q 2278 3584 2650 3584 
Q 3113 3584 3367 3334 
Q 3622 3084 3622 2631 
Q 3622 2519 3608 2391 
Q 3594 2263 3566 2113 
z
" transform="scale(0.015625)"/>
      </defs>
      <use xlink:href="#DejaVuSans-53" transform="translate(0 0.015625)"/>
      <use xlink:href="#DejaVuSans-61" transform="translate(63.476562 0.015625)"/>
      <use xlink:href="#DejaVuSans-6d" transform="translate(124.755859 0.015625)"/>
      <use xlink:href="#DejaVuSans-70" transform="translate(222.167969 0.015625)"/>
      <use xlink:href="#DejaVuSans-6c" transform="translate(285.644531 0.015625)"/>
      <use xlink:href="#DejaVuSans-65" transform="translate(313.427734 0.015625)"/>
      <use xlink:href="#DejaVuSans-20" transform="translate(374.951172 0.015625)"/>
      <use xlink:href="#DejaVuSans-6e" transform="translate(406.738281 0.015625)"/>
      <use xlink:href="#DejaVuSans-75" transform="translate(470.117188 0.015625)"/>
      <use xlink:href="#DejaVuSans-6d" transform="translate(533.496094 0.015625)"/>
      <use xlink:href="#DejaVuSans-62" transform="translate(630.908203 0.015625)"/>
      <use xlink:href="#DejaVuSans-65" transform="translate(694.384766 0.015625)"/>
      <use xlink:href="#DejaVuSans-72" transform="translate(755.908203 0.015625)"/>
      <use xlink:href="#DejaVuSans-20" transform="translate(797.021484 0.015625)"/>
      <use xlink:href="#DejaVuSans-Oblique-6e" transform="translate(828.808594 0.015625)"/>
     </g>
    </g>
   </g>
   <g id="matplotlib.axis_2">
    <g id="ytick_1">
     <g id="line2d_19">
      <path d="M 27.9 112.240204 
L 338.85 112.240204 
" clip-path="url(#pce20654812)" style="fill: none; stroke: #b0b0b0; stroke-width: 0.8; stroke-linecap: square"/>
     </g>
     <g id="line2d_20">
      <defs>
       <path id="mcecfd4f1fe" d="M 0 0 
L -3.5 0 
" style="stroke: #000000; stroke-width: 0.8"/>
      </defs>
      <g>
       <use xlink:href="#mcecfd4f1fe" x="27.9" y="112.240204" style="stroke: #000000; stroke-width: 0.8"/>
      </g>
     </g>
     <g id="text_11">
      <!-- $0$ -->
      <g transform="translate(14.5 116.039422) scale(0.1 -0.1)">
       <use xlink:href="#DejaVuSans-30" transform="translate(0 0.78125)"/>
      </g>
     </g>
    </g>
    <g id="ytick_2">
     <g id="line2d_21">
      <path d="M 27.9 16.619176 
L 338.85 16.619176 
" clip-path="url(#pce20654812)" style="fill: none; stroke: #b0b0b0; stroke-width: 0.8; stroke-linecap: square"/>
     </g>
     <g id="line2d_22">
      <g>
       <use xlink:href="#mcecfd4f1fe" x="27.9" y="16.619176" style="stroke: #000000; stroke-width: 0.8"/>
      </g>
     </g>
     <g id="text_12">
      <!-- $\frac{\hat{\omega}_c}{\pi}$ -->
      <g transform="translate(10.8 22.619176) scale(0.1 -0.1)">
       <defs>
        <path id="DejaVuSans-302" d="M -1831 5119 
L -1369 5119 
L -603 3944 
L -1038 3944 
L -1600 4709 
L -2163 3944 
L -2597 3944 
L -1831 5119 
z
M -1600 3584 
L -1600 3584 
z
" transform="scale(0.015625)"/>
        <path id="DejaVuSans-Oblique-3c9" d="M 1369 -91 
Q 72 -91 434 1766 
Q 575 2500 1256 3500 
L 1875 3500 
Q 1231 2500 1088 1750 
Q 819 397 1519 397 
Q 2166 397 2478 2078 
L 3009 2078 
Q 2669 388 3316 397 
Q 4013 403 4275 1750 
Q 4419 2500 4169 3500 
L 4788 3500 
Q 5075 2500 4934 1766 
Q 4578 -94 3278 -91 
Q 2428 -88 2503 844 
Q 2194 -91 1369 -91 
z
" transform="scale(0.015625)"/>
        <path id="DejaVuSans-Oblique-63" d="M 3431 3366 
L 3316 2797 
Q 3109 2947 2876 3022 
Q 2644 3097 2394 3097 
Q 2119 3097 1870 3000 
Q 1622 2903 1453 2725 
Q 1184 2453 1037 2087 
Q 891 1722 891 1331 
Q 891 859 1127 628 
Q 1363 397 1844 397 
Q 2081 397 2348 469 
Q 2616 541 2906 684 
L 2797 116 
Q 2547 13 2283 -39 
Q 2019 -91 1741 -91 
Q 1044 -91 669 257 
Q 294 606 294 1253 
Q 294 1797 489 2255 
Q 684 2713 1069 3078 
Q 1331 3328 1684 3456 
Q 2038 3584 2456 3584 
Q 2700 3584 2940 3529 
Q 3181 3475 3431 3366 
z
" transform="scale(0.015625)"/>
        <path id="DejaVuSans-Oblique-3c0" d="M 584 3500 
L 3938 3500 
L 3825 2925 
L 3384 2925 
L 2966 775 
Q 2922 550 2981 450 
Q 3038 353 3209 353 
Q 3256 353 3325 363 
Q 3397 369 3419 372 
L 3338 -44 
Q 3222 -84 3103 -103 
Q 2981 -122 2866 -122 
Q 2491 -122 2388 81 
Q 2284 288 2391 838 
L 2797 2925 
L 1506 2925 
L 938 0 
L 350 0 
L 919 2925 
L 472 2925 
L 584 3500 
z
" transform="scale(0.015625)"/>
       </defs>
       <use xlink:href="#DejaVuSans-302" transform="translate(54.060791 64.007812) scale(0.7)"/>
       <use xlink:href="#DejaVuSans-Oblique-3c9" transform="translate(0 56.179688) scale(0.7)"/>
       <use xlink:href="#DejaVuSans-Oblique-63" transform="translate(59.288086 44.695312) scale(0.49)"/>
       <use xlink:href="#DejaVuSans-Oblique-3c0" transform="translate(23 -25.532656) scale(0.7)"/>
       <path d="M 0 18.998594 
L 0 25.248594 
L 88.142578 25.248594 
L 88.142578 18.998594 
L 0 18.998594 
z
"/>
      </g>
     </g>
    </g>
   </g>
   <g id="LineCollection_1">
    <path d="M 27.9 112.240204 
L 27.9 112.240204 
" clip-path="url(#pce20654812)" style="fill: none; stroke: #1f77b4; stroke-width: 1.5"/>
    <path d="M 35.67375 112.240204 
L 35.67375 116.049075 
" clip-path="url(#pce20654812)" style="fill: none; stroke: #1f77b4; stroke-width: 1.5"/>
    <path d="M 43.4475 112.240204 
L 43.4475 114.724994 
" clip-path="url(#pce20654812)" style="fill: none; stroke: #1f77b4; stroke-width: 1.5"/>
    <path d="M 51.22125 112.240204 
L 51.22125 109.609249 
" clip-path="url(#pce20654812)" style="fill: none; stroke: #1f77b4; stroke-width: 1.5"/>
    <path d="M 58.995 112.240204 
L 58.995 107.717169 
" clip-path="url(#pce20654812)" style="fill: none; stroke: #1f77b4; stroke-width: 1.5"/>
    <path d="M 66.76875 112.240204 
L 66.76875 112.240204 
" clip-path="url(#pce20654812)" style="fill: none; stroke: #1f77b4; stroke-width: 1.5"/>
    <path d="M 74.5425 112.240204 
L 74.5425 117.409386 
" clip-path="url(#pce20654812)" style="fill: none; stroke: #1f77b4; stroke-width: 1.5"/>
    <path d="M 82.31625 112.240204 
L 82.31625 115.680682 
" clip-path="url(#pce20654812)" style="fill: none; stroke: #1f77b4; stroke-width: 1.5"/>
    <path d="M 90.09 112.240204 
L 90.09 108.513018 
" clip-path="url(#pce20654812)" style="fill: none; stroke: #1f77b4; stroke-width: 1.5"/>
    <path d="M 97.86375 112.240204 
L 97.86375 105.661244 
" clip-path="url(#pce20654812)" style="fill: none; stroke: #1f77b4; stroke-width: 1.5"/>
    <path d="M 105.6375 112.240204 
L 105.6375 112.240204 
" clip-path="url(#pce20654812)" style="fill: none; stroke: #1f77b4; stroke-width: 1.5"/>
    <path d="M 113.41125 112.240204 
L 113.41125 120.281153 
" clip-path="url(#pce20654812)" style="fill: none; stroke: #1f77b4; stroke-width: 1.5"/>
    <path d="M 121.185 112.240204 
L 121.185 117.830981 
" clip-path="url(#pce20654812)" style="fill: none; stroke: #1f77b4; stroke-width: 1.5"/>
    <path d="M 128.95875 112.240204 
L 128.95875 105.850743 
" clip-path="url(#pce20654812)" style="fill: none; stroke: #1f77b4; stroke-width: 1.5"/>
    <path d="M 136.7325 112.240204 
L 136.7325 100.178779 
" clip-path="url(#pce20654812)" style="fill: none; stroke: #1f77b4; stroke-width: 1.5"/>
    <path d="M 144.50625 112.240204 
L 144.50625 112.240204 
" clip-path="url(#pce20654812)" style="fill: none; stroke: #1f77b4; stroke-width: 1.5"/>
    <path d="M 152.28 112.240204 
L 152.28 130.332341 
" clip-path="url(#pce20654812)" style="fill: none; stroke: #1f77b4; stroke-width: 1.5"/>
    <path d="M 160.05375 112.240204 
L 160.05375 127.148945 
" clip-path="url(#pce20654812)" style="fill: none; stroke: #1f77b4; stroke-width: 1.5"/>
    <path d="M 167.8275 112.240204 
L 167.8275 89.877092 
" clip-path="url(#pce20654812)" style="fill: none; stroke: #1f77b4; stroke-width: 1.5"/>
    <path d="M 175.60125 112.240204 
L 175.60125 39.871654 
" clip-path="url(#pce20654812)" style="fill: none; stroke: #1f77b4; stroke-width: 1.5"/>
    <path d="M 183.375 112.240204 
L 183.375 16.619176 
" clip-path="url(#pce20654812)" style="fill: none; stroke: #1f77b4; stroke-width: 1.5"/>
    <path d="M 191.14875 112.240204 
L 191.14875 39.871654 
" clip-path="url(#pce20654812)" style="fill: none; stroke: #1f77b4; stroke-width: 1.5"/>
    <path d="M 198.9225 112.240204 
L 198.9225 89.877092 
" clip-path="url(#pce20654812)" style="fill: none; stroke: #1f77b4; stroke-width: 1.5"/>
    <path d="M 206.69625 112.240204 
L 206.69625 127.148945 
" clip-path="url(#pce20654812)" style="fill: none; stroke: #1f77b4; stroke-width: 1.5"/>
    <path d="M 214.47 112.240204 
L 214.47 130.332341 
" clip-path="url(#pce20654812)" style="fill: none; stroke: #1f77b4; stroke-width: 1.5"/>
    <path d="M 222.24375 112.240204 
L 222.24375 112.240204 
" clip-path="url(#pce20654812)" style="fill: none; stroke: #1f77b4; stroke-width: 1.5"/>
    <path d="M 230.0175 112.240204 
L 230.0175 100.178779 
" clip-path="url(#pce20654812)" style="fill: none; stroke: #1f77b4; stroke-width: 1.5"/>
    <path d="M 237.79125 112.240204 
L 237.79125 105.850743 
" clip-path="url(#pce20654812)" style="fill: none; stroke: #1f77b4; stroke-width: 1.5"/>
    <path d="M 245.565 112.240204 
L 245.565 117.830981 
" clip-path="url(#pce20654812)" style="fill: none; stroke: #1f77b4; stroke-width: 1.5"/>
    <path d="M 253.33875 112.240204 
L 253.33875 120.281153 
" clip-path="url(#pce20654812)" style="fill: none; stroke: #1f77b4; stroke-width: 1.5"/>
    <path d="M 261.1125 112.240204 
L 261.1125 112.240204 
" clip-path="url(#pce20654812)" style="fill: none; stroke: #1f77b4; stroke-width: 1.5"/>
    <path d="M 268.88625 112.240204 
L 268.88625 105.661244 
" clip-path="url(#pce20654812)" style="fill: none; stroke: #1f77b4; stroke-width: 1.5"/>
    <path d="M 276.66 112.240204 
L 276.66 108.513018 
" clip-path="url(#pce20654812)" style="fill: none; stroke: #1f77b4; stroke-width: 1.5"/>
    <path d="M 284.43375 112.240204 
L 284.43375 115.680682 
" clip-path="url(#pce20654812)" style="fill: none; stroke: #1f77b4; stroke-width: 1.5"/>
    <path d="M 292.2075 112.240204 
L 292.2075 117.409386 
" clip-path="url(#pce20654812)" style="fill: none; stroke: #1f77b4; stroke-width: 1.5"/>
    <path d="M 299.98125 112.240204 
L 299.98125 112.240204 
" clip-path="url(#pce20654812)" style="fill: none; stroke: #1f77b4; stroke-width: 1.5"/>
    <path d="M 307.755 112.240204 
L 307.755 107.717169 
" clip-path="url(#pce20654812)" style="fill: none; stroke: #1f77b4; stroke-width: 1.5"/>
    <path d="M 315.52875 112.240204 
L 315.52875 109.609249 
" clip-path="url(#pce20654812)" style="fill: none; stroke: #1f77b4; stroke-width: 1.5"/>
    <path d="M 323.3025 112.240204 
L 323.3025 114.724994 
" clip-path="url(#pce20654812)" style="fill: none; stroke: #1f77b4; stroke-width: 1.5"/>
    <path d="M 331.07625 112.240204 
L 331.07625 116.049075 
" clip-path="url(#pce20654812)" style="fill: none; stroke: #1f77b4; stroke-width: 1.5"/>
    <path d="M 338.85 112.240204 
L 338.85 112.240204 
" clip-path="url(#pce20654812)" style="fill: none; stroke: #1f77b4; stroke-width: 1.5"/>
   </g>
   <g id="line2d_23">
    <defs>
     <path id="m7bb58641ee" d="M 0 3 
C 0.795609 3 1.55874 2.683901 2.12132 2.12132 
C 2.683901 1.55874 3 0.795609 3 0 
C 3 -0.795609 2.683901 -1.55874 2.12132 -2.12132 
C 1.55874 -2.683901 0.795609 -3 0 -3 
C -0.795609 -3 -1.55874 -2.683901 -2.12132 -2.12132 
C -2.683901 -1.55874 -3 -0.795609 -3 0 
C -3 0.795609 -2.683901 1.55874 -2.12132 2.12132 
C -1.55874 2.683901 -0.795609 3 0 3 
z
" style="stroke: #1f77b4"/>
    </defs>
    <g clip-path="url(#pce20654812)">
     <use xlink:href="#m7bb58641ee" x="27.9" y="112.240204" style="fill: #1f77b4; stroke: #1f77b4"/>
     <use xlink:href="#m7bb58641ee" x="35.67375" y="116.049075" style="fill: #1f77b4; stroke: #1f77b4"/>
     <use xlink:href="#m7bb58641ee" x="43.4475" y="114.724994" style="fill: #1f77b4; stroke: #1f77b4"/>
     <use xlink:href="#m7bb58641ee" x="51.22125" y="109.609249" style="fill: #1f77b4; stroke: #1f77b4"/>
     <use xlink:href="#m7bb58641ee" x="58.995" y="107.717169" style="fill: #1f77b4; stroke: #1f77b4"/>
     <use xlink:href="#m7bb58641ee" x="66.76875" y="112.240204" style="fill: #1f77b4; stroke: #1f77b4"/>
     <use xlink:href="#m7bb58641ee" x="74.5425" y="117.409386" style="fill: #1f77b4; stroke: #1f77b4"/>
     <use xlink:href="#m7bb58641ee" x="82.31625" y="115.680682" style="fill: #1f77b4; stroke: #1f77b4"/>
     <use xlink:href="#m7bb58641ee" x="90.09" y="108.513018" style="fill: #1f77b4; stroke: #1f77b4"/>
     <use xlink:href="#m7bb58641ee" x="97.86375" y="105.661244" style="fill: #1f77b4; stroke: #1f77b4"/>
     <use xlink:href="#m7bb58641ee" x="105.6375" y="112.240204" style="fill: #1f77b4; stroke: #1f77b4"/>
     <use xlink:href="#m7bb58641ee" x="113.41125" y="120.281153" style="fill: #1f77b4; stroke: #1f77b4"/>
     <use xlink:href="#m7bb58641ee" x="121.185" y="117.830981" style="fill: #1f77b4; stroke: #1f77b4"/>
     <use xlink:href="#m7bb58641ee" x="128.95875" y="105.850743" style="fill: #1f77b4; stroke: #1f77b4"/>
     <use xlink:href="#m7bb58641ee" x="136.7325" y="100.178779" style="fill: #1f77b4; stroke: #1f77b4"/>
     <use xlink:href="#m7bb58641ee" x="144.50625" y="112.240204" style="fill: #1f77b4; stroke: #1f77b4"/>
     <use xlink:href="#m7bb58641ee" x="152.28" y="130.332341" style="fill: #1f77b4; stroke: #1f77b4"/>
     <use xlink:href="#m7bb58641ee" x="160.05375" y="127.148945" style="fill: #1f77b4; stroke: #1f77b4"/>
     <use xlink:href="#m7bb58641ee" x="167.8275" y="89.877092" style="fill: #1f77b4; stroke: #1f77b4"/>
     <use xlink:href="#m7bb58641ee" x="175.60125" y="39.871654" style="fill: #1f77b4; stroke: #1f77b4"/>
     <use xlink:href="#m7bb58641ee" x="183.375" y="16.619176" style="fill: #1f77b4; stroke: #1f77b4"/>
     <use xlink:href="#m7bb58641ee" x="191.14875" y="39.871654" style="fill: #1f77b4; stroke: #1f77b4"/>
     <use xlink:href="#m7bb58641ee" x="198.9225" y="89.877092" style="fill: #1f77b4; stroke: #1f77b4"/>
     <use xlink:href="#m7bb58641ee" x="206.69625" y="127.148945" style="fill: #1f77b4; stroke: #1f77b4"/>
     <use xlink:href="#m7bb58641ee" x="214.47" y="130.332341" style="fill: #1f77b4; stroke: #1f77b4"/>
     <use xlink:href="#m7bb58641ee" x="222.24375" y="112.240204" style="fill: #1f77b4; stroke: #1f77b4"/>
     <use xlink:href="#m7bb58641ee" x="230.0175" y="100.178779" style="fill: #1f77b4; stroke: #1f77b4"/>
     <use xlink:href="#m7bb58641ee" x="237.79125" y="105.850743" style="fill: #1f77b4; stroke: #1f77b4"/>
     <use xlink:href="#m7bb58641ee" x="245.565" y="117.830981" style="fill: #1f77b4; stroke: #1f77b4"/>
     <use xlink:href="#m7bb58641ee" x="253.33875" y="120.281153" style="fill: #1f77b4; stroke: #1f77b4"/>
     <use xlink:href="#m7bb58641ee" x="261.1125" y="112.240204" style="fill: #1f77b4; stroke: #1f77b4"/>
     <use xlink:href="#m7bb58641ee" x="268.88625" y="105.661244" style="fill: #1f77b4; stroke: #1f77b4"/>
     <use xlink:href="#m7bb58641ee" x="276.66" y="108.513018" style="fill: #1f77b4; stroke: #1f77b4"/>
     <use xlink:href="#m7bb58641ee" x="284.43375" y="115.680682" style="fill: #1f77b4; stroke: #1f77b4"/>
     <use xlink:href="#m7bb58641ee" x="292.2075" y="117.409386" style="fill: #1f77b4; stroke: #1f77b4"/>
     <use xlink:href="#m7bb58641ee" x="299.98125" y="112.240204" style="fill: #1f77b4; stroke: #1f77b4"/>
     <use xlink:href="#m7bb58641ee" x="307.755" y="107.717169" style="fill: #1f77b4; stroke: #1f77b4"/>
     <use xlink:href="#m7bb58641ee" x="315.52875" y="109.609249" style="fill: #1f77b4; stroke: #1f77b4"/>
     <use xlink:href="#m7bb58641ee" x="323.3025" y="114.724994" style="fill: #1f77b4; stroke: #1f77b4"/>
     <use xlink:href="#m7bb58641ee" x="331.07625" y="116.049075" style="fill: #1f77b4; stroke: #1f77b4"/>
     <use xlink:href="#m7bb58641ee" x="338.85" y="112.240204" style="fill: #1f77b4; stroke: #1f77b4"/>
    </g>
   </g>
   <g id="line2d_24">
    <path d="M 27.9 112.240204 
L 338.85 112.240204 
" clip-path="url(#pce20654812)" style="fill: none; stroke: #808080; stroke-width: 0.5; stroke-linecap: square"/>
   </g>
   <g id="line2d_25">
    <path d="M 27.9 112.240204 
L 31.6314 114.451529 
L 33.4971 115.343465 
L 35.3628 115.974221 
L 36.6066 116.216882 
L 37.8504 116.302101 
L 39.0942 116.223726 
L 40.338 115.982096 
L 42.2037 115.330481 
L 44.0694 114.378713 
L 46.557 112.782076 
L 51.5322 109.424001 
L 53.3979 108.460158 
L 55.2636 107.814439 
L 56.5074 107.595682 
L 57.7512 107.561573 
L 58.995 107.717169 
L 60.2388 108.059982 
L 61.4826 108.57993 
L 63.3483 109.651991 
L 65.214 110.995236 
L 72.0549 116.248101 
L 73.9206 117.186458 
L 75.1644 117.582378 
L 76.4082 117.769767 
L 77.652 117.736158 
L 78.8958 117.477682 
L 80.1396 116.999418 
L 81.3834 116.315402 
L 83.2491 114.955321 
L 85.1148 113.293842 
L 90.7119 107.988634 
L 92.5776 106.653594 
L 93.8214 106.011489 
L 95.0652 105.605786 
L 96.309 105.45961 
L 97.5528 105.586346 
L 98.7966 105.988835 
L 100.0404 106.658964 
L 101.2842 107.577675 
L 103.1499 109.354475 
L 105.0156 111.482584 
L 109.9908 117.455913 
L 111.8565 119.223603 
L 113.1003 120.104772 
L 114.3441 120.695124 
L 115.5879 120.960241 
L 116.8317 120.877374 
L 118.0755 120.43673 
L 119.3193 119.642324 
L 120.5631 118.51232 
L 121.8069 117.078852 
L 123.6726 114.462259 
L 126.1602 110.430693 
L 129.2697 105.377734 
L 131.1354 102.83509 
L 132.3792 101.50976 
L 133.623 100.5613 
L 134.8668 100.046808 
L 135.4887 99.966395 
L 136.1106 100.009436 
L 136.7325 100.178779 
L 137.3544 100.476139 
L 138.5982 101.455909 
L 139.842 102.938578 
L 141.0858 104.894247 
L 142.3296 107.273377 
L 144.1953 111.481626 
L 147.3048 119.4086 
L 149.7924 125.525642 
L 151.0362 128.157202 
L 152.28 130.332341 
L 153.5238 131.929439 
L 154.1457 132.476051 
L 154.7676 132.837647 
L 155.3895 133.002699 
L 156.0114 132.960829 
L 156.6333 132.70291 
L 157.2552 132.221158 
L 157.8771 131.509217 
L 158.499 130.562237 
L 159.1209 129.376935 
L 160.3647 126.286377 
L 161.6085 122.244356 
L 162.8523 117.284898 
L 164.0961 111.469147 
L 165.9618 101.33775 
L 167.8275 89.877092 
L 171.5589 65.033107 
L 174.0465 48.954667 
L 175.9122 38.182181 
L 177.156 31.931113 
L 178.3998 26.599067 
L 179.6436 22.312953 
L 180.8874 19.175464 
L 181.5093 18.062185 
L 182.1312 17.262136 
L 182.7531 16.78016 
L 183.375 16.619176 
L 183.9969 16.78016 
L 184.6188 17.262136 
L 185.2407 18.062185 
L 185.8626 19.175464 
L 186.4845 20.595244 
L 187.7283 24.318244 
L 188.9721 29.141752 
L 190.2159 34.950552 
L 192.0816 45.204764 
L 193.9473 56.823307 
L 200.7882 101.33775 
L 202.6539 111.469147 
L 203.8977 117.284898 
L 205.1415 122.244356 
L 206.3853 126.286377 
L 207.6291 129.376935 
L 208.8729 131.509217 
L 209.4948 132.221158 
L 210.1167 132.70291 
L 210.7386 132.960829 
L 211.3605 133.002699 
L 211.9824 132.837647 
L 212.6043 132.476051 
L 213.2262 131.929439 
L 214.47 130.332341 
L 215.7138 128.157202 
L 216.9576 125.525642 
L 218.8233 121.003801 
L 223.1766 110.00757 
L 225.0423 106.034726 
L 226.2861 103.859929 
L 227.5299 102.135785 
L 228.7737 100.902067 
L 230.0175 100.178779 
L 230.6394 100.009436 
L 231.2613 99.966395 
L 231.8832 100.046808 
L 233.127 100.5613 
L 234.3708 101.50976 
L 235.6146 102.83509 
L 236.8584 104.468895 
L 238.7241 107.328586 
L 243.6993 115.387304 
L 245.565 117.830981 
L 246.8088 119.117585 
L 248.0526 120.082944 
L 249.2964 120.701853 
L 250.5402 120.963234 
L 251.784 120.870049 
L 253.0278 120.438707 
L 254.2716 119.697977 
L 255.5154 118.687497 
L 257.3811 116.774351 
L 259.8687 113.784562 
L 262.9782 110.032906 
L 264.8439 108.121398 
L 266.0877 107.088857 
L 267.3315 106.291382 
L 268.5753 105.753369 
L 269.8191 105.488433 
L 271.0629 105.499181 
L 272.3067 105.777426 
L 273.5505 106.304788 
L 274.7943 107.053684 
L 276.66 108.513018 
L 279.1476 110.855026 
L 282.879 114.428612 
L 284.7447 115.902994 
L 285.9885 116.681909 
L 287.2323 117.265354 
L 288.4761 117.634923 
L 289.7199 117.781036 
L 290.9637 117.703113 
L 292.2075 117.409386 
L 293.4513 116.916384 
L 295.317 115.857502 
L 297.1827 114.512154 
L 303.4017 109.651991 
L 305.2674 108.57993 
L 306.5112 108.059982 
L 307.755 107.717169 
L 308.9988 107.561573 
L 310.2426 107.595682 
L 311.4864 107.814439 
L 312.7302 108.205588 
L 314.5959 109.072751 
L 316.4616 110.197521 
L 323.9244 115.043229 
L 325.7901 115.801972 
L 327.0339 116.123038 
L 328.2777 116.283496 
L 329.5215 116.279706 
L 330.7653 116.114602 
L 332.631 115.586416 
L 334.4967 114.772935 
L 336.9843 113.384066 
L 338.85 112.240204 
L 338.85 112.240204 
" clip-path="url(#pce20654812)" style="fill: none; stroke-dasharray: 3.2,0.8,0.5,0.8; stroke-dashoffset: 0; stroke: #d62728; stroke-width: 0.5"/>
   </g>
   <g id="patch_3">
    <path d="M 27.9 138.821875 
L 27.9 10.8 
" style="fill: none; stroke: #000000; stroke-width: 0.8; stroke-linejoin: miter; stroke-linecap: square"/>
   </g>
   <g id="patch_4">
    <path d="M 338.85 138.821875 
L 338.85 10.8 
" style="fill: none; stroke: #000000; stroke-width: 0.8; stroke-linejoin: miter; stroke-linecap: square"/>
   </g>
   <g id="patch_5">
    <path d="M 27.9 138.821875 
L 338.85 138.821875 
" style="fill: none; stroke: #000000; stroke-width: 0.8; stroke-linejoin: miter; stroke-linecap: square"/>
   </g>
   <g id="patch_6">
    <path d="M 27.9 10.8 
L 338.85 10.8 
" style="fill: none; stroke: #000000; stroke-width: 0.8; stroke-linejoin: miter; stroke-linecap: square"/>
   </g>
  </g>
 </g>
 <defs>
  <clipPath id="pce20654812">
   <rect x="27.9" y="10.8" width="310.95" height="128.021875"/>
  </clipPath>
 </defs>
</svg>
