<?xml version="1.0" encoding="utf-8" standalone="no"?>
<!DOCTYPE svg PUBLIC "-//W3C//DTD SVG 1.1//EN"
  "http://www.w3.org/Graphics/SVG/1.1/DTD/svg11.dtd">
<svg xmlns:xlink="http://www.w3.org/1999/xlink" width="648pt" height="432pt" viewBox="0 0 648 432" xmlns="http://www.w3.org/2000/svg" version="1.1">
 <metadata>
  <rdf:RDF xmlns:dc="http://purl.org/dc/elements/1.1/" xmlns:cc="http://creativecommons.org/ns#" xmlns:rdf="http://www.w3.org/1999/02/22-rdf-syntax-ns#">
   <cc:Work>
    <dc:type rdf:resource="http://purl.org/dc/dcmitype/StillImage"/>
    <dc:date>2025-10-24T15:55:00.567370</dc:date>
    <dc:format>image/svg+xml</dc:format>
    <dc:creator>
     <cc:Agent>
      <dc:title>Matplotlib v3.10.5, https://matplotlib.org/</dc:title>
     </cc:Agent>
    </dc:creator>
   </cc:Work>
  </rdf:RDF>
 </metadata>
 <defs>
  <style type="text/css">*{stroke-linejoin: round; stroke-linecap: butt}</style>
 </defs>
 <g id="figure_1">
  <g id="patch_1">
   <path d="M 0 432 
L 648 432 
L 648 0 
L 0 0 
z
" style="fill: #ffffff"/>
  </g>
  <g id="axes_1">
   <g id="patch_2">
    <path d="M 52.21 384.83 
L 633.40875 384.83 
L 633.40875 26.88 
L 52.21 26.88 
z
" style="fill: #ffffff"/>
   </g>
   <g id="matplotlib.axis_1">
    <g id="xtick_1">
     <g id="line2d_1">
      <path d="M 52.21 384.83 
L 52.21 26.88 
" clip-path="url(#p05df307016)" style="fill: none; stroke: #b0b0b0; stroke-opacity: 0.3; stroke-width: 0.8; stroke-linecap: square"/>
     </g>
     <g id="line2d_2">
      <defs>
       <path id="m3dec16625d" d="M 0 0 
L 0 3.5 
" style="stroke: #000000; stroke-width: 0.8"/>
      </defs>
      <g>
       <use xlink:href="#m3dec16625d" x="52.21" y="384.83" style="stroke: #000000; stroke-width: 0.8"/>
      </g>
     </g>
     <g id="text_1">
      <!-- $0$ -->
      <g transform="translate(49.01 399.428437) scale(0.1 -0.1)">
       <defs>
        <path id="DejaVuSans-30" d="M 2034 4250 
Q 1547 4250 1301 3770 
Q 1056 3291 1056 2328 
Q 1056 1369 1301 889 
Q 1547 409 2034 409 
Q 2525 409 2770 889 
Q 3016 1369 3016 2328 
Q 3016 3291 2770 3770 
Q 2525 4250 2034 4250 
z
M 2034 4750 
Q 2819 4750 3233 4129 
Q 3647 3509 3647 2328 
Q 3647 1150 3233 529 
Q 2819 -91 2034 -91 
Q 1250 -91 836 529 
Q 422 1150 422 2328 
Q 422 3509 836 4129 
Q 1250 4750 2034 4750 
z
" transform="scale(0.015625)"/>
       </defs>
       <use xlink:href="#DejaVuSans-30" transform="translate(0 0.78125)"/>
      </g>
     </g>
    </g>
    <g id="xtick_2">
     <g id="line2d_3">
      <path d="M 124.859844 384.83 
L 124.859844 26.88 
" clip-path="url(#p05df307016)" style="fill: none; stroke: #b0b0b0; stroke-opacity: 0.3; stroke-width: 0.8; stroke-linecap: square"/>
     </g>
     <g id="line2d_4">
      <g>
       <use xlink:href="#m3dec16625d" x="124.859844" y="384.83" style="stroke: #000000; stroke-width: 0.8"/>
      </g>
     </g>
     <g id="text_2">
      <!-- $\pi/8$ -->
      <g transform="translate(117.209844 399.428437) scale(0.1 -0.1)">
       <defs>
        <path id="DejaVuSans-Oblique-3c0" d="M 584 3500 
L 3938 3500 
L 3825 2925 
L 3384 2925 
L 2966 775 
Q 2922 550 2981 450 
Q 3038 353 3209 353 
Q 3256 353 3325 363 
Q 3397 369 3419 372 
L 3338 -44 
Q 3222 -84 3103 -103 
Q 2981 -122 2866 -122 
Q 2491 -122 2388 81 
Q 2284 288 2391 838 
L 2797 2925 
L 1506 2925 
L 938 0 
L 350 0 
L 919 2925 
L 472 2925 
L 584 3500 
z
" transform="scale(0.015625)"/>
        <path id="DejaVuSans-2f" d="M 1625 4666 
L 2156 4666 
L 531 -594 
L 0 -594 
L 1625 4666 
z
" transform="scale(0.015625)"/>
        <path id="DejaVuSans-38" d="M 2034 2216 
Q 1584 2216 1326 1975 
Q 1069 1734 1069 1313 
Q 1069 891 1326 650 
Q 1584 409 2034 409 
Q 2484 409 2743 651 
Q 3003 894 3003 1313 
Q 3003 1734 2745 1975 
Q 2488 2216 2034 2216 
z
M 1403 2484 
Q 997 2584 770 2862 
Q 544 3141 544 3541 
Q 544 4100 942 4425 
Q 1341 4750 2034 4750 
Q 2731 4750 3128 4425 
Q 3525 4100 3525 3541 
Q 3525 3141 3298 2862 
Q 3072 2584 2669 2484 
Q 3125 2378 3379 2068 
Q 3634 1759 3634 1313 
Q 3634 634 3220 271 
Q 2806 -91 2034 -91 
Q 1263 -91 848 271 
Q 434 634 434 1313 
Q 434 1759 690 2068 
Q 947 2378 1403 2484 
z
M 1172 3481 
Q 1172 3119 1398 2916 
Q 1625 2713 2034 2713 
Q 2441 2713 2670 2916 
Q 2900 3119 2900 3481 
Q 2900 3844 2670 4047 
Q 2441 4250 2034 4250 
Q 1625 4250 1398 4047 
Q 1172 3844 1172 3481 
z
" transform="scale(0.015625)"/>
       </defs>
       <use xlink:href="#DejaVuSans-Oblique-3c0" transform="translate(0 0.78125)"/>
       <use xlink:href="#DejaVuSans-2f" transform="translate(60.205078 0.78125)"/>
       <use xlink:href="#DejaVuSans-38" transform="translate(88.896484 0.78125)"/>
      </g>
     </g>
    </g>
    <g id="xtick_3">
     <g id="line2d_5">
      <path d="M 197.509687 384.83 
L 197.509687 26.88 
" clip-path="url(#p05df307016)" style="fill: none; stroke: #b0b0b0; stroke-opacity: 0.3; stroke-width: 0.8; stroke-linecap: square"/>
     </g>
     <g id="line2d_6">
      <g>
       <use xlink:href="#m3dec16625d" x="197.509687" y="384.83" style="stroke: #000000; stroke-width: 0.8"/>
      </g>
     </g>
     <g id="text_3">
      <!-- $\pi/4$ -->
      <g transform="translate(189.609687 399.428437) scale(0.1 -0.1)">
       <defs>
        <path id="DejaVuSans-34" d="M 2419 4116 
L 825 1625 
L 2419 1625 
L 2419 4116 
z
M 2253 4666 
L 3047 4666 
L 3047 1625 
L 3713 1625 
L 3713 1100 
L 3047 1100 
L 3047 0 
L 2419 0 
L 2419 1100 
L 313 1100 
L 313 1709 
L 2253 4666 
z
" transform="scale(0.015625)"/>
       </defs>
       <use xlink:href="#DejaVuSans-Oblique-3c0" transform="translate(0 0.09375)"/>
       <use xlink:href="#DejaVuSans-2f" transform="translate(60.205078 0.09375)"/>
       <use xlink:href="#DejaVuSans-34" transform="translate(93.896484 0.09375)"/>
      </g>
     </g>
    </g>
    <g id="xtick_4">
     <g id="line2d_7">
      <path d="M 270.159531 384.83 
L 270.159531 26.88 
" clip-path="url(#p05df307016)" style="fill: none; stroke: #b0b0b0; stroke-opacity: 0.3; stroke-width: 0.8; stroke-linecap: square"/>
     </g>
     <g id="line2d_8">
      <g>
       <use xlink:href="#m3dec16625d" x="270.159531" y="384.83" style="stroke: #000000; stroke-width: 0.8"/>
      </g>
     </g>
     <g id="text_4">
      <!-- $3\pi/8$ -->
      <g transform="translate(259.309531 399.428437) scale(0.1 -0.1)">
       <defs>
        <path id="DejaVuSans-33" d="M 2597 2516 
Q 3050 2419 3304 2112 
Q 3559 1806 3559 1356 
Q 3559 666 3084 287 
Q 2609 -91 1734 -91 
Q 1441 -91 1130 -33 
Q 819 25 488 141 
L 488 750 
Q 750 597 1062 519 
Q 1375 441 1716 441 
Q 2309 441 2620 675 
Q 2931 909 2931 1356 
Q 2931 1769 2642 2001 
Q 2353 2234 1838 2234 
L 1294 2234 
L 1294 2753 
L 1863 2753 
Q 2328 2753 2575 2939 
Q 2822 3125 2822 3475 
Q 2822 3834 2567 4026 
Q 2313 4219 1838 4219 
Q 1578 4219 1281 4162 
Q 984 4106 628 3988 
L 628 4550 
Q 988 4650 1302 4700 
Q 1616 4750 1894 4750 
Q 2613 4750 3031 4423 
Q 3450 4097 3450 3541 
Q 3450 3153 3228 2886 
Q 3006 2619 2597 2516 
z
" transform="scale(0.015625)"/>
       </defs>
       <use xlink:href="#DejaVuSans-33" transform="translate(0 0.78125)"/>
       <use xlink:href="#DejaVuSans-Oblique-3c0" transform="translate(63.623047 0.78125)"/>
       <use xlink:href="#DejaVuSans-2f" transform="translate(123.828125 0.78125)"/>
       <use xlink:href="#DejaVuSans-38" transform="translate(152.519531 0.78125)"/>
      </g>
     </g>
    </g>
    <g id="xtick_5">
     <g id="line2d_9">
      <path d="M 342.809375 384.83 
L 342.809375 26.88 
" clip-path="url(#p05df307016)" style="fill: none; stroke: #b0b0b0; stroke-opacity: 0.3; stroke-width: 0.8; stroke-linecap: square"/>
     </g>
     <g id="line2d_10">
      <g>
       <use xlink:href="#m3dec16625d" x="342.809375" y="384.83" style="stroke: #000000; stroke-width: 0.8"/>
      </g>
     </g>
     <g id="text_5">
      <!-- $\pi/2$ -->
      <g transform="translate(335.109375 399.428437) scale(0.1 -0.1)">
       <defs>
        <path id="DejaVuSans-32" d="M 1228 531 
L 3431 531 
L 3431 0 
L 469 0 
L 469 531 
Q 828 903 1448 1529 
Q 2069 2156 2228 2338 
Q 2531 2678 2651 2914 
Q 2772 3150 2772 3378 
Q 2772 3750 2511 3984 
Q 2250 4219 1831 4219 
Q 1534 4219 1204 4116 
Q 875 4013 500 3803 
L 500 4441 
Q 881 4594 1212 4672 
Q 1544 4750 1819 4750 
Q 2544 4750 2975 4387 
Q 3406 4025 3406 3419 
Q 3406 3131 3298 2873 
Q 3191 2616 2906 2266 
Q 2828 2175 2409 1742 
Q 1991 1309 1228 531 
z
" transform="scale(0.015625)"/>
       </defs>
       <use xlink:href="#DejaVuSans-Oblique-3c0" transform="translate(0 0.78125)"/>
       <use xlink:href="#DejaVuSans-2f" transform="translate(60.205078 0.78125)"/>
       <use xlink:href="#DejaVuSans-32" transform="translate(90.271484 0.78125)"/>
      </g>
     </g>
    </g>
    <g id="xtick_6">
     <g id="line2d_11">
      <path d="M 415.459219 384.83 
L 415.459219 26.88 
" clip-path="url(#p05df307016)" style="fill: none; stroke: #b0b0b0; stroke-opacity: 0.3; stroke-width: 0.8; stroke-linecap: square"/>
     </g>
     <g id="line2d_12">
      <g>
       <use xlink:href="#m3dec16625d" x="415.459219" y="384.83" style="stroke: #000000; stroke-width: 0.8"/>
      </g>
     </g>
     <g id="text_6">
      <!-- $5\pi/8$ -->
      <g transform="translate(404.609219 399.428437) scale(0.1 -0.1)">
       <defs>
        <path id="DejaVuSans-35" d="M 691 4666 
L 3169 4666 
L 3169 4134 
L 1269 4134 
L 1269 2991 
Q 1406 3038 1543 3061 
Q 1681 3084 1819 3084 
Q 2600 3084 3056 2656 
Q 3513 2228 3513 1497 
Q 3513 744 3044 326 
Q 2575 -91 1722 -91 
Q 1428 -91 1123 -41 
Q 819 9 494 109 
L 494 744 
Q 775 591 1075 516 
Q 1375 441 1709 441 
Q 2250 441 2565 725 
Q 2881 1009 2881 1497 
Q 2881 1984 2565 2268 
Q 2250 2553 1709 2553 
Q 1456 2553 1204 2497 
Q 953 2441 691 2322 
L 691 4666 
z
" transform="scale(0.015625)"/>
       </defs>
       <use xlink:href="#DejaVuSans-35" transform="translate(0 0.78125)"/>
       <use xlink:href="#DejaVuSans-Oblique-3c0" transform="translate(63.623047 0.78125)"/>
       <use xlink:href="#DejaVuSans-2f" transform="translate(123.828125 0.78125)"/>
       <use xlink:href="#DejaVuSans-38" transform="translate(152.519531 0.78125)"/>
      </g>
     </g>
    </g>
    <g id="xtick_7">
     <g id="line2d_13">
      <path d="M 488.109062 384.83 
L 488.109062 26.88 
" clip-path="url(#p05df307016)" style="fill: none; stroke: #b0b0b0; stroke-opacity: 0.3; stroke-width: 0.8; stroke-linecap: square"/>
     </g>
     <g id="line2d_14">
      <g>
       <use xlink:href="#m3dec16625d" x="488.109062" y="384.83" style="stroke: #000000; stroke-width: 0.8"/>
      </g>
     </g>
     <g id="text_7">
      <!-- $3\pi/4$ -->
      <g transform="translate(477.009062 399.428437) scale(0.1 -0.1)">
       <use xlink:href="#DejaVuSans-33" transform="translate(0 0.78125)"/>
       <use xlink:href="#DejaVuSans-Oblique-3c0" transform="translate(63.623047 0.78125)"/>
       <use xlink:href="#DejaVuSans-2f" transform="translate(123.828125 0.78125)"/>
       <use xlink:href="#DejaVuSans-34" transform="translate(157.519531 0.78125)"/>
      </g>
     </g>
    </g>
    <g id="xtick_8">
     <g id="line2d_15">
      <path d="M 560.758906 384.83 
L 560.758906 26.88 
" clip-path="url(#p05df307016)" style="fill: none; stroke: #b0b0b0; stroke-opacity: 0.3; stroke-width: 0.8; stroke-linecap: square"/>
     </g>
     <g id="line2d_16">
      <g>
       <use xlink:href="#m3dec16625d" x="560.758906" y="384.83" style="stroke: #000000; stroke-width: 0.8"/>
      </g>
     </g>
     <g id="text_8">
      <!-- $7\pi/8$ -->
      <g transform="translate(549.908906 399.428437) scale(0.1 -0.1)">
       <defs>
        <path id="DejaVuSans-37" d="M 525 4666 
L 3525 4666 
L 3525 4397 
L 1831 0 
L 1172 0 
L 2766 4134 
L 525 4134 
L 525 4666 
z
" transform="scale(0.015625)"/>
       </defs>
       <use xlink:href="#DejaVuSans-37" transform="translate(0 0.78125)"/>
       <use xlink:href="#DejaVuSans-Oblique-3c0" transform="translate(63.623047 0.78125)"/>
       <use xlink:href="#DejaVuSans-2f" transform="translate(123.828125 0.78125)"/>
       <use xlink:href="#DejaVuSans-38" transform="translate(152.519531 0.78125)"/>
      </g>
     </g>
    </g>
    <g id="xtick_9">
     <g id="line2d_17">
      <path d="M 633.40875 384.83 
L 633.40875 26.88 
" clip-path="url(#p05df307016)" style="fill: none; stroke: #b0b0b0; stroke-opacity: 0.3; stroke-width: 0.8; stroke-linecap: square"/>
     </g>
     <g id="line2d_18">
      <g>
       <use xlink:href="#m3dec16625d" x="633.40875" y="384.83" style="stroke: #000000; stroke-width: 0.8"/>
      </g>
     </g>
     <g id="text_9">
      <!-- $\pi$ -->
      <g transform="translate(630.35875 399.428437) scale(0.1 -0.1)">
       <use xlink:href="#DejaVuSans-Oblique-3c0" transform="translate(0 0.3125)"/>
      </g>
     </g>
    </g>
    <g id="text_10">
     <!-- Normalized Angular Frequency $\hat{\omega}$ -->
     <g transform="translate(259.659375 414.708125) scale(0.1 -0.1)">
      <defs>
       <path id="DejaVuSans-4e" d="M 628 4666 
L 1478 4666 
L 3547 763 
L 3547 4666 
L 4159 4666 
L 4159 0 
L 3309 0 
L 1241 3903 
L 1241 0 
L 628 0 
L 628 4666 
z
" transform="scale(0.015625)"/>
       <path id="DejaVuSans-6f" d="M 1959 3097 
Q 1497 3097 1228 2736 
Q 959 2375 959 1747 
Q 959 1119 1226 758 
Q 1494 397 1959 397 
Q 2419 397 2687 759 
Q 2956 1122 2956 1747 
Q 2956 2369 2687 2733 
Q 2419 3097 1959 3097 
z
M 1959 3584 
Q 2709 3584 3137 3096 
Q 3566 2609 3566 1747 
Q 3566 888 3137 398 
Q 2709 -91 1959 -91 
Q 1206 -91 779 398 
Q 353 888 353 1747 
Q 353 2609 779 3096 
Q 1206 3584 1959 3584 
z
" transform="scale(0.015625)"/>
       <path id="DejaVuSans-72" d="M 2631 2963 
Q 2534 3019 2420 3045 
Q 2306 3072 2169 3072 
Q 1681 3072 1420 2755 
Q 1159 2438 1159 1844 
L 1159 0 
L 581 0 
L 581 3500 
L 1159 3500 
L 1159 2956 
Q 1341 3275 1631 3429 
Q 1922 3584 2338 3584 
Q 2397 3584 2469 3576 
Q 2541 3569 2628 3553 
L 2631 2963 
z
" transform="scale(0.015625)"/>
       <path id="DejaVuSans-6d" d="M 3328 2828 
Q 3544 3216 3844 3400 
Q 4144 3584 4550 3584 
Q 5097 3584 5394 3201 
Q 5691 2819 5691 2113 
L 5691 0 
L 5113 0 
L 5113 2094 
Q 5113 2597 4934 2840 
Q 4756 3084 4391 3084 
Q 3944 3084 3684 2787 
Q 3425 2491 3425 1978 
L 3425 0 
L 2847 0 
L 2847 2094 
Q 2847 2600 2669 2842 
Q 2491 3084 2119 3084 
Q 1678 3084 1418 2786 
Q 1159 2488 1159 1978 
L 1159 0 
L 581 0 
L 581 3500 
L 1159 3500 
L 1159 2956 
Q 1356 3278 1631 3431 
Q 1906 3584 2284 3584 
Q 2666 3584 2933 3390 
Q 3200 3197 3328 2828 
z
" transform="scale(0.015625)"/>
       <path id="DejaVuSans-61" d="M 2194 1759 
Q 1497 1759 1228 1600 
Q 959 1441 959 1056 
Q 959 750 1161 570 
Q 1363 391 1709 391 
Q 2188 391 2477 730 
Q 2766 1069 2766 1631 
L 2766 1759 
L 2194 1759 
z
M 3341 1997 
L 3341 0 
L 2766 0 
L 2766 531 
Q 2569 213 2275 61 
Q 1981 -91 1556 -91 
Q 1019 -91 701 211 
Q 384 513 384 1019 
Q 384 1609 779 1909 
Q 1175 2209 1959 2209 
L 2766 2209 
L 2766 2266 
Q 2766 2663 2505 2880 
Q 2244 3097 1772 3097 
Q 1472 3097 1187 3025 
Q 903 2953 641 2809 
L 641 3341 
Q 956 3463 1253 3523 
Q 1550 3584 1831 3584 
Q 2591 3584 2966 3190 
Q 3341 2797 3341 1997 
z
" transform="scale(0.015625)"/>
       <path id="DejaVuSans-6c" d="M 603 4863 
L 1178 4863 
L 1178 0 
L 603 0 
L 603 4863 
z
" transform="scale(0.015625)"/>
       <path id="DejaVuSans-69" d="M 603 3500 
L 1178 3500 
L 1178 0 
L 603 0 
L 603 3500 
z
M 603 4863 
L 1178 4863 
L 1178 4134 
L 603 4134 
L 603 4863 
z
" transform="scale(0.015625)"/>
       <path id="DejaVuSans-7a" d="M 353 3500 
L 3084 3500 
L 3084 2975 
L 922 459 
L 3084 459 
L 3084 0 
L 275 0 
L 275 525 
L 2438 3041 
L 353 3041 
L 353 3500 
z
" transform="scale(0.015625)"/>
       <path id="DejaVuSans-65" d="M 3597 1894 
L 3597 1613 
L 953 1613 
Q 991 1019 1311 708 
Q 1631 397 2203 397 
Q 2534 397 2845 478 
Q 3156 559 3463 722 
L 3463 178 
Q 3153 47 2828 -22 
Q 2503 -91 2169 -91 
Q 1331 -91 842 396 
Q 353 884 353 1716 
Q 353 2575 817 3079 
Q 1281 3584 2069 3584 
Q 2775 3584 3186 3129 
Q 3597 2675 3597 1894 
z
M 3022 2063 
Q 3016 2534 2758 2815 
Q 2500 3097 2075 3097 
Q 1594 3097 1305 2825 
Q 1016 2553 972 2059 
L 3022 2063 
z
" transform="scale(0.015625)"/>
       <path id="DejaVuSans-64" d="M 2906 2969 
L 2906 4863 
L 3481 4863 
L 3481 0 
L 2906 0 
L 2906 525 
Q 2725 213 2448 61 
Q 2172 -91 1784 -91 
Q 1150 -91 751 415 
Q 353 922 353 1747 
Q 353 2572 751 3078 
Q 1150 3584 1784 3584 
Q 2172 3584 2448 3432 
Q 2725 3281 2906 2969 
z
M 947 1747 
Q 947 1113 1208 752 
Q 1469 391 1925 391 
Q 2381 391 2643 752 
Q 2906 1113 2906 1747 
Q 2906 2381 2643 2742 
Q 2381 3103 1925 3103 
Q 1469 3103 1208 2742 
Q 947 2381 947 1747 
z
" transform="scale(0.015625)"/>
       <path id="DejaVuSans-20" transform="scale(0.015625)"/>
       <path id="DejaVuSans-41" d="M 2188 4044 
L 1331 1722 
L 3047 1722 
L 2188 4044 
z
M 1831 4666 
L 2547 4666 
L 4325 0 
L 3669 0 
L 3244 1197 
L 1141 1197 
L 716 0 
L 50 0 
L 1831 4666 
z
" transform="scale(0.015625)"/>
       <path id="DejaVuSans-6e" d="M 3513 2113 
L 3513 0 
L 2938 0 
L 2938 2094 
Q 2938 2591 2744 2837 
Q 2550 3084 2163 3084 
Q 1697 3084 1428 2787 
Q 1159 2491 1159 1978 
L 1159 0 
L 581 0 
L 581 3500 
L 1159 3500 
L 1159 2956 
Q 1366 3272 1645 3428 
Q 1925 3584 2291 3584 
Q 2894 3584 3203 3211 
Q 3513 2838 3513 2113 
z
" transform="scale(0.015625)"/>
       <path id="DejaVuSans-67" d="M 2906 1791 
Q 2906 2416 2648 2759 
Q 2391 3103 1925 3103 
Q 1463 3103 1205 2759 
Q 947 2416 947 1791 
Q 947 1169 1205 825 
Q 1463 481 1925 481 
Q 2391 481 2648 825 
Q 2906 1169 2906 1791 
z
M 3481 434 
Q 3481 -459 3084 -895 
Q 2688 -1331 1869 -1331 
Q 1566 -1331 1297 -1286 
Q 1028 -1241 775 -1147 
L 775 -588 
Q 1028 -725 1275 -790 
Q 1522 -856 1778 -856 
Q 2344 -856 2625 -561 
Q 2906 -266 2906 331 
L 2906 616 
Q 2728 306 2450 153 
Q 2172 0 1784 0 
Q 1141 0 747 490 
Q 353 981 353 1791 
Q 353 2603 747 3093 
Q 1141 3584 1784 3584 
Q 2172 3584 2450 3431 
Q 2728 3278 2906 2969 
L 2906 3500 
L 3481 3500 
L 3481 434 
z
" transform="scale(0.015625)"/>
       <path id="DejaVuSans-75" d="M 544 1381 
L 544 3500 
L 1119 3500 
L 1119 1403 
Q 1119 906 1312 657 
Q 1506 409 1894 409 
Q 2359 409 2629 706 
Q 2900 1003 2900 1516 
L 2900 3500 
L 3475 3500 
L 3475 0 
L 2900 0 
L 2900 538 
Q 2691 219 2414 64 
Q 2138 -91 1772 -91 
Q 1169 -91 856 284 
Q 544 659 544 1381 
z
M 1991 3584 
L 1991 3584 
z
" transform="scale(0.015625)"/>
       <path id="DejaVuSans-46" d="M 628 4666 
L 3309 4666 
L 3309 4134 
L 1259 4134 
L 1259 2759 
L 3109 2759 
L 3109 2228 
L 1259 2228 
L 1259 0 
L 628 0 
L 628 4666 
z
" transform="scale(0.015625)"/>
       <path id="DejaVuSans-71" d="M 947 1747 
Q 947 1113 1208 752 
Q 1469 391 1925 391 
Q 2381 391 2643 752 
Q 2906 1113 2906 1747 
Q 2906 2381 2643 2742 
Q 2381 3103 1925 3103 
Q 1469 3103 1208 2742 
Q 947 2381 947 1747 
z
M 2906 525 
Q 2725 213 2448 61 
Q 2172 -91 1784 -91 
Q 1150 -91 751 415 
Q 353 922 353 1747 
Q 353 2572 751 3078 
Q 1150 3584 1784 3584 
Q 2172 3584 2448 3432 
Q 2725 3281 2906 2969 
L 2906 3500 
L 3481 3500 
L 3481 -1331 
L 2906 -1331 
L 2906 525 
z
" transform="scale(0.015625)"/>
       <path id="DejaVuSans-63" d="M 3122 3366 
L 3122 2828 
Q 2878 2963 2633 3030 
Q 2388 3097 2138 3097 
Q 1578 3097 1268 2742 
Q 959 2388 959 1747 
Q 959 1106 1268 751 
Q 1578 397 2138 397 
Q 2388 397 2633 464 
Q 2878 531 3122 666 
L 3122 134 
Q 2881 22 2623 -34 
Q 2366 -91 2075 -91 
Q 1284 -91 818 406 
Q 353 903 353 1747 
Q 353 2603 823 3093 
Q 1294 3584 2113 3584 
Q 2378 3584 2631 3529 
Q 2884 3475 3122 3366 
z
" transform="scale(0.015625)"/>
       <path id="DejaVuSans-79" d="M 2059 -325 
Q 1816 -950 1584 -1140 
Q 1353 -1331 966 -1331 
L 506 -1331 
L 506 -850 
L 844 -850 
Q 1081 -850 1212 -737 
Q 1344 -625 1503 -206 
L 1606 56 
L 191 3500 
L 800 3500 
L 1894 763 
L 2988 3500 
L 3597 3500 
L 2059 -325 
z
" transform="scale(0.015625)"/>
       <path id="DejaVuSans-302" d="M -1831 5119 
L -1369 5119 
L -603 3944 
L -1038 3944 
L -1600 4709 
L -2163 3944 
L -2597 3944 
L -1831 5119 
z
M -1600 3584 
L -1600 3584 
z
" transform="scale(0.015625)"/>
       <path id="DejaVuSans-Oblique-3c9" d="M 1369 -91 
Q 72 -91 434 1766 
Q 575 2500 1256 3500 
L 1875 3500 
Q 1231 2500 1088 1750 
Q 819 397 1519 397 
Q 2166 397 2478 2078 
L 3009 2078 
Q 2669 388 3316 397 
Q 4013 403 4275 1750 
Q 4419 2500 4169 3500 
L 4788 3500 
Q 5075 2500 4934 1766 
Q 4578 -94 3278 -91 
Q 2428 -88 2503 844 
Q 2194 -91 1369 -91 
z
" transform="scale(0.015625)"/>
      </defs>
      <use xlink:href="#DejaVuSans-4e" transform="translate(0 0.828125)"/>
      <use xlink:href="#DejaVuSans-6f" transform="translate(74.804688 0.828125)"/>
      <use xlink:href="#DejaVuSans-72" transform="translate(135.986328 0.828125)"/>
      <use xlink:href="#DejaVuSans-6d" transform="translate(177.099609 0.828125)"/>
      <use xlink:href="#DejaVuSans-61" transform="translate(274.511719 0.828125)"/>
      <use xlink:href="#DejaVuSans-6c" transform="translate(335.791016 0.828125)"/>
      <use xlink:href="#DejaVuSans-69" transform="translate(363.574219 0.828125)"/>
      <use xlink:href="#DejaVuSans-7a" transform="translate(391.357422 0.828125)"/>
      <use xlink:href="#DejaVuSans-65" transform="translate(443.847656 0.828125)"/>
      <use xlink:href="#DejaVuSans-64" transform="translate(505.371094 0.828125)"/>
      <use xlink:href="#DejaVuSans-20" transform="translate(568.847656 0.828125)"/>
      <use xlink:href="#DejaVuSans-41" transform="translate(600.634766 0.828125)"/>
      <use xlink:href="#DejaVuSans-6e" transform="translate(669.042969 0.828125)"/>
      <use xlink:href="#DejaVuSans-67" transform="translate(732.421875 0.828125)"/>
      <use xlink:href="#DejaVuSans-75" transform="translate(795.898438 0.828125)"/>
      <use xlink:href="#DejaVuSans-6c" transform="translate(859.277344 0.828125)"/>
      <use xlink:href="#DejaVuSans-61" transform="translate(887.060547 0.828125)"/>
      <use xlink:href="#DejaVuSans-72" transform="translate(948.339844 0.828125)"/>
      <use xlink:href="#DejaVuSans-20" transform="translate(989.453125 0.828125)"/>
      <use xlink:href="#DejaVuSans-46" transform="translate(1021.240234 0.828125)"/>
      <use xlink:href="#DejaVuSans-72" transform="translate(1078.759766 0.828125)"/>
      <use xlink:href="#DejaVuSans-65" transform="translate(1119.873047 0.828125)"/>
      <use xlink:href="#DejaVuSans-71" transform="translate(1181.396484 0.828125)"/>
      <use xlink:href="#DejaVuSans-75" transform="translate(1244.873047 0.828125)"/>
      <use xlink:href="#DejaVuSans-65" transform="translate(1308.251953 0.828125)"/>
      <use xlink:href="#DejaVuSans-6e" transform="translate(1369.775391 0.828125)"/>
      <use xlink:href="#DejaVuSans-63" transform="translate(1433.154297 0.828125)"/>
      <use xlink:href="#DejaVuSans-79" transform="translate(1488.134766 0.828125)"/>
      <use xlink:href="#DejaVuSans-20" transform="translate(1547.314453 0.828125)"/>
      <use xlink:href="#DejaVuSans-302" transform="translate(1656.614746 12.015625)"/>
      <use xlink:href="#DejaVuSans-Oblique-3c9" transform="translate(1579.101562 0.828125)"/>
     </g>
    </g>
   </g>
   <g id="matplotlib.axis_2">
    <g id="ytick_1">
     <g id="line2d_19">
      <path d="M 52.21 384.83 
L 633.40875 384.83 
" clip-path="url(#p05df307016)" style="fill: none; stroke: #b0b0b0; stroke-opacity: 0.3; stroke-width: 0.8; stroke-linecap: square"/>
     </g>
     <g id="line2d_20">
      <defs>
       <path id="m8c48efe4eb" d="M 0 0 
L -3.5 0 
" style="stroke: #000000; stroke-width: 0.8"/>
      </defs>
      <g>
       <use xlink:href="#m8c48efe4eb" x="52.21" y="384.83" style="stroke: #000000; stroke-width: 0.8"/>
      </g>
     </g>
     <g id="text_11">
      <!-- 0.0 -->
      <g transform="translate(29.306875 388.629219) scale(0.1 -0.1)">
       <defs>
        <path id="DejaVuSans-2e" d="M 684 794 
L 1344 794 
L 1344 0 
L 684 0 
L 684 794 
z
" transform="scale(0.015625)"/>
       </defs>
       <use xlink:href="#DejaVuSans-30"/>
       <use xlink:href="#DejaVuSans-2e" transform="translate(63.623047 0)"/>
       <use xlink:href="#DejaVuSans-30" transform="translate(95.410156 0)"/>
      </g>
     </g>
    </g>
    <g id="ytick_2">
     <g id="line2d_21">
      <path d="M 52.21 325.171667 
L 633.40875 325.171667 
" clip-path="url(#p05df307016)" style="fill: none; stroke: #b0b0b0; stroke-opacity: 0.3; stroke-width: 0.8; stroke-linecap: square"/>
     </g>
     <g id="line2d_22">
      <g>
       <use xlink:href="#m8c48efe4eb" x="52.21" y="325.171667" style="stroke: #000000; stroke-width: 0.8"/>
      </g>
     </g>
     <g id="text_12">
      <!-- 0.2 -->
      <g transform="translate(29.306875 328.970885) scale(0.1 -0.1)">
       <use xlink:href="#DejaVuSans-30"/>
       <use xlink:href="#DejaVuSans-2e" transform="translate(63.623047 0)"/>
       <use xlink:href="#DejaVuSans-32" transform="translate(95.410156 0)"/>
      </g>
     </g>
    </g>
    <g id="ytick_3">
     <g id="line2d_23">
      <path d="M 52.21 265.513333 
L 633.40875 265.513333 
" clip-path="url(#p05df307016)" style="fill: none; stroke: #b0b0b0; stroke-opacity: 0.3; stroke-width: 0.8; stroke-linecap: square"/>
     </g>
     <g id="line2d_24">
      <g>
       <use xlink:href="#m8c48efe4eb" x="52.21" y="265.513333" style="stroke: #000000; stroke-width: 0.8"/>
      </g>
     </g>
     <g id="text_13">
      <!-- 0.4 -->
      <g transform="translate(29.306875 269.312552) scale(0.1 -0.1)">
       <use xlink:href="#DejaVuSans-30"/>
       <use xlink:href="#DejaVuSans-2e" transform="translate(63.623047 0)"/>
       <use xlink:href="#DejaVuSans-34" transform="translate(95.410156 0)"/>
      </g>
     </g>
    </g>
    <g id="ytick_4">
     <g id="line2d_25">
      <path d="M 52.21 205.855 
L 633.40875 205.855 
" clip-path="url(#p05df307016)" style="fill: none; stroke: #b0b0b0; stroke-opacity: 0.3; stroke-width: 0.8; stroke-linecap: square"/>
     </g>
     <g id="line2d_26">
      <g>
       <use xlink:href="#m8c48efe4eb" x="52.21" y="205.855" style="stroke: #000000; stroke-width: 0.8"/>
      </g>
     </g>
     <g id="text_14">
      <!-- 0.6 -->
      <g transform="translate(29.306875 209.654219) scale(0.1 -0.1)">
       <defs>
        <path id="DejaVuSans-36" d="M 2113 2584 
Q 1688 2584 1439 2293 
Q 1191 2003 1191 1497 
Q 1191 994 1439 701 
Q 1688 409 2113 409 
Q 2538 409 2786 701 
Q 3034 994 3034 1497 
Q 3034 2003 2786 2293 
Q 2538 2584 2113 2584 
z
M 3366 4563 
L 3366 3988 
Q 3128 4100 2886 4159 
Q 2644 4219 2406 4219 
Q 1781 4219 1451 3797 
Q 1122 3375 1075 2522 
Q 1259 2794 1537 2939 
Q 1816 3084 2150 3084 
Q 2853 3084 3261 2657 
Q 3669 2231 3669 1497 
Q 3669 778 3244 343 
Q 2819 -91 2113 -91 
Q 1303 -91 875 529 
Q 447 1150 447 2328 
Q 447 3434 972 4092 
Q 1497 4750 2381 4750 
Q 2619 4750 2861 4703 
Q 3103 4656 3366 4563 
z
" transform="scale(0.015625)"/>
       </defs>
       <use xlink:href="#DejaVuSans-30"/>
       <use xlink:href="#DejaVuSans-2e" transform="translate(63.623047 0)"/>
       <use xlink:href="#DejaVuSans-36" transform="translate(95.410156 0)"/>
      </g>
     </g>
    </g>
    <g id="ytick_5">
     <g id="line2d_27">
      <path d="M 52.21 146.196667 
L 633.40875 146.196667 
" clip-path="url(#p05df307016)" style="fill: none; stroke: #b0b0b0; stroke-opacity: 0.3; stroke-width: 0.8; stroke-linecap: square"/>
     </g>
     <g id="line2d_28">
      <g>
       <use xlink:href="#m8c48efe4eb" x="52.21" y="146.196667" style="stroke: #000000; stroke-width: 0.8"/>
      </g>
     </g>
     <g id="text_15">
      <!-- 0.8 -->
      <g transform="translate(29.306875 149.995885) scale(0.1 -0.1)">
       <use xlink:href="#DejaVuSans-30"/>
       <use xlink:href="#DejaVuSans-2e" transform="translate(63.623047 0)"/>
       <use xlink:href="#DejaVuSans-38" transform="translate(95.410156 0)"/>
      </g>
     </g>
    </g>
    <g id="ytick_6">
     <g id="line2d_29">
      <path d="M 52.21 86.538333 
L 633.40875 86.538333 
" clip-path="url(#p05df307016)" style="fill: none; stroke: #b0b0b0; stroke-opacity: 0.3; stroke-width: 0.8; stroke-linecap: square"/>
     </g>
     <g id="line2d_30">
      <g>
       <use xlink:href="#m8c48efe4eb" x="52.21" y="86.538333" style="stroke: #000000; stroke-width: 0.8"/>
      </g>
     </g>
     <g id="text_16">
      <!-- 1.0 -->
      <g transform="translate(29.306875 90.337552) scale(0.1 -0.1)">
       <defs>
        <path id="DejaVuSans-31" d="M 794 531 
L 1825 531 
L 1825 4091 
L 703 3866 
L 703 4441 
L 1819 4666 
L 2450 4666 
L 2450 531 
L 3481 531 
L 3481 0 
L 794 0 
L 794 531 
z
" transform="scale(0.015625)"/>
       </defs>
       <use xlink:href="#DejaVuSans-31"/>
       <use xlink:href="#DejaVuSans-2e" transform="translate(63.623047 0)"/>
       <use xlink:href="#DejaVuSans-30" transform="translate(95.410156 0)"/>
      </g>
     </g>
    </g>
    <g id="ytick_7">
     <g id="line2d_31">
      <path d="M 52.21 26.88 
L 633.40875 26.88 
" clip-path="url(#p05df307016)" style="fill: none; stroke: #b0b0b0; stroke-opacity: 0.3; stroke-width: 0.8; stroke-linecap: square"/>
     </g>
     <g id="line2d_32">
      <g>
       <use xlink:href="#m8c48efe4eb" x="52.21" y="26.88" style="stroke: #000000; stroke-width: 0.8"/>
      </g>
     </g>
     <g id="text_17">
      <!-- 1.2 -->
      <g transform="translate(29.306875 30.679219) scale(0.1 -0.1)">
       <use xlink:href="#DejaVuSans-31"/>
       <use xlink:href="#DejaVuSans-2e" transform="translate(63.623047 0)"/>
       <use xlink:href="#DejaVuSans-32" transform="translate(95.410156 0)"/>
      </g>
     </g>
    </g>
    <g id="text_18">
     <!-- Magnitude Response $|H(\hat{\omega})|$ -->
     <g transform="translate(22.906875 275.005) rotate(-90) scale(0.1 -0.1)">
      <defs>
       <path id="DejaVuSans-4d" d="M 628 4666 
L 1569 4666 
L 2759 1491 
L 3956 4666 
L 4897 4666 
L 4897 0 
L 4281 0 
L 4281 4097 
L 3078 897 
L 2444 897 
L 1241 4097 
L 1241 0 
L 628 0 
L 628 4666 
z
" transform="scale(0.015625)"/>
       <path id="DejaVuSans-74" d="M 1172 4494 
L 1172 3500 
L 2356 3500 
L 2356 3053 
L 1172 3053 
L 1172 1153 
Q 1172 725 1289 603 
Q 1406 481 1766 481 
L 2356 481 
L 2356 0 
L 1766 0 
Q 1100 0 847 248 
Q 594 497 594 1153 
L 594 3053 
L 172 3053 
L 172 3500 
L 594 3500 
L 594 4494 
L 1172 4494 
z
" transform="scale(0.015625)"/>
       <path id="DejaVuSans-52" d="M 2841 2188 
Q 3044 2119 3236 1894 
Q 3428 1669 3622 1275 
L 4263 0 
L 3584 0 
L 2988 1197 
Q 2756 1666 2539 1819 
Q 2322 1972 1947 1972 
L 1259 1972 
L 1259 0 
L 628 0 
L 628 4666 
L 2053 4666 
Q 2853 4666 3247 4331 
Q 3641 3997 3641 3322 
Q 3641 2881 3436 2590 
Q 3231 2300 2841 2188 
z
M 1259 4147 
L 1259 2491 
L 2053 2491 
Q 2509 2491 2742 2702 
Q 2975 2913 2975 3322 
Q 2975 3731 2742 3939 
Q 2509 4147 2053 4147 
L 1259 4147 
z
" transform="scale(0.015625)"/>
       <path id="DejaVuSans-73" d="M 2834 3397 
L 2834 2853 
Q 2591 2978 2328 3040 
Q 2066 3103 1784 3103 
Q 1356 3103 1142 2972 
Q 928 2841 928 2578 
Q 928 2378 1081 2264 
Q 1234 2150 1697 2047 
L 1894 2003 
Q 2506 1872 2764 1633 
Q 3022 1394 3022 966 
Q 3022 478 2636 193 
Q 2250 -91 1575 -91 
Q 1294 -91 989 -36 
Q 684 19 347 128 
L 347 722 
Q 666 556 975 473 
Q 1284 391 1588 391 
Q 1994 391 2212 530 
Q 2431 669 2431 922 
Q 2431 1156 2273 1281 
Q 2116 1406 1581 1522 
L 1381 1569 
Q 847 1681 609 1914 
Q 372 2147 372 2553 
Q 372 3047 722 3315 
Q 1072 3584 1716 3584 
Q 2034 3584 2315 3537 
Q 2597 3491 2834 3397 
z
" transform="scale(0.015625)"/>
       <path id="DejaVuSans-70" d="M 1159 525 
L 1159 -1331 
L 581 -1331 
L 581 3500 
L 1159 3500 
L 1159 2969 
Q 1341 3281 1617 3432 
Q 1894 3584 2278 3584 
Q 2916 3584 3314 3078 
Q 3713 2572 3713 1747 
Q 3713 922 3314 415 
Q 2916 -91 2278 -91 
Q 1894 -91 1617 61 
Q 1341 213 1159 525 
z
M 3116 1747 
Q 3116 2381 2855 2742 
Q 2594 3103 2138 3103 
Q 1681 3103 1420 2742 
Q 1159 2381 1159 1747 
Q 1159 1113 1420 752 
Q 1681 391 2138 391 
Q 2594 391 2855 752 
Q 3116 1113 3116 1747 
z
" transform="scale(0.015625)"/>
       <path id="DejaVuSans-7c" d="M 1344 4891 
L 1344 -1509 
L 813 -1509 
L 813 4891 
L 1344 4891 
z
" transform="scale(0.015625)"/>
       <path id="DejaVuSans-Oblique-48" d="M 1081 4666 
L 1716 4666 
L 1344 2753 
L 3634 2753 
L 4006 4666 
L 4641 4666 
L 3731 0 
L 3097 0 
L 3531 2222 
L 1241 2222 
L 806 0 
L 172 0 
L 1081 4666 
z
" transform="scale(0.015625)"/>
       <path id="DejaVuSans-28" d="M 1984 4856 
Q 1566 4138 1362 3434 
Q 1159 2731 1159 2009 
Q 1159 1288 1364 580 
Q 1569 -128 1984 -844 
L 1484 -844 
Q 1016 -109 783 600 
Q 550 1309 550 2009 
Q 550 2706 781 3412 
Q 1013 4119 1484 4856 
L 1984 4856 
z
" transform="scale(0.015625)"/>
       <path id="DejaVuSans-29" d="M 513 4856 
L 1013 4856 
Q 1481 4119 1714 3412 
Q 1947 2706 1947 2009 
Q 1947 1309 1714 600 
Q 1481 -109 1013 -844 
L 513 -844 
Q 928 -128 1133 580 
Q 1338 1288 1338 2009 
Q 1338 2731 1133 3434 
Q 928 4138 513 4856 
z
" transform="scale(0.015625)"/>
      </defs>
      <use xlink:href="#DejaVuSans-4d" transform="translate(0 0.828125)"/>
      <use xlink:href="#DejaVuSans-61" transform="translate(86.279297 0.828125)"/>
      <use xlink:href="#DejaVuSans-67" transform="translate(147.558594 0.828125)"/>
      <use xlink:href="#DejaVuSans-6e" transform="translate(211.035156 0.828125)"/>
      <use xlink:href="#DejaVuSans-69" transform="translate(274.414062 0.828125)"/>
      <use xlink:href="#DejaVuSans-74" transform="translate(302.197266 0.828125)"/>
      <use xlink:href="#DejaVuSans-75" transform="translate(341.40625 0.828125)"/>
      <use xlink:href="#DejaVuSans-64" transform="translate(404.785156 0.828125)"/>
      <use xlink:href="#DejaVuSans-65" transform="translate(468.261719 0.828125)"/>
      <use xlink:href="#DejaVuSans-20" transform="translate(529.785156 0.828125)"/>
      <use xlink:href="#DejaVuSans-52" transform="translate(561.572266 0.828125)"/>
      <use xlink:href="#DejaVuSans-65" transform="translate(631.054688 0.828125)"/>
      <use xlink:href="#DejaVuSans-73" transform="translate(692.578125 0.828125)"/>
      <use xlink:href="#DejaVuSans-70" transform="translate(744.677734 0.828125)"/>
      <use xlink:href="#DejaVuSans-6f" transform="translate(808.154297 0.828125)"/>
      <use xlink:href="#DejaVuSans-6e" transform="translate(869.335938 0.828125)"/>
      <use xlink:href="#DejaVuSans-73" transform="translate(932.714844 0.828125)"/>
      <use xlink:href="#DejaVuSans-65" transform="translate(984.814453 0.828125)"/>
      <use xlink:href="#DejaVuSans-20" transform="translate(1046.337891 0.828125)"/>
      <use xlink:href="#DejaVuSans-7c" transform="translate(1078.125 0.828125)"/>
      <use xlink:href="#DejaVuSans-Oblique-48" transform="translate(1111.816406 0.828125)"/>
      <use xlink:href="#DejaVuSans-28" transform="translate(1187.011719 0.828125)"/>
      <use xlink:href="#DejaVuSans-302" transform="translate(1303.538574 12.015625)"/>
      <use xlink:href="#DejaVuSans-Oblique-3c9" transform="translate(1226.025391 0.828125)"/>
      <use xlink:href="#DejaVuSans-29" transform="translate(1309.765625 0.828125)"/>
      <use xlink:href="#DejaVuSans-7c" transform="translate(1348.779297 0.828125)"/>
     </g>
    </g>
   </g>
   <g id="line2d_33">
    <path d="M 52.21 86.538333 
L 53.061365 86.439238 
L 54.054625 86.102782 
L 57.460086 84.676624 
L 58.311452 84.644649 
L 59.304711 84.853084 
L 60.581759 85.408943 
L 62.710173 86.369516 
L 63.703432 86.537841 
L 64.554798 86.46867 
L 65.548057 86.158887 
L 67.250788 85.324644 
L 68.527836 84.798662 
L 69.521096 84.631411 
L 70.372461 84.702081 
L 71.365721 85.01393 
L 73.210345 85.920921 
L 74.487393 86.416836 
L 75.480653 86.545828 
L 76.332018 86.440678 
L 77.325278 86.096577 
L 80.730739 84.662269 
L 81.582105 84.635309 
L 82.575364 84.852078 
L 83.852412 85.419388 
L 85.838932 86.344913 
L 86.832191 86.54668 
L 87.683557 86.504653 
L 88.676816 86.216554 
L 90.095758 85.527218 
L 91.656595 84.820056 
L 92.649854 84.618462 
L 93.50122 84.662127 
L 94.494479 84.953487 
L 95.913422 85.648329 
L 97.474258 86.359444 
L 98.467518 86.561062 
L 99.318883 86.515692 
L 100.312143 86.220738 
L 101.731085 85.51962 
L 103.291921 84.803788 
L 104.285181 84.601947 
L 105.136546 84.649095 
L 106.129806 84.947995 
L 107.548748 85.656189 
L 109.109585 86.377528 
L 110.102844 86.579796 
L 110.95421 86.530791 
L 111.947469 86.227575 
L 113.366411 85.511467 
L 114.927248 84.783798 
L 115.920508 84.580894 
L 116.771873 84.631843 
L 117.765132 84.939767 
L 119.184075 85.664669 
L 120.744911 86.399529 
L 121.738171 86.603284 
L 122.589536 86.550295 
L 123.582796 86.237248 
L 125.001738 85.502625 
L 126.562574 84.759669 
L 127.555834 84.55484 
L 128.407199 84.609973 
L 129.400459 84.928585 
L 130.819401 85.673913 
L 132.380238 86.425919 
L 133.373497 86.632055 
L 134.224863 86.574664 
L 135.218122 86.250014 
L 136.637065 85.492933 
L 138.197901 84.730866 
L 139.049266 84.535075 
L 139.900632 84.557557 
L 140.751997 84.794651 
L 141.887151 85.355598 
L 144.015564 86.457307 
L 144.86693 86.654959 
L 145.718295 86.630576 
L 146.56966 86.388115 
L 147.704814 85.816487 
L 149.833228 84.696698 
L 150.684593 84.496924 
L 151.535958 84.5233 
L 152.387324 84.77156 
L 153.522477 85.354826 
L 155.650891 86.494476 
L 156.502256 86.696652 
L 157.353622 86.668181 
L 158.204987 86.41365 
L 159.340141 85.817712 
L 161.468554 84.656276 
L 162.319919 84.451399 
L 163.171285 84.482079 
L 164.02265 84.743393 
L 165.157804 85.353129 
L 167.144323 86.482836 
L 167.995688 86.727804 
L 168.847054 86.735972 
L 169.698419 86.504047 
L 170.691679 85.994847 
L 173.245775 84.557437 
L 174.09714 84.385447 
L 174.948506 84.462951 
L 175.799871 84.775562 
L 177.076919 85.535799 
L 178.77965 86.53263 
L 179.631015 86.786651 
L 180.48238 86.791758 
L 181.333746 86.544982 
L 182.327005 86.007416 
L 184.881101 84.498479 
L 185.732467 84.320738 
L 186.583832 84.405929 
L 187.435197 84.738406 
L 188.712245 85.542325 
L 190.273082 86.52531 
L 191.124447 86.830107 
L 191.833918 86.888675 
L 192.54339 86.75767 
L 193.394755 86.377007 
L 194.813697 85.42274 
L 196.232639 84.546238 
L 197.084005 84.274685 
L 197.793476 84.255071 
L 198.502947 84.429446 
L 199.354312 84.859253 
L 201.057043 86.065906 
L 202.192197 86.72662 
L 203.043562 86.96124 
L 203.753033 86.939201 
L 204.604399 86.654051 
L 205.597658 86.042211 
L 208.00986 84.402572 
L 208.861226 84.161636 
L 209.570697 84.186139 
L 210.280168 84.415174 
L 211.273427 85.014222 
L 213.969418 86.877238 
L 214.678889 87.064163 
L 215.38836 87.036988 
L 216.097831 86.797683 
L 216.949196 86.27882 
L 219.928975 84.185197 
L 220.638446 84.03569 
L 221.347917 84.111122 
L 222.057389 84.402721 
L 223.050648 85.092044 
L 225.46285 86.925733 
L 226.172321 87.168508 
L 226.881792 87.18261 
L 227.591263 86.963555 
L 228.442629 86.436649 
L 230.003465 85.095172 
L 231.138619 84.258114 
L 231.84809 83.96196 
L 232.557561 83.899841 
L 233.267032 84.083481 
L 234.118398 84.592056 
L 235.395446 85.713387 
L 236.814388 86.894592 
L 237.665753 87.290865 
L 238.375225 87.35395 
L 239.084696 87.159234 
L 239.794167 86.732018 
L 240.929321 85.723644 
L 242.632051 84.20438 
L 243.341523 83.834728 
L 244.050994 83.71651 
L 244.760465 83.870281 
L 245.469936 84.277123 
L 246.463195 85.159096 
L 248.449715 87.049868 
L 249.159186 87.438244 
L 249.868657 87.560852 
L 250.436234 87.451633 
L 251.145705 87.069348 
L 251.99707 86.323719 
L 254.551166 83.833482 
L 255.260638 83.53108 
L 255.828214 83.501709 
L 256.395791 83.667971 
L 257.105262 84.129069 
L 258.098522 85.124451 
L 260.085041 87.251722 
L 260.794512 87.686032 
L 261.362089 87.818742 
L 261.929666 87.743097 
L 262.497243 87.463463 
L 263.206714 86.864672 
L 264.341868 85.541916 
L 265.76081 83.920612 
L 266.470281 83.400675 
L 267.037858 83.206528 
L 267.605435 83.233662 
L 268.173012 83.482688 
L 268.882483 84.073327 
L 269.875743 85.266138 
L 271.578474 87.388457 
L 272.287945 87.946243 
L 272.855522 88.153257 
L 273.423098 88.121539 
L 273.990675 87.850342 
L 274.700146 87.20973 
L 275.693406 85.917699 
L 277.396137 83.620533 
L 278.105608 83.017901 
L 278.673185 82.795601 
L 279.240762 82.832731 
L 279.808339 83.13026 
L 280.51781 83.83035 
L 281.511069 85.240762 
L 283.2138 87.747294 
L 283.923271 88.403824 
L 284.490848 88.644546 
L 285.058425 88.600923 
L 285.626002 88.271635 
L 286.193579 87.682217 
L 287.044944 86.426644 
L 289.173358 83.009204 
L 289.882829 82.367735 
L 290.450406 82.181343 
L 290.876088 82.250121 
L 291.443665 82.618429 
L 292.011242 83.27557 
L 292.862607 84.674457 
L 294.991021 88.483557 
L 295.558598 89.093114 
L 296.126175 89.384724 
L 296.551857 89.372426 
L 296.97754 89.157878 
L 297.545117 88.572055 
L 298.254588 87.429396 
L 299.389742 85.042006 
L 300.66679 82.49611 
L 301.376261 81.58589 
L 301.943838 81.25786 
L 302.369521 81.274987 
L 302.795203 81.523005 
L 303.36278 82.19669 
L 304.072251 83.509831 
L 305.207405 86.256664 
L 306.484453 89.19203 
L 307.193924 90.242226 
L 307.619607 90.567299 
L 308.04529 90.63304 
L 308.470972 90.429629 
L 308.896655 89.961285 
L 309.464232 88.958442 
L 310.173703 87.216789 
L 312.585905 80.679287 
L 313.153482 79.85298 
L 313.579164 79.56962 
L 314.004847 79.602222 
L 314.43053 79.958373 
L 314.856212 80.628721 
L 315.423789 81.963461 
L 316.275155 84.677811 
L 318.261674 91.359837 
L 318.829251 92.520558 
L 319.254933 92.992911 
L 319.538722 93.095497 
L 319.82251 93.019944 
L 320.248193 92.568046 
L 320.673876 91.719348 
L 321.241453 90.025813 
L 322.092818 86.56366 
L 324.079337 77.934651 
L 324.646914 76.417791 
L 325.072597 75.799971 
L 325.356385 75.668401 
L 325.640174 75.774094 
L 325.923962 76.122413 
L 326.349645 77.098017 
L 326.917222 79.199352 
L 327.626693 82.905154 
L 330.322683 98.591446 
L 330.748366 99.724584 
L 331.032154 100.084092 
L 331.315943 100.09762 
L 331.599731 99.747563 
L 331.88352 99.023728 
L 332.309202 97.234613 
L 332.876779 93.591787 
L 333.58625 87.310039 
L 335.147087 70.38728 
L 335.998452 62.679789 
L 336.566029 59.583769 
L 336.849818 58.896424 
L 336.991712 58.801744 
L 337.133606 58.885074 
L 337.417394 59.619351 
L 337.701183 61.161712 
L 338.126866 65.106175 
L 338.552548 71.130043 
L 339.120125 82.538802 
L 339.829596 102.250247 
L 340.680962 133.366265 
L 341.816115 184.879445 
L 345.221577 348.257654 
L 346.072942 376.765252 
L 346.356731 384.415027 
L 347.491884 364.35027 
L 347.917567 360.405807 
L 348.34325 358.399018 
L 348.627038 358.045839 
L 348.768932 358.140519 
L 349.052721 358.827864 
L 349.478404 360.959875 
L 350.045981 365.429375 
L 351.03924 375.826563 
L 351.890605 384.542456 
L 352.741971 376.824118 
L 353.309548 373.181292 
L 353.73523 371.392177 
L 354.160913 370.447047 
L 354.444702 370.280535 
L 354.72849 370.469691 
L 355.012278 370.99346 
L 355.437961 372.345088 
L 356.005538 375.019398 
L 356.998798 381.157607 
L 357.566375 384.779233 
L 358.559634 379.098632 
L 359.269105 376.342112 
L 359.694788 375.366508 
L 360.120471 374.935224 
L 360.404259 374.949165 
L 360.688047 375.19572 
L 361.11373 375.971998 
L 361.681307 377.663028 
L 362.532672 381.185297 
L 363.242144 384.502849 
L 363.384038 384.499293 
L 364.377297 380.390092 
L 365.086768 378.371001 
L 365.512451 377.652257 
L 365.938134 377.335658 
L 366.221922 377.349756 
L 366.505711 377.539168 
L 366.931393 378.132304 
L 367.49897 379.427616 
L 368.350336 382.143171 
L 369.059807 384.719884 
L 369.343595 383.921906 
L 370.336855 380.831057 
L 370.904432 379.615737 
L 371.330114 379.048026 
L 371.755797 378.799531 
L 372.18148 378.873912 
L 372.607162 379.258089 
L 373.174739 380.200642 
L 373.884211 381.916665 
L 374.87747 384.823903 
L 376.154518 381.457463 
L 376.722095 380.45462 
L 377.289672 379.888533 
L 377.715355 379.775074 
L 378.141037 379.929026 
L 378.56672 380.336042 
L 379.134297 381.223875 
L 379.985662 383.093771 
L 380.695133 384.78041 
L 381.830287 382.174479 
L 382.539758 381.057094 
L 383.107335 380.576261 
L 383.533018 380.481997 
L 383.958701 380.617418 
L 384.384383 380.970807 
L 384.95196 381.740205 
L 385.803326 383.361374 
L 386.512797 384.748277 
L 387.64795 382.48234 
L 388.357422 381.510047 
L 388.924998 381.092684 
L 389.350681 381.012772 
L 389.776364 381.134318 
L 390.343941 381.5912 
L 391.053412 382.560806 
L 392.33046 384.728723 
L 393.465614 382.723107 
L 394.175085 381.862524 
L 394.742662 381.494216 
L 395.168344 381.425438 
L 395.594027 381.536224 
L 396.161604 381.947111 
L 396.871075 382.817073 
L 398.148123 384.716354 
L 399.283277 382.916266 
L 399.992748 382.14427 
L 400.560325 381.814982 
L 401.127902 381.771359 
L 401.695479 382.012081 
L 402.263056 382.509607 
L 403.114421 383.621268 
L 403.965786 384.7083 
L 405.10094 383.074445 
L 405.810411 382.374355 
L 406.377988 382.076826 
L 406.945565 382.039696 
L 407.513142 382.261996 
L 408.080719 382.718793 
L 408.932084 383.73791 
L 409.641555 384.750748 
L 409.78345 384.702939 
L 411.060498 383.054495 
L 411.769969 382.476126 
L 412.337546 382.263626 
L 412.905123 382.292547 
L 413.4727 382.556501 
L 414.182171 383.172398 
L 415.17543 384.389119 
L 415.459219 384.770146 
L 415.743007 384.510233 
L 416.878161 383.17748 
L 417.587632 382.644482 
L 418.155209 382.449834 
L 418.722786 382.478899 
L 419.290363 382.725836 
L 419.999834 383.299662 
L 420.993094 384.431676 
L 421.276882 384.786011 
L 421.56067 384.521019 
L 422.695824 383.282527 
L 423.405295 382.788164 
L 423.972872 382.608753 
L 424.540449 382.637968 
L 425.108026 382.870398 
L 425.817497 383.408277 
L 426.952651 384.633174 
L 427.094545 384.79922 
L 427.520228 384.368546 
L 428.655382 383.260727 
L 429.364853 382.852575 
L 429.93243 382.734691 
L 430.500007 382.812891 
L 431.209478 383.170094 
L 432.060843 383.900682 
L 432.912209 384.810388 
L 433.62168 384.092186 
L 434.614939 383.250081 
L 435.32441 382.919798 
L 435.891987 382.856679 
L 436.459564 382.977661 
L 437.169035 383.366037 
L 438.162295 384.236862 
L 438.729872 384.819963 
L 440.716391 383.176792 
L 441.425862 382.969634 
L 442.135333 383.03385 
L 442.844804 383.356682 
L 443.69617 384.013005 
L 444.547535 384.828273 
L 445.966477 383.582263 
L 446.817843 383.14864 
L 447.527314 383.056094 
L 448.236785 383.220969 
L 448.946256 383.61638 
L 449.939516 384.438519 
L 450.365198 384.824432 
L 451.784141 383.63644 
L 452.635506 383.225377 
L 453.344977 383.139147 
L 454.054448 383.298274 
L 454.905814 383.774582 
L 456.324756 384.691273 
L 457.601804 383.684757 
L 458.453169 383.293849 
L 459.16264 383.213292 
L 459.872112 383.367327 
L 460.723477 383.824843 
L 462.142419 384.690864 
L 463.419467 383.72803 
L 464.270833 383.355217 
L 464.980304 383.279785 
L 465.689775 383.429292 
L 466.54114 383.869985 
L 467.818188 384.806936 
L 469.23713 383.766926 
L 470.088496 383.410431 
L 470.797967 383.339653 
L 471.507438 383.485123 
L 472.358803 383.9107 
L 473.635851 384.802168 
L 475.054794 383.801998 
L 475.906159 383.460276 
L 476.61563 383.393741 
L 477.325101 383.535607 
L 478.176467 383.947562 
L 479.453515 384.79779 
L 480.872457 383.833706 
L 481.723822 383.505403 
L 482.433293 383.442757 
L 483.142765 383.581398 
L 483.99413 383.981048 
L 485.271178 384.793738 
L 486.69012 383.862434 
L 487.541486 383.546361 
L 488.250957 383.48729 
L 488.960428 383.623046 
L 489.811793 384.011556 
L 491.088841 384.789963 
L 492.507784 383.888509 
L 493.359149 383.58361 
L 494.06862 383.52784 
L 494.919985 383.708968 
L 495.913245 384.20638 
L 496.906505 384.78642 
L 498.325447 383.912207 
L 499.176812 383.617545 
L 500.028177 383.576591 
L 500.879543 383.795776 
L 501.872802 384.314319 
L 502.724168 384.783074 
L 504.14311 383.933764 
L 504.994475 383.6485 
L 505.845841 383.610365 
L 506.697206 383.825386 
L 507.690466 384.33169 
L 508.541831 384.779894 
L 509.960773 383.953384 
L 510.812139 383.676763 
L 511.663504 383.641267 
L 512.514869 383.852538 
L 513.508129 384.347698 
L 514.359494 384.776853 
L 515.778437 383.971242 
L 516.629802 383.702583 
L 517.481167 383.669566 
L 518.332533 383.877466 
L 519.325792 384.362476 
L 520.177158 384.773928 
L 521.5961 383.987488 
L 522.447465 383.726174 
L 523.298831 383.695494 
L 524.150196 383.900371 
L 525.143456 384.376142 
L 525.994821 384.771099 
L 527.413763 384.002255 
L 528.407023 383.726542 
L 529.258388 383.737533 
L 530.109753 383.975151 
L 531.244907 384.551511 
L 531.812484 384.76835 
L 533.373321 383.960492 
L 534.224686 383.746873 
L 535.076051 383.759206 
L 535.927417 383.993708 
L 537.06257 384.560386 
L 537.630147 384.765663 
L 539.190984 383.97382 
L 540.042349 383.765423 
L 540.893715 383.779061 
L 541.74508 384.010785 
L 542.880234 384.568671 
L 543.305916 384.814377 
L 544.015388 384.442029 
L 545.150541 383.938008 
L 546.001907 383.769163 
L 546.853272 383.821352 
L 547.846532 384.143279 
L 549.265474 384.760423 
L 550.82631 383.996741 
L 551.81957 383.784968 
L 552.670935 383.837828 
L 553.664195 384.156315 
L 555.083137 384.757845 
L 556.643974 384.006491 
L 557.637233 383.799305 
L 558.488599 383.852869 
L 559.481858 384.168322 
L 560.9008 384.755281 
L 562.461637 384.015187 
L 563.454897 383.812265 
L 564.306262 383.866563 
L 565.299521 384.179368 
L 566.718464 384.75272 
L 568.2793 384.022884 
L 569.27256 383.823923 
L 570.123925 383.878992 
L 571.117185 384.189515 
L 572.536127 384.750154 
L 574.096964 384.029631 
L 575.090223 383.834348 
L 575.941588 383.890223 
L 576.934848 384.198815 
L 578.35379 384.747572 
L 579.914627 384.035469 
L 580.907886 383.8436 
L 581.759252 383.900319 
L 582.752511 384.207317 
L 584.171454 384.744966 
L 585.73229 384.040433 
L 586.72555 383.851728 
L 587.576915 383.909331 
L 588.570175 384.215062 
L 589.989117 384.742327 
L 591.549953 384.044554 
L 592.543213 383.858778 
L 593.394578 383.917307 
L 594.387838 384.222088 
L 595.80678 384.739648 
L 597.367617 384.047856 
L 598.360876 383.864787 
L 599.212242 383.924285 
L 600.205501 384.228426 
L 601.624443 384.73692 
L 603.18528 384.050359 
L 604.178539 383.869787 
L 605.029905 383.930301 
L 606.023164 384.234104 
L 607.442107 384.734134 
L 609.002943 384.052081 
L 609.996203 383.873803 
L 610.847568 383.935382 
L 611.840828 384.239148 
L 613.25977 384.731282 
L 614.820606 384.053032 
L 615.813866 383.876856 
L 616.665231 383.939552 
L 617.658491 384.243577 
L 619.077433 384.728356 
L 620.63827 384.053222 
L 621.631529 383.878962 
L 622.482895 383.94283 
L 623.476154 384.24741 
L 624.895096 384.725346 
L 626.455933 384.052654 
L 627.449193 383.880132 
L 628.300558 383.94523 
L 629.293817 384.25066 
L 630.570865 384.795086 
L 632.131702 384.095644 
L 633.124962 383.888757 
L 633.266856 383.880372 
L 633.266856 383.880372 
" clip-path="url(#p05df307016)" style="fill: none; stroke: #1f77b4; stroke-width: 1.5; stroke-linecap: square"/>
   </g>
   <g id="line2d_34">
    <path d="M 52.21 58.15106 
L 52.493788 58.349335 
L 52.777577 58.941397 
L 53.20326 60.548299 
L 53.770836 63.947463 
L 54.480308 69.937059 
L 55.473567 80.604063 
L 57.601981 104.335695 
L 58.311452 110.031761 
L 58.879029 113.14374 
L 59.304711 114.514999 
L 59.5885 114.944378 
L 59.872288 114.978136 
L 60.156077 114.6158 
L 60.439865 113.862418 
L 60.865548 112.023569 
L 61.433125 108.345026 
L 62.142596 102.075595 
L 63.27775 89.522494 
L 65.122375 69.044381 
L 65.831846 63.284287 
L 66.399423 60.110282 
L 66.825105 58.688336 
L 67.108894 58.224021 
L 67.392682 58.154954 
L 67.676471 58.482082 
L 67.960259 59.200824 
L 68.385942 60.989785 
L 68.953519 64.607961 
L 69.66299 70.816172 
L 70.798144 83.314972 
L 72.642769 103.835157 
L 73.35224 109.649501 
L 73.919817 112.877456 
L 74.345499 114.343918 
L 74.629288 114.839013 
L 74.913076 114.939205 
L 75.196865 114.643082 
L 75.480653 113.954759 
L 75.906336 112.209338 
L 76.473913 108.643056 
L 77.183384 102.485497 
L 78.176643 91.684281 
L 80.163163 69.435464 
L 80.872634 63.556935 
L 81.440211 60.2672 
L 81.865893 58.750423 
L 82.149682 58.220718 
L 82.43347 58.085602 
L 82.717259 58.346953 
L 83.001047 59.001121 
L 83.42673 60.697466 
L 83.994307 64.204607 
L 84.703778 70.302688 
L 85.697037 81.055918 
L 87.825451 104.672868 
L 88.534922 110.249983 
L 89.102499 113.247402 
L 89.528181 114.525494 
L 89.81197 114.890904 
L 90.095758 114.860236 
L 90.379547 114.433908 
L 90.805229 113.067028 
L 91.230912 110.867343 
L 91.798489 106.761544 
L 92.649854 98.578426 
L 94.352585 78.905622 
L 95.487739 67.257911 
L 96.19721 61.990341 
L 96.764787 59.28833 
L 97.19047 58.248985 
L 97.474258 58.046784 
L 97.758047 58.241236 
L 98.041835 58.82963 
L 98.467518 60.431442 
L 99.035095 63.824853 
L 99.744566 69.809413 
L 100.737825 80.474283 
L 102.866239 104.222208 
L 103.57571 109.929095 
L 104.143287 113.051 
L 104.568969 114.430185 
L 104.852758 114.864978 
L 105.136546 114.904192 
L 105.420335 114.5473 
L 105.704123 113.7993 
L 106.129806 111.968297 
L 106.697383 108.299553 
L 107.406854 102.040868 
L 108.542008 89.500484 
L 110.386633 69.03033 
L 111.096104 63.269818 
L 111.663681 60.094602 
L 112.089363 58.671448 
L 112.373152 58.206265 
L 112.65694 58.136329 
L 112.940729 58.462628 
L 113.224517 59.180624 
L 113.6502 60.968701 
L 114.217777 64.586324 
L 114.927248 70.795166 
L 116.062402 83.2987 
L 117.907027 103.836396 
L 118.616498 109.659897 
L 119.184075 112.895665 
L 119.609757 114.368085 
L 119.893546 114.867132 
L 120.177334 114.97122 
L 120.461123 114.678903 
L 120.744911 113.994265 
L 121.170594 112.254079 
L 121.738171 108.6941 
L 122.447642 102.543119 
L 123.440901 91.748411 
L 125.427421 69.50403 
L 126.136892 63.625294 
L 126.704469 60.335192 
L 127.130151 58.818184 
L 127.41394 58.288401 
L 127.697728 58.1533 
L 127.981517 58.414784 
L 128.265305 59.069228 
L 128.690988 60.766296 
L 129.258565 64.275061 
L 129.968036 70.376341 
L 130.961295 81.136244 
L 133.089709 104.773672 
L 133.79918 110.358141 
L 134.366757 113.361109 
L 134.79244 114.643017 
L 135.076228 115.010757 
L 135.360016 114.982221 
L 135.643805 114.557806 
L 136.069488 113.193344 
L 136.49517 110.995497 
L 137.062747 106.891188 
L 137.914113 98.708212 
L 139.616843 79.028843 
L 140.751997 67.373058 
L 141.461468 62.099633 
L 142.029045 59.39275 
L 142.454728 58.349732 
L 142.738516 58.145098 
L 143.022305 58.337143 
L 143.306093 58.923165 
L 143.731776 60.521497 
L 144.299353 63.910423 
L 145.008824 69.889605 
L 146.002083 80.547183 
L 148.130497 104.278383 
L 148.839968 109.978768 
L 149.407545 113.09504 
L 149.833228 114.469758 
L 150.117016 114.90147 
L 150.400804 114.937535 
L 150.684593 114.577437 
L 150.968381 113.82619 
L 151.394064 111.990282 
L 151.961641 108.315042 
L 152.671112 102.04857 
L 153.806266 89.497406 
L 155.650891 69.017222 
L 156.360362 63.255853 
L 156.927939 60.081097 
L 157.353622 58.658869 
L 157.63741 58.194534 
L 157.921198 58.125597 
L 158.204987 58.453011 
L 158.488775 59.172201 
L 158.914458 60.962132 
L 159.482035 64.582117 
L 160.191506 70.793241 
L 161.32666 83.29729 
L 163.171285 103.822765 
L 163.880756 109.636567 
L 164.448333 112.862716 
L 164.874016 114.326991 
L 165.157804 114.820238 
L 165.441592 114.918286 
L 165.725381 114.619739 
L 166.009169 113.928739 
L 166.434852 112.178892 
L 167.002429 108.606142 
L 167.7119 102.44009 
L 168.70516 91.627656 
L 170.691679 69.366814 
L 171.40115 63.489323 
L 171.968727 60.20272 
L 172.394409 58.689594 
L 172.678198 58.162902 
L 172.961986 58.031221 
L 173.245775 58.296392 
L 173.529563 58.954716 
L 173.955246 60.657805 
L 174.522823 64.174572 
L 175.232294 70.284951 
L 176.225554 81.053941 
L 178.353967 104.688065 
L 179.063438 110.264064 
L 179.631015 113.258193 
L 180.056698 114.532622 
L 180.340486 114.895122 
L 180.624275 114.861251 
L 180.908063 114.4315 
L 181.333746 113.059256 
L 181.759428 110.854195 
L 182.327005 106.741748 
L 183.178371 98.551276 
L 184.881101 78.880936 
L 186.016255 67.251425 
L 186.725726 62.001783 
L 187.293303 59.317016 
L 187.718986 58.29182 
L 188.002774 58.099421 
L 188.286563 58.303825 
L 188.570351 58.902189 
L 188.996034 60.518687 
L 189.563611 63.930429 
L 190.273082 69.93431 
L 191.266342 80.615935 
L 193.394755 104.344335 
L 194.104226 110.027341 
L 194.671803 113.125116 
L 195.097486 114.483976 
L 195.381274 114.904465 
L 195.665063 114.928983 
L 195.948851 114.557195 
L 196.232639 113.7943 
L 196.658322 111.941407 
L 197.225899 108.245405 
L 197.93537 101.958004 
L 199.070524 89.390478 
L 200.773255 70.289152 
L 201.62462 63.210181 
L 202.192197 60.065806 
L 202.61788 58.668996 
L 202.901668 58.222501 
L 203.185457 58.171878 
L 203.469245 58.51786 
L 203.753033 59.255644 
L 204.178716 61.073013 
L 204.746293 64.727537 
L 205.455764 70.976091 
L 206.590918 83.51992 
L 208.435543 104.041659 
L 209.145014 109.83148 
L 209.712591 113.031206 
L 210.138274 114.472432 
L 210.422062 114.949197 
L 210.705851 115.030156 
L 210.989639 114.714174 
L 211.273427 114.00566 
L 211.69911 112.229988 
L 212.266687 108.625049 
L 212.976158 102.425246 
L 214.111312 89.920284 
L 215.955937 69.347972 
L 216.665408 63.505979 
L 217.232985 60.255501 
L 217.658668 58.772731 
L 217.942456 58.267307 
L 218.226245 58.157365 
L 218.510033 58.444423 
L 218.793821 59.124456 
L 219.219504 60.859049 
L 219.787081 64.414117 
L 220.496552 70.562936 
L 221.489812 81.360771 
L 223.476331 103.619846 
L 224.185802 109.50177 
L 224.753379 112.792347 
L 225.179062 114.308299 
L 225.46285 114.836681 
L 225.746638 114.969837 
L 226.030427 114.705889 
L 226.314215 114.04851 
L 226.739898 112.346287 
L 227.307475 108.829672 
L 228.016946 102.718149 
L 229.010206 91.946428 
L 231.138619 68.314761 
L 231.84809 62.745673 
L 232.415667 59.759868 
L 232.84135 58.493265 
L 233.125138 58.136668 
L 233.408927 58.176926 
L 233.692715 58.613473 
L 234.118398 59.996487 
L 234.544081 62.212691 
L 235.111657 66.339881 
L 235.963023 74.550045 
L 237.807648 95.841026 
L 238.800907 105.853435 
L 239.510378 111.082796 
L 240.077955 113.745388 
L 240.503638 114.751012 
L 240.787426 114.929229 
L 241.071215 114.709935 
L 241.355003 114.096164 
L 241.780686 112.456047 
L 242.348263 109.013055 
L 243.057734 102.973183 
L 244.050994 92.253533 
L 246.179407 68.526275 
L 246.888878 62.873231 
L 247.456455 59.809172 
L 247.882138 58.480379 
L 248.165926 58.081778 
L 248.449715 58.080305 
L 248.733503 58.475995 
L 249.159186 59.800632 
L 249.584868 61.963602 
L 250.152445 66.030703 
L 251.003811 74.180557 
L 252.564647 92.238081 
L 253.699801 104.307425 
L 254.409272 109.998624 
L 254.976849 113.098563 
L 255.402532 114.456116 
L 255.68632 114.874296 
L 255.970109 114.895374 
L 256.253897 114.519067 
L 256.537686 113.750652 
L 256.963368 111.887846 
L 257.530945 108.17635 
L 258.240416 101.867999 
L 259.37557 89.271386 
L 261.078301 70.164035 
L 261.929666 63.108063 
L 262.497243 59.989392 
L 262.922926 58.61683 
L 263.206714 58.188562 
L 263.490503 58.15756 
L 263.774291 58.524297 
L 264.05808 59.283675 
L 264.483762 61.134286 
L 265.051339 64.83282 
L 265.76081 71.131521 
L 266.895964 83.729971 
L 268.598695 102.877233 
L 269.45006 109.964354 
L 270.017637 113.105359 
L 270.44332 114.494622 
L 270.727108 114.93372 
L 271.010897 114.97515 
L 271.294685 114.618311 
L 271.578474 113.868186 
L 272.004156 112.03003 
L 272.571733 108.345043 
L 273.281204 102.057845 
L 274.416358 89.465233 
L 276.119089 70.304854 
L 276.970454 63.207024 
L 277.538031 60.059325 
L 277.963714 58.665805 
L 278.247502 58.224369 
L 278.531291 58.181065 
L 278.815079 58.536532 
L 279.098867 59.285806 
L 279.52455 61.123671 
L 280.092127 64.809996 
L 280.801598 71.101083 
L 281.936752 83.70195 
L 283.639483 102.865461 
L 284.490848 109.954431 
L 285.058425 113.091112 
L 285.484108 114.473617 
L 285.767896 114.906454 
L 286.051685 114.940224 
L 286.335473 114.574378 
L 286.619261 113.813987 
L 287.044944 111.958359 
L 287.612521 108.247159 
L 288.321992 101.925167 
L 289.457146 89.282983 
L 291.159877 70.1009 
L 292.011242 63.02986 
L 292.578819 59.915622 
L 293.004502 58.55493 
L 293.28829 58.138697 
L 293.572079 58.122924 
L 293.855867 58.507907 
L 294.139655 59.288281 
L 294.565338 61.17477 
L 295.132915 64.926915 
L 295.842386 71.295484 
L 296.97754 83.987369 
L 298.680271 103.14709 
L 299.531636 110.153978 
L 300.099213 113.206858 
L 300.524896 114.51327 
L 300.808684 114.890111 
L 301.092473 114.864477 
L 301.376261 114.43661 
L 301.801944 113.055175 
L 302.227626 110.827055 
L 302.795203 106.664949 
L 303.646569 98.372301 
L 306.910136 63.540933 
L 307.477713 60.247605 
L 307.903395 58.752277 
L 308.187184 58.249191 
L 308.470972 58.150656 
L 308.754761 58.458345 
L 309.038549 59.168123 
L 309.464232 60.963542 
L 310.031809 64.625951 
L 310.74128 70.937671 
L 311.876434 83.66032 
L 313.579164 103.037864 
L 314.43053 110.151964 
L 314.998107 113.249631 
L 315.423789 114.56916 
L 315.707578 114.943491 
L 315.991366 114.905761 
L 316.275155 114.455998 
L 316.700837 113.023527 
L 317.12652 110.723837 
L 317.694097 106.439339 
L 318.545462 97.92781 
L 321.667135 63.832909 
L 322.234712 60.368676 
L 322.660395 58.780677 
L 322.944183 58.237391 
L 323.227972 58.118174 
L 323.51176 58.426078 
L 323.795549 59.157803 
L 324.221231 61.027244 
L 324.788808 64.861336 
L 325.498279 71.484034 
L 326.633433 84.800549 
L 328.19427 103.235059 
L 328.903741 109.554005 
L 329.471318 113.006004 
L 329.897 114.490952 
L 330.180789 114.914668 
L 330.322683 114.951708 
L 330.606472 114.672392 
L 330.89026 113.922262 
L 331.315943 111.93179 
L 331.88352 107.759238 
L 332.592991 100.454872 
L 333.728145 85.704951 
L 335.147087 67.541321 
L 335.856558 61.212148 
L 336.282241 58.948649 
L 336.566029 58.215051 
L 336.707923 58.102942 
L 336.849818 58.169598 
L 337.133606 58.863713 
L 337.417394 60.342052 
L 337.843077 64.109314 
L 338.410654 72.156839 
L 338.978231 83.740918 
L 339.687702 103.105431 
L 340.539067 132.911578 
L 341.674221 181.460926 
L 345.505365 354.192561 
L 346.356731 380.518318 
L 346.498625 384.180789 
L 346.782413 378.8059 
L 347.491884 365.986465 
L 348.059461 359.680347 
L 348.485144 357.156997 
L 348.768932 356.46299 
L 348.910827 356.396381 
L 349.052721 356.508532 
L 349.336509 357.242201 
L 349.762192 359.505768 
L 350.329769 364.354149 
L 351.181134 374.389538 
L 351.890605 383.998145 
L 352.0325 383.715859 
L 353.309548 367.747728 
L 354.019019 361.316268 
L 354.586596 357.996269 
L 355.012278 356.696801 
L 355.296067 356.41773 
L 355.437961 356.454891 
L 355.72175 356.878843 
L 356.005538 357.758703 
L 356.431221 359.89137 
L 356.998798 364.105784 
L 357.708269 371.155097 
L 358.843423 384.799644 
L 360.546153 365.581729 
L 361.255624 360.137348 
L 361.823201 357.44764 
L 362.248884 356.508944 
L 362.532672 356.414807 
L 362.816461 356.747061 
L 363.100249 357.499503 
L 363.525932 359.387258 
L 364.093509 363.209991 
L 364.80298 369.744915 
L 365.938134 382.758572 
L 366.080028 384.482688 
L 366.363817 381.73316 
L 367.640865 367.523894 
L 368.350336 361.590171 
L 368.917913 358.343183 
L 369.343595 356.910803 
L 369.627384 356.461117 
L 369.911172 356.423477 
L 370.194961 356.797907 
L 370.478749 357.578475 
L 370.904432 359.483496 
L 371.472009 363.288206 
L 372.18148 369.750786 
L 373.316634 382.598242 
L 373.458528 384.302033 
L 373.600422 383.652593 
L 375.019364 367.834634 
L 375.728835 361.874255 
L 376.296412 358.561072 
L 376.722095 357.054413 
L 377.005883 356.544804 
L 377.289672 356.440083 
L 377.57346 356.74148 
L 377.857249 357.444428 
L 378.282932 359.227712 
L 378.850508 362.868722 
L 379.55998 369.143374 
L 380.695133 381.787051 
L 380.978922 384.487793 
L 382.397864 368.59006 
L 383.249229 361.460952 
L 383.816806 358.313455 
L 384.242489 356.932026 
L 384.526277 356.504162 
L 384.810066 356.478529 
L 385.093854 356.855369 
L 385.377643 357.629218 
L 385.803326 359.508636 
L 386.370902 363.255472 
L 387.080374 369.621779 
L 388.215527 382.313619 
L 388.357422 384.001686 
L 388.499316 383.967266 
L 389.918258 368.187243 
L 390.769623 361.176585 
L 391.3372 358.116447 
L 391.762883 356.801004 
L 392.046671 356.416142 
L 392.33046 356.432032 
L 392.614248 356.848378 
L 393.039931 358.209227 
L 393.465614 360.413074 
L 394.033191 364.538244 
L 394.884556 372.771301 
L 395.877816 384.203329 
L 396.01971 383.767896 
L 397.438652 368.049088 
L 398.290017 361.09656 
L 398.857594 358.077693 
L 399.283277 356.792433 
L 399.567065 356.426705 
L 399.850854 356.460595 
L 400.134642 356.893551 
L 400.560325 358.276233 
L 400.986008 360.497701 
L 401.553585 364.63916 
L 402.40495 372.880644 
L 403.39821 384.299958 
L 403.540104 383.674781 
L 404.959046 368.006889 
L 405.810411 361.091531 
L 406.377988 358.096797 
L 406.803671 356.828307 
L 407.087459 356.472862 
L 407.371248 356.516186 
L 407.655036 356.95764 
L 408.080719 358.351179 
L 408.506402 360.581143 
L 409.073979 364.730266 
L 409.925344 372.976088 
L 410.918604 384.392272 
L 411.060498 383.583383 
L 412.47944 367.926216 
L 413.330805 361.015082 
L 413.898382 358.020955 
L 414.324065 356.751558 
L 414.607853 356.394851 
L 414.891642 356.436409 
L 415.17543 356.875629 
L 415.601113 358.265062 
L 416.026796 360.490225 
L 416.594373 364.632382 
L 417.445738 372.868237 
L 418.438997 384.277088 
L 418.580892 383.698993 
L 419.999834 368.034286 
L 420.851199 361.10712 
L 421.418776 358.097669 
L 421.844459 356.81469 
L 422.128247 356.448107 
L 422.412036 356.479264 
L 422.695824 356.907685 
L 423.121507 358.280472 
L 423.54719 360.488897 
L 424.114767 364.609486 
L 424.966132 372.817062 
L 425.959391 384.203425 
L 426.101286 383.774694 
L 427.520228 368.112021 
L 428.371593 361.170419 
L 428.93917 358.145971 
L 429.364853 356.849654 
L 429.648641 356.473484 
L 429.93243 356.494705 
L 430.216218 356.913031 
L 430.641901 358.270809 
L 431.067584 360.464984 
L 431.635161 364.568911 
L 432.486526 372.759475 
L 433.479785 384.142864 
L 433.62168 383.833955 
L 435.040622 368.133373 
L 435.891987 361.149107 
L 436.459564 358.089973 
L 436.885247 356.765445 
L 437.169035 356.369841 
L 437.452824 356.371409 
L 437.736612 356.770112 
L 438.162295 358.099071 
L 438.587978 360.265933 
L 439.155555 364.33722 
L 440.00692 372.490548 
L 441.142074 384.123473 
L 442.561016 368.395186 
L 443.412381 361.367891 
L 443.979958 358.271603 
L 444.405641 356.916055 
L 444.689429 356.498763 
L 444.973218 356.478162 
L 445.257006 356.854508 
L 445.540795 357.622507 
L 445.966477 359.483835 
L 446.534054 363.191863 
L 447.243525 369.493978 
L 448.378679 382.079076 
L 448.662468 384.223463 
L 450.08141 368.480946 
L 450.932775 361.417915 
L 451.500352 358.289242 
L 451.926035 356.90631 
L 452.209823 356.469817 
L 452.493612 356.429612 
L 452.7774 356.786263 
L 453.061189 357.534786 
L 453.486871 359.367991 
L 454.054448 363.042139 
L 454.763919 369.310796 
L 455.899073 381.870873 
L 456.182862 384.431539 
L 457.601804 368.648543 
L 458.453169 361.532669 
L 459.020746 358.359999 
L 459.446429 356.941001 
L 459.730217 356.47958 
L 460.014006 356.41412 
L 460.297794 356.745519 
L 460.581583 357.469131 
L 461.007265 359.266331 
L 461.574842 362.896678 
L 462.284313 369.120579 
L 463.419467 381.640369 
L 463.703256 384.665188 
L 465.264092 367.495175 
L 465.973563 361.692866 
L 466.54114 358.480074 
L 466.966823 357.027856 
L 467.250611 356.543422 
L 467.5344 356.454663 
L 467.818188 356.762834 
L 468.101977 357.463647 
L 468.527659 359.228222 
L 469.095236 362.819775 
L 469.804707 369.006165 
L 470.939861 381.499897 
L 471.22365 384.804716 
L 472.784486 367.575385 
L 473.493957 361.719622 
L 474.061534 358.455626 
L 474.487217 356.961768 
L 474.771005 356.448704 
L 475.054794 356.331057 
L 475.338582 356.610469 
L 475.622371 357.283033 
L 476.048053 359.007024 
L 476.61563 362.549705 
L 477.325101 368.687112 
L 478.318361 379.479229 
L 478.744044 384.49311 
L 479.027832 381.809675 
L 480.30488 367.8889 
L 481.014351 361.981182 
L 481.581928 358.665731 
L 482.007611 357.129245 
L 482.291399 356.586531 
L 482.575188 356.438706 
L 482.858976 356.687806 
L 483.142765 357.330325 
L 483.568447 359.010609 
L 484.136024 362.499539 
L 484.845495 368.58088 
L 485.838755 379.322896 
L 486.264438 384.327153 
L 486.406332 383.653332 
L 487.825274 368.026829 
L 488.676639 361.110051 
L 489.244216 358.099908 
L 489.669899 356.812194 
L 489.953687 356.44052 
L 490.237476 356.46515 
L 490.521264 356.885747 
L 490.946947 358.244762 
L 491.37263 360.437631 
L 491.940207 364.536215 
L 492.791572 372.71283 
L 493.784832 384.075861 
L 493.926726 383.903817 
L 495.345668 368.22403 
L 496.197033 361.240807 
L 496.76461 358.176226 
L 497.190293 356.844331 
L 497.474081 356.442329 
L 497.75787 356.436402 
L 498.041658 356.82662 
L 498.467341 358.141286 
L 498.893024 360.292451 
L 499.460601 364.341694 
L 500.311966 372.462857 
L 501.44712 384.183803 
L 502.866062 368.465169 
L 503.717427 361.423377 
L 504.285004 358.309458 
L 504.710687 356.937198 
L 504.994475 356.507432 
L 505.278264 356.473542 
L 505.562052 356.836019 
L 505.845841 357.589823 
L 506.271523 359.429836 
L 506.8391 363.110874 
L 507.548571 369.38469 
L 508.683725 381.946394 
L 508.967514 384.356514 
L 510.386456 368.577761 
L 511.237821 361.463388 
L 511.805398 358.290452 
L 512.231081 356.870467 
L 512.514869 356.408016 
L 512.798658 356.34125 
L 513.082446 356.671097 
L 513.366235 357.392955 
L 513.791917 359.187265 
L 514.359494 362.813634 
L 515.068965 369.033263 
L 516.204119 381.551071 
L 516.487908 384.753513 
L 518.048744 367.563645 
L 518.758215 361.743415 
L 519.325792 358.512505 
L 519.751475 357.044808 
L 520.035263 356.549316 
L 520.319052 356.449032 
L 520.60284 356.745331 
L 520.886629 357.434052 
L 521.312311 359.180383 
L 521.879888 362.748177 
L 522.589359 368.90746 
L 523.582619 379.709189 
L 524.008302 384.719237 
L 526.420504 360.897463 
L 526.98808 357.968324 
L 527.413763 356.745784 
L 527.697552 356.418525 
L 527.98134 356.487615 
L 528.265128 356.9521 
L 528.690811 358.374541 
L 529.258388 361.549553 
L 529.967859 367.311181 
L 530.961119 377.790067 
L 531.528696 384.436691 
L 531.67059 383.543607 
L 533.089532 367.937241 
L 533.940898 361.047802 
L 534.508474 358.059653 
L 534.934157 356.789379 
L 535.217946 356.429429 
L 535.501734 356.465644 
L 535.785522 356.897509 
L 536.211205 358.272452 
L 536.636888 360.479608 
L 537.204465 364.593882 
L 538.05583 372.78509 
L 539.04909 384.149628 
L 539.190984 383.831239 
L 540.609926 368.181026 
L 541.461292 361.227997 
L 542.028868 358.18675 
L 542.454551 356.873238 
L 542.73834 356.483642 
L 543.022128 356.490071 
L 543.305916 356.892458 
L 543.731599 358.224735 
L 544.157282 360.392372 
L 544.724859 364.461175 
L 545.576224 372.605176 
L 546.711378 384.025136 
L 548.13032 368.308381 
L 548.981685 361.277113 
L 549.549262 358.172711 
L 549.974945 356.808332 
L 550.258734 356.383985 
L 550.542522 356.355526 
L 550.82631 356.723352 
L 551.110099 357.48233 
L 551.535782 359.329592 
L 552.103358 363.018949 
L 552.81283 369.300342 
L 553.947983 381.866447 
L 554.231772 384.43689 
L 555.650714 368.668181 
L 556.502079 361.564269 
L 557.069656 358.399025 
L 557.495339 356.984756 
L 557.779128 356.52595 
L 558.062916 356.46261 
L 558.346704 356.7956 
L 558.630493 357.520252 
L 559.056176 359.317975 
L 559.623752 362.94719 
L 560.333224 369.167249 
L 561.468377 381.678003 
L 561.752166 384.629794 
L 563.313002 367.466052 
L 564.022473 361.660931 
L 564.59005 358.442677 
L 565.015733 356.984476 
L 565.299521 356.495203 
L 565.58331 356.400981 
L 565.867098 356.703132 
L 566.150887 357.397447 
L 566.57657 359.151588 
L 567.144146 362.728524 
L 567.853618 368.896903 
L 568.846877 379.706736 
L 569.27256 384.71865 
L 571.684762 360.900747 
L 572.252339 357.973903 
L 572.678021 356.753056 
L 572.96181 356.426837 
L 573.245598 356.496855 
L 573.529387 356.962122 
L 573.955069 358.3854 
L 574.522646 361.560777 
L 575.232117 367.321472 
L 576.225377 377.796289 
L 576.792954 384.439205 
L 576.934848 383.542162 
L 578.35379 367.948969 
L 579.205156 361.06882 
L 579.772733 358.087049 
L 580.198415 356.821535 
L 580.482204 356.464713 
L 580.765992 356.504002 
L 581.049781 356.938874 
L 581.475463 358.318184 
L 581.901146 360.529514 
L 582.468723 364.64904 
L 583.320088 372.8475 
L 584.313348 384.219786 
L 584.455242 383.760012 
L 585.874184 368.099138 
L 586.72555 361.139401 
L 587.293127 358.093453 
L 587.718809 356.776294 
L 588.002598 356.384217 
L 588.286386 356.388136 
L 588.570175 356.787993 
L 588.995857 358.116467 
L 589.42154 360.28034 
L 589.989117 364.344293 
L 590.840482 372.481716 
L 591.975636 384.155136 
L 593.394578 368.441253 
L 594.245944 361.408321 
L 594.813521 358.301374 
L 595.239203 356.934378 
L 595.522992 356.507976 
L 595.80678 356.477237 
L 596.090569 356.842577 
L 596.374357 357.598889 
L 596.80004 359.441871 
L 597.367617 363.125148 
L 598.077088 369.398686 
L 599.212242 381.952752 
L 599.49603 384.353317 
L 600.914972 368.595568 
L 601.766338 361.49569 
L 602.333914 358.332074 
L 602.759597 356.918532 
L 603.043386 356.460006 
L 603.327174 356.39681 
L 603.610963 356.72983 
L 603.894751 357.454427 
L 604.320434 359.251969 
L 604.888011 362.88092 
L 605.597482 369.100956 
L 606.732635 381.613454 
L 607.016424 384.693413 
L 608.57726 367.520111 
L 609.286732 361.708106 
L 609.854308 358.483345 
L 610.279991 357.019791 
L 610.56378 356.526773 
L 610.847568 356.428702 
L 611.131357 356.726931 
L 611.415145 357.417286 
L 611.840828 359.165493 
L 612.408405 362.734716 
L 613.117876 368.894163 
L 614.111135 379.693662 
L 614.536818 384.702142 
L 615.388183 375.086483 
L 616.381443 365.18205 
L 617.090914 360.059838 
L 617.658491 357.493111 
L 618.084174 356.56153 
L 618.367962 356.432339 
L 618.65175 356.699565 
L 618.935539 357.359497 
L 619.361222 359.064154 
L 619.928799 362.581465 
L 620.63827 368.690253 
L 621.631529 379.453702 
L 622.057212 384.460939 
L 622.341 381.844085 
L 623.618048 367.910142 
L 624.469414 361.016358 
L 625.036991 358.024319 
L 625.462673 356.750728 
L 625.746462 356.388434 
L 626.03025 356.422244 
L 626.314039 356.85168 
L 626.739721 358.223038 
L 627.165404 360.426815 
L 627.732981 364.537189 
L 628.584346 372.724619 
L 629.577606 384.089237 
L 629.7195 383.891148 
L 631.138442 368.228995 
L 631.989808 361.262798 
L 632.557385 358.210693 
L 632.983067 356.888208 
L 633.266856 356.49234 
L 633.266856 356.49234 
" clip-path="url(#p05df307016)" style="fill: none; stroke: #ff7f0e; stroke-width: 1.5; stroke-linecap: square"/>
   </g>
   <g id="line2d_35">
    <path d="M 52.21 58.129603 
L 633.40875 58.129603 
" clip-path="url(#p05df307016)" style="fill: none; stroke: #1f77b4; stroke-linecap: square"/>
   </g>
   <g id="line2d_36">
    <path d="M 52.21 114.947063 
L 633.40875 114.947063 
" clip-path="url(#p05df307016)" style="fill: none; stroke: #1f77b4; stroke-linecap: square"/>
   </g>
   <g id="line2d_37">
    <path d="M 52.21 356.42127 
L 633.40875 356.42127 
" clip-path="url(#p05df307016)" style="fill: none; stroke: #1f77b4; stroke-linecap: square"/>
   </g>
   <g id="patch_3">
    <path d="M 52.21 384.83 
L 52.21 26.88 
" style="fill: none; stroke: #000000; stroke-width: 0.8; stroke-linejoin: miter; stroke-linecap: square"/>
   </g>
   <g id="patch_4">
    <path d="M 633.40875 384.83 
L 633.40875 26.88 
" style="fill: none; stroke: #000000; stroke-width: 0.8; stroke-linejoin: miter; stroke-linecap: square"/>
   </g>
   <g id="patch_5">
    <path d="M 52.21 384.83 
L 633.40875 384.83 
" style="fill: none; stroke: #000000; stroke-width: 0.8; stroke-linejoin: miter; stroke-linecap: square"/>
   </g>
   <g id="patch_6">
    <path d="M 52.21 26.88 
L 633.40875 26.88 
" style="fill: none; stroke: #000000; stroke-width: 0.8; stroke-linejoin: miter; stroke-linecap: square"/>
   </g>
   <g id="text_19">
    <!-- $1+\delta_p$ -->
    <g transform="translate(63.833975 51.736687) scale(0.11 -0.11)">
     <defs>
      <path id="DejaVuSans-2b" d="M 2944 4013 
L 2944 2272 
L 4684 2272 
L 4684 1741 
L 2944 1741 
L 2944 0 
L 2419 0 
L 2419 1741 
L 678 1741 
L 678 2272 
L 2419 2272 
L 2419 4013 
L 2944 4013 
z
" transform="scale(0.015625)"/>
      <path id="DejaVuSans-Oblique-3b4" d="M 3472 4053 
Q 3197 4272 2450 4272 
Q 1659 4272 1588 3906 
Q 1531 3619 2328 3469 
Q 2953 3353 3253 3003 
Q 3616 2581 3447 1716 
Q 3284 888 2763 400 
Q 2238 -91 1488 -91 
Q 741 -91 406 400 
Q 72 888 241 1747 
Q 363 2384 891 2900 
Q 1097 3100 1353 3213 
Q 913 3459 1000 3900 
Q 1166 4750 2544 4750 
Q 3234 4750 3566 4531 
L 3472 4053 
z
M 1753 3056 
Q 1525 2966 1306 2738 
Q 969 2384 847 1747 
Q 722 1113 919 756 
Q 1119 397 1584 397 
Q 2044 397 2381 759 
Q 2722 1122 2838 1716 
Q 2956 2338 2731 2638 
Q 2491 2959 2103 2994 
Q 1906 3013 1753 3056 
z
" transform="scale(0.015625)"/>
      <path id="DejaVuSans-Oblique-70" d="M 3175 2156 
Q 3175 2616 2975 2859 
Q 2775 3103 2400 3103 
Q 2144 3103 1911 2972 
Q 1678 2841 1497 2591 
Q 1319 2344 1212 1994 
Q 1106 1644 1106 1300 
Q 1106 863 1306 627 
Q 1506 391 1875 391 
Q 2147 391 2380 519 
Q 2613 647 2778 891 
Q 2956 1147 3065 1494 
Q 3175 1841 3175 2156 
z
M 1394 2969 
Q 1625 3272 1939 3428 
Q 2253 3584 2638 3584 
Q 3175 3584 3472 3232 
Q 3769 2881 3769 2247 
Q 3769 1728 3584 1258 
Q 3400 788 3053 416 
Q 2822 169 2531 39 
Q 2241 -91 1919 -91 
Q 1547 -91 1294 64 
Q 1041 219 916 525 
L 556 -1331 
L -19 -1331 
L 922 3500 
L 1497 3500 
L 1394 2969 
z
" transform="scale(0.015625)"/>
     </defs>
     <use xlink:href="#DejaVuSans-31" transform="translate(0 0.78125)"/>
     <use xlink:href="#DejaVuSans-2b" transform="translate(83.105469 0.78125)"/>
     <use xlink:href="#DejaVuSans-Oblique-3b4" transform="translate(186.376953 0.78125)"/>
     <use xlink:href="#DejaVuSans-Oblique-70" transform="translate(247.558594 -15.625) scale(0.7)"/>
    </g>
   </g>
   <g id="text_20">
    <!-- $1-\delta_p$ -->
    <g transform="translate(63.833975 135.12873) scale(0.11 -0.11)">
     <defs>
      <path id="DejaVuSans-2212" d="M 678 2272 
L 4684 2272 
L 4684 1741 
L 678 1741 
L 678 2272 
z
" transform="scale(0.015625)"/>
     </defs>
     <use xlink:href="#DejaVuSans-31" transform="translate(0 0.78125)"/>
     <use xlink:href="#DejaVuSans-2212" transform="translate(83.105469 0.78125)"/>
     <use xlink:href="#DejaVuSans-Oblique-3b4" transform="translate(186.376953 0.78125)"/>
     <use xlink:href="#DejaVuSans-Oblique-70" transform="translate(247.558594 -15.625) scale(0.7)"/>
    </g>
   </g>
   <g id="text_21">
    <!-- $\delta_s$ -->
    <g transform="translate(63.833975 348.16778) scale(0.11 -0.11)">
     <defs>
      <path id="DejaVuSans-Oblique-73" d="M 3200 3397 
L 3091 2853 
Q 2863 2978 2609 3040 
Q 2356 3103 2088 3103 
Q 1634 3103 1373 2948 
Q 1113 2794 1113 2528 
Q 1113 2219 1719 2053 
Q 1766 2041 1788 2034 
L 1972 1978 
Q 2547 1819 2739 1644 
Q 2931 1469 2931 1166 
Q 2931 609 2489 259 
Q 2047 -91 1331 -91 
Q 1053 -91 747 -37 
Q 441 16 72 128 
L 184 722 
Q 500 559 806 475 
Q 1113 391 1394 391 
Q 1816 391 2080 572 
Q 2344 753 2344 1031 
Q 2344 1331 1650 1516 
L 1591 1531 
L 1394 1581 
Q 956 1697 753 1886 
Q 550 2075 550 2369 
Q 550 2928 970 3256 
Q 1391 3584 2113 3584 
Q 2397 3584 2667 3537 
Q 2938 3491 3200 3397 
z
" transform="scale(0.015625)"/>
     </defs>
     <use xlink:href="#DejaVuSans-Oblique-3b4" transform="translate(0 0.78125)"/>
     <use xlink:href="#DejaVuSans-Oblique-73" transform="translate(61.181641 -15.625) scale(0.7)"/>
    </g>
   </g>
   <g id="text_22">
    <g id="patch_7">
     <path d="M 230.789375 245.427146 
L 454.829375 245.427146 
Q 459.629375 245.427146 459.629375 240.627146 
L 459.629375 200.912021 
Q 459.629375 196.112021 454.829375 196.112021 
L 230.789375 196.112021 
Q 225.989375 196.112021 225.989375 200.912021 
L 225.989375 240.627146 
Q 225.989375 245.427146 230.789375 245.427146 
z
" style="fill: #ffffff; opacity: 0.7; stroke: #808080; stroke-linejoin: miter"/>
    </g>
    <!-- Remez Exchange ensures maximum -->
    <g transform="translate(233.690937 210.030146) scale(0.12 -0.12)">
     <defs>
      <path id="DejaVuSans-45" d="M 628 4666 
L 3578 4666 
L 3578 4134 
L 1259 4134 
L 1259 2753 
L 3481 2753 
L 3481 2222 
L 1259 2222 
L 1259 531 
L 3634 531 
L 3634 0 
L 628 0 
L 628 4666 
z
" transform="scale(0.015625)"/>
      <path id="DejaVuSans-78" d="M 3513 3500 
L 2247 1797 
L 3578 0 
L 2900 0 
L 1881 1375 
L 863 0 
L 184 0 
L 1544 1831 
L 300 3500 
L 978 3500 
L 1906 2253 
L 2834 3500 
L 3513 3500 
z
" transform="scale(0.015625)"/>
      <path id="DejaVuSans-68" d="M 3513 2113 
L 3513 0 
L 2938 0 
L 2938 2094 
Q 2938 2591 2744 2837 
Q 2550 3084 2163 3084 
Q 1697 3084 1428 2787 
Q 1159 2491 1159 1978 
L 1159 0 
L 581 0 
L 581 4863 
L 1159 4863 
L 1159 2956 
Q 1366 3272 1645 3428 
Q 1925 3584 2291 3584 
Q 2894 3584 3203 3211 
Q 3513 2838 3513 2113 
z
" transform="scale(0.015625)"/>
     </defs>
     <use xlink:href="#DejaVuSans-52"/>
     <use xlink:href="#DejaVuSans-65" transform="translate(64.982422 0)"/>
     <use xlink:href="#DejaVuSans-6d" transform="translate(126.505859 0)"/>
     <use xlink:href="#DejaVuSans-65" transform="translate(223.917969 0)"/>
     <use xlink:href="#DejaVuSans-7a" transform="translate(285.441406 0)"/>
     <use xlink:href="#DejaVuSans-20" transform="translate(337.931641 0)"/>
     <use xlink:href="#DejaVuSans-45" transform="translate(369.71875 0)"/>
     <use xlink:href="#DejaVuSans-78" transform="translate(432.902344 0)"/>
     <use xlink:href="#DejaVuSans-63" transform="translate(490.332031 0)"/>
     <use xlink:href="#DejaVuSans-68" transform="translate(545.3125 0)"/>
     <use xlink:href="#DejaVuSans-61" transform="translate(608.691406 0)"/>
     <use xlink:href="#DejaVuSans-6e" transform="translate(669.970703 0)"/>
     <use xlink:href="#DejaVuSans-67" transform="translate(733.349609 0)"/>
     <use xlink:href="#DejaVuSans-65" transform="translate(796.826172 0)"/>
     <use xlink:href="#DejaVuSans-20" transform="translate(858.349609 0)"/>
     <use xlink:href="#DejaVuSans-65" transform="translate(890.136719 0)"/>
     <use xlink:href="#DejaVuSans-6e" transform="translate(951.660156 0)"/>
     <use xlink:href="#DejaVuSans-73" transform="translate(1015.039062 0)"/>
     <use xlink:href="#DejaVuSans-75" transform="translate(1067.138672 0)"/>
     <use xlink:href="#DejaVuSans-72" transform="translate(1130.517578 0)"/>
     <use xlink:href="#DejaVuSans-65" transform="translate(1169.380859 0)"/>
     <use xlink:href="#DejaVuSans-73" transform="translate(1230.904297 0)"/>
     <use xlink:href="#DejaVuSans-20" transform="translate(1283.003906 0)"/>
     <use xlink:href="#DejaVuSans-6d" transform="translate(1314.791016 0)"/>
     <use xlink:href="#DejaVuSans-61" transform="translate(1412.203125 0)"/>
     <use xlink:href="#DejaVuSans-78" transform="translate(1473.482422 0)"/>
     <use xlink:href="#DejaVuSans-69" transform="translate(1532.662109 0)"/>
     <use xlink:href="#DejaVuSans-6d" transform="translate(1560.445312 0)"/>
     <use xlink:href="#DejaVuSans-75" transform="translate(1657.857422 0)"/>
     <use xlink:href="#DejaVuSans-6d" transform="translate(1721.236328 0)"/>
    </g>
    <!-- utilization of ripple margins $\delta_s$ and $\delta_p$ -->
    <g transform="translate(230.789375 223.469771) scale(0.12 -0.12)">
     <defs>
      <path id="DejaVuSans-66" d="M 2375 4863 
L 2375 4384 
L 1825 4384 
Q 1516 4384 1395 4259 
Q 1275 4134 1275 3809 
L 1275 3500 
L 2222 3500 
L 2222 3053 
L 1275 3053 
L 1275 0 
L 697 0 
L 697 3053 
L 147 3053 
L 147 3500 
L 697 3500 
L 697 3744 
Q 697 4328 969 4595 
Q 1241 4863 1831 4863 
L 2375 4863 
z
" transform="scale(0.015625)"/>
     </defs>
     <use xlink:href="#DejaVuSans-75" transform="translate(0 0.015625)"/>
     <use xlink:href="#DejaVuSans-74" transform="translate(63.378906 0.015625)"/>
     <use xlink:href="#DejaVuSans-69" transform="translate(102.587891 0.015625)"/>
     <use xlink:href="#DejaVuSans-6c" transform="translate(130.371094 0.015625)"/>
     <use xlink:href="#DejaVuSans-69" transform="translate(158.154297 0.015625)"/>
     <use xlink:href="#DejaVuSans-7a" transform="translate(185.9375 0.015625)"/>
     <use xlink:href="#DejaVuSans-61" transform="translate(238.427734 0.015625)"/>
     <use xlink:href="#DejaVuSans-74" transform="translate(299.707031 0.015625)"/>
     <use xlink:href="#DejaVuSans-69" transform="translate(338.916016 0.015625)"/>
     <use xlink:href="#DejaVuSans-6f" transform="translate(366.699219 0.015625)"/>
     <use xlink:href="#DejaVuSans-6e" transform="translate(427.880859 0.015625)"/>
     <use xlink:href="#DejaVuSans-20" transform="translate(491.259766 0.015625)"/>
     <use xlink:href="#DejaVuSans-6f" transform="translate(523.046875 0.015625)"/>
     <use xlink:href="#DejaVuSans-66" transform="translate(584.228516 0.015625)"/>
     <use xlink:href="#DejaVuSans-20" transform="translate(619.433594 0.015625)"/>
     <use xlink:href="#DejaVuSans-72" transform="translate(651.220703 0.015625)"/>
     <use xlink:href="#DejaVuSans-69" transform="translate(692.333984 0.015625)"/>
     <use xlink:href="#DejaVuSans-70" transform="translate(720.117188 0.015625)"/>
     <use xlink:href="#DejaVuSans-70" transform="translate(783.59375 0.015625)"/>
     <use xlink:href="#DejaVuSans-6c" transform="translate(847.070312 0.015625)"/>
     <use xlink:href="#DejaVuSans-65" transform="translate(874.853516 0.015625)"/>
     <use xlink:href="#DejaVuSans-20" transform="translate(936.376953 0.015625)"/>
     <use xlink:href="#DejaVuSans-6d" transform="translate(968.164062 0.015625)"/>
     <use xlink:href="#DejaVuSans-61" transform="translate(1065.576172 0.015625)"/>
     <use xlink:href="#DejaVuSans-72" transform="translate(1126.855469 0.015625)"/>
     <use xlink:href="#DejaVuSans-67" transform="translate(1167.96875 0.015625)"/>
     <use xlink:href="#DejaVuSans-69" transform="translate(1231.445312 0.015625)"/>
     <use xlink:href="#DejaVuSans-6e" transform="translate(1259.228516 0.015625)"/>
     <use xlink:href="#DejaVuSans-73" transform="translate(1322.607422 0.015625)"/>
     <use xlink:href="#DejaVuSans-20" transform="translate(1374.707031 0.015625)"/>
     <use xlink:href="#DejaVuSans-Oblique-3b4" transform="translate(1406.494141 0.015625)"/>
     <use xlink:href="#DejaVuSans-Oblique-73" transform="translate(1467.675781 -16.390625) scale(0.7)"/>
     <use xlink:href="#DejaVuSans-20" transform="translate(1506.879883 0.015625)"/>
     <use xlink:href="#DejaVuSans-61" transform="translate(1538.666992 0.015625)"/>
     <use xlink:href="#DejaVuSans-6e" transform="translate(1599.946289 0.015625)"/>
     <use xlink:href="#DejaVuSans-64" transform="translate(1663.325195 0.015625)"/>
     <use xlink:href="#DejaVuSans-20" transform="translate(1726.801758 0.015625)"/>
     <use xlink:href="#DejaVuSans-Oblique-3b4" transform="translate(1758.588867 0.015625)"/>
     <use xlink:href="#DejaVuSans-Oblique-70" transform="translate(1819.770508 -16.390625) scale(0.7)"/>
    </g>
    <!-- across both passband and stopband. -->
    <g transform="translate(232.23125 238.131521) scale(0.12 -0.12)">
     <defs>
      <path id="DejaVuSans-62" d="M 3116 1747 
Q 3116 2381 2855 2742 
Q 2594 3103 2138 3103 
Q 1681 3103 1420 2742 
Q 1159 2381 1159 1747 
Q 1159 1113 1420 752 
Q 1681 391 2138 391 
Q 2594 391 2855 752 
Q 3116 1113 3116 1747 
z
M 1159 2969 
Q 1341 3281 1617 3432 
Q 1894 3584 2278 3584 
Q 2916 3584 3314 3078 
Q 3713 2572 3713 1747 
Q 3713 922 3314 415 
Q 2916 -91 2278 -91 
Q 1894 -91 1617 61 
Q 1341 213 1159 525 
L 1159 0 
L 581 0 
L 581 4863 
L 1159 4863 
L 1159 2969 
z
" transform="scale(0.015625)"/>
     </defs>
     <use xlink:href="#DejaVuSans-61"/>
     <use xlink:href="#DejaVuSans-63" transform="translate(61.279297 0)"/>
     <use xlink:href="#DejaVuSans-72" transform="translate(116.259766 0)"/>
     <use xlink:href="#DejaVuSans-6f" transform="translate(155.123047 0)"/>
     <use xlink:href="#DejaVuSans-73" transform="translate(216.304688 0)"/>
     <use xlink:href="#DejaVuSans-73" transform="translate(268.404297 0)"/>
     <use xlink:href="#DejaVuSans-20" transform="translate(320.503906 0)"/>
     <use xlink:href="#DejaVuSans-62" transform="translate(352.291016 0)"/>
     <use xlink:href="#DejaVuSans-6f" transform="translate(415.767578 0)"/>
     <use xlink:href="#DejaVuSans-74" transform="translate(476.949219 0)"/>
     <use xlink:href="#DejaVuSans-68" transform="translate(516.158203 0)"/>
     <use xlink:href="#DejaVuSans-20" transform="translate(579.537109 0)"/>
     <use xlink:href="#DejaVuSans-70" transform="translate(611.324219 0)"/>
     <use xlink:href="#DejaVuSans-61" transform="translate(674.800781 0)"/>
     <use xlink:href="#DejaVuSans-73" transform="translate(736.080078 0)"/>
     <use xlink:href="#DejaVuSans-73" transform="translate(788.179688 0)"/>
     <use xlink:href="#DejaVuSans-62" transform="translate(840.279297 0)"/>
     <use xlink:href="#DejaVuSans-61" transform="translate(903.755859 0)"/>
     <use xlink:href="#DejaVuSans-6e" transform="translate(965.035156 0)"/>
     <use xlink:href="#DejaVuSans-64" transform="translate(1028.414062 0)"/>
     <use xlink:href="#DejaVuSans-20" transform="translate(1091.890625 0)"/>
     <use xlink:href="#DejaVuSans-61" transform="translate(1123.677734 0)"/>
     <use xlink:href="#DejaVuSans-6e" transform="translate(1184.957031 0)"/>
     <use xlink:href="#DejaVuSans-64" transform="translate(1248.335938 0)"/>
     <use xlink:href="#DejaVuSans-20" transform="translate(1311.8125 0)"/>
     <use xlink:href="#DejaVuSans-73" transform="translate(1343.599609 0)"/>
     <use xlink:href="#DejaVuSans-74" transform="translate(1395.699219 0)"/>
     <use xlink:href="#DejaVuSans-6f" transform="translate(1434.908203 0)"/>
     <use xlink:href="#DejaVuSans-70" transform="translate(1496.089844 0)"/>
     <use xlink:href="#DejaVuSans-62" transform="translate(1559.566406 0)"/>
     <use xlink:href="#DejaVuSans-61" transform="translate(1623.042969 0)"/>
     <use xlink:href="#DejaVuSans-6e" transform="translate(1684.322266 0)"/>
     <use xlink:href="#DejaVuSans-64" transform="translate(1747.701172 0)"/>
     <use xlink:href="#DejaVuSans-2e" transform="translate(1811.177734 0)"/>
    </g>
   </g>
   <g id="text_23">
    <!-- Windowed vs. Optimal FIR Filter -->
    <g transform="translate(247.453437 20.88) scale(0.12 -0.12)">
     <defs>
      <path id="DejaVuSans-57" d="M 213 4666 
L 850 4666 
L 1831 722 
L 2809 4666 
L 3519 4666 
L 4500 722 
L 5478 4666 
L 6119 4666 
L 4947 0 
L 4153 0 
L 3169 4050 
L 2175 0 
L 1381 0 
L 213 4666 
z
" transform="scale(0.015625)"/>
      <path id="DejaVuSans-77" d="M 269 3500 
L 844 3500 
L 1563 769 
L 2278 3500 
L 2956 3500 
L 3675 769 
L 4391 3500 
L 4966 3500 
L 4050 0 
L 3372 0 
L 2619 2869 
L 1863 0 
L 1184 0 
L 269 3500 
z
" transform="scale(0.015625)"/>
      <path id="DejaVuSans-76" d="M 191 3500 
L 800 3500 
L 1894 563 
L 2988 3500 
L 3597 3500 
L 2284 0 
L 1503 0 
L 191 3500 
z
" transform="scale(0.015625)"/>
      <path id="DejaVuSans-4f" d="M 2522 4238 
Q 1834 4238 1429 3725 
Q 1025 3213 1025 2328 
Q 1025 1447 1429 934 
Q 1834 422 2522 422 
Q 3209 422 3611 934 
Q 4013 1447 4013 2328 
Q 4013 3213 3611 3725 
Q 3209 4238 2522 4238 
z
M 2522 4750 
Q 3503 4750 4090 4092 
Q 4678 3434 4678 2328 
Q 4678 1225 4090 567 
Q 3503 -91 2522 -91 
Q 1538 -91 948 565 
Q 359 1222 359 2328 
Q 359 3434 948 4092 
Q 1538 4750 2522 4750 
z
" transform="scale(0.015625)"/>
      <path id="DejaVuSans-49" d="M 628 4666 
L 1259 4666 
L 1259 0 
L 628 0 
L 628 4666 
z
" transform="scale(0.015625)"/>
     </defs>
     <use xlink:href="#DejaVuSans-57"/>
     <use xlink:href="#DejaVuSans-69" transform="translate(96.626953 0)"/>
     <use xlink:href="#DejaVuSans-6e" transform="translate(124.410156 0)"/>
     <use xlink:href="#DejaVuSans-64" transform="translate(187.789062 0)"/>
     <use xlink:href="#DejaVuSans-6f" transform="translate(251.265625 0)"/>
     <use xlink:href="#DejaVuSans-77" transform="translate(312.447266 0)"/>
     <use xlink:href="#DejaVuSans-65" transform="translate(394.234375 0)"/>
     <use xlink:href="#DejaVuSans-64" transform="translate(455.757812 0)"/>
     <use xlink:href="#DejaVuSans-20" transform="translate(519.234375 0)"/>
     <use xlink:href="#DejaVuSans-76" transform="translate(551.021484 0)"/>
     <use xlink:href="#DejaVuSans-73" transform="translate(610.201172 0)"/>
     <use xlink:href="#DejaVuSans-2e" transform="translate(662.300781 0)"/>
     <use xlink:href="#DejaVuSans-20" transform="translate(694.087891 0)"/>
     <use xlink:href="#DejaVuSans-4f" transform="translate(725.875 0)"/>
     <use xlink:href="#DejaVuSans-70" transform="translate(804.585938 0)"/>
     <use xlink:href="#DejaVuSans-74" transform="translate(868.0625 0)"/>
     <use xlink:href="#DejaVuSans-69" transform="translate(907.271484 0)"/>
     <use xlink:href="#DejaVuSans-6d" transform="translate(935.054688 0)"/>
     <use xlink:href="#DejaVuSans-61" transform="translate(1032.466797 0)"/>
     <use xlink:href="#DejaVuSans-6c" transform="translate(1093.746094 0)"/>
     <use xlink:href="#DejaVuSans-20" transform="translate(1121.529297 0)"/>
     <use xlink:href="#DejaVuSans-46" transform="translate(1153.316406 0)"/>
     <use xlink:href="#DejaVuSans-49" transform="translate(1210.835938 0)"/>
     <use xlink:href="#DejaVuSans-52" transform="translate(1240.328125 0)"/>
     <use xlink:href="#DejaVuSans-20" transform="translate(1309.810547 0)"/>
     <use xlink:href="#DejaVuSans-46" transform="translate(1341.597656 0)"/>
     <use xlink:href="#DejaVuSans-69" transform="translate(1391.867188 0)"/>
     <use xlink:href="#DejaVuSans-6c" transform="translate(1419.650391 0)"/>
     <use xlink:href="#DejaVuSans-74" transform="translate(1447.433594 0)"/>
     <use xlink:href="#DejaVuSans-65" transform="translate(1486.642578 0)"/>
     <use xlink:href="#DejaVuSans-72" transform="translate(1548.166016 0)"/>
    </g>
   </g>
   <g id="legend_1">
    <g id="patch_8">
     <path d="M 551.957187 64.23625 
L 626.40875 64.23625 
Q 628.40875 64.23625 628.40875 62.23625 
L 628.40875 33.88 
Q 628.40875 31.88 626.40875 31.88 
L 551.957187 31.88 
Q 549.957187 31.88 549.957187 33.88 
L 549.957187 62.23625 
Q 549.957187 64.23625 551.957187 64.23625 
z
" style="fill: #ffffff; opacity: 0.8; stroke: #cccccc; stroke-linejoin: miter"/>
    </g>
    <g id="line2d_38">
     <path d="M 553.957187 39.978437 
L 563.957187 39.978437 
L 573.957187 39.978437 
" style="fill: none; stroke: #1f77b4; stroke-width: 1.5; stroke-linecap: square"/>
    </g>
    <g id="text_24">
     <!-- M = 201 -->
     <g transform="translate(581.957187 43.478437) scale(0.1 -0.1)">
      <defs>
       <path id="DejaVuSans-3d" d="M 678 2906 
L 4684 2906 
L 4684 2381 
L 678 2381 
L 678 2906 
z
M 678 1631 
L 4684 1631 
L 4684 1100 
L 678 1100 
L 678 1631 
z
" transform="scale(0.015625)"/>
      </defs>
      <use xlink:href="#DejaVuSans-4d"/>
      <use xlink:href="#DejaVuSans-20" transform="translate(86.279297 0)"/>
      <use xlink:href="#DejaVuSans-3d" transform="translate(118.066406 0)"/>
      <use xlink:href="#DejaVuSans-20" transform="translate(201.855469 0)"/>
      <use xlink:href="#DejaVuSans-32" transform="translate(233.642578 0)"/>
      <use xlink:href="#DejaVuSans-30" transform="translate(297.265625 0)"/>
      <use xlink:href="#DejaVuSans-31" transform="translate(360.888672 0)"/>
     </g>
    </g>
    <g id="line2d_39">
     <path d="M 553.957187 54.656563 
L 563.957187 54.656563 
L 573.957187 54.656563 
" style="fill: none; stroke: #ff7f0e; stroke-width: 1.5; stroke-linecap: square"/>
    </g>
    <g id="text_25">
     <!-- M = 157 -->
     <g transform="translate(581.957187 58.156563) scale(0.1 -0.1)">
      <use xlink:href="#DejaVuSans-4d"/>
      <use xlink:href="#DejaVuSans-20" transform="translate(86.279297 0)"/>
      <use xlink:href="#DejaVuSans-3d" transform="translate(118.066406 0)"/>
      <use xlink:href="#DejaVuSans-20" transform="translate(201.855469 0)"/>
      <use xlink:href="#DejaVuSans-31" transform="translate(233.642578 0)"/>
      <use xlink:href="#DejaVuSans-35" transform="translate(297.265625 0)"/>
      <use xlink:href="#DejaVuSans-37" transform="translate(360.888672 0)"/>
     </g>
    </g>
   </g>
  </g>
 </g>
 <defs>
  <clipPath id="p05df307016">
   <rect x="52.21" y="26.88" width="581.19875" height="357.95"/>
  </clipPath>
 </defs>
</svg>
