<?xml version="1.0" encoding="utf-8" standalone="no"?>
<!DOCTYPE svg PUBLIC "-//W3C//DTD SVG 1.1//EN"
  "http://www.w3.org/Graphics/SVG/1.1/DTD/svg11.dtd">
<svg xmlns:xlink="http://www.w3.org/1999/xlink" width="504pt" height="288pt" viewBox="0 0 504 288" xmlns="http://www.w3.org/2000/svg" version="1.1">
 <metadata>
  <rdf:RDF xmlns:dc="http://purl.org/dc/elements/1.1/" xmlns:cc="http://creativecommons.org/ns#" xmlns:rdf="http://www.w3.org/1999/02/22-rdf-syntax-ns#">
   <cc:Work>
    <dc:type rdf:resource="http://purl.org/dc/dcmitype/StillImage"/>
    <dc:date>2025-10-22T15:58:12.247169</dc:date>
    <dc:format>image/svg+xml</dc:format>
    <dc:creator>
     <cc:Agent>
      <dc:title>Matplotlib v3.10.5, https://matplotlib.org/</dc:title>
     </cc:Agent>
    </dc:creator>
   </cc:Work>
  </rdf:RDF>
 </metadata>
 <defs>
  <style type="text/css">*{stroke-linejoin: round; stroke-linecap: butt}</style>
 </defs>
 <g id="figure_1">
  <g id="patch_1">
   <path d="M 0 288 
L 504 288 
L 504 0 
L 0 0 
z
" style="fill: #ffffff"/>
  </g>
  <g id="axes_1">
   <g id="patch_2">
    <path d="M 59.24 246.04 
L 493.2 246.04 
L 493.2 26.88 
L 59.24 26.88 
z
" style="fill: #ffffff"/>
   </g>
   <g id="matplotlib.axis_1">
    <g id="xtick_1">
     <g id="line2d_1">
      <path d="M 59.24 246.04 
L 59.24 26.88 
" clip-path="url(#p262b467df1)" style="fill: none; stroke: #b0b0b0; stroke-width: 0.8; stroke-linecap: square"/>
     </g>
     <g id="line2d_2">
      <defs>
       <path id="m414f9455ff" d="M 0 0 
L 0 3.5 
" style="stroke: #000000; stroke-width: 0.8"/>
      </defs>
      <g>
       <use xlink:href="#m414f9455ff" x="59.24" y="246.04" style="stroke: #000000; stroke-width: 0.8"/>
      </g>
     </g>
     <g id="text_1">
      <!-- 0.0 -->
      <g transform="translate(51.288438 260.638438) scale(0.1 -0.1)">
       <defs>
        <path id="DejaVuSans-30" d="M 2034 4250 
Q 1547 4250 1301 3770 
Q 1056 3291 1056 2328 
Q 1056 1369 1301 889 
Q 1547 409 2034 409 
Q 2525 409 2770 889 
Q 3016 1369 3016 2328 
Q 3016 3291 2770 3770 
Q 2525 4250 2034 4250 
z
M 2034 4750 
Q 2819 4750 3233 4129 
Q 3647 3509 3647 2328 
Q 3647 1150 3233 529 
Q 2819 -91 2034 -91 
Q 1250 -91 836 529 
Q 422 1150 422 2328 
Q 422 3509 836 4129 
Q 1250 4750 2034 4750 
z
" transform="scale(0.015625)"/>
        <path id="DejaVuSans-2e" d="M 684 794 
L 1344 794 
L 1344 0 
L 684 0 
L 684 794 
z
" transform="scale(0.015625)"/>
       </defs>
       <use xlink:href="#DejaVuSans-30"/>
       <use xlink:href="#DejaVuSans-2e" transform="translate(63.623047 0)"/>
       <use xlink:href="#DejaVuSans-30" transform="translate(95.410156 0)"/>
      </g>
     </g>
    </g>
    <g id="xtick_2">
     <g id="line2d_3">
      <path d="M 146.201847 246.04 
L 146.201847 26.88 
" clip-path="url(#p262b467df1)" style="fill: none; stroke: #b0b0b0; stroke-width: 0.8; stroke-linecap: square"/>
     </g>
     <g id="line2d_4">
      <g>
       <use xlink:href="#m414f9455ff" x="146.201847" y="246.04" style="stroke: #000000; stroke-width: 0.8"/>
      </g>
     </g>
     <g id="text_2">
      <!-- 0.2 -->
      <g transform="translate(138.250285 260.638438) scale(0.1 -0.1)">
       <defs>
        <path id="DejaVuSans-32" d="M 1228 531 
L 3431 531 
L 3431 0 
L 469 0 
L 469 531 
Q 828 903 1448 1529 
Q 2069 2156 2228 2338 
Q 2531 2678 2651 2914 
Q 2772 3150 2772 3378 
Q 2772 3750 2511 3984 
Q 2250 4219 1831 4219 
Q 1534 4219 1204 4116 
Q 875 4013 500 3803 
L 500 4441 
Q 881 4594 1212 4672 
Q 1544 4750 1819 4750 
Q 2544 4750 2975 4387 
Q 3406 4025 3406 3419 
Q 3406 3131 3298 2873 
Q 3191 2616 2906 2266 
Q 2828 2175 2409 1742 
Q 1991 1309 1228 531 
z
" transform="scale(0.015625)"/>
       </defs>
       <use xlink:href="#DejaVuSans-30"/>
       <use xlink:href="#DejaVuSans-2e" transform="translate(63.623047 0)"/>
       <use xlink:href="#DejaVuSans-32" transform="translate(95.410156 0)"/>
      </g>
     </g>
    </g>
    <g id="xtick_3">
     <g id="line2d_5">
      <path d="M 233.163695 246.04 
L 233.163695 26.88 
" clip-path="url(#p262b467df1)" style="fill: none; stroke: #b0b0b0; stroke-width: 0.8; stroke-linecap: square"/>
     </g>
     <g id="line2d_6">
      <g>
       <use xlink:href="#m414f9455ff" x="233.163695" y="246.04" style="stroke: #000000; stroke-width: 0.8"/>
      </g>
     </g>
     <g id="text_3">
      <!-- 0.4 -->
      <g transform="translate(225.212132 260.638438) scale(0.1 -0.1)">
       <defs>
        <path id="DejaVuSans-34" d="M 2419 4116 
L 825 1625 
L 2419 1625 
L 2419 4116 
z
M 2253 4666 
L 3047 4666 
L 3047 1625 
L 3713 1625 
L 3713 1100 
L 3047 1100 
L 3047 0 
L 2419 0 
L 2419 1100 
L 313 1100 
L 313 1709 
L 2253 4666 
z
" transform="scale(0.015625)"/>
       </defs>
       <use xlink:href="#DejaVuSans-30"/>
       <use xlink:href="#DejaVuSans-2e" transform="translate(63.623047 0)"/>
       <use xlink:href="#DejaVuSans-34" transform="translate(95.410156 0)"/>
      </g>
     </g>
    </g>
    <g id="xtick_4">
     <g id="line2d_7">
      <path d="M 320.125542 246.04 
L 320.125542 26.88 
" clip-path="url(#p262b467df1)" style="fill: none; stroke: #b0b0b0; stroke-width: 0.8; stroke-linecap: square"/>
     </g>
     <g id="line2d_8">
      <g>
       <use xlink:href="#m414f9455ff" x="320.125542" y="246.04" style="stroke: #000000; stroke-width: 0.8"/>
      </g>
     </g>
     <g id="text_4">
      <!-- 0.6 -->
      <g transform="translate(312.17398 260.638438) scale(0.1 -0.1)">
       <defs>
        <path id="DejaVuSans-36" d="M 2113 2584 
Q 1688 2584 1439 2293 
Q 1191 2003 1191 1497 
Q 1191 994 1439 701 
Q 1688 409 2113 409 
Q 2538 409 2786 701 
Q 3034 994 3034 1497 
Q 3034 2003 2786 2293 
Q 2538 2584 2113 2584 
z
M 3366 4563 
L 3366 3988 
Q 3128 4100 2886 4159 
Q 2644 4219 2406 4219 
Q 1781 4219 1451 3797 
Q 1122 3375 1075 2522 
Q 1259 2794 1537 2939 
Q 1816 3084 2150 3084 
Q 2853 3084 3261 2657 
Q 3669 2231 3669 1497 
Q 3669 778 3244 343 
Q 2819 -91 2113 -91 
Q 1303 -91 875 529 
Q 447 1150 447 2328 
Q 447 3434 972 4092 
Q 1497 4750 2381 4750 
Q 2619 4750 2861 4703 
Q 3103 4656 3366 4563 
z
" transform="scale(0.015625)"/>
       </defs>
       <use xlink:href="#DejaVuSans-30"/>
       <use xlink:href="#DejaVuSans-2e" transform="translate(63.623047 0)"/>
       <use xlink:href="#DejaVuSans-36" transform="translate(95.410156 0)"/>
      </g>
     </g>
    </g>
    <g id="xtick_5">
     <g id="line2d_9">
      <path d="M 407.087389 246.04 
L 407.087389 26.88 
" clip-path="url(#p262b467df1)" style="fill: none; stroke: #b0b0b0; stroke-width: 0.8; stroke-linecap: square"/>
     </g>
     <g id="line2d_10">
      <g>
       <use xlink:href="#m414f9455ff" x="407.087389" y="246.04" style="stroke: #000000; stroke-width: 0.8"/>
      </g>
     </g>
     <g id="text_5">
      <!-- 0.8 -->
      <g transform="translate(399.135827 260.638438) scale(0.1 -0.1)">
       <defs>
        <path id="DejaVuSans-38" d="M 2034 2216 
Q 1584 2216 1326 1975 
Q 1069 1734 1069 1313 
Q 1069 891 1326 650 
Q 1584 409 2034 409 
Q 2484 409 2743 651 
Q 3003 894 3003 1313 
Q 3003 1734 2745 1975 
Q 2488 2216 2034 2216 
z
M 1403 2484 
Q 997 2584 770 2862 
Q 544 3141 544 3541 
Q 544 4100 942 4425 
Q 1341 4750 2034 4750 
Q 2731 4750 3128 4425 
Q 3525 4100 3525 3541 
Q 3525 3141 3298 2862 
Q 3072 2584 2669 2484 
Q 3125 2378 3379 2068 
Q 3634 1759 3634 1313 
Q 3634 634 3220 271 
Q 2806 -91 2034 -91 
Q 1263 -91 848 271 
Q 434 634 434 1313 
Q 434 1759 690 2068 
Q 947 2378 1403 2484 
z
M 1172 3481 
Q 1172 3119 1398 2916 
Q 1625 2713 2034 2713 
Q 2441 2713 2670 2916 
Q 2900 3119 2900 3481 
Q 2900 3844 2670 4047 
Q 2441 4250 2034 4250 
Q 1625 4250 1398 4047 
Q 1172 3844 1172 3481 
z
" transform="scale(0.015625)"/>
       </defs>
       <use xlink:href="#DejaVuSans-30"/>
       <use xlink:href="#DejaVuSans-2e" transform="translate(63.623047 0)"/>
       <use xlink:href="#DejaVuSans-38" transform="translate(95.410156 0)"/>
      </g>
     </g>
    </g>
    <g id="text_6">
     <!-- Normalized Frequency (×π rad/sample) -->
     <g transform="translate(178.009062 274.316562) scale(0.1 -0.1)">
      <defs>
       <path id="DejaVuSans-4e" d="M 628 4666 
L 1478 4666 
L 3547 763 
L 3547 4666 
L 4159 4666 
L 4159 0 
L 3309 0 
L 1241 3903 
L 1241 0 
L 628 0 
L 628 4666 
z
" transform="scale(0.015625)"/>
       <path id="DejaVuSans-6f" d="M 1959 3097 
Q 1497 3097 1228 2736 
Q 959 2375 959 1747 
Q 959 1119 1226 758 
Q 1494 397 1959 397 
Q 2419 397 2687 759 
Q 2956 1122 2956 1747 
Q 2956 2369 2687 2733 
Q 2419 3097 1959 3097 
z
M 1959 3584 
Q 2709 3584 3137 3096 
Q 3566 2609 3566 1747 
Q 3566 888 3137 398 
Q 2709 -91 1959 -91 
Q 1206 -91 779 398 
Q 353 888 353 1747 
Q 353 2609 779 3096 
Q 1206 3584 1959 3584 
z
" transform="scale(0.015625)"/>
       <path id="DejaVuSans-72" d="M 2631 2963 
Q 2534 3019 2420 3045 
Q 2306 3072 2169 3072 
Q 1681 3072 1420 2755 
Q 1159 2438 1159 1844 
L 1159 0 
L 581 0 
L 581 3500 
L 1159 3500 
L 1159 2956 
Q 1341 3275 1631 3429 
Q 1922 3584 2338 3584 
Q 2397 3584 2469 3576 
Q 2541 3569 2628 3553 
L 2631 2963 
z
" transform="scale(0.015625)"/>
       <path id="DejaVuSans-6d" d="M 3328 2828 
Q 3544 3216 3844 3400 
Q 4144 3584 4550 3584 
Q 5097 3584 5394 3201 
Q 5691 2819 5691 2113 
L 5691 0 
L 5113 0 
L 5113 2094 
Q 5113 2597 4934 2840 
Q 4756 3084 4391 3084 
Q 3944 3084 3684 2787 
Q 3425 2491 3425 1978 
L 3425 0 
L 2847 0 
L 2847 2094 
Q 2847 2600 2669 2842 
Q 2491 3084 2119 3084 
Q 1678 3084 1418 2786 
Q 1159 2488 1159 1978 
L 1159 0 
L 581 0 
L 581 3500 
L 1159 3500 
L 1159 2956 
Q 1356 3278 1631 3431 
Q 1906 3584 2284 3584 
Q 2666 3584 2933 3390 
Q 3200 3197 3328 2828 
z
" transform="scale(0.015625)"/>
       <path id="DejaVuSans-61" d="M 2194 1759 
Q 1497 1759 1228 1600 
Q 959 1441 959 1056 
Q 959 750 1161 570 
Q 1363 391 1709 391 
Q 2188 391 2477 730 
Q 2766 1069 2766 1631 
L 2766 1759 
L 2194 1759 
z
M 3341 1997 
L 3341 0 
L 2766 0 
L 2766 531 
Q 2569 213 2275 61 
Q 1981 -91 1556 -91 
Q 1019 -91 701 211 
Q 384 513 384 1019 
Q 384 1609 779 1909 
Q 1175 2209 1959 2209 
L 2766 2209 
L 2766 2266 
Q 2766 2663 2505 2880 
Q 2244 3097 1772 3097 
Q 1472 3097 1187 3025 
Q 903 2953 641 2809 
L 641 3341 
Q 956 3463 1253 3523 
Q 1550 3584 1831 3584 
Q 2591 3584 2966 3190 
Q 3341 2797 3341 1997 
z
" transform="scale(0.015625)"/>
       <path id="DejaVuSans-6c" d="M 603 4863 
L 1178 4863 
L 1178 0 
L 603 0 
L 603 4863 
z
" transform="scale(0.015625)"/>
       <path id="DejaVuSans-69" d="M 603 3500 
L 1178 3500 
L 1178 0 
L 603 0 
L 603 3500 
z
M 603 4863 
L 1178 4863 
L 1178 4134 
L 603 4134 
L 603 4863 
z
" transform="scale(0.015625)"/>
       <path id="DejaVuSans-7a" d="M 353 3500 
L 3084 3500 
L 3084 2975 
L 922 459 
L 3084 459 
L 3084 0 
L 275 0 
L 275 525 
L 2438 3041 
L 353 3041 
L 353 3500 
z
" transform="scale(0.015625)"/>
       <path id="DejaVuSans-65" d="M 3597 1894 
L 3597 1613 
L 953 1613 
Q 991 1019 1311 708 
Q 1631 397 2203 397 
Q 2534 397 2845 478 
Q 3156 559 3463 722 
L 3463 178 
Q 3153 47 2828 -22 
Q 2503 -91 2169 -91 
Q 1331 -91 842 396 
Q 353 884 353 1716 
Q 353 2575 817 3079 
Q 1281 3584 2069 3584 
Q 2775 3584 3186 3129 
Q 3597 2675 3597 1894 
z
M 3022 2063 
Q 3016 2534 2758 2815 
Q 2500 3097 2075 3097 
Q 1594 3097 1305 2825 
Q 1016 2553 972 2059 
L 3022 2063 
z
" transform="scale(0.015625)"/>
       <path id="DejaVuSans-64" d="M 2906 2969 
L 2906 4863 
L 3481 4863 
L 3481 0 
L 2906 0 
L 2906 525 
Q 2725 213 2448 61 
Q 2172 -91 1784 -91 
Q 1150 -91 751 415 
Q 353 922 353 1747 
Q 353 2572 751 3078 
Q 1150 3584 1784 3584 
Q 2172 3584 2448 3432 
Q 2725 3281 2906 2969 
z
M 947 1747 
Q 947 1113 1208 752 
Q 1469 391 1925 391 
Q 2381 391 2643 752 
Q 2906 1113 2906 1747 
Q 2906 2381 2643 2742 
Q 2381 3103 1925 3103 
Q 1469 3103 1208 2742 
Q 947 2381 947 1747 
z
" transform="scale(0.015625)"/>
       <path id="DejaVuSans-20" transform="scale(0.015625)"/>
       <path id="DejaVuSans-46" d="M 628 4666 
L 3309 4666 
L 3309 4134 
L 1259 4134 
L 1259 2759 
L 3109 2759 
L 3109 2228 
L 1259 2228 
L 1259 0 
L 628 0 
L 628 4666 
z
" transform="scale(0.015625)"/>
       <path id="DejaVuSans-71" d="M 947 1747 
Q 947 1113 1208 752 
Q 1469 391 1925 391 
Q 2381 391 2643 752 
Q 2906 1113 2906 1747 
Q 2906 2381 2643 2742 
Q 2381 3103 1925 3103 
Q 1469 3103 1208 2742 
Q 947 2381 947 1747 
z
M 2906 525 
Q 2725 213 2448 61 
Q 2172 -91 1784 -91 
Q 1150 -91 751 415 
Q 353 922 353 1747 
Q 353 2572 751 3078 
Q 1150 3584 1784 3584 
Q 2172 3584 2448 3432 
Q 2725 3281 2906 2969 
L 2906 3500 
L 3481 3500 
L 3481 -1331 
L 2906 -1331 
L 2906 525 
z
" transform="scale(0.015625)"/>
       <path id="DejaVuSans-75" d="M 544 1381 
L 544 3500 
L 1119 3500 
L 1119 1403 
Q 1119 906 1312 657 
Q 1506 409 1894 409 
Q 2359 409 2629 706 
Q 2900 1003 2900 1516 
L 2900 3500 
L 3475 3500 
L 3475 0 
L 2900 0 
L 2900 538 
Q 2691 219 2414 64 
Q 2138 -91 1772 -91 
Q 1169 -91 856 284 
Q 544 659 544 1381 
z
M 1991 3584 
L 1991 3584 
z
" transform="scale(0.015625)"/>
       <path id="DejaVuSans-6e" d="M 3513 2113 
L 3513 0 
L 2938 0 
L 2938 2094 
Q 2938 2591 2744 2837 
Q 2550 3084 2163 3084 
Q 1697 3084 1428 2787 
Q 1159 2491 1159 1978 
L 1159 0 
L 581 0 
L 581 3500 
L 1159 3500 
L 1159 2956 
Q 1366 3272 1645 3428 
Q 1925 3584 2291 3584 
Q 2894 3584 3203 3211 
Q 3513 2838 3513 2113 
z
" transform="scale(0.015625)"/>
       <path id="DejaVuSans-63" d="M 3122 3366 
L 3122 2828 
Q 2878 2963 2633 3030 
Q 2388 3097 2138 3097 
Q 1578 3097 1268 2742 
Q 959 2388 959 1747 
Q 959 1106 1268 751 
Q 1578 397 2138 397 
Q 2388 397 2633 464 
Q 2878 531 3122 666 
L 3122 134 
Q 2881 22 2623 -34 
Q 2366 -91 2075 -91 
Q 1284 -91 818 406 
Q 353 903 353 1747 
Q 353 2603 823 3093 
Q 1294 3584 2113 3584 
Q 2378 3584 2631 3529 
Q 2884 3475 3122 3366 
z
" transform="scale(0.015625)"/>
       <path id="DejaVuSans-79" d="M 2059 -325 
Q 1816 -950 1584 -1140 
Q 1353 -1331 966 -1331 
L 506 -1331 
L 506 -850 
L 844 -850 
Q 1081 -850 1212 -737 
Q 1344 -625 1503 -206 
L 1606 56 
L 191 3500 
L 800 3500 
L 1894 763 
L 2988 3500 
L 3597 3500 
L 2059 -325 
z
" transform="scale(0.015625)"/>
       <path id="DejaVuSans-28" d="M 1984 4856 
Q 1566 4138 1362 3434 
Q 1159 2731 1159 2009 
Q 1159 1288 1364 580 
Q 1569 -128 1984 -844 
L 1484 -844 
Q 1016 -109 783 600 
Q 550 1309 550 2009 
Q 550 2706 781 3412 
Q 1013 4119 1484 4856 
L 1984 4856 
z
" transform="scale(0.015625)"/>
       <path id="DejaVuSans-d7" d="M 4488 3438 
L 3059 2003 
L 4488 575 
L 4116 197 
L 2681 1631 
L 1247 197 
L 878 575 
L 2303 2003 
L 878 3438 
L 1247 3816 
L 2681 2381 
L 4116 3816 
L 4488 3438 
z
" transform="scale(0.015625)"/>
       <path id="DejaVuSans-3c0" d="M 231 3500 
L 3584 3500 
L 3584 2925 
L 3144 2925 
L 3144 775 
Q 3144 550 3220 451 
Q 3297 353 3469 353 
Q 3516 353 3584 361 
Q 3653 369 3675 372 
L 3675 -44 
Q 3566 -84 3450 -103 
Q 3334 -122 3219 -122 
Q 2844 -122 2700 83 
Q 2556 288 2556 838 
L 2556 2925 
L 1266 2925 
L 1266 0 
L 678 0 
L 678 2925 
L 231 2925 
L 231 3500 
z
" transform="scale(0.015625)"/>
       <path id="DejaVuSans-2f" d="M 1625 4666 
L 2156 4666 
L 531 -594 
L 0 -594 
L 1625 4666 
z
" transform="scale(0.015625)"/>
       <path id="DejaVuSans-73" d="M 2834 3397 
L 2834 2853 
Q 2591 2978 2328 3040 
Q 2066 3103 1784 3103 
Q 1356 3103 1142 2972 
Q 928 2841 928 2578 
Q 928 2378 1081 2264 
Q 1234 2150 1697 2047 
L 1894 2003 
Q 2506 1872 2764 1633 
Q 3022 1394 3022 966 
Q 3022 478 2636 193 
Q 2250 -91 1575 -91 
Q 1294 -91 989 -36 
Q 684 19 347 128 
L 347 722 
Q 666 556 975 473 
Q 1284 391 1588 391 
Q 1994 391 2212 530 
Q 2431 669 2431 922 
Q 2431 1156 2273 1281 
Q 2116 1406 1581 1522 
L 1381 1569 
Q 847 1681 609 1914 
Q 372 2147 372 2553 
Q 372 3047 722 3315 
Q 1072 3584 1716 3584 
Q 2034 3584 2315 3537 
Q 2597 3491 2834 3397 
z
" transform="scale(0.015625)"/>
       <path id="DejaVuSans-70" d="M 1159 525 
L 1159 -1331 
L 581 -1331 
L 581 3500 
L 1159 3500 
L 1159 2969 
Q 1341 3281 1617 3432 
Q 1894 3584 2278 3584 
Q 2916 3584 3314 3078 
Q 3713 2572 3713 1747 
Q 3713 922 3314 415 
Q 2916 -91 2278 -91 
Q 1894 -91 1617 61 
Q 1341 213 1159 525 
z
M 3116 1747 
Q 3116 2381 2855 2742 
Q 2594 3103 2138 3103 
Q 1681 3103 1420 2742 
Q 1159 2381 1159 1747 
Q 1159 1113 1420 752 
Q 1681 391 2138 391 
Q 2594 391 2855 752 
Q 3116 1113 3116 1747 
z
" transform="scale(0.015625)"/>
       <path id="DejaVuSans-29" d="M 513 4856 
L 1013 4856 
Q 1481 4119 1714 3412 
Q 1947 2706 1947 2009 
Q 1947 1309 1714 600 
Q 1481 -109 1013 -844 
L 513 -844 
Q 928 -128 1133 580 
Q 1338 1288 1338 2009 
Q 1338 2731 1133 3434 
Q 928 4138 513 4856 
z
" transform="scale(0.015625)"/>
      </defs>
      <use xlink:href="#DejaVuSans-4e"/>
      <use xlink:href="#DejaVuSans-6f" transform="translate(74.804688 0)"/>
      <use xlink:href="#DejaVuSans-72" transform="translate(135.986328 0)"/>
      <use xlink:href="#DejaVuSans-6d" transform="translate(175.349609 0)"/>
      <use xlink:href="#DejaVuSans-61" transform="translate(272.761719 0)"/>
      <use xlink:href="#DejaVuSans-6c" transform="translate(334.041016 0)"/>
      <use xlink:href="#DejaVuSans-69" transform="translate(361.824219 0)"/>
      <use xlink:href="#DejaVuSans-7a" transform="translate(389.607422 0)"/>
      <use xlink:href="#DejaVuSans-65" transform="translate(442.097656 0)"/>
      <use xlink:href="#DejaVuSans-64" transform="translate(503.621094 0)"/>
      <use xlink:href="#DejaVuSans-20" transform="translate(567.097656 0)"/>
      <use xlink:href="#DejaVuSans-46" transform="translate(598.884766 0)"/>
      <use xlink:href="#DejaVuSans-72" transform="translate(649.154297 0)"/>
      <use xlink:href="#DejaVuSans-65" transform="translate(688.017578 0)"/>
      <use xlink:href="#DejaVuSans-71" transform="translate(749.541016 0)"/>
      <use xlink:href="#DejaVuSans-75" transform="translate(813.017578 0)"/>
      <use xlink:href="#DejaVuSans-65" transform="translate(876.396484 0)"/>
      <use xlink:href="#DejaVuSans-6e" transform="translate(937.919922 0)"/>
      <use xlink:href="#DejaVuSans-63" transform="translate(1001.298828 0)"/>
      <use xlink:href="#DejaVuSans-79" transform="translate(1056.279297 0)"/>
      <use xlink:href="#DejaVuSans-20" transform="translate(1115.458984 0)"/>
      <use xlink:href="#DejaVuSans-28" transform="translate(1147.246094 0)"/>
      <use xlink:href="#DejaVuSans-d7" transform="translate(1186.259766 0)"/>
      <use xlink:href="#DejaVuSans-3c0" transform="translate(1270.048828 0)"/>
      <use xlink:href="#DejaVuSans-20" transform="translate(1330.253906 0)"/>
      <use xlink:href="#DejaVuSans-72" transform="translate(1362.041016 0)"/>
      <use xlink:href="#DejaVuSans-61" transform="translate(1403.154297 0)"/>
      <use xlink:href="#DejaVuSans-64" transform="translate(1464.433594 0)"/>
      <use xlink:href="#DejaVuSans-2f" transform="translate(1527.910156 0)"/>
      <use xlink:href="#DejaVuSans-73" transform="translate(1561.601562 0)"/>
      <use xlink:href="#DejaVuSans-61" transform="translate(1613.701172 0)"/>
      <use xlink:href="#DejaVuSans-6d" transform="translate(1674.980469 0)"/>
      <use xlink:href="#DejaVuSans-70" transform="translate(1772.392578 0)"/>
      <use xlink:href="#DejaVuSans-6c" transform="translate(1835.869141 0)"/>
      <use xlink:href="#DejaVuSans-65" transform="translate(1863.652344 0)"/>
      <use xlink:href="#DejaVuSans-29" transform="translate(1925.175781 0)"/>
     </g>
    </g>
   </g>
   <g id="matplotlib.axis_2">
    <g id="ytick_1">
     <g id="line2d_11">
      <path d="M 59.24 246.04 
L 493.2 246.04 
" clip-path="url(#p262b467df1)" style="fill: none; stroke: #b0b0b0; stroke-width: 0.8; stroke-linecap: square"/>
     </g>
     <g id="line2d_12">
      <defs>
       <path id="mb9f49bdd03" d="M 0 0 
L -3.5 0 
" style="stroke: #000000; stroke-width: 0.8"/>
      </defs>
      <g>
       <use xlink:href="#mb9f49bdd03" x="59.24" y="246.04" style="stroke: #000000; stroke-width: 0.8"/>
      </g>
     </g>
     <g id="text_7">
      <!-- −100 -->
      <g transform="translate(24.772813 249.839219) scale(0.1 -0.1)">
       <defs>
        <path id="DejaVuSans-2212" d="M 678 2272 
L 4684 2272 
L 4684 1741 
L 678 1741 
L 678 2272 
z
" transform="scale(0.015625)"/>
        <path id="DejaVuSans-31" d="M 794 531 
L 1825 531 
L 1825 4091 
L 703 3866 
L 703 4441 
L 1819 4666 
L 2450 4666 
L 2450 531 
L 3481 531 
L 3481 0 
L 794 0 
L 794 531 
z
" transform="scale(0.015625)"/>
       </defs>
       <use xlink:href="#DejaVuSans-2212"/>
       <use xlink:href="#DejaVuSans-31" transform="translate(83.789062 0)"/>
       <use xlink:href="#DejaVuSans-30" transform="translate(147.412109 0)"/>
       <use xlink:href="#DejaVuSans-30" transform="translate(211.035156 0)"/>
      </g>
     </g>
    </g>
    <g id="ytick_2">
     <g id="line2d_13">
      <path d="M 59.24 204.295238 
L 493.2 204.295238 
" clip-path="url(#p262b467df1)" style="fill: none; stroke: #b0b0b0; stroke-width: 0.8; stroke-linecap: square"/>
     </g>
     <g id="line2d_14">
      <g>
       <use xlink:href="#mb9f49bdd03" x="59.24" y="204.295238" style="stroke: #000000; stroke-width: 0.8"/>
      </g>
     </g>
     <g id="text_8">
      <!-- −80 -->
      <g transform="translate(31.135313 208.094457) scale(0.1 -0.1)">
       <use xlink:href="#DejaVuSans-2212"/>
       <use xlink:href="#DejaVuSans-38" transform="translate(83.789062 0)"/>
       <use xlink:href="#DejaVuSans-30" transform="translate(147.412109 0)"/>
      </g>
     </g>
    </g>
    <g id="ytick_3">
     <g id="line2d_15">
      <path d="M 59.24 162.550476 
L 493.2 162.550476 
" clip-path="url(#p262b467df1)" style="fill: none; stroke: #b0b0b0; stroke-width: 0.8; stroke-linecap: square"/>
     </g>
     <g id="line2d_16">
      <g>
       <use xlink:href="#mb9f49bdd03" x="59.24" y="162.550476" style="stroke: #000000; stroke-width: 0.8"/>
      </g>
     </g>
     <g id="text_9">
      <!-- −60 -->
      <g transform="translate(31.135313 166.349695) scale(0.1 -0.1)">
       <use xlink:href="#DejaVuSans-2212"/>
       <use xlink:href="#DejaVuSans-36" transform="translate(83.789062 0)"/>
       <use xlink:href="#DejaVuSans-30" transform="translate(147.412109 0)"/>
      </g>
     </g>
    </g>
    <g id="ytick_4">
     <g id="line2d_17">
      <path d="M 59.24 120.805714 
L 493.2 120.805714 
" clip-path="url(#p262b467df1)" style="fill: none; stroke: #b0b0b0; stroke-width: 0.8; stroke-linecap: square"/>
     </g>
     <g id="line2d_18">
      <g>
       <use xlink:href="#mb9f49bdd03" x="59.24" y="120.805714" style="stroke: #000000; stroke-width: 0.8"/>
      </g>
     </g>
     <g id="text_10">
      <!-- −40 -->
      <g transform="translate(31.135313 124.604933) scale(0.1 -0.1)">
       <use xlink:href="#DejaVuSans-2212"/>
       <use xlink:href="#DejaVuSans-34" transform="translate(83.789062 0)"/>
       <use xlink:href="#DejaVuSans-30" transform="translate(147.412109 0)"/>
      </g>
     </g>
    </g>
    <g id="ytick_5">
     <g id="line2d_19">
      <path d="M 59.24 79.060952 
L 493.2 79.060952 
" clip-path="url(#p262b467df1)" style="fill: none; stroke: #b0b0b0; stroke-width: 0.8; stroke-linecap: square"/>
     </g>
     <g id="line2d_20">
      <g>
       <use xlink:href="#mb9f49bdd03" x="59.24" y="79.060952" style="stroke: #000000; stroke-width: 0.8"/>
      </g>
     </g>
     <g id="text_11">
      <!-- −20 -->
      <g transform="translate(31.135313 82.860171) scale(0.1 -0.1)">
       <use xlink:href="#DejaVuSans-2212"/>
       <use xlink:href="#DejaVuSans-32" transform="translate(83.789062 0)"/>
       <use xlink:href="#DejaVuSans-30" transform="translate(147.412109 0)"/>
      </g>
     </g>
    </g>
    <g id="ytick_6">
     <g id="line2d_21">
      <path d="M 59.24 37.31619 
L 493.2 37.31619 
" clip-path="url(#p262b467df1)" style="fill: none; stroke: #b0b0b0; stroke-width: 0.8; stroke-linecap: square"/>
     </g>
     <g id="line2d_22">
      <g>
       <use xlink:href="#mb9f49bdd03" x="59.24" y="37.31619" style="stroke: #000000; stroke-width: 0.8"/>
      </g>
     </g>
     <g id="text_12">
      <!-- 0 -->
      <g transform="translate(45.8775 41.115409) scale(0.1 -0.1)">
       <use xlink:href="#DejaVuSans-30"/>
      </g>
     </g>
    </g>
    <g id="text_13">
     <!-- Magnitude (dB) -->
     <g transform="translate(18.693125 175.045156) rotate(-90) scale(0.1 -0.1)">
      <defs>
       <path id="DejaVuSans-4d" d="M 628 4666 
L 1569 4666 
L 2759 1491 
L 3956 4666 
L 4897 4666 
L 4897 0 
L 4281 0 
L 4281 4097 
L 3078 897 
L 2444 897 
L 1241 4097 
L 1241 0 
L 628 0 
L 628 4666 
z
" transform="scale(0.015625)"/>
       <path id="DejaVuSans-67" d="M 2906 1791 
Q 2906 2416 2648 2759 
Q 2391 3103 1925 3103 
Q 1463 3103 1205 2759 
Q 947 2416 947 1791 
Q 947 1169 1205 825 
Q 1463 481 1925 481 
Q 2391 481 2648 825 
Q 2906 1169 2906 1791 
z
M 3481 434 
Q 3481 -459 3084 -895 
Q 2688 -1331 1869 -1331 
Q 1566 -1331 1297 -1286 
Q 1028 -1241 775 -1147 
L 775 -588 
Q 1028 -725 1275 -790 
Q 1522 -856 1778 -856 
Q 2344 -856 2625 -561 
Q 2906 -266 2906 331 
L 2906 616 
Q 2728 306 2450 153 
Q 2172 0 1784 0 
Q 1141 0 747 490 
Q 353 981 353 1791 
Q 353 2603 747 3093 
Q 1141 3584 1784 3584 
Q 2172 3584 2450 3431 
Q 2728 3278 2906 2969 
L 2906 3500 
L 3481 3500 
L 3481 434 
z
" transform="scale(0.015625)"/>
       <path id="DejaVuSans-74" d="M 1172 4494 
L 1172 3500 
L 2356 3500 
L 2356 3053 
L 1172 3053 
L 1172 1153 
Q 1172 725 1289 603 
Q 1406 481 1766 481 
L 2356 481 
L 2356 0 
L 1766 0 
Q 1100 0 847 248 
Q 594 497 594 1153 
L 594 3053 
L 172 3053 
L 172 3500 
L 594 3500 
L 594 4494 
L 1172 4494 
z
" transform="scale(0.015625)"/>
       <path id="DejaVuSans-42" d="M 1259 2228 
L 1259 519 
L 2272 519 
Q 2781 519 3026 730 
Q 3272 941 3272 1375 
Q 3272 1813 3026 2020 
Q 2781 2228 2272 2228 
L 1259 2228 
z
M 1259 4147 
L 1259 2741 
L 2194 2741 
Q 2656 2741 2882 2914 
Q 3109 3088 3109 3444 
Q 3109 3797 2882 3972 
Q 2656 4147 2194 4147 
L 1259 4147 
z
M 628 4666 
L 2241 4666 
Q 2963 4666 3353 4366 
Q 3744 4066 3744 3513 
Q 3744 3084 3544 2831 
Q 3344 2578 2956 2516 
Q 3422 2416 3680 2098 
Q 3938 1781 3938 1306 
Q 3938 681 3513 340 
Q 3088 0 2303 0 
L 628 0 
L 628 4666 
z
" transform="scale(0.015625)"/>
      </defs>
      <use xlink:href="#DejaVuSans-4d"/>
      <use xlink:href="#DejaVuSans-61" transform="translate(86.279297 0)"/>
      <use xlink:href="#DejaVuSans-67" transform="translate(147.558594 0)"/>
      <use xlink:href="#DejaVuSans-6e" transform="translate(211.035156 0)"/>
      <use xlink:href="#DejaVuSans-69" transform="translate(274.414062 0)"/>
      <use xlink:href="#DejaVuSans-74" transform="translate(302.197266 0)"/>
      <use xlink:href="#DejaVuSans-75" transform="translate(341.40625 0)"/>
      <use xlink:href="#DejaVuSans-64" transform="translate(404.785156 0)"/>
      <use xlink:href="#DejaVuSans-65" transform="translate(468.261719 0)"/>
      <use xlink:href="#DejaVuSans-20" transform="translate(529.785156 0)"/>
      <use xlink:href="#DejaVuSans-28" transform="translate(561.572266 0)"/>
      <use xlink:href="#DejaVuSans-64" transform="translate(600.585938 0)"/>
      <use xlink:href="#DejaVuSans-42" transform="translate(664.0625 0)"/>
      <use xlink:href="#DejaVuSans-29" transform="translate(732.666016 0)"/>
     </g>
    </g>
   </g>
   <g id="line2d_23">
    <path d="M 59.24 37.135107 
L 69.430841 37.254385 
L 86.415577 37.514033 
L 95.757182 37.374761 
L 111.892681 37.073874 
L 119.535812 37.197994 
L 137.369785 37.644295 
L 144.163679 37.481345 
L 161.148415 36.850786 
L 166.243836 36.966171 
L 172.188493 37.335803 
L 182.379335 38.033282 
L 186.625519 38.067931 
L 190.871703 37.844786 
L 195.117886 37.384112 
L 206.157965 35.996939 
L 209.554912 35.884097 
L 212.102622 36.00486 
L 214.650333 36.34574 
L 217.198043 36.9457 
L 219.745753 37.844534 
L 222.293464 39.08495 
L 223.991937 40.1253 
L 225.690411 41.355549 
L 227.388885 42.795174 
L 229.087358 44.467559 
L 230.785832 46.401601 
L 232.484305 48.634131 
L 234.182779 51.213722 
L 235.881252 54.207005 
L 237.579726 57.709855 
L 239.2782 61.868858 
L 240.976673 66.927178 
L 241.82591 69.920828 
L 242.675147 73.338461 
L 243.524384 77.324872 
L 244.37362 82.124127 
L 245.222857 88.199124 
L 246.072094 96.612754 
L 246.921331 110.947684 
L 247.770568 151.790707 
L 248.619804 109.081064 
L 249.469041 98.301398 
L 250.318278 92.24403 
L 251.167515 88.238837 
L 252.016751 85.40842 
L 252.865988 83.355293 
L 253.715225 81.86689 
L 254.564462 80.81761 
L 255.413699 80.128504 
L 256.262935 79.748246 
L 257.112172 79.643285 
L 257.961409 79.792444 
L 258.810646 80.183928 
L 259.659883 80.813771 
L 260.509119 81.685284 
L 261.358356 82.809373 
L 262.207593 84.205798 
L 263.05683 85.905714 
L 263.906067 87.956277 
L 264.755303 90.428975 
L 265.60454 93.435399 
L 266.453777 97.1597 
L 267.303014 101.934082 
L 268.15225 108.450782 
L 269.001487 118.584239 
L 269.850724 142.484933 
L 270.699961 133.461193 
L 271.549198 116.600831 
L 272.398434 108.420508 
L 273.247671 103.153403 
L 274.096908 99.395694 
L 274.946145 96.58307 
L 275.795382 94.432555 
L 276.644618 92.783007 
L 277.493855 91.535011 
L 278.343092 90.624073 
L 279.192329 90.007238 
L 280.041566 89.655877 
L 280.890802 89.55162 
L 281.740039 89.684054 
L 282.589276 90.049517 
L 283.438513 90.650692 
L 284.28775 91.496884 
L 285.136986 92.60506 
L 285.986223 94.001916 
L 286.83546 95.727538 
L 287.684697 97.84188 
L 288.533933 100.436642 
L 289.38317 103.658681 
L 290.232407 107.761258 
L 291.081644 113.235085 
L 291.930881 121.238482 
L 292.780117 135.910841 
L 293.629354 162.506564 
L 294.478591 129.418401 
L 295.327828 118.68677 
L 296.177065 112.274955 
L 297.026301 107.816914 
L 297.875538 104.501425 
L 298.724775 101.952952 
L 299.574012 99.967604 
L 300.423249 98.423298 
L 301.272485 97.242206 
L 302.121722 96.372813 
L 302.970959 95.780525 
L 303.820196 95.442442 
L 304.669432 95.344373 
L 305.518669 95.47917 
L 306.367906 95.845944 
L 307.217143 96.449966 
L 308.06638 97.303232 
L 308.915616 98.425829 
L 309.764853 99.848453 
L 310.61409 101.616815 
L 311.463327 103.799468 
L 312.312564 106.502434 
L 313.1618 109.89888 
L 314.011037 114.296914 
L 314.860274 120.324775 
L 315.709511 129.613782 
L 316.558748 149.798805 
L 317.407984 149.332911 
L 318.257221 129.830483 
L 319.106458 120.901222 
L 319.955695 115.187056 
L 320.804932 111.08744 
L 321.654168 107.982543 
L 322.503405 105.567504 
L 323.352642 103.670674 
L 324.201879 102.186837 
L 325.051115 101.047904 
L 325.900352 100.208437 
L 326.749589 99.637904 
L 327.598826 99.316299 
L 328.448063 99.231648 
L 329.297299 99.378637 
L 330.146536 99.75805 
L 330.995773 100.37684 
L 331.84501 101.24889 
L 332.694247 102.396617 
L 333.543483 103.85386 
L 334.39272 105.67092 
L 335.241957 107.923594 
L 336.091194 110.730329 
L 336.940431 114.287889 
L 337.789667 118.955777 
L 338.638904 125.500232 
L 339.488141 136.094825 
L 340.337378 165.073108 
L 341.186614 145.678847 
L 342.035851 130.453669 
L 342.885088 122.514632 
L 343.734325 117.233104 
L 344.583562 113.371107 
L 345.432798 110.413359 
L 346.282035 108.096463 
L 347.131272 106.268548 
L 347.980509 104.835077 
L 348.829746 103.734288 
L 349.678982 102.924785 
L 350.528219 102.378802 
L 351.377456 102.078362 
L 352.226693 102.013095 
L 353.07593 102.179078 
L 353.925166 102.578418 
L 354.774403 103.219469 
L 355.62364 104.117753 
L 356.472877 105.297786 
L 357.322114 106.79632 
L 358.17135 108.668013 
L 359.020587 110.995677 
L 359.869824 113.910073 
L 360.719061 117.63198 
L 361.568297 122.57527 
L 362.417534 129.661664 
L 363.266771 141.763663 
L 364.116008 197.738479 
L 364.965245 143.639996 
L 365.814481 130.807546 
L 366.663718 123.570417 
L 367.512955 118.621077 
L 368.362192 114.950891 
L 369.211429 112.117002 
L 370.060665 109.886179 
L 370.909902 108.121406 
L 371.759139 106.736361 
L 372.608376 105.674239 
L 373.457613 104.896872 
L 374.306849 104.37874 
L 375.156086 104.103555 
L 376.005323 104.062316 
L 376.85456 104.252322 
L 377.703796 104.676884 
L 378.553033 105.345675 
L 379.40227 106.275799 
L 380.251507 107.493853 
L 381.100744 109.03953 
L 381.94998 110.971962 
L 382.799217 113.381298 
L 383.648454 116.411419 
L 384.497691 120.309381 
L 385.346928 125.550823 
L 386.196164 133.245986 
L 387.045401 147.254927 
L 387.894638 179.236885 
L 388.743875 142.036065 
L 389.593112 130.846586 
L 390.442348 124.170554 
L 391.291585 119.503531 
L 392.140822 116.002966 
L 392.990059 113.282249 
L 393.839295 111.132528 
L 394.688532 109.429119 
L 395.537769 108.09265 
L 396.387006 107.070584 
L 397.236243 106.327571 
L 398.085479 105.84009 
L 398.934716 105.593376 
L 399.783953 105.579697 
L 400.63319 105.797508 
L 401.482427 106.251291 
L 402.331663 106.952031 
L 403.1809 107.918446 
L 404.030137 109.179287 
L 404.879374 110.777343 
L 405.728611 112.776529 
L 406.577847 115.274957 
L 407.427084 118.431039 
L 408.276321 122.52169 
L 409.125558 128.095607 
L 409.974795 136.502508 
L 410.824031 153.118278 
L 411.673268 165.441567 
L 412.522505 140.546037 
L 413.371742 130.599814 
L 414.220978 124.399017 
L 415.070215 119.983386 
L 415.919452 116.638863 
L 416.768689 114.024994 
L 417.617926 111.953645 
L 418.467162 110.310857 
L 419.316399 109.023419 
L 420.165636 108.042629 
L 421.014873 107.335712 
L 421.86411 106.880992 
L 422.713346 106.665142 
L 423.562583 106.681645 
L 424.41182 106.930092 
L 425.261057 107.416139 
L 426.110294 108.152114 
L 426.95953 109.158416 
L 427.808767 110.466076 
L 428.658004 112.121211 
L 429.507241 114.192938 
L 430.356477 116.788185 
L 431.205714 120.081761 
L 432.054951 124.385238 
L 432.904188 130.335838 
L 433.753425 139.598028 
L 434.602661 160.114321 
L 435.451898 158.265915 
L 436.301135 139.057976 
L 437.150372 130.102574 
L 437.999609 124.315922 
L 438.848845 120.128855 
L 439.698082 116.930158 
L 440.547319 114.418283 
L 441.396556 112.423118 
L 442.245793 110.840244 
L 443.095029 109.602018 
L 443.944266 108.663261 
L 444.793503 107.993586 
L 445.64274 107.573065 
L 446.491977 107.389747 
L 447.341213 107.438301 
L 448.19045 107.719451 
L 449.039687 108.240047 
L 449.888924 109.013809 
L 450.73816 110.062907 
L 451.587397 111.420809 
L 452.436634 113.137234 
L 453.285871 115.287022 
L 454.135108 117.98694 
L 454.984344 121.430504 
L 455.833581 125.970001 
L 456.682818 132.351757 
L 457.532055 142.666716 
L 458.381292 169.937619 
L 460.079765 137.522915 
L 460.929002 129.381609 
L 461.778239 123.96117 
L 462.627476 119.983753 
L 463.476712 116.922021 
L 464.325949 114.507662 
L 465.175186 112.586417 
L 466.024423 111.062432 
L 466.873659 109.873148 
L 467.722896 108.976642 
L 468.572133 108.344772 
L 469.42137 107.959269 
L 470.270607 107.80951 
L 471.119843 107.891339 
L 471.96908 108.206612 
L 472.818317 108.763404 
L 473.667554 109.576883 
L 474.516791 110.671096 
L 475.366027 112.082126 
L 476.215264 113.86361 
L 477.064501 116.0967 
L 477.913738 118.90921 
L 478.762975 122.516115 
L 479.612211 127.317955 
L 480.461448 134.197427 
L 481.310685 145.842357 
L 482.159922 190.126447 
L 483.009159 149.291825 
L 483.858395 135.911333 
L 484.707632 128.452223 
L 485.556869 123.358173 
L 486.406106 119.573672 
L 487.255342 116.640592 
L 488.104579 114.319228 
L 488.953816 112.469336 
L 489.803053 111.002787 
L 490.65229 109.861675 
L 491.501526 109.007104 
L 492.350763 108.413041 
L 493.2 108.062802 
L 493.2 108.062802 
" clip-path="url(#p262b467df1)" style="fill: none; stroke: #1f77b4; stroke-width: 1.5; stroke-linecap: square"/>
   </g>
   <g id="line2d_24">
    <path d="M 222.293464 246.04 
L 222.293464 26.88 
" clip-path="url(#p262b467df1)" style="fill: none; stroke-dasharray: 3.7,1.6; stroke-dashoffset: 0; stroke: #808080"/>
   </g>
   <g id="line2d_25">
    <path d="M 244.033926 246.04 
L 244.033926 26.88 
" clip-path="url(#p262b467df1)" style="fill: none; stroke-dasharray: 3.7,1.6; stroke-dashoffset: 0; stroke: #808080"/>
   </g>
   <g id="patch_3">
    <path d="M 59.24 246.04 
L 59.24 26.88 
" style="fill: none; stroke: #000000; stroke-width: 0.8; stroke-linejoin: miter; stroke-linecap: square"/>
   </g>
   <g id="patch_4">
    <path d="M 493.2 246.04 
L 493.2 26.88 
" style="fill: none; stroke: #000000; stroke-width: 0.8; stroke-linejoin: miter; stroke-linecap: square"/>
   </g>
   <g id="patch_5">
    <path d="M 59.24 246.04 
L 493.2 246.04 
" style="fill: none; stroke: #000000; stroke-width: 0.8; stroke-linejoin: miter; stroke-linecap: square"/>
   </g>
   <g id="patch_6">
    <path d="M 59.24 26.88 
L 493.2 26.88 
" style="fill: none; stroke: #000000; stroke-width: 0.8; stroke-linejoin: miter; stroke-linecap: square"/>
   </g>
   <g id="patch_7">
    <path d="M 239.799497 152.114286 
Q 233.164633 152.114286 226.529769 152.114286 
" style="fill: none; stroke: #ff7f0e; stroke-width: 2; stroke-linecap: round"/>
    <path d="M 235.799497 150.114286 
L 239.799497 152.114286 
L 235.799497 154.114286 
" style="fill: none; stroke: #ff7f0e; stroke-width: 2; stroke-linecap: round"/>
    <path d="M 230.529769 154.114286 
L 226.529769 152.114286 
L 230.529769 150.114286 
" style="fill: none; stroke: #ff7f0e; stroke-width: 2; stroke-linecap: round"/>
   </g>
   <g id="text_14">
    <!-- Transition band -->
    <g style="fill: #ff7f0e" transform="translate(194.817601 170.906979) scale(0.1 -0.1)">
     <defs>
      <path id="DejaVuSans-54" d="M -19 4666 
L 3928 4666 
L 3928 4134 
L 2272 4134 
L 2272 0 
L 1638 0 
L 1638 4134 
L -19 4134 
L -19 4666 
z
" transform="scale(0.015625)"/>
      <path id="DejaVuSans-62" d="M 3116 1747 
Q 3116 2381 2855 2742 
Q 2594 3103 2138 3103 
Q 1681 3103 1420 2742 
Q 1159 2381 1159 1747 
Q 1159 1113 1420 752 
Q 1681 391 2138 391 
Q 2594 391 2855 752 
Q 3116 1113 3116 1747 
z
M 1159 2969 
Q 1341 3281 1617 3432 
Q 1894 3584 2278 3584 
Q 2916 3584 3314 3078 
Q 3713 2572 3713 1747 
Q 3713 922 3314 415 
Q 2916 -91 2278 -91 
Q 1894 -91 1617 61 
Q 1341 213 1159 525 
L 1159 0 
L 581 0 
L 581 4863 
L 1159 4863 
L 1159 2969 
z
" transform="scale(0.015625)"/>
     </defs>
     <use xlink:href="#DejaVuSans-54"/>
     <use xlink:href="#DejaVuSans-72" transform="translate(46.333984 0)"/>
     <use xlink:href="#DejaVuSans-61" transform="translate(87.447266 0)"/>
     <use xlink:href="#DejaVuSans-6e" transform="translate(148.726562 0)"/>
     <use xlink:href="#DejaVuSans-73" transform="translate(212.105469 0)"/>
     <use xlink:href="#DejaVuSans-69" transform="translate(264.205078 0)"/>
     <use xlink:href="#DejaVuSans-74" transform="translate(291.988281 0)"/>
     <use xlink:href="#DejaVuSans-69" transform="translate(331.197266 0)"/>
     <use xlink:href="#DejaVuSans-6f" transform="translate(358.980469 0)"/>
     <use xlink:href="#DejaVuSans-6e" transform="translate(420.162109 0)"/>
     <use xlink:href="#DejaVuSans-20" transform="translate(483.541016 0)"/>
     <use xlink:href="#DejaVuSans-62" transform="translate(515.328125 0)"/>
     <use xlink:href="#DejaVuSans-61" transform="translate(578.804688 0)"/>
     <use xlink:href="#DejaVuSans-6e" transform="translate(640.083984 0)"/>
     <use xlink:href="#DejaVuSans-64" transform="translate(703.462891 0)"/>
    </g>
   </g>
   <g id="patch_8">
    <path d="M 256.643394 75.40505 
Q 256.643394 58.480378 256.643394 41.555706 
" style="fill: none; stroke: #d62728; stroke-width: 2; stroke-linecap: round"/>
    <path d="M 258.643394 71.40505 
L 256.643394 75.40505 
L 254.643394 71.40505 
" style="fill: none; stroke: #d62728; stroke-width: 2; stroke-linecap: round"/>
    <path d="M 254.643394 45.555706 
L 256.643394 41.555706 
L 258.643394 45.555706 
" style="fill: none; stroke: #d62728; stroke-width: 2; stroke-linecap: round"/>
   </g>
   <g id="text_15">
    <!-- Stopband attenuation -->
    <g style="fill: #d62728" transform="translate(267.948434 61.239113) scale(0.1 -0.1)">
     <defs>
      <path id="DejaVuSans-53" d="M 3425 4513 
L 3425 3897 
Q 3066 4069 2747 4153 
Q 2428 4238 2131 4238 
Q 1616 4238 1336 4038 
Q 1056 3838 1056 3469 
Q 1056 3159 1242 3001 
Q 1428 2844 1947 2747 
L 2328 2669 
Q 3034 2534 3370 2195 
Q 3706 1856 3706 1288 
Q 3706 609 3251 259 
Q 2797 -91 1919 -91 
Q 1588 -91 1214 -16 
Q 841 59 441 206 
L 441 856 
Q 825 641 1194 531 
Q 1563 422 1919 422 
Q 2459 422 2753 634 
Q 3047 847 3047 1241 
Q 3047 1584 2836 1778 
Q 2625 1972 2144 2069 
L 1759 2144 
Q 1053 2284 737 2584 
Q 422 2884 422 3419 
Q 422 4038 858 4394 
Q 1294 4750 2059 4750 
Q 2388 4750 2728 4690 
Q 3069 4631 3425 4513 
z
" transform="scale(0.015625)"/>
     </defs>
     <use xlink:href="#DejaVuSans-53"/>
     <use xlink:href="#DejaVuSans-74" transform="translate(63.476562 0)"/>
     <use xlink:href="#DejaVuSans-6f" transform="translate(102.685547 0)"/>
     <use xlink:href="#DejaVuSans-70" transform="translate(163.867188 0)"/>
     <use xlink:href="#DejaVuSans-62" transform="translate(227.34375 0)"/>
     <use xlink:href="#DejaVuSans-61" transform="translate(290.820312 0)"/>
     <use xlink:href="#DejaVuSans-6e" transform="translate(352.099609 0)"/>
     <use xlink:href="#DejaVuSans-64" transform="translate(415.478516 0)"/>
     <use xlink:href="#DejaVuSans-20" transform="translate(478.955078 0)"/>
     <use xlink:href="#DejaVuSans-61" transform="translate(510.742188 0)"/>
     <use xlink:href="#DejaVuSans-74" transform="translate(572.021484 0)"/>
     <use xlink:href="#DejaVuSans-74" transform="translate(611.230469 0)"/>
     <use xlink:href="#DejaVuSans-65" transform="translate(650.439453 0)"/>
     <use xlink:href="#DejaVuSans-6e" transform="translate(711.962891 0)"/>
     <use xlink:href="#DejaVuSans-75" transform="translate(775.341797 0)"/>
     <use xlink:href="#DejaVuSans-61" transform="translate(838.720703 0)"/>
     <use xlink:href="#DejaVuSans-74" transform="translate(900 0)"/>
     <use xlink:href="#DejaVuSans-69" transform="translate(939.208984 0)"/>
     <use xlink:href="#DejaVuSans-6f" transform="translate(966.992188 0)"/>
     <use xlink:href="#DejaVuSans-6e" transform="translate(1028.173828 0)"/>
    </g>
   </g>
   <g id="text_16">
    <!-- Filter Frequency Response -->
    <g transform="translate(197.733437 20.88) scale(0.12 -0.12)">
     <defs>
      <path id="DejaVuSans-52" d="M 2841 2188 
Q 3044 2119 3236 1894 
Q 3428 1669 3622 1275 
L 4263 0 
L 3584 0 
L 2988 1197 
Q 2756 1666 2539 1819 
Q 2322 1972 1947 1972 
L 1259 1972 
L 1259 0 
L 628 0 
L 628 4666 
L 2053 4666 
Q 2853 4666 3247 4331 
Q 3641 3997 3641 3322 
Q 3641 2881 3436 2590 
Q 3231 2300 2841 2188 
z
M 1259 4147 
L 1259 2491 
L 2053 2491 
Q 2509 2491 2742 2702 
Q 2975 2913 2975 3322 
Q 2975 3731 2742 3939 
Q 2509 4147 2053 4147 
L 1259 4147 
z
" transform="scale(0.015625)"/>
     </defs>
     <use xlink:href="#DejaVuSans-46"/>
     <use xlink:href="#DejaVuSans-69" transform="translate(50.269531 0)"/>
     <use xlink:href="#DejaVuSans-6c" transform="translate(78.052734 0)"/>
     <use xlink:href="#DejaVuSans-74" transform="translate(105.835938 0)"/>
     <use xlink:href="#DejaVuSans-65" transform="translate(145.044922 0)"/>
     <use xlink:href="#DejaVuSans-72" transform="translate(206.568359 0)"/>
     <use xlink:href="#DejaVuSans-20" transform="translate(247.681641 0)"/>
     <use xlink:href="#DejaVuSans-46" transform="translate(279.46875 0)"/>
     <use xlink:href="#DejaVuSans-72" transform="translate(329.738281 0)"/>
     <use xlink:href="#DejaVuSans-65" transform="translate(368.601562 0)"/>
     <use xlink:href="#DejaVuSans-71" transform="translate(430.125 0)"/>
     <use xlink:href="#DejaVuSans-75" transform="translate(493.601562 0)"/>
     <use xlink:href="#DejaVuSans-65" transform="translate(556.980469 0)"/>
     <use xlink:href="#DejaVuSans-6e" transform="translate(618.503906 0)"/>
     <use xlink:href="#DejaVuSans-63" transform="translate(681.882812 0)"/>
     <use xlink:href="#DejaVuSans-79" transform="translate(736.863281 0)"/>
     <use xlink:href="#DejaVuSans-20" transform="translate(796.042969 0)"/>
     <use xlink:href="#DejaVuSans-52" transform="translate(827.830078 0)"/>
     <use xlink:href="#DejaVuSans-65" transform="translate(892.8125 0)"/>
     <use xlink:href="#DejaVuSans-73" transform="translate(954.335938 0)"/>
     <use xlink:href="#DejaVuSans-70" transform="translate(1006.435547 0)"/>
     <use xlink:href="#DejaVuSans-6f" transform="translate(1069.912109 0)"/>
     <use xlink:href="#DejaVuSans-6e" transform="translate(1131.09375 0)"/>
     <use xlink:href="#DejaVuSans-73" transform="translate(1194.472656 0)"/>
     <use xlink:href="#DejaVuSans-65" transform="translate(1246.572266 0)"/>
    </g>
   </g>
   <g id="legend_1">
    <g id="patch_9">
     <path d="M 399.575 49.88 
L 486.2 49.88 
Q 488.2 49.88 488.2 47.88 
L 488.2 33.88 
Q 488.2 31.88 486.2 31.88 
L 399.575 31.88 
Q 397.575 31.88 397.575 33.88 
L 397.575 47.88 
Q 397.575 49.88 399.575 49.88 
z
" style="fill: #ffffff; opacity: 0.8; stroke: #cccccc; stroke-linejoin: miter"/>
    </g>
    <g id="line2d_26">
     <path d="M 401.575 40.022188 
L 411.575 40.022188 
L 421.575 40.022188 
" style="fill: none; stroke: #1f77b4; stroke-width: 1.5; stroke-linecap: square"/>
    </g>
    <g id="text_17">
     <!-- |H(ω)| (dB) -->
     <g transform="translate(429.575 43.522188) scale(0.1 -0.1)">
      <defs>
       <path id="DejaVuSans-7c" d="M 1344 4891 
L 1344 -1509 
L 813 -1509 
L 813 4891 
L 1344 4891 
z
" transform="scale(0.015625)"/>
       <path id="DejaVuSans-48" d="M 628 4666 
L 1259 4666 
L 1259 2753 
L 3553 2753 
L 3553 4666 
L 4184 4666 
L 4184 0 
L 3553 0 
L 3553 2222 
L 1259 2222 
L 1259 0 
L 628 0 
L 628 4666 
z
" transform="scale(0.015625)"/>
       <path id="DejaVuSans-3c9" d="M 1719 -91 
Q 422 -91 422 1766 
Q 422 2500 906 3500 
L 1525 3500 
Q 1078 2500 1078 1750 
Q 1078 397 1772 397 
Q 2406 397 2406 2078 
L 2938 2078 
Q 2938 397 3572 397 
Q 4266 397 4266 1750 
Q 4266 2500 3819 3500 
L 4438 3500 
Q 4922 2500 4922 1766 
Q 4922 -91 3625 -91 
Q 2775 -91 2672 844 
Q 2544 -91 1719 -91 
z
" transform="scale(0.015625)"/>
      </defs>
      <use xlink:href="#DejaVuSans-7c"/>
      <use xlink:href="#DejaVuSans-48" transform="translate(33.691406 0)"/>
      <use xlink:href="#DejaVuSans-28" transform="translate(108.886719 0)"/>
      <use xlink:href="#DejaVuSans-3c9" transform="translate(147.900391 0)"/>
      <use xlink:href="#DejaVuSans-29" transform="translate(231.640625 0)"/>
      <use xlink:href="#DejaVuSans-7c" transform="translate(270.654297 0)"/>
      <use xlink:href="#DejaVuSans-20" transform="translate(304.345703 0)"/>
      <use xlink:href="#DejaVuSans-28" transform="translate(336.132812 0)"/>
      <use xlink:href="#DejaVuSans-64" transform="translate(375.146484 0)"/>
      <use xlink:href="#DejaVuSans-42" transform="translate(438.623047 0)"/>
      <use xlink:href="#DejaVuSans-29" transform="translate(507.226562 0)"/>
     </g>
    </g>
   </g>
  </g>
 </g>
 <defs>
  <clipPath id="p262b467df1">
   <rect x="59.24" y="26.88" width="433.96" height="219.16"/>
  </clipPath>
 </defs>
</svg>
