<?xml version="1.0" encoding="utf-8" standalone="no"?>
<!DOCTYPE svg PUBLIC "-//W3C//DTD SVG 1.1//EN"
  "http://www.w3.org/Graphics/SVG/1.1/DTD/svg11.dtd">
<svg xmlns:xlink="http://www.w3.org/1999/xlink" width="648pt" height="288pt" viewBox="0 0 648 288" xmlns="http://www.w3.org/2000/svg" version="1.1">
 <metadata>
  <rdf:RDF xmlns:dc="http://purl.org/dc/elements/1.1/" xmlns:cc="http://creativecommons.org/ns#" xmlns:rdf="http://www.w3.org/1999/02/22-rdf-syntax-ns#">
   <cc:Work>
    <dc:type rdf:resource="http://purl.org/dc/dcmitype/StillImage"/>
    <dc:date>2025-09-17T22:19:42.386610</dc:date>
    <dc:format>image/svg+xml</dc:format>
    <dc:creator>
     <cc:Agent>
      <dc:title>Matplotlib v3.10.5, https://matplotlib.org/</dc:title>
     </cc:Agent>
    </dc:creator>
   </cc:Work>
  </rdf:RDF>
 </metadata>
 <defs>
  <style type="text/css">*{stroke-linejoin: round; stroke-linecap: butt}</style>
 </defs>
 <g id="figure_1">
  <g id="patch_1">
   <path d="M 0 288 
L 648 288 
L 648 0 
L 0 0 
z
" style="fill: #ffffff"/>
  </g>
  <g id="axes_1">
   <g id="patch_2">
    <path d="M 30.49 240.83 
L 633.40875 240.83 
L 633.40875 29.022 
L 30.49 29.022 
z
" style="fill: #ffffff"/>
   </g>
   <g id="matplotlib.axis_1">
    <g id="xtick_1">
     <g id="line2d_1">
      <path d="M 30.49 240.83 
L 30.49 29.022 
" clip-path="url(#pc7af98a1fe)" style="fill: none; stroke: #b0b0b0; stroke-width: 0.8; stroke-linecap: square"/>
     </g>
     <g id="line2d_2">
      <defs>
       <path id="medcd4db704" d="M 0 0 
L 0 3.5 
" style="stroke: #000000; stroke-width: 0.8"/>
      </defs>
      <g>
       <use xlink:href="#medcd4db704" x="30.49" y="240.83" style="stroke: #000000; stroke-width: 0.8"/>
      </g>
     </g>
     <g id="text_1">
      <!-- $- \pi$ -->
      <g transform="translate(23.29 255.428437) scale(0.1 -0.1)">
       <defs>
        <path id="DejaVuSans-2212" d="M 678 2272 
L 4684 2272 
L 4684 1741 
L 678 1741 
L 678 2272 
z
" transform="scale(0.015625)"/>
        <path id="DejaVuSans-Oblique-3c0" d="M 584 3500 
L 3938 3500 
L 3825 2925 
L 3384 2925 
L 2966 775 
Q 2922 550 2981 450 
Q 3038 353 3209 353 
Q 3256 353 3325 363 
Q 3397 369 3419 372 
L 3338 -44 
Q 3222 -84 3103 -103 
Q 2981 -122 2866 -122 
Q 2491 -122 2388 81 
Q 2284 288 2391 838 
L 2797 2925 
L 1506 2925 
L 938 0 
L 350 0 
L 919 2925 
L 472 2925 
L 584 3500 
z
" transform="scale(0.015625)"/>
       </defs>
       <use xlink:href="#DejaVuSans-2212" transform="translate(0 0.3125)"/>
       <use xlink:href="#DejaVuSans-Oblique-3c0" transform="translate(83.789062 0.3125)"/>
      </g>
     </g>
    </g>
    <g id="xtick_2">
     <g id="line2d_3">
      <path d="M 105.854844 240.83 
L 105.854844 29.022 
" clip-path="url(#pc7af98a1fe)" style="fill: none; stroke: #b0b0b0; stroke-width: 0.8; stroke-linecap: square"/>
     </g>
     <g id="line2d_4">
      <g>
       <use xlink:href="#medcd4db704" x="105.854844" y="240.83" style="stroke: #000000; stroke-width: 0.8"/>
      </g>
     </g>
     <g id="text_2">
      <!-- $-3\pi/4$ -->
      <g transform="translate(90.604844 255.428437) scale(0.1 -0.1)">
       <defs>
        <path id="DejaVuSans-33" d="M 2597 2516 
Q 3050 2419 3304 2112 
Q 3559 1806 3559 1356 
Q 3559 666 3084 287 
Q 2609 -91 1734 -91 
Q 1441 -91 1130 -33 
Q 819 25 488 141 
L 488 750 
Q 750 597 1062 519 
Q 1375 441 1716 441 
Q 2309 441 2620 675 
Q 2931 909 2931 1356 
Q 2931 1769 2642 2001 
Q 2353 2234 1838 2234 
L 1294 2234 
L 1294 2753 
L 1863 2753 
Q 2328 2753 2575 2939 
Q 2822 3125 2822 3475 
Q 2822 3834 2567 4026 
Q 2313 4219 1838 4219 
Q 1578 4219 1281 4162 
Q 984 4106 628 3988 
L 628 4550 
Q 988 4650 1302 4700 
Q 1616 4750 1894 4750 
Q 2613 4750 3031 4423 
Q 3450 4097 3450 3541 
Q 3450 3153 3228 2886 
Q 3006 2619 2597 2516 
z
" transform="scale(0.015625)"/>
        <path id="DejaVuSans-2f" d="M 1625 4666 
L 2156 4666 
L 531 -594 
L 0 -594 
L 1625 4666 
z
" transform="scale(0.015625)"/>
        <path id="DejaVuSans-34" d="M 2419 4116 
L 825 1625 
L 2419 1625 
L 2419 4116 
z
M 2253 4666 
L 3047 4666 
L 3047 1625 
L 3713 1625 
L 3713 1100 
L 3047 1100 
L 3047 0 
L 2419 0 
L 2419 1100 
L 313 1100 
L 313 1709 
L 2253 4666 
z
" transform="scale(0.015625)"/>
       </defs>
       <use xlink:href="#DejaVuSans-2212" transform="translate(0 0.78125)"/>
       <use xlink:href="#DejaVuSans-33" transform="translate(83.789062 0.78125)"/>
       <use xlink:href="#DejaVuSans-Oblique-3c0" transform="translate(147.412109 0.78125)"/>
       <use xlink:href="#DejaVuSans-2f" transform="translate(207.617188 0.78125)"/>
       <use xlink:href="#DejaVuSans-34" transform="translate(241.308594 0.78125)"/>
      </g>
     </g>
    </g>
    <g id="xtick_3">
     <g id="line2d_5">
      <path d="M 181.219687 240.83 
L 181.219687 29.022 
" clip-path="url(#pc7af98a1fe)" style="fill: none; stroke: #b0b0b0; stroke-width: 0.8; stroke-linecap: square"/>
     </g>
     <g id="line2d_6">
      <g>
       <use xlink:href="#medcd4db704" x="181.219687" y="240.83" style="stroke: #000000; stroke-width: 0.8"/>
      </g>
     </g>
     <g id="text_3">
      <!-- $- \pi/2$ -->
      <g transform="translate(169.319687 255.428437) scale(0.1 -0.1)">
       <defs>
        <path id="DejaVuSans-32" d="M 1228 531 
L 3431 531 
L 3431 0 
L 469 0 
L 469 531 
Q 828 903 1448 1529 
Q 2069 2156 2228 2338 
Q 2531 2678 2651 2914 
Q 2772 3150 2772 3378 
Q 2772 3750 2511 3984 
Q 2250 4219 1831 4219 
Q 1534 4219 1204 4116 
Q 875 4013 500 3803 
L 500 4441 
Q 881 4594 1212 4672 
Q 1544 4750 1819 4750 
Q 2544 4750 2975 4387 
Q 3406 4025 3406 3419 
Q 3406 3131 3298 2873 
Q 3191 2616 2906 2266 
Q 2828 2175 2409 1742 
Q 1991 1309 1228 531 
z
" transform="scale(0.015625)"/>
       </defs>
       <use xlink:href="#DejaVuSans-2212" transform="translate(0 0.78125)"/>
       <use xlink:href="#DejaVuSans-Oblique-3c0" transform="translate(83.789062 0.78125)"/>
       <use xlink:href="#DejaVuSans-2f" transform="translate(143.994141 0.78125)"/>
       <use xlink:href="#DejaVuSans-32" transform="translate(174.060547 0.78125)"/>
      </g>
     </g>
    </g>
    <g id="xtick_4">
     <g id="line2d_7">
      <path d="M 256.584531 240.83 
L 256.584531 29.022 
" clip-path="url(#pc7af98a1fe)" style="fill: none; stroke: #b0b0b0; stroke-width: 0.8; stroke-linecap: square"/>
     </g>
     <g id="line2d_8">
      <g>
       <use xlink:href="#medcd4db704" x="256.584531" y="240.83" style="stroke: #000000; stroke-width: 0.8"/>
      </g>
     </g>
     <g id="text_4">
      <!-- $- \pi/4$ -->
      <g transform="translate(244.484531 255.428437) scale(0.1 -0.1)">
       <use xlink:href="#DejaVuSans-2212" transform="translate(0 0.09375)"/>
       <use xlink:href="#DejaVuSans-Oblique-3c0" transform="translate(83.789062 0.09375)"/>
       <use xlink:href="#DejaVuSans-2f" transform="translate(143.994141 0.09375)"/>
       <use xlink:href="#DejaVuSans-34" transform="translate(177.685547 0.09375)"/>
      </g>
     </g>
    </g>
    <g id="xtick_5">
     <g id="line2d_9">
      <path d="M 331.949375 240.83 
L 331.949375 29.022 
" clip-path="url(#pc7af98a1fe)" style="fill: none; stroke: #b0b0b0; stroke-width: 0.8; stroke-linecap: square"/>
     </g>
     <g id="line2d_10">
      <g>
       <use xlink:href="#medcd4db704" x="331.949375" y="240.83" style="stroke: #000000; stroke-width: 0.8"/>
      </g>
     </g>
     <g id="text_5">
      <!-- $0$ -->
      <g transform="translate(328.749375 255.428437) scale(0.1 -0.1)">
       <defs>
        <path id="DejaVuSans-30" d="M 2034 4250 
Q 1547 4250 1301 3770 
Q 1056 3291 1056 2328 
Q 1056 1369 1301 889 
Q 1547 409 2034 409 
Q 2525 409 2770 889 
Q 3016 1369 3016 2328 
Q 3016 3291 2770 3770 
Q 2525 4250 2034 4250 
z
M 2034 4750 
Q 2819 4750 3233 4129 
Q 3647 3509 3647 2328 
Q 3647 1150 3233 529 
Q 2819 -91 2034 -91 
Q 1250 -91 836 529 
Q 422 1150 422 2328 
Q 422 3509 836 4129 
Q 1250 4750 2034 4750 
z
" transform="scale(0.015625)"/>
       </defs>
       <use xlink:href="#DejaVuSans-30" transform="translate(0 0.78125)"/>
      </g>
     </g>
    </g>
    <g id="xtick_6">
     <g id="line2d_11">
      <path d="M 407.314219 240.83 
L 407.314219 29.022 
" clip-path="url(#pc7af98a1fe)" style="fill: none; stroke: #b0b0b0; stroke-width: 0.8; stroke-linecap: square"/>
     </g>
     <g id="line2d_12">
      <g>
       <use xlink:href="#medcd4db704" x="407.314219" y="240.83" style="stroke: #000000; stroke-width: 0.8"/>
      </g>
     </g>
     <g id="text_6">
      <!-- $\pi/4$ -->
      <g transform="translate(399.414219 255.428437) scale(0.1 -0.1)">
       <use xlink:href="#DejaVuSans-Oblique-3c0" transform="translate(0 0.09375)"/>
       <use xlink:href="#DejaVuSans-2f" transform="translate(60.205078 0.09375)"/>
       <use xlink:href="#DejaVuSans-34" transform="translate(93.896484 0.09375)"/>
      </g>
     </g>
    </g>
    <g id="xtick_7">
     <g id="line2d_13">
      <path d="M 482.679062 240.83 
L 482.679062 29.022 
" clip-path="url(#pc7af98a1fe)" style="fill: none; stroke: #b0b0b0; stroke-width: 0.8; stroke-linecap: square"/>
     </g>
     <g id="line2d_14">
      <g>
       <use xlink:href="#medcd4db704" x="482.679062" y="240.83" style="stroke: #000000; stroke-width: 0.8"/>
      </g>
     </g>
     <g id="text_7">
      <!-- $\pi/2$ -->
      <g transform="translate(474.979062 255.428437) scale(0.1 -0.1)">
       <use xlink:href="#DejaVuSans-Oblique-3c0" transform="translate(0 0.78125)"/>
       <use xlink:href="#DejaVuSans-2f" transform="translate(60.205078 0.78125)"/>
       <use xlink:href="#DejaVuSans-32" transform="translate(90.271484 0.78125)"/>
      </g>
     </g>
    </g>
    <g id="xtick_8">
     <g id="line2d_15">
      <path d="M 558.043906 240.83 
L 558.043906 29.022 
" clip-path="url(#pc7af98a1fe)" style="fill: none; stroke: #b0b0b0; stroke-width: 0.8; stroke-linecap: square"/>
     </g>
     <g id="line2d_16">
      <g>
       <use xlink:href="#medcd4db704" x="558.043906" y="240.83" style="stroke: #000000; stroke-width: 0.8"/>
      </g>
     </g>
     <g id="text_8">
      <!-- $3\pi/4$ -->
      <g transform="translate(546.943906 255.428437) scale(0.1 -0.1)">
       <use xlink:href="#DejaVuSans-33" transform="translate(0 0.78125)"/>
       <use xlink:href="#DejaVuSans-Oblique-3c0" transform="translate(63.623047 0.78125)"/>
       <use xlink:href="#DejaVuSans-2f" transform="translate(123.828125 0.78125)"/>
       <use xlink:href="#DejaVuSans-34" transform="translate(157.519531 0.78125)"/>
      </g>
     </g>
    </g>
    <g id="xtick_9">
     <g id="line2d_17">
      <path d="M 633.40875 240.83 
L 633.40875 29.022 
" clip-path="url(#pc7af98a1fe)" style="fill: none; stroke: #b0b0b0; stroke-width: 0.8; stroke-linecap: square"/>
     </g>
     <g id="line2d_18">
      <g>
       <use xlink:href="#medcd4db704" x="633.40875" y="240.83" style="stroke: #000000; stroke-width: 0.8"/>
      </g>
     </g>
     <g id="text_9">
      <!-- $\pi$ -->
      <g transform="translate(630.35875 255.428437) scale(0.1 -0.1)">
       <use xlink:href="#DejaVuSans-Oblique-3c0" transform="translate(0 0.3125)"/>
      </g>
     </g>
    </g>
    <g id="text_10">
     <!-- Normalized Angular Frequency $\hat{\omega}$ -->
     <g transform="translate(248.799375 270.708125) scale(0.1 -0.1)">
      <defs>
       <path id="DejaVuSans-4e" d="M 628 4666 
L 1478 4666 
L 3547 763 
L 3547 4666 
L 4159 4666 
L 4159 0 
L 3309 0 
L 1241 3903 
L 1241 0 
L 628 0 
L 628 4666 
z
" transform="scale(0.015625)"/>
       <path id="DejaVuSans-6f" d="M 1959 3097 
Q 1497 3097 1228 2736 
Q 959 2375 959 1747 
Q 959 1119 1226 758 
Q 1494 397 1959 397 
Q 2419 397 2687 759 
Q 2956 1122 2956 1747 
Q 2956 2369 2687 2733 
Q 2419 3097 1959 3097 
z
M 1959 3584 
Q 2709 3584 3137 3096 
Q 3566 2609 3566 1747 
Q 3566 888 3137 398 
Q 2709 -91 1959 -91 
Q 1206 -91 779 398 
Q 353 888 353 1747 
Q 353 2609 779 3096 
Q 1206 3584 1959 3584 
z
" transform="scale(0.015625)"/>
       <path id="DejaVuSans-72" d="M 2631 2963 
Q 2534 3019 2420 3045 
Q 2306 3072 2169 3072 
Q 1681 3072 1420 2755 
Q 1159 2438 1159 1844 
L 1159 0 
L 581 0 
L 581 3500 
L 1159 3500 
L 1159 2956 
Q 1341 3275 1631 3429 
Q 1922 3584 2338 3584 
Q 2397 3584 2469 3576 
Q 2541 3569 2628 3553 
L 2631 2963 
z
" transform="scale(0.015625)"/>
       <path id="DejaVuSans-6d" d="M 3328 2828 
Q 3544 3216 3844 3400 
Q 4144 3584 4550 3584 
Q 5097 3584 5394 3201 
Q 5691 2819 5691 2113 
L 5691 0 
L 5113 0 
L 5113 2094 
Q 5113 2597 4934 2840 
Q 4756 3084 4391 3084 
Q 3944 3084 3684 2787 
Q 3425 2491 3425 1978 
L 3425 0 
L 2847 0 
L 2847 2094 
Q 2847 2600 2669 2842 
Q 2491 3084 2119 3084 
Q 1678 3084 1418 2786 
Q 1159 2488 1159 1978 
L 1159 0 
L 581 0 
L 581 3500 
L 1159 3500 
L 1159 2956 
Q 1356 3278 1631 3431 
Q 1906 3584 2284 3584 
Q 2666 3584 2933 3390 
Q 3200 3197 3328 2828 
z
" transform="scale(0.015625)"/>
       <path id="DejaVuSans-61" d="M 2194 1759 
Q 1497 1759 1228 1600 
Q 959 1441 959 1056 
Q 959 750 1161 570 
Q 1363 391 1709 391 
Q 2188 391 2477 730 
Q 2766 1069 2766 1631 
L 2766 1759 
L 2194 1759 
z
M 3341 1997 
L 3341 0 
L 2766 0 
L 2766 531 
Q 2569 213 2275 61 
Q 1981 -91 1556 -91 
Q 1019 -91 701 211 
Q 384 513 384 1019 
Q 384 1609 779 1909 
Q 1175 2209 1959 2209 
L 2766 2209 
L 2766 2266 
Q 2766 2663 2505 2880 
Q 2244 3097 1772 3097 
Q 1472 3097 1187 3025 
Q 903 2953 641 2809 
L 641 3341 
Q 956 3463 1253 3523 
Q 1550 3584 1831 3584 
Q 2591 3584 2966 3190 
Q 3341 2797 3341 1997 
z
" transform="scale(0.015625)"/>
       <path id="DejaVuSans-6c" d="M 603 4863 
L 1178 4863 
L 1178 0 
L 603 0 
L 603 4863 
z
" transform="scale(0.015625)"/>
       <path id="DejaVuSans-69" d="M 603 3500 
L 1178 3500 
L 1178 0 
L 603 0 
L 603 3500 
z
M 603 4863 
L 1178 4863 
L 1178 4134 
L 603 4134 
L 603 4863 
z
" transform="scale(0.015625)"/>
       <path id="DejaVuSans-7a" d="M 353 3500 
L 3084 3500 
L 3084 2975 
L 922 459 
L 3084 459 
L 3084 0 
L 275 0 
L 275 525 
L 2438 3041 
L 353 3041 
L 353 3500 
z
" transform="scale(0.015625)"/>
       <path id="DejaVuSans-65" d="M 3597 1894 
L 3597 1613 
L 953 1613 
Q 991 1019 1311 708 
Q 1631 397 2203 397 
Q 2534 397 2845 478 
Q 3156 559 3463 722 
L 3463 178 
Q 3153 47 2828 -22 
Q 2503 -91 2169 -91 
Q 1331 -91 842 396 
Q 353 884 353 1716 
Q 353 2575 817 3079 
Q 1281 3584 2069 3584 
Q 2775 3584 3186 3129 
Q 3597 2675 3597 1894 
z
M 3022 2063 
Q 3016 2534 2758 2815 
Q 2500 3097 2075 3097 
Q 1594 3097 1305 2825 
Q 1016 2553 972 2059 
L 3022 2063 
z
" transform="scale(0.015625)"/>
       <path id="DejaVuSans-64" d="M 2906 2969 
L 2906 4863 
L 3481 4863 
L 3481 0 
L 2906 0 
L 2906 525 
Q 2725 213 2448 61 
Q 2172 -91 1784 -91 
Q 1150 -91 751 415 
Q 353 922 353 1747 
Q 353 2572 751 3078 
Q 1150 3584 1784 3584 
Q 2172 3584 2448 3432 
Q 2725 3281 2906 2969 
z
M 947 1747 
Q 947 1113 1208 752 
Q 1469 391 1925 391 
Q 2381 391 2643 752 
Q 2906 1113 2906 1747 
Q 2906 2381 2643 2742 
Q 2381 3103 1925 3103 
Q 1469 3103 1208 2742 
Q 947 2381 947 1747 
z
" transform="scale(0.015625)"/>
       <path id="DejaVuSans-20" transform="scale(0.015625)"/>
       <path id="DejaVuSans-41" d="M 2188 4044 
L 1331 1722 
L 3047 1722 
L 2188 4044 
z
M 1831 4666 
L 2547 4666 
L 4325 0 
L 3669 0 
L 3244 1197 
L 1141 1197 
L 716 0 
L 50 0 
L 1831 4666 
z
" transform="scale(0.015625)"/>
       <path id="DejaVuSans-6e" d="M 3513 2113 
L 3513 0 
L 2938 0 
L 2938 2094 
Q 2938 2591 2744 2837 
Q 2550 3084 2163 3084 
Q 1697 3084 1428 2787 
Q 1159 2491 1159 1978 
L 1159 0 
L 581 0 
L 581 3500 
L 1159 3500 
L 1159 2956 
Q 1366 3272 1645 3428 
Q 1925 3584 2291 3584 
Q 2894 3584 3203 3211 
Q 3513 2838 3513 2113 
z
" transform="scale(0.015625)"/>
       <path id="DejaVuSans-67" d="M 2906 1791 
Q 2906 2416 2648 2759 
Q 2391 3103 1925 3103 
Q 1463 3103 1205 2759 
Q 947 2416 947 1791 
Q 947 1169 1205 825 
Q 1463 481 1925 481 
Q 2391 481 2648 825 
Q 2906 1169 2906 1791 
z
M 3481 434 
Q 3481 -459 3084 -895 
Q 2688 -1331 1869 -1331 
Q 1566 -1331 1297 -1286 
Q 1028 -1241 775 -1147 
L 775 -588 
Q 1028 -725 1275 -790 
Q 1522 -856 1778 -856 
Q 2344 -856 2625 -561 
Q 2906 -266 2906 331 
L 2906 616 
Q 2728 306 2450 153 
Q 2172 0 1784 0 
Q 1141 0 747 490 
Q 353 981 353 1791 
Q 353 2603 747 3093 
Q 1141 3584 1784 3584 
Q 2172 3584 2450 3431 
Q 2728 3278 2906 2969 
L 2906 3500 
L 3481 3500 
L 3481 434 
z
" transform="scale(0.015625)"/>
       <path id="DejaVuSans-75" d="M 544 1381 
L 544 3500 
L 1119 3500 
L 1119 1403 
Q 1119 906 1312 657 
Q 1506 409 1894 409 
Q 2359 409 2629 706 
Q 2900 1003 2900 1516 
L 2900 3500 
L 3475 3500 
L 3475 0 
L 2900 0 
L 2900 538 
Q 2691 219 2414 64 
Q 2138 -91 1772 -91 
Q 1169 -91 856 284 
Q 544 659 544 1381 
z
M 1991 3584 
L 1991 3584 
z
" transform="scale(0.015625)"/>
       <path id="DejaVuSans-46" d="M 628 4666 
L 3309 4666 
L 3309 4134 
L 1259 4134 
L 1259 2759 
L 3109 2759 
L 3109 2228 
L 1259 2228 
L 1259 0 
L 628 0 
L 628 4666 
z
" transform="scale(0.015625)"/>
       <path id="DejaVuSans-71" d="M 947 1747 
Q 947 1113 1208 752 
Q 1469 391 1925 391 
Q 2381 391 2643 752 
Q 2906 1113 2906 1747 
Q 2906 2381 2643 2742 
Q 2381 3103 1925 3103 
Q 1469 3103 1208 2742 
Q 947 2381 947 1747 
z
M 2906 525 
Q 2725 213 2448 61 
Q 2172 -91 1784 -91 
Q 1150 -91 751 415 
Q 353 922 353 1747 
Q 353 2572 751 3078 
Q 1150 3584 1784 3584 
Q 2172 3584 2448 3432 
Q 2725 3281 2906 2969 
L 2906 3500 
L 3481 3500 
L 3481 -1331 
L 2906 -1331 
L 2906 525 
z
" transform="scale(0.015625)"/>
       <path id="DejaVuSans-63" d="M 3122 3366 
L 3122 2828 
Q 2878 2963 2633 3030 
Q 2388 3097 2138 3097 
Q 1578 3097 1268 2742 
Q 959 2388 959 1747 
Q 959 1106 1268 751 
Q 1578 397 2138 397 
Q 2388 397 2633 464 
Q 2878 531 3122 666 
L 3122 134 
Q 2881 22 2623 -34 
Q 2366 -91 2075 -91 
Q 1284 -91 818 406 
Q 353 903 353 1747 
Q 353 2603 823 3093 
Q 1294 3584 2113 3584 
Q 2378 3584 2631 3529 
Q 2884 3475 3122 3366 
z
" transform="scale(0.015625)"/>
       <path id="DejaVuSans-79" d="M 2059 -325 
Q 1816 -950 1584 -1140 
Q 1353 -1331 966 -1331 
L 506 -1331 
L 506 -850 
L 844 -850 
Q 1081 -850 1212 -737 
Q 1344 -625 1503 -206 
L 1606 56 
L 191 3500 
L 800 3500 
L 1894 763 
L 2988 3500 
L 3597 3500 
L 2059 -325 
z
" transform="scale(0.015625)"/>
       <path id="DejaVuSans-302" d="M -1831 5119 
L -1369 5119 
L -603 3944 
L -1038 3944 
L -1600 4709 
L -2163 3944 
L -2597 3944 
L -1831 5119 
z
M -1600 3584 
L -1600 3584 
z
" transform="scale(0.015625)"/>
       <path id="DejaVuSans-Oblique-3c9" d="M 1369 -91 
Q 72 -91 434 1766 
Q 575 2500 1256 3500 
L 1875 3500 
Q 1231 2500 1088 1750 
Q 819 397 1519 397 
Q 2166 397 2478 2078 
L 3009 2078 
Q 2669 388 3316 397 
Q 4013 403 4275 1750 
Q 4419 2500 4169 3500 
L 4788 3500 
Q 5075 2500 4934 1766 
Q 4578 -94 3278 -91 
Q 2428 -88 2503 844 
Q 2194 -91 1369 -91 
z
" transform="scale(0.015625)"/>
      </defs>
      <use xlink:href="#DejaVuSans-4e" transform="translate(0 0.828125)"/>
      <use xlink:href="#DejaVuSans-6f" transform="translate(74.804688 0.828125)"/>
      <use xlink:href="#DejaVuSans-72" transform="translate(135.986328 0.828125)"/>
      <use xlink:href="#DejaVuSans-6d" transform="translate(177.099609 0.828125)"/>
      <use xlink:href="#DejaVuSans-61" transform="translate(274.511719 0.828125)"/>
      <use xlink:href="#DejaVuSans-6c" transform="translate(335.791016 0.828125)"/>
      <use xlink:href="#DejaVuSans-69" transform="translate(363.574219 0.828125)"/>
      <use xlink:href="#DejaVuSans-7a" transform="translate(391.357422 0.828125)"/>
      <use xlink:href="#DejaVuSans-65" transform="translate(443.847656 0.828125)"/>
      <use xlink:href="#DejaVuSans-64" transform="translate(505.371094 0.828125)"/>
      <use xlink:href="#DejaVuSans-20" transform="translate(568.847656 0.828125)"/>
      <use xlink:href="#DejaVuSans-41" transform="translate(600.634766 0.828125)"/>
      <use xlink:href="#DejaVuSans-6e" transform="translate(669.042969 0.828125)"/>
      <use xlink:href="#DejaVuSans-67" transform="translate(732.421875 0.828125)"/>
      <use xlink:href="#DejaVuSans-75" transform="translate(795.898438 0.828125)"/>
      <use xlink:href="#DejaVuSans-6c" transform="translate(859.277344 0.828125)"/>
      <use xlink:href="#DejaVuSans-61" transform="translate(887.060547 0.828125)"/>
      <use xlink:href="#DejaVuSans-72" transform="translate(948.339844 0.828125)"/>
      <use xlink:href="#DejaVuSans-20" transform="translate(989.453125 0.828125)"/>
      <use xlink:href="#DejaVuSans-46" transform="translate(1021.240234 0.828125)"/>
      <use xlink:href="#DejaVuSans-72" transform="translate(1078.759766 0.828125)"/>
      <use xlink:href="#DejaVuSans-65" transform="translate(1119.873047 0.828125)"/>
      <use xlink:href="#DejaVuSans-71" transform="translate(1181.396484 0.828125)"/>
      <use xlink:href="#DejaVuSans-75" transform="translate(1244.873047 0.828125)"/>
      <use xlink:href="#DejaVuSans-65" transform="translate(1308.251953 0.828125)"/>
      <use xlink:href="#DejaVuSans-6e" transform="translate(1369.775391 0.828125)"/>
      <use xlink:href="#DejaVuSans-63" transform="translate(1433.154297 0.828125)"/>
      <use xlink:href="#DejaVuSans-79" transform="translate(1488.134766 0.828125)"/>
      <use xlink:href="#DejaVuSans-20" transform="translate(1547.314453 0.828125)"/>
      <use xlink:href="#DejaVuSans-302" transform="translate(1656.614746 12.015625)"/>
      <use xlink:href="#DejaVuSans-Oblique-3c9" transform="translate(1579.101562 0.828125)"/>
     </g>
    </g>
   </g>
   <g id="matplotlib.axis_2">
    <g id="ytick_1">
     <g id="line2d_19">
      <path d="M 30.49 232.184515 
L 633.40875 232.184515 
" clip-path="url(#pc7af98a1fe)" style="fill: none; stroke: #b0b0b0; stroke-width: 0.8; stroke-linecap: square"/>
     </g>
     <g id="line2d_20">
      <defs>
       <path id="m30f72fed3c" d="M 0 0 
L -3.5 0 
" style="stroke: #000000; stroke-width: 0.8"/>
      </defs>
      <g>
       <use xlink:href="#m30f72fed3c" x="30.49" y="232.184515" style="stroke: #000000; stroke-width: 0.8"/>
      </g>
     </g>
     <g id="text_11">
      <!-- 0 -->
      <g transform="translate(17.1275 235.983733) scale(0.1 -0.1)">
       <use xlink:href="#DejaVuSans-30"/>
      </g>
     </g>
    </g>
    <g id="ytick_2">
     <g id="line2d_21">
      <path d="M 30.49 211.868263 
L 633.40875 211.868263 
" clip-path="url(#pc7af98a1fe)" style="fill: none; stroke: #b0b0b0; stroke-width: 0.8; stroke-linecap: square"/>
     </g>
     <g id="line2d_22">
      <g>
       <use xlink:href="#m30f72fed3c" x="30.49" y="211.868263" style="stroke: #000000; stroke-width: 0.8"/>
      </g>
     </g>
     <g id="text_12">
      <!-- 1 -->
      <g transform="translate(17.1275 215.667482) scale(0.1 -0.1)">
       <defs>
        <path id="DejaVuSans-31" d="M 794 531 
L 1825 531 
L 1825 4091 
L 703 3866 
L 703 4441 
L 1819 4666 
L 2450 4666 
L 2450 531 
L 3481 531 
L 3481 0 
L 794 0 
L 794 531 
z
" transform="scale(0.015625)"/>
       </defs>
       <use xlink:href="#DejaVuSans-31"/>
      </g>
     </g>
    </g>
    <g id="ytick_3">
     <g id="line2d_23">
      <path d="M 30.49 191.552012 
L 633.40875 191.552012 
" clip-path="url(#pc7af98a1fe)" style="fill: none; stroke: #b0b0b0; stroke-width: 0.8; stroke-linecap: square"/>
     </g>
     <g id="line2d_24">
      <g>
       <use xlink:href="#m30f72fed3c" x="30.49" y="191.552012" style="stroke: #000000; stroke-width: 0.8"/>
      </g>
     </g>
     <g id="text_13">
      <!-- 2 -->
      <g transform="translate(17.1275 195.351231) scale(0.1 -0.1)">
       <use xlink:href="#DejaVuSans-32"/>
      </g>
     </g>
    </g>
    <g id="ytick_4">
     <g id="line2d_25">
      <path d="M 30.49 171.23576 
L 633.40875 171.23576 
" clip-path="url(#pc7af98a1fe)" style="fill: none; stroke: #b0b0b0; stroke-width: 0.8; stroke-linecap: square"/>
     </g>
     <g id="line2d_26">
      <g>
       <use xlink:href="#m30f72fed3c" x="30.49" y="171.23576" style="stroke: #000000; stroke-width: 0.8"/>
      </g>
     </g>
     <g id="text_14">
      <!-- 3 -->
      <g transform="translate(17.1275 175.034979) scale(0.1 -0.1)">
       <use xlink:href="#DejaVuSans-33"/>
      </g>
     </g>
    </g>
    <g id="ytick_5">
     <g id="line2d_27">
      <path d="M 30.49 150.919509 
L 633.40875 150.919509 
" clip-path="url(#pc7af98a1fe)" style="fill: none; stroke: #b0b0b0; stroke-width: 0.8; stroke-linecap: square"/>
     </g>
     <g id="line2d_28">
      <g>
       <use xlink:href="#m30f72fed3c" x="30.49" y="150.919509" style="stroke: #000000; stroke-width: 0.8"/>
      </g>
     </g>
     <g id="text_15">
      <!-- 4 -->
      <g transform="translate(17.1275 154.718728) scale(0.1 -0.1)">
       <use xlink:href="#DejaVuSans-34"/>
      </g>
     </g>
    </g>
    <g id="ytick_6">
     <g id="line2d_29">
      <path d="M 30.49 130.603257 
L 633.40875 130.603257 
" clip-path="url(#pc7af98a1fe)" style="fill: none; stroke: #b0b0b0; stroke-width: 0.8; stroke-linecap: square"/>
     </g>
     <g id="line2d_30">
      <g>
       <use xlink:href="#m30f72fed3c" x="30.49" y="130.603257" style="stroke: #000000; stroke-width: 0.8"/>
      </g>
     </g>
     <g id="text_16">
      <!-- 5 -->
      <g transform="translate(17.1275 134.402476) scale(0.1 -0.1)">
       <defs>
        <path id="DejaVuSans-35" d="M 691 4666 
L 3169 4666 
L 3169 4134 
L 1269 4134 
L 1269 2991 
Q 1406 3038 1543 3061 
Q 1681 3084 1819 3084 
Q 2600 3084 3056 2656 
Q 3513 2228 3513 1497 
Q 3513 744 3044 326 
Q 2575 -91 1722 -91 
Q 1428 -91 1123 -41 
Q 819 9 494 109 
L 494 744 
Q 775 591 1075 516 
Q 1375 441 1709 441 
Q 2250 441 2565 725 
Q 2881 1009 2881 1497 
Q 2881 1984 2565 2268 
Q 2250 2553 1709 2553 
Q 1456 2553 1204 2497 
Q 953 2441 691 2322 
L 691 4666 
z
" transform="scale(0.015625)"/>
       </defs>
       <use xlink:href="#DejaVuSans-35"/>
      </g>
     </g>
    </g>
    <g id="ytick_7">
     <g id="line2d_31">
      <path d="M 30.49 110.287006 
L 633.40875 110.287006 
" clip-path="url(#pc7af98a1fe)" style="fill: none; stroke: #b0b0b0; stroke-width: 0.8; stroke-linecap: square"/>
     </g>
     <g id="line2d_32">
      <g>
       <use xlink:href="#m30f72fed3c" x="30.49" y="110.287006" style="stroke: #000000; stroke-width: 0.8"/>
      </g>
     </g>
     <g id="text_17">
      <!-- 6 -->
      <g transform="translate(17.1275 114.086225) scale(0.1 -0.1)">
       <defs>
        <path id="DejaVuSans-36" d="M 2113 2584 
Q 1688 2584 1439 2293 
Q 1191 2003 1191 1497 
Q 1191 994 1439 701 
Q 1688 409 2113 409 
Q 2538 409 2786 701 
Q 3034 994 3034 1497 
Q 3034 2003 2786 2293 
Q 2538 2584 2113 2584 
z
M 3366 4563 
L 3366 3988 
Q 3128 4100 2886 4159 
Q 2644 4219 2406 4219 
Q 1781 4219 1451 3797 
Q 1122 3375 1075 2522 
Q 1259 2794 1537 2939 
Q 1816 3084 2150 3084 
Q 2853 3084 3261 2657 
Q 3669 2231 3669 1497 
Q 3669 778 3244 343 
Q 2819 -91 2113 -91 
Q 1303 -91 875 529 
Q 447 1150 447 2328 
Q 447 3434 972 4092 
Q 1497 4750 2381 4750 
Q 2619 4750 2861 4703 
Q 3103 4656 3366 4563 
z
" transform="scale(0.015625)"/>
       </defs>
       <use xlink:href="#DejaVuSans-36"/>
      </g>
     </g>
    </g>
    <g id="ytick_8">
     <g id="line2d_33">
      <path d="M 30.49 89.970754 
L 633.40875 89.970754 
" clip-path="url(#pc7af98a1fe)" style="fill: none; stroke: #b0b0b0; stroke-width: 0.8; stroke-linecap: square"/>
     </g>
     <g id="line2d_34">
      <g>
       <use xlink:href="#m30f72fed3c" x="30.49" y="89.970754" style="stroke: #000000; stroke-width: 0.8"/>
      </g>
     </g>
     <g id="text_18">
      <!-- 7 -->
      <g transform="translate(17.1275 93.769973) scale(0.1 -0.1)">
       <defs>
        <path id="DejaVuSans-37" d="M 525 4666 
L 3525 4666 
L 3525 4397 
L 1831 0 
L 1172 0 
L 2766 4134 
L 525 4134 
L 525 4666 
z
" transform="scale(0.015625)"/>
       </defs>
       <use xlink:href="#DejaVuSans-37"/>
      </g>
     </g>
    </g>
    <g id="ytick_9">
     <g id="line2d_35">
      <path d="M 30.49 69.654503 
L 633.40875 69.654503 
" clip-path="url(#pc7af98a1fe)" style="fill: none; stroke: #b0b0b0; stroke-width: 0.8; stroke-linecap: square"/>
     </g>
     <g id="line2d_36">
      <g>
       <use xlink:href="#m30f72fed3c" x="30.49" y="69.654503" style="stroke: #000000; stroke-width: 0.8"/>
      </g>
     </g>
     <g id="text_19">
      <!-- 8 -->
      <g transform="translate(17.1275 73.453722) scale(0.1 -0.1)">
       <defs>
        <path id="DejaVuSans-38" d="M 2034 2216 
Q 1584 2216 1326 1975 
Q 1069 1734 1069 1313 
Q 1069 891 1326 650 
Q 1584 409 2034 409 
Q 2484 409 2743 651 
Q 3003 894 3003 1313 
Q 3003 1734 2745 1975 
Q 2488 2216 2034 2216 
z
M 1403 2484 
Q 997 2584 770 2862 
Q 544 3141 544 3541 
Q 544 4100 942 4425 
Q 1341 4750 2034 4750 
Q 2731 4750 3128 4425 
Q 3525 4100 3525 3541 
Q 3525 3141 3298 2862 
Q 3072 2584 2669 2484 
Q 3125 2378 3379 2068 
Q 3634 1759 3634 1313 
Q 3634 634 3220 271 
Q 2806 -91 2034 -91 
Q 1263 -91 848 271 
Q 434 634 434 1313 
Q 434 1759 690 2068 
Q 947 2378 1403 2484 
z
M 1172 3481 
Q 1172 3119 1398 2916 
Q 1625 2713 2034 2713 
Q 2441 2713 2670 2916 
Q 2900 3119 2900 3481 
Q 2900 3844 2670 4047 
Q 2441 4250 2034 4250 
Q 1625 4250 1398 4047 
Q 1172 3844 1172 3481 
z
" transform="scale(0.015625)"/>
       </defs>
       <use xlink:href="#DejaVuSans-38"/>
      </g>
     </g>
    </g>
    <g id="ytick_10">
     <g id="line2d_37">
      <path d="M 30.49 49.338251 
L 633.40875 49.338251 
" clip-path="url(#pc7af98a1fe)" style="fill: none; stroke: #b0b0b0; stroke-width: 0.8; stroke-linecap: square"/>
     </g>
     <g id="line2d_38">
      <g>
       <use xlink:href="#m30f72fed3c" x="30.49" y="49.338251" style="stroke: #000000; stroke-width: 0.8"/>
      </g>
     </g>
     <g id="text_20">
      <!-- 9 -->
      <g transform="translate(17.1275 53.13747) scale(0.1 -0.1)">
       <defs>
        <path id="DejaVuSans-39" d="M 703 97 
L 703 672 
Q 941 559 1184 500 
Q 1428 441 1663 441 
Q 2288 441 2617 861 
Q 2947 1281 2994 2138 
Q 2813 1869 2534 1725 
Q 2256 1581 1919 1581 
Q 1219 1581 811 2004 
Q 403 2428 403 3163 
Q 403 3881 828 4315 
Q 1253 4750 1959 4750 
Q 2769 4750 3195 4129 
Q 3622 3509 3622 2328 
Q 3622 1225 3098 567 
Q 2575 -91 1691 -91 
Q 1453 -91 1209 -44 
Q 966 3 703 97 
z
M 1959 2075 
Q 2384 2075 2632 2365 
Q 2881 2656 2881 3163 
Q 2881 3666 2632 3958 
Q 2384 4250 1959 4250 
Q 1534 4250 1286 3958 
Q 1038 3666 1038 3163 
Q 1038 2656 1286 2365 
Q 1534 2075 1959 2075 
z
" transform="scale(0.015625)"/>
       </defs>
       <use xlink:href="#DejaVuSans-39"/>
      </g>
     </g>
    </g>
    <g id="ytick_11">
     <g id="line2d_39">
      <path d="M 30.49 29.022 
L 633.40875 29.022 
" clip-path="url(#pc7af98a1fe)" style="fill: none; stroke: #b0b0b0; stroke-width: 0.8; stroke-linecap: square"/>
     </g>
     <g id="line2d_40">
      <g>
       <use xlink:href="#m30f72fed3c" x="30.49" y="29.022" style="stroke: #000000; stroke-width: 0.8"/>
      </g>
     </g>
     <g id="text_21">
      <!-- 10 -->
      <g transform="translate(10.765 32.821219) scale(0.1 -0.1)">
       <use xlink:href="#DejaVuSans-31"/>
       <use xlink:href="#DejaVuSans-30" transform="translate(63.623047 0)"/>
      </g>
     </g>
    </g>
   </g>
   <g id="line2d_41">
    <path d="M 30.49 211.868263 
L 31.667576 211.96953 
L 32.845151 212.272349 
L 34.022727 212.773784 
L 35.200303 213.46897 
L 36.966666 214.85978 
L 38.73303 216.640583 
L 40.499393 218.772492 
L 42.854545 222.07967 
L 45.209696 225.798879 
L 48.742423 231.830215 
L 49.331211 231.512121 
L 53.452726 224.481678 
L 55.807877 220.804012 
L 58.163029 217.558857 
L 59.929392 215.48806 
L 61.695756 213.781885 
L 63.462119 212.48013 
L 64.639695 211.852753 
L 65.817271 211.426139 
L 66.994846 211.205331 
L 68.172422 211.193399 
L 69.349998 211.391398 
L 70.527573 211.798353 
L 71.705149 212.411256 
L 72.882725 213.225088 
L 74.649088 214.80675 
L 76.415452 216.792701 
L 78.181815 219.142247 
L 80.536967 222.754841 
L 82.892118 226.790155 
L 85.836057 232.175938 
L 91.135148 222.443171 
L 93.490299 218.5328 
L 95.256663 215.910915 
L 97.023026 213.624534 
L 98.78939 211.728804 
L 99.966965 210.705749 
L 101.144541 209.889418 
L 102.322117 209.289793 
L 103.499692 208.914857 
L 104.677268 208.770499 
L 105.854844 208.860436 
L 107.032419 209.186164 
L 108.209995 209.746915 
L 109.387571 210.539648 
L 110.565146 211.559052 
L 111.742722 212.797573 
L 113.509086 215.04429 
L 115.275449 217.719812 
L 117.041813 220.772327 
L 119.396964 225.322326 
L 122.340903 231.544136 
L 122.929691 231.538112 
L 128.81757 218.806536 
L 131.172721 214.228551 
L 132.939084 211.171723 
L 134.705448 208.522595 
L 136.471812 206.350126 
L 137.649387 205.196859 
L 138.826963 204.297998 
L 140.004539 203.666893 
L 141.182114 203.314592 
L 142.35969 203.249703 
L 143.537266 203.478279 
L 144.714841 204.003717 
L 145.892417 204.826685 
L 147.069993 205.94507 
L 148.247568 207.353946 
L 149.425144 209.04557 
L 151.191508 212.089344 
L 152.957871 215.697807 
L 154.724235 219.810456 
L 157.079386 225.950334 
L 158.84575 230.935671 
L 159.434537 231.717979 
L 168.266355 205.847451 
L 170.621506 199.997032 
L 172.38787 196.231676 
L 174.154233 193.121116 
L 175.331809 191.461383 
L 176.509385 190.165271 
L 177.68696 189.258162 
L 178.864536 188.76303 
L 180.042112 188.700217 
L 180.6309 188.836519 
L 181.808475 189.454089 
L 182.986051 190.542073 
L 184.163627 192.110176 
L 185.341202 194.164746 
L 186.518778 196.708677 
L 187.696354 199.741339 
L 188.873929 203.258529 
L 190.640293 209.424792 
L 192.406656 216.621554 
L 194.17302 224.789758 
L 195.350596 230.737999 
L 195.939384 230.515753 
L 198.294535 217.19994 
L 201.238474 198.948446 
L 204.771201 175.48307 
L 211.836655 127.969783 
L 214.780594 109.814922 
L 217.135746 96.687623 
L 218.902109 87.868523 
L 220.668473 80.064846 
L 222.434836 73.383944 
L 223.612412 69.599806 
L 224.789988 66.378898 
L 225.967563 63.740739 
L 227.145139 61.701163 
L 228.322715 60.272206 
L 228.911503 59.789411 
L 229.500291 59.46202 
L 230.089078 59.290435 
L 230.677866 59.274809 
L 231.266654 59.415047 
L 231.855442 59.710804 
L 232.44423 60.161488 
L 233.621805 61.524034 
L 234.799381 63.49304 
L 235.976957 66.055016 
L 237.154532 69.192724 
L 238.332108 72.885312 
L 240.098472 79.41051 
L 241.864835 87.033052 
L 243.631199 95.642314 
L 245.98635 108.440731 
L 248.930289 126.10008 
L 253.051804 152.689046 
L 258.939683 190.898965 
L 261.883622 208.603304 
L 264.238773 221.543553 
L 266.005137 230.365829 
L 266.593925 231.249029 
L 268.360288 223.587058 
L 270.126652 216.876107 
L 271.893015 211.166093 
L 273.070591 207.932006 
L 274.248167 205.162311 
L 275.425742 202.858387 
L 276.603318 201.018061 
L 277.780894 199.635677 
L 278.958469 198.702191 
L 280.136045 198.205288 
L 281.313621 198.129527 
L 282.491196 198.456516 
L 283.668772 199.165098 
L 284.846348 200.231568 
L 286.023923 201.629901 
L 287.201499 203.332006 
L 288.967863 206.388906 
L 290.734226 209.954605 
L 293.089377 215.305195 
L 296.622104 224.049102 
L 299.566044 231.406832 
L 300.154832 231.532061 
L 302.509983 226.075771 
L 304.865134 221.205742 
L 306.631498 218.05376 
L 308.397861 215.405316 
L 309.575437 213.945936 
L 310.753013 212.746013 
L 311.930588 211.814669 
L 313.108164 211.158057 
L 314.28574 210.779342 
L 315.463315 210.678702 
L 316.640891 210.853361 
L 317.818467 211.29764 
L 318.996042 212.003047 
L 320.173618 212.958379 
L 321.351194 214.149858 
L 323.117557 216.343798 
L 324.883921 218.968157 
L 327.239072 223.008157 
L 330.183011 228.647543 
L 331.949375 232.184515 
L 336.07089 224.094521 
L 338.426041 219.926094 
L 340.192405 217.174216 
L 341.958768 214.829181 
L 343.725132 212.958379 
L 344.902708 212.003047 
L 346.080283 211.29764 
L 347.257859 210.853361 
L 348.435435 210.678702 
L 349.61301 210.779342 
L 350.790586 211.158057 
L 351.968162 211.814669 
L 353.145737 212.746013 
L 354.323313 213.945936 
L 355.500889 215.405316 
L 357.267252 218.05376 
L 359.033616 221.205742 
L 360.799979 224.795257 
L 363.155131 230.124735 
L 363.743918 231.532061 
L 364.332706 231.406832 
L 373.164524 209.954605 
L 374.930887 206.388906 
L 376.697251 203.332006 
L 377.874827 201.629901 
L 379.052402 200.231568 
L 380.229978 199.165098 
L 381.407554 198.456516 
L 382.585129 198.129527 
L 383.762705 198.205288 
L 384.940281 198.702191 
L 386.117856 199.635677 
L 387.295432 201.018061 
L 388.473008 202.858387 
L 389.650583 205.162311 
L 390.828159 207.932006 
L 392.005735 211.166093 
L 393.772098 216.876107 
L 395.538462 223.587058 
L 397.304825 231.249029 
L 397.893613 230.365829 
L 400.248765 218.427245 
L 402.603916 205.183795 
L 405.547855 187.199742 
L 410.258158 156.566157 
L 414.968461 126.10008 
L 417.9124 108.440731 
L 420.267551 95.642314 
L 422.033915 87.033052 
L 423.800278 79.41051 
L 425.566642 72.885312 
L 426.744218 69.192724 
L 427.921793 66.055016 
L 429.099369 63.49304 
L 430.276945 61.524034 
L 431.45452 60.161488 
L 432.043308 59.710804 
L 432.632096 59.415047 
L 433.220884 59.274809 
L 433.809672 59.290435 
L 434.398459 59.46202 
L 434.987247 59.789411 
L 435.576035 60.272206 
L 436.753611 61.701163 
L 437.931187 63.740739 
L 439.108762 66.378898 
L 440.286338 69.599806 
L 441.463914 73.383944 
L 443.230277 80.064846 
L 444.996641 87.868523 
L 446.763004 96.687623 
L 449.118156 109.814922 
L 451.473307 124.21217 
L 455.006034 147.426169 
L 463.249064 202.717177 
L 466.193003 220.649157 
L 467.959366 230.515753 
L 468.548154 230.737999 
L 470.314518 221.963443 
L 472.080881 214.11142 
L 473.847245 207.25246 
L 475.613608 201.439771 
L 476.791184 198.164095 
L 477.96876 195.375498 
L 479.146335 193.076389 
L 480.323911 191.265633 
L 481.501487 189.938595 
L 482.679062 189.087237 
L 483.856638 188.700217 
L 485.034214 188.76303 
L 486.21179 189.258162 
L 487.389365 190.165271 
L 488.566941 191.461383 
L 489.744517 193.121116 
L 490.922092 195.116907 
L 492.688456 198.675727 
L 494.454819 202.817651 
L 496.809971 209.051925 
L 499.75391 217.596728 
L 504.464213 231.717979 
L 505.053 230.935671 
L 507.99694 222.796735 
L 510.352091 217.016028 
L 512.118455 213.232141 
L 513.884818 209.994226 
L 515.651182 207.353946 
L 516.828757 205.94507 
L 518.006333 204.826685 
L 519.183909 204.003717 
L 520.361484 203.478279 
L 521.53906 203.249703 
L 522.716636 203.314592 
L 523.894211 203.666893 
L 525.071787 204.297998 
L 526.249363 205.196859 
L 527.426938 206.350126 
L 528.604514 207.742302 
L 530.370878 210.239817 
L 532.137241 213.168869 
L 534.492393 217.617173 
L 537.436332 223.780131 
L 540.969059 231.538112 
L 541.557847 231.544136 
L 545.090574 224.140922 
L 547.445725 219.716518 
L 549.212089 216.783327 
L 550.978452 214.245463 
L 552.744816 212.151481 
L 553.922391 211.021436 
L 555.099967 210.114563 
L 556.277543 209.437298 
L 557.455118 208.993821 
L 558.632694 208.786034 
L 559.81027 208.813572 
L 560.987845 209.073821 
L 562.165421 209.56197 
L 563.342997 210.271073 
L 564.520573 211.192135 
L 566.286936 212.946709 
L 568.0533 215.108639 
L 569.819663 217.625247 
L 572.174814 221.428513 
L 575.118754 226.679978 
L 578.062693 232.175938 
L 582.772996 223.729781 
L 585.128147 219.997983 
L 586.89451 217.537741 
L 588.660874 215.425642 
L 590.427238 213.705241 
L 591.604813 212.793447 
L 592.782389 212.079328 
L 593.959965 211.568896 
L 595.13754 211.26617 
L 596.315116 211.173142 
L 597.492692 211.28977 
L 598.670267 211.61399 
L 599.847843 212.141738 
L 601.025419 212.867001 
L 602.791782 214.30747 
L 604.558146 216.140009 
L 606.324509 218.322141 
L 608.679661 221.688368 
L 611.6236 226.437431 
L 614.567539 231.512121 
L 615.156327 231.830215 
L 619.277842 224.838142 
L 621.632993 221.208907 
L 623.988145 218.025572 
L 625.754508 216.005882 
L 627.520872 214.351163 
L 629.287235 213.097536 
L 630.464811 212.498499 
L 631.642386 212.095884 
L 632.819962 211.893595 
L 633.40875 211.868263 
L 633.40875 211.868263 
" clip-path="url(#pc7af98a1fe)" style="fill: none; stroke: #1f77b4; stroke-width: 1.5; stroke-linecap: square"/>
   </g>
   <g id="LineCollection_1">
    <path d="M 30.49 232.184515 
L 30.49 211.868263 
" clip-path="url(#pc7af98a1fe)" style="fill: none; stroke: #d62728; stroke-width: 1.5"/>
    <path d="M 68.172422 232.184515 
L 68.172422 211.193399 
" clip-path="url(#pc7af98a1fe)" style="fill: none; stroke: #d62728; stroke-width: 1.5"/>
    <path d="M 105.854844 232.184515 
L 105.854844 208.860436 
" clip-path="url(#pc7af98a1fe)" style="fill: none; stroke: #d62728; stroke-width: 1.5"/>
    <path d="M 143.537266 232.184515 
L 143.537266 203.478279 
" clip-path="url(#pc7af98a1fe)" style="fill: none; stroke: #d62728; stroke-width: 1.5"/>
    <path d="M 181.219687 232.184515 
L 181.219687 189.087237 
" clip-path="url(#pc7af98a1fe)" style="fill: none; stroke: #d62728; stroke-width: 1.5"/>
    <path d="M 218.902109 232.184515 
L 218.902109 87.868523 
" clip-path="url(#pc7af98a1fe)" style="fill: none; stroke: #d62728; stroke-width: 1.5"/>
    <path d="M 256.584531 232.184515 
L 256.584531 175.875208 
" clip-path="url(#pc7af98a1fe)" style="fill: none; stroke: #d62728; stroke-width: 1.5"/>
    <path d="M 294.266953 232.184515 
L 294.266953 218.158699 
" clip-path="url(#pc7af98a1fe)" style="fill: none; stroke: #d62728; stroke-width: 1.5"/>
    <path d="M 331.949375 232.184515 
L 331.949375 232.184515 
" clip-path="url(#pc7af98a1fe)" style="fill: none; stroke: #d62728; stroke-width: 1.5"/>
    <path d="M 369.631797 232.184515 
L 369.631797 218.158699 
" clip-path="url(#pc7af98a1fe)" style="fill: none; stroke: #d62728; stroke-width: 1.5"/>
    <path d="M 407.314219 232.184515 
L 407.314219 175.875208 
" clip-path="url(#pc7af98a1fe)" style="fill: none; stroke: #d62728; stroke-width: 1.5"/>
    <path d="M 444.996641 232.184515 
L 444.996641 87.868523 
" clip-path="url(#pc7af98a1fe)" style="fill: none; stroke: #d62728; stroke-width: 1.5"/>
    <path d="M 482.679062 232.184515 
L 482.679062 189.087237 
" clip-path="url(#pc7af98a1fe)" style="fill: none; stroke: #d62728; stroke-width: 1.5"/>
    <path d="M 520.361484 232.184515 
L 520.361484 203.478279 
" clip-path="url(#pc7af98a1fe)" style="fill: none; stroke: #d62728; stroke-width: 1.5"/>
    <path d="M 558.043906 232.184515 
L 558.043906 208.860436 
" clip-path="url(#pc7af98a1fe)" style="fill: none; stroke: #d62728; stroke-width: 1.5"/>
    <path d="M 595.726328 232.184515 
L 595.726328 211.193399 
" clip-path="url(#pc7af98a1fe)" style="fill: none; stroke: #d62728; stroke-width: 1.5"/>
   </g>
   <g id="line2d_42">
    <defs>
     <path id="m0a0f78e8c1" d="M 0 3 
C 0.795609 3 1.55874 2.683901 2.12132 2.12132 
C 2.683901 1.55874 3 0.795609 3 0 
C 3 -0.795609 2.683901 -1.55874 2.12132 -2.12132 
C 1.55874 -2.683901 0.795609 -3 0 -3 
C -0.795609 -3 -1.55874 -2.683901 -2.12132 -2.12132 
C -2.683901 -1.55874 -3 -0.795609 -3 0 
C -3 0.795609 -2.683901 1.55874 -2.12132 2.12132 
C -1.55874 2.683901 -0.795609 3 0 3 
z
" style="stroke: #d62728"/>
    </defs>
    <g clip-path="url(#pc7af98a1fe)">
     <use xlink:href="#m0a0f78e8c1" x="30.49" y="211.868263" style="fill: #d62728; stroke: #d62728"/>
     <use xlink:href="#m0a0f78e8c1" x="68.172422" y="211.193399" style="fill: #d62728; stroke: #d62728"/>
     <use xlink:href="#m0a0f78e8c1" x="105.854844" y="208.860436" style="fill: #d62728; stroke: #d62728"/>
     <use xlink:href="#m0a0f78e8c1" x="143.537266" y="203.478279" style="fill: #d62728; stroke: #d62728"/>
     <use xlink:href="#m0a0f78e8c1" x="181.219687" y="189.087237" style="fill: #d62728; stroke: #d62728"/>
     <use xlink:href="#m0a0f78e8c1" x="218.902109" y="87.868523" style="fill: #d62728; stroke: #d62728"/>
     <use xlink:href="#m0a0f78e8c1" x="256.584531" y="175.875208" style="fill: #d62728; stroke: #d62728"/>
     <use xlink:href="#m0a0f78e8c1" x="294.266953" y="218.158699" style="fill: #d62728; stroke: #d62728"/>
     <use xlink:href="#m0a0f78e8c1" x="331.949375" y="232.184515" style="fill: #d62728; stroke: #d62728"/>
     <use xlink:href="#m0a0f78e8c1" x="369.631797" y="218.158699" style="fill: #d62728; stroke: #d62728"/>
     <use xlink:href="#m0a0f78e8c1" x="407.314219" y="175.875208" style="fill: #d62728; stroke: #d62728"/>
     <use xlink:href="#m0a0f78e8c1" x="444.996641" y="87.868523" style="fill: #d62728; stroke: #d62728"/>
     <use xlink:href="#m0a0f78e8c1" x="482.679062" y="189.087237" style="fill: #d62728; stroke: #d62728"/>
     <use xlink:href="#m0a0f78e8c1" x="520.361484" y="203.478279" style="fill: #d62728; stroke: #d62728"/>
     <use xlink:href="#m0a0f78e8c1" x="558.043906" y="208.860436" style="fill: #d62728; stroke: #d62728"/>
     <use xlink:href="#m0a0f78e8c1" x="595.726328" y="211.193399" style="fill: #d62728; stroke: #d62728"/>
    </g>
   </g>
   <g id="line2d_43">
    <path d="M 30.49 232.184515 
L 633.40875 232.184515 
" clip-path="url(#pc7af98a1fe)" style="fill: none; stroke: #808080; stroke-width: 1.5; stroke-linecap: square"/>
   </g>
   <g id="patch_3">
    <path d="M 30.49 240.83 
L 30.49 29.022 
" style="fill: none; stroke: #000000; stroke-width: 0.8; stroke-linejoin: miter; stroke-linecap: square"/>
   </g>
   <g id="patch_4">
    <path d="M 633.40875 240.83 
L 633.40875 29.022 
" style="fill: none; stroke: #000000; stroke-width: 0.8; stroke-linejoin: miter; stroke-linecap: square"/>
   </g>
   <g id="patch_5">
    <path d="M 30.49 240.83 
L 633.40875 240.83 
" style="fill: none; stroke: #000000; stroke-width: 0.8; stroke-linejoin: miter; stroke-linecap: square"/>
   </g>
   <g id="patch_6">
    <path d="M 30.49 29.022 
L 633.40875 29.022 
" style="fill: none; stroke: #000000; stroke-width: 0.8; stroke-linejoin: miter; stroke-linecap: square"/>
   </g>
   <g id="text_22">
    <!-- 16-point DTFT of $x[n] = \cos\left( \frac{\pi}{3} \cdot n \right)$ -->
    <g transform="translate(232.349375 23.022) scale(0.12 -0.12)">
     <defs>
      <path id="DejaVuSans-2d" d="M 313 2009 
L 1997 2009 
L 1997 1497 
L 313 1497 
L 313 2009 
z
" transform="scale(0.015625)"/>
      <path id="DejaVuSans-70" d="M 1159 525 
L 1159 -1331 
L 581 -1331 
L 581 3500 
L 1159 3500 
L 1159 2969 
Q 1341 3281 1617 3432 
Q 1894 3584 2278 3584 
Q 2916 3584 3314 3078 
Q 3713 2572 3713 1747 
Q 3713 922 3314 415 
Q 2916 -91 2278 -91 
Q 1894 -91 1617 61 
Q 1341 213 1159 525 
z
M 3116 1747 
Q 3116 2381 2855 2742 
Q 2594 3103 2138 3103 
Q 1681 3103 1420 2742 
Q 1159 2381 1159 1747 
Q 1159 1113 1420 752 
Q 1681 391 2138 391 
Q 2594 391 2855 752 
Q 3116 1113 3116 1747 
z
" transform="scale(0.015625)"/>
      <path id="DejaVuSans-74" d="M 1172 4494 
L 1172 3500 
L 2356 3500 
L 2356 3053 
L 1172 3053 
L 1172 1153 
Q 1172 725 1289 603 
Q 1406 481 1766 481 
L 2356 481 
L 2356 0 
L 1766 0 
Q 1100 0 847 248 
Q 594 497 594 1153 
L 594 3053 
L 172 3053 
L 172 3500 
L 594 3500 
L 594 4494 
L 1172 4494 
z
" transform="scale(0.015625)"/>
      <path id="DejaVuSans-44" d="M 1259 4147 
L 1259 519 
L 2022 519 
Q 2988 519 3436 956 
Q 3884 1394 3884 2338 
Q 3884 3275 3436 3711 
Q 2988 4147 2022 4147 
L 1259 4147 
z
M 628 4666 
L 1925 4666 
Q 3281 4666 3915 4102 
Q 4550 3538 4550 2338 
Q 4550 1131 3912 565 
Q 3275 0 1925 0 
L 628 0 
L 628 4666 
z
" transform="scale(0.015625)"/>
      <path id="DejaVuSans-54" d="M -19 4666 
L 3928 4666 
L 3928 4134 
L 2272 4134 
L 2272 0 
L 1638 0 
L 1638 4134 
L -19 4134 
L -19 4666 
z
" transform="scale(0.015625)"/>
      <path id="DejaVuSans-66" d="M 2375 4863 
L 2375 4384 
L 1825 4384 
Q 1516 4384 1395 4259 
Q 1275 4134 1275 3809 
L 1275 3500 
L 2222 3500 
L 2222 3053 
L 1275 3053 
L 1275 0 
L 697 0 
L 697 3053 
L 147 3053 
L 147 3500 
L 697 3500 
L 697 3744 
Q 697 4328 969 4595 
Q 1241 4863 1831 4863 
L 2375 4863 
z
" transform="scale(0.015625)"/>
      <path id="DejaVuSans-Oblique-78" d="M 3841 3500 
L 2234 1784 
L 3219 0 
L 2559 0 
L 1819 1388 
L 531 0 
L -166 0 
L 1556 1844 
L 641 3500 
L 1300 3500 
L 1972 2234 
L 3144 3500 
L 3841 3500 
z
" transform="scale(0.015625)"/>
      <path id="DejaVuSans-5b" d="M 550 4863 
L 1875 4863 
L 1875 4416 
L 1125 4416 
L 1125 -397 
L 1875 -397 
L 1875 -844 
L 550 -844 
L 550 4863 
z
" transform="scale(0.015625)"/>
      <path id="DejaVuSans-Oblique-6e" d="M 3566 2113 
L 3156 0 
L 2578 0 
L 2988 2091 
Q 3016 2238 3031 2350 
Q 3047 2463 3047 2528 
Q 3047 2791 2881 2937 
Q 2716 3084 2419 3084 
Q 1956 3084 1622 2776 
Q 1288 2469 1184 1941 
L 800 0 
L 225 0 
L 903 3500 
L 1478 3500 
L 1363 2950 
Q 1603 3253 1940 3418 
Q 2278 3584 2650 3584 
Q 3113 3584 3367 3334 
Q 3622 3084 3622 2631 
Q 3622 2519 3608 2391 
Q 3594 2263 3566 2113 
z
" transform="scale(0.015625)"/>
      <path id="DejaVuSans-5d" d="M 1947 4863 
L 1947 -844 
L 622 -844 
L 622 -397 
L 1369 -397 
L 1369 4416 
L 622 4416 
L 622 4863 
L 1947 4863 
z
" transform="scale(0.015625)"/>
      <path id="DejaVuSans-3d" d="M 678 2906 
L 4684 2906 
L 4684 2381 
L 678 2381 
L 678 2906 
z
M 678 1631 
L 4684 1631 
L 4684 1100 
L 678 1100 
L 678 1631 
z
" transform="scale(0.015625)"/>
      <path id="DejaVuSans-73" d="M 2834 3397 
L 2834 2853 
Q 2591 2978 2328 3040 
Q 2066 3103 1784 3103 
Q 1356 3103 1142 2972 
Q 928 2841 928 2578 
Q 928 2378 1081 2264 
Q 1234 2150 1697 2047 
L 1894 2003 
Q 2506 1872 2764 1633 
Q 3022 1394 3022 966 
Q 3022 478 2636 193 
Q 2250 -91 1575 -91 
Q 1294 -91 989 -36 
Q 684 19 347 128 
L 347 722 
Q 666 556 975 473 
Q 1284 391 1588 391 
Q 1994 391 2212 530 
Q 2431 669 2431 922 
Q 2431 1156 2273 1281 
Q 2116 1406 1581 1522 
L 1381 1569 
Q 847 1681 609 1914 
Q 372 2147 372 2553 
Q 372 3047 722 3315 
Q 1072 3584 1716 3584 
Q 2034 3584 2315 3537 
Q 2597 3491 2834 3397 
z
" transform="scale(0.015625)"/>
      <path id="STIXSizeOneSym-Regular-28" d="M 2445 -858 
L 2445 -1050 
Q 1728 -371 1309 630 
Q 890 1632 890 2886 
Q 890 4122 1309 5136 
Q 1728 6150 2445 6822 
L 2445 6630 
Q 1408 5363 1408 2886 
Q 1408 410 2445 -858 
z
" transform="scale(0.015625)"/>
      <path id="DejaVuSans-22c5" d="M 684 2619 
L 1344 2619 
L 1344 1825 
L 684 1825 
L 684 2619 
z
" transform="scale(0.015625)"/>
      <path id="STIXSizeOneSym-Regular-29" d="M 550 6630 
L 550 6822 
Q 1267 6144 1686 5142 
Q 2106 4141 2106 2886 
Q 2106 1651 1686 636 
Q 1267 -378 550 -1050 
L 550 -858 
Q 1587 410 1587 2886 
Q 1587 5363 550 6630 
z
" transform="scale(0.015625)"/>
     </defs>
     <use xlink:href="#DejaVuSans-31" transform="translate(0 0.167187)"/>
     <use xlink:href="#DejaVuSans-36" transform="translate(63.623047 0.167187)"/>
     <use xlink:href="#DejaVuSans-2d" transform="translate(127.246094 0.167187)"/>
     <use xlink:href="#DejaVuSans-70" transform="translate(163.330078 0.167187)"/>
     <use xlink:href="#DejaVuSans-6f" transform="translate(226.806641 0.167187)"/>
     <use xlink:href="#DejaVuSans-69" transform="translate(287.988281 0.167187)"/>
     <use xlink:href="#DejaVuSans-6e" transform="translate(315.771484 0.167187)"/>
     <use xlink:href="#DejaVuSans-74" transform="translate(379.150391 0.167187)"/>
     <use xlink:href="#DejaVuSans-20" transform="translate(418.359375 0.167187)"/>
     <use xlink:href="#DejaVuSans-44" transform="translate(450.146484 0.167187)"/>
     <use xlink:href="#DejaVuSans-54" transform="translate(527.148438 0.167187)"/>
     <use xlink:href="#DejaVuSans-46" transform="translate(588.232422 0.167187)"/>
     <use xlink:href="#DejaVuSans-54" transform="translate(645.751953 0.167187)"/>
     <use xlink:href="#DejaVuSans-20" transform="translate(706.835938 0.167187)"/>
     <use xlink:href="#DejaVuSans-6f" transform="translate(738.623047 0.167187)"/>
     <use xlink:href="#DejaVuSans-66" transform="translate(799.804688 0.167187)"/>
     <use xlink:href="#DejaVuSans-20" transform="translate(835.009766 0.167187)"/>
     <use xlink:href="#DejaVuSans-Oblique-78" transform="translate(866.796875 0.167187)"/>
     <use xlink:href="#DejaVuSans-5b" transform="translate(925.976562 0.167187)"/>
     <use xlink:href="#DejaVuSans-Oblique-6e" transform="translate(964.990234 0.167187)"/>
     <use xlink:href="#DejaVuSans-5d" transform="translate(1028.369141 0.167187)"/>
     <use xlink:href="#DejaVuSans-3d" transform="translate(1086.865234 0.167187)"/>
     <use xlink:href="#DejaVuSans-63" transform="translate(1190.136719 0.167187)"/>
     <use xlink:href="#DejaVuSans-6f" transform="translate(1245.117188 0.167187)"/>
     <use xlink:href="#DejaVuSans-73" transform="translate(1306.298828 0.167187)"/>
     <use xlink:href="#STIXSizeOneSym-Regular-28" transform="translate(1374.634114 -23.671875) scale(1.006618)"/>
     <use xlink:href="#DejaVuSans-Oblique-3c0" transform="translate(1422.726613 45.298437) scale(0.7)"/>
     <use xlink:href="#DejaVuSans-33" transform="translate(1421.726613 -39.239063) scale(0.7)"/>
     <use xlink:href="#DejaVuSans-22c5" transform="translate(1498.245167 0.167187)"/>
     <use xlink:href="#DejaVuSans-Oblique-6e" transform="translate(1549.514698 0.167187)"/>
     <use xlink:href="#STIXSizeOneSym-Regular-29" transform="translate(1612.893605 -23.671875) scale(1.006618)"/>
     <path d="M 1421.726613 18.964062 
L 1421.726613 25.214062 
L 1466.262745 25.214062 
L 1466.262745 18.964062 
L 1421.726613 18.964062 
z
"/>
    </g>
   </g>
  </g>
 </g>
 <defs>
  <clipPath id="pc7af98a1fe">
   <rect x="30.49" y="29.022" width="602.91875" height="211.808"/>
  </clipPath>
 </defs>
</svg>
