<?xml version="1.0" encoding="utf-8" standalone="no"?>
<!DOCTYPE svg PUBLIC "-//W3C//DTD SVG 1.1//EN"
  "http://www.w3.org/Graphics/SVG/1.1/DTD/svg11.dtd">
<svg xmlns:xlink="http://www.w3.org/1999/xlink" width="648pt" height="288pt" viewBox="0 0 648 288" xmlns="http://www.w3.org/2000/svg" version="1.1">
 <metadata>
  <rdf:RDF xmlns:dc="http://purl.org/dc/elements/1.1/" xmlns:cc="http://creativecommons.org/ns#" xmlns:rdf="http://www.w3.org/1999/02/22-rdf-syntax-ns#">
   <cc:Work>
    <dc:type rdf:resource="http://purl.org/dc/dcmitype/StillImage"/>
    <dc:date>2025-09-17T22:15:10.218247</dc:date>
    <dc:format>image/svg+xml</dc:format>
    <dc:creator>
     <cc:Agent>
      <dc:title>Matplotlib v3.10.5, https://matplotlib.org/</dc:title>
     </cc:Agent>
    </dc:creator>
   </cc:Work>
  </rdf:RDF>
 </metadata>
 <defs>
  <style type="text/css">*{stroke-linejoin: round; stroke-linecap: butt}</style>
 </defs>
 <g id="figure_1">
  <g id="patch_1">
   <path d="M 0 288 
L 648 288 
L 648 0 
L 0 0 
z
" style="fill: #ffffff"/>
  </g>
  <g id="axes_1">
   <g id="patch_2">
    <path d="M 30.49 240.83 
L 633.40875 240.83 
L 633.40875 30.18 
L 30.49 30.18 
z
" style="fill: #ffffff"/>
   </g>
   <g id="matplotlib.axis_1">
    <g id="xtick_1">
     <g id="line2d_1">
      <path d="M 30.49 240.83 
L 30.49 30.18 
" clip-path="url(#p2c7c376668)" style="fill: none; stroke: #b0b0b0; stroke-width: 0.8; stroke-linecap: square"/>
     </g>
     <g id="line2d_2">
      <defs>
       <path id="m509a1be3c5" d="M 0 0 
L 0 3.5 
" style="stroke: #000000; stroke-width: 0.8"/>
      </defs>
      <g>
       <use xlink:href="#m509a1be3c5" x="30.49" y="240.83" style="stroke: #000000; stroke-width: 0.8"/>
      </g>
     </g>
     <g id="text_1">
      <!-- $- \pi$ -->
      <g transform="translate(23.29 255.428438) scale(0.1 -0.1)">
       <defs>
        <path id="DejaVuSans-2212" d="M 678 2272 
L 4684 2272 
L 4684 1741 
L 678 1741 
L 678 2272 
z
" transform="scale(0.015625)"/>
        <path id="DejaVuSans-Oblique-3c0" d="M 584 3500 
L 3938 3500 
L 3825 2925 
L 3384 2925 
L 2966 775 
Q 2922 550 2981 450 
Q 3038 353 3209 353 
Q 3256 353 3325 363 
Q 3397 369 3419 372 
L 3338 -44 
Q 3222 -84 3103 -103 
Q 2981 -122 2866 -122 
Q 2491 -122 2388 81 
Q 2284 288 2391 838 
L 2797 2925 
L 1506 2925 
L 938 0 
L 350 0 
L 919 2925 
L 472 2925 
L 584 3500 
z
" transform="scale(0.015625)"/>
       </defs>
       <use xlink:href="#DejaVuSans-2212" transform="translate(0 0.3125)"/>
       <use xlink:href="#DejaVuSans-Oblique-3c0" transform="translate(83.789062 0.3125)"/>
      </g>
     </g>
    </g>
    <g id="xtick_2">
     <g id="line2d_3">
      <path d="M 105.854844 240.83 
L 105.854844 30.18 
" clip-path="url(#p2c7c376668)" style="fill: none; stroke: #b0b0b0; stroke-width: 0.8; stroke-linecap: square"/>
     </g>
     <g id="line2d_4">
      <g>
       <use xlink:href="#m509a1be3c5" x="105.854844" y="240.83" style="stroke: #000000; stroke-width: 0.8"/>
      </g>
     </g>
     <g id="text_2">
      <!-- $-3\pi/4$ -->
      <g transform="translate(90.604844 255.428438) scale(0.1 -0.1)">
       <defs>
        <path id="DejaVuSans-33" d="M 2597 2516 
Q 3050 2419 3304 2112 
Q 3559 1806 3559 1356 
Q 3559 666 3084 287 
Q 2609 -91 1734 -91 
Q 1441 -91 1130 -33 
Q 819 25 488 141 
L 488 750 
Q 750 597 1062 519 
Q 1375 441 1716 441 
Q 2309 441 2620 675 
Q 2931 909 2931 1356 
Q 2931 1769 2642 2001 
Q 2353 2234 1838 2234 
L 1294 2234 
L 1294 2753 
L 1863 2753 
Q 2328 2753 2575 2939 
Q 2822 3125 2822 3475 
Q 2822 3834 2567 4026 
Q 2313 4219 1838 4219 
Q 1578 4219 1281 4162 
Q 984 4106 628 3988 
L 628 4550 
Q 988 4650 1302 4700 
Q 1616 4750 1894 4750 
Q 2613 4750 3031 4423 
Q 3450 4097 3450 3541 
Q 3450 3153 3228 2886 
Q 3006 2619 2597 2516 
z
" transform="scale(0.015625)"/>
        <path id="DejaVuSans-2f" d="M 1625 4666 
L 2156 4666 
L 531 -594 
L 0 -594 
L 1625 4666 
z
" transform="scale(0.015625)"/>
        <path id="DejaVuSans-34" d="M 2419 4116 
L 825 1625 
L 2419 1625 
L 2419 4116 
z
M 2253 4666 
L 3047 4666 
L 3047 1625 
L 3713 1625 
L 3713 1100 
L 3047 1100 
L 3047 0 
L 2419 0 
L 2419 1100 
L 313 1100 
L 313 1709 
L 2253 4666 
z
" transform="scale(0.015625)"/>
       </defs>
       <use xlink:href="#DejaVuSans-2212" transform="translate(0 0.78125)"/>
       <use xlink:href="#DejaVuSans-33" transform="translate(83.789062 0.78125)"/>
       <use xlink:href="#DejaVuSans-Oblique-3c0" transform="translate(147.412109 0.78125)"/>
       <use xlink:href="#DejaVuSans-2f" transform="translate(207.617188 0.78125)"/>
       <use xlink:href="#DejaVuSans-34" transform="translate(241.308594 0.78125)"/>
      </g>
     </g>
    </g>
    <g id="xtick_3">
     <g id="line2d_5">
      <path d="M 181.219687 240.83 
L 181.219687 30.18 
" clip-path="url(#p2c7c376668)" style="fill: none; stroke: #b0b0b0; stroke-width: 0.8; stroke-linecap: square"/>
     </g>
     <g id="line2d_6">
      <g>
       <use xlink:href="#m509a1be3c5" x="181.219687" y="240.83" style="stroke: #000000; stroke-width: 0.8"/>
      </g>
     </g>
     <g id="text_3">
      <!-- $- \pi/2$ -->
      <g transform="translate(169.319687 255.428438) scale(0.1 -0.1)">
       <defs>
        <path id="DejaVuSans-32" d="M 1228 531 
L 3431 531 
L 3431 0 
L 469 0 
L 469 531 
Q 828 903 1448 1529 
Q 2069 2156 2228 2338 
Q 2531 2678 2651 2914 
Q 2772 3150 2772 3378 
Q 2772 3750 2511 3984 
Q 2250 4219 1831 4219 
Q 1534 4219 1204 4116 
Q 875 4013 500 3803 
L 500 4441 
Q 881 4594 1212 4672 
Q 1544 4750 1819 4750 
Q 2544 4750 2975 4387 
Q 3406 4025 3406 3419 
Q 3406 3131 3298 2873 
Q 3191 2616 2906 2266 
Q 2828 2175 2409 1742 
Q 1991 1309 1228 531 
z
" transform="scale(0.015625)"/>
       </defs>
       <use xlink:href="#DejaVuSans-2212" transform="translate(0 0.78125)"/>
       <use xlink:href="#DejaVuSans-Oblique-3c0" transform="translate(83.789062 0.78125)"/>
       <use xlink:href="#DejaVuSans-2f" transform="translate(143.994141 0.78125)"/>
       <use xlink:href="#DejaVuSans-32" transform="translate(174.060547 0.78125)"/>
      </g>
     </g>
    </g>
    <g id="xtick_4">
     <g id="line2d_7">
      <path d="M 256.584531 240.83 
L 256.584531 30.18 
" clip-path="url(#p2c7c376668)" style="fill: none; stroke: #b0b0b0; stroke-width: 0.8; stroke-linecap: square"/>
     </g>
     <g id="line2d_8">
      <g>
       <use xlink:href="#m509a1be3c5" x="256.584531" y="240.83" style="stroke: #000000; stroke-width: 0.8"/>
      </g>
     </g>
     <g id="text_4">
      <!-- $- \pi/4$ -->
      <g transform="translate(244.484531 255.428438) scale(0.1 -0.1)">
       <use xlink:href="#DejaVuSans-2212" transform="translate(0 0.09375)"/>
       <use xlink:href="#DejaVuSans-Oblique-3c0" transform="translate(83.789062 0.09375)"/>
       <use xlink:href="#DejaVuSans-2f" transform="translate(143.994141 0.09375)"/>
       <use xlink:href="#DejaVuSans-34" transform="translate(177.685547 0.09375)"/>
      </g>
     </g>
    </g>
    <g id="xtick_5">
     <g id="line2d_9">
      <path d="M 331.949375 240.83 
L 331.949375 30.18 
" clip-path="url(#p2c7c376668)" style="fill: none; stroke: #b0b0b0; stroke-width: 0.8; stroke-linecap: square"/>
     </g>
     <g id="line2d_10">
      <g>
       <use xlink:href="#m509a1be3c5" x="331.949375" y="240.83" style="stroke: #000000; stroke-width: 0.8"/>
      </g>
     </g>
     <g id="text_5">
      <!-- $0$ -->
      <g transform="translate(328.749375 255.428438) scale(0.1 -0.1)">
       <defs>
        <path id="DejaVuSans-30" d="M 2034 4250 
Q 1547 4250 1301 3770 
Q 1056 3291 1056 2328 
Q 1056 1369 1301 889 
Q 1547 409 2034 409 
Q 2525 409 2770 889 
Q 3016 1369 3016 2328 
Q 3016 3291 2770 3770 
Q 2525 4250 2034 4250 
z
M 2034 4750 
Q 2819 4750 3233 4129 
Q 3647 3509 3647 2328 
Q 3647 1150 3233 529 
Q 2819 -91 2034 -91 
Q 1250 -91 836 529 
Q 422 1150 422 2328 
Q 422 3509 836 4129 
Q 1250 4750 2034 4750 
z
" transform="scale(0.015625)"/>
       </defs>
       <use xlink:href="#DejaVuSans-30" transform="translate(0 0.78125)"/>
      </g>
     </g>
    </g>
    <g id="xtick_6">
     <g id="line2d_11">
      <path d="M 407.314219 240.83 
L 407.314219 30.18 
" clip-path="url(#p2c7c376668)" style="fill: none; stroke: #b0b0b0; stroke-width: 0.8; stroke-linecap: square"/>
     </g>
     <g id="line2d_12">
      <g>
       <use xlink:href="#m509a1be3c5" x="407.314219" y="240.83" style="stroke: #000000; stroke-width: 0.8"/>
      </g>
     </g>
     <g id="text_6">
      <!-- $\pi/4$ -->
      <g transform="translate(399.414219 255.428438) scale(0.1 -0.1)">
       <use xlink:href="#DejaVuSans-Oblique-3c0" transform="translate(0 0.09375)"/>
       <use xlink:href="#DejaVuSans-2f" transform="translate(60.205078 0.09375)"/>
       <use xlink:href="#DejaVuSans-34" transform="translate(93.896484 0.09375)"/>
      </g>
     </g>
    </g>
    <g id="xtick_7">
     <g id="line2d_13">
      <path d="M 482.679062 240.83 
L 482.679062 30.18 
" clip-path="url(#p2c7c376668)" style="fill: none; stroke: #b0b0b0; stroke-width: 0.8; stroke-linecap: square"/>
     </g>
     <g id="line2d_14">
      <g>
       <use xlink:href="#m509a1be3c5" x="482.679062" y="240.83" style="stroke: #000000; stroke-width: 0.8"/>
      </g>
     </g>
     <g id="text_7">
      <!-- $\pi/2$ -->
      <g transform="translate(474.979062 255.428438) scale(0.1 -0.1)">
       <use xlink:href="#DejaVuSans-Oblique-3c0" transform="translate(0 0.78125)"/>
       <use xlink:href="#DejaVuSans-2f" transform="translate(60.205078 0.78125)"/>
       <use xlink:href="#DejaVuSans-32" transform="translate(90.271484 0.78125)"/>
      </g>
     </g>
    </g>
    <g id="xtick_8">
     <g id="line2d_15">
      <path d="M 558.043906 240.83 
L 558.043906 30.18 
" clip-path="url(#p2c7c376668)" style="fill: none; stroke: #b0b0b0; stroke-width: 0.8; stroke-linecap: square"/>
     </g>
     <g id="line2d_16">
      <g>
       <use xlink:href="#m509a1be3c5" x="558.043906" y="240.83" style="stroke: #000000; stroke-width: 0.8"/>
      </g>
     </g>
     <g id="text_8">
      <!-- $3\pi/4$ -->
      <g transform="translate(546.943906 255.428438) scale(0.1 -0.1)">
       <use xlink:href="#DejaVuSans-33" transform="translate(0 0.78125)"/>
       <use xlink:href="#DejaVuSans-Oblique-3c0" transform="translate(63.623047 0.78125)"/>
       <use xlink:href="#DejaVuSans-2f" transform="translate(123.828125 0.78125)"/>
       <use xlink:href="#DejaVuSans-34" transform="translate(157.519531 0.78125)"/>
      </g>
     </g>
    </g>
    <g id="xtick_9">
     <g id="line2d_17">
      <path d="M 633.40875 240.83 
L 633.40875 30.18 
" clip-path="url(#p2c7c376668)" style="fill: none; stroke: #b0b0b0; stroke-width: 0.8; stroke-linecap: square"/>
     </g>
     <g id="line2d_18">
      <g>
       <use xlink:href="#m509a1be3c5" x="633.40875" y="240.83" style="stroke: #000000; stroke-width: 0.8"/>
      </g>
     </g>
     <g id="text_9">
      <!-- $\pi$ -->
      <g transform="translate(630.35875 255.428438) scale(0.1 -0.1)">
       <use xlink:href="#DejaVuSans-Oblique-3c0" transform="translate(0 0.3125)"/>
      </g>
     </g>
    </g>
    <g id="text_10">
     <!-- Normalized Angular Frequency $\hat{\omega}$ -->
     <g transform="translate(248.799375 270.708125) scale(0.1 -0.1)">
      <defs>
       <path id="DejaVuSans-4e" d="M 628 4666 
L 1478 4666 
L 3547 763 
L 3547 4666 
L 4159 4666 
L 4159 0 
L 3309 0 
L 1241 3903 
L 1241 0 
L 628 0 
L 628 4666 
z
" transform="scale(0.015625)"/>
       <path id="DejaVuSans-6f" d="M 1959 3097 
Q 1497 3097 1228 2736 
Q 959 2375 959 1747 
Q 959 1119 1226 758 
Q 1494 397 1959 397 
Q 2419 397 2687 759 
Q 2956 1122 2956 1747 
Q 2956 2369 2687 2733 
Q 2419 3097 1959 3097 
z
M 1959 3584 
Q 2709 3584 3137 3096 
Q 3566 2609 3566 1747 
Q 3566 888 3137 398 
Q 2709 -91 1959 -91 
Q 1206 -91 779 398 
Q 353 888 353 1747 
Q 353 2609 779 3096 
Q 1206 3584 1959 3584 
z
" transform="scale(0.015625)"/>
       <path id="DejaVuSans-72" d="M 2631 2963 
Q 2534 3019 2420 3045 
Q 2306 3072 2169 3072 
Q 1681 3072 1420 2755 
Q 1159 2438 1159 1844 
L 1159 0 
L 581 0 
L 581 3500 
L 1159 3500 
L 1159 2956 
Q 1341 3275 1631 3429 
Q 1922 3584 2338 3584 
Q 2397 3584 2469 3576 
Q 2541 3569 2628 3553 
L 2631 2963 
z
" transform="scale(0.015625)"/>
       <path id="DejaVuSans-6d" d="M 3328 2828 
Q 3544 3216 3844 3400 
Q 4144 3584 4550 3584 
Q 5097 3584 5394 3201 
Q 5691 2819 5691 2113 
L 5691 0 
L 5113 0 
L 5113 2094 
Q 5113 2597 4934 2840 
Q 4756 3084 4391 3084 
Q 3944 3084 3684 2787 
Q 3425 2491 3425 1978 
L 3425 0 
L 2847 0 
L 2847 2094 
Q 2847 2600 2669 2842 
Q 2491 3084 2119 3084 
Q 1678 3084 1418 2786 
Q 1159 2488 1159 1978 
L 1159 0 
L 581 0 
L 581 3500 
L 1159 3500 
L 1159 2956 
Q 1356 3278 1631 3431 
Q 1906 3584 2284 3584 
Q 2666 3584 2933 3390 
Q 3200 3197 3328 2828 
z
" transform="scale(0.015625)"/>
       <path id="DejaVuSans-61" d="M 2194 1759 
Q 1497 1759 1228 1600 
Q 959 1441 959 1056 
Q 959 750 1161 570 
Q 1363 391 1709 391 
Q 2188 391 2477 730 
Q 2766 1069 2766 1631 
L 2766 1759 
L 2194 1759 
z
M 3341 1997 
L 3341 0 
L 2766 0 
L 2766 531 
Q 2569 213 2275 61 
Q 1981 -91 1556 -91 
Q 1019 -91 701 211 
Q 384 513 384 1019 
Q 384 1609 779 1909 
Q 1175 2209 1959 2209 
L 2766 2209 
L 2766 2266 
Q 2766 2663 2505 2880 
Q 2244 3097 1772 3097 
Q 1472 3097 1187 3025 
Q 903 2953 641 2809 
L 641 3341 
Q 956 3463 1253 3523 
Q 1550 3584 1831 3584 
Q 2591 3584 2966 3190 
Q 3341 2797 3341 1997 
z
" transform="scale(0.015625)"/>
       <path id="DejaVuSans-6c" d="M 603 4863 
L 1178 4863 
L 1178 0 
L 603 0 
L 603 4863 
z
" transform="scale(0.015625)"/>
       <path id="DejaVuSans-69" d="M 603 3500 
L 1178 3500 
L 1178 0 
L 603 0 
L 603 3500 
z
M 603 4863 
L 1178 4863 
L 1178 4134 
L 603 4134 
L 603 4863 
z
" transform="scale(0.015625)"/>
       <path id="DejaVuSans-7a" d="M 353 3500 
L 3084 3500 
L 3084 2975 
L 922 459 
L 3084 459 
L 3084 0 
L 275 0 
L 275 525 
L 2438 3041 
L 353 3041 
L 353 3500 
z
" transform="scale(0.015625)"/>
       <path id="DejaVuSans-65" d="M 3597 1894 
L 3597 1613 
L 953 1613 
Q 991 1019 1311 708 
Q 1631 397 2203 397 
Q 2534 397 2845 478 
Q 3156 559 3463 722 
L 3463 178 
Q 3153 47 2828 -22 
Q 2503 -91 2169 -91 
Q 1331 -91 842 396 
Q 353 884 353 1716 
Q 353 2575 817 3079 
Q 1281 3584 2069 3584 
Q 2775 3584 3186 3129 
Q 3597 2675 3597 1894 
z
M 3022 2063 
Q 3016 2534 2758 2815 
Q 2500 3097 2075 3097 
Q 1594 3097 1305 2825 
Q 1016 2553 972 2059 
L 3022 2063 
z
" transform="scale(0.015625)"/>
       <path id="DejaVuSans-64" d="M 2906 2969 
L 2906 4863 
L 3481 4863 
L 3481 0 
L 2906 0 
L 2906 525 
Q 2725 213 2448 61 
Q 2172 -91 1784 -91 
Q 1150 -91 751 415 
Q 353 922 353 1747 
Q 353 2572 751 3078 
Q 1150 3584 1784 3584 
Q 2172 3584 2448 3432 
Q 2725 3281 2906 2969 
z
M 947 1747 
Q 947 1113 1208 752 
Q 1469 391 1925 391 
Q 2381 391 2643 752 
Q 2906 1113 2906 1747 
Q 2906 2381 2643 2742 
Q 2381 3103 1925 3103 
Q 1469 3103 1208 2742 
Q 947 2381 947 1747 
z
" transform="scale(0.015625)"/>
       <path id="DejaVuSans-20" transform="scale(0.015625)"/>
       <path id="DejaVuSans-41" d="M 2188 4044 
L 1331 1722 
L 3047 1722 
L 2188 4044 
z
M 1831 4666 
L 2547 4666 
L 4325 0 
L 3669 0 
L 3244 1197 
L 1141 1197 
L 716 0 
L 50 0 
L 1831 4666 
z
" transform="scale(0.015625)"/>
       <path id="DejaVuSans-6e" d="M 3513 2113 
L 3513 0 
L 2938 0 
L 2938 2094 
Q 2938 2591 2744 2837 
Q 2550 3084 2163 3084 
Q 1697 3084 1428 2787 
Q 1159 2491 1159 1978 
L 1159 0 
L 581 0 
L 581 3500 
L 1159 3500 
L 1159 2956 
Q 1366 3272 1645 3428 
Q 1925 3584 2291 3584 
Q 2894 3584 3203 3211 
Q 3513 2838 3513 2113 
z
" transform="scale(0.015625)"/>
       <path id="DejaVuSans-67" d="M 2906 1791 
Q 2906 2416 2648 2759 
Q 2391 3103 1925 3103 
Q 1463 3103 1205 2759 
Q 947 2416 947 1791 
Q 947 1169 1205 825 
Q 1463 481 1925 481 
Q 2391 481 2648 825 
Q 2906 1169 2906 1791 
z
M 3481 434 
Q 3481 -459 3084 -895 
Q 2688 -1331 1869 -1331 
Q 1566 -1331 1297 -1286 
Q 1028 -1241 775 -1147 
L 775 -588 
Q 1028 -725 1275 -790 
Q 1522 -856 1778 -856 
Q 2344 -856 2625 -561 
Q 2906 -266 2906 331 
L 2906 616 
Q 2728 306 2450 153 
Q 2172 0 1784 0 
Q 1141 0 747 490 
Q 353 981 353 1791 
Q 353 2603 747 3093 
Q 1141 3584 1784 3584 
Q 2172 3584 2450 3431 
Q 2728 3278 2906 2969 
L 2906 3500 
L 3481 3500 
L 3481 434 
z
" transform="scale(0.015625)"/>
       <path id="DejaVuSans-75" d="M 544 1381 
L 544 3500 
L 1119 3500 
L 1119 1403 
Q 1119 906 1312 657 
Q 1506 409 1894 409 
Q 2359 409 2629 706 
Q 2900 1003 2900 1516 
L 2900 3500 
L 3475 3500 
L 3475 0 
L 2900 0 
L 2900 538 
Q 2691 219 2414 64 
Q 2138 -91 1772 -91 
Q 1169 -91 856 284 
Q 544 659 544 1381 
z
M 1991 3584 
L 1991 3584 
z
" transform="scale(0.015625)"/>
       <path id="DejaVuSans-46" d="M 628 4666 
L 3309 4666 
L 3309 4134 
L 1259 4134 
L 1259 2759 
L 3109 2759 
L 3109 2228 
L 1259 2228 
L 1259 0 
L 628 0 
L 628 4666 
z
" transform="scale(0.015625)"/>
       <path id="DejaVuSans-71" d="M 947 1747 
Q 947 1113 1208 752 
Q 1469 391 1925 391 
Q 2381 391 2643 752 
Q 2906 1113 2906 1747 
Q 2906 2381 2643 2742 
Q 2381 3103 1925 3103 
Q 1469 3103 1208 2742 
Q 947 2381 947 1747 
z
M 2906 525 
Q 2725 213 2448 61 
Q 2172 -91 1784 -91 
Q 1150 -91 751 415 
Q 353 922 353 1747 
Q 353 2572 751 3078 
Q 1150 3584 1784 3584 
Q 2172 3584 2448 3432 
Q 2725 3281 2906 2969 
L 2906 3500 
L 3481 3500 
L 3481 -1331 
L 2906 -1331 
L 2906 525 
z
" transform="scale(0.015625)"/>
       <path id="DejaVuSans-63" d="M 3122 3366 
L 3122 2828 
Q 2878 2963 2633 3030 
Q 2388 3097 2138 3097 
Q 1578 3097 1268 2742 
Q 959 2388 959 1747 
Q 959 1106 1268 751 
Q 1578 397 2138 397 
Q 2388 397 2633 464 
Q 2878 531 3122 666 
L 3122 134 
Q 2881 22 2623 -34 
Q 2366 -91 2075 -91 
Q 1284 -91 818 406 
Q 353 903 353 1747 
Q 353 2603 823 3093 
Q 1294 3584 2113 3584 
Q 2378 3584 2631 3529 
Q 2884 3475 3122 3366 
z
" transform="scale(0.015625)"/>
       <path id="DejaVuSans-79" d="M 2059 -325 
Q 1816 -950 1584 -1140 
Q 1353 -1331 966 -1331 
L 506 -1331 
L 506 -850 
L 844 -850 
Q 1081 -850 1212 -737 
Q 1344 -625 1503 -206 
L 1606 56 
L 191 3500 
L 800 3500 
L 1894 763 
L 2988 3500 
L 3597 3500 
L 2059 -325 
z
" transform="scale(0.015625)"/>
       <path id="DejaVuSans-302" d="M -1831 5119 
L -1369 5119 
L -603 3944 
L -1038 3944 
L -1600 4709 
L -2163 3944 
L -2597 3944 
L -1831 5119 
z
M -1600 3584 
L -1600 3584 
z
" transform="scale(0.015625)"/>
       <path id="DejaVuSans-Oblique-3c9" d="M 1369 -91 
Q 72 -91 434 1766 
Q 575 2500 1256 3500 
L 1875 3500 
Q 1231 2500 1088 1750 
Q 819 397 1519 397 
Q 2166 397 2478 2078 
L 3009 2078 
Q 2669 388 3316 397 
Q 4013 403 4275 1750 
Q 4419 2500 4169 3500 
L 4788 3500 
Q 5075 2500 4934 1766 
Q 4578 -94 3278 -91 
Q 2428 -88 2503 844 
Q 2194 -91 1369 -91 
z
" transform="scale(0.015625)"/>
      </defs>
      <use xlink:href="#DejaVuSans-4e" transform="translate(0 0.828125)"/>
      <use xlink:href="#DejaVuSans-6f" transform="translate(74.804688 0.828125)"/>
      <use xlink:href="#DejaVuSans-72" transform="translate(135.986328 0.828125)"/>
      <use xlink:href="#DejaVuSans-6d" transform="translate(177.099609 0.828125)"/>
      <use xlink:href="#DejaVuSans-61" transform="translate(274.511719 0.828125)"/>
      <use xlink:href="#DejaVuSans-6c" transform="translate(335.791016 0.828125)"/>
      <use xlink:href="#DejaVuSans-69" transform="translate(363.574219 0.828125)"/>
      <use xlink:href="#DejaVuSans-7a" transform="translate(391.357422 0.828125)"/>
      <use xlink:href="#DejaVuSans-65" transform="translate(443.847656 0.828125)"/>
      <use xlink:href="#DejaVuSans-64" transform="translate(505.371094 0.828125)"/>
      <use xlink:href="#DejaVuSans-20" transform="translate(568.847656 0.828125)"/>
      <use xlink:href="#DejaVuSans-41" transform="translate(600.634766 0.828125)"/>
      <use xlink:href="#DejaVuSans-6e" transform="translate(669.042969 0.828125)"/>
      <use xlink:href="#DejaVuSans-67" transform="translate(732.421875 0.828125)"/>
      <use xlink:href="#DejaVuSans-75" transform="translate(795.898438 0.828125)"/>
      <use xlink:href="#DejaVuSans-6c" transform="translate(859.277344 0.828125)"/>
      <use xlink:href="#DejaVuSans-61" transform="translate(887.060547 0.828125)"/>
      <use xlink:href="#DejaVuSans-72" transform="translate(948.339844 0.828125)"/>
      <use xlink:href="#DejaVuSans-20" transform="translate(989.453125 0.828125)"/>
      <use xlink:href="#DejaVuSans-46" transform="translate(1021.240234 0.828125)"/>
      <use xlink:href="#DejaVuSans-72" transform="translate(1078.759766 0.828125)"/>
      <use xlink:href="#DejaVuSans-65" transform="translate(1119.873047 0.828125)"/>
      <use xlink:href="#DejaVuSans-71" transform="translate(1181.396484 0.828125)"/>
      <use xlink:href="#DejaVuSans-75" transform="translate(1244.873047 0.828125)"/>
      <use xlink:href="#DejaVuSans-65" transform="translate(1308.251953 0.828125)"/>
      <use xlink:href="#DejaVuSans-6e" transform="translate(1369.775391 0.828125)"/>
      <use xlink:href="#DejaVuSans-63" transform="translate(1433.154297 0.828125)"/>
      <use xlink:href="#DejaVuSans-79" transform="translate(1488.134766 0.828125)"/>
      <use xlink:href="#DejaVuSans-20" transform="translate(1547.314453 0.828125)"/>
      <use xlink:href="#DejaVuSans-302" transform="translate(1656.614746 12.015625)"/>
      <use xlink:href="#DejaVuSans-Oblique-3c9" transform="translate(1579.101562 0.828125)"/>
     </g>
    </g>
   </g>
   <g id="matplotlib.axis_2">
    <g id="ytick_1">
     <g id="line2d_19">
      <path d="M 30.49 232.683447 
L 633.40875 232.683447 
" clip-path="url(#p2c7c376668)" style="fill: none; stroke: #b0b0b0; stroke-width: 0.8; stroke-linecap: square"/>
     </g>
     <g id="line2d_20">
      <defs>
       <path id="m082202cee4" d="M 0 0 
L -3.5 0 
" style="stroke: #000000; stroke-width: 0.8"/>
      </defs>
      <g>
       <use xlink:href="#m082202cee4" x="30.49" y="232.683447" style="stroke: #000000; stroke-width: 0.8"/>
      </g>
     </g>
     <g id="text_11">
      <!-- 0 -->
      <g transform="translate(17.1275 236.482666) scale(0.1 -0.1)">
       <use xlink:href="#DejaVuSans-30"/>
      </g>
     </g>
    </g>
    <g id="ytick_2">
     <g id="line2d_21">
      <path d="M 30.49 212.433102 
L 633.40875 212.433102 
" clip-path="url(#p2c7c376668)" style="fill: none; stroke: #b0b0b0; stroke-width: 0.8; stroke-linecap: square"/>
     </g>
     <g id="line2d_22">
      <g>
       <use xlink:href="#m082202cee4" x="30.49" y="212.433102" style="stroke: #000000; stroke-width: 0.8"/>
      </g>
     </g>
     <g id="text_12">
      <!-- 1 -->
      <g transform="translate(17.1275 216.232321) scale(0.1 -0.1)">
       <defs>
        <path id="DejaVuSans-31" d="M 794 531 
L 1825 531 
L 1825 4091 
L 703 3866 
L 703 4441 
L 1819 4666 
L 2450 4666 
L 2450 531 
L 3481 531 
L 3481 0 
L 794 0 
L 794 531 
z
" transform="scale(0.015625)"/>
       </defs>
       <use xlink:href="#DejaVuSans-31"/>
      </g>
     </g>
    </g>
    <g id="ytick_3">
     <g id="line2d_23">
      <path d="M 30.49 192.182758 
L 633.40875 192.182758 
" clip-path="url(#p2c7c376668)" style="fill: none; stroke: #b0b0b0; stroke-width: 0.8; stroke-linecap: square"/>
     </g>
     <g id="line2d_24">
      <g>
       <use xlink:href="#m082202cee4" x="30.49" y="192.182758" style="stroke: #000000; stroke-width: 0.8"/>
      </g>
     </g>
     <g id="text_13">
      <!-- 2 -->
      <g transform="translate(17.1275 195.981976) scale(0.1 -0.1)">
       <use xlink:href="#DejaVuSans-32"/>
      </g>
     </g>
    </g>
    <g id="ytick_4">
     <g id="line2d_25">
      <path d="M 30.49 171.932413 
L 633.40875 171.932413 
" clip-path="url(#p2c7c376668)" style="fill: none; stroke: #b0b0b0; stroke-width: 0.8; stroke-linecap: square"/>
     </g>
     <g id="line2d_26">
      <g>
       <use xlink:href="#m082202cee4" x="30.49" y="171.932413" style="stroke: #000000; stroke-width: 0.8"/>
      </g>
     </g>
     <g id="text_14">
      <!-- 3 -->
      <g transform="translate(17.1275 175.731632) scale(0.1 -0.1)">
       <use xlink:href="#DejaVuSans-33"/>
      </g>
     </g>
    </g>
    <g id="ytick_5">
     <g id="line2d_27">
      <path d="M 30.49 151.682068 
L 633.40875 151.682068 
" clip-path="url(#p2c7c376668)" style="fill: none; stroke: #b0b0b0; stroke-width: 0.8; stroke-linecap: square"/>
     </g>
     <g id="line2d_28">
      <g>
       <use xlink:href="#m082202cee4" x="30.49" y="151.682068" style="stroke: #000000; stroke-width: 0.8"/>
      </g>
     </g>
     <g id="text_15">
      <!-- 4 -->
      <g transform="translate(17.1275 155.481287) scale(0.1 -0.1)">
       <use xlink:href="#DejaVuSans-34"/>
      </g>
     </g>
    </g>
    <g id="ytick_6">
     <g id="line2d_29">
      <path d="M 30.49 131.431724 
L 633.40875 131.431724 
" clip-path="url(#p2c7c376668)" style="fill: none; stroke: #b0b0b0; stroke-width: 0.8; stroke-linecap: square"/>
     </g>
     <g id="line2d_30">
      <g>
       <use xlink:href="#m082202cee4" x="30.49" y="131.431724" style="stroke: #000000; stroke-width: 0.8"/>
      </g>
     </g>
     <g id="text_16">
      <!-- 5 -->
      <g transform="translate(17.1275 135.230942) scale(0.1 -0.1)">
       <defs>
        <path id="DejaVuSans-35" d="M 691 4666 
L 3169 4666 
L 3169 4134 
L 1269 4134 
L 1269 2991 
Q 1406 3038 1543 3061 
Q 1681 3084 1819 3084 
Q 2600 3084 3056 2656 
Q 3513 2228 3513 1497 
Q 3513 744 3044 326 
Q 2575 -91 1722 -91 
Q 1428 -91 1123 -41 
Q 819 9 494 109 
L 494 744 
Q 775 591 1075 516 
Q 1375 441 1709 441 
Q 2250 441 2565 725 
Q 2881 1009 2881 1497 
Q 2881 1984 2565 2268 
Q 2250 2553 1709 2553 
Q 1456 2553 1204 2497 
Q 953 2441 691 2322 
L 691 4666 
z
" transform="scale(0.015625)"/>
       </defs>
       <use xlink:href="#DejaVuSans-35"/>
      </g>
     </g>
    </g>
    <g id="ytick_7">
     <g id="line2d_31">
      <path d="M 30.49 111.181379 
L 633.40875 111.181379 
" clip-path="url(#p2c7c376668)" style="fill: none; stroke: #b0b0b0; stroke-width: 0.8; stroke-linecap: square"/>
     </g>
     <g id="line2d_32">
      <g>
       <use xlink:href="#m082202cee4" x="30.49" y="111.181379" style="stroke: #000000; stroke-width: 0.8"/>
      </g>
     </g>
     <g id="text_17">
      <!-- 6 -->
      <g transform="translate(17.1275 114.980598) scale(0.1 -0.1)">
       <defs>
        <path id="DejaVuSans-36" d="M 2113 2584 
Q 1688 2584 1439 2293 
Q 1191 2003 1191 1497 
Q 1191 994 1439 701 
Q 1688 409 2113 409 
Q 2538 409 2786 701 
Q 3034 994 3034 1497 
Q 3034 2003 2786 2293 
Q 2538 2584 2113 2584 
z
M 3366 4563 
L 3366 3988 
Q 3128 4100 2886 4159 
Q 2644 4219 2406 4219 
Q 1781 4219 1451 3797 
Q 1122 3375 1075 2522 
Q 1259 2794 1537 2939 
Q 1816 3084 2150 3084 
Q 2853 3084 3261 2657 
Q 3669 2231 3669 1497 
Q 3669 778 3244 343 
Q 2819 -91 2113 -91 
Q 1303 -91 875 529 
Q 447 1150 447 2328 
Q 447 3434 972 4092 
Q 1497 4750 2381 4750 
Q 2619 4750 2861 4703 
Q 3103 4656 3366 4563 
z
" transform="scale(0.015625)"/>
       </defs>
       <use xlink:href="#DejaVuSans-36"/>
      </g>
     </g>
    </g>
    <g id="ytick_8">
     <g id="line2d_33">
      <path d="M 30.49 90.931034 
L 633.40875 90.931034 
" clip-path="url(#p2c7c376668)" style="fill: none; stroke: #b0b0b0; stroke-width: 0.8; stroke-linecap: square"/>
     </g>
     <g id="line2d_34">
      <g>
       <use xlink:href="#m082202cee4" x="30.49" y="90.931034" style="stroke: #000000; stroke-width: 0.8"/>
      </g>
     </g>
     <g id="text_18">
      <!-- 7 -->
      <g transform="translate(17.1275 94.730253) scale(0.1 -0.1)">
       <defs>
        <path id="DejaVuSans-37" d="M 525 4666 
L 3525 4666 
L 3525 4397 
L 1831 0 
L 1172 0 
L 2766 4134 
L 525 4134 
L 525 4666 
z
" transform="scale(0.015625)"/>
       </defs>
       <use xlink:href="#DejaVuSans-37"/>
      </g>
     </g>
    </g>
    <g id="ytick_9">
     <g id="line2d_35">
      <path d="M 30.49 70.680689 
L 633.40875 70.680689 
" clip-path="url(#p2c7c376668)" style="fill: none; stroke: #b0b0b0; stroke-width: 0.8; stroke-linecap: square"/>
     </g>
     <g id="line2d_36">
      <g>
       <use xlink:href="#m082202cee4" x="30.49" y="70.680689" style="stroke: #000000; stroke-width: 0.8"/>
      </g>
     </g>
     <g id="text_19">
      <!-- 8 -->
      <g transform="translate(17.1275 74.479908) scale(0.1 -0.1)">
       <defs>
        <path id="DejaVuSans-38" d="M 2034 2216 
Q 1584 2216 1326 1975 
Q 1069 1734 1069 1313 
Q 1069 891 1326 650 
Q 1584 409 2034 409 
Q 2484 409 2743 651 
Q 3003 894 3003 1313 
Q 3003 1734 2745 1975 
Q 2488 2216 2034 2216 
z
M 1403 2484 
Q 997 2584 770 2862 
Q 544 3141 544 3541 
Q 544 4100 942 4425 
Q 1341 4750 2034 4750 
Q 2731 4750 3128 4425 
Q 3525 4100 3525 3541 
Q 3525 3141 3298 2862 
Q 3072 2584 2669 2484 
Q 3125 2378 3379 2068 
Q 3634 1759 3634 1313 
Q 3634 634 3220 271 
Q 2806 -91 2034 -91 
Q 1263 -91 848 271 
Q 434 634 434 1313 
Q 434 1759 690 2068 
Q 947 2378 1403 2484 
z
M 1172 3481 
Q 1172 3119 1398 2916 
Q 1625 2713 2034 2713 
Q 2441 2713 2670 2916 
Q 2900 3119 2900 3481 
Q 2900 3844 2670 4047 
Q 2441 4250 2034 4250 
Q 1625 4250 1398 4047 
Q 1172 3844 1172 3481 
z
" transform="scale(0.015625)"/>
       </defs>
       <use xlink:href="#DejaVuSans-38"/>
      </g>
     </g>
    </g>
    <g id="ytick_10">
     <g id="line2d_37">
      <path d="M 30.49 50.430345 
L 633.40875 50.430345 
" clip-path="url(#p2c7c376668)" style="fill: none; stroke: #b0b0b0; stroke-width: 0.8; stroke-linecap: square"/>
     </g>
     <g id="line2d_38">
      <g>
       <use xlink:href="#m082202cee4" x="30.49" y="50.430345" style="stroke: #000000; stroke-width: 0.8"/>
      </g>
     </g>
     <g id="text_20">
      <!-- 9 -->
      <g transform="translate(17.1275 54.229563) scale(0.1 -0.1)">
       <defs>
        <path id="DejaVuSans-39" d="M 703 97 
L 703 672 
Q 941 559 1184 500 
Q 1428 441 1663 441 
Q 2288 441 2617 861 
Q 2947 1281 2994 2138 
Q 2813 1869 2534 1725 
Q 2256 1581 1919 1581 
Q 1219 1581 811 2004 
Q 403 2428 403 3163 
Q 403 3881 828 4315 
Q 1253 4750 1959 4750 
Q 2769 4750 3195 4129 
Q 3622 3509 3622 2328 
Q 3622 1225 3098 567 
Q 2575 -91 1691 -91 
Q 1453 -91 1209 -44 
Q 966 3 703 97 
z
M 1959 2075 
Q 2384 2075 2632 2365 
Q 2881 2656 2881 3163 
Q 2881 3666 2632 3958 
Q 2384 4250 1959 4250 
Q 1534 4250 1286 3958 
Q 1038 3666 1038 3163 
Q 1038 2656 1286 2365 
Q 1534 2075 1959 2075 
z
" transform="scale(0.015625)"/>
       </defs>
       <use xlink:href="#DejaVuSans-39"/>
      </g>
     </g>
    </g>
    <g id="ytick_11">
     <g id="line2d_39">
      <path d="M 30.49 30.18 
L 633.40875 30.18 
" clip-path="url(#p2c7c376668)" style="fill: none; stroke: #b0b0b0; stroke-width: 0.8; stroke-linecap: square"/>
     </g>
     <g id="line2d_40">
      <g>
       <use xlink:href="#m082202cee4" x="30.49" y="30.18" style="stroke: #000000; stroke-width: 0.8"/>
      </g>
     </g>
     <g id="text_21">
      <!-- 10 -->
      <g transform="translate(10.765 33.979219) scale(0.1 -0.1)">
       <use xlink:href="#DejaVuSans-31"/>
       <use xlink:href="#DejaVuSans-30" transform="translate(63.623047 0)"/>
      </g>
     </g>
    </g>
   </g>
   <g id="line2d_41">
    <path d="M 30.49 232.683447 
L 35.200303 224.930771 
L 37.555454 221.422484 
L 39.910605 218.340574 
L 41.676969 216.380202 
L 43.443333 214.768231 
L 45.209696 213.539575 
L 46.387272 212.947052 
L 47.564847 212.542884 
L 48.742423 212.331176 
L 49.919999 212.314235 
L 51.097574 212.492546 
L 52.27515 212.864762 
L 53.452726 213.427718 
L 54.630302 214.176452 
L 56.396665 215.632742 
L 58.163029 217.461815 
L 59.929392 219.625993 
L 62.284543 222.954336 
L 64.639695 226.674587 
L 68.172422 232.683447 
L 72.882725 224.665731 
L 75.237876 220.997377 
L 77.593027 217.747493 
L 79.359391 215.661631 
L 81.125754 213.929378 
L 82.892118 212.590119 
L 84.069694 211.931454 
L 85.247269 211.468744 
L 86.424845 211.207359 
L 87.602421 211.150809 
L 88.779996 211.30071 
L 89.957572 211.65675 
L 91.135148 212.216692 
L 92.312723 212.976377 
L 93.490299 213.929756 
L 95.256663 215.705247 
L 97.023026 217.864295 
L 98.78939 220.364446 
L 101.144541 224.141159 
L 104.08848 229.379418 
L 105.854844 232.683447 
L 111.153934 222.83448 
L 113.509086 218.848679 
L 115.864237 215.328927 
L 117.630601 213.080711 
L 119.396964 211.226974 
L 120.57454 210.232777 
L 121.752115 209.445191 
L 122.929691 208.873592 
L 124.107267 208.525436 
L 125.284843 208.406179 
L 126.462418 208.519204 
L 127.639994 208.865776 
L 128.81757 209.445007 
L 129.995145 210.25385 
L 131.172721 211.287098 
L 132.939084 213.241117 
L 134.705448 215.649587 
L 136.471812 218.469036 
L 138.826963 222.775219 
L 141.182114 227.569723 
L 143.537266 232.683447 
L 150.013932 218.515729 
L 152.369083 213.906661 
L 154.135447 210.826858 
L 155.90181 208.151332 
L 157.668174 205.945947 
L 158.84575 204.765755 
L 160.023325 203.835174 
L 161.200901 203.166986 
L 162.378477 202.771811 
L 163.556052 202.657973 
L 164.733628 202.831401 
L 165.911204 203.295541 
L 167.088779 204.05129 
L 168.266355 205.096948 
L 169.443931 206.428198 
L 170.621506 208.038095 
L 172.38787 210.953823 
L 174.154233 214.431458 
L 175.920597 218.415585 
L 178.275748 224.398075 
L 181.219687 232.683447 
L 190.640293 205.253413 
L 192.995444 199.511935 
L 194.761808 195.82075 
L 196.528171 192.766913 
L 197.705747 191.130382 
L 198.883323 189.842386 
L 200.060898 188.925488 
L 201.238474 188.399963 
L 202.41605 188.28361 
L 203.593625 188.591596 
L 204.771201 189.336303 
L 205.948777 190.52721 
L 207.126353 192.170788 
L 208.303928 194.270416 
L 209.481504 196.826327 
L 210.65908 199.83557 
L 212.425443 205.185125 
L 214.191807 211.505996 
L 215.95817 218.74832 
L 217.724534 226.847083 
L 218.902109 232.683447 
L 221.257261 220.083414 
L 224.2012 202.91606 
L 228.322715 177.227059 
L 234.799381 136.688634 
L 237.74332 119.741079 
L 240.098472 107.424607 
L 241.864835 99.092194 
L 243.631199 91.650333 
L 245.397562 85.189306 
L 247.163926 79.78584 
L 248.341501 76.802342 
L 249.519077 74.331354 
L 250.696653 72.384297 
L 251.874229 70.969371 
L 253.051804 70.091513 
L 253.640592 69.854633 
L 254.22938 69.752387 
L 254.818168 69.784475 
L 255.406956 69.950391 
L 255.995743 70.24943 
L 257.173319 71.243068 
L 258.350895 72.755818 
L 259.52847 74.775063 
L 260.706046 77.285255 
L 261.883622 80.26804 
L 263.649985 85.581718 
L 265.416349 91.829796 
L 267.182712 98.92011 
L 269.537864 109.507271 
L 271.893015 121.149061 
L 275.425742 139.979616 
L 285.435135 194.515603 
L 288.379075 208.833216 
L 290.734226 219.217831 
L 293.089377 228.494635 
L 294.266953 232.683447 
L 296.033317 226.989482 
L 297.79968 222.020759 
L 299.566044 217.78668 
L 301.332407 214.285156 
L 302.509983 212.351867 
L 303.687559 210.732409 
L 304.865134 209.418744 
L 306.04271 208.401211 
L 307.220286 207.668699 
L 308.397861 207.208831 
L 309.575437 207.008151 
L 310.753013 207.052325 
L 311.930588 207.326335 
L 313.108164 207.814673 
L 314.28574 208.501537 
L 316.052103 209.869274 
L 317.818467 211.594632 
L 319.58483 213.625819 
L 321.939982 216.724961 
L 324.883921 221.077067 
L 328.416648 226.758634 
L 331.949375 232.683447 
L 337.837253 222.927876 
L 340.781193 218.411454 
L 343.136344 215.125358 
L 345.491495 212.240208 
L 347.257859 210.407256 
L 349.024222 208.914444 
L 350.201798 208.134283 
L 351.379374 207.544696 
L 352.556949 207.16156 
L 353.734525 207.000556 
L 354.912101 207.07697 
L 356.089677 207.405503 
L 357.267252 208.000074 
L 358.444828 208.873624 
L 359.622404 210.03792 
L 360.799979 211.503371 
L 361.977555 213.278848 
L 363.155131 215.371516 
L 364.921494 219.116312 
L 366.687858 223.595594 
L 368.454221 228.807695 
L 369.631797 232.683447 
L 371.39816 226.285669 
L 373.753312 216.720602 
L 376.108463 206.07988 
L 379.052402 191.501482 
L 382.585129 172.638166 
L 392.594523 118.154716 
L 394.949674 106.751066 
L 397.304825 96.469186 
L 399.071189 89.64876 
L 400.837552 83.702422 
L 402.603916 78.718825 
L 403.781492 75.969874 
L 404.959067 73.703033 
L 406.136643 71.935272 
L 407.314219 70.680689 
L 408.491794 69.950391 
L 409.080582 69.784475 
L 409.66937 69.752387 
L 410.258158 69.854633 
L 410.846946 70.091513 
L 411.435734 70.463128 
L 412.613309 71.609932 
L 413.790885 73.291746 
L 414.968461 75.501995 
L 416.146036 78.230865 
L 417.323612 81.465345 
L 418.501188 85.189306 
L 420.267551 91.650333 
L 422.033915 99.092194 
L 423.800278 107.424607 
L 426.15543 119.741079 
L 429.099369 136.688634 
L 432.632096 158.521691 
L 440.286338 206.45302 
L 443.230277 223.340105 
L 444.996641 232.683447 
L 447.351792 221.35638 
L 449.118156 213.820626 
L 450.884519 207.186301 
L 452.650883 201.508397 
L 453.828458 198.274591 
L 455.006034 195.491445 
L 456.18361 193.163506 
L 457.361185 191.292131 
L 458.538761 189.875506 
L 459.716337 188.908697 
L 460.893912 188.38372 
L 462.071488 188.289629 
L 463.249064 188.612631 
L 464.426639 189.336226 
L 465.604215 190.441355 
L 466.781791 191.906575 
L 467.959366 193.708249 
L 469.72573 196.98506 
L 471.492094 200.867089 
L 473.258457 205.253413 
L 475.613608 211.702121 
L 479.146335 222.13074 
L 482.679062 232.683447 
L 485.623002 224.398075 
L 487.978153 218.415585 
L 489.744517 214.431458 
L 491.51088 210.953823 
L 493.277244 208.038095 
L 494.454819 206.428198 
L 495.632395 205.096948 
L 496.809971 204.05129 
L 497.987546 203.295541 
L 499.165122 202.831401 
L 500.342698 202.657973 
L 501.520273 202.771811 
L 502.697849 203.166986 
L 503.875425 203.835174 
L 505.053 204.765755 
L 506.230576 205.945947 
L 507.99694 208.151332 
L 509.763303 210.826858 
L 511.529667 213.906661 
L 513.884818 218.515729 
L 516.828757 224.82181 
L 520.361484 232.683447 
L 523.894211 225.121557 
L 526.249363 220.551299 
L 528.015726 217.48663 
L 529.78209 214.798754 
L 531.548453 212.537418 
L 533.314817 210.742832 
L 534.492393 209.821002 
L 535.669968 209.126449 
L 536.847544 208.663301 
L 538.02512 208.433527 
L 539.202695 208.436935 
L 540.380271 208.671195 
L 541.557847 209.131881 
L 542.735422 209.812528 
L 543.912998 210.704707 
L 545.679362 212.416589 
L 547.445725 214.538781 
L 549.212089 217.021298 
L 551.56724 220.792805 
L 554.511179 226.036106 
L 558.043906 232.683447 
L 562.165421 225.150492 
L 564.520573 221.265185 
L 566.875724 217.864295 
L 568.642087 215.705247 
L 570.408451 213.929756 
L 572.174814 212.5719 
L 573.35239 211.911448 
L 574.529966 211.453057 
L 575.707542 211.199927 
L 576.885117 211.153334 
L 578.062693 211.312622 
L 579.240269 211.675226 
L 580.417844 212.236698 
L 581.59542 212.990763 
L 583.361783 214.464918 
L 585.128147 216.319788 
L 586.89451 218.513505 
L 589.249662 221.880544 
L 592.193601 226.613107 
L 595.726328 232.683447 
L 599.847843 225.71515 
L 602.202994 222.080392 
L 604.558146 218.869998 
L 606.324509 216.812873 
L 608.090873 215.104254 
L 609.857236 213.779242 
L 611.034812 213.122666 
L 612.212388 212.654571 
L 613.389963 212.379025 
L 614.567539 212.298286 
L 615.745115 212.412786 
L 616.92269 212.721125 
L 618.100266 213.220095 
L 619.277842 213.904704 
L 621.044205 215.26453 
L 622.810569 216.99689 
L 624.576932 219.064353 
L 626.932084 222.264546 
L 629.287235 225.859151 
L 632.819962 231.689803 
L 633.40875 232.683447 
L 633.40875 232.683447 
" clip-path="url(#p2c7c376668)" style="fill: none; stroke: #1f77b4; stroke-width: 1.5; stroke-linecap: square"/>
   </g>
   <g id="patch_3">
    <path d="M 30.49 240.83 
L 30.49 30.18 
" style="fill: none; stroke: #000000; stroke-width: 0.8; stroke-linejoin: miter; stroke-linecap: square"/>
   </g>
   <g id="patch_4">
    <path d="M 633.40875 240.83 
L 633.40875 30.18 
" style="fill: none; stroke: #000000; stroke-width: 0.8; stroke-linejoin: miter; stroke-linecap: square"/>
   </g>
   <g id="patch_5">
    <path d="M 30.49 240.83 
L 633.40875 240.83 
" style="fill: none; stroke: #000000; stroke-width: 0.8; stroke-linejoin: miter; stroke-linecap: square"/>
   </g>
   <g id="patch_6">
    <path d="M 30.49 30.18 
L 633.40875 30.18 
" style="fill: none; stroke: #000000; stroke-width: 0.8; stroke-linejoin: miter; stroke-linecap: square"/>
   </g>
   <g id="text_22">
    <!-- $|X_w\left(\hat{\omega} \right)|$ -->
    <g transform="translate(310.469375 24.18) scale(0.12 -0.12)">
     <defs>
      <path id="DejaVuSans-7c" d="M 1344 4891 
L 1344 -1509 
L 813 -1509 
L 813 4891 
L 1344 4891 
z
" transform="scale(0.015625)"/>
      <path id="DejaVuSans-Oblique-58" d="M 878 4666 
L 1516 4666 
L 2316 2981 
L 3763 4666 
L 4500 4666 
L 2578 2438 
L 3738 0 
L 3103 0 
L 2163 1966 
L 459 0 
L -275 0 
L 1906 2509 
L 878 4666 
z
" transform="scale(0.015625)"/>
      <path id="DejaVuSans-Oblique-77" d="M 544 3500 
L 1113 3500 
L 1259 684 
L 2566 3500 
L 3231 3500 
L 3425 684 
L 4666 3500 
L 5241 3500 
L 3641 0 
L 2969 0 
L 2797 2900 
L 1459 0 
L 781 0 
L 544 3500 
z
" transform="scale(0.015625)"/>
      <path id="DejaVuSans-28" d="M 1984 4856 
Q 1566 4138 1362 3434 
Q 1159 2731 1159 2009 
Q 1159 1288 1364 580 
Q 1569 -128 1984 -844 
L 1484 -844 
Q 1016 -109 783 600 
Q 550 1309 550 2009 
Q 550 2706 781 3412 
Q 1013 4119 1484 4856 
L 1984 4856 
z
" transform="scale(0.015625)"/>
      <path id="DejaVuSans-29" d="M 513 4856 
L 1013 4856 
Q 1481 4119 1714 3412 
Q 1947 2706 1947 2009 
Q 1947 1309 1714 600 
Q 1481 -109 1013 -844 
L 513 -844 
Q 928 -128 1133 580 
Q 1338 1288 1338 2009 
Q 1338 2731 1133 3434 
Q 928 4138 513 4856 
z
" transform="scale(0.015625)"/>
     </defs>
     <use xlink:href="#DejaVuSans-7c" transform="translate(0 0.828125)"/>
     <use xlink:href="#DejaVuSans-Oblique-58" transform="translate(33.691406 0.828125)"/>
     <use xlink:href="#DejaVuSans-Oblique-77" transform="translate(102.197266 -15.578125) scale(0.7)"/>
     <use xlink:href="#DejaVuSans-28" transform="translate(162.182617 0.828125)"/>
     <use xlink:href="#DejaVuSans-302" transform="translate(278.709473 12.015625)"/>
     <use xlink:href="#DejaVuSans-Oblique-3c9" transform="translate(201.196289 0.828125)"/>
     <use xlink:href="#DejaVuSans-29" transform="translate(284.936523 0.828125)"/>
     <use xlink:href="#DejaVuSans-7c" transform="translate(323.950195 0.828125)"/>
    </g>
   </g>
  </g>
 </g>
 <defs>
  <clipPath id="p2c7c376668">
   <rect x="30.49" y="30.18" width="602.91875" height="210.65"/>
  </clipPath>
 </defs>
</svg>
