<?xml version="1.0" encoding="utf-8" standalone="no"?>
<!DOCTYPE svg PUBLIC "-//W3C//DTD SVG 1.1//EN"
  "http://www.w3.org/Graphics/SVG/1.1/DTD/svg11.dtd">
<svg xmlns:xlink="http://www.w3.org/1999/xlink" width="864pt" height="288pt" viewBox="0 0 864 288" xmlns="http://www.w3.org/2000/svg" version="1.1">
 <metadata>
  <rdf:RDF xmlns:dc="http://purl.org/dc/elements/1.1/" xmlns:cc="http://creativecommons.org/ns#" xmlns:rdf="http://www.w3.org/1999/02/22-rdf-syntax-ns#">
   <cc:Work>
    <dc:type rdf:resource="http://purl.org/dc/dcmitype/StillImage"/>
    <dc:date>2025-09-21T21:53:47.289210</dc:date>
    <dc:format>image/svg+xml</dc:format>
    <dc:creator>
     <cc:Agent>
      <dc:title>Matplotlib v3.10.5, https://matplotlib.org/</dc:title>
     </cc:Agent>
    </dc:creator>
   </cc:Work>
  </rdf:RDF>
 </metadata>
 <defs>
  <style type="text/css">*{stroke-linejoin: round; stroke-linecap: butt}</style>
 </defs>
 <g id="figure_1">
  <g id="patch_1">
   <path d="M 0 288 
L 864 288 
L 864 0 
L 0 0 
z
" style="fill: #ffffff"/>
  </g>
  <g id="axes_1">
   <g id="patch_2">
    <path d="M 33.64 243.16 
L 853.2 243.16 
L 853.2 10.8 
L 33.64 10.8 
z
" style="fill: #ffffff"/>
   </g>
   <g id="FillBetweenPolyCollection_1">
    <path d="M 33.64 232.598182 
L 33.64 216.951044 
L 35.240703 216.84267 
L 36.841406 216.517809 
L 38.442109 215.977243 
L 40.042813 215.222275 
L 41.643516 214.254724 
L 43.244219 213.076921 
L 44.844922 211.691702 
L 46.445625 210.102406 
L 48.046328 208.31286 
L 49.647031 206.327377 
L 51.247734 204.150738 
L 52.848438 201.788189 
L 54.449141 199.24542 
L 56.049844 196.528557 
L 57.650547 193.644146 
L 59.25125 190.599135 
L 60.851953 187.40086 
L 62.452656 184.057026 
L 64.053359 180.575688 
L 65.654063 176.965234 
L 67.254766 173.234361 
L 68.855469 169.392056 
L 70.456172 165.447578 
L 72.056875 161.410428 
L 73.657578 157.290332 
L 75.258281 153.097215 
L 76.858984 148.84118 
L 78.459688 144.53248 
L 80.060391 140.181494 
L 81.661094 135.798704 
L 83.261797 131.39467 
L 84.8625 126.98 
L 86.463203 122.56533 
L 88.063906 118.161296 
L 89.664609 113.778506 
L 91.265313 109.42752 
L 92.866016 105.11882 
L 94.466719 100.862785 
L 96.067422 96.669668 
L 97.668125 92.549572 
L 99.268828 88.512422 
L 100.869531 84.567944 
L 102.470234 80.725639 
L 104.070938 76.994766 
L 105.671641 73.384312 
L 107.272344 69.902974 
L 108.873047 66.55914 
L 110.47375 63.360865 
L 112.074453 60.315854 
L 113.675156 57.431443 
L 115.275859 54.71458 
L 116.876563 52.171811 
L 118.477266 49.809262 
L 120.077969 47.632623 
L 121.678672 45.64714 
L 123.279375 43.857594 
L 124.880078 42.268298 
L 126.480781 40.883079 
L 128.081484 39.705276 
L 129.682188 38.737725 
L 131.282891 37.982757 
L 132.883594 37.442191 
L 134.484297 37.11733 
L 136.085 37.008956 
L 137.685703 37.11733 
L 139.286406 37.442191 
L 140.887109 37.982757 
L 142.487813 38.737725 
L 144.088516 39.705276 
L 145.689219 40.883079 
L 147.289922 42.268298 
L 148.890625 43.857594 
L 150.491328 45.64714 
L 152.092031 47.632623 
L 153.692734 49.809262 
L 155.293438 52.171811 
L 156.894141 54.71458 
L 158.494844 57.431443 
L 160.095547 60.315854 
L 161.69625 63.360865 
L 163.296953 66.55914 
L 164.897656 69.902974 
L 166.498359 73.384312 
L 168.099063 76.994766 
L 169.699766 80.725639 
L 171.300469 84.567944 
L 172.901172 88.512422 
L 174.501875 92.549572 
L 176.102578 96.669668 
L 177.703281 100.862785 
L 179.303984 105.11882 
L 180.904688 109.42752 
L 182.505391 113.778506 
L 184.106094 118.161296 
L 185.706797 122.56533 
L 187.3075 126.98 
L 188.908203 131.39467 
L 190.508906 135.798704 
L 192.109609 140.181494 
L 193.710313 144.53248 
L 195.311016 148.84118 
L 196.911719 153.097215 
L 198.512422 157.290332 
L 200.113125 161.410428 
L 201.713828 165.447578 
L 203.314531 169.392056 
L 204.915234 173.234361 
L 206.515938 176.965234 
L 208.116641 180.575688 
L 209.717344 184.057026 
L 211.318047 187.40086 
L 212.91875 190.599135 
L 214.519453 193.644146 
L 216.120156 196.528557 
L 217.720859 199.24542 
L 219.321563 201.788189 
L 220.922266 204.150738 
L 222.522969 206.327377 
L 224.123672 208.31286 
L 225.724375 210.102406 
L 227.325078 211.691702 
L 228.925781 213.076921 
L 230.526484 214.254724 
L 232.127188 215.222275 
L 233.727891 215.977243 
L 235.328594 216.517809 
L 236.929297 216.84267 
L 238.53 216.951044 
L 238.53 232.598182 
L 238.53 232.598182 
L 236.929297 232.598182 
L 235.328594 232.598182 
L 233.727891 232.598182 
L 232.127188 232.598182 
L 230.526484 232.598182 
L 228.925781 232.598182 
L 227.325078 232.598182 
L 225.724375 232.598182 
L 224.123672 232.598182 
L 222.522969 232.598182 
L 220.922266 232.598182 
L 219.321563 232.598182 
L 217.720859 232.598182 
L 216.120156 232.598182 
L 214.519453 232.598182 
L 212.91875 232.598182 
L 211.318047 232.598182 
L 209.717344 232.598182 
L 208.116641 232.598182 
L 206.515938 232.598182 
L 204.915234 232.598182 
L 203.314531 232.598182 
L 201.713828 232.598182 
L 200.113125 232.598182 
L 198.512422 232.598182 
L 196.911719 232.598182 
L 195.311016 232.598182 
L 193.710313 232.598182 
L 192.109609 232.598182 
L 190.508906 232.598182 
L 188.908203 232.598182 
L 187.3075 232.598182 
L 185.706797 232.598182 
L 184.106094 232.598182 
L 182.505391 232.598182 
L 180.904688 232.598182 
L 179.303984 232.598182 
L 177.703281 232.598182 
L 176.102578 232.598182 
L 174.501875 232.598182 
L 172.901172 232.598182 
L 171.300469 232.598182 
L 169.699766 232.598182 
L 168.099063 232.598182 
L 166.498359 232.598182 
L 164.897656 232.598182 
L 163.296953 232.598182 
L 161.69625 232.598182 
L 160.095547 232.598182 
L 158.494844 232.598182 
L 156.894141 232.598182 
L 155.293438 232.598182 
L 153.692734 232.598182 
L 152.092031 232.598182 
L 150.491328 232.598182 
L 148.890625 232.598182 
L 147.289922 232.598182 
L 145.689219 232.598182 
L 144.088516 232.598182 
L 142.487813 232.598182 
L 140.887109 232.598182 
L 139.286406 232.598182 
L 137.685703 232.598182 
L 136.085 232.598182 
L 134.484297 232.598182 
L 132.883594 232.598182 
L 131.282891 232.598182 
L 129.682188 232.598182 
L 128.081484 232.598182 
L 126.480781 232.598182 
L 124.880078 232.598182 
L 123.279375 232.598182 
L 121.678672 232.598182 
L 120.077969 232.598182 
L 118.477266 232.598182 
L 116.876563 232.598182 
L 115.275859 232.598182 
L 113.675156 232.598182 
L 112.074453 232.598182 
L 110.47375 232.598182 
L 108.873047 232.598182 
L 107.272344 232.598182 
L 105.671641 232.598182 
L 104.070938 232.598182 
L 102.470234 232.598182 
L 100.869531 232.598182 
L 99.268828 232.598182 
L 97.668125 232.598182 
L 96.067422 232.598182 
L 94.466719 232.598182 
L 92.866016 232.598182 
L 91.265313 232.598182 
L 89.664609 232.598182 
L 88.063906 232.598182 
L 86.463203 232.598182 
L 84.8625 232.598182 
L 83.261797 232.598182 
L 81.661094 232.598182 
L 80.060391 232.598182 
L 78.459688 232.598182 
L 76.858984 232.598182 
L 75.258281 232.598182 
L 73.657578 232.598182 
L 72.056875 232.598182 
L 70.456172 232.598182 
L 68.855469 232.598182 
L 67.254766 232.598182 
L 65.654063 232.598182 
L 64.053359 232.598182 
L 62.452656 232.598182 
L 60.851953 232.598182 
L 59.25125 232.598182 
L 57.650547 232.598182 
L 56.049844 232.598182 
L 54.449141 232.598182 
L 52.848438 232.598182 
L 51.247734 232.598182 
L 49.647031 232.598182 
L 48.046328 232.598182 
L 46.445625 232.598182 
L 44.844922 232.598182 
L 43.244219 232.598182 
L 41.643516 232.598182 
L 40.042813 232.598182 
L 38.442109 232.598182 
L 36.841406 232.598182 
L 35.240703 232.598182 
L 33.64 232.598182 
z
" clip-path="url(#p9ded8a67fe)" style="fill: #1f77b4; fill-opacity: 0.4"/>
   </g>
   <g id="FillBetweenPolyCollection_2">
    <path d="M 136.085 21.361818 
L 136.085 37.008956 
L 137.685703 37.11733 
L 139.286406 37.442191 
L 140.887109 37.982757 
L 142.487813 38.737725 
L 144.088516 39.705276 
L 145.689219 40.883079 
L 147.289922 42.268298 
L 148.890625 43.857594 
L 150.491328 45.64714 
L 152.092031 47.632623 
L 153.692734 49.809262 
L 155.293438 52.171811 
L 156.894141 54.71458 
L 158.494844 57.431443 
L 160.095547 60.315854 
L 161.69625 63.360865 
L 163.296953 66.55914 
L 164.897656 69.902974 
L 166.498359 73.384312 
L 168.099063 76.994766 
L 169.699766 80.725639 
L 171.300469 84.567944 
L 172.901172 88.512422 
L 174.501875 92.549572 
L 176.102578 96.669668 
L 177.703281 100.862785 
L 179.303984 105.11882 
L 180.904688 109.42752 
L 182.505391 113.778506 
L 184.106094 118.161296 
L 185.706797 122.56533 
L 187.3075 126.98 
L 188.908203 131.39467 
L 190.508906 135.798704 
L 192.109609 140.181494 
L 193.710313 144.53248 
L 195.311016 148.84118 
L 196.911719 153.097215 
L 198.512422 157.290332 
L 200.113125 161.410428 
L 201.713828 165.447578 
L 203.314531 169.392056 
L 204.915234 173.234361 
L 206.515938 176.965234 
L 208.116641 180.575688 
L 209.717344 184.057026 
L 211.318047 187.40086 
L 212.91875 190.599135 
L 214.519453 193.644146 
L 216.120156 196.528557 
L 217.720859 199.24542 
L 219.321563 201.788189 
L 220.922266 204.150738 
L 222.522969 206.327377 
L 224.123672 208.31286 
L 225.724375 210.102406 
L 227.325078 211.691702 
L 228.925781 213.076921 
L 230.526484 214.254724 
L 232.127188 215.222275 
L 233.727891 215.977243 
L 235.328594 216.517809 
L 236.929297 216.84267 
L 238.53 216.951044 
L 240.130703 216.84267 
L 241.731406 216.517809 
L 243.332109 215.977243 
L 244.932813 215.222275 
L 246.533516 214.254724 
L 248.134219 213.076921 
L 249.734922 211.691702 
L 251.335625 210.102406 
L 252.936328 208.31286 
L 254.537031 206.327377 
L 256.137734 204.150738 
L 257.738438 201.788189 
L 259.339141 199.24542 
L 260.939844 196.528557 
L 262.540547 193.644146 
L 264.14125 190.599135 
L 265.741953 187.40086 
L 267.342656 184.057026 
L 268.943359 180.575688 
L 270.544062 176.965234 
L 272.144766 173.234361 
L 273.745469 169.392056 
L 275.346172 165.447578 
L 276.946875 161.410428 
L 278.547578 157.290332 
L 280.148281 153.097215 
L 281.748984 148.84118 
L 283.349688 144.53248 
L 284.950391 140.181494 
L 286.551094 135.798704 
L 288.151797 131.39467 
L 289.7525 126.98 
L 291.353203 122.56533 
L 292.953906 118.161296 
L 294.554609 113.778506 
L 296.155312 109.42752 
L 297.756016 105.11882 
L 299.356719 100.862785 
L 300.957422 96.669668 
L 302.558125 92.549572 
L 304.158828 88.512422 
L 305.759531 84.567944 
L 307.360234 80.725639 
L 308.960938 76.994766 
L 310.561641 73.384312 
L 312.162344 69.902974 
L 313.763047 66.55914 
L 315.36375 63.360865 
L 316.964453 60.315854 
L 318.565156 57.431443 
L 320.165859 54.71458 
L 321.766563 52.171811 
L 323.367266 49.809262 
L 324.967969 47.632623 
L 326.568672 45.64714 
L 328.169375 43.857594 
L 329.770078 42.268298 
L 331.370781 40.883079 
L 332.971484 39.705276 
L 334.572187 38.737725 
L 336.172891 37.982757 
L 337.773594 37.442191 
L 339.374297 37.11733 
L 340.975 37.008956 
L 340.975 21.361818 
L 340.975 21.361818 
L 339.374297 21.361818 
L 337.773594 21.361818 
L 336.172891 21.361818 
L 334.572187 21.361818 
L 332.971484 21.361818 
L 331.370781 21.361818 
L 329.770078 21.361818 
L 328.169375 21.361818 
L 326.568672 21.361818 
L 324.967969 21.361818 
L 323.367266 21.361818 
L 321.766563 21.361818 
L 320.165859 21.361818 
L 318.565156 21.361818 
L 316.964453 21.361818 
L 315.36375 21.361818 
L 313.763047 21.361818 
L 312.162344 21.361818 
L 310.561641 21.361818 
L 308.960938 21.361818 
L 307.360234 21.361818 
L 305.759531 21.361818 
L 304.158828 21.361818 
L 302.558125 21.361818 
L 300.957422 21.361818 
L 299.356719 21.361818 
L 297.756016 21.361818 
L 296.155312 21.361818 
L 294.554609 21.361818 
L 292.953906 21.361818 
L 291.353203 21.361818 
L 289.7525 21.361818 
L 288.151797 21.361818 
L 286.551094 21.361818 
L 284.950391 21.361818 
L 283.349688 21.361818 
L 281.748984 21.361818 
L 280.148281 21.361818 
L 278.547578 21.361818 
L 276.946875 21.361818 
L 275.346172 21.361818 
L 273.745469 21.361818 
L 272.144766 21.361818 
L 270.544062 21.361818 
L 268.943359 21.361818 
L 267.342656 21.361818 
L 265.741953 21.361818 
L 264.14125 21.361818 
L 262.540547 21.361818 
L 260.939844 21.361818 
L 259.339141 21.361818 
L 257.738438 21.361818 
L 256.137734 21.361818 
L 254.537031 21.361818 
L 252.936328 21.361818 
L 251.335625 21.361818 
L 249.734922 21.361818 
L 248.134219 21.361818 
L 246.533516 21.361818 
L 244.932813 21.361818 
L 243.332109 21.361818 
L 241.731406 21.361818 
L 240.130703 21.361818 
L 238.53 21.361818 
L 236.929297 21.361818 
L 235.328594 21.361818 
L 233.727891 21.361818 
L 232.127188 21.361818 
L 230.526484 21.361818 
L 228.925781 21.361818 
L 227.325078 21.361818 
L 225.724375 21.361818 
L 224.123672 21.361818 
L 222.522969 21.361818 
L 220.922266 21.361818 
L 219.321563 21.361818 
L 217.720859 21.361818 
L 216.120156 21.361818 
L 214.519453 21.361818 
L 212.91875 21.361818 
L 211.318047 21.361818 
L 209.717344 21.361818 
L 208.116641 21.361818 
L 206.515938 21.361818 
L 204.915234 21.361818 
L 203.314531 21.361818 
L 201.713828 21.361818 
L 200.113125 21.361818 
L 198.512422 21.361818 
L 196.911719 21.361818 
L 195.311016 21.361818 
L 193.710313 21.361818 
L 192.109609 21.361818 
L 190.508906 21.361818 
L 188.908203 21.361818 
L 187.3075 21.361818 
L 185.706797 21.361818 
L 184.106094 21.361818 
L 182.505391 21.361818 
L 180.904688 21.361818 
L 179.303984 21.361818 
L 177.703281 21.361818 
L 176.102578 21.361818 
L 174.501875 21.361818 
L 172.901172 21.361818 
L 171.300469 21.361818 
L 169.699766 21.361818 
L 168.099063 21.361818 
L 166.498359 21.361818 
L 164.897656 21.361818 
L 163.296953 21.361818 
L 161.69625 21.361818 
L 160.095547 21.361818 
L 158.494844 21.361818 
L 156.894141 21.361818 
L 155.293438 21.361818 
L 153.692734 21.361818 
L 152.092031 21.361818 
L 150.491328 21.361818 
L 148.890625 21.361818 
L 147.289922 21.361818 
L 145.689219 21.361818 
L 144.088516 21.361818 
L 142.487813 21.361818 
L 140.887109 21.361818 
L 139.286406 21.361818 
L 137.685703 21.361818 
L 136.085 21.361818 
z
" clip-path="url(#p9ded8a67fe)" style="fill: #ff7f0e; fill-opacity: 0.4"/>
   </g>
   <g id="FillBetweenPolyCollection_3">
    <path d="M 238.53 232.598182 
L 238.53 216.951044 
L 240.130703 216.84267 
L 241.731406 216.517809 
L 243.332109 215.977243 
L 244.932813 215.222275 
L 246.533516 214.254724 
L 248.134219 213.076921 
L 249.734922 211.691702 
L 251.335625 210.102406 
L 252.936328 208.31286 
L 254.537031 206.327377 
L 256.137734 204.150738 
L 257.738438 201.788189 
L 259.339141 199.24542 
L 260.939844 196.528557 
L 262.540547 193.644146 
L 264.14125 190.599135 
L 265.741953 187.40086 
L 267.342656 184.057026 
L 268.943359 180.575688 
L 270.544062 176.965234 
L 272.144766 173.234361 
L 273.745469 169.392056 
L 275.346172 165.447578 
L 276.946875 161.410428 
L 278.547578 157.290332 
L 280.148281 153.097215 
L 281.748984 148.84118 
L 283.349688 144.53248 
L 284.950391 140.181494 
L 286.551094 135.798704 
L 288.151797 131.39467 
L 289.7525 126.98 
L 291.353203 122.56533 
L 292.953906 118.161296 
L 294.554609 113.778506 
L 296.155312 109.42752 
L 297.756016 105.11882 
L 299.356719 100.862785 
L 300.957422 96.669668 
L 302.558125 92.549572 
L 304.158828 88.512422 
L 305.759531 84.567944 
L 307.360234 80.725639 
L 308.960938 76.994766 
L 310.561641 73.384312 
L 312.162344 69.902974 
L 313.763047 66.55914 
L 315.36375 63.360865 
L 316.964453 60.315854 
L 318.565156 57.431443 
L 320.165859 54.71458 
L 321.766563 52.171811 
L 323.367266 49.809262 
L 324.967969 47.632623 
L 326.568672 45.64714 
L 328.169375 43.857594 
L 329.770078 42.268298 
L 331.370781 40.883079 
L 332.971484 39.705276 
L 334.572187 38.737725 
L 336.172891 37.982757 
L 337.773594 37.442191 
L 339.374297 37.11733 
L 340.975 37.008956 
L 342.575703 37.11733 
L 344.176406 37.442191 
L 345.777109 37.982757 
L 347.377813 38.737725 
L 348.978516 39.705276 
L 350.579219 40.883079 
L 352.179922 42.268298 
L 353.780625 43.857594 
L 355.381328 45.64714 
L 356.982031 47.632623 
L 358.582734 49.809262 
L 360.183438 52.171811 
L 361.784141 54.71458 
L 363.384844 57.431443 
L 364.985547 60.315854 
L 366.58625 63.360865 
L 368.186953 66.55914 
L 369.787656 69.902974 
L 371.388359 73.384312 
L 372.989062 76.994766 
L 374.589766 80.725639 
L 376.190469 84.567944 
L 377.791172 88.512422 
L 379.391875 92.549572 
L 380.992578 96.669668 
L 382.593281 100.862785 
L 384.193984 105.11882 
L 385.794688 109.42752 
L 387.395391 113.778506 
L 388.996094 118.161296 
L 390.596797 122.56533 
L 392.1975 126.98 
L 393.798203 131.39467 
L 395.398906 135.798704 
L 396.999609 140.181494 
L 398.600313 144.53248 
L 400.201016 148.84118 
L 401.801719 153.097215 
L 403.402422 157.290332 
L 405.003125 161.410428 
L 406.603828 165.447578 
L 408.204531 169.392056 
L 409.805234 173.234361 
L 411.405937 176.965234 
L 413.006641 180.575688 
L 414.607344 184.057026 
L 416.208047 187.40086 
L 417.80875 190.599135 
L 419.409453 193.644146 
L 421.010156 196.528557 
L 422.610859 199.24542 
L 424.211563 201.788189 
L 425.812266 204.150738 
L 427.412969 206.327377 
L 429.013672 208.31286 
L 430.614375 210.102406 
L 432.215078 211.691702 
L 433.815781 213.076921 
L 435.416484 214.254724 
L 437.017188 215.222275 
L 438.617891 215.977243 
L 440.218594 216.517809 
L 441.819297 216.84267 
L 443.42 216.951044 
L 443.42 232.598182 
L 443.42 232.598182 
L 441.819297 232.598182 
L 440.218594 232.598182 
L 438.617891 232.598182 
L 437.017188 232.598182 
L 435.416484 232.598182 
L 433.815781 232.598182 
L 432.215078 232.598182 
L 430.614375 232.598182 
L 429.013672 232.598182 
L 427.412969 232.598182 
L 425.812266 232.598182 
L 424.211563 232.598182 
L 422.610859 232.598182 
L 421.010156 232.598182 
L 419.409453 232.598182 
L 417.80875 232.598182 
L 416.208047 232.598182 
L 414.607344 232.598182 
L 413.006641 232.598182 
L 411.405937 232.598182 
L 409.805234 232.598182 
L 408.204531 232.598182 
L 406.603828 232.598182 
L 405.003125 232.598182 
L 403.402422 232.598182 
L 401.801719 232.598182 
L 400.201016 232.598182 
L 398.600313 232.598182 
L 396.999609 232.598182 
L 395.398906 232.598182 
L 393.798203 232.598182 
L 392.1975 232.598182 
L 390.596797 232.598182 
L 388.996094 232.598182 
L 387.395391 232.598182 
L 385.794688 232.598182 
L 384.193984 232.598182 
L 382.593281 232.598182 
L 380.992578 232.598182 
L 379.391875 232.598182 
L 377.791172 232.598182 
L 376.190469 232.598182 
L 374.589766 232.598182 
L 372.989062 232.598182 
L 371.388359 232.598182 
L 369.787656 232.598182 
L 368.186953 232.598182 
L 366.58625 232.598182 
L 364.985547 232.598182 
L 363.384844 232.598182 
L 361.784141 232.598182 
L 360.183438 232.598182 
L 358.582734 232.598182 
L 356.982031 232.598182 
L 355.381328 232.598182 
L 353.780625 232.598182 
L 352.179922 232.598182 
L 350.579219 232.598182 
L 348.978516 232.598182 
L 347.377813 232.598182 
L 345.777109 232.598182 
L 344.176406 232.598182 
L 342.575703 232.598182 
L 340.975 232.598182 
L 339.374297 232.598182 
L 337.773594 232.598182 
L 336.172891 232.598182 
L 334.572187 232.598182 
L 332.971484 232.598182 
L 331.370781 232.598182 
L 329.770078 232.598182 
L 328.169375 232.598182 
L 326.568672 232.598182 
L 324.967969 232.598182 
L 323.367266 232.598182 
L 321.766563 232.598182 
L 320.165859 232.598182 
L 318.565156 232.598182 
L 316.964453 232.598182 
L 315.36375 232.598182 
L 313.763047 232.598182 
L 312.162344 232.598182 
L 310.561641 232.598182 
L 308.960938 232.598182 
L 307.360234 232.598182 
L 305.759531 232.598182 
L 304.158828 232.598182 
L 302.558125 232.598182 
L 300.957422 232.598182 
L 299.356719 232.598182 
L 297.756016 232.598182 
L 296.155312 232.598182 
L 294.554609 232.598182 
L 292.953906 232.598182 
L 291.353203 232.598182 
L 289.7525 232.598182 
L 288.151797 232.598182 
L 286.551094 232.598182 
L 284.950391 232.598182 
L 283.349688 232.598182 
L 281.748984 232.598182 
L 280.148281 232.598182 
L 278.547578 232.598182 
L 276.946875 232.598182 
L 275.346172 232.598182 
L 273.745469 232.598182 
L 272.144766 232.598182 
L 270.544062 232.598182 
L 268.943359 232.598182 
L 267.342656 232.598182 
L 265.741953 232.598182 
L 264.14125 232.598182 
L 262.540547 232.598182 
L 260.939844 232.598182 
L 259.339141 232.598182 
L 257.738438 232.598182 
L 256.137734 232.598182 
L 254.537031 232.598182 
L 252.936328 232.598182 
L 251.335625 232.598182 
L 249.734922 232.598182 
L 248.134219 232.598182 
L 246.533516 232.598182 
L 244.932813 232.598182 
L 243.332109 232.598182 
L 241.731406 232.598182 
L 240.130703 232.598182 
L 238.53 232.598182 
z
" clip-path="url(#p9ded8a67fe)" style="fill: #2ca02c; fill-opacity: 0.4"/>
   </g>
   <g id="FillBetweenPolyCollection_4">
    <path d="M 340.975 21.361818 
L 340.975 37.008956 
L 342.575703 37.11733 
L 344.176406 37.442191 
L 345.777109 37.982757 
L 347.377813 38.737725 
L 348.978516 39.705276 
L 350.579219 40.883079 
L 352.179922 42.268298 
L 353.780625 43.857594 
L 355.381328 45.64714 
L 356.982031 47.632623 
L 358.582734 49.809262 
L 360.183438 52.171811 
L 361.784141 54.71458 
L 363.384844 57.431443 
L 364.985547 60.315854 
L 366.58625 63.360865 
L 368.186953 66.55914 
L 369.787656 69.902974 
L 371.388359 73.384312 
L 372.989062 76.994766 
L 374.589766 80.725639 
L 376.190469 84.567944 
L 377.791172 88.512422 
L 379.391875 92.549572 
L 380.992578 96.669668 
L 382.593281 100.862785 
L 384.193984 105.11882 
L 385.794688 109.42752 
L 387.395391 113.778506 
L 388.996094 118.161296 
L 390.596797 122.56533 
L 392.1975 126.98 
L 393.798203 131.39467 
L 395.398906 135.798704 
L 396.999609 140.181494 
L 398.600313 144.53248 
L 400.201016 148.84118 
L 401.801719 153.097215 
L 403.402422 157.290332 
L 405.003125 161.410428 
L 406.603828 165.447578 
L 408.204531 169.392056 
L 409.805234 173.234361 
L 411.405937 176.965234 
L 413.006641 180.575688 
L 414.607344 184.057026 
L 416.208047 187.40086 
L 417.80875 190.599135 
L 419.409453 193.644146 
L 421.010156 196.528557 
L 422.610859 199.24542 
L 424.211563 201.788189 
L 425.812266 204.150738 
L 427.412969 206.327377 
L 429.013672 208.31286 
L 430.614375 210.102406 
L 432.215078 211.691702 
L 433.815781 213.076921 
L 435.416484 214.254724 
L 437.017188 215.222275 
L 438.617891 215.977243 
L 440.218594 216.517809 
L 441.819297 216.84267 
L 443.42 216.951044 
L 445.020703 216.84267 
L 446.621406 216.517809 
L 448.222109 215.977243 
L 449.822812 215.222275 
L 451.423516 214.254724 
L 453.024219 213.076921 
L 454.624922 211.691702 
L 456.225625 210.102406 
L 457.826328 208.31286 
L 459.427031 206.327377 
L 461.027734 204.150738 
L 462.628438 201.788189 
L 464.229141 199.24542 
L 465.829844 196.528557 
L 467.430547 193.644146 
L 469.03125 190.599135 
L 470.631953 187.40086 
L 472.232656 184.057026 
L 473.833359 180.575688 
L 475.434063 176.965234 
L 477.034766 173.234361 
L 478.635469 169.392056 
L 480.236172 165.447578 
L 481.836875 161.410428 
L 483.437578 157.290332 
L 485.038281 153.097215 
L 486.638984 148.84118 
L 488.239688 144.53248 
L 489.840391 140.181494 
L 491.441094 135.798704 
L 493.041797 131.39467 
L 494.6425 126.98 
L 496.243203 122.56533 
L 497.843906 118.161296 
L 499.444609 113.778506 
L 501.045313 109.42752 
L 502.646016 105.11882 
L 504.246719 100.862785 
L 505.847422 96.669668 
L 507.448125 92.549572 
L 509.048828 88.512422 
L 510.649531 84.567944 
L 512.250234 80.725639 
L 513.850938 76.994766 
L 515.451641 73.384312 
L 517.052344 69.902974 
L 518.653047 66.55914 
L 520.25375 63.360865 
L 521.854453 60.315854 
L 523.455156 57.431443 
L 525.055859 54.71458 
L 526.656563 52.171811 
L 528.257266 49.809262 
L 529.857969 47.632623 
L 531.458672 45.64714 
L 533.059375 43.857594 
L 534.660078 42.268298 
L 536.260781 40.883079 
L 537.861484 39.705276 
L 539.462188 38.737725 
L 541.062891 37.982757 
L 542.663594 37.442191 
L 544.264297 37.11733 
L 545.865 37.008956 
L 545.865 21.361818 
L 545.865 21.361818 
L 544.264297 21.361818 
L 542.663594 21.361818 
L 541.062891 21.361818 
L 539.462188 21.361818 
L 537.861484 21.361818 
L 536.260781 21.361818 
L 534.660078 21.361818 
L 533.059375 21.361818 
L 531.458672 21.361818 
L 529.857969 21.361818 
L 528.257266 21.361818 
L 526.656563 21.361818 
L 525.055859 21.361818 
L 523.455156 21.361818 
L 521.854453 21.361818 
L 520.25375 21.361818 
L 518.653047 21.361818 
L 517.052344 21.361818 
L 515.451641 21.361818 
L 513.850938 21.361818 
L 512.250234 21.361818 
L 510.649531 21.361818 
L 509.048828 21.361818 
L 507.448125 21.361818 
L 505.847422 21.361818 
L 504.246719 21.361818 
L 502.646016 21.361818 
L 501.045313 21.361818 
L 499.444609 21.361818 
L 497.843906 21.361818 
L 496.243203 21.361818 
L 494.6425 21.361818 
L 493.041797 21.361818 
L 491.441094 21.361818 
L 489.840391 21.361818 
L 488.239688 21.361818 
L 486.638984 21.361818 
L 485.038281 21.361818 
L 483.437578 21.361818 
L 481.836875 21.361818 
L 480.236172 21.361818 
L 478.635469 21.361818 
L 477.034766 21.361818 
L 475.434063 21.361818 
L 473.833359 21.361818 
L 472.232656 21.361818 
L 470.631953 21.361818 
L 469.03125 21.361818 
L 467.430547 21.361818 
L 465.829844 21.361818 
L 464.229141 21.361818 
L 462.628438 21.361818 
L 461.027734 21.361818 
L 459.427031 21.361818 
L 457.826328 21.361818 
L 456.225625 21.361818 
L 454.624922 21.361818 
L 453.024219 21.361818 
L 451.423516 21.361818 
L 449.822812 21.361818 
L 448.222109 21.361818 
L 446.621406 21.361818 
L 445.020703 21.361818 
L 443.42 21.361818 
L 441.819297 21.361818 
L 440.218594 21.361818 
L 438.617891 21.361818 
L 437.017188 21.361818 
L 435.416484 21.361818 
L 433.815781 21.361818 
L 432.215078 21.361818 
L 430.614375 21.361818 
L 429.013672 21.361818 
L 427.412969 21.361818 
L 425.812266 21.361818 
L 424.211563 21.361818 
L 422.610859 21.361818 
L 421.010156 21.361818 
L 419.409453 21.361818 
L 417.80875 21.361818 
L 416.208047 21.361818 
L 414.607344 21.361818 
L 413.006641 21.361818 
L 411.405937 21.361818 
L 409.805234 21.361818 
L 408.204531 21.361818 
L 406.603828 21.361818 
L 405.003125 21.361818 
L 403.402422 21.361818 
L 401.801719 21.361818 
L 400.201016 21.361818 
L 398.600313 21.361818 
L 396.999609 21.361818 
L 395.398906 21.361818 
L 393.798203 21.361818 
L 392.1975 21.361818 
L 390.596797 21.361818 
L 388.996094 21.361818 
L 387.395391 21.361818 
L 385.794688 21.361818 
L 384.193984 21.361818 
L 382.593281 21.361818 
L 380.992578 21.361818 
L 379.391875 21.361818 
L 377.791172 21.361818 
L 376.190469 21.361818 
L 374.589766 21.361818 
L 372.989062 21.361818 
L 371.388359 21.361818 
L 369.787656 21.361818 
L 368.186953 21.361818 
L 366.58625 21.361818 
L 364.985547 21.361818 
L 363.384844 21.361818 
L 361.784141 21.361818 
L 360.183438 21.361818 
L 358.582734 21.361818 
L 356.982031 21.361818 
L 355.381328 21.361818 
L 353.780625 21.361818 
L 352.179922 21.361818 
L 350.579219 21.361818 
L 348.978516 21.361818 
L 347.377813 21.361818 
L 345.777109 21.361818 
L 344.176406 21.361818 
L 342.575703 21.361818 
L 340.975 21.361818 
z
" clip-path="url(#p9ded8a67fe)" style="fill: #d62728; fill-opacity: 0.4"/>
   </g>
   <g id="FillBetweenPolyCollection_5">
    <path d="M 443.42 232.598182 
L 443.42 216.951044 
L 445.020703 216.84267 
L 446.621406 216.517809 
L 448.222109 215.977243 
L 449.822812 215.222275 
L 451.423516 214.254724 
L 453.024219 213.076921 
L 454.624922 211.691702 
L 456.225625 210.102406 
L 457.826328 208.31286 
L 459.427031 206.327377 
L 461.027734 204.150738 
L 462.628438 201.788189 
L 464.229141 199.24542 
L 465.829844 196.528557 
L 467.430547 193.644146 
L 469.03125 190.599135 
L 470.631953 187.40086 
L 472.232656 184.057026 
L 473.833359 180.575688 
L 475.434063 176.965234 
L 477.034766 173.234361 
L 478.635469 169.392056 
L 480.236172 165.447578 
L 481.836875 161.410428 
L 483.437578 157.290332 
L 485.038281 153.097215 
L 486.638984 148.84118 
L 488.239688 144.53248 
L 489.840391 140.181494 
L 491.441094 135.798704 
L 493.041797 131.39467 
L 494.6425 126.98 
L 496.243203 122.56533 
L 497.843906 118.161296 
L 499.444609 113.778506 
L 501.045313 109.42752 
L 502.646016 105.11882 
L 504.246719 100.862785 
L 505.847422 96.669668 
L 507.448125 92.549572 
L 509.048828 88.512422 
L 510.649531 84.567944 
L 512.250234 80.725639 
L 513.850938 76.994766 
L 515.451641 73.384312 
L 517.052344 69.902974 
L 518.653047 66.55914 
L 520.25375 63.360865 
L 521.854453 60.315854 
L 523.455156 57.431443 
L 525.055859 54.71458 
L 526.656563 52.171811 
L 528.257266 49.809262 
L 529.857969 47.632623 
L 531.458672 45.64714 
L 533.059375 43.857594 
L 534.660078 42.268298 
L 536.260781 40.883079 
L 537.861484 39.705276 
L 539.462188 38.737725 
L 541.062891 37.982757 
L 542.663594 37.442191 
L 544.264297 37.11733 
L 545.865 37.008956 
L 547.465703 37.11733 
L 549.066406 37.442191 
L 550.667109 37.982757 
L 552.267812 38.737725 
L 553.868516 39.705276 
L 555.469219 40.883079 
L 557.069922 42.268298 
L 558.670625 43.857594 
L 560.271328 45.64714 
L 561.872031 47.632623 
L 563.472734 49.809262 
L 565.073438 52.171811 
L 566.674141 54.71458 
L 568.274844 57.431443 
L 569.875547 60.315854 
L 571.47625 63.360865 
L 573.076953 66.55914 
L 574.677656 69.902974 
L 576.278359 73.384312 
L 577.879063 76.994766 
L 579.479766 80.725639 
L 581.080469 84.567944 
L 582.681172 88.512422 
L 584.281875 92.549572 
L 585.882578 96.669668 
L 587.483281 100.862785 
L 589.083984 105.11882 
L 590.684687 109.42752 
L 592.285391 113.778506 
L 593.886094 118.161296 
L 595.486797 122.56533 
L 597.0875 126.98 
L 598.688203 131.39467 
L 600.288906 135.798704 
L 601.889609 140.181494 
L 603.490313 144.53248 
L 605.091016 148.84118 
L 606.691719 153.097215 
L 608.292422 157.290332 
L 609.893125 161.410428 
L 611.493828 165.447578 
L 613.094531 169.392056 
L 614.695234 173.234361 
L 616.295938 176.965234 
L 617.896641 180.575688 
L 619.497344 184.057026 
L 621.098047 187.40086 
L 622.69875 190.599135 
L 624.299453 193.644146 
L 625.900156 196.528557 
L 627.500859 199.24542 
L 629.101562 201.788189 
L 630.702266 204.150738 
L 632.302969 206.327377 
L 633.903672 208.31286 
L 635.504375 210.102406 
L 637.105078 211.691702 
L 638.705781 213.076921 
L 640.306484 214.254724 
L 641.907188 215.222275 
L 643.507891 215.977243 
L 645.108594 216.517809 
L 646.709297 216.84267 
L 648.31 216.951044 
L 648.31 232.598182 
L 648.31 232.598182 
L 646.709297 232.598182 
L 645.108594 232.598182 
L 643.507891 232.598182 
L 641.907188 232.598182 
L 640.306484 232.598182 
L 638.705781 232.598182 
L 637.105078 232.598182 
L 635.504375 232.598182 
L 633.903672 232.598182 
L 632.302969 232.598182 
L 630.702266 232.598182 
L 629.101562 232.598182 
L 627.500859 232.598182 
L 625.900156 232.598182 
L 624.299453 232.598182 
L 622.69875 232.598182 
L 621.098047 232.598182 
L 619.497344 232.598182 
L 617.896641 232.598182 
L 616.295938 232.598182 
L 614.695234 232.598182 
L 613.094531 232.598182 
L 611.493828 232.598182 
L 609.893125 232.598182 
L 608.292422 232.598182 
L 606.691719 232.598182 
L 605.091016 232.598182 
L 603.490313 232.598182 
L 601.889609 232.598182 
L 600.288906 232.598182 
L 598.688203 232.598182 
L 597.0875 232.598182 
L 595.486797 232.598182 
L 593.886094 232.598182 
L 592.285391 232.598182 
L 590.684687 232.598182 
L 589.083984 232.598182 
L 587.483281 232.598182 
L 585.882578 232.598182 
L 584.281875 232.598182 
L 582.681172 232.598182 
L 581.080469 232.598182 
L 579.479766 232.598182 
L 577.879063 232.598182 
L 576.278359 232.598182 
L 574.677656 232.598182 
L 573.076953 232.598182 
L 571.47625 232.598182 
L 569.875547 232.598182 
L 568.274844 232.598182 
L 566.674141 232.598182 
L 565.073438 232.598182 
L 563.472734 232.598182 
L 561.872031 232.598182 
L 560.271328 232.598182 
L 558.670625 232.598182 
L 557.069922 232.598182 
L 555.469219 232.598182 
L 553.868516 232.598182 
L 552.267812 232.598182 
L 550.667109 232.598182 
L 549.066406 232.598182 
L 547.465703 232.598182 
L 545.865 232.598182 
L 544.264297 232.598182 
L 542.663594 232.598182 
L 541.062891 232.598182 
L 539.462188 232.598182 
L 537.861484 232.598182 
L 536.260781 232.598182 
L 534.660078 232.598182 
L 533.059375 232.598182 
L 531.458672 232.598182 
L 529.857969 232.598182 
L 528.257266 232.598182 
L 526.656563 232.598182 
L 525.055859 232.598182 
L 523.455156 232.598182 
L 521.854453 232.598182 
L 520.25375 232.598182 
L 518.653047 232.598182 
L 517.052344 232.598182 
L 515.451641 232.598182 
L 513.850938 232.598182 
L 512.250234 232.598182 
L 510.649531 232.598182 
L 509.048828 232.598182 
L 507.448125 232.598182 
L 505.847422 232.598182 
L 504.246719 232.598182 
L 502.646016 232.598182 
L 501.045313 232.598182 
L 499.444609 232.598182 
L 497.843906 232.598182 
L 496.243203 232.598182 
L 494.6425 232.598182 
L 493.041797 232.598182 
L 491.441094 232.598182 
L 489.840391 232.598182 
L 488.239688 232.598182 
L 486.638984 232.598182 
L 485.038281 232.598182 
L 483.437578 232.598182 
L 481.836875 232.598182 
L 480.236172 232.598182 
L 478.635469 232.598182 
L 477.034766 232.598182 
L 475.434063 232.598182 
L 473.833359 232.598182 
L 472.232656 232.598182 
L 470.631953 232.598182 
L 469.03125 232.598182 
L 467.430547 232.598182 
L 465.829844 232.598182 
L 464.229141 232.598182 
L 462.628438 232.598182 
L 461.027734 232.598182 
L 459.427031 232.598182 
L 457.826328 232.598182 
L 456.225625 232.598182 
L 454.624922 232.598182 
L 453.024219 232.598182 
L 451.423516 232.598182 
L 449.822812 232.598182 
L 448.222109 232.598182 
L 446.621406 232.598182 
L 445.020703 232.598182 
L 443.42 232.598182 
z
" clip-path="url(#p9ded8a67fe)" style="fill: #9467bd; fill-opacity: 0.4"/>
   </g>
   <g id="FillBetweenPolyCollection_6">
    <path d="M 545.865 21.361818 
L 545.865 37.008956 
L 547.465703 37.11733 
L 549.066406 37.442191 
L 550.667109 37.982757 
L 552.267812 38.737725 
L 553.868516 39.705276 
L 555.469219 40.883079 
L 557.069922 42.268298 
L 558.670625 43.857594 
L 560.271328 45.64714 
L 561.872031 47.632623 
L 563.472734 49.809262 
L 565.073438 52.171811 
L 566.674141 54.71458 
L 568.274844 57.431443 
L 569.875547 60.315854 
L 571.47625 63.360865 
L 573.076953 66.55914 
L 574.677656 69.902974 
L 576.278359 73.384312 
L 577.879063 76.994766 
L 579.479766 80.725639 
L 581.080469 84.567944 
L 582.681172 88.512422 
L 584.281875 92.549572 
L 585.882578 96.669668 
L 587.483281 100.862785 
L 589.083984 105.11882 
L 590.684687 109.42752 
L 592.285391 113.778506 
L 593.886094 118.161296 
L 595.486797 122.56533 
L 597.0875 126.98 
L 598.688203 131.39467 
L 600.288906 135.798704 
L 601.889609 140.181494 
L 603.490313 144.53248 
L 605.091016 148.84118 
L 606.691719 153.097215 
L 608.292422 157.290332 
L 609.893125 161.410428 
L 611.493828 165.447578 
L 613.094531 169.392056 
L 614.695234 173.234361 
L 616.295938 176.965234 
L 617.896641 180.575688 
L 619.497344 184.057026 
L 621.098047 187.40086 
L 622.69875 190.599135 
L 624.299453 193.644146 
L 625.900156 196.528557 
L 627.500859 199.24542 
L 629.101562 201.788189 
L 630.702266 204.150738 
L 632.302969 206.327377 
L 633.903672 208.31286 
L 635.504375 210.102406 
L 637.105078 211.691702 
L 638.705781 213.076921 
L 640.306484 214.254724 
L 641.907188 215.222275 
L 643.507891 215.977243 
L 645.108594 216.517809 
L 646.709297 216.84267 
L 648.31 216.951044 
L 649.910703 216.84267 
L 651.511406 216.517809 
L 653.112109 215.977243 
L 654.712813 215.222275 
L 656.313516 214.254724 
L 657.914219 213.076921 
L 659.514922 211.691702 
L 661.115625 210.102406 
L 662.716328 208.31286 
L 664.317031 206.327377 
L 665.917734 204.150738 
L 667.518438 201.788189 
L 669.119141 199.24542 
L 670.719844 196.528557 
L 672.320547 193.644146 
L 673.92125 190.599135 
L 675.521953 187.40086 
L 677.122656 184.057026 
L 678.723359 180.575688 
L 680.324063 176.965234 
L 681.924766 173.234361 
L 683.525469 169.392056 
L 685.126172 165.447578 
L 686.726875 161.410428 
L 688.327578 157.290332 
L 689.928281 153.097215 
L 691.528984 148.84118 
L 693.129688 144.53248 
L 694.730391 140.181494 
L 696.331094 135.798704 
L 697.931797 131.39467 
L 699.5325 126.98 
L 701.133203 122.56533 
L 702.733906 118.161296 
L 704.334609 113.778506 
L 705.935313 109.42752 
L 707.536016 105.11882 
L 709.136719 100.862785 
L 710.737422 96.669668 
L 712.338125 92.549572 
L 713.938828 88.512422 
L 715.539531 84.567944 
L 717.140234 80.725639 
L 718.740938 76.994766 
L 720.341641 73.384312 
L 721.942344 69.902974 
L 723.543047 66.55914 
L 725.14375 63.360865 
L 726.744453 60.315854 
L 728.345156 57.431443 
L 729.945859 54.71458 
L 731.546563 52.171811 
L 733.147266 49.809262 
L 734.747969 47.632623 
L 736.348672 45.64714 
L 737.949375 43.857594 
L 739.550078 42.268298 
L 741.150781 40.883079 
L 742.751484 39.705276 
L 744.352188 38.737725 
L 745.952891 37.982757 
L 747.553594 37.442191 
L 749.154297 37.11733 
L 750.755 37.008956 
L 750.755 21.361818 
L 750.755 21.361818 
L 749.154297 21.361818 
L 747.553594 21.361818 
L 745.952891 21.361818 
L 744.352188 21.361818 
L 742.751484 21.361818 
L 741.150781 21.361818 
L 739.550078 21.361818 
L 737.949375 21.361818 
L 736.348672 21.361818 
L 734.747969 21.361818 
L 733.147266 21.361818 
L 731.546563 21.361818 
L 729.945859 21.361818 
L 728.345156 21.361818 
L 726.744453 21.361818 
L 725.14375 21.361818 
L 723.543047 21.361818 
L 721.942344 21.361818 
L 720.341641 21.361818 
L 718.740938 21.361818 
L 717.140234 21.361818 
L 715.539531 21.361818 
L 713.938828 21.361818 
L 712.338125 21.361818 
L 710.737422 21.361818 
L 709.136719 21.361818 
L 707.536016 21.361818 
L 705.935313 21.361818 
L 704.334609 21.361818 
L 702.733906 21.361818 
L 701.133203 21.361818 
L 699.5325 21.361818 
L 697.931797 21.361818 
L 696.331094 21.361818 
L 694.730391 21.361818 
L 693.129688 21.361818 
L 691.528984 21.361818 
L 689.928281 21.361818 
L 688.327578 21.361818 
L 686.726875 21.361818 
L 685.126172 21.361818 
L 683.525469 21.361818 
L 681.924766 21.361818 
L 680.324063 21.361818 
L 678.723359 21.361818 
L 677.122656 21.361818 
L 675.521953 21.361818 
L 673.92125 21.361818 
L 672.320547 21.361818 
L 670.719844 21.361818 
L 669.119141 21.361818 
L 667.518438 21.361818 
L 665.917734 21.361818 
L 664.317031 21.361818 
L 662.716328 21.361818 
L 661.115625 21.361818 
L 659.514922 21.361818 
L 657.914219 21.361818 
L 656.313516 21.361818 
L 654.712813 21.361818 
L 653.112109 21.361818 
L 651.511406 21.361818 
L 649.910703 21.361818 
L 648.31 21.361818 
L 646.709297 21.361818 
L 645.108594 21.361818 
L 643.507891 21.361818 
L 641.907188 21.361818 
L 640.306484 21.361818 
L 638.705781 21.361818 
L 637.105078 21.361818 
L 635.504375 21.361818 
L 633.903672 21.361818 
L 632.302969 21.361818 
L 630.702266 21.361818 
L 629.101562 21.361818 
L 627.500859 21.361818 
L 625.900156 21.361818 
L 624.299453 21.361818 
L 622.69875 21.361818 
L 621.098047 21.361818 
L 619.497344 21.361818 
L 617.896641 21.361818 
L 616.295938 21.361818 
L 614.695234 21.361818 
L 613.094531 21.361818 
L 611.493828 21.361818 
L 609.893125 21.361818 
L 608.292422 21.361818 
L 606.691719 21.361818 
L 605.091016 21.361818 
L 603.490313 21.361818 
L 601.889609 21.361818 
L 600.288906 21.361818 
L 598.688203 21.361818 
L 597.0875 21.361818 
L 595.486797 21.361818 
L 593.886094 21.361818 
L 592.285391 21.361818 
L 590.684687 21.361818 
L 589.083984 21.361818 
L 587.483281 21.361818 
L 585.882578 21.361818 
L 584.281875 21.361818 
L 582.681172 21.361818 
L 581.080469 21.361818 
L 579.479766 21.361818 
L 577.879063 21.361818 
L 576.278359 21.361818 
L 574.677656 21.361818 
L 573.076953 21.361818 
L 571.47625 21.361818 
L 569.875547 21.361818 
L 568.274844 21.361818 
L 566.674141 21.361818 
L 565.073438 21.361818 
L 563.472734 21.361818 
L 561.872031 21.361818 
L 560.271328 21.361818 
L 558.670625 21.361818 
L 557.069922 21.361818 
L 555.469219 21.361818 
L 553.868516 21.361818 
L 552.267812 21.361818 
L 550.667109 21.361818 
L 549.066406 21.361818 
L 547.465703 21.361818 
L 545.865 21.361818 
z
" clip-path="url(#p9ded8a67fe)" style="fill: #8c564b; fill-opacity: 0.4"/>
   </g>
   <g id="FillBetweenPolyCollection_7">
    <path d="M 648.31 232.598182 
L 648.31 216.951044 
L 649.910703 216.84267 
L 651.511406 216.517809 
L 653.112109 215.977243 
L 654.712813 215.222275 
L 656.313516 214.254724 
L 657.914219 213.076921 
L 659.514922 211.691702 
L 661.115625 210.102406 
L 662.716328 208.31286 
L 664.317031 206.327377 
L 665.917734 204.150738 
L 667.518438 201.788189 
L 669.119141 199.24542 
L 670.719844 196.528557 
L 672.320547 193.644146 
L 673.92125 190.599135 
L 675.521953 187.40086 
L 677.122656 184.057026 
L 678.723359 180.575688 
L 680.324063 176.965234 
L 681.924766 173.234361 
L 683.525469 169.392056 
L 685.126172 165.447578 
L 686.726875 161.410428 
L 688.327578 157.290332 
L 689.928281 153.097215 
L 691.528984 148.84118 
L 693.129688 144.53248 
L 694.730391 140.181494 
L 696.331094 135.798704 
L 697.931797 131.39467 
L 699.5325 126.98 
L 701.133203 122.56533 
L 702.733906 118.161296 
L 704.334609 113.778506 
L 705.935313 109.42752 
L 707.536016 105.11882 
L 709.136719 100.862785 
L 710.737422 96.669668 
L 712.338125 92.549572 
L 713.938828 88.512422 
L 715.539531 84.567944 
L 717.140234 80.725639 
L 718.740938 76.994766 
L 720.341641 73.384312 
L 721.942344 69.902974 
L 723.543047 66.55914 
L 725.14375 63.360865 
L 726.744453 60.315854 
L 728.345156 57.431443 
L 729.945859 54.71458 
L 731.546563 52.171811 
L 733.147266 49.809262 
L 734.747969 47.632623 
L 736.348672 45.64714 
L 737.949375 43.857594 
L 739.550078 42.268298 
L 741.150781 40.883079 
L 742.751484 39.705276 
L 744.352188 38.737725 
L 745.952891 37.982757 
L 747.553594 37.442191 
L 749.154297 37.11733 
L 750.755 37.008956 
L 752.355703 37.11733 
L 753.956406 37.442191 
L 755.557109 37.982757 
L 757.157813 38.737725 
L 758.758516 39.705276 
L 760.359219 40.883079 
L 761.959922 42.268298 
L 763.560625 43.857594 
L 765.161328 45.64714 
L 766.762031 47.632623 
L 768.362734 49.809262 
L 769.963438 52.171811 
L 771.564141 54.71458 
L 773.164844 57.431443 
L 774.765547 60.315854 
L 776.36625 63.360865 
L 777.966953 66.55914 
L 779.567656 69.902974 
L 781.168359 73.384312 
L 782.769063 76.994766 
L 784.369766 80.725639 
L 785.970469 84.567944 
L 787.571172 88.512422 
L 789.171875 92.549572 
L 790.772578 96.669668 
L 792.373281 100.862785 
L 793.973984 105.11882 
L 795.574688 109.42752 
L 797.175391 113.778506 
L 798.776094 118.161296 
L 800.376797 122.56533 
L 801.9775 126.98 
L 803.578203 131.39467 
L 805.178906 135.798704 
L 806.779609 140.181494 
L 808.380313 144.53248 
L 809.981016 148.84118 
L 811.581719 153.097215 
L 813.182422 157.290332 
L 814.783125 161.410428 
L 816.383828 165.447578 
L 817.984531 169.392056 
L 819.585234 173.234361 
L 821.185938 176.965234 
L 822.786641 180.575688 
L 824.387344 184.057026 
L 825.988047 187.40086 
L 827.58875 190.599135 
L 829.189453 193.644146 
L 830.790156 196.528557 
L 832.390859 199.24542 
L 833.991563 201.788189 
L 835.592266 204.150738 
L 837.192969 206.327377 
L 838.793672 208.31286 
L 840.394375 210.102406 
L 841.995078 211.691702 
L 843.595781 213.076921 
L 845.196484 214.254724 
L 846.797188 215.222275 
L 848.397891 215.977243 
L 849.998594 216.517809 
L 851.599297 216.84267 
L 853.2 216.951044 
L 853.2 232.598182 
L 853.2 232.598182 
L 851.599297 232.598182 
L 849.998594 232.598182 
L 848.397891 232.598182 
L 846.797188 232.598182 
L 845.196484 232.598182 
L 843.595781 232.598182 
L 841.995078 232.598182 
L 840.394375 232.598182 
L 838.793672 232.598182 
L 837.192969 232.598182 
L 835.592266 232.598182 
L 833.991563 232.598182 
L 832.390859 232.598182 
L 830.790156 232.598182 
L 829.189453 232.598182 
L 827.58875 232.598182 
L 825.988047 232.598182 
L 824.387344 232.598182 
L 822.786641 232.598182 
L 821.185938 232.598182 
L 819.585234 232.598182 
L 817.984531 232.598182 
L 816.383828 232.598182 
L 814.783125 232.598182 
L 813.182422 232.598182 
L 811.581719 232.598182 
L 809.981016 232.598182 
L 808.380313 232.598182 
L 806.779609 232.598182 
L 805.178906 232.598182 
L 803.578203 232.598182 
L 801.9775 232.598182 
L 800.376797 232.598182 
L 798.776094 232.598182 
L 797.175391 232.598182 
L 795.574688 232.598182 
L 793.973984 232.598182 
L 792.373281 232.598182 
L 790.772578 232.598182 
L 789.171875 232.598182 
L 787.571172 232.598182 
L 785.970469 232.598182 
L 784.369766 232.598182 
L 782.769063 232.598182 
L 781.168359 232.598182 
L 779.567656 232.598182 
L 777.966953 232.598182 
L 776.36625 232.598182 
L 774.765547 232.598182 
L 773.164844 232.598182 
L 771.564141 232.598182 
L 769.963438 232.598182 
L 768.362734 232.598182 
L 766.762031 232.598182 
L 765.161328 232.598182 
L 763.560625 232.598182 
L 761.959922 232.598182 
L 760.359219 232.598182 
L 758.758516 232.598182 
L 757.157813 232.598182 
L 755.557109 232.598182 
L 753.956406 232.598182 
L 752.355703 232.598182 
L 750.755 232.598182 
L 749.154297 232.598182 
L 747.553594 232.598182 
L 745.952891 232.598182 
L 744.352188 232.598182 
L 742.751484 232.598182 
L 741.150781 232.598182 
L 739.550078 232.598182 
L 737.949375 232.598182 
L 736.348672 232.598182 
L 734.747969 232.598182 
L 733.147266 232.598182 
L 731.546563 232.598182 
L 729.945859 232.598182 
L 728.345156 232.598182 
L 726.744453 232.598182 
L 725.14375 232.598182 
L 723.543047 232.598182 
L 721.942344 232.598182 
L 720.341641 232.598182 
L 718.740938 232.598182 
L 717.140234 232.598182 
L 715.539531 232.598182 
L 713.938828 232.598182 
L 712.338125 232.598182 
L 710.737422 232.598182 
L 709.136719 232.598182 
L 707.536016 232.598182 
L 705.935313 232.598182 
L 704.334609 232.598182 
L 702.733906 232.598182 
L 701.133203 232.598182 
L 699.5325 232.598182 
L 697.931797 232.598182 
L 696.331094 232.598182 
L 694.730391 232.598182 
L 693.129688 232.598182 
L 691.528984 232.598182 
L 689.928281 232.598182 
L 688.327578 232.598182 
L 686.726875 232.598182 
L 685.126172 232.598182 
L 683.525469 232.598182 
L 681.924766 232.598182 
L 680.324063 232.598182 
L 678.723359 232.598182 
L 677.122656 232.598182 
L 675.521953 232.598182 
L 673.92125 232.598182 
L 672.320547 232.598182 
L 670.719844 232.598182 
L 669.119141 232.598182 
L 667.518438 232.598182 
L 665.917734 232.598182 
L 664.317031 232.598182 
L 662.716328 232.598182 
L 661.115625 232.598182 
L 659.514922 232.598182 
L 657.914219 232.598182 
L 656.313516 232.598182 
L 654.712813 232.598182 
L 653.112109 232.598182 
L 651.511406 232.598182 
L 649.910703 232.598182 
L 648.31 232.598182 
z
" clip-path="url(#p9ded8a67fe)" style="fill: #e377c2; fill-opacity: 0.4"/>
   </g>
   <g id="matplotlib.axis_1">
    <g id="xtick_1">
     <g id="line2d_1">
      <defs>
       <path id="m5f21ca3078" d="M 0 0 
L 0 3.5 
" style="stroke: #000000; stroke-width: 0.8"/>
      </defs>
      <g>
       <use xlink:href="#m5f21ca3078" x="33.64" y="243.16" style="stroke: #000000; stroke-width: 0.8"/>
      </g>
     </g>
     <g id="text_1">
      <!-- 0 -->
      <g transform="translate(30.45875 257.758438) scale(0.1 -0.1)">
       <defs>
        <path id="DejaVuSans-30" d="M 2034 4250 
Q 1547 4250 1301 3770 
Q 1056 3291 1056 2328 
Q 1056 1369 1301 889 
Q 1547 409 2034 409 
Q 2525 409 2770 889 
Q 3016 1369 3016 2328 
Q 3016 3291 2770 3770 
Q 2525 4250 2034 4250 
z
M 2034 4750 
Q 2819 4750 3233 4129 
Q 3647 3509 3647 2328 
Q 3647 1150 3233 529 
Q 2819 -91 2034 -91 
Q 1250 -91 836 529 
Q 422 1150 422 2328 
Q 422 3509 836 4129 
Q 1250 4750 2034 4750 
z
" transform="scale(0.015625)"/>
       </defs>
       <use xlink:href="#DejaVuSans-30"/>
      </g>
     </g>
    </g>
    <g id="xtick_2">
     <g id="line2d_2">
      <g>
       <use xlink:href="#m5f21ca3078" x="193.710313" y="243.16" style="stroke: #000000; stroke-width: 0.8"/>
      </g>
     </g>
     <g id="text_2">
      <!-- 100 -->
      <g transform="translate(184.166563 257.758438) scale(0.1 -0.1)">
       <defs>
        <path id="DejaVuSans-31" d="M 794 531 
L 1825 531 
L 1825 4091 
L 703 3866 
L 703 4441 
L 1819 4666 
L 2450 4666 
L 2450 531 
L 3481 531 
L 3481 0 
L 794 0 
L 794 531 
z
" transform="scale(0.015625)"/>
       </defs>
       <use xlink:href="#DejaVuSans-31"/>
       <use xlink:href="#DejaVuSans-30" transform="translate(63.623047 0)"/>
       <use xlink:href="#DejaVuSans-30" transform="translate(127.246094 0)"/>
      </g>
     </g>
    </g>
    <g id="xtick_3">
     <g id="line2d_3">
      <g>
       <use xlink:href="#m5f21ca3078" x="353.780625" y="243.16" style="stroke: #000000; stroke-width: 0.8"/>
      </g>
     </g>
     <g id="text_3">
      <!-- 200 -->
      <g transform="translate(344.236875 257.758438) scale(0.1 -0.1)">
       <defs>
        <path id="DejaVuSans-32" d="M 1228 531 
L 3431 531 
L 3431 0 
L 469 0 
L 469 531 
Q 828 903 1448 1529 
Q 2069 2156 2228 2338 
Q 2531 2678 2651 2914 
Q 2772 3150 2772 3378 
Q 2772 3750 2511 3984 
Q 2250 4219 1831 4219 
Q 1534 4219 1204 4116 
Q 875 4013 500 3803 
L 500 4441 
Q 881 4594 1212 4672 
Q 1544 4750 1819 4750 
Q 2544 4750 2975 4387 
Q 3406 4025 3406 3419 
Q 3406 3131 3298 2873 
Q 3191 2616 2906 2266 
Q 2828 2175 2409 1742 
Q 1991 1309 1228 531 
z
" transform="scale(0.015625)"/>
       </defs>
       <use xlink:href="#DejaVuSans-32"/>
       <use xlink:href="#DejaVuSans-30" transform="translate(63.623047 0)"/>
       <use xlink:href="#DejaVuSans-30" transform="translate(127.246094 0)"/>
      </g>
     </g>
    </g>
    <g id="xtick_4">
     <g id="line2d_4">
      <g>
       <use xlink:href="#m5f21ca3078" x="513.850938" y="243.16" style="stroke: #000000; stroke-width: 0.8"/>
      </g>
     </g>
     <g id="text_4">
      <!-- 300 -->
      <g transform="translate(504.307188 257.758438) scale(0.1 -0.1)">
       <defs>
        <path id="DejaVuSans-33" d="M 2597 2516 
Q 3050 2419 3304 2112 
Q 3559 1806 3559 1356 
Q 3559 666 3084 287 
Q 2609 -91 1734 -91 
Q 1441 -91 1130 -33 
Q 819 25 488 141 
L 488 750 
Q 750 597 1062 519 
Q 1375 441 1716 441 
Q 2309 441 2620 675 
Q 2931 909 2931 1356 
Q 2931 1769 2642 2001 
Q 2353 2234 1838 2234 
L 1294 2234 
L 1294 2753 
L 1863 2753 
Q 2328 2753 2575 2939 
Q 2822 3125 2822 3475 
Q 2822 3834 2567 4026 
Q 2313 4219 1838 4219 
Q 1578 4219 1281 4162 
Q 984 4106 628 3988 
L 628 4550 
Q 988 4650 1302 4700 
Q 1616 4750 1894 4750 
Q 2613 4750 3031 4423 
Q 3450 4097 3450 3541 
Q 3450 3153 3228 2886 
Q 3006 2619 2597 2516 
z
" transform="scale(0.015625)"/>
       </defs>
       <use xlink:href="#DejaVuSans-33"/>
       <use xlink:href="#DejaVuSans-30" transform="translate(63.623047 0)"/>
       <use xlink:href="#DejaVuSans-30" transform="translate(127.246094 0)"/>
      </g>
     </g>
    </g>
    <g id="xtick_5">
     <g id="line2d_5">
      <g>
       <use xlink:href="#m5f21ca3078" x="673.92125" y="243.16" style="stroke: #000000; stroke-width: 0.8"/>
      </g>
     </g>
     <g id="text_5">
      <!-- 400 -->
      <g transform="translate(664.3775 257.758438) scale(0.1 -0.1)">
       <defs>
        <path id="DejaVuSans-34" d="M 2419 4116 
L 825 1625 
L 2419 1625 
L 2419 4116 
z
M 2253 4666 
L 3047 4666 
L 3047 1625 
L 3713 1625 
L 3713 1100 
L 3047 1100 
L 3047 0 
L 2419 0 
L 2419 1100 
L 313 1100 
L 313 1709 
L 2253 4666 
z
" transform="scale(0.015625)"/>
       </defs>
       <use xlink:href="#DejaVuSans-34"/>
       <use xlink:href="#DejaVuSans-30" transform="translate(63.623047 0)"/>
       <use xlink:href="#DejaVuSans-30" transform="translate(127.246094 0)"/>
      </g>
     </g>
    </g>
    <g id="xtick_6">
     <g id="line2d_6">
      <g>
       <use xlink:href="#m5f21ca3078" x="833.991563" y="243.16" style="stroke: #000000; stroke-width: 0.8"/>
      </g>
     </g>
     <g id="text_6">
      <!-- 500 -->
      <g transform="translate(824.447813 257.758438) scale(0.1 -0.1)">
       <defs>
        <path id="DejaVuSans-35" d="M 691 4666 
L 3169 4666 
L 3169 4134 
L 1269 4134 
L 1269 2991 
Q 1406 3038 1543 3061 
Q 1681 3084 1819 3084 
Q 2600 3084 3056 2656 
Q 3513 2228 3513 1497 
Q 3513 744 3044 326 
Q 2575 -91 1722 -91 
Q 1428 -91 1123 -41 
Q 819 9 494 109 
L 494 744 
Q 775 591 1075 516 
Q 1375 441 1709 441 
Q 2250 441 2565 725 
Q 2881 1009 2881 1497 
Q 2881 1984 2565 2268 
Q 2250 2553 1709 2553 
Q 1456 2553 1204 2497 
Q 953 2441 691 2322 
L 691 4666 
z
" transform="scale(0.015625)"/>
       </defs>
       <use xlink:href="#DejaVuSans-35"/>
       <use xlink:href="#DejaVuSans-30" transform="translate(63.623047 0)"/>
       <use xlink:href="#DejaVuSans-30" transform="translate(127.246094 0)"/>
      </g>
     </g>
    </g>
    <g id="text_7">
     <!-- Samples $n$ -->
     <g transform="translate(417.27 271.438125) scale(0.1 -0.1)">
      <defs>
       <path id="DejaVuSans-53" d="M 3425 4513 
L 3425 3897 
Q 3066 4069 2747 4153 
Q 2428 4238 2131 4238 
Q 1616 4238 1336 4038 
Q 1056 3838 1056 3469 
Q 1056 3159 1242 3001 
Q 1428 2844 1947 2747 
L 2328 2669 
Q 3034 2534 3370 2195 
Q 3706 1856 3706 1288 
Q 3706 609 3251 259 
Q 2797 -91 1919 -91 
Q 1588 -91 1214 -16 
Q 841 59 441 206 
L 441 856 
Q 825 641 1194 531 
Q 1563 422 1919 422 
Q 2459 422 2753 634 
Q 3047 847 3047 1241 
Q 3047 1584 2836 1778 
Q 2625 1972 2144 2069 
L 1759 2144 
Q 1053 2284 737 2584 
Q 422 2884 422 3419 
Q 422 4038 858 4394 
Q 1294 4750 2059 4750 
Q 2388 4750 2728 4690 
Q 3069 4631 3425 4513 
z
" transform="scale(0.015625)"/>
       <path id="DejaVuSans-61" d="M 2194 1759 
Q 1497 1759 1228 1600 
Q 959 1441 959 1056 
Q 959 750 1161 570 
Q 1363 391 1709 391 
Q 2188 391 2477 730 
Q 2766 1069 2766 1631 
L 2766 1759 
L 2194 1759 
z
M 3341 1997 
L 3341 0 
L 2766 0 
L 2766 531 
Q 2569 213 2275 61 
Q 1981 -91 1556 -91 
Q 1019 -91 701 211 
Q 384 513 384 1019 
Q 384 1609 779 1909 
Q 1175 2209 1959 2209 
L 2766 2209 
L 2766 2266 
Q 2766 2663 2505 2880 
Q 2244 3097 1772 3097 
Q 1472 3097 1187 3025 
Q 903 2953 641 2809 
L 641 3341 
Q 956 3463 1253 3523 
Q 1550 3584 1831 3584 
Q 2591 3584 2966 3190 
Q 3341 2797 3341 1997 
z
" transform="scale(0.015625)"/>
       <path id="DejaVuSans-6d" d="M 3328 2828 
Q 3544 3216 3844 3400 
Q 4144 3584 4550 3584 
Q 5097 3584 5394 3201 
Q 5691 2819 5691 2113 
L 5691 0 
L 5113 0 
L 5113 2094 
Q 5113 2597 4934 2840 
Q 4756 3084 4391 3084 
Q 3944 3084 3684 2787 
Q 3425 2491 3425 1978 
L 3425 0 
L 2847 0 
L 2847 2094 
Q 2847 2600 2669 2842 
Q 2491 3084 2119 3084 
Q 1678 3084 1418 2786 
Q 1159 2488 1159 1978 
L 1159 0 
L 581 0 
L 581 3500 
L 1159 3500 
L 1159 2956 
Q 1356 3278 1631 3431 
Q 1906 3584 2284 3584 
Q 2666 3584 2933 3390 
Q 3200 3197 3328 2828 
z
" transform="scale(0.015625)"/>
       <path id="DejaVuSans-70" d="M 1159 525 
L 1159 -1331 
L 581 -1331 
L 581 3500 
L 1159 3500 
L 1159 2969 
Q 1341 3281 1617 3432 
Q 1894 3584 2278 3584 
Q 2916 3584 3314 3078 
Q 3713 2572 3713 1747 
Q 3713 922 3314 415 
Q 2916 -91 2278 -91 
Q 1894 -91 1617 61 
Q 1341 213 1159 525 
z
M 3116 1747 
Q 3116 2381 2855 2742 
Q 2594 3103 2138 3103 
Q 1681 3103 1420 2742 
Q 1159 2381 1159 1747 
Q 1159 1113 1420 752 
Q 1681 391 2138 391 
Q 2594 391 2855 752 
Q 3116 1113 3116 1747 
z
" transform="scale(0.015625)"/>
       <path id="DejaVuSans-6c" d="M 603 4863 
L 1178 4863 
L 1178 0 
L 603 0 
L 603 4863 
z
" transform="scale(0.015625)"/>
       <path id="DejaVuSans-65" d="M 3597 1894 
L 3597 1613 
L 953 1613 
Q 991 1019 1311 708 
Q 1631 397 2203 397 
Q 2534 397 2845 478 
Q 3156 559 3463 722 
L 3463 178 
Q 3153 47 2828 -22 
Q 2503 -91 2169 -91 
Q 1331 -91 842 396 
Q 353 884 353 1716 
Q 353 2575 817 3079 
Q 1281 3584 2069 3584 
Q 2775 3584 3186 3129 
Q 3597 2675 3597 1894 
z
M 3022 2063 
Q 3016 2534 2758 2815 
Q 2500 3097 2075 3097 
Q 1594 3097 1305 2825 
Q 1016 2553 972 2059 
L 3022 2063 
z
" transform="scale(0.015625)"/>
       <path id="DejaVuSans-73" d="M 2834 3397 
L 2834 2853 
Q 2591 2978 2328 3040 
Q 2066 3103 1784 3103 
Q 1356 3103 1142 2972 
Q 928 2841 928 2578 
Q 928 2378 1081 2264 
Q 1234 2150 1697 2047 
L 1894 2003 
Q 2506 1872 2764 1633 
Q 3022 1394 3022 966 
Q 3022 478 2636 193 
Q 2250 -91 1575 -91 
Q 1294 -91 989 -36 
Q 684 19 347 128 
L 347 722 
Q 666 556 975 473 
Q 1284 391 1588 391 
Q 1994 391 2212 530 
Q 2431 669 2431 922 
Q 2431 1156 2273 1281 
Q 2116 1406 1581 1522 
L 1381 1569 
Q 847 1681 609 1914 
Q 372 2147 372 2553 
Q 372 3047 722 3315 
Q 1072 3584 1716 3584 
Q 2034 3584 2315 3537 
Q 2597 3491 2834 3397 
z
" transform="scale(0.015625)"/>
       <path id="DejaVuSans-20" transform="scale(0.015625)"/>
       <path id="DejaVuSans-Oblique-6e" d="M 3566 2113 
L 3156 0 
L 2578 0 
L 2988 2091 
Q 3016 2238 3031 2350 
Q 3047 2463 3047 2528 
Q 3047 2791 2881 2937 
Q 2716 3084 2419 3084 
Q 1956 3084 1622 2776 
Q 1288 2469 1184 1941 
L 800 0 
L 225 0 
L 903 3500 
L 1478 3500 
L 1363 2950 
Q 1603 3253 1940 3418 
Q 2278 3584 2650 3584 
Q 3113 3584 3367 3334 
Q 3622 3084 3622 2631 
Q 3622 2519 3608 2391 
Q 3594 2263 3566 2113 
z
" transform="scale(0.015625)"/>
      </defs>
      <use xlink:href="#DejaVuSans-53" transform="translate(0 0.015625)"/>
      <use xlink:href="#DejaVuSans-61" transform="translate(63.476562 0.015625)"/>
      <use xlink:href="#DejaVuSans-6d" transform="translate(124.755859 0.015625)"/>
      <use xlink:href="#DejaVuSans-70" transform="translate(222.167969 0.015625)"/>
      <use xlink:href="#DejaVuSans-6c" transform="translate(285.644531 0.015625)"/>
      <use xlink:href="#DejaVuSans-65" transform="translate(313.427734 0.015625)"/>
      <use xlink:href="#DejaVuSans-73" transform="translate(374.951172 0.015625)"/>
      <use xlink:href="#DejaVuSans-20" transform="translate(427.050781 0.015625)"/>
      <use xlink:href="#DejaVuSans-Oblique-6e" transform="translate(458.837891 0.015625)"/>
     </g>
    </g>
   </g>
   <g id="matplotlib.axis_2">
    <g id="ytick_1">
     <g id="line2d_7">
      <defs>
       <path id="m5a3a8a4496" d="M 0 0 
L -3.5 0 
" style="stroke: #000000; stroke-width: 0.8"/>
      </defs>
      <g>
       <use xlink:href="#m5a3a8a4496" x="33.64" y="232.598182" style="stroke: #000000; stroke-width: 0.8"/>
      </g>
     </g>
     <g id="text_8">
      <!-- 0.0 -->
      <g transform="translate(10.736875 236.397401) scale(0.1 -0.1)">
       <defs>
        <path id="DejaVuSans-2e" d="M 684 794 
L 1344 794 
L 1344 0 
L 684 0 
L 684 794 
z
" transform="scale(0.015625)"/>
       </defs>
       <use xlink:href="#DejaVuSans-30"/>
       <use xlink:href="#DejaVuSans-2e" transform="translate(63.623047 0)"/>
       <use xlink:href="#DejaVuSans-30" transform="translate(95.410156 0)"/>
      </g>
     </g>
    </g>
    <g id="ytick_2">
     <g id="line2d_8">
      <g>
       <use xlink:href="#m5a3a8a4496" x="33.64" y="193.480337" style="stroke: #000000; stroke-width: 0.8"/>
      </g>
     </g>
     <g id="text_9">
      <!-- 0.2 -->
      <g transform="translate(10.736875 197.279555) scale(0.1 -0.1)">
       <use xlink:href="#DejaVuSans-30"/>
       <use xlink:href="#DejaVuSans-2e" transform="translate(63.623047 0)"/>
       <use xlink:href="#DejaVuSans-32" transform="translate(95.410156 0)"/>
      </g>
     </g>
    </g>
    <g id="ytick_3">
     <g id="line2d_9">
      <g>
       <use xlink:href="#m5a3a8a4496" x="33.64" y="154.362492" style="stroke: #000000; stroke-width: 0.8"/>
      </g>
     </g>
     <g id="text_10">
      <!-- 0.4 -->
      <g transform="translate(10.736875 158.16171) scale(0.1 -0.1)">
       <use xlink:href="#DejaVuSans-30"/>
       <use xlink:href="#DejaVuSans-2e" transform="translate(63.623047 0)"/>
       <use xlink:href="#DejaVuSans-34" transform="translate(95.410156 0)"/>
      </g>
     </g>
    </g>
    <g id="ytick_4">
     <g id="line2d_10">
      <g>
       <use xlink:href="#m5a3a8a4496" x="33.64" y="115.244646" style="stroke: #000000; stroke-width: 0.8"/>
      </g>
     </g>
     <g id="text_11">
      <!-- 0.6 -->
      <g transform="translate(10.736875 119.043865) scale(0.1 -0.1)">
       <defs>
        <path id="DejaVuSans-36" d="M 2113 2584 
Q 1688 2584 1439 2293 
Q 1191 2003 1191 1497 
Q 1191 994 1439 701 
Q 1688 409 2113 409 
Q 2538 409 2786 701 
Q 3034 994 3034 1497 
Q 3034 2003 2786 2293 
Q 2538 2584 2113 2584 
z
M 3366 4563 
L 3366 3988 
Q 3128 4100 2886 4159 
Q 2644 4219 2406 4219 
Q 1781 4219 1451 3797 
Q 1122 3375 1075 2522 
Q 1259 2794 1537 2939 
Q 1816 3084 2150 3084 
Q 2853 3084 3261 2657 
Q 3669 2231 3669 1497 
Q 3669 778 3244 343 
Q 2819 -91 2113 -91 
Q 1303 -91 875 529 
Q 447 1150 447 2328 
Q 447 3434 972 4092 
Q 1497 4750 2381 4750 
Q 2619 4750 2861 4703 
Q 3103 4656 3366 4563 
z
" transform="scale(0.015625)"/>
       </defs>
       <use xlink:href="#DejaVuSans-30"/>
       <use xlink:href="#DejaVuSans-2e" transform="translate(63.623047 0)"/>
       <use xlink:href="#DejaVuSans-36" transform="translate(95.410156 0)"/>
      </g>
     </g>
    </g>
    <g id="ytick_5">
     <g id="line2d_11">
      <g>
       <use xlink:href="#m5a3a8a4496" x="33.64" y="76.126801" style="stroke: #000000; stroke-width: 0.8"/>
      </g>
     </g>
     <g id="text_12">
      <!-- 0.8 -->
      <g transform="translate(10.736875 79.92602) scale(0.1 -0.1)">
       <defs>
        <path id="DejaVuSans-38" d="M 2034 2216 
Q 1584 2216 1326 1975 
Q 1069 1734 1069 1313 
Q 1069 891 1326 650 
Q 1584 409 2034 409 
Q 2484 409 2743 651 
Q 3003 894 3003 1313 
Q 3003 1734 2745 1975 
Q 2488 2216 2034 2216 
z
M 1403 2484 
Q 997 2584 770 2862 
Q 544 3141 544 3541 
Q 544 4100 942 4425 
Q 1341 4750 2034 4750 
Q 2731 4750 3128 4425 
Q 3525 4100 3525 3541 
Q 3525 3141 3298 2862 
Q 3072 2584 2669 2484 
Q 3125 2378 3379 2068 
Q 3634 1759 3634 1313 
Q 3634 634 3220 271 
Q 2806 -91 2034 -91 
Q 1263 -91 848 271 
Q 434 634 434 1313 
Q 434 1759 690 2068 
Q 947 2378 1403 2484 
z
M 1172 3481 
Q 1172 3119 1398 2916 
Q 1625 2713 2034 2713 
Q 2441 2713 2670 2916 
Q 2900 3119 2900 3481 
Q 2900 3844 2670 4047 
Q 2441 4250 2034 4250 
Q 1625 4250 1398 4047 
Q 1172 3844 1172 3481 
z
" transform="scale(0.015625)"/>
       </defs>
       <use xlink:href="#DejaVuSans-30"/>
       <use xlink:href="#DejaVuSans-2e" transform="translate(63.623047 0)"/>
       <use xlink:href="#DejaVuSans-38" transform="translate(95.410156 0)"/>
      </g>
     </g>
    </g>
    <g id="ytick_6">
     <g id="line2d_12">
      <g>
       <use xlink:href="#m5a3a8a4496" x="33.64" y="37.008956" style="stroke: #000000; stroke-width: 0.8"/>
      </g>
     </g>
     <g id="text_13">
      <!-- 1.0 -->
      <g transform="translate(10.736875 40.808175) scale(0.1 -0.1)">
       <use xlink:href="#DejaVuSans-31"/>
       <use xlink:href="#DejaVuSans-2e" transform="translate(63.623047 0)"/>
       <use xlink:href="#DejaVuSans-30" transform="translate(95.410156 0)"/>
      </g>
     </g>
    </g>
   </g>
   <g id="patch_3">
    <path d="M 33.64 243.16 
L 33.64 10.8 
" style="fill: none; stroke: #000000; stroke-width: 0.8; stroke-linejoin: miter; stroke-linecap: square"/>
   </g>
   <g id="patch_4">
    <path d="M 853.2 243.16 
L 853.2 10.8 
" style="fill: none; stroke: #000000; stroke-width: 0.8; stroke-linejoin: miter; stroke-linecap: square"/>
   </g>
   <g id="patch_5">
    <path d="M 33.64 243.16 
L 853.2 243.16 
" style="fill: none; stroke: #000000; stroke-width: 0.8; stroke-linejoin: miter; stroke-linecap: square"/>
   </g>
   <g id="patch_6">
    <path d="M 33.64 10.8 
L 853.2 10.8 
" style="fill: none; stroke: #000000; stroke-width: 0.8; stroke-linejoin: miter; stroke-linecap: square"/>
   </g>
   <g id="text_14">
    <!-- Win 1 -->
    <g transform="translate(121.925625 130.436825) scale(0.1 -0.1)">
     <defs>
      <path id="DejaVuSans-57" d="M 213 4666 
L 850 4666 
L 1831 722 
L 2809 4666 
L 3519 4666 
L 4500 722 
L 5478 4666 
L 6119 4666 
L 4947 0 
L 4153 0 
L 3169 4050 
L 2175 0 
L 1381 0 
L 213 4666 
z
" transform="scale(0.015625)"/>
      <path id="DejaVuSans-69" d="M 603 3500 
L 1178 3500 
L 1178 0 
L 603 0 
L 603 3500 
z
M 603 4863 
L 1178 4863 
L 1178 4134 
L 603 4134 
L 603 4863 
z
" transform="scale(0.015625)"/>
      <path id="DejaVuSans-6e" d="M 3513 2113 
L 3513 0 
L 2938 0 
L 2938 2094 
Q 2938 2591 2744 2837 
Q 2550 3084 2163 3084 
Q 1697 3084 1428 2787 
Q 1159 2491 1159 1978 
L 1159 0 
L 581 0 
L 581 3500 
L 1159 3500 
L 1159 2956 
Q 1366 3272 1645 3428 
Q 1925 3584 2291 3584 
Q 2894 3584 3203 3211 
Q 3513 2838 3513 2113 
z
" transform="scale(0.015625)"/>
     </defs>
     <use xlink:href="#DejaVuSans-57"/>
     <use xlink:href="#DejaVuSans-69" transform="translate(96.626953 0)"/>
     <use xlink:href="#DejaVuSans-6e" transform="translate(124.410156 0)"/>
     <use xlink:href="#DejaVuSans-20" transform="translate(187.789062 0)"/>
     <use xlink:href="#DejaVuSans-31" transform="translate(219.576172 0)"/>
    </g>
   </g>
   <g id="text_15">
    <!-- Win 2 -->
    <g transform="translate(224.370625 76.581559) scale(0.1 -0.1)">
     <use xlink:href="#DejaVuSans-57"/>
     <use xlink:href="#DejaVuSans-69" transform="translate(96.626953 0)"/>
     <use xlink:href="#DejaVuSans-6e" transform="translate(124.410156 0)"/>
     <use xlink:href="#DejaVuSans-20" transform="translate(187.789062 0)"/>
     <use xlink:href="#DejaVuSans-32" transform="translate(219.576172 0)"/>
    </g>
   </g>
   <g id="text_16">
    <!-- Win 3 -->
    <g transform="translate(326.815625 130.436825) scale(0.1 -0.1)">
     <use xlink:href="#DejaVuSans-57"/>
     <use xlink:href="#DejaVuSans-69" transform="translate(96.626953 0)"/>
     <use xlink:href="#DejaVuSans-6e" transform="translate(124.410156 0)"/>
     <use xlink:href="#DejaVuSans-20" transform="translate(187.789062 0)"/>
     <use xlink:href="#DejaVuSans-33" transform="translate(219.576172 0)"/>
    </g>
   </g>
   <g id="text_17">
    <!-- Win 4 -->
    <g transform="translate(429.260625 76.581559) scale(0.1 -0.1)">
     <use xlink:href="#DejaVuSans-57"/>
     <use xlink:href="#DejaVuSans-69" transform="translate(96.626953 0)"/>
     <use xlink:href="#DejaVuSans-6e" transform="translate(124.410156 0)"/>
     <use xlink:href="#DejaVuSans-20" transform="translate(187.789062 0)"/>
     <use xlink:href="#DejaVuSans-34" transform="translate(219.576172 0)"/>
    </g>
   </g>
   <g id="text_18">
    <!-- Win 5 -->
    <g transform="translate(531.705625 130.436825) scale(0.1 -0.1)">
     <use xlink:href="#DejaVuSans-57"/>
     <use xlink:href="#DejaVuSans-69" transform="translate(96.626953 0)"/>
     <use xlink:href="#DejaVuSans-6e" transform="translate(124.410156 0)"/>
     <use xlink:href="#DejaVuSans-20" transform="translate(187.789062 0)"/>
     <use xlink:href="#DejaVuSans-35" transform="translate(219.576172 0)"/>
    </g>
   </g>
   <g id="text_19">
    <!-- Win 6 -->
    <g transform="translate(634.150625 76.581559) scale(0.1 -0.1)">
     <use xlink:href="#DejaVuSans-57"/>
     <use xlink:href="#DejaVuSans-69" transform="translate(96.626953 0)"/>
     <use xlink:href="#DejaVuSans-6e" transform="translate(124.410156 0)"/>
     <use xlink:href="#DejaVuSans-20" transform="translate(187.789062 0)"/>
     <use xlink:href="#DejaVuSans-36" transform="translate(219.576172 0)"/>
    </g>
   </g>
   <g id="text_20">
    <!-- Win 7 -->
    <g transform="translate(736.595625 130.436825) scale(0.1 -0.1)">
     <defs>
      <path id="DejaVuSans-37" d="M 525 4666 
L 3525 4666 
L 3525 4397 
L 1831 0 
L 1172 0 
L 2766 4134 
L 525 4134 
L 525 4666 
z
" transform="scale(0.015625)"/>
     </defs>
     <use xlink:href="#DejaVuSans-57"/>
     <use xlink:href="#DejaVuSans-69" transform="translate(96.626953 0)"/>
     <use xlink:href="#DejaVuSans-6e" transform="translate(124.410156 0)"/>
     <use xlink:href="#DejaVuSans-20" transform="translate(187.789062 0)"/>
     <use xlink:href="#DejaVuSans-37" transform="translate(219.576172 0)"/>
    </g>
   </g>
  </g>
 </g>
 <defs>
  <clipPath id="p9ded8a67fe">
   <rect x="33.64" y="10.8" width="819.56" height="232.36"/>
  </clipPath>
 </defs>
</svg>
