<?xml version="1.0" encoding="utf-8" standalone="no"?>
<!DOCTYPE svg PUBLIC "-//W3C//DTD SVG 1.1//EN"
  "http://www.w3.org/Graphics/SVG/1.1/DTD/svg11.dtd">
<svg xmlns:xlink="http://www.w3.org/1999/xlink" width="864pt" height="259.2pt" viewBox="0 0 864 259.2" xmlns="http://www.w3.org/2000/svg" version="1.1">
 <metadata>
  <rdf:RDF xmlns:dc="http://purl.org/dc/elements/1.1/" xmlns:cc="http://creativecommons.org/ns#" xmlns:rdf="http://www.w3.org/1999/02/22-rdf-syntax-ns#">
   <cc:Work>
    <dc:type rdf:resource="http://purl.org/dc/dcmitype/StillImage"/>
    <dc:date>2025-09-17T22:10:34.383994</dc:date>
    <dc:format>image/svg+xml</dc:format>
    <dc:creator>
     <cc:Agent>
      <dc:title>Matplotlib v3.10.5, https://matplotlib.org/</dc:title>
     </cc:Agent>
    </dc:creator>
   </cc:Work>
  </rdf:RDF>
 </metadata>
 <defs>
  <style type="text/css">*{stroke-linejoin: round; stroke-linecap: butt}</style>
 </defs>
 <g id="figure_1">
  <g id="patch_1">
   <path d="M 0 259.2 
L 864 259.2 
L 864 0 
L 0 0 
z
" style="fill: #ffffff"/>
  </g>
  <g id="axes_1">
   <g id="patch_2">
    <path d="M 30.58 212.03 
L 428.710493 212.03 
L 428.710493 26.88 
L 30.58 26.88 
z
" style="fill: #ffffff"/>
   </g>
   <g id="matplotlib.axis_1">
    <g id="xtick_1">
     <g id="line2d_1">
      <path d="M 30.58 212.03 
L 30.58 26.88 
" clip-path="url(#p1bebb916e3)" style="fill: none; stroke: #b0b0b0; stroke-opacity: 0.4; stroke-width: 0.8; stroke-linecap: square"/>
     </g>
     <g id="line2d_2">
      <defs>
       <path id="m525290a14f" d="M 0 0 
L 0 3.5 
" style="stroke: #000000; stroke-width: 0.8"/>
      </defs>
      <g>
       <use xlink:href="#m525290a14f" x="30.58" y="212.03" style="stroke: #000000; stroke-width: 0.8"/>
      </g>
     </g>
     <g id="text_1">
      <!-- $- \pi$ -->
      <g transform="translate(23.38 226.628437) scale(0.1 -0.1)">
       <defs>
        <path id="DejaVuSans-2212" d="M 678 2272 
L 4684 2272 
L 4684 1741 
L 678 1741 
L 678 2272 
z
" transform="scale(0.015625)"/>
        <path id="DejaVuSans-Oblique-3c0" d="M 584 3500 
L 3938 3500 
L 3825 2925 
L 3384 2925 
L 2966 775 
Q 2922 550 2981 450 
Q 3038 353 3209 353 
Q 3256 353 3325 363 
Q 3397 369 3419 372 
L 3338 -44 
Q 3222 -84 3103 -103 
Q 2981 -122 2866 -122 
Q 2491 -122 2388 81 
Q 2284 288 2391 838 
L 2797 2925 
L 1506 2925 
L 938 0 
L 350 0 
L 919 2925 
L 472 2925 
L 584 3500 
z
" transform="scale(0.015625)"/>
       </defs>
       <use xlink:href="#DejaVuSans-2212" transform="translate(0 0.3125)"/>
       <use xlink:href="#DejaVuSans-Oblique-3c0" transform="translate(83.789062 0.3125)"/>
      </g>
     </g>
    </g>
    <g id="xtick_2">
     <g id="line2d_3">
      <path d="M 80.346312 212.03 
L 80.346312 26.88 
" clip-path="url(#p1bebb916e3)" style="fill: none; stroke: #b0b0b0; stroke-opacity: 0.4; stroke-width: 0.8; stroke-linecap: square"/>
     </g>
     <g id="line2d_4">
      <g>
       <use xlink:href="#m525290a14f" x="80.346312" y="212.03" style="stroke: #000000; stroke-width: 0.8"/>
      </g>
     </g>
     <g id="text_2">
      <!-- $-3\pi/4$ -->
      <g transform="translate(65.096312 226.628437) scale(0.1 -0.1)">
       <defs>
        <path id="DejaVuSans-33" d="M 2597 2516 
Q 3050 2419 3304 2112 
Q 3559 1806 3559 1356 
Q 3559 666 3084 287 
Q 2609 -91 1734 -91 
Q 1441 -91 1130 -33 
Q 819 25 488 141 
L 488 750 
Q 750 597 1062 519 
Q 1375 441 1716 441 
Q 2309 441 2620 675 
Q 2931 909 2931 1356 
Q 2931 1769 2642 2001 
Q 2353 2234 1838 2234 
L 1294 2234 
L 1294 2753 
L 1863 2753 
Q 2328 2753 2575 2939 
Q 2822 3125 2822 3475 
Q 2822 3834 2567 4026 
Q 2313 4219 1838 4219 
Q 1578 4219 1281 4162 
Q 984 4106 628 3988 
L 628 4550 
Q 988 4650 1302 4700 
Q 1616 4750 1894 4750 
Q 2613 4750 3031 4423 
Q 3450 4097 3450 3541 
Q 3450 3153 3228 2886 
Q 3006 2619 2597 2516 
z
" transform="scale(0.015625)"/>
        <path id="DejaVuSans-2f" d="M 1625 4666 
L 2156 4666 
L 531 -594 
L 0 -594 
L 1625 4666 
z
" transform="scale(0.015625)"/>
        <path id="DejaVuSans-34" d="M 2419 4116 
L 825 1625 
L 2419 1625 
L 2419 4116 
z
M 2253 4666 
L 3047 4666 
L 3047 1625 
L 3713 1625 
L 3713 1100 
L 3047 1100 
L 3047 0 
L 2419 0 
L 2419 1100 
L 313 1100 
L 313 1709 
L 2253 4666 
z
" transform="scale(0.015625)"/>
       </defs>
       <use xlink:href="#DejaVuSans-2212" transform="translate(0 0.78125)"/>
       <use xlink:href="#DejaVuSans-33" transform="translate(83.789062 0.78125)"/>
       <use xlink:href="#DejaVuSans-Oblique-3c0" transform="translate(147.412109 0.78125)"/>
       <use xlink:href="#DejaVuSans-2f" transform="translate(207.617188 0.78125)"/>
       <use xlink:href="#DejaVuSans-34" transform="translate(241.308594 0.78125)"/>
      </g>
     </g>
    </g>
    <g id="xtick_3">
     <g id="line2d_5">
      <path d="M 130.112623 212.03 
L 130.112623 26.88 
" clip-path="url(#p1bebb916e3)" style="fill: none; stroke: #b0b0b0; stroke-opacity: 0.4; stroke-width: 0.8; stroke-linecap: square"/>
     </g>
     <g id="line2d_6">
      <g>
       <use xlink:href="#m525290a14f" x="130.112623" y="212.03" style="stroke: #000000; stroke-width: 0.8"/>
      </g>
     </g>
     <g id="text_3">
      <!-- $- \pi/2$ -->
      <g transform="translate(118.212623 226.628437) scale(0.1 -0.1)">
       <defs>
        <path id="DejaVuSans-32" d="M 1228 531 
L 3431 531 
L 3431 0 
L 469 0 
L 469 531 
Q 828 903 1448 1529 
Q 2069 2156 2228 2338 
Q 2531 2678 2651 2914 
Q 2772 3150 2772 3378 
Q 2772 3750 2511 3984 
Q 2250 4219 1831 4219 
Q 1534 4219 1204 4116 
Q 875 4013 500 3803 
L 500 4441 
Q 881 4594 1212 4672 
Q 1544 4750 1819 4750 
Q 2544 4750 2975 4387 
Q 3406 4025 3406 3419 
Q 3406 3131 3298 2873 
Q 3191 2616 2906 2266 
Q 2828 2175 2409 1742 
Q 1991 1309 1228 531 
z
" transform="scale(0.015625)"/>
       </defs>
       <use xlink:href="#DejaVuSans-2212" transform="translate(0 0.78125)"/>
       <use xlink:href="#DejaVuSans-Oblique-3c0" transform="translate(83.789062 0.78125)"/>
       <use xlink:href="#DejaVuSans-2f" transform="translate(143.994141 0.78125)"/>
       <use xlink:href="#DejaVuSans-32" transform="translate(174.060547 0.78125)"/>
      </g>
     </g>
    </g>
    <g id="xtick_4">
     <g id="line2d_7">
      <path d="M 179.878935 212.03 
L 179.878935 26.88 
" clip-path="url(#p1bebb916e3)" style="fill: none; stroke: #b0b0b0; stroke-opacity: 0.4; stroke-width: 0.8; stroke-linecap: square"/>
     </g>
     <g id="line2d_8">
      <g>
       <use xlink:href="#m525290a14f" x="179.878935" y="212.03" style="stroke: #000000; stroke-width: 0.8"/>
      </g>
     </g>
     <g id="text_4">
      <!-- $- \pi/4$ -->
      <g transform="translate(167.778935 226.628437) scale(0.1 -0.1)">
       <use xlink:href="#DejaVuSans-2212" transform="translate(0 0.09375)"/>
       <use xlink:href="#DejaVuSans-Oblique-3c0" transform="translate(83.789062 0.09375)"/>
       <use xlink:href="#DejaVuSans-2f" transform="translate(143.994141 0.09375)"/>
       <use xlink:href="#DejaVuSans-34" transform="translate(177.685547 0.09375)"/>
      </g>
     </g>
    </g>
    <g id="xtick_5">
     <g id="line2d_9">
      <path d="M 229.645247 212.03 
L 229.645247 26.88 
" clip-path="url(#p1bebb916e3)" style="fill: none; stroke: #b0b0b0; stroke-opacity: 0.4; stroke-width: 0.8; stroke-linecap: square"/>
     </g>
     <g id="line2d_10">
      <g>
       <use xlink:href="#m525290a14f" x="229.645247" y="212.03" style="stroke: #000000; stroke-width: 0.8"/>
      </g>
     </g>
     <g id="text_5">
      <!-- $0$ -->
      <g transform="translate(226.445247 226.628437) scale(0.1 -0.1)">
       <defs>
        <path id="DejaVuSans-30" d="M 2034 4250 
Q 1547 4250 1301 3770 
Q 1056 3291 1056 2328 
Q 1056 1369 1301 889 
Q 1547 409 2034 409 
Q 2525 409 2770 889 
Q 3016 1369 3016 2328 
Q 3016 3291 2770 3770 
Q 2525 4250 2034 4250 
z
M 2034 4750 
Q 2819 4750 3233 4129 
Q 3647 3509 3647 2328 
Q 3647 1150 3233 529 
Q 2819 -91 2034 -91 
Q 1250 -91 836 529 
Q 422 1150 422 2328 
Q 422 3509 836 4129 
Q 1250 4750 2034 4750 
z
" transform="scale(0.015625)"/>
       </defs>
       <use xlink:href="#DejaVuSans-30" transform="translate(0 0.78125)"/>
      </g>
     </g>
    </g>
    <g id="xtick_6">
     <g id="line2d_11">
      <path d="M 279.411558 212.03 
L 279.411558 26.88 
" clip-path="url(#p1bebb916e3)" style="fill: none; stroke: #b0b0b0; stroke-opacity: 0.4; stroke-width: 0.8; stroke-linecap: square"/>
     </g>
     <g id="line2d_12">
      <g>
       <use xlink:href="#m525290a14f" x="279.411558" y="212.03" style="stroke: #000000; stroke-width: 0.8"/>
      </g>
     </g>
     <g id="text_6">
      <!-- $\pi/4$ -->
      <g transform="translate(271.511558 226.628437) scale(0.1 -0.1)">
       <use xlink:href="#DejaVuSans-Oblique-3c0" transform="translate(0 0.09375)"/>
       <use xlink:href="#DejaVuSans-2f" transform="translate(60.205078 0.09375)"/>
       <use xlink:href="#DejaVuSans-34" transform="translate(93.896484 0.09375)"/>
      </g>
     </g>
    </g>
    <g id="xtick_7">
     <g id="line2d_13">
      <path d="M 329.17787 212.03 
L 329.17787 26.88 
" clip-path="url(#p1bebb916e3)" style="fill: none; stroke: #b0b0b0; stroke-opacity: 0.4; stroke-width: 0.8; stroke-linecap: square"/>
     </g>
     <g id="line2d_14">
      <g>
       <use xlink:href="#m525290a14f" x="329.17787" y="212.03" style="stroke: #000000; stroke-width: 0.8"/>
      </g>
     </g>
     <g id="text_7">
      <!-- $\pi/2$ -->
      <g transform="translate(321.47787 226.628437) scale(0.1 -0.1)">
       <use xlink:href="#DejaVuSans-Oblique-3c0" transform="translate(0 0.78125)"/>
       <use xlink:href="#DejaVuSans-2f" transform="translate(60.205078 0.78125)"/>
       <use xlink:href="#DejaVuSans-32" transform="translate(90.271484 0.78125)"/>
      </g>
     </g>
    </g>
    <g id="xtick_8">
     <g id="line2d_15">
      <path d="M 378.944182 212.03 
L 378.944182 26.88 
" clip-path="url(#p1bebb916e3)" style="fill: none; stroke: #b0b0b0; stroke-opacity: 0.4; stroke-width: 0.8; stroke-linecap: square"/>
     </g>
     <g id="line2d_16">
      <g>
       <use xlink:href="#m525290a14f" x="378.944182" y="212.03" style="stroke: #000000; stroke-width: 0.8"/>
      </g>
     </g>
     <g id="text_8">
      <!-- $3\pi/4$ -->
      <g transform="translate(367.844182 226.628437) scale(0.1 -0.1)">
       <use xlink:href="#DejaVuSans-33" transform="translate(0 0.78125)"/>
       <use xlink:href="#DejaVuSans-Oblique-3c0" transform="translate(63.623047 0.78125)"/>
       <use xlink:href="#DejaVuSans-2f" transform="translate(123.828125 0.78125)"/>
       <use xlink:href="#DejaVuSans-34" transform="translate(157.519531 0.78125)"/>
      </g>
     </g>
    </g>
    <g id="xtick_9">
     <g id="line2d_17">
      <path d="M 428.710493 212.03 
L 428.710493 26.88 
" clip-path="url(#p1bebb916e3)" style="fill: none; stroke: #b0b0b0; stroke-opacity: 0.4; stroke-width: 0.8; stroke-linecap: square"/>
     </g>
     <g id="line2d_18">
      <g>
       <use xlink:href="#m525290a14f" x="428.710493" y="212.03" style="stroke: #000000; stroke-width: 0.8"/>
      </g>
     </g>
     <g id="text_9">
      <!-- $\pi$ -->
      <g transform="translate(425.660493 226.628437) scale(0.1 -0.1)">
       <use xlink:href="#DejaVuSans-Oblique-3c0" transform="translate(0 0.3125)"/>
      </g>
     </g>
    </g>
    <g id="text_10">
     <!-- Normalized Angular Frequency $\hat{\omega}$ -->
     <g transform="translate(146.495247 241.908125) scale(0.1 -0.1)">
      <defs>
       <path id="DejaVuSans-4e" d="M 628 4666 
L 1478 4666 
L 3547 763 
L 3547 4666 
L 4159 4666 
L 4159 0 
L 3309 0 
L 1241 3903 
L 1241 0 
L 628 0 
L 628 4666 
z
" transform="scale(0.015625)"/>
       <path id="DejaVuSans-6f" d="M 1959 3097 
Q 1497 3097 1228 2736 
Q 959 2375 959 1747 
Q 959 1119 1226 758 
Q 1494 397 1959 397 
Q 2419 397 2687 759 
Q 2956 1122 2956 1747 
Q 2956 2369 2687 2733 
Q 2419 3097 1959 3097 
z
M 1959 3584 
Q 2709 3584 3137 3096 
Q 3566 2609 3566 1747 
Q 3566 888 3137 398 
Q 2709 -91 1959 -91 
Q 1206 -91 779 398 
Q 353 888 353 1747 
Q 353 2609 779 3096 
Q 1206 3584 1959 3584 
z
" transform="scale(0.015625)"/>
       <path id="DejaVuSans-72" d="M 2631 2963 
Q 2534 3019 2420 3045 
Q 2306 3072 2169 3072 
Q 1681 3072 1420 2755 
Q 1159 2438 1159 1844 
L 1159 0 
L 581 0 
L 581 3500 
L 1159 3500 
L 1159 2956 
Q 1341 3275 1631 3429 
Q 1922 3584 2338 3584 
Q 2397 3584 2469 3576 
Q 2541 3569 2628 3553 
L 2631 2963 
z
" transform="scale(0.015625)"/>
       <path id="DejaVuSans-6d" d="M 3328 2828 
Q 3544 3216 3844 3400 
Q 4144 3584 4550 3584 
Q 5097 3584 5394 3201 
Q 5691 2819 5691 2113 
L 5691 0 
L 5113 0 
L 5113 2094 
Q 5113 2597 4934 2840 
Q 4756 3084 4391 3084 
Q 3944 3084 3684 2787 
Q 3425 2491 3425 1978 
L 3425 0 
L 2847 0 
L 2847 2094 
Q 2847 2600 2669 2842 
Q 2491 3084 2119 3084 
Q 1678 3084 1418 2786 
Q 1159 2488 1159 1978 
L 1159 0 
L 581 0 
L 581 3500 
L 1159 3500 
L 1159 2956 
Q 1356 3278 1631 3431 
Q 1906 3584 2284 3584 
Q 2666 3584 2933 3390 
Q 3200 3197 3328 2828 
z
" transform="scale(0.015625)"/>
       <path id="DejaVuSans-61" d="M 2194 1759 
Q 1497 1759 1228 1600 
Q 959 1441 959 1056 
Q 959 750 1161 570 
Q 1363 391 1709 391 
Q 2188 391 2477 730 
Q 2766 1069 2766 1631 
L 2766 1759 
L 2194 1759 
z
M 3341 1997 
L 3341 0 
L 2766 0 
L 2766 531 
Q 2569 213 2275 61 
Q 1981 -91 1556 -91 
Q 1019 -91 701 211 
Q 384 513 384 1019 
Q 384 1609 779 1909 
Q 1175 2209 1959 2209 
L 2766 2209 
L 2766 2266 
Q 2766 2663 2505 2880 
Q 2244 3097 1772 3097 
Q 1472 3097 1187 3025 
Q 903 2953 641 2809 
L 641 3341 
Q 956 3463 1253 3523 
Q 1550 3584 1831 3584 
Q 2591 3584 2966 3190 
Q 3341 2797 3341 1997 
z
" transform="scale(0.015625)"/>
       <path id="DejaVuSans-6c" d="M 603 4863 
L 1178 4863 
L 1178 0 
L 603 0 
L 603 4863 
z
" transform="scale(0.015625)"/>
       <path id="DejaVuSans-69" d="M 603 3500 
L 1178 3500 
L 1178 0 
L 603 0 
L 603 3500 
z
M 603 4863 
L 1178 4863 
L 1178 4134 
L 603 4134 
L 603 4863 
z
" transform="scale(0.015625)"/>
       <path id="DejaVuSans-7a" d="M 353 3500 
L 3084 3500 
L 3084 2975 
L 922 459 
L 3084 459 
L 3084 0 
L 275 0 
L 275 525 
L 2438 3041 
L 353 3041 
L 353 3500 
z
" transform="scale(0.015625)"/>
       <path id="DejaVuSans-65" d="M 3597 1894 
L 3597 1613 
L 953 1613 
Q 991 1019 1311 708 
Q 1631 397 2203 397 
Q 2534 397 2845 478 
Q 3156 559 3463 722 
L 3463 178 
Q 3153 47 2828 -22 
Q 2503 -91 2169 -91 
Q 1331 -91 842 396 
Q 353 884 353 1716 
Q 353 2575 817 3079 
Q 1281 3584 2069 3584 
Q 2775 3584 3186 3129 
Q 3597 2675 3597 1894 
z
M 3022 2063 
Q 3016 2534 2758 2815 
Q 2500 3097 2075 3097 
Q 1594 3097 1305 2825 
Q 1016 2553 972 2059 
L 3022 2063 
z
" transform="scale(0.015625)"/>
       <path id="DejaVuSans-64" d="M 2906 2969 
L 2906 4863 
L 3481 4863 
L 3481 0 
L 2906 0 
L 2906 525 
Q 2725 213 2448 61 
Q 2172 -91 1784 -91 
Q 1150 -91 751 415 
Q 353 922 353 1747 
Q 353 2572 751 3078 
Q 1150 3584 1784 3584 
Q 2172 3584 2448 3432 
Q 2725 3281 2906 2969 
z
M 947 1747 
Q 947 1113 1208 752 
Q 1469 391 1925 391 
Q 2381 391 2643 752 
Q 2906 1113 2906 1747 
Q 2906 2381 2643 2742 
Q 2381 3103 1925 3103 
Q 1469 3103 1208 2742 
Q 947 2381 947 1747 
z
" transform="scale(0.015625)"/>
       <path id="DejaVuSans-20" transform="scale(0.015625)"/>
       <path id="DejaVuSans-41" d="M 2188 4044 
L 1331 1722 
L 3047 1722 
L 2188 4044 
z
M 1831 4666 
L 2547 4666 
L 4325 0 
L 3669 0 
L 3244 1197 
L 1141 1197 
L 716 0 
L 50 0 
L 1831 4666 
z
" transform="scale(0.015625)"/>
       <path id="DejaVuSans-6e" d="M 3513 2113 
L 3513 0 
L 2938 0 
L 2938 2094 
Q 2938 2591 2744 2837 
Q 2550 3084 2163 3084 
Q 1697 3084 1428 2787 
Q 1159 2491 1159 1978 
L 1159 0 
L 581 0 
L 581 3500 
L 1159 3500 
L 1159 2956 
Q 1366 3272 1645 3428 
Q 1925 3584 2291 3584 
Q 2894 3584 3203 3211 
Q 3513 2838 3513 2113 
z
" transform="scale(0.015625)"/>
       <path id="DejaVuSans-67" d="M 2906 1791 
Q 2906 2416 2648 2759 
Q 2391 3103 1925 3103 
Q 1463 3103 1205 2759 
Q 947 2416 947 1791 
Q 947 1169 1205 825 
Q 1463 481 1925 481 
Q 2391 481 2648 825 
Q 2906 1169 2906 1791 
z
M 3481 434 
Q 3481 -459 3084 -895 
Q 2688 -1331 1869 -1331 
Q 1566 -1331 1297 -1286 
Q 1028 -1241 775 -1147 
L 775 -588 
Q 1028 -725 1275 -790 
Q 1522 -856 1778 -856 
Q 2344 -856 2625 -561 
Q 2906 -266 2906 331 
L 2906 616 
Q 2728 306 2450 153 
Q 2172 0 1784 0 
Q 1141 0 747 490 
Q 353 981 353 1791 
Q 353 2603 747 3093 
Q 1141 3584 1784 3584 
Q 2172 3584 2450 3431 
Q 2728 3278 2906 2969 
L 2906 3500 
L 3481 3500 
L 3481 434 
z
" transform="scale(0.015625)"/>
       <path id="DejaVuSans-75" d="M 544 1381 
L 544 3500 
L 1119 3500 
L 1119 1403 
Q 1119 906 1312 657 
Q 1506 409 1894 409 
Q 2359 409 2629 706 
Q 2900 1003 2900 1516 
L 2900 3500 
L 3475 3500 
L 3475 0 
L 2900 0 
L 2900 538 
Q 2691 219 2414 64 
Q 2138 -91 1772 -91 
Q 1169 -91 856 284 
Q 544 659 544 1381 
z
M 1991 3584 
L 1991 3584 
z
" transform="scale(0.015625)"/>
       <path id="DejaVuSans-46" d="M 628 4666 
L 3309 4666 
L 3309 4134 
L 1259 4134 
L 1259 2759 
L 3109 2759 
L 3109 2228 
L 1259 2228 
L 1259 0 
L 628 0 
L 628 4666 
z
" transform="scale(0.015625)"/>
       <path id="DejaVuSans-71" d="M 947 1747 
Q 947 1113 1208 752 
Q 1469 391 1925 391 
Q 2381 391 2643 752 
Q 2906 1113 2906 1747 
Q 2906 2381 2643 2742 
Q 2381 3103 1925 3103 
Q 1469 3103 1208 2742 
Q 947 2381 947 1747 
z
M 2906 525 
Q 2725 213 2448 61 
Q 2172 -91 1784 -91 
Q 1150 -91 751 415 
Q 353 922 353 1747 
Q 353 2572 751 3078 
Q 1150 3584 1784 3584 
Q 2172 3584 2448 3432 
Q 2725 3281 2906 2969 
L 2906 3500 
L 3481 3500 
L 3481 -1331 
L 2906 -1331 
L 2906 525 
z
" transform="scale(0.015625)"/>
       <path id="DejaVuSans-63" d="M 3122 3366 
L 3122 2828 
Q 2878 2963 2633 3030 
Q 2388 3097 2138 3097 
Q 1578 3097 1268 2742 
Q 959 2388 959 1747 
Q 959 1106 1268 751 
Q 1578 397 2138 397 
Q 2388 397 2633 464 
Q 2878 531 3122 666 
L 3122 134 
Q 2881 22 2623 -34 
Q 2366 -91 2075 -91 
Q 1284 -91 818 406 
Q 353 903 353 1747 
Q 353 2603 823 3093 
Q 1294 3584 2113 3584 
Q 2378 3584 2631 3529 
Q 2884 3475 3122 3366 
z
" transform="scale(0.015625)"/>
       <path id="DejaVuSans-79" d="M 2059 -325 
Q 1816 -950 1584 -1140 
Q 1353 -1331 966 -1331 
L 506 -1331 
L 506 -850 
L 844 -850 
Q 1081 -850 1212 -737 
Q 1344 -625 1503 -206 
L 1606 56 
L 191 3500 
L 800 3500 
L 1894 763 
L 2988 3500 
L 3597 3500 
L 2059 -325 
z
" transform="scale(0.015625)"/>
       <path id="DejaVuSans-302" d="M -1831 5119 
L -1369 5119 
L -603 3944 
L -1038 3944 
L -1600 4709 
L -2163 3944 
L -2597 3944 
L -1831 5119 
z
M -1600 3584 
L -1600 3584 
z
" transform="scale(0.015625)"/>
       <path id="DejaVuSans-Oblique-3c9" d="M 1369 -91 
Q 72 -91 434 1766 
Q 575 2500 1256 3500 
L 1875 3500 
Q 1231 2500 1088 1750 
Q 819 397 1519 397 
Q 2166 397 2478 2078 
L 3009 2078 
Q 2669 388 3316 397 
Q 4013 403 4275 1750 
Q 4419 2500 4169 3500 
L 4788 3500 
Q 5075 2500 4934 1766 
Q 4578 -94 3278 -91 
Q 2428 -88 2503 844 
Q 2194 -91 1369 -91 
z
" transform="scale(0.015625)"/>
      </defs>
      <use xlink:href="#DejaVuSans-4e" transform="translate(0 0.828125)"/>
      <use xlink:href="#DejaVuSans-6f" transform="translate(74.804688 0.828125)"/>
      <use xlink:href="#DejaVuSans-72" transform="translate(135.986328 0.828125)"/>
      <use xlink:href="#DejaVuSans-6d" transform="translate(177.099609 0.828125)"/>
      <use xlink:href="#DejaVuSans-61" transform="translate(274.511719 0.828125)"/>
      <use xlink:href="#DejaVuSans-6c" transform="translate(335.791016 0.828125)"/>
      <use xlink:href="#DejaVuSans-69" transform="translate(363.574219 0.828125)"/>
      <use xlink:href="#DejaVuSans-7a" transform="translate(391.357422 0.828125)"/>
      <use xlink:href="#DejaVuSans-65" transform="translate(443.847656 0.828125)"/>
      <use xlink:href="#DejaVuSans-64" transform="translate(505.371094 0.828125)"/>
      <use xlink:href="#DejaVuSans-20" transform="translate(568.847656 0.828125)"/>
      <use xlink:href="#DejaVuSans-41" transform="translate(600.634766 0.828125)"/>
      <use xlink:href="#DejaVuSans-6e" transform="translate(669.042969 0.828125)"/>
      <use xlink:href="#DejaVuSans-67" transform="translate(732.421875 0.828125)"/>
      <use xlink:href="#DejaVuSans-75" transform="translate(795.898438 0.828125)"/>
      <use xlink:href="#DejaVuSans-6c" transform="translate(859.277344 0.828125)"/>
      <use xlink:href="#DejaVuSans-61" transform="translate(887.060547 0.828125)"/>
      <use xlink:href="#DejaVuSans-72" transform="translate(948.339844 0.828125)"/>
      <use xlink:href="#DejaVuSans-20" transform="translate(989.453125 0.828125)"/>
      <use xlink:href="#DejaVuSans-46" transform="translate(1021.240234 0.828125)"/>
      <use xlink:href="#DejaVuSans-72" transform="translate(1078.759766 0.828125)"/>
      <use xlink:href="#DejaVuSans-65" transform="translate(1119.873047 0.828125)"/>
      <use xlink:href="#DejaVuSans-71" transform="translate(1181.396484 0.828125)"/>
      <use xlink:href="#DejaVuSans-75" transform="translate(1244.873047 0.828125)"/>
      <use xlink:href="#DejaVuSans-65" transform="translate(1308.251953 0.828125)"/>
      <use xlink:href="#DejaVuSans-6e" transform="translate(1369.775391 0.828125)"/>
      <use xlink:href="#DejaVuSans-63" transform="translate(1433.154297 0.828125)"/>
      <use xlink:href="#DejaVuSans-79" transform="translate(1488.134766 0.828125)"/>
      <use xlink:href="#DejaVuSans-20" transform="translate(1547.314453 0.828125)"/>
      <use xlink:href="#DejaVuSans-302" transform="translate(1656.614746 12.015625)"/>
      <use xlink:href="#DejaVuSans-Oblique-3c9" transform="translate(1579.101562 0.828125)"/>
     </g>
    </g>
   </g>
   <g id="matplotlib.axis_2">
    <g id="ytick_1">
     <g id="line2d_19">
      <path d="M 30.58 212.03 
L 428.710493 212.03 
" clip-path="url(#p1bebb916e3)" style="fill: none; stroke: #b0b0b0; stroke-opacity: 0.4; stroke-width: 0.8; stroke-linecap: square"/>
     </g>
     <g id="line2d_20">
      <defs>
       <path id="m55781f2228" d="M 0 0 
L -3.5 0 
" style="stroke: #000000; stroke-width: 0.8"/>
      </defs>
      <g>
       <use xlink:href="#m55781f2228" x="30.58" y="212.03" style="stroke: #000000; stroke-width: 0.8"/>
      </g>
     </g>
     <g id="text_11">
      <!-- 0 -->
      <g transform="translate(17.2175 215.829219) scale(0.1 -0.1)">
       <use xlink:href="#DejaVuSans-30"/>
      </g>
     </g>
    </g>
    <g id="ytick_2">
     <g id="line2d_21">
      <path d="M 30.58 189.171975 
L 428.710493 189.171975 
" clip-path="url(#p1bebb916e3)" style="fill: none; stroke: #b0b0b0; stroke-opacity: 0.4; stroke-width: 0.8; stroke-linecap: square"/>
     </g>
     <g id="line2d_22">
      <g>
       <use xlink:href="#m55781f2228" x="30.58" y="189.171975" style="stroke: #000000; stroke-width: 0.8"/>
      </g>
     </g>
     <g id="text_12">
      <!-- 2 -->
      <g transform="translate(17.2175 192.971194) scale(0.1 -0.1)">
       <use xlink:href="#DejaVuSans-32"/>
      </g>
     </g>
    </g>
    <g id="ytick_3">
     <g id="line2d_23">
      <path d="M 30.58 166.313951 
L 428.710493 166.313951 
" clip-path="url(#p1bebb916e3)" style="fill: none; stroke: #b0b0b0; stroke-opacity: 0.4; stroke-width: 0.8; stroke-linecap: square"/>
     </g>
     <g id="line2d_24">
      <g>
       <use xlink:href="#m55781f2228" x="30.58" y="166.313951" style="stroke: #000000; stroke-width: 0.8"/>
      </g>
     </g>
     <g id="text_13">
      <!-- 4 -->
      <g transform="translate(17.2175 170.113169) scale(0.1 -0.1)">
       <use xlink:href="#DejaVuSans-34"/>
      </g>
     </g>
    </g>
    <g id="ytick_4">
     <g id="line2d_25">
      <path d="M 30.58 143.455926 
L 428.710493 143.455926 
" clip-path="url(#p1bebb916e3)" style="fill: none; stroke: #b0b0b0; stroke-opacity: 0.4; stroke-width: 0.8; stroke-linecap: square"/>
     </g>
     <g id="line2d_26">
      <g>
       <use xlink:href="#m55781f2228" x="30.58" y="143.455926" style="stroke: #000000; stroke-width: 0.8"/>
      </g>
     </g>
     <g id="text_14">
      <!-- 6 -->
      <g transform="translate(17.2175 147.255145) scale(0.1 -0.1)">
       <defs>
        <path id="DejaVuSans-36" d="M 2113 2584 
Q 1688 2584 1439 2293 
Q 1191 2003 1191 1497 
Q 1191 994 1439 701 
Q 1688 409 2113 409 
Q 2538 409 2786 701 
Q 3034 994 3034 1497 
Q 3034 2003 2786 2293 
Q 2538 2584 2113 2584 
z
M 3366 4563 
L 3366 3988 
Q 3128 4100 2886 4159 
Q 2644 4219 2406 4219 
Q 1781 4219 1451 3797 
Q 1122 3375 1075 2522 
Q 1259 2794 1537 2939 
Q 1816 3084 2150 3084 
Q 2853 3084 3261 2657 
Q 3669 2231 3669 1497 
Q 3669 778 3244 343 
Q 2819 -91 2113 -91 
Q 1303 -91 875 529 
Q 447 1150 447 2328 
Q 447 3434 972 4092 
Q 1497 4750 2381 4750 
Q 2619 4750 2861 4703 
Q 3103 4656 3366 4563 
z
" transform="scale(0.015625)"/>
       </defs>
       <use xlink:href="#DejaVuSans-36"/>
      </g>
     </g>
    </g>
    <g id="ytick_5">
     <g id="line2d_27">
      <path d="M 30.58 120.597901 
L 428.710493 120.597901 
" clip-path="url(#p1bebb916e3)" style="fill: none; stroke: #b0b0b0; stroke-opacity: 0.4; stroke-width: 0.8; stroke-linecap: square"/>
     </g>
     <g id="line2d_28">
      <g>
       <use xlink:href="#m55781f2228" x="30.58" y="120.597901" style="stroke: #000000; stroke-width: 0.8"/>
      </g>
     </g>
     <g id="text_15">
      <!-- 8 -->
      <g transform="translate(17.2175 124.39712) scale(0.1 -0.1)">
       <defs>
        <path id="DejaVuSans-38" d="M 2034 2216 
Q 1584 2216 1326 1975 
Q 1069 1734 1069 1313 
Q 1069 891 1326 650 
Q 1584 409 2034 409 
Q 2484 409 2743 651 
Q 3003 894 3003 1313 
Q 3003 1734 2745 1975 
Q 2488 2216 2034 2216 
z
M 1403 2484 
Q 997 2584 770 2862 
Q 544 3141 544 3541 
Q 544 4100 942 4425 
Q 1341 4750 2034 4750 
Q 2731 4750 3128 4425 
Q 3525 4100 3525 3541 
Q 3525 3141 3298 2862 
Q 3072 2584 2669 2484 
Q 3125 2378 3379 2068 
Q 3634 1759 3634 1313 
Q 3634 634 3220 271 
Q 2806 -91 2034 -91 
Q 1263 -91 848 271 
Q 434 634 434 1313 
Q 434 1759 690 2068 
Q 947 2378 1403 2484 
z
M 1172 3481 
Q 1172 3119 1398 2916 
Q 1625 2713 2034 2713 
Q 2441 2713 2670 2916 
Q 2900 3119 2900 3481 
Q 2900 3844 2670 4047 
Q 2441 4250 2034 4250 
Q 1625 4250 1398 4047 
Q 1172 3844 1172 3481 
z
" transform="scale(0.015625)"/>
       </defs>
       <use xlink:href="#DejaVuSans-38"/>
      </g>
     </g>
    </g>
    <g id="ytick_6">
     <g id="line2d_29">
      <path d="M 30.58 97.739877 
L 428.710493 97.739877 
" clip-path="url(#p1bebb916e3)" style="fill: none; stroke: #b0b0b0; stroke-opacity: 0.4; stroke-width: 0.8; stroke-linecap: square"/>
     </g>
     <g id="line2d_30">
      <g>
       <use xlink:href="#m55781f2228" x="30.58" y="97.739877" style="stroke: #000000; stroke-width: 0.8"/>
      </g>
     </g>
     <g id="text_16">
      <!-- 10 -->
      <g transform="translate(10.855 101.539095) scale(0.1 -0.1)">
       <defs>
        <path id="DejaVuSans-31" d="M 794 531 
L 1825 531 
L 1825 4091 
L 703 3866 
L 703 4441 
L 1819 4666 
L 2450 4666 
L 2450 531 
L 3481 531 
L 3481 0 
L 794 0 
L 794 531 
z
" transform="scale(0.015625)"/>
       </defs>
       <use xlink:href="#DejaVuSans-31"/>
       <use xlink:href="#DejaVuSans-30" transform="translate(63.623047 0)"/>
      </g>
     </g>
    </g>
    <g id="ytick_7">
     <g id="line2d_31">
      <path d="M 30.58 74.881852 
L 428.710493 74.881852 
" clip-path="url(#p1bebb916e3)" style="fill: none; stroke: #b0b0b0; stroke-opacity: 0.4; stroke-width: 0.8; stroke-linecap: square"/>
     </g>
     <g id="line2d_32">
      <g>
       <use xlink:href="#m55781f2228" x="30.58" y="74.881852" style="stroke: #000000; stroke-width: 0.8"/>
      </g>
     </g>
     <g id="text_17">
      <!-- 12 -->
      <g transform="translate(10.855 78.681071) scale(0.1 -0.1)">
       <use xlink:href="#DejaVuSans-31"/>
       <use xlink:href="#DejaVuSans-32" transform="translate(63.623047 0)"/>
      </g>
     </g>
    </g>
    <g id="ytick_8">
     <g id="line2d_33">
      <path d="M 30.58 52.023827 
L 428.710493 52.023827 
" clip-path="url(#p1bebb916e3)" style="fill: none; stroke: #b0b0b0; stroke-opacity: 0.4; stroke-width: 0.8; stroke-linecap: square"/>
     </g>
     <g id="line2d_34">
      <g>
       <use xlink:href="#m55781f2228" x="30.58" y="52.023827" style="stroke: #000000; stroke-width: 0.8"/>
      </g>
     </g>
     <g id="text_18">
      <!-- 14 -->
      <g transform="translate(10.855 55.823046) scale(0.1 -0.1)">
       <use xlink:href="#DejaVuSans-31"/>
       <use xlink:href="#DejaVuSans-34" transform="translate(63.623047 0)"/>
      </g>
     </g>
    </g>
    <g id="ytick_9">
     <g id="line2d_35">
      <path d="M 30.58 29.165802 
L 428.710493 29.165802 
" clip-path="url(#p1bebb916e3)" style="fill: none; stroke: #b0b0b0; stroke-opacity: 0.4; stroke-width: 0.8; stroke-linecap: square"/>
     </g>
     <g id="line2d_36">
      <g>
       <use xlink:href="#m55781f2228" x="30.58" y="29.165802" style="stroke: #000000; stroke-width: 0.8"/>
      </g>
     </g>
     <g id="text_19">
      <!-- 16 -->
      <g transform="translate(10.855 32.965021) scale(0.1 -0.1)">
       <use xlink:href="#DejaVuSans-31"/>
       <use xlink:href="#DejaVuSans-36" transform="translate(63.623047 0)"/>
      </g>
     </g>
    </g>
   </g>
   <g id="line2d_37">
    <path d="M 30.58 212.03 
L 34.079194 207.141604 
L 36.02319 204.772818 
L 37.578388 203.181766 
L 39.133585 201.927508 
L 40.299983 201.237352 
L 41.466381 200.779107 
L 42.632779 200.562932 
L 43.799177 200.593861 
L 44.965574 200.871687 
L 46.131972 201.390959 
L 47.29837 202.141083 
L 48.853568 203.472855 
L 50.408765 205.137548 
L 52.352761 207.590953 
L 55.074357 211.458564 
L 55.463156 212.03 
L 59.351149 206.500511 
L 61.295145 204.123659 
L 62.850343 202.544252 
L 64.40554 201.319017 
L 65.571938 200.662533 
L 66.738336 200.248376 
L 67.904734 200.086714 
L 69.071132 200.182402 
L 70.23753 200.534856 
L 71.403928 201.138027 
L 72.570325 201.980505 
L 74.125523 203.446724 
L 75.68072 205.25591 
L 77.624716 207.898244 
L 80.346312 212.03 
L 84.234305 206.12064 
L 86.178301 203.551835 
L 87.733499 201.830326 
L 89.288696 200.481028 
L 90.455094 199.74756 
L 91.621492 199.27326 
L 92.78789 199.070779 
L 93.954287 199.14712 
L 95.120685 199.503433 
L 96.287083 200.134935 
L 97.453481 201.030955 
L 98.619879 202.175093 
L 100.175076 204.04809 
L 101.730274 206.257307 
L 104.06307 210.025351 
L 105.229467 212.03 
L 109.50626 204.796165 
L 111.450256 201.968426 
L 113.005454 200.089266 
L 114.171852 198.955703 
L 115.33825 198.089791 
L 116.504647 197.513987 
L 117.671045 197.244932 
L 118.837443 197.29302 
L 120.003841 197.662096 
L 121.170239 198.349272 
L 122.336637 199.344891 
L 123.503035 200.632626 
L 125.058232 202.763776 
L 126.61343 205.302567 
L 128.557426 208.914737 
L 130.112623 212.03 
L 134.778215 202.70057 
L 136.722212 199.377139 
L 138.277409 197.179556 
L 139.443807 195.864247 
L 140.610205 194.872911 
L 141.776603 194.233812 
L 142.554201 194.014342 
L 143.3318 193.965693 
L 144.109398 194.090916 
L 144.886997 194.391494 
L 145.664596 194.867308 
L 146.830994 195.905328 
L 147.997392 197.320537 
L 149.163789 199.091973 
L 150.718987 201.956968 
L 152.274184 205.313905 
L 154.21818 210.031934 
L 154.995779 212.03 
L 160.438969 198.069463 
L 161.994167 194.667141 
L 163.549364 191.799311 
L 164.715762 190.079087 
L 165.88216 188.782832 
L 166.659758 188.175141 
L 167.437357 187.785003 
L 168.214956 187.62109 
L 168.992554 187.690228 
L 169.770153 187.99731 
L 170.547752 188.545203 
L 171.32535 189.334692 
L 172.102949 190.364417 
L 173.269347 192.351128 
L 174.435745 194.848758 
L 175.602143 197.82511 
L 177.15734 202.462438 
L 179.101336 209.145351 
L 179.878935 212.03 
L 183.378129 198.343421 
L 186.099724 188.041352 
L 187.654921 182.81827 
L 189.210118 178.368396 
L 190.376516 175.672386 
L 191.542914 173.623975 
L 192.320513 172.658262 
L 193.098111 172.038168 
L 193.87571 171.783628 
L 194.653309 171.912516 
L 195.430907 172.440478 
L 196.208506 173.380781 
L 196.986105 174.744175 
L 197.763703 176.538774 
L 198.541302 178.769953 
L 199.7077 182.940111 
L 200.874098 188.094042 
L 202.040496 194.213261 
L 203.595693 203.813877 
L 204.762091 212.03 
L 206.706087 196.604054 
L 208.650084 179.360682 
L 211.371679 153.097277 
L 217.981267 88.277333 
L 219.925264 71.591779 
L 221.480461 59.768579 
L 223.035658 49.588745 
L 224.202056 43.171523 
L 225.368454 37.890031 
L 226.534852 33.811796 
L 227.312451 31.787927 
L 228.090049 30.333977 
L 228.867648 29.458265 
L 229.256447 29.238944 
L 229.645247 29.165802 
L 230.034046 29.238944 
L 230.422845 29.458265 
L 231.200444 30.333977 
L 231.978042 31.787927 
L 232.755641 33.811796 
L 233.53324 36.39402 
L 234.699638 41.281196 
L 235.866036 47.328244 
L 237.032433 54.458042 
L 238.587631 65.490502 
L 240.531627 81.380137 
L 242.864423 102.792581 
L 246.363617 137.505226 
L 250.25161 175.734877 
L 252.584406 196.604054 
L 254.528402 212.03 
L 256.0836 201.264345 
L 257.638797 192.068024 
L 258.805195 186.26759 
L 259.971593 181.440268 
L 261.137991 177.599564 
L 261.915589 175.587172 
L 262.693188 174.009021 
L 263.470787 172.858354 
L 264.248385 172.125726 
L 265.025984 171.799111 
L 265.803582 171.864036 
L 266.581181 172.30372 
L 267.35878 173.099237 
L 268.136378 174.229689 
L 269.302776 176.503296 
L 270.469174 179.396011 
L 272.024371 184.060489 
L 273.968368 190.870619 
L 276.689963 201.41592 
L 279.411558 212.03 
L 281.744354 203.728032 
L 283.299551 198.916482 
L 284.854749 194.848758 
L 286.021146 192.351128 
L 287.187544 190.364417 
L 288.353942 188.909782 
L 289.131541 188.241057 
L 289.90914 187.813799 
L 290.686738 187.626175 
L 291.464337 187.674297 
L 292.241935 187.952294 
L 293.019534 188.452403 
L 293.797133 189.165075 
L 294.963531 190.607664 
L 296.129929 192.458674 
L 297.685126 195.473098 
L 299.240323 198.986749 
L 301.573119 204.867777 
L 304.294714 212.03 
L 306.62751 206.217493 
L 308.571506 201.956968 
L 310.126704 199.091973 
L 311.293102 197.320537 
L 312.4595 195.905328 
L 313.625897 194.867308 
L 314.792295 194.219255 
L 315.569894 194.00644 
L 316.347493 193.968438 
L 317.125091 194.102975 
L 317.90269 194.406235 
L 319.069088 195.165482 
L 320.235486 196.268265 
L 321.401884 197.684212 
L 322.957081 199.996012 
L 324.901077 203.425292 
L 327.622673 208.837323 
L 329.17787 212.03 
L 331.899465 206.698096 
L 333.843462 203.363403 
L 335.398659 201.123029 
L 336.565057 199.742674 
L 337.731455 198.647544 
L 338.897853 197.856148 
L 340.064251 197.380383 
L 341.230648 197.225396 
L 342.397046 197.389573 
L 343.563444 197.864676 
L 344.729842 198.636103 
L 345.89624 199.683283 
L 347.451437 201.462753 
L 349.006635 203.610779 
L 350.950631 206.680471 
L 354.061026 212.03 
L 357.17142 206.853134 
L 359.115417 204.04809 
L 360.670614 202.175093 
L 362.225811 200.703788 
L 363.392209 199.894397 
L 364.558607 199.353727 
L 365.725005 199.0905 
L 366.891403 199.107519 
L 368.057801 199.401669 
L 369.224199 199.964035 
L 370.390597 200.780147 
L 371.556995 201.830326 
L 373.112192 203.551835 
L 375.056188 206.12064 
L 377.777784 210.207821 
L 378.944182 212.03 
L 382.054576 207.342189 
L 383.998573 204.774854 
L 385.55377 203.045722 
L 387.108967 201.674009 
L 388.275365 200.909708 
L 389.441763 200.389103 
L 390.608161 200.121835 
L 391.774559 200.112135 
L 392.940957 200.358768 
L 394.107355 200.855087 
L 395.273753 201.589201 
L 396.44015 202.544252 
L 397.995348 204.123659 
L 399.939344 206.500511 
L 402.27214 209.750893 
L 403.827337 212.03 
L 407.326531 207.073067 
L 409.270528 204.693361 
L 410.825725 203.106539 
L 412.380922 201.866251 
L 413.54732 201.191591 
L 414.713718 200.751875 
L 415.880116 200.556 
L 417.046514 200.607676 
L 418.212912 200.905356 
L 419.37931 201.442282 
L 420.545708 202.206628 
L 422.100905 203.55013 
L 423.656102 205.216327 
L 425.600099 207.654989 
L 428.710493 212.03 
L 428.710493 212.03 
" clip-path="url(#p1bebb916e3)" style="fill: none; stroke: #2ca02c; stroke-width: 2; stroke-linecap: square"/>
   </g>
   <g id="patch_3">
    <path d="M 30.58 212.03 
L 30.58 26.88 
" style="fill: none; stroke: #000000; stroke-width: 0.8; stroke-linejoin: miter; stroke-linecap: square"/>
   </g>
   <g id="patch_4">
    <path d="M 428.710493 212.03 
L 428.710493 26.88 
" style="fill: none; stroke: #000000; stroke-width: 0.8; stroke-linejoin: miter; stroke-linecap: square"/>
   </g>
   <g id="patch_5">
    <path d="M 30.58 212.03 
L 428.710493 212.03 
" style="fill: none; stroke: #000000; stroke-width: 0.8; stroke-linejoin: miter; stroke-linecap: square"/>
   </g>
   <g id="patch_6">
    <path d="M 30.58 26.88 
L 428.710493 26.88 
" style="fill: none; stroke: #000000; stroke-width: 0.8; stroke-linejoin: miter; stroke-linecap: square"/>
   </g>
   <g id="patch_7">
    <path d="M 292.160358 55.887885 
Q 261.820459 42.919096 233.331054 30.741301 
" style="fill: none; stroke: #2ca02c; stroke-width: 1.8; stroke-linecap: round"/>
    <path d="M 236.22303 34.152528 
L 233.331054 30.741301 
L 237.795222 30.474456 
" style="fill: none; stroke: #2ca02c; stroke-width: 1.8; stroke-linecap: round"/>
   </g>
   <g id="text_20">
    <!-- $w_r[n]$ -->
    <g style="fill: #2ca02c" transform="translate(296.000329 65.738642) scale(0.1 -0.1)">
     <defs>
      <path id="DejaVuSans-Oblique-77" d="M 544 3500 
L 1113 3500 
L 1259 684 
L 2566 3500 
L 3231 3500 
L 3425 684 
L 4666 3500 
L 5241 3500 
L 3641 0 
L 2969 0 
L 2797 2900 
L 1459 0 
L 781 0 
L 544 3500 
z
" transform="scale(0.015625)"/>
      <path id="DejaVuSans-Oblique-72" d="M 2853 2969 
Q 2766 3016 2653 3041 
Q 2541 3066 2413 3066 
Q 1953 3066 1609 2717 
Q 1266 2369 1153 1784 
L 800 0 
L 225 0 
L 909 3500 
L 1484 3500 
L 1375 2956 
Q 1603 3259 1920 3421 
Q 2238 3584 2597 3584 
Q 2691 3584 2781 3573 
Q 2872 3563 2963 3538 
L 2853 2969 
z
" transform="scale(0.015625)"/>
      <path id="DejaVuSans-5b" d="M 550 4863 
L 1875 4863 
L 1875 4416 
L 1125 4416 
L 1125 -397 
L 1875 -397 
L 1875 -844 
L 550 -844 
L 550 4863 
z
" transform="scale(0.015625)"/>
      <path id="DejaVuSans-Oblique-6e" d="M 3566 2113 
L 3156 0 
L 2578 0 
L 2988 2091 
Q 3016 2238 3031 2350 
Q 3047 2463 3047 2528 
Q 3047 2791 2881 2937 
Q 2716 3084 2419 3084 
Q 1956 3084 1622 2776 
Q 1288 2469 1184 1941 
L 800 0 
L 225 0 
L 903 3500 
L 1478 3500 
L 1363 2950 
Q 1603 3253 1940 3418 
Q 2278 3584 2650 3584 
Q 3113 3584 3367 3334 
Q 3622 3084 3622 2631 
Q 3622 2519 3608 2391 
Q 3594 2263 3566 2113 
z
" transform="scale(0.015625)"/>
      <path id="DejaVuSans-5d" d="M 1947 4863 
L 1947 -844 
L 622 -844 
L 622 -397 
L 1369 -397 
L 1369 4416 
L 622 4416 
L 622 4863 
L 1947 4863 
z
" transform="scale(0.015625)"/>
     </defs>
     <use xlink:href="#DejaVuSans-Oblique-77" transform="translate(0 0.015625)"/>
     <use xlink:href="#DejaVuSans-Oblique-72" transform="translate(81.787109 -16.390625) scale(0.7)"/>
     <use xlink:href="#DejaVuSans-5b" transform="translate(113.300781 0.015625)"/>
     <use xlink:href="#DejaVuSans-Oblique-6e" transform="translate(152.314453 0.015625)"/>
     <use xlink:href="#DejaVuSans-5d" transform="translate(215.693359 0.015625)"/>
    </g>
   </g>
   <g id="text_21">
    <!-- Rectangular window spectrum -->
    <g transform="translate(138.533372 20.88) scale(0.12 -0.12)">
     <defs>
      <path id="DejaVuSans-52" d="M 2841 2188 
Q 3044 2119 3236 1894 
Q 3428 1669 3622 1275 
L 4263 0 
L 3584 0 
L 2988 1197 
Q 2756 1666 2539 1819 
Q 2322 1972 1947 1972 
L 1259 1972 
L 1259 0 
L 628 0 
L 628 4666 
L 2053 4666 
Q 2853 4666 3247 4331 
Q 3641 3997 3641 3322 
Q 3641 2881 3436 2590 
Q 3231 2300 2841 2188 
z
M 1259 4147 
L 1259 2491 
L 2053 2491 
Q 2509 2491 2742 2702 
Q 2975 2913 2975 3322 
Q 2975 3731 2742 3939 
Q 2509 4147 2053 4147 
L 1259 4147 
z
" transform="scale(0.015625)"/>
      <path id="DejaVuSans-74" d="M 1172 4494 
L 1172 3500 
L 2356 3500 
L 2356 3053 
L 1172 3053 
L 1172 1153 
Q 1172 725 1289 603 
Q 1406 481 1766 481 
L 2356 481 
L 2356 0 
L 1766 0 
Q 1100 0 847 248 
Q 594 497 594 1153 
L 594 3053 
L 172 3053 
L 172 3500 
L 594 3500 
L 594 4494 
L 1172 4494 
z
" transform="scale(0.015625)"/>
      <path id="DejaVuSans-77" d="M 269 3500 
L 844 3500 
L 1563 769 
L 2278 3500 
L 2956 3500 
L 3675 769 
L 4391 3500 
L 4966 3500 
L 4050 0 
L 3372 0 
L 2619 2869 
L 1863 0 
L 1184 0 
L 269 3500 
z
" transform="scale(0.015625)"/>
      <path id="DejaVuSans-73" d="M 2834 3397 
L 2834 2853 
Q 2591 2978 2328 3040 
Q 2066 3103 1784 3103 
Q 1356 3103 1142 2972 
Q 928 2841 928 2578 
Q 928 2378 1081 2264 
Q 1234 2150 1697 2047 
L 1894 2003 
Q 2506 1872 2764 1633 
Q 3022 1394 3022 966 
Q 3022 478 2636 193 
Q 2250 -91 1575 -91 
Q 1294 -91 989 -36 
Q 684 19 347 128 
L 347 722 
Q 666 556 975 473 
Q 1284 391 1588 391 
Q 1994 391 2212 530 
Q 2431 669 2431 922 
Q 2431 1156 2273 1281 
Q 2116 1406 1581 1522 
L 1381 1569 
Q 847 1681 609 1914 
Q 372 2147 372 2553 
Q 372 3047 722 3315 
Q 1072 3584 1716 3584 
Q 2034 3584 2315 3537 
Q 2597 3491 2834 3397 
z
" transform="scale(0.015625)"/>
      <path id="DejaVuSans-70" d="M 1159 525 
L 1159 -1331 
L 581 -1331 
L 581 3500 
L 1159 3500 
L 1159 2969 
Q 1341 3281 1617 3432 
Q 1894 3584 2278 3584 
Q 2916 3584 3314 3078 
Q 3713 2572 3713 1747 
Q 3713 922 3314 415 
Q 2916 -91 2278 -91 
Q 1894 -91 1617 61 
Q 1341 213 1159 525 
z
M 3116 1747 
Q 3116 2381 2855 2742 
Q 2594 3103 2138 3103 
Q 1681 3103 1420 2742 
Q 1159 2381 1159 1747 
Q 1159 1113 1420 752 
Q 1681 391 2138 391 
Q 2594 391 2855 752 
Q 3116 1113 3116 1747 
z
" transform="scale(0.015625)"/>
     </defs>
     <use xlink:href="#DejaVuSans-52"/>
     <use xlink:href="#DejaVuSans-65" transform="translate(64.982422 0)"/>
     <use xlink:href="#DejaVuSans-63" transform="translate(126.505859 0)"/>
     <use xlink:href="#DejaVuSans-74" transform="translate(181.486328 0)"/>
     <use xlink:href="#DejaVuSans-61" transform="translate(220.695312 0)"/>
     <use xlink:href="#DejaVuSans-6e" transform="translate(281.974609 0)"/>
     <use xlink:href="#DejaVuSans-67" transform="translate(345.353516 0)"/>
     <use xlink:href="#DejaVuSans-75" transform="translate(408.830078 0)"/>
     <use xlink:href="#DejaVuSans-6c" transform="translate(472.208984 0)"/>
     <use xlink:href="#DejaVuSans-61" transform="translate(499.992188 0)"/>
     <use xlink:href="#DejaVuSans-72" transform="translate(561.271484 0)"/>
     <use xlink:href="#DejaVuSans-20" transform="translate(602.384766 0)"/>
     <use xlink:href="#DejaVuSans-77" transform="translate(634.171875 0)"/>
     <use xlink:href="#DejaVuSans-69" transform="translate(715.958984 0)"/>
     <use xlink:href="#DejaVuSans-6e" transform="translate(743.742188 0)"/>
     <use xlink:href="#DejaVuSans-64" transform="translate(807.121094 0)"/>
     <use xlink:href="#DejaVuSans-6f" transform="translate(870.597656 0)"/>
     <use xlink:href="#DejaVuSans-77" transform="translate(931.779297 0)"/>
     <use xlink:href="#DejaVuSans-20" transform="translate(1013.566406 0)"/>
     <use xlink:href="#DejaVuSans-73" transform="translate(1045.353516 0)"/>
     <use xlink:href="#DejaVuSans-70" transform="translate(1097.453125 0)"/>
     <use xlink:href="#DejaVuSans-65" transform="translate(1160.929688 0)"/>
     <use xlink:href="#DejaVuSans-63" transform="translate(1222.453125 0)"/>
     <use xlink:href="#DejaVuSans-74" transform="translate(1277.433594 0)"/>
     <use xlink:href="#DejaVuSans-72" transform="translate(1316.642578 0)"/>
     <use xlink:href="#DejaVuSans-75" transform="translate(1357.755859 0)"/>
     <use xlink:href="#DejaVuSans-6d" transform="translate(1421.134766 0)"/>
    </g>
   </g>
  </g>
  <g id="axes_2">
   <g id="patch_8">
    <path d="M 451.278257 212.03 
L 849.40875 212.03 
L 849.40875 26.88 
L 451.278257 26.88 
z
" style="fill: #ffffff"/>
   </g>
   <g id="matplotlib.axis_3">
    <g id="xtick_10">
     <g id="line2d_38">
      <path d="M 451.278257 212.03 
L 451.278257 26.88 
" clip-path="url(#pad9deb5d05)" style="fill: none; stroke: #b0b0b0; stroke-opacity: 0.4; stroke-width: 0.8; stroke-linecap: square"/>
     </g>
     <g id="line2d_39">
      <g>
       <use xlink:href="#m525290a14f" x="451.278257" y="212.03" style="stroke: #000000; stroke-width: 0.8"/>
      </g>
     </g>
     <g id="text_22">
      <!-- $- \pi$ -->
      <g transform="translate(444.078257 226.628437) scale(0.1 -0.1)">
       <use xlink:href="#DejaVuSans-2212" transform="translate(0 0.3125)"/>
       <use xlink:href="#DejaVuSans-Oblique-3c0" transform="translate(83.789062 0.3125)"/>
      </g>
     </g>
    </g>
    <g id="xtick_11">
     <g id="line2d_40">
      <path d="M 501.044568 212.03 
L 501.044568 26.88 
" clip-path="url(#pad9deb5d05)" style="fill: none; stroke: #b0b0b0; stroke-opacity: 0.4; stroke-width: 0.8; stroke-linecap: square"/>
     </g>
     <g id="line2d_41">
      <g>
       <use xlink:href="#m525290a14f" x="501.044568" y="212.03" style="stroke: #000000; stroke-width: 0.8"/>
      </g>
     </g>
     <g id="text_23">
      <!-- $-3\pi/4$ -->
      <g transform="translate(485.794568 226.628437) scale(0.1 -0.1)">
       <use xlink:href="#DejaVuSans-2212" transform="translate(0 0.78125)"/>
       <use xlink:href="#DejaVuSans-33" transform="translate(83.789062 0.78125)"/>
       <use xlink:href="#DejaVuSans-Oblique-3c0" transform="translate(147.412109 0.78125)"/>
       <use xlink:href="#DejaVuSans-2f" transform="translate(207.617188 0.78125)"/>
       <use xlink:href="#DejaVuSans-34" transform="translate(241.308594 0.78125)"/>
      </g>
     </g>
    </g>
    <g id="xtick_12">
     <g id="line2d_42">
      <path d="M 550.81088 212.03 
L 550.81088 26.88 
" clip-path="url(#pad9deb5d05)" style="fill: none; stroke: #b0b0b0; stroke-opacity: 0.4; stroke-width: 0.8; stroke-linecap: square"/>
     </g>
     <g id="line2d_43">
      <g>
       <use xlink:href="#m525290a14f" x="550.81088" y="212.03" style="stroke: #000000; stroke-width: 0.8"/>
      </g>
     </g>
     <g id="text_24">
      <!-- $- \pi/2$ -->
      <g transform="translate(538.91088 226.628437) scale(0.1 -0.1)">
       <use xlink:href="#DejaVuSans-2212" transform="translate(0 0.78125)"/>
       <use xlink:href="#DejaVuSans-Oblique-3c0" transform="translate(83.789062 0.78125)"/>
       <use xlink:href="#DejaVuSans-2f" transform="translate(143.994141 0.78125)"/>
       <use xlink:href="#DejaVuSans-32" transform="translate(174.060547 0.78125)"/>
      </g>
     </g>
    </g>
    <g id="xtick_13">
     <g id="line2d_44">
      <path d="M 600.577192 212.03 
L 600.577192 26.88 
" clip-path="url(#pad9deb5d05)" style="fill: none; stroke: #b0b0b0; stroke-opacity: 0.4; stroke-width: 0.8; stroke-linecap: square"/>
     </g>
     <g id="line2d_45">
      <g>
       <use xlink:href="#m525290a14f" x="600.577192" y="212.03" style="stroke: #000000; stroke-width: 0.8"/>
      </g>
     </g>
     <g id="text_25">
      <!-- $- \pi/4$ -->
      <g transform="translate(588.477192 226.628437) scale(0.1 -0.1)">
       <use xlink:href="#DejaVuSans-2212" transform="translate(0 0.09375)"/>
       <use xlink:href="#DejaVuSans-Oblique-3c0" transform="translate(83.789062 0.09375)"/>
       <use xlink:href="#DejaVuSans-2f" transform="translate(143.994141 0.09375)"/>
       <use xlink:href="#DejaVuSans-34" transform="translate(177.685547 0.09375)"/>
      </g>
     </g>
    </g>
    <g id="xtick_14">
     <g id="line2d_46">
      <path d="M 650.343503 212.03 
L 650.343503 26.88 
" clip-path="url(#pad9deb5d05)" style="fill: none; stroke: #b0b0b0; stroke-opacity: 0.4; stroke-width: 0.8; stroke-linecap: square"/>
     </g>
     <g id="line2d_47">
      <g>
       <use xlink:href="#m525290a14f" x="650.343503" y="212.03" style="stroke: #000000; stroke-width: 0.8"/>
      </g>
     </g>
     <g id="text_26">
      <!-- $0$ -->
      <g transform="translate(647.143503 226.628437) scale(0.1 -0.1)">
       <use xlink:href="#DejaVuSans-30" transform="translate(0 0.78125)"/>
      </g>
     </g>
    </g>
    <g id="xtick_15">
     <g id="line2d_48">
      <path d="M 700.109815 212.03 
L 700.109815 26.88 
" clip-path="url(#pad9deb5d05)" style="fill: none; stroke: #b0b0b0; stroke-opacity: 0.4; stroke-width: 0.8; stroke-linecap: square"/>
     </g>
     <g id="line2d_49">
      <g>
       <use xlink:href="#m525290a14f" x="700.109815" y="212.03" style="stroke: #000000; stroke-width: 0.8"/>
      </g>
     </g>
     <g id="text_27">
      <!-- $\pi/4$ -->
      <g transform="translate(692.209815 226.628437) scale(0.1 -0.1)">
       <use xlink:href="#DejaVuSans-Oblique-3c0" transform="translate(0 0.09375)"/>
       <use xlink:href="#DejaVuSans-2f" transform="translate(60.205078 0.09375)"/>
       <use xlink:href="#DejaVuSans-34" transform="translate(93.896484 0.09375)"/>
      </g>
     </g>
    </g>
    <g id="xtick_16">
     <g id="line2d_50">
      <path d="M 749.876127 212.03 
L 749.876127 26.88 
" clip-path="url(#pad9deb5d05)" style="fill: none; stroke: #b0b0b0; stroke-opacity: 0.4; stroke-width: 0.8; stroke-linecap: square"/>
     </g>
     <g id="line2d_51">
      <g>
       <use xlink:href="#m525290a14f" x="749.876127" y="212.03" style="stroke: #000000; stroke-width: 0.8"/>
      </g>
     </g>
     <g id="text_28">
      <!-- $\pi/2$ -->
      <g transform="translate(742.176127 226.628437) scale(0.1 -0.1)">
       <use xlink:href="#DejaVuSans-Oblique-3c0" transform="translate(0 0.78125)"/>
       <use xlink:href="#DejaVuSans-2f" transform="translate(60.205078 0.78125)"/>
       <use xlink:href="#DejaVuSans-32" transform="translate(90.271484 0.78125)"/>
      </g>
     </g>
    </g>
    <g id="xtick_17">
     <g id="line2d_52">
      <path d="M 799.642438 212.03 
L 799.642438 26.88 
" clip-path="url(#pad9deb5d05)" style="fill: none; stroke: #b0b0b0; stroke-opacity: 0.4; stroke-width: 0.8; stroke-linecap: square"/>
     </g>
     <g id="line2d_53">
      <g>
       <use xlink:href="#m525290a14f" x="799.642438" y="212.03" style="stroke: #000000; stroke-width: 0.8"/>
      </g>
     </g>
     <g id="text_29">
      <!-- $3\pi/4$ -->
      <g transform="translate(788.542438 226.628437) scale(0.1 -0.1)">
       <use xlink:href="#DejaVuSans-33" transform="translate(0 0.78125)"/>
       <use xlink:href="#DejaVuSans-Oblique-3c0" transform="translate(63.623047 0.78125)"/>
       <use xlink:href="#DejaVuSans-2f" transform="translate(123.828125 0.78125)"/>
       <use xlink:href="#DejaVuSans-34" transform="translate(157.519531 0.78125)"/>
      </g>
     </g>
    </g>
    <g id="xtick_18">
     <g id="line2d_54">
      <path d="M 849.40875 212.03 
L 849.40875 26.88 
" clip-path="url(#pad9deb5d05)" style="fill: none; stroke: #b0b0b0; stroke-opacity: 0.4; stroke-width: 0.8; stroke-linecap: square"/>
     </g>
     <g id="line2d_55">
      <g>
       <use xlink:href="#m525290a14f" x="849.40875" y="212.03" style="stroke: #000000; stroke-width: 0.8"/>
      </g>
     </g>
     <g id="text_30">
      <!-- $\pi$ -->
      <g transform="translate(846.35875 226.628437) scale(0.1 -0.1)">
       <use xlink:href="#DejaVuSans-Oblique-3c0" transform="translate(0 0.3125)"/>
      </g>
     </g>
    </g>
    <g id="text_31">
     <!-- Normalized Angular Frequency $\hat{\omega}$ -->
     <g transform="translate(567.193503 241.908125) scale(0.1 -0.1)">
      <use xlink:href="#DejaVuSans-4e" transform="translate(0 0.828125)"/>
      <use xlink:href="#DejaVuSans-6f" transform="translate(74.804688 0.828125)"/>
      <use xlink:href="#DejaVuSans-72" transform="translate(135.986328 0.828125)"/>
      <use xlink:href="#DejaVuSans-6d" transform="translate(177.099609 0.828125)"/>
      <use xlink:href="#DejaVuSans-61" transform="translate(274.511719 0.828125)"/>
      <use xlink:href="#DejaVuSans-6c" transform="translate(335.791016 0.828125)"/>
      <use xlink:href="#DejaVuSans-69" transform="translate(363.574219 0.828125)"/>
      <use xlink:href="#DejaVuSans-7a" transform="translate(391.357422 0.828125)"/>
      <use xlink:href="#DejaVuSans-65" transform="translate(443.847656 0.828125)"/>
      <use xlink:href="#DejaVuSans-64" transform="translate(505.371094 0.828125)"/>
      <use xlink:href="#DejaVuSans-20" transform="translate(568.847656 0.828125)"/>
      <use xlink:href="#DejaVuSans-41" transform="translate(600.634766 0.828125)"/>
      <use xlink:href="#DejaVuSans-6e" transform="translate(669.042969 0.828125)"/>
      <use xlink:href="#DejaVuSans-67" transform="translate(732.421875 0.828125)"/>
      <use xlink:href="#DejaVuSans-75" transform="translate(795.898438 0.828125)"/>
      <use xlink:href="#DejaVuSans-6c" transform="translate(859.277344 0.828125)"/>
      <use xlink:href="#DejaVuSans-61" transform="translate(887.060547 0.828125)"/>
      <use xlink:href="#DejaVuSans-72" transform="translate(948.339844 0.828125)"/>
      <use xlink:href="#DejaVuSans-20" transform="translate(989.453125 0.828125)"/>
      <use xlink:href="#DejaVuSans-46" transform="translate(1021.240234 0.828125)"/>
      <use xlink:href="#DejaVuSans-72" transform="translate(1078.759766 0.828125)"/>
      <use xlink:href="#DejaVuSans-65" transform="translate(1119.873047 0.828125)"/>
      <use xlink:href="#DejaVuSans-71" transform="translate(1181.396484 0.828125)"/>
      <use xlink:href="#DejaVuSans-75" transform="translate(1244.873047 0.828125)"/>
      <use xlink:href="#DejaVuSans-65" transform="translate(1308.251953 0.828125)"/>
      <use xlink:href="#DejaVuSans-6e" transform="translate(1369.775391 0.828125)"/>
      <use xlink:href="#DejaVuSans-63" transform="translate(1433.154297 0.828125)"/>
      <use xlink:href="#DejaVuSans-79" transform="translate(1488.134766 0.828125)"/>
      <use xlink:href="#DejaVuSans-20" transform="translate(1547.314453 0.828125)"/>
      <use xlink:href="#DejaVuSans-302" transform="translate(1656.614746 12.015625)"/>
      <use xlink:href="#DejaVuSans-Oblique-3c9" transform="translate(1579.101562 0.828125)"/>
     </g>
    </g>
   </g>
   <g id="matplotlib.axis_4">
    <g id="ytick_10">
     <g id="line2d_56">
      <path d="M 451.278257 212.03 
L 849.40875 212.03 
" clip-path="url(#pad9deb5d05)" style="fill: none; stroke: #b0b0b0; stroke-opacity: 0.4; stroke-width: 0.8; stroke-linecap: square"/>
     </g>
     <g id="line2d_57">
      <g>
       <use xlink:href="#m55781f2228" x="451.278257" y="212.03" style="stroke: #000000; stroke-width: 0.8"/>
      </g>
     </g>
    </g>
    <g id="ytick_11">
     <g id="line2d_58">
      <path d="M 451.278257 189.171975 
L 849.40875 189.171975 
" clip-path="url(#pad9deb5d05)" style="fill: none; stroke: #b0b0b0; stroke-opacity: 0.4; stroke-width: 0.8; stroke-linecap: square"/>
     </g>
     <g id="line2d_59">
      <g>
       <use xlink:href="#m55781f2228" x="451.278257" y="189.171975" style="stroke: #000000; stroke-width: 0.8"/>
      </g>
     </g>
    </g>
    <g id="ytick_12">
     <g id="line2d_60">
      <path d="M 451.278257 166.313951 
L 849.40875 166.313951 
" clip-path="url(#pad9deb5d05)" style="fill: none; stroke: #b0b0b0; stroke-opacity: 0.4; stroke-width: 0.8; stroke-linecap: square"/>
     </g>
     <g id="line2d_61">
      <g>
       <use xlink:href="#m55781f2228" x="451.278257" y="166.313951" style="stroke: #000000; stroke-width: 0.8"/>
      </g>
     </g>
    </g>
    <g id="ytick_13">
     <g id="line2d_62">
      <path d="M 451.278257 143.455926 
L 849.40875 143.455926 
" clip-path="url(#pad9deb5d05)" style="fill: none; stroke: #b0b0b0; stroke-opacity: 0.4; stroke-width: 0.8; stroke-linecap: square"/>
     </g>
     <g id="line2d_63">
      <g>
       <use xlink:href="#m55781f2228" x="451.278257" y="143.455926" style="stroke: #000000; stroke-width: 0.8"/>
      </g>
     </g>
    </g>
    <g id="ytick_14">
     <g id="line2d_64">
      <path d="M 451.278257 120.597901 
L 849.40875 120.597901 
" clip-path="url(#pad9deb5d05)" style="fill: none; stroke: #b0b0b0; stroke-opacity: 0.4; stroke-width: 0.8; stroke-linecap: square"/>
     </g>
     <g id="line2d_65">
      <g>
       <use xlink:href="#m55781f2228" x="451.278257" y="120.597901" style="stroke: #000000; stroke-width: 0.8"/>
      </g>
     </g>
    </g>
    <g id="ytick_15">
     <g id="line2d_66">
      <path d="M 451.278257 97.739877 
L 849.40875 97.739877 
" clip-path="url(#pad9deb5d05)" style="fill: none; stroke: #b0b0b0; stroke-opacity: 0.4; stroke-width: 0.8; stroke-linecap: square"/>
     </g>
     <g id="line2d_67">
      <g>
       <use xlink:href="#m55781f2228" x="451.278257" y="97.739877" style="stroke: #000000; stroke-width: 0.8"/>
      </g>
     </g>
    </g>
    <g id="ytick_16">
     <g id="line2d_68">
      <path d="M 451.278257 74.881852 
L 849.40875 74.881852 
" clip-path="url(#pad9deb5d05)" style="fill: none; stroke: #b0b0b0; stroke-opacity: 0.4; stroke-width: 0.8; stroke-linecap: square"/>
     </g>
     <g id="line2d_69">
      <g>
       <use xlink:href="#m55781f2228" x="451.278257" y="74.881852" style="stroke: #000000; stroke-width: 0.8"/>
      </g>
     </g>
    </g>
    <g id="ytick_17">
     <g id="line2d_70">
      <path d="M 451.278257 52.023827 
L 849.40875 52.023827 
" clip-path="url(#pad9deb5d05)" style="fill: none; stroke: #b0b0b0; stroke-opacity: 0.4; stroke-width: 0.8; stroke-linecap: square"/>
     </g>
     <g id="line2d_71">
      <g>
       <use xlink:href="#m55781f2228" x="451.278257" y="52.023827" style="stroke: #000000; stroke-width: 0.8"/>
      </g>
     </g>
    </g>
    <g id="ytick_18">
     <g id="line2d_72">
      <path d="M 451.278257 29.165802 
L 849.40875 29.165802 
" clip-path="url(#pad9deb5d05)" style="fill: none; stroke: #b0b0b0; stroke-opacity: 0.4; stroke-width: 0.8; stroke-linecap: square"/>
     </g>
     <g id="line2d_73">
      <g>
       <use xlink:href="#m55781f2228" x="451.278257" y="29.165802" style="stroke: #000000; stroke-width: 0.8"/>
      </g>
     </g>
    </g>
   </g>
   <g id="line2d_74">
    <path d="M 451.278257 212.03 
L 455.555049 208.803166 
L 457.887845 207.3393 
L 459.831842 206.405073 
L 461.387039 205.88878 
L 462.942236 205.60255 
L 464.497433 205.56025 
L 466.052631 205.766716 
L 467.607828 206.217456 
L 469.163025 206.898692 
L 471.107022 208.039045 
L 473.051018 209.441567 
L 475.772613 211.693457 
L 476.161413 212.03 
L 480.827004 208.112693 
L 482.771001 206.746377 
L 484.714997 205.667542 
L 486.270195 205.059896 
L 487.825392 204.709787 
L 489.380589 204.635689 
L 490.935786 204.846048 
L 492.490984 205.338772 
L 494.046181 206.1011 
L 495.601378 207.109855 
L 497.545375 208.666284 
L 499.878171 210.854958 
L 501.044568 212.03 
L 506.09896 207.011754 
L 508.042956 205.407251 
L 509.598153 204.368563 
L 511.153351 203.597741 
L 512.319748 203.218118 
L 513.486146 203.022171 
L 514.652544 203.01822 
L 515.818942 203.210747 
L 516.98534 203.600223 
L 518.151738 204.183011 
L 519.706935 205.246769 
L 521.262133 206.610367 
L 523.206129 208.671952 
L 525.538925 211.527602 
L 525.927724 212.03 
L 531.759714 204.60327 
L 533.70371 202.593901 
L 535.258908 201.318832 
L 536.425306 200.597537 
L 537.591704 200.10257 
L 538.758102 199.852149 
L 539.924499 199.860114 
L 541.090897 200.135528 
L 542.257295 200.682346 
L 543.423693 201.499176 
L 544.590091 202.579134 
L 546.145288 204.406119 
L 547.700486 206.633594 
L 549.644482 209.886453 
L 550.81088 212.03 
L 554.698873 204.42391 
L 557.420468 199.352832 
L 558.975666 196.827212 
L 560.530863 194.716525 
L 561.697261 193.471745 
L 562.863659 192.564619 
L 563.641257 192.16686 
L 564.418856 191.947018 
L 565.196455 191.914556 
L 565.974053 192.077863 
L 566.751652 192.444177 
L 567.52925 193.019511 
L 568.306849 193.808586 
L 569.473247 195.399977 
L 570.639645 197.485055 
L 571.806043 200.062021 
L 572.972441 203.121631 
L 574.527638 207.921938 
L 575.694036 212.03 
L 577.638032 204.317027 
L 579.970828 193.882438 
L 583.081223 178.677796 
L 588.135614 153.728909 
L 590.46841 143.402061 
L 592.412406 135.89929 
L 593.967604 130.809372 
L 595.134001 127.600761 
L 596.300399 124.960016 
L 597.466797 122.920898 
L 598.244396 121.908963 
L 599.021995 121.181989 
L 599.799593 120.744132 
L 600.577192 120.597901 
L 601.35479 120.744132 
L 602.132389 121.181989 
L 602.909988 121.908963 
L 603.687586 122.920898 
L 604.853984 124.960016 
L 606.020382 127.600761 
L 607.18678 130.809372 
L 608.741977 135.89929 
L 610.297175 141.81089 
L 612.241171 150.153666 
L 614.573967 161.180868 
L 622.738752 200.964841 
L 624.682749 209.067481 
L 625.460348 212.03 
L 627.015545 206.647172 
L 628.570742 202.049012 
L 629.73714 199.148795 
L 630.903538 196.735134 
L 632.069936 194.814782 
L 633.236334 193.387087 
L 634.013932 192.70539 
L 634.791531 192.235239 
L 635.56913 191.971258 
L 636.346728 191.906814 
L 637.124327 192.034084 
L 637.901926 192.344131 
L 639.068323 193.129844 
L 640.234721 194.266648 
L 641.401119 195.713005 
L 642.956317 198.045245 
L 644.900313 201.450309 
L 648.010708 207.49287 
L 650.343503 212.03 
L 652.676299 207.879016 
L 654.231497 205.473241 
L 655.786694 203.439379 
L 657.341891 201.830425 
L 658.508289 200.924847 
L 659.674687 200.287602 
L 660.841085 199.921899 
L 662.007483 199.825545 
L 663.173881 199.991147 
L 664.340279 200.406416 
L 665.506676 201.054544 
L 667.061874 202.244337 
L 668.617071 203.751549 
L 670.561068 205.978014 
L 673.671462 209.985632 
L 675.226659 212.03 
L 677.948254 208.671952 
L 679.892251 206.610367 
L 681.447448 205.246769 
L 683.002645 204.183011 
L 684.169043 203.600223 
L 685.335441 203.210747 
L 686.501839 203.01822 
L 687.668237 203.022171 
L 688.834635 203.218118 
L 690.001033 203.597741 
L 691.55623 204.368563 
L 693.111427 205.407251 
L 695.055424 207.011754 
L 697.38822 209.24701 
L 700.109815 212.03 
L 703.22021 209.010524 
L 705.164206 207.396888 
L 706.719403 206.331313 
L 708.274601 205.50481 
L 709.829798 204.943074 
L 711.384995 204.66151 
L 712.940192 204.66488 
L 714.49539 204.947338 
L 716.050587 205.492851 
L 717.605784 206.275973 
L 719.549781 207.536903 
L 721.882576 209.355235 
L 724.992971 212.03 
L 728.492165 209.143653 
L 730.436161 207.787755 
L 732.380158 206.707868 
L 733.935355 206.082468 
L 735.490552 205.691863 
L 737.045749 205.547534 
L 738.600947 205.65163 
L 740.156144 205.997018 
L 741.711341 206.567656 
L 743.655338 207.560073 
L 745.599334 208.803166 
L 748.320929 210.817044 
L 749.876127 212.03 
L 753.37532 209.414342 
L 755.708116 207.949614 
L 757.652113 207.005252 
L 759.20731 206.469854 
L 760.762507 206.150772 
L 762.317705 206.058357 
L 763.872902 206.194384 
L 765.428099 206.552052 
L 766.983296 207.116294 
L 768.927293 208.076829 
L 771.260089 209.524151 
L 774.759283 212.03 
L 778.647276 209.298805 
L 780.980071 207.94502 
L 782.924068 207.085541 
L 784.479265 206.610796 
L 786.034463 206.344599 
L 787.58966 206.296466 
L 789.144857 206.467678 
L 790.700054 206.85126 
L 792.255251 207.432257 
L 794.199248 208.401409 
L 796.532044 209.842494 
L 799.642438 212.03 
L 803.530431 209.334932 
L 805.863227 207.984361 
L 807.807224 207.118314 
L 809.362421 206.633676 
L 810.917618 206.354898 
L 812.472816 206.293 
L 814.028013 206.450844 
L 815.58321 206.823009 
L 817.138407 207.395973 
L 819.082404 208.361681 
L 821.4152 209.810477 
L 824.525594 212.03 
L 828.802387 209.012632 
L 831.135182 207.66164 
L 833.079179 206.809601 
L 834.634376 206.346267 
L 836.189573 206.098041 
L 837.744771 206.075918 
L 839.299968 206.282428 
L 840.855165 206.711489 
L 842.410362 207.348563 
L 844.354359 208.402427 
L 846.687155 209.964122 
L 849.40875 212.03 
L 849.40875 212.03 
" clip-path="url(#pad9deb5d05)" style="fill: none; stroke: #1f77b4; stroke-width: 2; stroke-linecap: square"/>
   </g>
   <g id="line2d_75">
    <path d="M 451.278257 212.03 
L 454.777451 209.414342 
L 457.110246 207.949614 
L 459.054243 207.005252 
L 460.60944 206.469854 
L 462.164638 206.150772 
L 463.719835 206.058357 
L 465.275032 206.194384 
L 466.830229 206.552052 
L 468.385426 207.116294 
L 470.329423 208.076829 
L 472.662219 209.524151 
L 476.161413 212.03 
L 480.049406 209.298805 
L 482.382202 207.94502 
L 484.326198 207.085541 
L 485.881395 206.610796 
L 487.436593 206.344599 
L 488.99179 206.296466 
L 490.546987 206.467678 
L 492.102184 206.85126 
L 493.657382 207.432257 
L 495.601378 208.401409 
L 497.934174 209.842494 
L 501.044568 212.03 
L 504.932562 209.334932 
L 507.265357 207.984361 
L 509.209354 207.118314 
L 510.764551 206.633676 
L 512.319748 206.354898 
L 513.874946 206.293 
L 515.430143 206.450844 
L 516.98534 206.823009 
L 518.540537 207.395973 
L 520.484534 208.361681 
L 522.81733 209.810477 
L 525.927724 212.03 
L 530.204517 209.012632 
L 532.537313 207.66164 
L 534.481309 206.809601 
L 536.036506 206.346267 
L 537.591704 206.098041 
L 539.146901 206.075918 
L 540.702098 206.282428 
L 542.257295 206.711489 
L 543.812493 207.348563 
L 545.756489 208.402427 
L 548.089285 209.964122 
L 550.81088 212.03 
L 555.087673 208.803166 
L 557.420468 207.3393 
L 559.364465 206.405073 
L 560.919662 205.88878 
L 562.474859 205.60255 
L 564.030057 205.56025 
L 565.585254 205.766716 
L 567.140451 206.217456 
L 568.695648 206.898692 
L 570.639645 208.039045 
L 572.583641 209.441567 
L 575.305237 211.693457 
L 575.694036 212.03 
L 580.359628 208.112693 
L 582.303624 206.746377 
L 584.247621 205.667542 
L 585.802818 205.059896 
L 587.358015 204.709787 
L 588.913212 204.635689 
L 590.46841 204.846048 
L 592.023607 205.338772 
L 593.578804 206.1011 
L 595.134001 207.109855 
L 597.077998 208.666284 
L 599.410794 210.854958 
L 600.577192 212.03 
L 605.631583 207.011754 
L 607.575579 205.407251 
L 609.130777 204.368563 
L 610.685974 203.597741 
L 611.852372 203.218118 
L 613.01877 203.022171 
L 614.185168 203.01822 
L 615.351566 203.210747 
L 616.517963 203.600223 
L 617.684361 204.183011 
L 619.239559 205.246769 
L 620.794756 206.610367 
L 622.738752 208.671952 
L 625.071548 211.527602 
L 625.460348 212.03 
L 631.292337 204.60327 
L 633.236334 202.593901 
L 634.791531 201.318832 
L 635.957929 200.597537 
L 637.124327 200.10257 
L 638.290725 199.852149 
L 639.457123 199.860114 
L 640.623521 200.135528 
L 641.789919 200.682346 
L 642.956317 201.499176 
L 644.122714 202.579134 
L 645.677912 204.406119 
L 647.233109 206.633594 
L 649.177105 209.886453 
L 650.343503 212.03 
L 654.231497 204.42391 
L 656.953092 199.352832 
L 658.508289 196.827212 
L 660.063486 194.716525 
L 661.229884 193.471745 
L 662.396282 192.564619 
L 663.173881 192.16686 
L 663.951479 191.947018 
L 664.729078 191.914556 
L 665.506676 192.077863 
L 666.284275 192.444177 
L 667.061874 193.019511 
L 667.839472 193.808586 
L 669.00587 195.399977 
L 670.172268 197.485055 
L 671.338666 200.062021 
L 672.505064 203.121631 
L 674.060261 207.921938 
L 675.226659 212.03 
L 677.170656 204.317027 
L 679.503452 193.882438 
L 682.613846 178.677796 
L 687.668237 153.728909 
L 690.001033 143.402061 
L 691.94503 135.89929 
L 693.500227 130.809372 
L 694.666625 127.600761 
L 695.833023 124.960016 
L 696.999421 122.920898 
L 697.777019 121.908963 
L 698.554618 121.181989 
L 699.332216 120.744132 
L 700.109815 120.597901 
L 700.887414 120.744132 
L 701.665012 121.181989 
L 702.442611 121.908963 
L 703.22021 122.920898 
L 704.386607 124.960016 
L 705.553005 127.600761 
L 706.719403 130.809372 
L 708.274601 135.89929 
L 709.829798 141.81089 
L 711.773794 150.153666 
L 714.10659 161.180868 
L 722.271376 200.964841 
L 724.215372 209.067481 
L 724.992971 212.03 
L 726.548168 206.647172 
L 728.103365 202.049012 
L 729.269763 199.148795 
L 730.436161 196.735134 
L 731.602559 194.814782 
L 732.768957 193.387087 
L 733.546556 192.70539 
L 734.324154 192.235239 
L 735.101753 191.971258 
L 735.879352 191.906814 
L 736.65695 192.034084 
L 737.434549 192.344131 
L 738.600947 193.129844 
L 739.767345 194.266648 
L 740.933743 195.713005 
L 742.48894 198.045245 
L 744.432936 201.450309 
L 747.543331 207.49287 
L 749.876127 212.03 
L 752.208923 207.879016 
L 753.76412 205.473241 
L 755.319317 203.439379 
L 756.874514 201.830425 
L 758.040912 200.924847 
L 759.20731 200.287602 
L 760.373708 199.921899 
L 761.540106 199.825545 
L 762.706504 199.991147 
L 763.872902 200.406416 
L 765.0393 201.054544 
L 766.594497 202.244337 
L 768.149694 203.751549 
L 770.093691 205.978014 
L 773.204085 209.985632 
L 774.759283 212.03 
L 777.480878 208.671952 
L 779.424874 206.610367 
L 780.980071 205.246769 
L 782.535269 204.183011 
L 783.701667 203.600223 
L 784.868065 203.210747 
L 786.034463 203.01822 
L 787.20086 203.022171 
L 788.367258 203.218118 
L 789.533656 203.597741 
L 791.088854 204.368563 
L 792.644051 205.407251 
L 794.588047 207.011754 
L 796.920843 209.24701 
L 799.642438 212.03 
L 802.752833 209.010524 
L 804.696829 207.396888 
L 806.252027 206.331313 
L 807.807224 205.50481 
L 809.362421 204.943074 
L 810.917618 204.66151 
L 812.472816 204.66488 
L 814.028013 204.947338 
L 815.58321 205.492851 
L 817.138407 206.275973 
L 819.082404 207.536903 
L 821.4152 209.355235 
L 824.525594 212.03 
L 828.024788 209.143653 
L 829.968785 207.787755 
L 831.912781 206.707868 
L 833.467978 206.082468 
L 835.023176 205.691863 
L 836.578373 205.547534 
L 838.13357 205.65163 
L 839.688767 205.997018 
L 841.243964 206.567656 
L 843.187961 207.560073 
L 845.131958 208.803166 
L 847.853553 210.817044 
L 849.40875 212.03 
L 849.40875 212.03 
" clip-path="url(#pad9deb5d05)" style="fill: none; stroke: #d62728; stroke-width: 2; stroke-linecap: square"/>
   </g>
   <g id="patch_9">
    <path d="M 451.278257 212.03 
L 451.278257 26.88 
" style="fill: none; stroke: #000000; stroke-width: 0.8; stroke-linejoin: miter; stroke-linecap: square"/>
   </g>
   <g id="patch_10">
    <path d="M 849.40875 212.03 
L 849.40875 26.88 
" style="fill: none; stroke: #000000; stroke-width: 0.8; stroke-linejoin: miter; stroke-linecap: square"/>
   </g>
   <g id="patch_11">
    <path d="M 451.278257 212.03 
L 849.40875 212.03 
" style="fill: none; stroke: #000000; stroke-width: 0.8; stroke-linejoin: miter; stroke-linecap: square"/>
   </g>
   <g id="patch_12">
    <path d="M 451.278257 26.88 
L 849.40875 26.88 
" style="fill: none; stroke: #000000; stroke-width: 0.8; stroke-linejoin: miter; stroke-linecap: square"/>
   </g>
   <g id="patch_13">
    <path d="M 562.516034 126.136886 
Q 580.559309 123.511074 596.832376 121.142879 
" style="fill: none; stroke: #1f77b4; stroke-width: 1.6; stroke-linecap: round"/>
    <path d="M 592.586049 119.739773 
L 596.832376 121.142879 
L 593.162095 123.698077 
" style="fill: none; stroke: #1f77b4; stroke-width: 1.6; stroke-linecap: round"/>
   </g>
   <g id="text_32">
    <!-- $\frac{1}{2} w_r[n]\cdot e^{-j\omega_0 n}$ -->
    <g style="fill: #1f77b4" transform="translate(491.932413 134.312716) scale(0.1 -0.1)">
     <defs>
      <path id="DejaVuSans-22c5" d="M 684 2619 
L 1344 2619 
L 1344 1825 
L 684 1825 
L 684 2619 
z
" transform="scale(0.015625)"/>
      <path id="DejaVuSans-Oblique-65" d="M 3078 2063 
Q 3088 2113 3092 2166 
Q 3097 2219 3097 2272 
Q 3097 2653 2873 2875 
Q 2650 3097 2266 3097 
Q 1838 3097 1509 2826 
Q 1181 2556 1013 2059 
L 3078 2063 
z
M 3578 1613 
L 903 1613 
Q 884 1494 878 1425 
Q 872 1356 872 1306 
Q 872 872 1139 634 
Q 1406 397 1894 397 
Q 2269 397 2603 481 
Q 2938 566 3225 728 
L 3116 159 
Q 2806 34 2476 -28 
Q 2147 -91 1806 -91 
Q 1078 -91 686 257 
Q 294 606 294 1247 
Q 294 1794 489 2264 
Q 684 2734 1063 3103 
Q 1306 3334 1642 3459 
Q 1978 3584 2356 3584 
Q 2950 3584 3301 3228 
Q 3653 2872 3653 2272 
Q 3653 2128 3634 1964 
Q 3616 1800 3578 1613 
z
" transform="scale(0.015625)"/>
      <path id="DejaVuSans-Oblique-6a" d="M 928 3500 
L 1503 3500 
L 813 -63 
L 809 -78 
Q 694 -675 544 -897 
Q 403 -1106 132 -1218 
Q -138 -1331 -506 -1331 
L -722 -1331 
L -628 -844 
L -481 -844 
Q -144 -844 -1 -703 
Q 141 -563 238 -63 
L 928 3500 
z
M 1197 4863 
L 1772 4863 
L 1631 4134 
L 1056 4134 
L 1197 4863 
z
" transform="scale(0.015625)"/>
     </defs>
     <use xlink:href="#DejaVuSans-31" transform="translate(0 43.965625) scale(0.7)"/>
     <use xlink:href="#DejaVuSans-32" transform="translate(0 -39.2375) scale(0.7)"/>
     <use xlink:href="#DejaVuSans-Oblique-77" transform="translate(57.036133 0.16875)"/>
     <use xlink:href="#DejaVuSans-Oblique-72" transform="translate(138.823242 -16.2375) scale(0.7)"/>
     <use xlink:href="#DejaVuSans-5b" transform="translate(170.336914 0.16875)"/>
     <use xlink:href="#DejaVuSans-Oblique-6e" transform="translate(209.350586 0.16875)"/>
     <use xlink:href="#DejaVuSans-5d" transform="translate(272.729492 0.16875)"/>
     <use xlink:href="#DejaVuSans-22c5" transform="translate(331.225586 0.16875)"/>
     <use xlink:href="#DejaVuSans-Oblique-65" transform="translate(382.495117 0.16875)"/>
     <use xlink:href="#DejaVuSans-2212" transform="translate(448.668451 38.45) scale(0.7)"/>
     <use xlink:href="#DejaVuSans-Oblique-6a" transform="translate(507.320794 38.45) scale(0.7)"/>
     <use xlink:href="#DejaVuSans-Oblique-3c9" transform="translate(526.769036 38.45) scale(0.7)"/>
     <use xlink:href="#DejaVuSans-30" transform="translate(585.387201 26.965625) scale(0.49)"/>
     <use xlink:href="#DejaVuSans-Oblique-6e" transform="translate(618.476556 38.45) scale(0.7)"/>
     <path d="M 0 18.965625 
L 0 25.215625 
L 44.536133 25.215625 
L 44.536133 18.965625 
L 0 18.965625 
z
"/>
    </g>
   </g>
   <g id="patch_14">
    <path d="M 741.407231 126.360392 
Q 721.747856 123.617195 703.860171 121.121212 
" style="fill: none; stroke: #d62728; stroke-width: 1.6; stroke-linecap: round"/>
    <path d="M 707.545395 123.654812 
L 703.860171 121.121212 
L 708.098185 119.693193 
" style="fill: none; stroke: #d62728; stroke-width: 1.6; stroke-linecap: round"/>
   </g>
   <g id="text_33">
    <!-- $\frac{1}{2} w_r[n]\cdot e^{+j\omega_0 n}$ -->
    <g style="fill: #d62728" transform="translate(745.390157 134.312716) scale(0.1 -0.1)">
     <defs>
      <path id="DejaVuSans-2b" d="M 2944 4013 
L 2944 2272 
L 4684 2272 
L 4684 1741 
L 2944 1741 
L 2944 0 
L 2419 0 
L 2419 1741 
L 678 1741 
L 678 2272 
L 2419 2272 
L 2419 4013 
L 2944 4013 
z
" transform="scale(0.015625)"/>
     </defs>
     <use xlink:href="#DejaVuSans-31" transform="translate(0 43.965625) scale(0.7)"/>
     <use xlink:href="#DejaVuSans-32" transform="translate(0 -39.2375) scale(0.7)"/>
     <use xlink:href="#DejaVuSans-Oblique-77" transform="translate(57.036133 0.16875)"/>
     <use xlink:href="#DejaVuSans-Oblique-72" transform="translate(138.823242 -16.2375) scale(0.7)"/>
     <use xlink:href="#DejaVuSans-5b" transform="translate(170.336914 0.16875)"/>
     <use xlink:href="#DejaVuSans-Oblique-6e" transform="translate(209.350586 0.16875)"/>
     <use xlink:href="#DejaVuSans-5d" transform="translate(272.729492 0.16875)"/>
     <use xlink:href="#DejaVuSans-22c5" transform="translate(331.225586 0.16875)"/>
     <use xlink:href="#DejaVuSans-Oblique-65" transform="translate(382.495117 0.16875)"/>
     <use xlink:href="#DejaVuSans-2b" transform="translate(448.668451 38.45) scale(0.7)"/>
     <use xlink:href="#DejaVuSans-Oblique-6a" transform="translate(507.320794 38.45) scale(0.7)"/>
     <use xlink:href="#DejaVuSans-Oblique-3c9" transform="translate(526.769036 38.45) scale(0.7)"/>
     <use xlink:href="#DejaVuSans-30" transform="translate(585.387201 26.965625) scale(0.49)"/>
     <use xlink:href="#DejaVuSans-Oblique-6e" transform="translate(618.476556 38.45) scale(0.7)"/>
     <path d="M 0 18.965625 
L 0 25.215625 
L 44.536133 25.215625 
L 44.536133 18.965625 
L 0 18.965625 
z
"/>
    </g>
   </g>
   <g id="text_34">
    <!-- Windowed sinusoid spectrum -->
    <g transform="translate(562.313191 20.88) scale(0.12 -0.12)">
     <defs>
      <path id="DejaVuSans-57" d="M 213 4666 
L 850 4666 
L 1831 722 
L 2809 4666 
L 3519 4666 
L 4500 722 
L 5478 4666 
L 6119 4666 
L 4947 0 
L 4153 0 
L 3169 4050 
L 2175 0 
L 1381 0 
L 213 4666 
z
" transform="scale(0.015625)"/>
     </defs>
     <use xlink:href="#DejaVuSans-57"/>
     <use xlink:href="#DejaVuSans-69" transform="translate(96.626953 0)"/>
     <use xlink:href="#DejaVuSans-6e" transform="translate(124.410156 0)"/>
     <use xlink:href="#DejaVuSans-64" transform="translate(187.789062 0)"/>
     <use xlink:href="#DejaVuSans-6f" transform="translate(251.265625 0)"/>
     <use xlink:href="#DejaVuSans-77" transform="translate(312.447266 0)"/>
     <use xlink:href="#DejaVuSans-65" transform="translate(394.234375 0)"/>
     <use xlink:href="#DejaVuSans-64" transform="translate(455.757812 0)"/>
     <use xlink:href="#DejaVuSans-20" transform="translate(519.234375 0)"/>
     <use xlink:href="#DejaVuSans-73" transform="translate(551.021484 0)"/>
     <use xlink:href="#DejaVuSans-69" transform="translate(603.121094 0)"/>
     <use xlink:href="#DejaVuSans-6e" transform="translate(630.904297 0)"/>
     <use xlink:href="#DejaVuSans-75" transform="translate(694.283203 0)"/>
     <use xlink:href="#DejaVuSans-73" transform="translate(757.662109 0)"/>
     <use xlink:href="#DejaVuSans-6f" transform="translate(809.761719 0)"/>
     <use xlink:href="#DejaVuSans-69" transform="translate(870.943359 0)"/>
     <use xlink:href="#DejaVuSans-64" transform="translate(898.726562 0)"/>
     <use xlink:href="#DejaVuSans-20" transform="translate(962.203125 0)"/>
     <use xlink:href="#DejaVuSans-73" transform="translate(993.990234 0)"/>
     <use xlink:href="#DejaVuSans-70" transform="translate(1046.089844 0)"/>
     <use xlink:href="#DejaVuSans-65" transform="translate(1109.566406 0)"/>
     <use xlink:href="#DejaVuSans-63" transform="translate(1171.089844 0)"/>
     <use xlink:href="#DejaVuSans-74" transform="translate(1226.070312 0)"/>
     <use xlink:href="#DejaVuSans-72" transform="translate(1265.279297 0)"/>
     <use xlink:href="#DejaVuSans-75" transform="translate(1306.392578 0)"/>
     <use xlink:href="#DejaVuSans-6d" transform="translate(1369.771484 0)"/>
    </g>
   </g>
  </g>
 </g>
 <defs>
  <clipPath id="p1bebb916e3">
   <rect x="30.58" y="26.88" width="398.130493" height="185.15"/>
  </clipPath>
  <clipPath id="pad9deb5d05">
   <rect x="451.278257" y="26.88" width="398.130493" height="185.15"/>
  </clipPath>
 </defs>
</svg>
