<?xml version="1.0" encoding="utf-8" standalone="no"?>
<!DOCTYPE svg PUBLIC "-//W3C//DTD SVG 1.1//EN"
  "http://www.w3.org/Graphics/SVG/1.1/DTD/svg11.dtd">
<svg xmlns:xlink="http://www.w3.org/1999/xlink" width="648pt" height="432pt" viewBox="0 0 648 432" xmlns="http://www.w3.org/2000/svg" version="1.1">
 <metadata>
  <rdf:RDF xmlns:dc="http://purl.org/dc/elements/1.1/" xmlns:cc="http://creativecommons.org/ns#" xmlns:rdf="http://www.w3.org/1999/02/22-rdf-syntax-ns#">
   <cc:Work>
    <dc:type rdf:resource="http://purl.org/dc/dcmitype/StillImage"/>
    <dc:date>2025-08-20T19:59:15.192776</dc:date>
    <dc:format>image/svg+xml</dc:format>
    <dc:creator>
     <cc:Agent>
      <dc:title>Matplotlib v3.10.5, https://matplotlib.org/</dc:title>
     </cc:Agent>
    </dc:creator>
   </cc:Work>
  </rdf:RDF>
 </metadata>
 <defs>
  <style type="text/css">*{stroke-linejoin: round; stroke-linecap: butt}</style>
 </defs>
 <g id="figure_1">
  <g id="patch_1">
   <path d="M 0 432 
L 648 432 
L 648 0 
L 0 0 
z
" style="fill: #ffffff"/>
  </g>
  <g id="axes_1">
   <g id="patch_2">
    <path d="M 24.478125 390.84375 
L 637.2 390.84375 
L 637.2 25.918125 
L 24.478125 25.918125 
z
" style="fill: #ffffff"/>
   </g>
   <g id="matplotlib.axis_1">
    <g id="xtick_1">
     <g id="line2d_1">
      <defs>
       <path id="m7d51f0f1d2" d="M 0 0 
L 0 3.5 
" style="stroke: #000000; stroke-width: 0.8"/>
      </defs>
      <g>
       <use xlink:href="#m7d51f0f1d2" x="24.478125" y="390.84375" style="stroke: #000000; stroke-width: 0.8"/>
      </g>
     </g>
     <g id="text_1">
      <!-- 0.0 -->
      <g transform="translate(16.526563 405.442187) scale(0.1 -0.1)">
       <defs>
        <path id="DejaVuSans-30" d="M 2034 4250 
Q 1547 4250 1301 3770 
Q 1056 3291 1056 2328 
Q 1056 1369 1301 889 
Q 1547 409 2034 409 
Q 2525 409 2770 889 
Q 3016 1369 3016 2328 
Q 3016 3291 2770 3770 
Q 2525 4250 2034 4250 
z
M 2034 4750 
Q 2819 4750 3233 4129 
Q 3647 3509 3647 2328 
Q 3647 1150 3233 529 
Q 2819 -91 2034 -91 
Q 1250 -91 836 529 
Q 422 1150 422 2328 
Q 422 3509 836 4129 
Q 1250 4750 2034 4750 
z
" transform="scale(0.015625)"/>
        <path id="DejaVuSans-2e" d="M 684 794 
L 1344 794 
L 1344 0 
L 684 0 
L 684 794 
z
" transform="scale(0.015625)"/>
       </defs>
       <use xlink:href="#DejaVuSans-30"/>
       <use xlink:href="#DejaVuSans-2e" transform="translate(63.623047 0)"/>
       <use xlink:href="#DejaVuSans-30" transform="translate(95.410156 0)"/>
      </g>
     </g>
    </g>
    <g id="xtick_2">
     <g id="line2d_2">
      <g>
       <use xlink:href="#m7d51f0f1d2" x="158.260194" y="390.84375" style="stroke: #000000; stroke-width: 0.8"/>
      </g>
     </g>
     <g id="text_2">
      <!-- 0.2 -->
      <g transform="translate(150.308631 405.442187) scale(0.1 -0.1)">
       <defs>
        <path id="DejaVuSans-32" d="M 1228 531 
L 3431 531 
L 3431 0 
L 469 0 
L 469 531 
Q 828 903 1448 1529 
Q 2069 2156 2228 2338 
Q 2531 2678 2651 2914 
Q 2772 3150 2772 3378 
Q 2772 3750 2511 3984 
Q 2250 4219 1831 4219 
Q 1534 4219 1204 4116 
Q 875 4013 500 3803 
L 500 4441 
Q 881 4594 1212 4672 
Q 1544 4750 1819 4750 
Q 2544 4750 2975 4387 
Q 3406 4025 3406 3419 
Q 3406 3131 3298 2873 
Q 3191 2616 2906 2266 
Q 2828 2175 2409 1742 
Q 1991 1309 1228 531 
z
" transform="scale(0.015625)"/>
       </defs>
       <use xlink:href="#DejaVuSans-30"/>
       <use xlink:href="#DejaVuSans-2e" transform="translate(63.623047 0)"/>
       <use xlink:href="#DejaVuSans-32" transform="translate(95.410156 0)"/>
      </g>
     </g>
    </g>
    <g id="xtick_3">
     <g id="line2d_3">
      <g>
       <use xlink:href="#m7d51f0f1d2" x="292.042263" y="390.84375" style="stroke: #000000; stroke-width: 0.8"/>
      </g>
     </g>
     <g id="text_3">
      <!-- 0.4 -->
      <g transform="translate(284.0907 405.442187) scale(0.1 -0.1)">
       <defs>
        <path id="DejaVuSans-34" d="M 2419 4116 
L 825 1625 
L 2419 1625 
L 2419 4116 
z
M 2253 4666 
L 3047 4666 
L 3047 1625 
L 3713 1625 
L 3713 1100 
L 3047 1100 
L 3047 0 
L 2419 0 
L 2419 1100 
L 313 1100 
L 313 1709 
L 2253 4666 
z
" transform="scale(0.015625)"/>
       </defs>
       <use xlink:href="#DejaVuSans-30"/>
       <use xlink:href="#DejaVuSans-2e" transform="translate(63.623047 0)"/>
       <use xlink:href="#DejaVuSans-34" transform="translate(95.410156 0)"/>
      </g>
     </g>
    </g>
    <g id="xtick_4">
     <g id="line2d_4">
      <g>
       <use xlink:href="#m7d51f0f1d2" x="425.824331" y="390.84375" style="stroke: #000000; stroke-width: 0.8"/>
      </g>
     </g>
     <g id="text_4">
      <!-- 0.6 -->
      <g transform="translate(417.872769 405.442187) scale(0.1 -0.1)">
       <defs>
        <path id="DejaVuSans-36" d="M 2113 2584 
Q 1688 2584 1439 2293 
Q 1191 2003 1191 1497 
Q 1191 994 1439 701 
Q 1688 409 2113 409 
Q 2538 409 2786 701 
Q 3034 994 3034 1497 
Q 3034 2003 2786 2293 
Q 2538 2584 2113 2584 
z
M 3366 4563 
L 3366 3988 
Q 3128 4100 2886 4159 
Q 2644 4219 2406 4219 
Q 1781 4219 1451 3797 
Q 1122 3375 1075 2522 
Q 1259 2794 1537 2939 
Q 1816 3084 2150 3084 
Q 2853 3084 3261 2657 
Q 3669 2231 3669 1497 
Q 3669 778 3244 343 
Q 2819 -91 2113 -91 
Q 1303 -91 875 529 
Q 447 1150 447 2328 
Q 447 3434 972 4092 
Q 1497 4750 2381 4750 
Q 2619 4750 2861 4703 
Q 3103 4656 3366 4563 
z
" transform="scale(0.015625)"/>
       </defs>
       <use xlink:href="#DejaVuSans-30"/>
       <use xlink:href="#DejaVuSans-2e" transform="translate(63.623047 0)"/>
       <use xlink:href="#DejaVuSans-36" transform="translate(95.410156 0)"/>
      </g>
     </g>
    </g>
    <g id="xtick_5">
     <g id="line2d_5">
      <g>
       <use xlink:href="#m7d51f0f1d2" x="559.6064" y="390.84375" style="stroke: #000000; stroke-width: 0.8"/>
      </g>
     </g>
     <g id="text_5">
      <!-- 0.8 -->
      <g transform="translate(551.654838 405.442187) scale(0.1 -0.1)">
       <defs>
        <path id="DejaVuSans-38" d="M 2034 2216 
Q 1584 2216 1326 1975 
Q 1069 1734 1069 1313 
Q 1069 891 1326 650 
Q 1584 409 2034 409 
Q 2484 409 2743 651 
Q 3003 894 3003 1313 
Q 3003 1734 2745 1975 
Q 2488 2216 2034 2216 
z
M 1403 2484 
Q 997 2584 770 2862 
Q 544 3141 544 3541 
Q 544 4100 942 4425 
Q 1341 4750 2034 4750 
Q 2731 4750 3128 4425 
Q 3525 4100 3525 3541 
Q 3525 3141 3298 2862 
Q 3072 2584 2669 2484 
Q 3125 2378 3379 2068 
Q 3634 1759 3634 1313 
Q 3634 634 3220 271 
Q 2806 -91 2034 -91 
Q 1263 -91 848 271 
Q 434 634 434 1313 
Q 434 1759 690 2068 
Q 947 2378 1403 2484 
z
M 1172 3481 
Q 1172 3119 1398 2916 
Q 1625 2713 2034 2713 
Q 2441 2713 2670 2916 
Q 2900 3119 2900 3481 
Q 2900 3844 2670 4047 
Q 2441 4250 2034 4250 
Q 1625 4250 1398 4047 
Q 1172 3844 1172 3481 
z
" transform="scale(0.015625)"/>
       </defs>
       <use xlink:href="#DejaVuSans-30"/>
       <use xlink:href="#DejaVuSans-2e" transform="translate(63.623047 0)"/>
       <use xlink:href="#DejaVuSans-38" transform="translate(95.410156 0)"/>
      </g>
     </g>
    </g>
    <g id="text_6">
     <!-- Time (seconds) -->
     <g transform="translate(292.677344 419.120313) scale(0.1 -0.1)">
      <defs>
       <path id="DejaVuSans-54" d="M -19 4666 
L 3928 4666 
L 3928 4134 
L 2272 4134 
L 2272 0 
L 1638 0 
L 1638 4134 
L -19 4134 
L -19 4666 
z
" transform="scale(0.015625)"/>
       <path id="DejaVuSans-69" d="M 603 3500 
L 1178 3500 
L 1178 0 
L 603 0 
L 603 3500 
z
M 603 4863 
L 1178 4863 
L 1178 4134 
L 603 4134 
L 603 4863 
z
" transform="scale(0.015625)"/>
       <path id="DejaVuSans-6d" d="M 3328 2828 
Q 3544 3216 3844 3400 
Q 4144 3584 4550 3584 
Q 5097 3584 5394 3201 
Q 5691 2819 5691 2113 
L 5691 0 
L 5113 0 
L 5113 2094 
Q 5113 2597 4934 2840 
Q 4756 3084 4391 3084 
Q 3944 3084 3684 2787 
Q 3425 2491 3425 1978 
L 3425 0 
L 2847 0 
L 2847 2094 
Q 2847 2600 2669 2842 
Q 2491 3084 2119 3084 
Q 1678 3084 1418 2786 
Q 1159 2488 1159 1978 
L 1159 0 
L 581 0 
L 581 3500 
L 1159 3500 
L 1159 2956 
Q 1356 3278 1631 3431 
Q 1906 3584 2284 3584 
Q 2666 3584 2933 3390 
Q 3200 3197 3328 2828 
z
" transform="scale(0.015625)"/>
       <path id="DejaVuSans-65" d="M 3597 1894 
L 3597 1613 
L 953 1613 
Q 991 1019 1311 708 
Q 1631 397 2203 397 
Q 2534 397 2845 478 
Q 3156 559 3463 722 
L 3463 178 
Q 3153 47 2828 -22 
Q 2503 -91 2169 -91 
Q 1331 -91 842 396 
Q 353 884 353 1716 
Q 353 2575 817 3079 
Q 1281 3584 2069 3584 
Q 2775 3584 3186 3129 
Q 3597 2675 3597 1894 
z
M 3022 2063 
Q 3016 2534 2758 2815 
Q 2500 3097 2075 3097 
Q 1594 3097 1305 2825 
Q 1016 2553 972 2059 
L 3022 2063 
z
" transform="scale(0.015625)"/>
       <path id="DejaVuSans-20" transform="scale(0.015625)"/>
       <path id="DejaVuSans-28" d="M 1984 4856 
Q 1566 4138 1362 3434 
Q 1159 2731 1159 2009 
Q 1159 1288 1364 580 
Q 1569 -128 1984 -844 
L 1484 -844 
Q 1016 -109 783 600 
Q 550 1309 550 2009 
Q 550 2706 781 3412 
Q 1013 4119 1484 4856 
L 1984 4856 
z
" transform="scale(0.015625)"/>
       <path id="DejaVuSans-73" d="M 2834 3397 
L 2834 2853 
Q 2591 2978 2328 3040 
Q 2066 3103 1784 3103 
Q 1356 3103 1142 2972 
Q 928 2841 928 2578 
Q 928 2378 1081 2264 
Q 1234 2150 1697 2047 
L 1894 2003 
Q 2506 1872 2764 1633 
Q 3022 1394 3022 966 
Q 3022 478 2636 193 
Q 2250 -91 1575 -91 
Q 1294 -91 989 -36 
Q 684 19 347 128 
L 347 722 
Q 666 556 975 473 
Q 1284 391 1588 391 
Q 1994 391 2212 530 
Q 2431 669 2431 922 
Q 2431 1156 2273 1281 
Q 2116 1406 1581 1522 
L 1381 1569 
Q 847 1681 609 1914 
Q 372 2147 372 2553 
Q 372 3047 722 3315 
Q 1072 3584 1716 3584 
Q 2034 3584 2315 3537 
Q 2597 3491 2834 3397 
z
" transform="scale(0.015625)"/>
       <path id="DejaVuSans-63" d="M 3122 3366 
L 3122 2828 
Q 2878 2963 2633 3030 
Q 2388 3097 2138 3097 
Q 1578 3097 1268 2742 
Q 959 2388 959 1747 
Q 959 1106 1268 751 
Q 1578 397 2138 397 
Q 2388 397 2633 464 
Q 2878 531 3122 666 
L 3122 134 
Q 2881 22 2623 -34 
Q 2366 -91 2075 -91 
Q 1284 -91 818 406 
Q 353 903 353 1747 
Q 353 2603 823 3093 
Q 1294 3584 2113 3584 
Q 2378 3584 2631 3529 
Q 2884 3475 3122 3366 
z
" transform="scale(0.015625)"/>
       <path id="DejaVuSans-6f" d="M 1959 3097 
Q 1497 3097 1228 2736 
Q 959 2375 959 1747 
Q 959 1119 1226 758 
Q 1494 397 1959 397 
Q 2419 397 2687 759 
Q 2956 1122 2956 1747 
Q 2956 2369 2687 2733 
Q 2419 3097 1959 3097 
z
M 1959 3584 
Q 2709 3584 3137 3096 
Q 3566 2609 3566 1747 
Q 3566 888 3137 398 
Q 2709 -91 1959 -91 
Q 1206 -91 779 398 
Q 353 888 353 1747 
Q 353 2609 779 3096 
Q 1206 3584 1959 3584 
z
" transform="scale(0.015625)"/>
       <path id="DejaVuSans-6e" d="M 3513 2113 
L 3513 0 
L 2938 0 
L 2938 2094 
Q 2938 2591 2744 2837 
Q 2550 3084 2163 3084 
Q 1697 3084 1428 2787 
Q 1159 2491 1159 1978 
L 1159 0 
L 581 0 
L 581 3500 
L 1159 3500 
L 1159 2956 
Q 1366 3272 1645 3428 
Q 1925 3584 2291 3584 
Q 2894 3584 3203 3211 
Q 3513 2838 3513 2113 
z
" transform="scale(0.015625)"/>
       <path id="DejaVuSans-64" d="M 2906 2969 
L 2906 4863 
L 3481 4863 
L 3481 0 
L 2906 0 
L 2906 525 
Q 2725 213 2448 61 
Q 2172 -91 1784 -91 
Q 1150 -91 751 415 
Q 353 922 353 1747 
Q 353 2572 751 3078 
Q 1150 3584 1784 3584 
Q 2172 3584 2448 3432 
Q 2725 3281 2906 2969 
z
M 947 1747 
Q 947 1113 1208 752 
Q 1469 391 1925 391 
Q 2381 391 2643 752 
Q 2906 1113 2906 1747 
Q 2906 2381 2643 2742 
Q 2381 3103 1925 3103 
Q 1469 3103 1208 2742 
Q 947 2381 947 1747 
z
" transform="scale(0.015625)"/>
       <path id="DejaVuSans-29" d="M 513 4856 
L 1013 4856 
Q 1481 4119 1714 3412 
Q 1947 2706 1947 2009 
Q 1947 1309 1714 600 
Q 1481 -109 1013 -844 
L 513 -844 
Q 928 -128 1133 580 
Q 1338 1288 1338 2009 
Q 1338 2731 1133 3434 
Q 928 4138 513 4856 
z
" transform="scale(0.015625)"/>
      </defs>
      <use xlink:href="#DejaVuSans-54"/>
      <use xlink:href="#DejaVuSans-69" transform="translate(57.958984 0)"/>
      <use xlink:href="#DejaVuSans-6d" transform="translate(85.742188 0)"/>
      <use xlink:href="#DejaVuSans-65" transform="translate(183.154297 0)"/>
      <use xlink:href="#DejaVuSans-20" transform="translate(244.677734 0)"/>
      <use xlink:href="#DejaVuSans-28" transform="translate(276.464844 0)"/>
      <use xlink:href="#DejaVuSans-73" transform="translate(315.478516 0)"/>
      <use xlink:href="#DejaVuSans-65" transform="translate(367.578125 0)"/>
      <use xlink:href="#DejaVuSans-63" transform="translate(429.101562 0)"/>
      <use xlink:href="#DejaVuSans-6f" transform="translate(484.082031 0)"/>
      <use xlink:href="#DejaVuSans-6e" transform="translate(545.263672 0)"/>
      <use xlink:href="#DejaVuSans-64" transform="translate(608.642578 0)"/>
      <use xlink:href="#DejaVuSans-73" transform="translate(672.119141 0)"/>
      <use xlink:href="#DejaVuSans-29" transform="translate(724.21875 0)"/>
     </g>
    </g>
   </g>
   <g id="matplotlib.axis_2">
    <g id="text_7">
     <!-- Signal Amplitude -->
     <g transform="translate(18.398438 250.952031) rotate(-90) scale(0.1 -0.1)">
      <defs>
       <path id="DejaVuSans-53" d="M 3425 4513 
L 3425 3897 
Q 3066 4069 2747 4153 
Q 2428 4238 2131 4238 
Q 1616 4238 1336 4038 
Q 1056 3838 1056 3469 
Q 1056 3159 1242 3001 
Q 1428 2844 1947 2747 
L 2328 2669 
Q 3034 2534 3370 2195 
Q 3706 1856 3706 1288 
Q 3706 609 3251 259 
Q 2797 -91 1919 -91 
Q 1588 -91 1214 -16 
Q 841 59 441 206 
L 441 856 
Q 825 641 1194 531 
Q 1563 422 1919 422 
Q 2459 422 2753 634 
Q 3047 847 3047 1241 
Q 3047 1584 2836 1778 
Q 2625 1972 2144 2069 
L 1759 2144 
Q 1053 2284 737 2584 
Q 422 2884 422 3419 
Q 422 4038 858 4394 
Q 1294 4750 2059 4750 
Q 2388 4750 2728 4690 
Q 3069 4631 3425 4513 
z
" transform="scale(0.015625)"/>
       <path id="DejaVuSans-67" d="M 2906 1791 
Q 2906 2416 2648 2759 
Q 2391 3103 1925 3103 
Q 1463 3103 1205 2759 
Q 947 2416 947 1791 
Q 947 1169 1205 825 
Q 1463 481 1925 481 
Q 2391 481 2648 825 
Q 2906 1169 2906 1791 
z
M 3481 434 
Q 3481 -459 3084 -895 
Q 2688 -1331 1869 -1331 
Q 1566 -1331 1297 -1286 
Q 1028 -1241 775 -1147 
L 775 -588 
Q 1028 -725 1275 -790 
Q 1522 -856 1778 -856 
Q 2344 -856 2625 -561 
Q 2906 -266 2906 331 
L 2906 616 
Q 2728 306 2450 153 
Q 2172 0 1784 0 
Q 1141 0 747 490 
Q 353 981 353 1791 
Q 353 2603 747 3093 
Q 1141 3584 1784 3584 
Q 2172 3584 2450 3431 
Q 2728 3278 2906 2969 
L 2906 3500 
L 3481 3500 
L 3481 434 
z
" transform="scale(0.015625)"/>
       <path id="DejaVuSans-61" d="M 2194 1759 
Q 1497 1759 1228 1600 
Q 959 1441 959 1056 
Q 959 750 1161 570 
Q 1363 391 1709 391 
Q 2188 391 2477 730 
Q 2766 1069 2766 1631 
L 2766 1759 
L 2194 1759 
z
M 3341 1997 
L 3341 0 
L 2766 0 
L 2766 531 
Q 2569 213 2275 61 
Q 1981 -91 1556 -91 
Q 1019 -91 701 211 
Q 384 513 384 1019 
Q 384 1609 779 1909 
Q 1175 2209 1959 2209 
L 2766 2209 
L 2766 2266 
Q 2766 2663 2505 2880 
Q 2244 3097 1772 3097 
Q 1472 3097 1187 3025 
Q 903 2953 641 2809 
L 641 3341 
Q 956 3463 1253 3523 
Q 1550 3584 1831 3584 
Q 2591 3584 2966 3190 
Q 3341 2797 3341 1997 
z
" transform="scale(0.015625)"/>
       <path id="DejaVuSans-6c" d="M 603 4863 
L 1178 4863 
L 1178 0 
L 603 0 
L 603 4863 
z
" transform="scale(0.015625)"/>
       <path id="DejaVuSans-41" d="M 2188 4044 
L 1331 1722 
L 3047 1722 
L 2188 4044 
z
M 1831 4666 
L 2547 4666 
L 4325 0 
L 3669 0 
L 3244 1197 
L 1141 1197 
L 716 0 
L 50 0 
L 1831 4666 
z
" transform="scale(0.015625)"/>
       <path id="DejaVuSans-70" d="M 1159 525 
L 1159 -1331 
L 581 -1331 
L 581 3500 
L 1159 3500 
L 1159 2969 
Q 1341 3281 1617 3432 
Q 1894 3584 2278 3584 
Q 2916 3584 3314 3078 
Q 3713 2572 3713 1747 
Q 3713 922 3314 415 
Q 2916 -91 2278 -91 
Q 1894 -91 1617 61 
Q 1341 213 1159 525 
z
M 3116 1747 
Q 3116 2381 2855 2742 
Q 2594 3103 2138 3103 
Q 1681 3103 1420 2742 
Q 1159 2381 1159 1747 
Q 1159 1113 1420 752 
Q 1681 391 2138 391 
Q 2594 391 2855 752 
Q 3116 1113 3116 1747 
z
" transform="scale(0.015625)"/>
       <path id="DejaVuSans-74" d="M 1172 4494 
L 1172 3500 
L 2356 3500 
L 2356 3053 
L 1172 3053 
L 1172 1153 
Q 1172 725 1289 603 
Q 1406 481 1766 481 
L 2356 481 
L 2356 0 
L 1766 0 
Q 1100 0 847 248 
Q 594 497 594 1153 
L 594 3053 
L 172 3053 
L 172 3500 
L 594 3500 
L 594 4494 
L 1172 4494 
z
" transform="scale(0.015625)"/>
       <path id="DejaVuSans-75" d="M 544 1381 
L 544 3500 
L 1119 3500 
L 1119 1403 
Q 1119 906 1312 657 
Q 1506 409 1894 409 
Q 2359 409 2629 706 
Q 2900 1003 2900 1516 
L 2900 3500 
L 3475 3500 
L 3475 0 
L 2900 0 
L 2900 538 
Q 2691 219 2414 64 
Q 2138 -91 1772 -91 
Q 1169 -91 856 284 
Q 544 659 544 1381 
z
M 1991 3584 
L 1991 3584 
z
" transform="scale(0.015625)"/>
      </defs>
      <use xlink:href="#DejaVuSans-53"/>
      <use xlink:href="#DejaVuSans-69" transform="translate(63.476562 0)"/>
      <use xlink:href="#DejaVuSans-67" transform="translate(91.259766 0)"/>
      <use xlink:href="#DejaVuSans-6e" transform="translate(154.736328 0)"/>
      <use xlink:href="#DejaVuSans-61" transform="translate(218.115234 0)"/>
      <use xlink:href="#DejaVuSans-6c" transform="translate(279.394531 0)"/>
      <use xlink:href="#DejaVuSans-20" transform="translate(307.177734 0)"/>
      <use xlink:href="#DejaVuSans-41" transform="translate(338.964844 0)"/>
      <use xlink:href="#DejaVuSans-6d" transform="translate(407.373047 0)"/>
      <use xlink:href="#DejaVuSans-70" transform="translate(504.785156 0)"/>
      <use xlink:href="#DejaVuSans-6c" transform="translate(568.261719 0)"/>
      <use xlink:href="#DejaVuSans-69" transform="translate(596.044922 0)"/>
      <use xlink:href="#DejaVuSans-74" transform="translate(623.828125 0)"/>
      <use xlink:href="#DejaVuSans-75" transform="translate(663.037109 0)"/>
      <use xlink:href="#DejaVuSans-64" transform="translate(726.416016 0)"/>
      <use xlink:href="#DejaVuSans-65" transform="translate(789.892578 0)"/>
     </g>
    </g>
   </g>
   <g id="line2d_6">
    <path d="M 24.478125 353.95059 
L 25.815946 354.690672 
L 28.491587 356.628614 
L 29.829408 356.939581 
L 31.167228 357.087928 
L 32.505049 356.944573 
L 33.84287 355.737205 
L 35.180691 355.432246 
L 36.518511 355.841742 
L 37.856332 354.730523 
L 39.194153 354.63277 
L 41.869794 357.653715 
L 43.207615 358.474595 
L 44.545435 357.587067 
L 45.883256 357.691477 
L 47.221077 358.661928 
L 48.558897 358.691859 
L 49.896718 357.261687 
L 51.234539 355.606914 
L 52.572359 354.140439 
L 53.91018 353.321888 
L 55.248001 352.038923 
L 56.585822 353.12398 
L 57.923642 355.126631 
L 59.261463 355.735223 
L 60.599284 357.479831 
L 61.937104 357.876805 
L 63.274925 356.836192 
L 64.612746 356.154809 
L 65.950566 355.720838 
L 67.288387 354.507774 
L 69.964028 355.142485 
L 71.301849 355.673254 
L 72.63967 355.469786 
L 73.97749 355.545726 
L 75.315311 356.260369 
L 76.653132 356.269574 
L 77.990953 355.118092 
L 79.328773 353.407449 
L 80.666594 353.728605 
L 82.004415 354.372107 
L 84.680056 352.403066 
L 86.017877 352.819989 
L 88.693518 352.382153 
L 90.031339 351.485756 
L 91.369159 354.607002 
L 92.70698 356.779995 
L 94.044801 354.542563 
L 95.382621 354.474731 
L 96.720442 353.757666 
L 98.058263 353.439744 
L 99.396084 355.570552 
L 100.733904 357.332408 
L 102.071725 354.502915 
L 103.409546 352.345362 
L 104.747366 351.982769 
L 106.085187 351.299273 
L 107.423008 352.700194 
L 108.760828 354.509282 
L 110.098649 353.303836 
L 112.77429 354.271629 
L 114.112111 354.321039 
L 115.449932 353.573764 
L 116.787752 354.288117 
L 118.125573 355.607163 
L 119.463394 355.601433 
L 120.801215 358.230556 
L 122.139035 360.045901 
L 123.476856 358.567808 
L 124.814677 360.110879 
L 126.152497 360.535623 
L 127.490318 359.768657 
L 128.828139 359.369688 
L 131.50378 361.002068 
L 132.841601 361.61026 
L 134.179421 361.198379 
L 135.517242 359.712104 
L 136.855063 357.782399 
L 138.192883 357.77964 
L 139.530704 358.061822 
L 140.868525 356.652773 
L 142.206346 356.546879 
L 143.544166 357.143267 
L 144.881987 358.293857 
L 146.219808 360.080546 
L 147.557628 360.614318 
L 148.895449 359.51543 
L 150.23327 359.363519 
L 151.57109 360.297363 
L 152.908911 360.701013 
L 154.246732 358.230346 
L 155.584552 356.45318 
L 156.922373 355.014734 
L 158.260194 353.858188 
L 159.598014 354.67878 
L 160.935835 355.319872 
L 162.273656 356.414639 
L 163.611477 357.192788 
L 166.287118 356.339713 
L 167.624939 354.888493 
L 168.962759 352.774029 
L 170.30058 351.859158 
L 171.638401 353.167512 
L 172.976221 355.046884 
L 174.314042 357.133718 
L 175.651863 359.009753 
L 176.989683 357.933739 
L 178.327504 354.03816 
L 179.665325 353.034853 
L 181.003145 354.307623 
L 182.340966 355.360197 
L 183.678787 357.851921 
L 185.016608 358.61806 
L 186.354428 358.920164 
L 189.03007 358.346221 
L 190.36789 357.511149 
L 191.705711 356.300201 
L 193.043532 355.487193 
L 194.381352 355.230675 
L 195.719173 356.441298 
L 197.056994 358.289855 
L 198.394814 359.530986 
L 199.732635 359.419288 
L 201.070456 359.715015 
L 202.408276 359.632422 
L 203.746097 358.573476 
L 205.083918 358.016488 
L 206.421739 356.710131 
L 207.759559 355.790247 
L 209.09738 356.945221 
L 210.435201 358.32192 
L 213.110842 357.544773 
L 214.448663 357.754947 
L 215.786483 356.04203 
L 217.124304 355.458955 
L 218.462125 357.606958 
L 219.799945 355.767514 
L 221.137766 354.602233 
L 223.813407 351.06582 
L 225.151228 349.989665 
L 226.489049 347.145569 
L 227.82687 345.551704 
L 229.16469 345.436517 
L 230.502511 345.552631 
L 231.840332 344.849763 
L 233.178152 343.379056 
L 234.515973 344.464675 
L 235.853794 342.045425 
L 237.191614 336.570616 
L 238.529435 334.831992 
L 239.867256 330.657453 
L 241.205076 329.113331 
L 242.542897 328.85753 
L 243.880718 326.041557 
L 245.218538 324.964953 
L 246.556359 325.971663 
L 247.89418 325.367102 
L 250.569821 325.47999 
L 251.907642 325.08205 
L 253.245463 325.199601 
L 254.583283 326.042304 
L 255.921104 325.92448 
L 257.258925 324.933766 
L 258.596745 326.075848 
L 259.934566 329.965598 
L 263.948028 333.845505 
L 265.285849 334.883913 
L 266.623669 338.461767 
L 267.96149 345.025655 
L 269.299311 349.818469 
L 270.637132 352.218318 
L 271.974952 356.152931 
L 273.312773 359.552383 
L 275.988414 360.393441 
L 278.664056 361.581867 
L 280.001876 361.962756 
L 281.339697 362.625257 
L 282.677518 362.543091 
L 284.015338 362.137082 
L 285.353159 362.46017 
L 286.69098 360.711382 
L 288.0288 361.064942 
L 289.366621 363.669674 
L 290.704442 363.748277 
L 292.042263 361.689625 
L 293.380083 362.073903 
L 294.717904 361.799814 
L 296.055725 361.684884 
L 297.393545 361.428614 
L 298.731366 361.944924 
L 300.069187 360.178109 
L 301.407007 359.691082 
L 302.744828 359.783481 
L 304.082649 359.716886 
L 305.420469 360.487748 
L 308.096111 365.320067 
L 310.771752 374.256222 
L 312.109573 367.598315 
L 313.447394 362.245655 
L 314.785214 360.315506 
L 316.123035 348.644257 
L 317.460856 329.557466 
L 318.798676 312.404703 
L 320.136497 292.700332 
L 321.474318 269.112834 
L 322.812138 243.541696 
L 324.149959 211.9694 
L 326.8256 131.273516 
L 329.501242 60.42474 
L 330.839063 42.505653 
L 332.176883 48.687418 
L 333.514704 76.092889 
L 336.190345 168.873055 
L 340.203807 318.029206 
L 341.541628 342.609671 
L 342.879449 355.787745 
L 344.217269 362.44304 
L 345.55509 360.89803 
L 346.892911 357.61439 
L 348.230731 356.811699 
L 349.568552 355.112831 
L 350.906373 351.616176 
L 352.244194 352.100525 
L 353.582014 351.122236 
L 354.919835 351.738259 
L 357.595476 350.949992 
L 358.933297 351.850419 
L 360.271118 354.127612 
L 361.608938 355.202875 
L 362.946759 354.009228 
L 364.28458 353.402101 
L 365.6224 355.466097 
L 366.960221 355.844743 
L 368.298042 352.999994 
L 369.635862 353.017222 
L 370.973683 353.564984 
L 373.649325 353.696824 
L 374.987145 354.839936 
L 376.324966 356.486128 
L 377.662787 357.158651 
L 379.000607 358.261763 
L 380.338428 356.128218 
L 381.676249 353.138891 
L 384.35189 355.250041 
L 385.689711 354.935605 
L 387.027531 355.138204 
L 388.365352 354.715109 
L 389.703173 354.488925 
L 391.040993 355.078478 
L 392.378814 354.764183 
L 393.716635 352.184721 
L 395.054456 351.774034 
L 396.392276 353.416541 
L 397.730097 352.636874 
L 399.067918 352.861392 
L 400.405738 353.446266 
L 401.743559 351.637482 
L 403.08138 349.461752 
L 404.4192 349.120025 
L 405.757021 349.902723 
L 407.094842 349.306191 
L 408.432662 349.824999 
L 409.770483 350.77185 
L 411.108304 349.840069 
L 412.446124 349.476815 
L 413.783945 348.363931 
L 415.121766 345.866197 
L 416.459587 344.679874 
L 417.797407 345.336318 
L 419.135228 346.668914 
L 420.473049 347.359372 
L 421.810869 347.901574 
L 424.486511 350.290571 
L 425.824331 349.730063 
L 427.162152 348.670887 
L 428.499973 346.542296 
L 429.837793 344.737959 
L 432.513435 344.051354 
L 433.851255 344.030379 
L 435.189076 343.558545 
L 436.526897 342.889768 
L 437.864718 343.79595 
L 439.202538 344.033763 
L 440.540359 343.691137 
L 441.87818 344.071713 
L 443.216 342.081986 
L 444.553821 339.784978 
L 445.891642 339.231673 
L 447.229462 338.256795 
L 451.242924 336.367831 
L 452.580745 336.142778 
L 453.918566 335.098256 
L 455.256386 335.679813 
L 456.594207 336.008077 
L 457.932028 336.941915 
L 459.269849 336.497054 
L 460.607669 333.307126 
L 461.94549 332.780025 
L 463.283311 333.000596 
L 464.621131 332.172638 
L 467.296773 329.882514 
L 468.634593 329.524577 
L 469.972414 329.753706 
L 471.310235 328.351793 
L 472.648055 327.533896 
L 473.985876 325.323212 
L 475.323697 321.681741 
L 477.999338 318.589945 
L 479.337159 317.336692 
L 480.67498 318.006157 
L 482.0128 317.266981 
L 483.350621 318.633868 
L 484.688442 317.809927 
L 486.026262 312.737833 
L 487.364083 309.313537 
L 488.701904 307.837238 
L 490.039724 305.008319 
L 491.377545 301.18704 
L 492.715366 300.592322 
L 494.053186 300.128869 
L 495.391007 297.79799 
L 496.728828 294.841319 
L 498.066648 292.289708 
L 499.404469 288.955448 
L 500.74229 287.643209 
L 502.080111 287.085589 
L 503.417931 282.929336 
L 504.755752 278.156001 
L 506.093573 278.707086 
L 507.431393 278.593404 
L 508.769214 274.830758 
L 511.444855 272.806667 
L 512.782676 270.314278 
L 514.120497 270.7032 
L 515.458317 270.949773 
L 516.796138 269.619244 
L 518.133959 269.001443 
L 519.471779 269.135984 
L 520.8096 267.199093 
L 522.147421 263.735412 
L 523.485242 263.430928 
L 524.823062 264.047086 
L 526.160883 264.485841 
L 527.498704 265.372411 
L 528.836524 266.592221 
L 530.174345 268.457834 
L 531.512166 270.731279 
L 532.849986 272.783754 
L 534.187807 273.018526 
L 535.525628 274.808227 
L 536.863448 277.310515 
L 538.201269 280.65155 
L 540.87691 289.593115 
L 542.214731 292.964261 
L 543.552552 296.773091 
L 544.890373 301.944764 
L 546.228193 305.402077 
L 547.566014 307.474879 
L 550.241655 315.851727 
L 551.579476 318.025949 
L 552.917297 318.780614 
L 554.255117 323.421301 
L 555.592938 327.220807 
L 556.930759 326.414663 
L 558.268579 328.635167 
L 559.6064 331.40463 
L 560.944221 331.728098 
L 562.282041 335.02874 
L 563.619862 337.607175 
L 564.957683 336.609044 
L 566.295504 339.062299 
L 567.633324 345.204956 
L 568.971145 346.550387 
L 570.308966 346.582086 
L 572.984607 349.381366 
L 574.322428 348.795625 
L 575.660248 349.532648 
L 576.998069 349.297074 
L 578.33589 349.686839 
L 579.67371 351.911414 
L 581.011531 352.429495 
L 582.349352 351.354944 
L 583.687172 352.720594 
L 585.024993 354.510703 
L 586.362814 354.001497 
L 587.700635 355.056602 
L 589.038455 356.682504 
L 590.376276 359.2996 
L 591.714097 360.468404 
L 593.051917 357.653774 
L 594.389738 357.664341 
L 595.727559 359.720898 
L 597.065379 358.0917 
L 598.4032 356.859385 
L 599.741021 358.101809 
L 601.078841 358.840216 
L 602.416662 359.299264 
L 603.754483 356.903992 
L 605.092303 356.452492 
L 606.430124 359.205626 
L 607.767945 358.570419 
L 609.105766 357.226039 
L 610.443586 357.909197 
L 611.781407 356.507527 
L 613.119228 356.543698 
L 614.457048 356.719158 
L 615.794869 356.287173 
L 617.13269 355.681706 
L 618.47051 355.940398 
L 619.808331 355.998488 
L 621.146152 356.891962 
L 622.483972 357.077572 
L 623.821793 356.074122 
L 625.159614 354.382184 
L 626.497434 353.260153 
L 627.835255 354.908278 
L 629.173076 355.718593 
L 630.510897 355.484434 
L 633.186538 354.651039 
L 634.524359 356.864906 
L 635.862179 357.15612 
L 637.2 355.05559 
L 637.2 355.05559 
" clip-path="url(#p9239221f11)" style="fill: none; stroke: #a2142f; stroke-width: 2; stroke-linecap: square"/>
   </g>
   <g id="patch_3">
    <path d="M 24.478125 390.84375 
L 24.478125 25.918125 
" style="fill: none; stroke: #000000; stroke-width: 0.8; stroke-linejoin: miter; stroke-linecap: square"/>
   </g>
   <g id="patch_4">
    <path d="M 637.2 390.84375 
L 637.2 25.918125 
" style="fill: none; stroke: #000000; stroke-width: 0.8; stroke-linejoin: miter; stroke-linecap: square"/>
   </g>
   <g id="patch_5">
    <path d="M 24.478125 390.84375 
L 637.2 390.84375 
" style="fill: none; stroke: #000000; stroke-width: 0.8; stroke-linejoin: miter; stroke-linecap: square"/>
   </g>
   <g id="patch_6">
    <path d="M 24.478125 25.918125 
L 637.2 25.918125 
" style="fill: none; stroke: #000000; stroke-width: 0.8; stroke-linejoin: miter; stroke-linecap: square"/>
   </g>
   <g id="text_8">
    <!-- ECG Signal -->
    <g transform="translate(297.870938 19.918125) scale(0.12 -0.12)">
     <defs>
      <path id="DejaVuSans-45" d="M 628 4666 
L 3578 4666 
L 3578 4134 
L 1259 4134 
L 1259 2753 
L 3481 2753 
L 3481 2222 
L 1259 2222 
L 1259 531 
L 3634 531 
L 3634 0 
L 628 0 
L 628 4666 
z
" transform="scale(0.015625)"/>
      <path id="DejaVuSans-43" d="M 4122 4306 
L 4122 3641 
Q 3803 3938 3442 4084 
Q 3081 4231 2675 4231 
Q 1875 4231 1450 3742 
Q 1025 3253 1025 2328 
Q 1025 1406 1450 917 
Q 1875 428 2675 428 
Q 3081 428 3442 575 
Q 3803 722 4122 1019 
L 4122 359 
Q 3791 134 3420 21 
Q 3050 -91 2638 -91 
Q 1578 -91 968 557 
Q 359 1206 359 2328 
Q 359 3453 968 4101 
Q 1578 4750 2638 4750 
Q 3056 4750 3426 4639 
Q 3797 4528 4122 4306 
z
" transform="scale(0.015625)"/>
      <path id="DejaVuSans-47" d="M 3809 666 
L 3809 1919 
L 2778 1919 
L 2778 2438 
L 4434 2438 
L 4434 434 
Q 4069 175 3628 42 
Q 3188 -91 2688 -91 
Q 1594 -91 976 548 
Q 359 1188 359 2328 
Q 359 3472 976 4111 
Q 1594 4750 2688 4750 
Q 3144 4750 3555 4637 
Q 3966 4525 4313 4306 
L 4313 3634 
Q 3963 3931 3569 4081 
Q 3175 4231 2741 4231 
Q 1884 4231 1454 3753 
Q 1025 3275 1025 2328 
Q 1025 1384 1454 906 
Q 1884 428 2741 428 
Q 3075 428 3337 486 
Q 3600 544 3809 666 
z
" transform="scale(0.015625)"/>
     </defs>
     <use xlink:href="#DejaVuSans-45"/>
     <use xlink:href="#DejaVuSans-43" transform="translate(63.183594 0)"/>
     <use xlink:href="#DejaVuSans-47" transform="translate(133.007812 0)"/>
     <use xlink:href="#DejaVuSans-20" transform="translate(210.498047 0)"/>
     <use xlink:href="#DejaVuSans-53" transform="translate(242.285156 0)"/>
     <use xlink:href="#DejaVuSans-69" transform="translate(305.761719 0)"/>
     <use xlink:href="#DejaVuSans-67" transform="translate(333.544922 0)"/>
     <use xlink:href="#DejaVuSans-6e" transform="translate(397.021484 0)"/>
     <use xlink:href="#DejaVuSans-61" transform="translate(460.400391 0)"/>
     <use xlink:href="#DejaVuSans-6c" transform="translate(521.679688 0)"/>
    </g>
   </g>
  </g>
 </g>
 <defs>
  <clipPath id="p9239221f11">
   <rect x="24.478125" y="25.918125" width="612.721875" height="364.925625"/>
  </clipPath>
 </defs>
</svg>
