<?xml version="1.0" encoding="utf-8" standalone="no"?>
<!DOCTYPE svg PUBLIC "-//W3C//DTD SVG 1.1//EN"
  "http://www.w3.org/Graphics/SVG/1.1/DTD/svg11.dtd">
<svg xmlns:xlink="http://www.w3.org/1999/xlink" width="648pt" height="432pt" viewBox="0 0 648 432" xmlns="http://www.w3.org/2000/svg" version="1.1">
 <metadata>
  <rdf:RDF xmlns:dc="http://purl.org/dc/elements/1.1/" xmlns:cc="http://creativecommons.org/ns#" xmlns:rdf="http://www.w3.org/1999/02/22-rdf-syntax-ns#">
   <cc:Work>
    <dc:type rdf:resource="http://purl.org/dc/dcmitype/StillImage"/>
    <dc:date>2025-08-20T19:59:15.436194</dc:date>
    <dc:format>image/svg+xml</dc:format>
    <dc:creator>
     <cc:Agent>
      <dc:title>Matplotlib v3.10.5, https://matplotlib.org/</dc:title>
     </cc:Agent>
    </dc:creator>
   </cc:Work>
  </rdf:RDF>
 </metadata>
 <defs>
  <style type="text/css">*{stroke-linejoin: round; stroke-linecap: butt}</style>
 </defs>
 <g id="figure_1">
  <g id="patch_1">
   <path d="M 0 432 
L 648 432 
L 648 0 
L 0 0 
z
" style="fill: #ffffff"/>
  </g>
  <g id="axes_1">
   <g id="patch_2">
    <path d="M 60.10625 390.84375 
L 627.65625 390.84375 
L 627.65625 25.918125 
L 60.10625 25.918125 
z
" style="fill: #ffffff"/>
   </g>
   <g id="matplotlib.axis_1">
    <g id="xtick_1">
     <g id="line2d_1">
      <path d="M 60.10625 390.84375 
L 60.10625 25.918125 
" clip-path="url(#p53fca3d53e)" style="fill: none; stroke: #b0b0b0; stroke-width: 0.8; stroke-linecap: square"/>
     </g>
     <g id="line2d_2">
      <defs>
       <path id="m28b0fcb4b8" d="M 0 0 
L 0 3.5 
" style="stroke: #000000; stroke-width: 0.8"/>
      </defs>
      <g>
       <use xlink:href="#m28b0fcb4b8" x="60.10625" y="390.84375" style="stroke: #000000; stroke-width: 0.8"/>
      </g>
     </g>
     <g id="text_1">
      <!-- 0 -->
      <g transform="translate(56.925 405.442187) scale(0.1 -0.1)">
       <defs>
        <path id="DejaVuSans-30" d="M 2034 4250 
Q 1547 4250 1301 3770 
Q 1056 3291 1056 2328 
Q 1056 1369 1301 889 
Q 1547 409 2034 409 
Q 2525 409 2770 889 
Q 3016 1369 3016 2328 
Q 3016 3291 2770 3770 
Q 2525 4250 2034 4250 
z
M 2034 4750 
Q 2819 4750 3233 4129 
Q 3647 3509 3647 2328 
Q 3647 1150 3233 529 
Q 2819 -91 2034 -91 
Q 1250 -91 836 529 
Q 422 1150 422 2328 
Q 422 3509 836 4129 
Q 1250 4750 2034 4750 
z
" transform="scale(0.015625)"/>
       </defs>
       <use xlink:href="#DejaVuSans-30"/>
      </g>
     </g>
    </g>
    <g id="xtick_2">
     <g id="line2d_3">
      <path d="M 173.61625 390.84375 
L 173.61625 25.918125 
" clip-path="url(#p53fca3d53e)" style="fill: none; stroke: #b0b0b0; stroke-width: 0.8; stroke-linecap: square"/>
     </g>
     <g id="line2d_4">
      <g>
       <use xlink:href="#m28b0fcb4b8" x="173.61625" y="390.84375" style="stroke: #000000; stroke-width: 0.8"/>
      </g>
     </g>
     <g id="text_2">
      <!-- 50 -->
      <g transform="translate(167.25375 405.442187) scale(0.1 -0.1)">
       <defs>
        <path id="DejaVuSans-35" d="M 691 4666 
L 3169 4666 
L 3169 4134 
L 1269 4134 
L 1269 2991 
Q 1406 3038 1543 3061 
Q 1681 3084 1819 3084 
Q 2600 3084 3056 2656 
Q 3513 2228 3513 1497 
Q 3513 744 3044 326 
Q 2575 -91 1722 -91 
Q 1428 -91 1123 -41 
Q 819 9 494 109 
L 494 744 
Q 775 591 1075 516 
Q 1375 441 1709 441 
Q 2250 441 2565 725 
Q 2881 1009 2881 1497 
Q 2881 1984 2565 2268 
Q 2250 2553 1709 2553 
Q 1456 2553 1204 2497 
Q 953 2441 691 2322 
L 691 4666 
z
" transform="scale(0.015625)"/>
       </defs>
       <use xlink:href="#DejaVuSans-35"/>
       <use xlink:href="#DejaVuSans-30" transform="translate(63.623047 0)"/>
      </g>
     </g>
    </g>
    <g id="xtick_3">
     <g id="line2d_5">
      <path d="M 287.12625 390.84375 
L 287.12625 25.918125 
" clip-path="url(#p53fca3d53e)" style="fill: none; stroke: #b0b0b0; stroke-width: 0.8; stroke-linecap: square"/>
     </g>
     <g id="line2d_6">
      <g>
       <use xlink:href="#m28b0fcb4b8" x="287.12625" y="390.84375" style="stroke: #000000; stroke-width: 0.8"/>
      </g>
     </g>
     <g id="text_3">
      <!-- 100 -->
      <g transform="translate(277.5825 405.442187) scale(0.1 -0.1)">
       <defs>
        <path id="DejaVuSans-31" d="M 794 531 
L 1825 531 
L 1825 4091 
L 703 3866 
L 703 4441 
L 1819 4666 
L 2450 4666 
L 2450 531 
L 3481 531 
L 3481 0 
L 794 0 
L 794 531 
z
" transform="scale(0.015625)"/>
       </defs>
       <use xlink:href="#DejaVuSans-31"/>
       <use xlink:href="#DejaVuSans-30" transform="translate(63.623047 0)"/>
       <use xlink:href="#DejaVuSans-30" transform="translate(127.246094 0)"/>
      </g>
     </g>
    </g>
    <g id="xtick_4">
     <g id="line2d_7">
      <path d="M 400.63625 390.84375 
L 400.63625 25.918125 
" clip-path="url(#p53fca3d53e)" style="fill: none; stroke: #b0b0b0; stroke-width: 0.8; stroke-linecap: square"/>
     </g>
     <g id="line2d_8">
      <g>
       <use xlink:href="#m28b0fcb4b8" x="400.63625" y="390.84375" style="stroke: #000000; stroke-width: 0.8"/>
      </g>
     </g>
     <g id="text_4">
      <!-- 150 -->
      <g transform="translate(391.0925 405.442187) scale(0.1 -0.1)">
       <use xlink:href="#DejaVuSans-31"/>
       <use xlink:href="#DejaVuSans-35" transform="translate(63.623047 0)"/>
       <use xlink:href="#DejaVuSans-30" transform="translate(127.246094 0)"/>
      </g>
     </g>
    </g>
    <g id="xtick_5">
     <g id="line2d_9">
      <path d="M 514.14625 390.84375 
L 514.14625 25.918125 
" clip-path="url(#p53fca3d53e)" style="fill: none; stroke: #b0b0b0; stroke-width: 0.8; stroke-linecap: square"/>
     </g>
     <g id="line2d_10">
      <g>
       <use xlink:href="#m28b0fcb4b8" x="514.14625" y="390.84375" style="stroke: #000000; stroke-width: 0.8"/>
      </g>
     </g>
     <g id="text_5">
      <!-- 200 -->
      <g transform="translate(504.6025 405.442187) scale(0.1 -0.1)">
       <defs>
        <path id="DejaVuSans-32" d="M 1228 531 
L 3431 531 
L 3431 0 
L 469 0 
L 469 531 
Q 828 903 1448 1529 
Q 2069 2156 2228 2338 
Q 2531 2678 2651 2914 
Q 2772 3150 2772 3378 
Q 2772 3750 2511 3984 
Q 2250 4219 1831 4219 
Q 1534 4219 1204 4116 
Q 875 4013 500 3803 
L 500 4441 
Q 881 4594 1212 4672 
Q 1544 4750 1819 4750 
Q 2544 4750 2975 4387 
Q 3406 4025 3406 3419 
Q 3406 3131 3298 2873 
Q 3191 2616 2906 2266 
Q 2828 2175 2409 1742 
Q 1991 1309 1228 531 
z
" transform="scale(0.015625)"/>
       </defs>
       <use xlink:href="#DejaVuSans-32"/>
       <use xlink:href="#DejaVuSans-30" transform="translate(63.623047 0)"/>
       <use xlink:href="#DejaVuSans-30" transform="translate(127.246094 0)"/>
      </g>
     </g>
    </g>
    <g id="xtick_6">
     <g id="line2d_11">
      <path d="M 627.65625 390.84375 
L 627.65625 25.918125 
" clip-path="url(#p53fca3d53e)" style="fill: none; stroke: #b0b0b0; stroke-width: 0.8; stroke-linecap: square"/>
     </g>
     <g id="line2d_12">
      <g>
       <use xlink:href="#m28b0fcb4b8" x="627.65625" y="390.84375" style="stroke: #000000; stroke-width: 0.8"/>
      </g>
     </g>
     <g id="text_6">
      <!-- 250 -->
      <g transform="translate(618.1125 405.442187) scale(0.1 -0.1)">
       <use xlink:href="#DejaVuSans-32"/>
       <use xlink:href="#DejaVuSans-35" transform="translate(63.623047 0)"/>
       <use xlink:href="#DejaVuSans-30" transform="translate(127.246094 0)"/>
      </g>
     </g>
    </g>
    <g id="text_7">
     <!-- Frequency -->
     <g transform="translate(318.051562 419.120313) scale(0.1 -0.1)">
      <defs>
       <path id="DejaVuSans-46" d="M 628 4666 
L 3309 4666 
L 3309 4134 
L 1259 4134 
L 1259 2759 
L 3109 2759 
L 3109 2228 
L 1259 2228 
L 1259 0 
L 628 0 
L 628 4666 
z
" transform="scale(0.015625)"/>
       <path id="DejaVuSans-72" d="M 2631 2963 
Q 2534 3019 2420 3045 
Q 2306 3072 2169 3072 
Q 1681 3072 1420 2755 
Q 1159 2438 1159 1844 
L 1159 0 
L 581 0 
L 581 3500 
L 1159 3500 
L 1159 2956 
Q 1341 3275 1631 3429 
Q 1922 3584 2338 3584 
Q 2397 3584 2469 3576 
Q 2541 3569 2628 3553 
L 2631 2963 
z
" transform="scale(0.015625)"/>
       <path id="DejaVuSans-65" d="M 3597 1894 
L 3597 1613 
L 953 1613 
Q 991 1019 1311 708 
Q 1631 397 2203 397 
Q 2534 397 2845 478 
Q 3156 559 3463 722 
L 3463 178 
Q 3153 47 2828 -22 
Q 2503 -91 2169 -91 
Q 1331 -91 842 396 
Q 353 884 353 1716 
Q 353 2575 817 3079 
Q 1281 3584 2069 3584 
Q 2775 3584 3186 3129 
Q 3597 2675 3597 1894 
z
M 3022 2063 
Q 3016 2534 2758 2815 
Q 2500 3097 2075 3097 
Q 1594 3097 1305 2825 
Q 1016 2553 972 2059 
L 3022 2063 
z
" transform="scale(0.015625)"/>
       <path id="DejaVuSans-71" d="M 947 1747 
Q 947 1113 1208 752 
Q 1469 391 1925 391 
Q 2381 391 2643 752 
Q 2906 1113 2906 1747 
Q 2906 2381 2643 2742 
Q 2381 3103 1925 3103 
Q 1469 3103 1208 2742 
Q 947 2381 947 1747 
z
M 2906 525 
Q 2725 213 2448 61 
Q 2172 -91 1784 -91 
Q 1150 -91 751 415 
Q 353 922 353 1747 
Q 353 2572 751 3078 
Q 1150 3584 1784 3584 
Q 2172 3584 2448 3432 
Q 2725 3281 2906 2969 
L 2906 3500 
L 3481 3500 
L 3481 -1331 
L 2906 -1331 
L 2906 525 
z
" transform="scale(0.015625)"/>
       <path id="DejaVuSans-75" d="M 544 1381 
L 544 3500 
L 1119 3500 
L 1119 1403 
Q 1119 906 1312 657 
Q 1506 409 1894 409 
Q 2359 409 2629 706 
Q 2900 1003 2900 1516 
L 2900 3500 
L 3475 3500 
L 3475 0 
L 2900 0 
L 2900 538 
Q 2691 219 2414 64 
Q 2138 -91 1772 -91 
Q 1169 -91 856 284 
Q 544 659 544 1381 
z
M 1991 3584 
L 1991 3584 
z
" transform="scale(0.015625)"/>
       <path id="DejaVuSans-6e" d="M 3513 2113 
L 3513 0 
L 2938 0 
L 2938 2094 
Q 2938 2591 2744 2837 
Q 2550 3084 2163 3084 
Q 1697 3084 1428 2787 
Q 1159 2491 1159 1978 
L 1159 0 
L 581 0 
L 581 3500 
L 1159 3500 
L 1159 2956 
Q 1366 3272 1645 3428 
Q 1925 3584 2291 3584 
Q 2894 3584 3203 3211 
Q 3513 2838 3513 2113 
z
" transform="scale(0.015625)"/>
       <path id="DejaVuSans-63" d="M 3122 3366 
L 3122 2828 
Q 2878 2963 2633 3030 
Q 2388 3097 2138 3097 
Q 1578 3097 1268 2742 
Q 959 2388 959 1747 
Q 959 1106 1268 751 
Q 1578 397 2138 397 
Q 2388 397 2633 464 
Q 2878 531 3122 666 
L 3122 134 
Q 2881 22 2623 -34 
Q 2366 -91 2075 -91 
Q 1284 -91 818 406 
Q 353 903 353 1747 
Q 353 2603 823 3093 
Q 1294 3584 2113 3584 
Q 2378 3584 2631 3529 
Q 2884 3475 3122 3366 
z
" transform="scale(0.015625)"/>
       <path id="DejaVuSans-79" d="M 2059 -325 
Q 1816 -950 1584 -1140 
Q 1353 -1331 966 -1331 
L 506 -1331 
L 506 -850 
L 844 -850 
Q 1081 -850 1212 -737 
Q 1344 -625 1503 -206 
L 1606 56 
L 191 3500 
L 800 3500 
L 1894 763 
L 2988 3500 
L 3597 3500 
L 2059 -325 
z
" transform="scale(0.015625)"/>
      </defs>
      <use xlink:href="#DejaVuSans-46"/>
      <use xlink:href="#DejaVuSans-72" transform="translate(50.269531 0)"/>
      <use xlink:href="#DejaVuSans-65" transform="translate(89.132812 0)"/>
      <use xlink:href="#DejaVuSans-71" transform="translate(150.65625 0)"/>
      <use xlink:href="#DejaVuSans-75" transform="translate(214.132812 0)"/>
      <use xlink:href="#DejaVuSans-65" transform="translate(277.511719 0)"/>
      <use xlink:href="#DejaVuSans-6e" transform="translate(339.035156 0)"/>
      <use xlink:href="#DejaVuSans-63" transform="translate(402.414062 0)"/>
      <use xlink:href="#DejaVuSans-79" transform="translate(457.394531 0)"/>
     </g>
    </g>
   </g>
   <g id="matplotlib.axis_2">
    <g id="ytick_1">
     <g id="line2d_13">
      <path d="M 60.10625 374.261667 
L 627.65625 374.261667 
" clip-path="url(#p53fca3d53e)" style="fill: none; stroke: #b0b0b0; stroke-width: 0.8; stroke-linecap: square"/>
     </g>
     <g id="line2d_14">
      <defs>
       <path id="mcece097ca9" d="M 0 0 
L -3.5 0 
" style="stroke: #000000; stroke-width: 0.8"/>
      </defs>
      <g>
       <use xlink:href="#mcece097ca9" x="60.10625" y="374.261667" style="stroke: #000000; stroke-width: 0.8"/>
      </g>
     </g>
     <g id="text_8">
      <!-- 0.000 -->
      <g transform="translate(24.478125 378.060886) scale(0.1 -0.1)">
       <defs>
        <path id="DejaVuSans-2e" d="M 684 794 
L 1344 794 
L 1344 0 
L 684 0 
L 684 794 
z
" transform="scale(0.015625)"/>
       </defs>
       <use xlink:href="#DejaVuSans-30"/>
       <use xlink:href="#DejaVuSans-2e" transform="translate(63.623047 0)"/>
       <use xlink:href="#DejaVuSans-30" transform="translate(95.410156 0)"/>
       <use xlink:href="#DejaVuSans-30" transform="translate(159.033203 0)"/>
       <use xlink:href="#DejaVuSans-30" transform="translate(222.65625 0)"/>
      </g>
     </g>
    </g>
    <g id="ytick_2">
     <g id="line2d_15">
      <path d="M 60.10625 315.247378 
L 627.65625 315.247378 
" clip-path="url(#p53fca3d53e)" style="fill: none; stroke: #b0b0b0; stroke-width: 0.8; stroke-linecap: square"/>
     </g>
     <g id="line2d_16">
      <g>
       <use xlink:href="#mcece097ca9" x="60.10625" y="315.247378" style="stroke: #000000; stroke-width: 0.8"/>
      </g>
     </g>
     <g id="text_9">
      <!-- 0.005 -->
      <g transform="translate(24.478125 319.046597) scale(0.1 -0.1)">
       <use xlink:href="#DejaVuSans-30"/>
       <use xlink:href="#DejaVuSans-2e" transform="translate(63.623047 0)"/>
       <use xlink:href="#DejaVuSans-30" transform="translate(95.410156 0)"/>
       <use xlink:href="#DejaVuSans-30" transform="translate(159.033203 0)"/>
       <use xlink:href="#DejaVuSans-35" transform="translate(222.65625 0)"/>
      </g>
     </g>
    </g>
    <g id="ytick_3">
     <g id="line2d_17">
      <path d="M 60.10625 256.233089 
L 627.65625 256.233089 
" clip-path="url(#p53fca3d53e)" style="fill: none; stroke: #b0b0b0; stroke-width: 0.8; stroke-linecap: square"/>
     </g>
     <g id="line2d_18">
      <g>
       <use xlink:href="#mcece097ca9" x="60.10625" y="256.233089" style="stroke: #000000; stroke-width: 0.8"/>
      </g>
     </g>
     <g id="text_10">
      <!-- 0.010 -->
      <g transform="translate(24.478125 260.032308) scale(0.1 -0.1)">
       <use xlink:href="#DejaVuSans-30"/>
       <use xlink:href="#DejaVuSans-2e" transform="translate(63.623047 0)"/>
       <use xlink:href="#DejaVuSans-30" transform="translate(95.410156 0)"/>
       <use xlink:href="#DejaVuSans-31" transform="translate(159.033203 0)"/>
       <use xlink:href="#DejaVuSans-30" transform="translate(222.65625 0)"/>
      </g>
     </g>
    </g>
    <g id="ytick_4">
     <g id="line2d_19">
      <path d="M 60.10625 197.218801 
L 627.65625 197.218801 
" clip-path="url(#p53fca3d53e)" style="fill: none; stroke: #b0b0b0; stroke-width: 0.8; stroke-linecap: square"/>
     </g>
     <g id="line2d_20">
      <g>
       <use xlink:href="#mcece097ca9" x="60.10625" y="197.218801" style="stroke: #000000; stroke-width: 0.8"/>
      </g>
     </g>
     <g id="text_11">
      <!-- 0.015 -->
      <g transform="translate(24.478125 201.018019) scale(0.1 -0.1)">
       <use xlink:href="#DejaVuSans-30"/>
       <use xlink:href="#DejaVuSans-2e" transform="translate(63.623047 0)"/>
       <use xlink:href="#DejaVuSans-30" transform="translate(95.410156 0)"/>
       <use xlink:href="#DejaVuSans-31" transform="translate(159.033203 0)"/>
       <use xlink:href="#DejaVuSans-35" transform="translate(222.65625 0)"/>
      </g>
     </g>
    </g>
    <g id="ytick_5">
     <g id="line2d_21">
      <path d="M 60.10625 138.204512 
L 627.65625 138.204512 
" clip-path="url(#p53fca3d53e)" style="fill: none; stroke: #b0b0b0; stroke-width: 0.8; stroke-linecap: square"/>
     </g>
     <g id="line2d_22">
      <g>
       <use xlink:href="#mcece097ca9" x="60.10625" y="138.204512" style="stroke: #000000; stroke-width: 0.8"/>
      </g>
     </g>
     <g id="text_12">
      <!-- 0.020 -->
      <g transform="translate(24.478125 142.003731) scale(0.1 -0.1)">
       <use xlink:href="#DejaVuSans-30"/>
       <use xlink:href="#DejaVuSans-2e" transform="translate(63.623047 0)"/>
       <use xlink:href="#DejaVuSans-30" transform="translate(95.410156 0)"/>
       <use xlink:href="#DejaVuSans-32" transform="translate(159.033203 0)"/>
       <use xlink:href="#DejaVuSans-30" transform="translate(222.65625 0)"/>
      </g>
     </g>
    </g>
    <g id="ytick_6">
     <g id="line2d_23">
      <path d="M 60.10625 79.190223 
L 627.65625 79.190223 
" clip-path="url(#p53fca3d53e)" style="fill: none; stroke: #b0b0b0; stroke-width: 0.8; stroke-linecap: square"/>
     </g>
     <g id="line2d_24">
      <g>
       <use xlink:href="#mcece097ca9" x="60.10625" y="79.190223" style="stroke: #000000; stroke-width: 0.8"/>
      </g>
     </g>
     <g id="text_13">
      <!-- 0.025 -->
      <g transform="translate(24.478125 82.989442) scale(0.1 -0.1)">
       <use xlink:href="#DejaVuSans-30"/>
       <use xlink:href="#DejaVuSans-2e" transform="translate(63.623047 0)"/>
       <use xlink:href="#DejaVuSans-30" transform="translate(95.410156 0)"/>
       <use xlink:href="#DejaVuSans-32" transform="translate(159.033203 0)"/>
       <use xlink:href="#DejaVuSans-35" transform="translate(222.65625 0)"/>
      </g>
     </g>
    </g>
    <g id="text_14">
     <!-- Magnitude (energy) -->
     <g transform="translate(18.398438 257.784844) rotate(-90) scale(0.1 -0.1)">
      <defs>
       <path id="DejaVuSans-4d" d="M 628 4666 
L 1569 4666 
L 2759 1491 
L 3956 4666 
L 4897 4666 
L 4897 0 
L 4281 0 
L 4281 4097 
L 3078 897 
L 2444 897 
L 1241 4097 
L 1241 0 
L 628 0 
L 628 4666 
z
" transform="scale(0.015625)"/>
       <path id="DejaVuSans-61" d="M 2194 1759 
Q 1497 1759 1228 1600 
Q 959 1441 959 1056 
Q 959 750 1161 570 
Q 1363 391 1709 391 
Q 2188 391 2477 730 
Q 2766 1069 2766 1631 
L 2766 1759 
L 2194 1759 
z
M 3341 1997 
L 3341 0 
L 2766 0 
L 2766 531 
Q 2569 213 2275 61 
Q 1981 -91 1556 -91 
Q 1019 -91 701 211 
Q 384 513 384 1019 
Q 384 1609 779 1909 
Q 1175 2209 1959 2209 
L 2766 2209 
L 2766 2266 
Q 2766 2663 2505 2880 
Q 2244 3097 1772 3097 
Q 1472 3097 1187 3025 
Q 903 2953 641 2809 
L 641 3341 
Q 956 3463 1253 3523 
Q 1550 3584 1831 3584 
Q 2591 3584 2966 3190 
Q 3341 2797 3341 1997 
z
" transform="scale(0.015625)"/>
       <path id="DejaVuSans-67" d="M 2906 1791 
Q 2906 2416 2648 2759 
Q 2391 3103 1925 3103 
Q 1463 3103 1205 2759 
Q 947 2416 947 1791 
Q 947 1169 1205 825 
Q 1463 481 1925 481 
Q 2391 481 2648 825 
Q 2906 1169 2906 1791 
z
M 3481 434 
Q 3481 -459 3084 -895 
Q 2688 -1331 1869 -1331 
Q 1566 -1331 1297 -1286 
Q 1028 -1241 775 -1147 
L 775 -588 
Q 1028 -725 1275 -790 
Q 1522 -856 1778 -856 
Q 2344 -856 2625 -561 
Q 2906 -266 2906 331 
L 2906 616 
Q 2728 306 2450 153 
Q 2172 0 1784 0 
Q 1141 0 747 490 
Q 353 981 353 1791 
Q 353 2603 747 3093 
Q 1141 3584 1784 3584 
Q 2172 3584 2450 3431 
Q 2728 3278 2906 2969 
L 2906 3500 
L 3481 3500 
L 3481 434 
z
" transform="scale(0.015625)"/>
       <path id="DejaVuSans-69" d="M 603 3500 
L 1178 3500 
L 1178 0 
L 603 0 
L 603 3500 
z
M 603 4863 
L 1178 4863 
L 1178 4134 
L 603 4134 
L 603 4863 
z
" transform="scale(0.015625)"/>
       <path id="DejaVuSans-74" d="M 1172 4494 
L 1172 3500 
L 2356 3500 
L 2356 3053 
L 1172 3053 
L 1172 1153 
Q 1172 725 1289 603 
Q 1406 481 1766 481 
L 2356 481 
L 2356 0 
L 1766 0 
Q 1100 0 847 248 
Q 594 497 594 1153 
L 594 3053 
L 172 3053 
L 172 3500 
L 594 3500 
L 594 4494 
L 1172 4494 
z
" transform="scale(0.015625)"/>
       <path id="DejaVuSans-64" d="M 2906 2969 
L 2906 4863 
L 3481 4863 
L 3481 0 
L 2906 0 
L 2906 525 
Q 2725 213 2448 61 
Q 2172 -91 1784 -91 
Q 1150 -91 751 415 
Q 353 922 353 1747 
Q 353 2572 751 3078 
Q 1150 3584 1784 3584 
Q 2172 3584 2448 3432 
Q 2725 3281 2906 2969 
z
M 947 1747 
Q 947 1113 1208 752 
Q 1469 391 1925 391 
Q 2381 391 2643 752 
Q 2906 1113 2906 1747 
Q 2906 2381 2643 2742 
Q 2381 3103 1925 3103 
Q 1469 3103 1208 2742 
Q 947 2381 947 1747 
z
" transform="scale(0.015625)"/>
       <path id="DejaVuSans-20" transform="scale(0.015625)"/>
       <path id="DejaVuSans-28" d="M 1984 4856 
Q 1566 4138 1362 3434 
Q 1159 2731 1159 2009 
Q 1159 1288 1364 580 
Q 1569 -128 1984 -844 
L 1484 -844 
Q 1016 -109 783 600 
Q 550 1309 550 2009 
Q 550 2706 781 3412 
Q 1013 4119 1484 4856 
L 1984 4856 
z
" transform="scale(0.015625)"/>
       <path id="DejaVuSans-29" d="M 513 4856 
L 1013 4856 
Q 1481 4119 1714 3412 
Q 1947 2706 1947 2009 
Q 1947 1309 1714 600 
Q 1481 -109 1013 -844 
L 513 -844 
Q 928 -128 1133 580 
Q 1338 1288 1338 2009 
Q 1338 2731 1133 3434 
Q 928 4138 513 4856 
z
" transform="scale(0.015625)"/>
      </defs>
      <use xlink:href="#DejaVuSans-4d"/>
      <use xlink:href="#DejaVuSans-61" transform="translate(86.279297 0)"/>
      <use xlink:href="#DejaVuSans-67" transform="translate(147.558594 0)"/>
      <use xlink:href="#DejaVuSans-6e" transform="translate(211.035156 0)"/>
      <use xlink:href="#DejaVuSans-69" transform="translate(274.414062 0)"/>
      <use xlink:href="#DejaVuSans-74" transform="translate(302.197266 0)"/>
      <use xlink:href="#DejaVuSans-75" transform="translate(341.40625 0)"/>
      <use xlink:href="#DejaVuSans-64" transform="translate(404.785156 0)"/>
      <use xlink:href="#DejaVuSans-65" transform="translate(468.261719 0)"/>
      <use xlink:href="#DejaVuSans-20" transform="translate(529.785156 0)"/>
      <use xlink:href="#DejaVuSans-28" transform="translate(561.572266 0)"/>
      <use xlink:href="#DejaVuSans-65" transform="translate(600.585938 0)"/>
      <use xlink:href="#DejaVuSans-6e" transform="translate(662.109375 0)"/>
      <use xlink:href="#DejaVuSans-65" transform="translate(725.488281 0)"/>
      <use xlink:href="#DejaVuSans-72" transform="translate(787.011719 0)"/>
      <use xlink:href="#DejaVuSans-67" transform="translate(826.375 0)"/>
      <use xlink:href="#DejaVuSans-79" transform="translate(889.851562 0)"/>
      <use xlink:href="#DejaVuSans-29" transform="translate(949.03125 0)"/>
     </g>
    </g>
   </g>
   <g id="line2d_25">
    <path d="M 60.10625 358.999283 
L 60.33327 285.147147 
L 60.78731 337.546637 
L 61.01433 328.088042 
L 61.24135 301.182133 
L 61.46837 317.245691 
L 61.69539 347.217944 
L 61.92241 351.879833 
L 62.14943 319.631405 
L 62.37645 121.966802 
L 62.60347 73.477553 
L 62.83049 285.615698 
L 63.05751 349.639663 
L 63.28453 340.245993 
L 63.51155 343.065971 
L 63.73857 356.787344 
L 63.96559 354.940431 
L 64.19261 348.33879 
L 64.41963 364.049428 
L 64.64665 321.166777 
L 64.87367 200.82618 
L 65.10069 226.481246 
L 65.32771 332.048053 
L 65.55473 353.299864 
L 65.78175 354.825143 
L 66.00877 352.033221 
L 66.23579 351.154957 
L 66.46281 344.541887 
L 66.68983 326.036374 
L 66.91685 327.596185 
L 67.14387 240.250361 
L 67.37089 42.505653 
L 68.05195 356.090089 
L 68.27897 356.54327 
L 68.50599 363.821705 
L 68.73301 355.211121 
L 68.96003 341.514284 
L 69.18705 306.308481 
L 69.41407 292.559519 
L 69.64109 245.476324 
L 69.86811 155.997253 
L 70.32215 342.587289 
L 70.54917 365.374675 
L 70.77619 357.490123 
L 71.00321 359.773704 
L 71.45725 373.187061 
L 71.68427 363.930022 
L 71.91129 359.849422 
L 72.13831 312.477189 
L 72.36533 297.179682 
L 72.81937 361.989209 
L 73.27341 341.558069 
L 73.50043 346.186183 
L 73.72745 339.670209 
L 74.18149 275.668917 
L 74.40851 336.264678 
L 74.63553 177.589273 
L 74.86255 174.026828 
L 75.31659 340.846962 
L 75.54361 338.662024 
L 75.77063 342.532829 
L 75.99765 328.331442 
L 76.22467 297.509455 
L 76.45169 296.798885 
L 76.67871 292.464755 
L 76.90573 305.949283 
L 77.13275 178.479893 
L 77.35977 211.683737 
L 77.58679 300.280879 
L 77.81381 343.57958 
L 78.04083 361.856185 
L 78.26785 365.74608 
L 78.49487 352.117095 
L 78.72189 315.596635 
L 78.94891 297.187942 
L 79.17593 320.268866 
L 79.40295 301.309789 
L 79.62997 219.08981 
L 79.85699 252.033752 
L 80.08401 316.660506 
L 80.53805 344.92177 
L 80.76507 344.934809 
L 81.21911 306.440871 
L 81.44613 297.944793 
L 81.67315 369.480092 
L 81.90017 247.085035 
L 82.12719 211.847693 
L 82.58123 318.771214 
L 82.80825 336.208305 
L 83.03527 344.48098 
L 83.26229 318.828726 
L 83.71633 304.287182 
L 83.94335 311.208753 
L 84.17037 362.785578 
L 84.39739 273.723424 
L 84.62441 261.655777 
L 85.07845 343.973321 
L 85.30547 361.232636 
L 85.53249 355.431702 
L 85.75951 335.3524 
L 86.21355 328.576746 
L 86.44057 327.965563 
L 86.66759 351.315736 
L 86.89461 277.560621 
L 87.12163 279.923264 
L 87.34865 321.534821 
L 87.57567 340.367002 
L 87.80269 341.349553 
L 88.02971 331.948679 
L 88.25673 307.982827 
L 88.48375 319.12911 
L 88.93779 345.39187 
L 89.16481 318.013179 
L 89.39183 263.712751 
L 89.61885 273.507719 
L 90.07289 347.210687 
L 90.29991 340.164866 
L 90.52693 316.471271 
L 90.75395 313.613668 
L 90.98097 318.163797 
L 91.20799 317.86015 
L 91.43501 338.125784 
L 91.88905 282.871747 
L 92.11607 297.091525 
L 92.34309 330.737328 
L 92.57011 333.409282 
L 92.79713 314.828655 
L 93.02415 327.812622 
L 93.25117 329.674888 
L 93.47819 336.651796 
L 93.70521 326.804769 
L 93.93223 344.480185 
L 94.15925 300.52167 
L 94.38627 280.579867 
L 94.84031 324.749182 
L 95.06733 300.183289 
L 95.29435 291.0214 
L 95.97541 341.843103 
L 96.20243 333.210809 
L 96.42945 337.075168 
L 96.65647 291.380212 
L 96.88349 274.401437 
L 97.33753 329.53362 
L 97.56455 315.034172 
L 97.79157 316.278658 
L 98.01859 318.457379 
L 98.24561 332.958179 
L 98.47263 331.49921 
L 98.69965 336.4455 
L 98.92667 328.541526 
L 99.38071 288.707135 
L 99.60773 319.605155 
L 99.83475 312.679344 
L 100.06177 312.118453 
L 100.28879 319.739739 
L 100.74283 347.332299 
L 100.96985 343.396273 
L 101.19687 335.602814 
L 101.42389 332.554085 
L 101.65091 296.871732 
L 101.87793 300.465309 
L 102.10495 328.42634 
L 102.33197 308.171827 
L 102.55899 308.32988 
L 102.78601 329.867883 
L 103.01303 334.86684 
L 103.24005 344.093308 
L 103.46707 344.583056 
L 103.69409 330.217406 
L 103.92111 328.99375 
L 104.14813 293.7353 
L 104.37515 316.742226 
L 104.60217 313.175386 
L 104.82919 294.178255 
L 105.51025 344.523284 
L 105.73727 353.608564 
L 105.96429 347.166821 
L 106.41833 322.503697 
L 106.64535 312.823682 
L 106.87237 331.819151 
L 107.32641 300.953713 
L 107.55343 313.777748 
L 108.00747 354.249844 
L 108.23449 362.091707 
L 108.46151 344.424342 
L 108.68853 337.089386 
L 108.91555 321.586541 
L 109.14257 328.669923 
L 109.36959 327.154427 
L 109.59661 308.647625 
L 110.05065 331.120957 
L 110.73171 368.335791 
L 111.41277 312.170636 
L 111.63979 335.102804 
L 112.09383 320.034994 
L 112.32085 319.020607 
L 112.54787 328.902133 
L 113.00191 360.509058 
L 113.22893 361.786313 
L 113.68297 328.388138 
L 113.90999 324.367298 
L 114.13701 334.391853 
L 114.36403 318.36452 
L 114.59105 313.968699 
L 115.27211 366.671848 
L 115.49913 362.851354 
L 115.72615 366.054731 
L 115.95317 354.792097 
L 116.18019 319.1505 
L 116.40721 340.192088 
L 116.63423 329.113491 
L 116.86125 311.350557 
L 117.08827 320.370945 
L 117.76933 363.682559 
L 117.99635 364.735902 
L 118.22337 358.211543 
L 118.45039 346.940143 
L 118.67741 329.377316 
L 118.90443 364.192558 
L 119.13145 333.447023 
L 119.35847 319.389702 
L 119.58549 326.187757 
L 120.03953 354.514813 
L 120.26655 353.016275 
L 120.49357 365.544116 
L 120.72059 361.787369 
L 120.94761 332.930219 
L 121.17463 332.286292 
L 121.40165 350.893024 
L 121.62867 319.732772 
L 121.85569 319.118335 
L 122.30973 360.360886 
L 122.53675 353.842888 
L 122.76377 355.304668 
L 122.99079 371.726552 
L 123.21781 363.074383 
L 123.44483 328.60427 
L 123.67185 345.418491 
L 123.89887 352.852664 
L 124.12589 333.681229 
L 124.35291 331.101008 
L 124.80695 363.145675 
L 125.03397 365.673471 
L 125.26099 369.918823 
L 125.71503 352.345215 
L 125.94205 329.121585 
L 126.16907 365.942418 
L 126.62311 326.137143 
L 126.85013 330.869422 
L 127.30417 357.018875 
L 127.53119 368.079832 
L 127.98523 363.12027 
L 128.21225 347.923181 
L 128.43927 343.78559 
L 128.66629 361.0446 
L 128.89331 346.626436 
L 129.12033 342.883023 
L 129.34735 346.861674 
L 129.57437 355.876215 
L 129.80139 355.525301 
L 130.02841 361.21542 
L 130.25543 360.886491 
L 130.48245 369.433877 
L 130.70947 340.349371 
L 130.93649 347.013921 
L 131.16351 363.064037 
L 131.61755 339.028639 
L 132.07159 353.175969 
L 132.29861 354.294313 
L 132.52563 364.286339 
L 132.75265 356.900391 
L 132.97967 369.153553 
L 133.20669 337.727065 
L 133.66073 360.953312 
L 133.88775 350.762201 
L 134.34179 361.58862 
L 134.56881 362.785656 
L 134.79583 369.179502 
L 135.24987 355.769859 
L 135.47689 358.523009 
L 135.70391 336.354013 
L 135.93093 356.576412 
L 136.15795 362.41351 
L 136.38497 356.452823 
L 136.61199 357.256206 
L 136.83901 352.631241 
L 137.06603 352.737116 
L 137.29305 361.122101 
L 137.52007 356.630149 
L 137.74709 362.382712 
L 138.20113 349.408986 
L 138.42815 370.070804 
L 138.88219 349.534156 
L 139.10921 349.53567 
L 139.56325 359.720721 
L 139.79027 359.49008 
L 140.01729 352.666796 
L 140.24431 364.569999 
L 140.47133 356.006947 
L 140.92537 362.226826 
L 141.15239 355.566466 
L 141.37941 357.502714 
L 141.60643 354.854983 
L 141.83345 356.453743 
L 142.06047 367.707189 
L 142.28749 365.032831 
L 142.51451 359.311681 
L 142.74153 370.107498 
L 142.96855 357.026086 
L 143.19557 369.75391 
L 143.42259 359.222868 
L 143.64961 354.911932 
L 143.87663 354.936909 
L 144.10365 353.732324 
L 144.33067 353.867507 
L 144.55769 359.522746 
L 144.78471 354.894328 
L 145.01173 360.088639 
L 145.23875 359.130271 
L 145.46577 349.513292 
L 145.69279 369.186017 
L 146.14683 354.132948 
L 146.37385 350.73325 
L 147.05491 364.818621 
L 147.28193 361.231788 
L 147.50895 366.082671 
L 147.96299 350.284698 
L 148.19001 369.674676 
L 148.41703 365.491082 
L 148.87107 351.281448 
L 149.32511 367.203659 
L 149.55213 362.30573 
L 149.77915 354.654446 
L 150.00617 368.02119 
L 150.23319 358.043048 
L 150.91425 367.895241 
L 151.36829 362.703824 
L 151.82233 373.492824 
L 152.04935 368.972299 
L 152.27637 360.517913 
L 152.50339 368.872118 
L 152.73041 358.599317 
L 153.18445 367.981109 
L 153.41147 368.920476 
L 153.63849 364.291453 
L 153.86551 363.127046 
L 154.09253 367.094288 
L 154.31955 363.796917 
L 154.54657 357.625456 
L 154.77359 363.427222 
L 155.00061 365.079191 
L 155.22763 361.337861 
L 155.68167 368.865855 
L 155.90869 369.661692 
L 156.13571 367.163617 
L 156.36273 369.544828 
L 156.58975 365.662851 
L 157.04379 352.546297 
L 157.27081 363.35327 
L 157.49783 362.969347 
L 157.72485 362.361933 
L 157.95187 360.299896 
L 158.17889 367.879913 
L 158.40591 368.93584 
L 158.63293 366.386758 
L 158.85995 368.587922 
L 159.08697 367.665602 
L 159.54101 357.359965 
L 159.76803 369.120652 
L 159.99505 361.084464 
L 160.22207 364.108121 
L 160.67611 373.805754 
L 161.13015 365.538751 
L 161.35717 368.879913 
L 161.58419 369.508324 
L 161.81121 360.303056 
L 162.03823 357.397328 
L 162.26525 372.044139 
L 162.49227 366.535164 
L 162.71929 366.176537 
L 162.94631 366.144048 
L 163.40035 361.488195 
L 163.62737 365.534163 
L 163.85439 365.403947 
L 164.30843 354.212139 
L 164.53545 356.697964 
L 164.76247 368.644948 
L 164.98949 364.02903 
L 165.21651 363.238399 
L 165.44353 370.755855 
L 165.89757 373.674175 
L 166.12459 372.931823 
L 166.80565 361.27285 
L 167.03267 368.86582 
L 167.48671 365.546195 
L 167.71373 370.06601 
L 167.94075 370.06604 
L 168.16777 370.186075 
L 168.39479 371.510291 
L 168.62181 371.569509 
L 169.07585 364.476019 
L 169.30287 360.905443 
L 169.75691 371.447073 
L 169.98393 365.953275 
L 170.21095 368.16871 
L 170.43797 369.162053 
L 170.89201 373.751407 
L 171.11903 372.836991 
L 171.57307 361.605645 
L 171.80009 359.662845 
L 172.02711 371.153396 
L 172.25413 367.023807 
L 172.48115 364.985991 
L 172.93519 372.587846 
L 173.16221 369.455675 
L 173.38923 363.691036 
L 173.61625 370.352376 
L 174.07029 357.627554 
L 174.29731 360.641556 
L 174.52433 370.821707 
L 174.97837 364.330387 
L 175.43241 366.893732 
L 175.65943 364.582137 
L 176.11347 370.558867 
L 176.56751 361.942237 
L 177.02155 370.110526 
L 177.24857 368.267303 
L 177.47559 371.594756 
L 177.70261 370.252776 
L 177.92963 367.334583 
L 178.15665 368.102074 
L 178.38367 367.043945 
L 178.61069 366.962012 
L 178.83771 364.609166 
L 179.06473 364.032177 
L 179.29175 372.186779 
L 179.51877 370.74627 
L 179.74579 368.109703 
L 179.97281 369.428348 
L 180.19983 368.39999 
L 180.42685 369.914293 
L 180.65387 370.675793 
L 180.88089 373.739594 
L 181.33493 365.191712 
L 181.56195 364.424527 
L 181.78897 367.776477 
L 182.01599 366.332137 
L 182.24301 364.164276 
L 182.69705 371.102676 
L 182.92407 370.153599 
L 183.15109 367.497769 
L 183.37811 371.029491 
L 184.05917 361.903445 
L 184.28619 362.238477 
L 184.74023 367.465448 
L 184.96725 366.122047 
L 185.42129 372.771681 
L 185.87533 370.497883 
L 186.10235 370.888483 
L 186.32937 369.973224 
L 186.55639 369.859279 
L 187.01043 366.372675 
L 187.23745 368.370501 
L 187.46447 369.079167 
L 187.69149 371.700717 
L 187.91851 370.04311 
L 188.14553 366.041807 
L 188.37255 367.192413 
L 188.59957 370.609494 
L 188.82659 370.22887 
L 189.05361 370.744134 
L 189.28063 369.196042 
L 189.50765 372.183932 
L 189.96169 364.902603 
L 190.18871 365.371782 
L 190.41573 370.912165 
L 190.64275 373.279186 
L 191.09679 370.757772 
L 191.32381 372.361488 
L 191.77785 373.467024 
L 192.23189 373.452629 
L 192.45891 371.922113 
L 192.68593 372.665274 
L 192.91295 372.502309 
L 193.13997 371.790312 
L 193.36699 368.385753 
L 193.59401 371.031294 
L 193.82103 371.70391 
L 194.27507 370.425943 
L 194.50209 371.682266 
L 194.72911 369.280398 
L 194.95613 370.41924 
L 195.41017 367.499867 
L 195.63719 366.429166 
L 195.86421 366.365504 
L 196.09123 370.090074 
L 196.31825 369.548397 
L 196.54527 370.155634 
L 196.77229 372.108933 
L 196.99931 368.206642 
L 197.45335 373.738973 
L 197.68037 372.573831 
L 197.90739 367.711673 
L 198.13441 367.597947 
L 198.36143 372.450922 
L 198.81547 368.641508 
L 199.04249 369.819335 
L 199.26951 372.44778 
L 199.72355 366.66056 
L 199.95057 365.627929 
L 200.40461 369.007402 
L 200.85865 372.308627 
L 201.08567 371.029634 
L 201.31269 368.286149 
L 201.53971 367.789987 
L 201.76673 372.921097 
L 202.22077 365.567346 
L 202.44779 364.11989 
L 202.90183 372.281007 
L 203.12885 372.794236 
L 203.35587 373.748377 
L 203.58289 372.855124 
L 203.80991 371.215216 
L 204.03693 367.737384 
L 204.26395 367.505852 
L 204.71799 370.822115 
L 205.17203 371.415344 
L 205.39905 372.554919 
L 205.62607 372.545794 
L 205.85309 372.191833 
L 206.30713 367.786704 
L 206.53415 369.925017 
L 206.76117 370.124666 
L 206.98819 370.758417 
L 207.21521 373.241504 
L 207.44223 372.874623 
L 207.66925 373.360718 
L 207.89627 371.692321 
L 208.12329 371.739904 
L 208.35031 372.534274 
L 208.80435 370.162676 
L 209.03137 371.731951 
L 209.25839 371.504696 
L 209.48541 370.736005 
L 209.71243 370.870976 
L 209.93945 372.224617 
L 210.16647 370.52926 
L 210.39349 370.618029 
L 210.62051 372.129893 
L 210.84753 370.865237 
L 211.07455 370.985313 
L 211.30157 371.472474 
L 211.52859 372.527232 
L 211.75561 372.246864 
L 211.98263 368.427319 
L 212.20965 367.532372 
L 212.66369 372.354701 
L 212.89071 372.378125 
L 213.11773 372.738352 
L 213.34475 370.302504 
L 213.57177 370.334943 
L 213.79879 373.00631 
L 214.02581 371.041184 
L 214.25283 371.18638 
L 214.70687 373.234796 
L 215.16091 369.699091 
L 215.61495 372.018811 
L 215.84197 372.102722 
L 216.06899 373.340328 
L 216.29601 372.448442 
L 216.52303 370.95434 
L 216.97707 372.684893 
L 217.43111 369.009712 
L 217.65813 369.230683 
L 217.88515 371.036023 
L 218.11217 369.502999 
L 218.33919 370.091029 
L 218.56621 372.200927 
L 218.79323 371.026201 
L 219.24727 372.126168 
L 219.47429 371.299306 
L 219.70131 371.620757 
L 220.15535 369.400097 
L 220.60939 373.156685 
L 220.83641 372.61879 
L 221.06343 368.727098 
L 221.29045 368.426467 
L 221.51747 370.884973 
L 221.74449 371.468528 
L 221.97151 370.761537 
L 222.19853 368.994141 
L 222.42555 368.354066 
L 222.65257 371.352194 
L 222.87959 372.069694 
L 223.33363 370.499069 
L 223.56065 372.704454 
L 223.78767 372.709646 
L 224.46873 368.875452 
L 224.69575 372.022772 
L 224.92277 372.588976 
L 225.14979 372.31187 
L 225.37681 370.623602 
L 225.60383 372.612551 
L 225.83085 373.250114 
L 226.05787 371.877697 
L 226.28489 372.122561 
L 226.51191 369.914967 
L 226.73893 369.933991 
L 227.19297 371.905145 
L 227.41999 370.105002 
L 227.64701 369.62859 
L 228.10105 370.976274 
L 228.32807 370.802305 
L 228.55509 372.488198 
L 228.78211 373.335835 
L 229.23615 368.437481 
L 229.69019 371.918038 
L 229.91721 371.590444 
L 230.14423 372.69256 
L 230.37125 371.401012 
L 230.82529 373.739685 
L 231.27933 371.101276 
L 231.50635 370.237262 
L 231.73337 369.939777 
L 231.96039 370.423656 
L 232.18741 370.614798 
L 232.41443 373.082707 
L 232.64145 373.330915 
L 233.09549 370.679394 
L 233.32251 373.496156 
L 233.54953 372.576789 
L 233.77655 372.546966 
L 234.23059 370.726251 
L 234.45761 372.857199 
L 234.68463 373.216158 
L 235.13867 371.042669 
L 235.36569 372.334374 
L 236.04675 372.608248 
L 236.27377 372.234198 
L 236.50079 369.864186 
L 236.72781 373.911553 
L 236.95483 367.114585 
L 237.18185 368.011704 
L 237.40887 373.622095 
L 237.63589 370.391699 
L 237.86291 369.888742 
L 238.08993 370.29071 
L 238.31695 369.908839 
L 238.77099 366.677461 
L 238.99801 368.699659 
L 239.22503 372.347169 
L 239.45205 372.038023 
L 239.67907 371.091111 
L 239.90609 372.580465 
L 240.13311 372.13562 
L 240.36013 373.581948 
L 240.58715 373.063019 
L 240.81417 372.932747 
L 241.04119 371.238909 
L 241.26821 368.650321 
L 241.72225 371.382085 
L 241.94927 371.372914 
L 242.17629 371.721168 
L 242.40331 372.681115 
L 242.85735 367.118973 
L 243.31139 371.110754 
L 243.53841 372.854658 
L 243.76543 373.105373 
L 243.99245 372.503183 
L 244.21947 370.953753 
L 244.67351 372.411193 
L 244.90053 370.658947 
L 245.12755 371.835669 
L 245.35457 371.347738 
L 245.58159 374.046915 
L 245.80861 371.376095 
L 246.03563 371.230167 
L 246.26265 372.804662 
L 246.48967 372.053831 
L 246.71669 368.766179 
L 246.94371 370.76973 
L 247.17073 373.852267 
L 247.62477 372.277088 
L 247.85179 370.922157 
L 248.30583 373.749929 
L 248.53285 373.118397 
L 248.75987 372.125797 
L 248.98689 372.958582 
L 249.21391 371.936419 
L 249.44093 371.489172 
L 249.66795 370.6689 
L 249.89497 368.65926 
L 250.12199 369.073244 
L 250.57603 371.548763 
L 250.80305 373.857732 
L 251.03007 371.108328 
L 251.25709 370.254105 
L 251.48411 372.386558 
L 251.71113 372.503055 
L 252.39219 368.293946 
L 252.61921 369.409874 
L 252.84623 372.382646 
L 253.07325 372.455552 
L 253.30027 372.198068 
L 253.52729 372.670903 
L 253.75431 371.522129 
L 253.98133 373.167029 
L 254.20835 372.737591 
L 254.43537 370.946974 
L 254.88941 372.386179 
L 255.11643 372.069135 
L 255.34345 372.170238 
L 255.57047 371.630319 
L 255.79749 370.065245 
L 256.02451 371.81302 
L 256.25153 372.025215 
L 256.47855 371.720639 
L 256.70557 371.901997 
L 256.93259 372.928425 
L 257.38663 370.704979 
L 257.84067 373.655309 
L 258.29471 368.983397 
L 258.52173 370.333002 
L 258.74875 370.831162 
L 258.97577 370.285859 
L 259.20279 370.453328 
L 259.42981 369.7579 
L 259.65683 368.476821 
L 259.88385 371.256476 
L 260.11087 371.807887 
L 260.33789 370.194459 
L 260.56491 369.549416 
L 260.79193 370.070712 
L 261.01895 372.255717 
L 261.47299 373.784554 
L 261.70001 371.757665 
L 262.15405 370.813357 
L 262.38107 371.377863 
L 262.60809 371.449619 
L 262.83511 370.576214 
L 263.06213 370.939702 
L 263.28915 371.537063 
L 263.51617 372.455142 
L 263.74319 373.873517 
L 263.97021 372.802735 
L 264.19723 373.611146 
L 264.42425 370.79186 
L 264.87829 371.195823 
L 265.10531 372.873647 
L 265.33233 371.813127 
L 265.55935 371.293689 
L 265.78637 371.611231 
L 266.24041 370.060691 
L 266.46743 371.172829 
L 266.69445 373.790372 
L 267.14849 369.377358 
L 267.82955 373.396095 
L 268.05657 373.587598 
L 268.51061 371.605858 
L 268.73763 370.495949 
L 268.96465 370.169382 
L 269.41869 368.118733 
L 269.87273 373.399118 
L 270.32677 371.735955 
L 270.55379 372.523858 
L 271.00783 370.691583 
L 271.23485 371.990535 
L 271.46187 371.266855 
L 271.68889 372.729252 
L 272.14293 371.583805 
L 272.36995 371.868888 
L 272.59697 373.880399 
L 272.82399 374.152029 
L 273.05101 372.481785 
L 273.27803 369.698449 
L 273.50505 368.302679 
L 273.95909 371.988468 
L 274.18611 371.390962 
L 274.41313 369.190932 
L 274.64015 370.347192 
L 274.86717 370.559009 
L 275.09419 371.021752 
L 275.77525 373.316766 
L 276.22929 372.463297 
L 276.45631 370.994594 
L 276.68333 371.592695 
L 276.91035 372.783163 
L 277.13737 372.976091 
L 277.36439 372.627878 
L 277.59141 370.88025 
L 277.81843 371.241222 
L 278.04545 373.680517 
L 278.27247 371.383447 
L 278.49949 370.413231 
L 278.72651 370.324078 
L 278.95353 369.572427 
L 279.18055 371.747882 
L 279.40757 369.94002 
L 279.63459 370.286733 
L 279.86161 372.164872 
L 280.08863 372.702061 
L 280.31565 373.692109 
L 280.54267 372.920889 
L 280.76969 371.24732 
L 280.99671 368.570441 
L 281.22373 368.613743 
L 281.45075 368.058735 
L 281.90479 372.707299 
L 282.35883 373.227204 
L 282.81287 368.110046 
L 283.03989 372.478125 
L 283.26691 370.82086 
L 283.49393 370.755142 
L 283.94797 373.014753 
L 284.17499 370.22244 
L 284.40201 371.555504 
L 284.62903 372.133666 
L 284.85605 371.107977 
L 285.08307 370.989562 
L 285.53711 373.142068 
L 285.76413 372.480799 
L 286.44519 367.806457 
L 286.89923 370.448745 
L 287.12625 370.48418 
L 287.35327 372.566473 
L 287.58029 371.653181 
L 287.80731 370.242345 
L 288.03433 371.765617 
L 288.26135 371.039641 
L 288.48837 369.752641 
L 288.71539 371.163829 
L 288.94241 371.542968 
L 289.16943 367.350325 
L 289.39645 368.974176 
L 289.62347 372.666832 
L 289.85049 369.578805 
L 290.07751 370.562632 
L 290.30453 373.515459 
L 290.53155 371.499611 
L 290.75857 371.014402 
L 290.98559 373.085103 
L 291.21261 368.817655 
L 291.43963 370.055534 
L 291.66665 372.693706 
L 291.89367 373.497483 
L 292.12069 372.282158 
L 292.34771 369.757979 
L 292.80175 373.423122 
L 293.25579 368.650484 
L 293.48281 369.153026 
L 293.70983 369.15294 
L 293.93685 368.633311 
L 294.16387 369.525296 
L 294.39089 371.46382 
L 294.61791 371.899973 
L 294.84493 373.078235 
L 295.52599 370.771013 
L 295.75301 371.420329 
L 295.98003 373.79287 
L 296.20705 372.782669 
L 296.43407 373.092697 
L 296.66109 372.743591 
L 296.88811 371.754682 
L 297.11513 373.14581 
L 297.34215 372.686465 
L 297.56917 373.095928 
L 298.02321 368.486305 
L 298.47725 371.333279 
L 298.70427 370.600505 
L 298.93129 370.900724 
L 299.38533 373.473263 
L 299.83937 370.416301 
L 300.06639 370.35046 
L 300.29341 370.548447 
L 300.52043 371.192014 
L 300.74745 373.409591 
L 300.97447 373.846817 
L 301.42851 369.990966 
L 301.88255 372.508189 
L 302.10957 372.461739 
L 302.33659 371.873095 
L 302.79063 373.406976 
L 303.01765 371.352816 
L 303.47169 372.310712 
L 303.69871 373.660895 
L 303.92573 371.376826 
L 304.15275 370.810069 
L 304.37977 372.912708 
L 304.83381 373.920927 
L 305.28785 372.435246 
L 305.51487 372.963139 
L 305.74189 372.995058 
L 305.96891 372.072132 
L 306.42295 372.351712 
L 306.64997 370.69758 
L 306.87699 371.483866 
L 307.10401 373.603126 
L 307.33103 373.289311 
L 307.55805 372.052241 
L 307.78507 371.758934 
L 308.01209 373.17478 
L 308.23911 373.654875 
L 308.69315 371.312433 
L 309.14719 372.789671 
L 309.37421 372.794679 
L 309.60123 373.155442 
L 309.82825 372.912158 
L 310.05527 372.44613 
L 310.28229 373.640004 
L 310.50931 373.530345 
L 310.73633 372.841705 
L 310.96335 372.759797 
L 311.41739 371.396359 
L 312.09845 373.986371 
L 312.55249 368.516562 
L 312.77951 369.915332 
L 313.00653 372.374472 
L 313.23355 371.734711 
L 313.46057 372.810583 
L 313.68759 372.700026 
L 313.91461 370.98002 
L 314.36865 373.26519 
L 314.59567 373.13344 
L 314.82269 373.930778 
L 315.04971 371.827444 
L 315.27673 372.602218 
L 315.50375 371.391938 
L 315.73077 372.435496 
L 315.95779 372.592499 
L 316.18481 369.832462 
L 316.41183 370.081327 
L 316.63885 372.707046 
L 316.86587 372.1586 
L 317.09289 373.16044 
L 317.31991 373.46176 
L 318.00097 371.233023 
L 318.22799 371.975312 
L 318.45501 372.138031 
L 318.68203 371.292966 
L 318.90905 373.169875 
L 319.13607 370.695759 
L 319.36309 370.969509 
L 319.59011 373.220244 
L 319.81713 373.818508 
L 320.04415 373.254446 
L 320.27117 373.382304 
L 320.49819 371.189278 
L 320.95223 372.429644 
L 321.17925 371.959139 
L 321.40627 371.971937 
L 321.63329 373.661204 
L 321.86031 373.373324 
L 322.08733 372.121153 
L 322.31435 371.642646 
L 322.54137 373.217403 
L 322.99541 372.627367 
L 323.22243 373.826489 
L 323.67647 370.966113 
L 323.90349 371.141221 
L 324.13051 372.993858 
L 324.35753 372.445597 
L 324.58455 373.744871 
L 324.81157 373.884445 
L 325.03859 373.716295 
L 325.26561 372.436203 
L 325.49263 371.807615 
L 325.71965 371.821811 
L 325.94667 371.199288 
L 326.17369 371.044288 
L 326.40071 371.257847 
L 327.08177 373.505451 
L 327.30879 371.94353 
L 327.53581 373.733205 
L 327.76283 371.597532 
L 327.98985 371.805336 
L 328.44389 369.39338 
L 328.67091 370.770558 
L 328.89793 373.497805 
L 329.35197 371.633287 
L 329.80601 371.070486 
L 330.03303 371.463547 
L 330.48707 373.9314 
L 330.71409 372.538414 
L 330.94111 373.718733 
L 331.39515 373.180967 
L 331.62217 373.124355 
L 331.84919 372.844979 
L 332.07621 370.857681 
L 332.53025 373.55986 
L 332.98429 372.827241 
L 333.21131 371.822467 
L 333.43833 371.336863 
L 333.66535 370.430721 
L 333.89237 370.305692 
L 334.11939 370.778947 
L 334.34641 370.872201 
L 334.80045 373.097726 
L 335.25449 371.502412 
L 335.48151 373.416292 
L 335.70853 370.886809 
L 336.16257 372.001626 
L 336.38959 369.805185 
L 336.61661 369.819069 
L 336.84363 372.331323 
L 337.07065 372.623206 
L 337.29767 372.608336 
L 337.52469 372.99893 
L 337.97873 372.958315 
L 338.20575 371.70844 
L 338.65979 371.187364 
L 338.88681 372.18737 
L 339.11383 372.503314 
L 339.34085 372.505908 
L 339.56787 371.795111 
L 339.79489 372.528481 
L 340.02191 373.896221 
L 340.24893 373.322349 
L 340.47595 372.436991 
L 340.70297 370.945602 
L 341.15701 373.343709 
L 341.38403 371.905191 
L 341.61105 372.75326 
L 341.83807 372.207019 
L 342.06509 372.399801 
L 342.29211 373.730887 
L 342.51913 373.701034 
L 342.97317 371.534007 
L 343.20019 371.213294 
L 343.42721 372.751764 
L 343.65423 372.981382 
L 343.88125 372.111341 
L 344.56231 373.593385 
L 345.24337 370.787293 
L 345.47039 372.073162 
L 345.69741 371.440599 
L 345.92443 369.954102 
L 346.15145 370.719603 
L 346.37847 372.768362 
L 346.60549 372.035497 
L 346.83251 371.94059 
L 347.05953 373.76375 
L 347.28655 373.164943 
L 347.51357 373.433821 
L 347.74059 373.061989 
L 347.96761 373.764793 
L 348.19463 373.637836 
L 348.42165 371.758222 
L 348.64867 370.970827 
L 348.87569 372.693719 
L 349.10271 371.515976 
L 349.55675 373.021161 
L 349.78377 373.166078 
L 350.23781 371.213381 
L 350.46483 371.5495 
L 350.69185 373.613312 
L 350.91887 373.062345 
L 351.37291 371.516868 
L 351.59993 372.913238 
L 351.82695 373.615783 
L 352.28099 370.696214 
L 352.50801 373.875295 
L 352.73503 371.990442 
L 352.96205 373.891244 
L 353.18907 373.611643 
L 353.41609 373.114142 
L 353.64311 371.917747 
L 353.87013 372.265029 
L 354.09715 373.640382 
L 354.32417 372.416537 
L 354.55119 373.084462 
L 354.77821 372.564596 
L 355.23225 373.695891 
L 355.68629 371.291557 
L 355.91331 371.227116 
L 356.14033 372.629394 
L 356.82139 374.16393 
L 357.04841 373.959422 
L 357.72947 372.476819 
L 357.95649 371.321572 
L 358.18351 372.471632 
L 358.63755 373.674631 
L 359.09159 369.468158 
L 359.31861 369.301099 
L 359.77265 371.883152 
L 359.99967 372.535376 
L 360.22669 373.967955 
L 360.45371 372.564922 
L 360.68073 372.028469 
L 361.13477 372.527898 
L 361.36179 373.102605 
L 361.58881 372.050576 
L 361.81583 371.99095 
L 362.04285 372.440689 
L 362.26987 371.054509 
L 362.72391 373.624028 
L 362.95093 373.960184 
L 363.17795 373.464077 
L 363.40497 373.801614 
L 363.63199 373.057834 
L 363.85901 373.843969 
L 364.31305 371.705316 
L 364.54007 371.812829 
L 364.76709 371.651979 
L 364.99411 371.879965 
L 365.22113 372.52777 
L 365.44815 372.184409 
L 365.67517 372.418839 
L 365.90219 373.504073 
L 366.12921 372.140081 
L 366.35623 373.007333 
L 366.58325 373.12925 
L 367.03729 372.346815 
L 367.26431 373.021364 
L 367.49133 373.02479 
L 367.71835 371.762378 
L 367.94537 371.992359 
L 368.17239 372.927712 
L 368.39941 373.11774 
L 369.08047 370.292945 
L 369.53451 371.75272 
L 369.76153 370.431896 
L 370.21557 373.112012 
L 370.44259 372.912493 
L 370.66961 372.977419 
L 370.89663 373.554754 
L 371.12365 372.927712 
L 371.35067 371.698338 
L 371.80471 373.168974 
L 372.03173 372.631123 
L 372.25875 371.306541 
L 372.48577 373.319504 
L 372.71279 373.715637 
L 372.93981 373.872864 
L 373.16683 372.535782 
L 373.39385 372.826411 
L 373.62087 372.020617 
L 373.84789 370.742072 
L 374.07491 370.929428 
L 374.30193 372.810551 
L 374.52895 371.883522 
L 374.75597 372.170776 
L 374.98299 373.644366 
L 375.21001 373.511112 
L 375.43703 372.402935 
L 375.66405 372.495593 
L 375.89107 373.417694 
L 376.11809 373.388959 
L 376.34511 373.481507 
L 376.57213 373.439867 
L 377.02617 372.775944 
L 377.25319 372.941522 
L 377.48021 373.522335 
L 377.70723 372.908902 
L 377.93425 371.770339 
L 378.84233 374.081109 
L 379.06935 371.521683 
L 379.29637 371.184098 
L 379.52339 373.192243 
L 379.75041 373.373868 
L 380.20445 373.165844 
L 380.43147 372.021141 
L 380.88551 373.84219 
L 381.11253 373.053728 
L 381.56657 372.780074 
L 382.02061 373.935574 
L 382.24763 373.640707 
L 382.70167 371.532481 
L 382.92869 370.450173 
L 383.15571 371.044563 
L 383.60975 373.805369 
L 383.83677 373.720038 
L 384.06379 373.207057 
L 384.29081 373.192934 
L 384.74485 371.478908 
L 384.97187 371.294335 
L 385.19889 370.952993 
L 385.42591 373.251155 
L 385.65293 372.801624 
L 385.87995 373.159748 
L 386.10697 372.986212 
L 386.33399 372.154814 
L 386.56101 370.273052 
L 386.78803 370.003441 
L 387.24207 373.163987 
L 387.46909 372.493674 
L 387.69611 370.442795 
L 387.92313 370.171701 
L 388.37717 371.973305 
L 388.60419 370.761497 
L 388.83121 372.28078 
L 389.05823 372.425692 
L 389.28525 372.085638 
L 389.51227 372.922537 
L 389.73929 373.171554 
L 389.96631 372.465863 
L 390.19333 372.397127 
L 390.64737 370.853592 
L 391.10141 373.950069 
L 391.32843 373.452575 
L 391.55545 373.412723 
L 391.78247 373.201722 
L 392.00949 371.469951 
L 392.23651 371.399733 
L 392.46353 372.075531 
L 392.69055 372.387384 
L 392.91757 371.792225 
L 393.14459 373.091172 
L 393.37161 373.518494 
L 393.59863 373.220877 
L 393.82565 373.903087 
L 394.05267 373.708238 
L 394.27969 373.75211 
L 394.50671 373.650652 
L 394.96075 371.387234 
L 395.18777 372.265425 
L 395.64181 370.469411 
L 395.86883 370.303371 
L 396.32287 372.905056 
L 396.54989 372.710386 
L 396.77691 371.758097 
L 397.00393 372.277011 
L 397.23095 372.044577 
L 397.68499 373.149368 
L 397.91201 372.7463 
L 398.13903 372.939585 
L 398.59307 370.65243 
L 398.82009 371.02677 
L 399.04711 371.929309 
L 399.27413 372.029592 
L 399.72817 373.401654 
L 400.18221 360.920654 
L 400.63625 372.76222 
L 401.09029 370.463359 
L 401.31731 365.86073 
L 401.54433 364.938095 
L 401.77135 370.584693 
L 401.99837 371.772817 
L 402.22539 370.905681 
L 402.45241 372.330191 
L 402.67943 370.789855 
L 403.36049 373.40896 
L 403.58751 372.971801 
L 403.81453 372.807489 
L 404.04155 371.008227 
L 404.26857 371.125726 
L 404.72261 373.306623 
L 404.94963 371.690441 
L 405.17665 371.88576 
L 405.40367 373.632626 
L 405.63069 371.88708 
L 405.85771 371.130672 
L 406.08473 372.539359 
L 406.31175 372.272736 
L 406.53877 371.409221 
L 406.76579 371.931371 
L 406.99281 372.061355 
L 407.44685 373.392715 
L 407.67387 373.408873 
L 407.90089 373.256192 
L 408.12791 373.819743 
L 408.58195 371.167873 
L 409.03599 373.606925 
L 409.26301 372.935353 
L 409.49003 373.148132 
L 409.71705 373.096003 
L 409.94407 371.637786 
L 410.17109 371.982623 
L 410.39811 373.091666 
L 410.62513 373.625337 
L 410.85215 373.633463 
L 411.07917 373.386407 
L 411.30619 374.217602 
L 411.53321 373.083312 
L 411.76023 373.379174 
L 411.98725 372.788907 
L 412.21427 371.831597 
L 412.44129 373.218904 
L 412.66831 373.420014 
L 412.89533 372.988985 
L 413.12235 373.513322 
L 413.34937 373.270327 
L 413.57639 373.525163 
L 413.80341 373.053156 
L 414.03043 372.871359 
L 414.25745 373.022381 
L 414.48447 373.519088 
L 414.93851 373.598149 
L 415.16553 373.225757 
L 415.39255 371.288844 
L 415.84659 372.535732 
L 416.07361 372.918293 
L 416.30063 372.250544 
L 416.52765 373.052099 
L 416.75467 372.060107 
L 417.43573 372.863575 
L 417.66275 372.893641 
L 417.88977 373.687866 
L 418.11679 373.403035 
L 418.34381 373.455039 
L 418.57083 372.739396 
L 418.79785 371.426383 
L 419.02487 371.863677 
L 419.25189 372.644275 
L 419.47891 372.516264 
L 419.93295 373.531397 
L 420.15997 373.327218 
L 420.38699 373.554406 
L 420.61401 373.091507 
L 420.84103 373.191799 
L 421.06805 372.156895 
L 421.29507 373.336893 
L 421.52209 373.030548 
L 421.74911 373.239961 
L 422.20315 372.211379 
L 422.43017 373.382075 
L 422.65719 372.473165 
L 422.88421 372.850576 
L 423.11123 372.787287 
L 423.33825 373.120735 
L 423.56527 374.039872 
L 423.79229 373.714828 
L 424.01931 372.981014 
L 424.24633 373.37644 
L 424.47335 373.324934 
L 424.70037 373.573932 
L 424.92739 372.87725 
L 425.15441 372.798487 
L 425.38143 371.404106 
L 425.60845 372.879774 
L 426.06249 373.899028 
L 426.28951 373.74245 
L 426.51653 373.987812 
L 426.97057 370.77476 
L 427.19759 371.634992 
L 427.42461 373.836359 
L 427.65163 373.714324 
L 428.10567 371.390135 
L 428.55971 372.085584 
L 428.78673 371.221531 
L 429.01375 372.274147 
L 429.24077 372.28831 
L 429.46779 373.085357 
L 429.92183 370.915534 
L 430.60289 373.897816 
L 431.05693 373.576286 
L 431.28395 373.672833 
L 431.51097 373.447153 
L 431.73799 373.753363 
L 431.96501 373.492375 
L 432.19203 373.571791 
L 432.41905 373.963045 
L 432.64607 373.142553 
L 432.87309 372.963417 
L 433.10011 373.233546 
L 433.32713 372.89331 
L 433.78117 371.974261 
L 434.00819 372.74842 
L 434.46223 372.755855 
L 434.68925 373.746013 
L 434.91627 373.552901 
L 435.14329 373.756473 
L 435.37031 373.766004 
L 435.59733 372.286658 
L 435.82435 371.775989 
L 436.05137 373.11096 
L 436.27839 373.111287 
L 436.50541 371.992535 
L 436.73243 372.565667 
L 436.95945 373.456984 
L 437.18647 371.851617 
L 437.64051 372.422381 
L 437.86753 373.46801 
L 438.09455 373.75218 
L 438.32157 373.509401 
L 438.54859 373.44208 
L 438.77561 373.661322 
L 439.22965 372.125291 
L 439.45667 372.187361 
L 439.68369 373.385582 
L 439.91071 373.986858 
L 440.13773 373.962968 
L 440.59177 372.866524 
L 440.81879 371.439991 
L 441.04581 371.955164 
L 441.27283 373.036971 
L 441.49985 373.438877 
L 441.72687 373.151808 
L 441.95389 372.569114 
L 442.18091 372.457357 
L 442.63495 373.509647 
L 442.86197 372.962407 
L 443.08899 373.23503 
L 443.31601 373.864587 
L 443.54303 372.985249 
L 443.77005 372.651268 
L 443.99707 372.530014 
L 444.22409 372.092658 
L 444.45111 373.438435 
L 444.67813 373.438412 
L 444.90515 373.247753 
L 445.13217 373.207904 
L 445.35919 372.577163 
L 445.58621 374.007756 
L 445.81323 372.404111 
L 446.04025 372.336381 
L 446.26727 373.428758 
L 446.49429 373.528306 
L 446.72131 373.281893 
L 446.94833 372.393251 
L 447.17535 373.770441 
L 447.62939 371.662324 
L 447.85641 371.121246 
L 448.31045 372.916607 
L 448.53747 372.862895 
L 448.76449 373.249347 
L 448.99151 373.228922 
L 449.21853 373.612515 
L 449.44555 373.130495 
L 449.67257 372.364555 
L 449.89959 372.610372 
L 450.12661 373.555997 
L 450.35363 373.630809 
L 450.58065 374.079888 
L 450.80767 372.824682 
L 451.03469 372.274883 
L 451.26171 372.770275 
L 451.48873 373.669646 
L 451.71575 374.096325 
L 452.16979 373.479081 
L 452.39681 371.843598 
L 452.62383 371.09551 
L 452.85085 372.758205 
L 453.30489 373.591729 
L 453.53191 372.655434 
L 453.75893 373.482303 
L 453.98595 372.426061 
L 454.43999 372.198984 
L 454.66701 372.871091 
L 455.12105 373.151872 
L 455.34807 373.917729 
L 455.57509 373.144186 
L 455.80211 371.820827 
L 456.02913 371.841948 
L 456.25615 372.719591 
L 456.48317 372.679836 
L 456.71019 373.18936 
L 456.93721 373.284107 
L 457.16423 373.524318 
L 457.39125 373.043007 
L 457.61827 373.009748 
L 458.29933 370.371472 
L 458.52635 371.748359 
L 458.98039 372.027879 
L 459.20741 373.822842 
L 459.43443 373.344063 
L 459.66145 373.444067 
L 460.34251 374.107846 
L 460.56953 373.523314 
L 460.79655 373.247506 
L 461.02357 373.17274 
L 461.70463 372.339557 
L 461.93165 372.492411 
L 462.38569 373.863216 
L 462.61271 373.378909 
L 462.83973 372.529047 
L 463.06675 372.479828 
L 463.29377 371.640612 
L 463.74781 373.582428 
L 463.97483 373.351568 
L 464.20185 373.331228 
L 464.65589 373.70049 
L 464.88291 372.956727 
L 465.10993 373.269608 
L 465.33695 372.428482 
L 465.56397 373.193635 
L 465.79099 372.850031 
L 466.01801 373.476825 
L 466.24503 372.223621 
L 466.47205 372.234737 
L 466.69907 373.93004 
L 466.92609 372.556263 
L 467.15311 373.352603 
L 467.38013 373.465434 
L 468.06119 372.493765 
L 468.28821 373.356236 
L 468.74225 373.979656 
L 469.19629 372.623293 
L 469.42331 373.023442 
L 469.65033 373.814519 
L 469.87735 373.399654 
L 470.10437 374.126102 
L 470.33139 372.650737 
L 470.78543 372.53867 
L 471.01245 372.848304 
L 471.23947 374.17506 
L 471.46649 373.833014 
L 471.69351 373.914193 
L 471.92053 372.680281 
L 472.14755 372.415556 
L 472.37457 373.202429 
L 472.82861 372.930781 
L 473.05563 373.460962 
L 473.28265 373.48346 
L 473.50967 373.196288 
L 473.96371 373.824877 
L 474.19073 373.420072 
L 474.41775 373.44412 
L 474.64477 373.126196 
L 475.09881 371.985347 
L 475.32583 371.921295 
L 475.55285 372.444829 
L 476.00689 374.051734 
L 476.23391 373.842355 
L 476.46093 373.94786 
L 476.68795 373.802856 
L 477.14199 372.473656 
L 477.36901 373.759885 
L 477.59603 372.145219 
L 477.82305 372.66515 
L 478.05007 373.798643 
L 478.27709 374.033847 
L 478.50411 373.363272 
L 478.73113 373.591941 
L 478.95815 373.571634 
L 479.41219 372.32278 
L 479.63921 372.750522 
L 479.86623 373.605604 
L 480.09325 373.465937 
L 480.32027 373.744193 
L 480.54729 373.825246 
L 481.00133 373.764956 
L 481.22835 373.911026 
L 481.45537 373.735816 
L 481.68239 373.347723 
L 481.90941 373.39902 
L 482.13643 373.13085 
L 482.59047 371.831684 
L 482.81749 372.984085 
L 483.04451 373.359951 
L 483.27153 374.04741 
L 483.49855 372.885573 
L 483.72557 373.791113 
L 483.95259 372.636183 
L 484.17961 372.49762 
L 484.40663 372.832411 
L 484.63365 373.462474 
L 484.86067 373.022803 
L 485.08769 373.418116 
L 485.31471 374.110763 
L 485.99577 372.991747 
L 486.44981 374.019244 
L 486.90385 373.546678 
L 487.13087 373.817648 
L 487.35789 373.183025 
L 487.58491 372.188729 
L 487.81193 372.422975 
L 488.03895 373.564592 
L 488.26597 373.806635 
L 488.49299 373.810334 
L 488.94703 372.804962 
L 489.17405 373.517372 
L 489.40107 373.707903 
L 489.62809 372.812914 
L 489.85511 372.457391 
L 490.53617 374.109802 
L 490.76319 373.517603 
L 490.99021 373.313595 
L 491.21723 373.656503 
L 491.44425 373.416891 
L 491.67127 373.56003 
L 491.89829 373.299263 
L 492.12531 373.361337 
L 492.35233 373.78008 
L 492.57935 373.55965 
L 492.80637 373.7012 
L 493.03339 373.537038 
L 493.26041 374.086417 
L 493.48743 373.911912 
L 493.71445 373.939589 
L 494.16849 373.286044 
L 494.39551 373.285034 
L 494.62253 372.84796 
L 494.84955 372.15793 
L 495.30359 374.16402 
L 495.75763 372.89432 
L 495.98465 373.945236 
L 496.21167 373.542245 
L 496.43869 373.373527 
L 496.89273 373.788265 
L 497.11975 373.411098 
L 497.34677 373.350671 
L 497.57379 373.847237 
L 497.80081 373.96581 
L 498.02783 373.149623 
L 498.48187 374.027829 
L 498.70889 374.072251 
L 498.93591 373.908685 
L 499.16293 373.54459 
L 499.61697 373.252098 
L 500.07101 373.980068 
L 500.29803 373.904017 
L 500.52505 373.999509 
L 500.75207 373.731502 
L 500.97909 373.280601 
L 501.20611 373.240509 
L 501.43313 373.071979 
L 501.88717 373.957874 
L 502.11419 373.52431 
L 502.56823 374.201462 
L 502.79525 373.839697 
L 503.02227 373.923321 
L 503.24929 372.881157 
L 503.47631 372.669323 
L 503.70333 373.542535 
L 503.93035 373.480056 
L 504.15737 372.937733 
L 504.38439 373.622465 
L 504.83843 373.807549 
L 505.29247 373.046399 
L 505.51949 373.473461 
L 505.74651 374.161136 
L 505.97353 373.942428 
L 506.20055 373.419776 
L 506.65459 374.143305 
L 507.10863 373.588361 
L 507.56267 374.081201 
L 507.78969 373.0865 
L 508.01671 373.459366 
L 508.24373 373.041708 
L 508.47075 372.948637 
L 508.69777 374.093875 
L 508.92479 373.536244 
L 509.15181 373.495898 
L 509.60585 373.698034 
L 509.83287 372.962909 
L 510.05989 372.924782 
L 510.28691 373.572132 
L 510.51393 373.822288 
L 510.74095 373.797853 
L 511.19499 373.169093 
L 511.42201 373.830533 
L 511.64903 373.800044 
L 511.87605 373.266358 
L 512.10307 373.578148 
L 512.33009 373.397109 
L 512.55711 372.631061 
L 512.78413 372.614993 
L 513.01115 373.369361 
L 513.23817 373.238983 
L 513.46519 372.498063 
L 513.69221 373.306797 
L 513.91923 373.276701 
L 514.14625 373.749259 
L 514.37327 373.224366 
L 514.60029 373.395586 
L 514.82731 372.69755 
L 515.05433 373.386745 
L 515.28135 373.410791 
L 515.50837 372.686603 
L 515.73539 372.713743 
L 515.96241 373.40389 
L 516.18943 373.450193 
L 516.41645 373.24213 
L 516.64347 373.876142 
L 516.87049 373.862828 
L 517.09751 373.193307 
L 517.55155 373.873609 
L 517.77857 373.823757 
L 518.00559 373.563101 
L 518.23261 373.016158 
L 518.45963 373.022936 
L 518.68665 373.741038 
L 519.36771 373.660074 
L 519.59473 374.128674 
L 519.82175 373.16116 
L 520.04877 373.162663 
L 520.27579 373.483758 
L 520.50281 373.124106 
L 520.72983 373.969196 
L 521.18387 373.546316 
L 521.63791 374.074553 
L 521.86493 373.928048 
L 522.09195 373.41604 
L 522.54599 374.082387 
L 523.00003 373.010591 
L 523.68109 373.924441 
L 523.90811 373.783662 
L 524.13513 373.155108 
L 524.36215 373.633756 
L 524.58917 373.697927 
L 524.81619 372.951458 
L 525.04321 373.109995 
L 525.27023 374.00282 
L 525.49725 373.87886 
L 525.72427 374.223565 
L 526.17831 373.738045 
L 526.40533 374.030603 
L 526.85937 373.253133 
L 527.31341 373.479139 
L 527.54043 373.922841 
L 527.76745 374.094377 
L 527.99447 373.964421 
L 528.22149 374.09631 
L 528.67553 373.511161 
L 529.12957 373.684137 
L 529.58361 374.137051 
L 529.81063 374.029086 
L 530.26467 373.40258 
L 530.49169 373.937745 
L 530.71871 374.007417 
L 530.94573 373.56666 
L 531.17275 373.672768 
L 531.39977 373.972775 
L 531.85381 373.575835 
L 532.08083 373.676994 
L 532.30785 374.064998 
L 532.53487 373.260077 
L 532.98891 374.178802 
L 533.44295 372.852368 
L 533.66997 373.386204 
L 534.35103 373.840566 
L 534.57805 374.131232 
L 535.03209 374.09911 
L 535.25911 373.684947 
L 535.48613 373.783425 
L 535.71315 373.685381 
L 535.94017 373.883182 
L 536.16719 373.686612 
L 536.39421 373.638056 
L 536.62123 373.749836 
L 536.84825 373.686159 
L 537.07527 373.919251 
L 537.30229 373.661604 
L 537.52931 373.771789 
L 537.75633 374.089723 
L 537.98335 373.863065 
L 538.43739 373.085001 
L 538.66441 373.321212 
L 538.89143 373.898138 
L 539.11845 373.787456 
L 539.34547 373.341321 
L 539.79951 374.032009 
L 540.25355 373.869114 
L 540.48057 373.163734 
L 540.70759 373.060219 
L 540.93461 373.708661 
L 541.16163 373.899515 
L 541.38865 373.745413 
L 541.84269 374.184029 
L 542.29673 373.461009 
L 542.75077 373.932625 
L 542.97779 374.180409 
L 543.43183 373.445213 
L 543.65885 373.711999 
L 543.88587 373.283466 
L 544.33991 373.318531 
L 544.56693 373.953677 
L 544.79395 373.374241 
L 545.02097 374.179099 
L 545.47501 373.44173 
L 545.70203 372.764675 
L 546.38309 373.659904 
L 546.61011 373.63803 
L 547.06415 374.118596 
L 547.51819 373.844798 
L 547.74521 373.874868 
L 547.97223 374.03172 
L 548.19925 373.762572 
L 548.42627 373.904523 
L 548.88031 373.319089 
L 549.33435 373.943405 
L 549.78839 373.760211 
L 550.01541 374.149607 
L 550.24243 373.931509 
L 550.46945 373.290625 
L 550.69647 372.999519 
L 550.92349 373.932904 
L 551.15051 373.35801 
L 551.83157 374.063153 
L 552.05859 374.049025 
L 552.28561 374.225405 
L 552.96667 372.980466 
L 553.19369 372.999755 
L 553.87475 373.867844 
L 554.10177 373.819324 
L 554.32879 373.960214 
L 554.55581 373.906753 
L 554.78283 373.717926 
L 555.00985 373.8771 
L 555.23687 373.845175 
L 555.46389 373.516891 
L 555.91793 373.811484 
L 556.14495 373.374273 
L 556.37197 373.482771 
L 556.59899 374.060535 
L 556.82601 374.018381 
L 557.05303 374.181058 
L 557.28005 373.73574 
L 557.50707 373.545998 
L 557.96111 373.513778 
L 558.18813 374.163544 
L 558.41515 373.928937 
L 558.64217 373.980492 
L 559.09621 373.416597 
L 559.55025 374.163458 
L 559.77727 373.930956 
L 560.00429 373.909851 
L 560.23131 373.522444 
L 560.45833 373.648201 
L 560.68535 373.596556 
L 561.13939 373.902638 
L 561.36641 373.577359 
L 561.59343 374.196014 
L 561.82045 373.294601 
L 562.04747 373.365339 
L 562.27449 373.84794 
L 562.50151 373.678155 
L 562.72853 373.740437 
L 562.95555 373.447869 
L 563.18257 373.796338 
L 563.40959 373.663739 
L 563.63661 373.969546 
L 564.09065 373.93975 
L 564.54469 374.02678 
L 564.99873 373.20438 
L 565.22575 373.595805 
L 565.45277 373.638464 
L 565.67979 374.017403 
L 565.90681 374.042325 
L 566.13383 373.705486 
L 566.58787 373.52786 
L 566.81489 373.560811 
L 567.26893 373.886089 
L 567.49595 373.901596 
L 567.72297 374.138695 
L 568.17701 374.042262 
L 568.40403 374.07074 
L 568.85807 373.828746 
L 569.08509 374.050836 
L 569.31211 373.428623 
L 569.76615 373.260011 
L 569.99317 372.739488 
L 570.22019 373.006733 
L 570.44721 373.568534 
L 570.67423 373.82225 
L 570.90125 373.836491 
L 571.12827 374.001368 
L 571.58231 373.833141 
L 571.80933 373.731064 
L 572.03635 373.846418 
L 572.26337 373.589031 
L 572.49039 373.520832 
L 572.71741 373.935054 
L 572.94443 374.091352 
L 573.17145 373.78141 
L 573.39847 373.785157 
L 573.85251 373.367804 
L 574.53357 373.980872 
L 574.76059 373.711583 
L 574.98761 373.976095 
L 575.21463 373.967225 
L 575.66867 373.069072 
L 575.89569 373.377756 
L 576.12271 374.03871 
L 576.34973 374.221251 
L 576.80377 374.105869 
L 577.03079 373.769454 
L 577.25781 373.657595 
L 577.93887 374.136716 
L 578.16589 374.025589 
L 578.39291 373.691566 
L 578.61993 373.676893 
L 579.07397 373.994494 
L 579.75503 373.72451 
L 579.98205 373.866756 
L 580.43609 373.256412 
L 580.66311 373.367314 
L 581.11715 374.135297 
L 581.34417 373.725798 
L 581.79821 373.935345 
L 582.02523 373.974542 
L 582.47927 373.566044 
L 582.70629 374.103154 
L 582.93331 373.844174 
L 583.16033 374.026107 
L 583.38735 373.873537 
L 583.84139 374.073726 
L 584.06841 373.678218 
L 584.97649 373.947014 
L 585.43053 373.886433 
L 585.65755 374.00197 
L 586.11159 373.46938 
L 586.33861 373.491795 
L 586.79265 374.039299 
L 587.01967 373.965212 
L 587.47371 373.411532 
L 587.92775 374.029496 
L 588.15477 374.256222 
L 588.60881 374.011035 
L 588.83583 373.6728 
L 589.06285 373.707683 
L 589.51689 374.131922 
L 590.42497 374.080423 
L 590.87901 373.705765 
L 591.10603 373.555165 
L 591.33305 373.93825 
L 591.56007 373.929738 
L 591.78709 373.737445 
L 592.01411 374.071737 
L 592.24113 374.04673 
L 592.46815 373.705808 
L 592.69517 373.834157 
L 592.92219 374.173826 
L 593.14921 374.013749 
L 593.60325 374.100984 
L 593.83027 373.859366 
L 594.51133 373.678377 
L 595.41941 374.062054 
L 596.32749 374.135931 
L 596.55451 374.150458 
L 596.78153 374.033829 
L 597.00855 374.096127 
L 597.23557 374.00795 
L 597.68961 374.121769 
L 598.37067 373.387559 
L 598.82471 373.94203 
L 599.50577 373.585971 
L 599.73279 373.793628 
L 600.41385 373.972454 
L 600.64087 374.236195 
L 601.32193 373.479796 
L 601.77597 374.140173 
L 602.45703 373.935093 
L 602.68405 374.149977 
L 602.91107 373.745869 
L 603.13809 373.998877 
L 603.81915 374.027671 
L 604.04617 374.186135 
L 604.27319 374.077654 
L 604.72723 374.124081 
L 605.18127 374.021835 
L 605.63531 373.880378 
L 605.86233 374.018974 
L 606.08935 373.948596 
L 606.54339 374.04145 
L 606.77041 373.942928 
L 606.99743 374.116803 
L 607.22445 373.79654 
L 607.90551 374.106175 
L 608.13253 373.987472 
L 608.81359 374.05184 
L 609.04061 373.994793 
L 609.49465 373.531916 
L 610.17571 374.07242 
L 611.31081 373.853552 
L 611.76485 374.104286 
L 611.99187 373.732236 
L 612.21889 373.874518 
L 612.44591 374.149414 
L 612.67293 373.902775 
L 612.89995 373.836319 
L 613.12697 374.113428 
L 613.80803 373.795482 
L 614.03505 373.780451 
L 614.26207 373.955286 
L 614.94313 373.92762 
L 615.39717 374.063069 
L 615.62419 373.86535 
L 615.85121 373.99852 
L 616.07823 373.746773 
L 616.53227 374.110389 
L 616.98631 374.040249 
L 617.21333 374.152021 
L 617.66737 373.957602 
L 617.89439 374.064845 
L 618.12141 373.938794 
L 618.34843 373.987412 
L 618.57545 374.178353 
L 618.80247 374.11054 
L 619.02949 373.894006 
L 619.25651 373.841943 
L 619.48353 374.112876 
L 619.71055 373.891128 
L 619.93757 373.936889 
L 620.16459 374.141417 
L 620.84565 374.113994 
L 621.29969 374.020765 
L 621.75373 373.885207 
L 621.98075 374.117181 
L 622.20777 373.897779 
L 622.43479 373.485734 
L 622.66181 373.52416 
L 623.34287 373.883881 
L 623.79691 373.965041 
L 624.25095 373.547648 
L 624.70499 374.119155 
L 625.15903 374.093424 
L 625.61307 373.57069 
L 625.84009 373.62636 
L 626.06711 373.5335 
L 626.29413 373.703845 
L 626.52115 373.733559 
L 627.20221 372.14992 
L 627.65625 374.139916 
L 627.65625 374.139916 
" clip-path="url(#p53fca3d53e)" style="fill: none; stroke: #1f77b4; stroke-width: 1.5; stroke-linecap: square"/>
   </g>
   <g id="patch_3">
    <path d="M 60.10625 390.84375 
L 60.10625 25.918125 
" style="fill: none; stroke: #000000; stroke-width: 0.8; stroke-linejoin: miter; stroke-linecap: square"/>
   </g>
   <g id="patch_4">
    <path d="M 627.65625 390.84375 
L 627.65625 25.918125 
" style="fill: none; stroke: #000000; stroke-width: 0.8; stroke-linejoin: miter; stroke-linecap: square"/>
   </g>
   <g id="patch_5">
    <path d="M 60.10625 390.84375 
L 627.65625 390.84375 
" style="fill: none; stroke: #000000; stroke-width: 0.8; stroke-linejoin: miter; stroke-linecap: square"/>
   </g>
   <g id="patch_6">
    <path d="M 60.10625 25.918125 
L 627.65625 25.918125 
" style="fill: none; stroke: #000000; stroke-width: 0.8; stroke-linejoin: miter; stroke-linecap: square"/>
   </g>
   <g id="text_15">
    <!-- ECG Spectrum -->
    <g transform="translate(300.269687 19.918125) scale(0.12 -0.12)">
     <defs>
      <path id="DejaVuSans-45" d="M 628 4666 
L 3578 4666 
L 3578 4134 
L 1259 4134 
L 1259 2753 
L 3481 2753 
L 3481 2222 
L 1259 2222 
L 1259 531 
L 3634 531 
L 3634 0 
L 628 0 
L 628 4666 
z
" transform="scale(0.015625)"/>
      <path id="DejaVuSans-43" d="M 4122 4306 
L 4122 3641 
Q 3803 3938 3442 4084 
Q 3081 4231 2675 4231 
Q 1875 4231 1450 3742 
Q 1025 3253 1025 2328 
Q 1025 1406 1450 917 
Q 1875 428 2675 428 
Q 3081 428 3442 575 
Q 3803 722 4122 1019 
L 4122 359 
Q 3791 134 3420 21 
Q 3050 -91 2638 -91 
Q 1578 -91 968 557 
Q 359 1206 359 2328 
Q 359 3453 968 4101 
Q 1578 4750 2638 4750 
Q 3056 4750 3426 4639 
Q 3797 4528 4122 4306 
z
" transform="scale(0.015625)"/>
      <path id="DejaVuSans-47" d="M 3809 666 
L 3809 1919 
L 2778 1919 
L 2778 2438 
L 4434 2438 
L 4434 434 
Q 4069 175 3628 42 
Q 3188 -91 2688 -91 
Q 1594 -91 976 548 
Q 359 1188 359 2328 
Q 359 3472 976 4111 
Q 1594 4750 2688 4750 
Q 3144 4750 3555 4637 
Q 3966 4525 4313 4306 
L 4313 3634 
Q 3963 3931 3569 4081 
Q 3175 4231 2741 4231 
Q 1884 4231 1454 3753 
Q 1025 3275 1025 2328 
Q 1025 1384 1454 906 
Q 1884 428 2741 428 
Q 3075 428 3337 486 
Q 3600 544 3809 666 
z
" transform="scale(0.015625)"/>
      <path id="DejaVuSans-53" d="M 3425 4513 
L 3425 3897 
Q 3066 4069 2747 4153 
Q 2428 4238 2131 4238 
Q 1616 4238 1336 4038 
Q 1056 3838 1056 3469 
Q 1056 3159 1242 3001 
Q 1428 2844 1947 2747 
L 2328 2669 
Q 3034 2534 3370 2195 
Q 3706 1856 3706 1288 
Q 3706 609 3251 259 
Q 2797 -91 1919 -91 
Q 1588 -91 1214 -16 
Q 841 59 441 206 
L 441 856 
Q 825 641 1194 531 
Q 1563 422 1919 422 
Q 2459 422 2753 634 
Q 3047 847 3047 1241 
Q 3047 1584 2836 1778 
Q 2625 1972 2144 2069 
L 1759 2144 
Q 1053 2284 737 2584 
Q 422 2884 422 3419 
Q 422 4038 858 4394 
Q 1294 4750 2059 4750 
Q 2388 4750 2728 4690 
Q 3069 4631 3425 4513 
z
" transform="scale(0.015625)"/>
      <path id="DejaVuSans-70" d="M 1159 525 
L 1159 -1331 
L 581 -1331 
L 581 3500 
L 1159 3500 
L 1159 2969 
Q 1341 3281 1617 3432 
Q 1894 3584 2278 3584 
Q 2916 3584 3314 3078 
Q 3713 2572 3713 1747 
Q 3713 922 3314 415 
Q 2916 -91 2278 -91 
Q 1894 -91 1617 61 
Q 1341 213 1159 525 
z
M 3116 1747 
Q 3116 2381 2855 2742 
Q 2594 3103 2138 3103 
Q 1681 3103 1420 2742 
Q 1159 2381 1159 1747 
Q 1159 1113 1420 752 
Q 1681 391 2138 391 
Q 2594 391 2855 752 
Q 3116 1113 3116 1747 
z
" transform="scale(0.015625)"/>
      <path id="DejaVuSans-6d" d="M 3328 2828 
Q 3544 3216 3844 3400 
Q 4144 3584 4550 3584 
Q 5097 3584 5394 3201 
Q 5691 2819 5691 2113 
L 5691 0 
L 5113 0 
L 5113 2094 
Q 5113 2597 4934 2840 
Q 4756 3084 4391 3084 
Q 3944 3084 3684 2787 
Q 3425 2491 3425 1978 
L 3425 0 
L 2847 0 
L 2847 2094 
Q 2847 2600 2669 2842 
Q 2491 3084 2119 3084 
Q 1678 3084 1418 2786 
Q 1159 2488 1159 1978 
L 1159 0 
L 581 0 
L 581 3500 
L 1159 3500 
L 1159 2956 
Q 1356 3278 1631 3431 
Q 1906 3584 2284 3584 
Q 2666 3584 2933 3390 
Q 3200 3197 3328 2828 
z
" transform="scale(0.015625)"/>
     </defs>
     <use xlink:href="#DejaVuSans-45"/>
     <use xlink:href="#DejaVuSans-43" transform="translate(63.183594 0)"/>
     <use xlink:href="#DejaVuSans-47" transform="translate(133.007812 0)"/>
     <use xlink:href="#DejaVuSans-20" transform="translate(210.498047 0)"/>
     <use xlink:href="#DejaVuSans-53" transform="translate(242.285156 0)"/>
     <use xlink:href="#DejaVuSans-70" transform="translate(305.761719 0)"/>
     <use xlink:href="#DejaVuSans-65" transform="translate(369.238281 0)"/>
     <use xlink:href="#DejaVuSans-63" transform="translate(430.761719 0)"/>
     <use xlink:href="#DejaVuSans-74" transform="translate(485.742188 0)"/>
     <use xlink:href="#DejaVuSans-72" transform="translate(524.951172 0)"/>
     <use xlink:href="#DejaVuSans-75" transform="translate(566.064453 0)"/>
     <use xlink:href="#DejaVuSans-6d" transform="translate(629.443359 0)"/>
    </g>
   </g>
  </g>
 </g>
 <defs>
  <clipPath id="p53fca3d53e">
   <rect x="60.10625" y="25.918125" width="567.55" height="364.925625"/>
  </clipPath>
 </defs>
</svg>
