<?xml version="1.0" encoding="utf-8" standalone="no"?>
<!DOCTYPE svg PUBLIC "-//W3C//DTD SVG 1.1//EN"
  "http://www.w3.org/Graphics/SVG/1.1/DTD/svg11.dtd">
<svg xmlns:xlink="http://www.w3.org/1999/xlink" width="648pt" height="432pt" viewBox="0 0 648 432" xmlns="http://www.w3.org/2000/svg" version="1.1">
 <metadata>
  <rdf:RDF xmlns:dc="http://purl.org/dc/elements/1.1/" xmlns:cc="http://creativecommons.org/ns#" xmlns:rdf="http://www.w3.org/1999/02/22-rdf-syntax-ns#">
   <cc:Work>
    <dc:type rdf:resource="http://purl.org/dc/dcmitype/StillImage"/>
    <dc:date>2025-08-04T13:47:44.833150</dc:date>
    <dc:format>image/svg+xml</dc:format>
    <dc:creator>
     <cc:Agent>
      <dc:title>Matplotlib v3.10.3, https://matplotlib.org/</dc:title>
     </cc:Agent>
    </dc:creator>
   </cc:Work>
  </rdf:RDF>
 </metadata>
 <defs>
  <style type="text/css">*{stroke-linejoin: round; stroke-linecap: butt}</style>
 </defs>
 <g id="figure_1">
  <g id="patch_1">
   <path d="M 0 432 
L 648 432 
L 648 0 
L 0 0 
z
" style="fill: #ffffff"/>
  </g>
  <g id="axes_1">
   <g id="patch_2">
    <path d="M 81 384.48 
L 583.2 384.48 
L 583.2 51.84 
L 81 51.84 
z
" style="fill: #ffffff"/>
   </g>
   <g id="matplotlib.axis_1">
    <g id="xtick_1">
     <g id="line2d_1">
      <defs>
       <path id="mf7579b52f8" d="M 0 0 
L 0 3.5 
" style="stroke: #000000; stroke-width: 0.8"/>
      </defs>
      <g>
       <use xlink:href="#mf7579b52f8" x="103.827273" y="384.48" style="stroke: #000000; stroke-width: 0.8"/>
      </g>
     </g>
     <g id="text_1">
      <!-- 0.0 -->
      <g transform="translate(95.87571 399.078438) scale(0.1 -0.1)">
       <defs>
        <path id="DejaVuSans-30" d="M 2034 4250 
Q 1547 4250 1301 3770 
Q 1056 3291 1056 2328 
Q 1056 1369 1301 889 
Q 1547 409 2034 409 
Q 2525 409 2770 889 
Q 3016 1369 3016 2328 
Q 3016 3291 2770 3770 
Q 2525 4250 2034 4250 
z
M 2034 4750 
Q 2819 4750 3233 4129 
Q 3647 3509 3647 2328 
Q 3647 1150 3233 529 
Q 2819 -91 2034 -91 
Q 1250 -91 836 529 
Q 422 1150 422 2328 
Q 422 3509 836 4129 
Q 1250 4750 2034 4750 
z
" transform="scale(0.015625)"/>
        <path id="DejaVuSans-2e" d="M 684 794 
L 1344 794 
L 1344 0 
L 684 0 
L 684 794 
z
" transform="scale(0.015625)"/>
       </defs>
       <use xlink:href="#DejaVuSans-30"/>
       <use xlink:href="#DejaVuSans-2e" transform="translate(63.623047 0)"/>
       <use xlink:href="#DejaVuSans-30" transform="translate(95.410156 0)"/>
      </g>
     </g>
    </g>
    <g id="xtick_2">
     <g id="line2d_2">
      <g>
       <use xlink:href="#mf7579b52f8" x="203.509686" y="384.48" style="stroke: #000000; stroke-width: 0.8"/>
      </g>
     </g>
     <g id="text_2">
      <!-- 0.2 -->
      <g transform="translate(195.558124 399.078438) scale(0.1 -0.1)">
       <defs>
        <path id="DejaVuSans-32" d="M 1228 531 
L 3431 531 
L 3431 0 
L 469 0 
L 469 531 
Q 828 903 1448 1529 
Q 2069 2156 2228 2338 
Q 2531 2678 2651 2914 
Q 2772 3150 2772 3378 
Q 2772 3750 2511 3984 
Q 2250 4219 1831 4219 
Q 1534 4219 1204 4116 
Q 875 4013 500 3803 
L 500 4441 
Q 881 4594 1212 4672 
Q 1544 4750 1819 4750 
Q 2544 4750 2975 4387 
Q 3406 4025 3406 3419 
Q 3406 3131 3298 2873 
Q 3191 2616 2906 2266 
Q 2828 2175 2409 1742 
Q 1991 1309 1228 531 
z
" transform="scale(0.015625)"/>
       </defs>
       <use xlink:href="#DejaVuSans-30"/>
       <use xlink:href="#DejaVuSans-2e" transform="translate(63.623047 0)"/>
       <use xlink:href="#DejaVuSans-32" transform="translate(95.410156 0)"/>
      </g>
     </g>
    </g>
    <g id="xtick_3">
     <g id="line2d_3">
      <g>
       <use xlink:href="#mf7579b52f8" x="303.1921" y="384.48" style="stroke: #000000; stroke-width: 0.8"/>
      </g>
     </g>
     <g id="text_3">
      <!-- 0.4 -->
      <g transform="translate(295.240538 399.078438) scale(0.1 -0.1)">
       <defs>
        <path id="DejaVuSans-34" d="M 2419 4116 
L 825 1625 
L 2419 1625 
L 2419 4116 
z
M 2253 4666 
L 3047 4666 
L 3047 1625 
L 3713 1625 
L 3713 1100 
L 3047 1100 
L 3047 0 
L 2419 0 
L 2419 1100 
L 313 1100 
L 313 1709 
L 2253 4666 
z
" transform="scale(0.015625)"/>
       </defs>
       <use xlink:href="#DejaVuSans-30"/>
       <use xlink:href="#DejaVuSans-2e" transform="translate(63.623047 0)"/>
       <use xlink:href="#DejaVuSans-34" transform="translate(95.410156 0)"/>
      </g>
     </g>
    </g>
    <g id="xtick_4">
     <g id="line2d_4">
      <g>
       <use xlink:href="#mf7579b52f8" x="402.874514" y="384.48" style="stroke: #000000; stroke-width: 0.8"/>
      </g>
     </g>
     <g id="text_4">
      <!-- 0.6 -->
      <g transform="translate(394.922951 399.078438) scale(0.1 -0.1)">
       <defs>
        <path id="DejaVuSans-36" d="M 2113 2584 
Q 1688 2584 1439 2293 
Q 1191 2003 1191 1497 
Q 1191 994 1439 701 
Q 1688 409 2113 409 
Q 2538 409 2786 701 
Q 3034 994 3034 1497 
Q 3034 2003 2786 2293 
Q 2538 2584 2113 2584 
z
M 3366 4563 
L 3366 3988 
Q 3128 4100 2886 4159 
Q 2644 4219 2406 4219 
Q 1781 4219 1451 3797 
Q 1122 3375 1075 2522 
Q 1259 2794 1537 2939 
Q 1816 3084 2150 3084 
Q 2853 3084 3261 2657 
Q 3669 2231 3669 1497 
Q 3669 778 3244 343 
Q 2819 -91 2113 -91 
Q 1303 -91 875 529 
Q 447 1150 447 2328 
Q 447 3434 972 4092 
Q 1497 4750 2381 4750 
Q 2619 4750 2861 4703 
Q 3103 4656 3366 4563 
z
" transform="scale(0.015625)"/>
       </defs>
       <use xlink:href="#DejaVuSans-30"/>
       <use xlink:href="#DejaVuSans-2e" transform="translate(63.623047 0)"/>
       <use xlink:href="#DejaVuSans-36" transform="translate(95.410156 0)"/>
      </g>
     </g>
    </g>
    <g id="xtick_5">
     <g id="line2d_5">
      <g>
       <use xlink:href="#mf7579b52f8" x="502.556927" y="384.48" style="stroke: #000000; stroke-width: 0.8"/>
      </g>
     </g>
     <g id="text_5">
      <!-- 0.8 -->
      <g transform="translate(494.605365 399.078438) scale(0.1 -0.1)">
       <defs>
        <path id="DejaVuSans-38" d="M 2034 2216 
Q 1584 2216 1326 1975 
Q 1069 1734 1069 1313 
Q 1069 891 1326 650 
Q 1584 409 2034 409 
Q 2484 409 2743 651 
Q 3003 894 3003 1313 
Q 3003 1734 2745 1975 
Q 2488 2216 2034 2216 
z
M 1403 2484 
Q 997 2584 770 2862 
Q 544 3141 544 3541 
Q 544 4100 942 4425 
Q 1341 4750 2034 4750 
Q 2731 4750 3128 4425 
Q 3525 4100 3525 3541 
Q 3525 3141 3298 2862 
Q 3072 2584 2669 2484 
Q 3125 2378 3379 2068 
Q 3634 1759 3634 1313 
Q 3634 634 3220 271 
Q 2806 -91 2034 -91 
Q 1263 -91 848 271 
Q 434 634 434 1313 
Q 434 1759 690 2068 
Q 947 2378 1403 2484 
z
M 1172 3481 
Q 1172 3119 1398 2916 
Q 1625 2713 2034 2713 
Q 2441 2713 2670 2916 
Q 2900 3119 2900 3481 
Q 2900 3844 2670 4047 
Q 2441 4250 2034 4250 
Q 1625 4250 1398 4047 
Q 1172 3844 1172 3481 
z
" transform="scale(0.015625)"/>
       </defs>
       <use xlink:href="#DejaVuSans-30"/>
       <use xlink:href="#DejaVuSans-2e" transform="translate(63.623047 0)"/>
       <use xlink:href="#DejaVuSans-38" transform="translate(95.410156 0)"/>
      </g>
     </g>
    </g>
    <g id="text_6">
     <!-- Time (seconds) -->
     <g transform="translate(293.938281 412.756563) scale(0.1 -0.1)">
      <defs>
       <path id="DejaVuSans-54" d="M -19 4666 
L 3928 4666 
L 3928 4134 
L 2272 4134 
L 2272 0 
L 1638 0 
L 1638 4134 
L -19 4134 
L -19 4666 
z
" transform="scale(0.015625)"/>
       <path id="DejaVuSans-69" d="M 603 3500 
L 1178 3500 
L 1178 0 
L 603 0 
L 603 3500 
z
M 603 4863 
L 1178 4863 
L 1178 4134 
L 603 4134 
L 603 4863 
z
" transform="scale(0.015625)"/>
       <path id="DejaVuSans-6d" d="M 3328 2828 
Q 3544 3216 3844 3400 
Q 4144 3584 4550 3584 
Q 5097 3584 5394 3201 
Q 5691 2819 5691 2113 
L 5691 0 
L 5113 0 
L 5113 2094 
Q 5113 2597 4934 2840 
Q 4756 3084 4391 3084 
Q 3944 3084 3684 2787 
Q 3425 2491 3425 1978 
L 3425 0 
L 2847 0 
L 2847 2094 
Q 2847 2600 2669 2842 
Q 2491 3084 2119 3084 
Q 1678 3084 1418 2786 
Q 1159 2488 1159 1978 
L 1159 0 
L 581 0 
L 581 3500 
L 1159 3500 
L 1159 2956 
Q 1356 3278 1631 3431 
Q 1906 3584 2284 3584 
Q 2666 3584 2933 3390 
Q 3200 3197 3328 2828 
z
" transform="scale(0.015625)"/>
       <path id="DejaVuSans-65" d="M 3597 1894 
L 3597 1613 
L 953 1613 
Q 991 1019 1311 708 
Q 1631 397 2203 397 
Q 2534 397 2845 478 
Q 3156 559 3463 722 
L 3463 178 
Q 3153 47 2828 -22 
Q 2503 -91 2169 -91 
Q 1331 -91 842 396 
Q 353 884 353 1716 
Q 353 2575 817 3079 
Q 1281 3584 2069 3584 
Q 2775 3584 3186 3129 
Q 3597 2675 3597 1894 
z
M 3022 2063 
Q 3016 2534 2758 2815 
Q 2500 3097 2075 3097 
Q 1594 3097 1305 2825 
Q 1016 2553 972 2059 
L 3022 2063 
z
" transform="scale(0.015625)"/>
       <path id="DejaVuSans-20" transform="scale(0.015625)"/>
       <path id="DejaVuSans-28" d="M 1984 4856 
Q 1566 4138 1362 3434 
Q 1159 2731 1159 2009 
Q 1159 1288 1364 580 
Q 1569 -128 1984 -844 
L 1484 -844 
Q 1016 -109 783 600 
Q 550 1309 550 2009 
Q 550 2706 781 3412 
Q 1013 4119 1484 4856 
L 1984 4856 
z
" transform="scale(0.015625)"/>
       <path id="DejaVuSans-73" d="M 2834 3397 
L 2834 2853 
Q 2591 2978 2328 3040 
Q 2066 3103 1784 3103 
Q 1356 3103 1142 2972 
Q 928 2841 928 2578 
Q 928 2378 1081 2264 
Q 1234 2150 1697 2047 
L 1894 2003 
Q 2506 1872 2764 1633 
Q 3022 1394 3022 966 
Q 3022 478 2636 193 
Q 2250 -91 1575 -91 
Q 1294 -91 989 -36 
Q 684 19 347 128 
L 347 722 
Q 666 556 975 473 
Q 1284 391 1588 391 
Q 1994 391 2212 530 
Q 2431 669 2431 922 
Q 2431 1156 2273 1281 
Q 2116 1406 1581 1522 
L 1381 1569 
Q 847 1681 609 1914 
Q 372 2147 372 2553 
Q 372 3047 722 3315 
Q 1072 3584 1716 3584 
Q 2034 3584 2315 3537 
Q 2597 3491 2834 3397 
z
" transform="scale(0.015625)"/>
       <path id="DejaVuSans-63" d="M 3122 3366 
L 3122 2828 
Q 2878 2963 2633 3030 
Q 2388 3097 2138 3097 
Q 1578 3097 1268 2742 
Q 959 2388 959 1747 
Q 959 1106 1268 751 
Q 1578 397 2138 397 
Q 2388 397 2633 464 
Q 2878 531 3122 666 
L 3122 134 
Q 2881 22 2623 -34 
Q 2366 -91 2075 -91 
Q 1284 -91 818 406 
Q 353 903 353 1747 
Q 353 2603 823 3093 
Q 1294 3584 2113 3584 
Q 2378 3584 2631 3529 
Q 2884 3475 3122 3366 
z
" transform="scale(0.015625)"/>
       <path id="DejaVuSans-6f" d="M 1959 3097 
Q 1497 3097 1228 2736 
Q 959 2375 959 1747 
Q 959 1119 1226 758 
Q 1494 397 1959 397 
Q 2419 397 2687 759 
Q 2956 1122 2956 1747 
Q 2956 2369 2687 2733 
Q 2419 3097 1959 3097 
z
M 1959 3584 
Q 2709 3584 3137 3096 
Q 3566 2609 3566 1747 
Q 3566 888 3137 398 
Q 2709 -91 1959 -91 
Q 1206 -91 779 398 
Q 353 888 353 1747 
Q 353 2609 779 3096 
Q 1206 3584 1959 3584 
z
" transform="scale(0.015625)"/>
       <path id="DejaVuSans-6e" d="M 3513 2113 
L 3513 0 
L 2938 0 
L 2938 2094 
Q 2938 2591 2744 2837 
Q 2550 3084 2163 3084 
Q 1697 3084 1428 2787 
Q 1159 2491 1159 1978 
L 1159 0 
L 581 0 
L 581 3500 
L 1159 3500 
L 1159 2956 
Q 1366 3272 1645 3428 
Q 1925 3584 2291 3584 
Q 2894 3584 3203 3211 
Q 3513 2838 3513 2113 
z
" transform="scale(0.015625)"/>
       <path id="DejaVuSans-64" d="M 2906 2969 
L 2906 4863 
L 3481 4863 
L 3481 0 
L 2906 0 
L 2906 525 
Q 2725 213 2448 61 
Q 2172 -91 1784 -91 
Q 1150 -91 751 415 
Q 353 922 353 1747 
Q 353 2572 751 3078 
Q 1150 3584 1784 3584 
Q 2172 3584 2448 3432 
Q 2725 3281 2906 2969 
z
M 947 1747 
Q 947 1113 1208 752 
Q 1469 391 1925 391 
Q 2381 391 2643 752 
Q 2906 1113 2906 1747 
Q 2906 2381 2643 2742 
Q 2381 3103 1925 3103 
Q 1469 3103 1208 2742 
Q 947 2381 947 1747 
z
" transform="scale(0.015625)"/>
       <path id="DejaVuSans-29" d="M 513 4856 
L 1013 4856 
Q 1481 4119 1714 3412 
Q 1947 2706 1947 2009 
Q 1947 1309 1714 600 
Q 1481 -109 1013 -844 
L 513 -844 
Q 928 -128 1133 580 
Q 1338 1288 1338 2009 
Q 1338 2731 1133 3434 
Q 928 4138 513 4856 
z
" transform="scale(0.015625)"/>
      </defs>
      <use xlink:href="#DejaVuSans-54"/>
      <use xlink:href="#DejaVuSans-69" transform="translate(57.958984 0)"/>
      <use xlink:href="#DejaVuSans-6d" transform="translate(85.742188 0)"/>
      <use xlink:href="#DejaVuSans-65" transform="translate(183.154297 0)"/>
      <use xlink:href="#DejaVuSans-20" transform="translate(244.677734 0)"/>
      <use xlink:href="#DejaVuSans-28" transform="translate(276.464844 0)"/>
      <use xlink:href="#DejaVuSans-73" transform="translate(315.478516 0)"/>
      <use xlink:href="#DejaVuSans-65" transform="translate(367.578125 0)"/>
      <use xlink:href="#DejaVuSans-63" transform="translate(429.101562 0)"/>
      <use xlink:href="#DejaVuSans-6f" transform="translate(484.082031 0)"/>
      <use xlink:href="#DejaVuSans-6e" transform="translate(545.263672 0)"/>
      <use xlink:href="#DejaVuSans-64" transform="translate(608.642578 0)"/>
      <use xlink:href="#DejaVuSans-73" transform="translate(672.119141 0)"/>
      <use xlink:href="#DejaVuSans-29" transform="translate(724.21875 0)"/>
     </g>
    </g>
   </g>
   <g id="matplotlib.axis_2">
    <g id="text_7">
     <!-- Signal Amplitude -->
     <g transform="translate(74.920312 260.731094) rotate(-90) scale(0.1 -0.1)">
      <defs>
       <path id="DejaVuSans-53" d="M 3425 4513 
L 3425 3897 
Q 3066 4069 2747 4153 
Q 2428 4238 2131 4238 
Q 1616 4238 1336 4038 
Q 1056 3838 1056 3469 
Q 1056 3159 1242 3001 
Q 1428 2844 1947 2747 
L 2328 2669 
Q 3034 2534 3370 2195 
Q 3706 1856 3706 1288 
Q 3706 609 3251 259 
Q 2797 -91 1919 -91 
Q 1588 -91 1214 -16 
Q 841 59 441 206 
L 441 856 
Q 825 641 1194 531 
Q 1563 422 1919 422 
Q 2459 422 2753 634 
Q 3047 847 3047 1241 
Q 3047 1584 2836 1778 
Q 2625 1972 2144 2069 
L 1759 2144 
Q 1053 2284 737 2584 
Q 422 2884 422 3419 
Q 422 4038 858 4394 
Q 1294 4750 2059 4750 
Q 2388 4750 2728 4690 
Q 3069 4631 3425 4513 
z
" transform="scale(0.015625)"/>
       <path id="DejaVuSans-67" d="M 2906 1791 
Q 2906 2416 2648 2759 
Q 2391 3103 1925 3103 
Q 1463 3103 1205 2759 
Q 947 2416 947 1791 
Q 947 1169 1205 825 
Q 1463 481 1925 481 
Q 2391 481 2648 825 
Q 2906 1169 2906 1791 
z
M 3481 434 
Q 3481 -459 3084 -895 
Q 2688 -1331 1869 -1331 
Q 1566 -1331 1297 -1286 
Q 1028 -1241 775 -1147 
L 775 -588 
Q 1028 -725 1275 -790 
Q 1522 -856 1778 -856 
Q 2344 -856 2625 -561 
Q 2906 -266 2906 331 
L 2906 616 
Q 2728 306 2450 153 
Q 2172 0 1784 0 
Q 1141 0 747 490 
Q 353 981 353 1791 
Q 353 2603 747 3093 
Q 1141 3584 1784 3584 
Q 2172 3584 2450 3431 
Q 2728 3278 2906 2969 
L 2906 3500 
L 3481 3500 
L 3481 434 
z
" transform="scale(0.015625)"/>
       <path id="DejaVuSans-61" d="M 2194 1759 
Q 1497 1759 1228 1600 
Q 959 1441 959 1056 
Q 959 750 1161 570 
Q 1363 391 1709 391 
Q 2188 391 2477 730 
Q 2766 1069 2766 1631 
L 2766 1759 
L 2194 1759 
z
M 3341 1997 
L 3341 0 
L 2766 0 
L 2766 531 
Q 2569 213 2275 61 
Q 1981 -91 1556 -91 
Q 1019 -91 701 211 
Q 384 513 384 1019 
Q 384 1609 779 1909 
Q 1175 2209 1959 2209 
L 2766 2209 
L 2766 2266 
Q 2766 2663 2505 2880 
Q 2244 3097 1772 3097 
Q 1472 3097 1187 3025 
Q 903 2953 641 2809 
L 641 3341 
Q 956 3463 1253 3523 
Q 1550 3584 1831 3584 
Q 2591 3584 2966 3190 
Q 3341 2797 3341 1997 
z
" transform="scale(0.015625)"/>
       <path id="DejaVuSans-6c" d="M 603 4863 
L 1178 4863 
L 1178 0 
L 603 0 
L 603 4863 
z
" transform="scale(0.015625)"/>
       <path id="DejaVuSans-41" d="M 2188 4044 
L 1331 1722 
L 3047 1722 
L 2188 4044 
z
M 1831 4666 
L 2547 4666 
L 4325 0 
L 3669 0 
L 3244 1197 
L 1141 1197 
L 716 0 
L 50 0 
L 1831 4666 
z
" transform="scale(0.015625)"/>
       <path id="DejaVuSans-70" d="M 1159 525 
L 1159 -1331 
L 581 -1331 
L 581 3500 
L 1159 3500 
L 1159 2969 
Q 1341 3281 1617 3432 
Q 1894 3584 2278 3584 
Q 2916 3584 3314 3078 
Q 3713 2572 3713 1747 
Q 3713 922 3314 415 
Q 2916 -91 2278 -91 
Q 1894 -91 1617 61 
Q 1341 213 1159 525 
z
M 3116 1747 
Q 3116 2381 2855 2742 
Q 2594 3103 2138 3103 
Q 1681 3103 1420 2742 
Q 1159 2381 1159 1747 
Q 1159 1113 1420 752 
Q 1681 391 2138 391 
Q 2594 391 2855 752 
Q 3116 1113 3116 1747 
z
" transform="scale(0.015625)"/>
       <path id="DejaVuSans-74" d="M 1172 4494 
L 1172 3500 
L 2356 3500 
L 2356 3053 
L 1172 3053 
L 1172 1153 
Q 1172 725 1289 603 
Q 1406 481 1766 481 
L 2356 481 
L 2356 0 
L 1766 0 
Q 1100 0 847 248 
Q 594 497 594 1153 
L 594 3053 
L 172 3053 
L 172 3500 
L 594 3500 
L 594 4494 
L 1172 4494 
z
" transform="scale(0.015625)"/>
       <path id="DejaVuSans-75" d="M 544 1381 
L 544 3500 
L 1119 3500 
L 1119 1403 
Q 1119 906 1312 657 
Q 1506 409 1894 409 
Q 2359 409 2629 706 
Q 2900 1003 2900 1516 
L 2900 3500 
L 3475 3500 
L 3475 0 
L 2900 0 
L 2900 538 
Q 2691 219 2414 64 
Q 2138 -91 1772 -91 
Q 1169 -91 856 284 
Q 544 659 544 1381 
z
M 1991 3584 
L 1991 3584 
z
" transform="scale(0.015625)"/>
      </defs>
      <use xlink:href="#DejaVuSans-53"/>
      <use xlink:href="#DejaVuSans-69" transform="translate(63.476562 0)"/>
      <use xlink:href="#DejaVuSans-67" transform="translate(91.259766 0)"/>
      <use xlink:href="#DejaVuSans-6e" transform="translate(154.736328 0)"/>
      <use xlink:href="#DejaVuSans-61" transform="translate(218.115234 0)"/>
      <use xlink:href="#DejaVuSans-6c" transform="translate(279.394531 0)"/>
      <use xlink:href="#DejaVuSans-20" transform="translate(307.177734 0)"/>
      <use xlink:href="#DejaVuSans-41" transform="translate(338.964844 0)"/>
      <use xlink:href="#DejaVuSans-6d" transform="translate(407.373047 0)"/>
      <use xlink:href="#DejaVuSans-70" transform="translate(504.785156 0)"/>
      <use xlink:href="#DejaVuSans-6c" transform="translate(568.261719 0)"/>
      <use xlink:href="#DejaVuSans-69" transform="translate(596.044922 0)"/>
      <use xlink:href="#DejaVuSans-74" transform="translate(623.828125 0)"/>
      <use xlink:href="#DejaVuSans-75" transform="translate(663.037109 0)"/>
      <use xlink:href="#DejaVuSans-64" transform="translate(726.416016 0)"/>
      <use xlink:href="#DejaVuSans-65" transform="translate(789.892578 0)"/>
     </g>
    </g>
   </g>
   <g id="line2d_6">
    <path d="M 103.827273 350.850844 
L 104.824097 351.52545 
L 106.817745 353.291939 
L 107.814569 353.575393 
L 108.811393 353.710616 
L 109.808218 353.579944 
L 110.805042 352.479394 
L 111.801866 352.201415 
L 112.79869 352.574683 
L 113.795514 351.561775 
L 114.792338 351.472671 
L 116.785987 354.226347 
L 117.782811 354.974602 
L 118.779635 354.165596 
L 119.776459 354.260768 
L 120.773283 355.145361 
L 121.770107 355.172644 
L 122.766931 353.869002 
L 124.76058 351.023897 
L 125.757404 350.277765 
L 126.754228 349.108305 
L 127.751052 350.097366 
L 128.747876 351.922839 
L 129.7447 352.477588 
L 130.741524 354.067847 
L 131.738349 354.4297 
L 132.735173 353.481152 
L 133.731997 352.860052 
L 134.728821 352.464475 
L 135.725645 351.358733 
L 137.719293 351.93729 
L 138.716118 352.421101 
L 139.712942 352.235634 
L 140.709766 352.304855 
L 141.70659 352.956272 
L 142.703414 352.964664 
L 143.700238 351.915055 
L 144.697062 350.355756 
L 145.693886 350.648498 
L 146.690711 351.235069 
L 148.684359 349.440232 
L 149.681183 349.820269 
L 151.674831 349.42117 
L 152.671655 348.604078 
L 153.66848 351.449182 
L 154.665304 353.429927 
L 155.662128 351.390444 
L 156.658952 351.328614 
L 157.655776 350.674989 
L 158.6526 350.385194 
L 159.649424 352.327485 
L 160.646249 353.933466 
L 161.643073 351.354304 
L 162.639897 349.387634 
L 163.636721 349.057119 
L 164.633545 348.434094 
L 165.630369 349.711073 
L 166.627193 351.360108 
L 167.624017 350.261309 
L 169.617666 351.143481 
L 170.61449 351.188519 
L 171.611314 350.507357 
L 172.608138 351.15851 
L 173.604962 352.360857 
L 174.601786 352.355634 
L 175.598611 354.752154 
L 176.595435 356.406892 
L 177.592259 355.059568 
L 178.589083 356.466121 
L 179.585907 356.853287 
L 180.582731 356.154177 
L 181.579555 355.790505 
L 183.573204 357.278465 
L 184.570028 357.83285 
L 185.566852 357.457409 
L 186.563676 356.102626 
L 187.5605 354.343646 
L 188.557324 354.341131 
L 189.554148 354.598348 
L 190.550973 353.31396 
L 191.547797 353.217434 
L 192.544621 353.761059 
L 193.541445 354.809854 
L 194.538269 356.438472 
L 195.535093 356.92502 
L 196.531917 355.923353 
L 197.528742 355.784881 
L 198.525566 356.636107 
L 199.52239 357.004045 
L 200.519214 354.751962 
L 201.516038 353.132025 
L 202.512862 351.820842 
L 203.509686 350.766617 
L 204.506511 351.51461 
L 205.503335 352.098984 
L 206.500159 353.096895 
L 207.496983 353.806199 
L 209.490631 353.028597 
L 210.487455 351.705769 
L 211.484279 349.778375 
L 212.481104 348.944445 
L 213.477928 350.137047 
L 216.4684 355.462414 
L 217.465224 354.481596 
L 218.462048 350.930666 
L 219.458873 350.016124 
L 220.455697 351.17629 
L 221.452521 352.135741 
L 222.449345 354.407017 
L 223.446169 355.105375 
L 224.442993 355.380751 
L 226.436642 354.857585 
L 227.433466 354.096394 
L 228.43029 352.992581 
L 229.427114 352.251501 
L 230.423938 352.017678 
L 231.420762 353.121195 
L 232.417586 354.806206 
L 233.41441 355.937532 
L 234.411235 355.835716 
L 235.408059 356.10528 
L 236.404883 356.029994 
L 237.401707 355.064735 
L 238.398531 354.557025 
L 239.395355 353.366243 
L 240.392179 352.527743 
L 241.389004 353.580534 
L 242.385828 354.835435 
L 244.379476 354.127043 
L 245.3763 354.318623 
L 246.373124 352.757251 
L 247.369948 352.225761 
L 248.366773 354.183727 
L 249.363597 352.507021 
L 250.360421 351.444835 
L 252.354069 348.221294 
L 253.350893 347.240349 
L 254.347717 344.647876 
L 255.344541 343.195023 
L 256.341366 343.090026 
L 257.33819 343.195868 
L 258.335014 342.555184 
L 259.331838 341.214593 
L 260.328662 342.204165 
L 261.325486 339.998951 
L 262.32231 335.008507 
L 263.319135 333.423703 
L 264.315959 329.618492 
L 265.312783 328.210982 
L 266.309607 327.977813 
L 267.306431 325.410974 
L 268.303255 324.429619 
L 269.300079 325.347263 
L 270.296904 324.796189 
L 272.290552 324.89909 
L 273.287376 324.536356 
L 274.2842 324.643507 
L 275.281024 325.411654 
L 276.277848 325.304254 
L 277.274672 324.40119 
L 278.271497 325.44223 
L 279.268321 328.987847 
L 282.258793 332.524492 
L 283.255617 333.471031 
L 284.252441 336.732345 
L 285.249266 342.715514 
L 286.24609 347.084299 
L 287.242914 349.27183 
L 288.239738 352.85834 
L 289.236562 355.957037 
L 291.23021 356.723684 
L 293.223859 357.806968 
L 294.220683 358.154159 
L 295.217507 358.758048 
L 296.214331 358.683151 
L 297.211155 358.313063 
L 298.207979 358.607566 
L 299.204803 357.013497 
L 300.201628 357.335777 
L 301.198452 359.710064 
L 302.195276 359.781712 
L 303.1921 357.905193 
L 304.188924 358.255473 
L 305.185748 358.005634 
L 306.182572 357.900871 
L 307.179397 357.667274 
L 308.176221 358.137905 
L 309.173045 356.527403 
L 310.169869 356.083464 
L 311.166693 356.167689 
L 312.163517 356.106986 
L 313.160341 356.809648 
L 315.15399 361.214443 
L 317.147638 369.36 
L 318.144462 363.291131 
L 319.141286 358.41203 
L 320.13811 356.652645 
L 321.134934 346.013972 
L 324.125407 295.019506 
L 326.119055 250.210023 
L 327.115879 221.430985 
L 329.109528 147.87441 
L 331.103176 83.293753 
L 332.1 66.96 
L 333.096824 72.594853 
L 334.093648 97.575712 
L 337.084121 226.783085 
L 339.077769 318.107489 
L 340.074593 340.513276 
L 341.071417 352.525463 
L 342.068241 358.591952 
L 343.065066 357.183632 
L 344.06189 354.190501 
L 345.058714 353.458825 
L 346.055538 351.91026 
L 347.052362 348.72296 
L 348.049186 349.164458 
L 349.04601 348.27272 
L 350.042834 348.834242 
L 352.036483 348.115714 
L 353.033307 348.936479 
L 354.030131 351.012204 
L 355.026955 351.992337 
L 356.023779 350.904294 
L 357.020603 350.350881 
L 358.017428 352.232271 
L 359.014252 352.577418 
L 360.011076 349.984349 
L 361.0079 350.000053 
L 362.004724 350.499353 
L 363.998372 350.619529 
L 364.995197 351.661508 
L 365.992021 353.162058 
L 366.988845 353.775082 
L 367.985669 354.7806 
L 368.982493 352.835813 
L 369.979317 350.110957 
L 371.972965 352.03533 
L 372.96979 351.748713 
L 373.966614 351.933388 
L 374.963438 351.547725 
L 375.960262 351.341551 
L 376.957086 351.878946 
L 377.95391 351.592457 
L 378.950734 349.241204 
L 379.947559 348.866852 
L 380.944383 350.364043 
L 381.941207 349.653354 
L 382.938031 349.858009 
L 383.934855 350.391138 
L 384.931679 348.742381 
L 385.928503 346.759141 
L 386.925328 346.447648 
L 387.922152 347.161099 
L 388.918976 346.617344 
L 389.9158 347.090252 
L 390.912624 347.953333 
L 391.909448 347.103988 
L 392.906272 346.772872 
L 393.903096 345.758447 
L 394.899921 343.481692 
L 395.896745 342.400325 
L 396.893569 342.998692 
L 397.890393 344.213391 
L 398.887217 344.842763 
L 399.884041 345.336996 
L 401.87769 347.514633 
L 402.874514 347.003714 
L 403.871338 346.038246 
L 404.868162 344.097975 
L 405.864986 342.453271 
L 407.858634 341.827412 
L 408.855459 341.808292 
L 409.852283 341.378202 
L 410.849107 340.768593 
L 411.845931 341.594603 
L 412.842755 341.811377 
L 413.839579 341.499063 
L 414.836403 341.845969 
L 415.833227 340.032277 
L 416.830052 337.938489 
L 417.826876 337.434136 
L 418.8237 336.545507 
L 421.814172 334.823663 
L 422.810996 334.618521 
L 423.807821 333.66641 
L 424.804645 334.196516 
L 425.801469 334.495737 
L 426.798293 335.346957 
L 427.795117 334.941453 
L 428.791941 332.033744 
L 429.788765 331.553277 
L 430.78559 331.754334 
L 431.782414 330.999627 
L 433.776062 328.912114 
L 434.772886 328.585844 
L 435.76971 328.794702 
L 436.766534 327.516818 
L 437.763358 326.771282 
L 438.760183 324.756182 
L 439.757007 321.436878 
L 441.750655 318.618619 
L 442.747479 317.476244 
L 443.744303 318.08648 
L 444.741127 317.4127 
L 445.737952 318.658656 
L 446.734776 317.90761 
L 447.7316 313.284254 
L 448.728424 310.162911 
L 449.725248 308.817223 
L 450.722072 306.238583 
L 451.718896 302.75538 
L 453.712545 301.790827 
L 454.709369 299.666165 
L 455.706193 296.971076 
L 456.703017 294.645211 
L 457.699841 291.605939 
L 458.696665 290.409796 
L 459.693489 289.90151 
L 460.690314 286.112968 
L 461.687138 281.761939 
L 462.683962 282.264268 
L 463.680786 282.160644 
L 464.67761 278.730886 
L 466.671258 276.885869 
L 467.668083 274.613986 
L 468.664907 274.9685 
L 469.661731 275.193259 
L 470.658555 273.980443 
L 471.655379 273.417301 
L 472.652203 273.539939 
L 473.649027 271.774407 
L 474.645852 268.617165 
L 475.642676 268.339619 
L 476.6395 268.901264 
L 477.636324 269.301202 
L 478.633148 270.109336 
L 479.629972 271.221226 
L 480.626796 272.921785 
L 482.620445 276.864984 
L 483.617269 277.078985 
L 484.614093 278.710348 
L 485.610917 280.991254 
L 486.607741 284.036702 
L 488.601389 292.18719 
L 489.598214 295.260085 
L 490.595038 298.731941 
L 491.591862 303.446067 
L 492.588686 306.597505 
L 493.58551 308.486922 
L 495.579158 316.122656 
L 496.575983 318.10452 
L 497.572807 318.792419 
L 498.569631 323.022536 
L 499.566455 326.485893 
L 500.563279 325.75107 
L 501.560103 327.775122 
L 502.556927 330.299566 
L 503.553751 330.594416 
L 504.550576 333.603044 
L 505.5474 335.953361 
L 506.544224 335.043536 
L 507.541048 337.279747 
L 508.537872 342.878952 
L 509.534696 344.105351 
L 510.53152 344.134245 
L 512.525169 346.685867 
L 513.521993 346.151948 
L 514.518817 346.823765 
L 515.515641 346.609033 
L 516.512465 346.964315 
L 517.509289 348.992078 
L 518.506114 349.464323 
L 519.502938 348.48484 
L 520.499762 349.729668 
L 521.496586 351.361403 
L 522.49341 350.897247 
L 523.490234 351.859005 
L 524.487058 353.341061 
L 525.483882 355.726618 
L 526.480707 356.792015 
L 527.477531 354.226401 
L 528.474355 354.236033 
L 529.471179 356.110642 
L 530.468003 354.625582 
L 531.464827 353.502292 
L 532.461651 354.634797 
L 533.458476 355.307876 
L 534.4553 355.726311 
L 535.452124 353.542954 
L 536.448948 353.131398 
L 537.445772 355.640958 
L 538.442596 355.061949 
L 539.43942 353.836508 
L 540.436245 354.459226 
L 541.433069 353.181564 
L 542.429893 353.214535 
L 543.426717 353.374472 
L 544.423541 352.980705 
L 545.420365 352.428805 
L 546.417189 352.66461 
L 547.414013 352.717561 
L 548.410838 353.531988 
L 549.407662 353.701177 
L 550.404486 352.786503 
L 551.40131 351.244254 
L 552.398134 350.221492 
L 553.394958 351.723804 
L 554.391782 352.462429 
L 555.388607 352.248986 
L 557.382255 351.489323 
L 558.379079 353.507326 
L 559.375903 353.772775 
L 560.372727 351.858082 
L 560.372727 351.858082 
" clip-path="url(#p4e15f1238f)" style="fill: none; stroke: #a2142f; stroke-width: 2; stroke-linecap: square"/>
   </g>
   <g id="patch_3">
    <path d="M 81 384.48 
L 81 51.84 
" style="fill: none; stroke: #000000; stroke-width: 0.8; stroke-linejoin: miter; stroke-linecap: square"/>
   </g>
   <g id="patch_4">
    <path d="M 583.2 384.48 
L 583.2 51.84 
" style="fill: none; stroke: #000000; stroke-width: 0.8; stroke-linejoin: miter; stroke-linecap: square"/>
   </g>
   <g id="patch_5">
    <path d="M 81 384.48 
L 583.2 384.48 
" style="fill: none; stroke: #000000; stroke-width: 0.8; stroke-linejoin: miter; stroke-linecap: square"/>
   </g>
   <g id="patch_6">
    <path d="M 81 51.84 
L 583.2 51.84 
" style="fill: none; stroke: #000000; stroke-width: 0.8; stroke-linejoin: miter; stroke-linecap: square"/>
   </g>
   <g id="text_8">
    <!-- ECG Signal -->
    <g transform="translate(299.131875 45.84) scale(0.12 -0.12)">
     <defs>
      <path id="DejaVuSans-45" d="M 628 4666 
L 3578 4666 
L 3578 4134 
L 1259 4134 
L 1259 2753 
L 3481 2753 
L 3481 2222 
L 1259 2222 
L 1259 531 
L 3634 531 
L 3634 0 
L 628 0 
L 628 4666 
z
" transform="scale(0.015625)"/>
      <path id="DejaVuSans-43" d="M 4122 4306 
L 4122 3641 
Q 3803 3938 3442 4084 
Q 3081 4231 2675 4231 
Q 1875 4231 1450 3742 
Q 1025 3253 1025 2328 
Q 1025 1406 1450 917 
Q 1875 428 2675 428 
Q 3081 428 3442 575 
Q 3803 722 4122 1019 
L 4122 359 
Q 3791 134 3420 21 
Q 3050 -91 2638 -91 
Q 1578 -91 968 557 
Q 359 1206 359 2328 
Q 359 3453 968 4101 
Q 1578 4750 2638 4750 
Q 3056 4750 3426 4639 
Q 3797 4528 4122 4306 
z
" transform="scale(0.015625)"/>
      <path id="DejaVuSans-47" d="M 3809 666 
L 3809 1919 
L 2778 1919 
L 2778 2438 
L 4434 2438 
L 4434 434 
Q 4069 175 3628 42 
Q 3188 -91 2688 -91 
Q 1594 -91 976 548 
Q 359 1188 359 2328 
Q 359 3472 976 4111 
Q 1594 4750 2688 4750 
Q 3144 4750 3555 4637 
Q 3966 4525 4313 4306 
L 4313 3634 
Q 3963 3931 3569 4081 
Q 3175 4231 2741 4231 
Q 1884 4231 1454 3753 
Q 1025 3275 1025 2328 
Q 1025 1384 1454 906 
Q 1884 428 2741 428 
Q 3075 428 3337 486 
Q 3600 544 3809 666 
z
" transform="scale(0.015625)"/>
     </defs>
     <use xlink:href="#DejaVuSans-45"/>
     <use xlink:href="#DejaVuSans-43" transform="translate(63.183594 0)"/>
     <use xlink:href="#DejaVuSans-47" transform="translate(133.007812 0)"/>
     <use xlink:href="#DejaVuSans-20" transform="translate(210.498047 0)"/>
     <use xlink:href="#DejaVuSans-53" transform="translate(242.285156 0)"/>
     <use xlink:href="#DejaVuSans-69" transform="translate(305.761719 0)"/>
     <use xlink:href="#DejaVuSans-67" transform="translate(333.544922 0)"/>
     <use xlink:href="#DejaVuSans-6e" transform="translate(397.021484 0)"/>
     <use xlink:href="#DejaVuSans-61" transform="translate(460.400391 0)"/>
     <use xlink:href="#DejaVuSans-6c" transform="translate(521.679688 0)"/>
    </g>
   </g>
  </g>
 </g>
 <defs>
  <clipPath id="p4e15f1238f">
   <rect x="81" y="51.84" width="502.2" height="332.64"/>
  </clipPath>
 </defs>
</svg>
