<?xml version="1.0" encoding="utf-8" standalone="no"?>
<!DOCTYPE svg PUBLIC "-//W3C//DTD SVG 1.1//EN"
  "http://www.w3.org/Graphics/SVG/1.1/DTD/svg11.dtd">
<svg xmlns:xlink="http://www.w3.org/1999/xlink" width="864pt" height="288pt" viewBox="0 0 864 288" xmlns="http://www.w3.org/2000/svg" version="1.1">
 <metadata>
  <rdf:RDF xmlns:dc="http://purl.org/dc/elements/1.1/" xmlns:cc="http://creativecommons.org/ns#" xmlns:rdf="http://www.w3.org/1999/02/22-rdf-syntax-ns#">
   <cc:Work>
    <dc:type rdf:resource="http://purl.org/dc/dcmitype/StillImage"/>
    <dc:date>2025-08-20T19:59:15.792414</dc:date>
    <dc:format>image/svg+xml</dc:format>
    <dc:creator>
     <cc:Agent>
      <dc:title>Matplotlib v3.10.5, https://matplotlib.org/</dc:title>
     </cc:Agent>
    </dc:creator>
   </cc:Work>
  </rdf:RDF>
 </metadata>
 <defs>
  <style type="text/css">*{stroke-linejoin: round; stroke-linecap: butt}</style>
 </defs>
 <g id="figure_1">
  <g id="patch_1">
   <path d="M 0 288 
L 864 288 
L 864 0 
L 0 0 
z
" style="fill: #ffffff"/>
  </g>
  <g id="axes_1">
   <g id="patch_2">
    <path d="M 24.478125 246.84375 
L 411.967188 246.84375 
L 411.967188 25.918125 
L 24.478125 25.918125 
z
" style="fill: #ffffff"/>
   </g>
   <g id="matplotlib.axis_1">
    <g id="xtick_1">
     <g id="line2d_1">
      <defs>
       <path id="m19bfe1383f" d="M 0 0 
L 0 3.5 
" style="stroke: #000000; stroke-width: 0.8"/>
      </defs>
      <g>
       <use xlink:href="#m19bfe1383f" x="24.478125" y="246.84375" style="stroke: #000000; stroke-width: 0.8"/>
      </g>
     </g>
     <g id="text_1">
      <!-- 0.0 -->
      <g transform="translate(16.526563 261.442187) scale(0.1 -0.1)">
       <defs>
        <path id="DejaVuSans-30" d="M 2034 4250 
Q 1547 4250 1301 3770 
Q 1056 3291 1056 2328 
Q 1056 1369 1301 889 
Q 1547 409 2034 409 
Q 2525 409 2770 889 
Q 3016 1369 3016 2328 
Q 3016 3291 2770 3770 
Q 2525 4250 2034 4250 
z
M 2034 4750 
Q 2819 4750 3233 4129 
Q 3647 3509 3647 2328 
Q 3647 1150 3233 529 
Q 2819 -91 2034 -91 
Q 1250 -91 836 529 
Q 422 1150 422 2328 
Q 422 3509 836 4129 
Q 1250 4750 2034 4750 
z
" transform="scale(0.015625)"/>
        <path id="DejaVuSans-2e" d="M 684 794 
L 1344 794 
L 1344 0 
L 684 0 
L 684 794 
z
" transform="scale(0.015625)"/>
       </defs>
       <use xlink:href="#DejaVuSans-30"/>
       <use xlink:href="#DejaVuSans-2e" transform="translate(63.623047 0)"/>
       <use xlink:href="#DejaVuSans-30" transform="translate(95.410156 0)"/>
      </g>
     </g>
    </g>
    <g id="xtick_2">
     <g id="line2d_2">
      <g>
       <use xlink:href="#m19bfe1383f" x="109.082724" y="246.84375" style="stroke: #000000; stroke-width: 0.8"/>
      </g>
     </g>
     <g id="text_2">
      <!-- 0.2 -->
      <g transform="translate(101.131161 261.442187) scale(0.1 -0.1)">
       <defs>
        <path id="DejaVuSans-32" d="M 1228 531 
L 3431 531 
L 3431 0 
L 469 0 
L 469 531 
Q 828 903 1448 1529 
Q 2069 2156 2228 2338 
Q 2531 2678 2651 2914 
Q 2772 3150 2772 3378 
Q 2772 3750 2511 3984 
Q 2250 4219 1831 4219 
Q 1534 4219 1204 4116 
Q 875 4013 500 3803 
L 500 4441 
Q 881 4594 1212 4672 
Q 1544 4750 1819 4750 
Q 2544 4750 2975 4387 
Q 3406 4025 3406 3419 
Q 3406 3131 3298 2873 
Q 3191 2616 2906 2266 
Q 2828 2175 2409 1742 
Q 1991 1309 1228 531 
z
" transform="scale(0.015625)"/>
       </defs>
       <use xlink:href="#DejaVuSans-30"/>
       <use xlink:href="#DejaVuSans-2e" transform="translate(63.623047 0)"/>
       <use xlink:href="#DejaVuSans-32" transform="translate(95.410156 0)"/>
      </g>
     </g>
    </g>
    <g id="xtick_3">
     <g id="line2d_3">
      <g>
       <use xlink:href="#m19bfe1383f" x="193.687323" y="246.84375" style="stroke: #000000; stroke-width: 0.8"/>
      </g>
     </g>
     <g id="text_3">
      <!-- 0.4 -->
      <g transform="translate(185.73576 261.442187) scale(0.1 -0.1)">
       <defs>
        <path id="DejaVuSans-34" d="M 2419 4116 
L 825 1625 
L 2419 1625 
L 2419 4116 
z
M 2253 4666 
L 3047 4666 
L 3047 1625 
L 3713 1625 
L 3713 1100 
L 3047 1100 
L 3047 0 
L 2419 0 
L 2419 1100 
L 313 1100 
L 313 1709 
L 2253 4666 
z
" transform="scale(0.015625)"/>
       </defs>
       <use xlink:href="#DejaVuSans-30"/>
       <use xlink:href="#DejaVuSans-2e" transform="translate(63.623047 0)"/>
       <use xlink:href="#DejaVuSans-34" transform="translate(95.410156 0)"/>
      </g>
     </g>
    </g>
    <g id="xtick_4">
     <g id="line2d_4">
      <g>
       <use xlink:href="#m19bfe1383f" x="278.291921" y="246.84375" style="stroke: #000000; stroke-width: 0.8"/>
      </g>
     </g>
     <g id="text_4">
      <!-- 0.6 -->
      <g transform="translate(270.340359 261.442187) scale(0.1 -0.1)">
       <defs>
        <path id="DejaVuSans-36" d="M 2113 2584 
Q 1688 2584 1439 2293 
Q 1191 2003 1191 1497 
Q 1191 994 1439 701 
Q 1688 409 2113 409 
Q 2538 409 2786 701 
Q 3034 994 3034 1497 
Q 3034 2003 2786 2293 
Q 2538 2584 2113 2584 
z
M 3366 4563 
L 3366 3988 
Q 3128 4100 2886 4159 
Q 2644 4219 2406 4219 
Q 1781 4219 1451 3797 
Q 1122 3375 1075 2522 
Q 1259 2794 1537 2939 
Q 1816 3084 2150 3084 
Q 2853 3084 3261 2657 
Q 3669 2231 3669 1497 
Q 3669 778 3244 343 
Q 2819 -91 2113 -91 
Q 1303 -91 875 529 
Q 447 1150 447 2328 
Q 447 3434 972 4092 
Q 1497 4750 2381 4750 
Q 2619 4750 2861 4703 
Q 3103 4656 3366 4563 
z
" transform="scale(0.015625)"/>
       </defs>
       <use xlink:href="#DejaVuSans-30"/>
       <use xlink:href="#DejaVuSans-2e" transform="translate(63.623047 0)"/>
       <use xlink:href="#DejaVuSans-36" transform="translate(95.410156 0)"/>
      </g>
     </g>
    </g>
    <g id="xtick_5">
     <g id="line2d_5">
      <g>
       <use xlink:href="#m19bfe1383f" x="362.89652" y="246.84375" style="stroke: #000000; stroke-width: 0.8"/>
      </g>
     </g>
     <g id="text_5">
      <!-- 0.8 -->
      <g transform="translate(354.944958 261.442187) scale(0.1 -0.1)">
       <defs>
        <path id="DejaVuSans-38" d="M 2034 2216 
Q 1584 2216 1326 1975 
Q 1069 1734 1069 1313 
Q 1069 891 1326 650 
Q 1584 409 2034 409 
Q 2484 409 2743 651 
Q 3003 894 3003 1313 
Q 3003 1734 2745 1975 
Q 2488 2216 2034 2216 
z
M 1403 2484 
Q 997 2584 770 2862 
Q 544 3141 544 3541 
Q 544 4100 942 4425 
Q 1341 4750 2034 4750 
Q 2731 4750 3128 4425 
Q 3525 4100 3525 3541 
Q 3525 3141 3298 2862 
Q 3072 2584 2669 2484 
Q 3125 2378 3379 2068 
Q 3634 1759 3634 1313 
Q 3634 634 3220 271 
Q 2806 -91 2034 -91 
Q 1263 -91 848 271 
Q 434 634 434 1313 
Q 434 1759 690 2068 
Q 947 2378 1403 2484 
z
M 1172 3481 
Q 1172 3119 1398 2916 
Q 1625 2713 2034 2713 
Q 2441 2713 2670 2916 
Q 2900 3119 2900 3481 
Q 2900 3844 2670 4047 
Q 2441 4250 2034 4250 
Q 1625 4250 1398 4047 
Q 1172 3844 1172 3481 
z
" transform="scale(0.015625)"/>
       </defs>
       <use xlink:href="#DejaVuSans-30"/>
       <use xlink:href="#DejaVuSans-2e" transform="translate(63.623047 0)"/>
       <use xlink:href="#DejaVuSans-38" transform="translate(95.410156 0)"/>
      </g>
     </g>
    </g>
    <g id="text_6">
     <!-- Time (seconds) -->
     <g transform="translate(180.060937 275.120313) scale(0.1 -0.1)">
      <defs>
       <path id="DejaVuSans-54" d="M -19 4666 
L 3928 4666 
L 3928 4134 
L 2272 4134 
L 2272 0 
L 1638 0 
L 1638 4134 
L -19 4134 
L -19 4666 
z
" transform="scale(0.015625)"/>
       <path id="DejaVuSans-69" d="M 603 3500 
L 1178 3500 
L 1178 0 
L 603 0 
L 603 3500 
z
M 603 4863 
L 1178 4863 
L 1178 4134 
L 603 4134 
L 603 4863 
z
" transform="scale(0.015625)"/>
       <path id="DejaVuSans-6d" d="M 3328 2828 
Q 3544 3216 3844 3400 
Q 4144 3584 4550 3584 
Q 5097 3584 5394 3201 
Q 5691 2819 5691 2113 
L 5691 0 
L 5113 0 
L 5113 2094 
Q 5113 2597 4934 2840 
Q 4756 3084 4391 3084 
Q 3944 3084 3684 2787 
Q 3425 2491 3425 1978 
L 3425 0 
L 2847 0 
L 2847 2094 
Q 2847 2600 2669 2842 
Q 2491 3084 2119 3084 
Q 1678 3084 1418 2786 
Q 1159 2488 1159 1978 
L 1159 0 
L 581 0 
L 581 3500 
L 1159 3500 
L 1159 2956 
Q 1356 3278 1631 3431 
Q 1906 3584 2284 3584 
Q 2666 3584 2933 3390 
Q 3200 3197 3328 2828 
z
" transform="scale(0.015625)"/>
       <path id="DejaVuSans-65" d="M 3597 1894 
L 3597 1613 
L 953 1613 
Q 991 1019 1311 708 
Q 1631 397 2203 397 
Q 2534 397 2845 478 
Q 3156 559 3463 722 
L 3463 178 
Q 3153 47 2828 -22 
Q 2503 -91 2169 -91 
Q 1331 -91 842 396 
Q 353 884 353 1716 
Q 353 2575 817 3079 
Q 1281 3584 2069 3584 
Q 2775 3584 3186 3129 
Q 3597 2675 3597 1894 
z
M 3022 2063 
Q 3016 2534 2758 2815 
Q 2500 3097 2075 3097 
Q 1594 3097 1305 2825 
Q 1016 2553 972 2059 
L 3022 2063 
z
" transform="scale(0.015625)"/>
       <path id="DejaVuSans-20" transform="scale(0.015625)"/>
       <path id="DejaVuSans-28" d="M 1984 4856 
Q 1566 4138 1362 3434 
Q 1159 2731 1159 2009 
Q 1159 1288 1364 580 
Q 1569 -128 1984 -844 
L 1484 -844 
Q 1016 -109 783 600 
Q 550 1309 550 2009 
Q 550 2706 781 3412 
Q 1013 4119 1484 4856 
L 1984 4856 
z
" transform="scale(0.015625)"/>
       <path id="DejaVuSans-73" d="M 2834 3397 
L 2834 2853 
Q 2591 2978 2328 3040 
Q 2066 3103 1784 3103 
Q 1356 3103 1142 2972 
Q 928 2841 928 2578 
Q 928 2378 1081 2264 
Q 1234 2150 1697 2047 
L 1894 2003 
Q 2506 1872 2764 1633 
Q 3022 1394 3022 966 
Q 3022 478 2636 193 
Q 2250 -91 1575 -91 
Q 1294 -91 989 -36 
Q 684 19 347 128 
L 347 722 
Q 666 556 975 473 
Q 1284 391 1588 391 
Q 1994 391 2212 530 
Q 2431 669 2431 922 
Q 2431 1156 2273 1281 
Q 2116 1406 1581 1522 
L 1381 1569 
Q 847 1681 609 1914 
Q 372 2147 372 2553 
Q 372 3047 722 3315 
Q 1072 3584 1716 3584 
Q 2034 3584 2315 3537 
Q 2597 3491 2834 3397 
z
" transform="scale(0.015625)"/>
       <path id="DejaVuSans-63" d="M 3122 3366 
L 3122 2828 
Q 2878 2963 2633 3030 
Q 2388 3097 2138 3097 
Q 1578 3097 1268 2742 
Q 959 2388 959 1747 
Q 959 1106 1268 751 
Q 1578 397 2138 397 
Q 2388 397 2633 464 
Q 2878 531 3122 666 
L 3122 134 
Q 2881 22 2623 -34 
Q 2366 -91 2075 -91 
Q 1284 -91 818 406 
Q 353 903 353 1747 
Q 353 2603 823 3093 
Q 1294 3584 2113 3584 
Q 2378 3584 2631 3529 
Q 2884 3475 3122 3366 
z
" transform="scale(0.015625)"/>
       <path id="DejaVuSans-6f" d="M 1959 3097 
Q 1497 3097 1228 2736 
Q 959 2375 959 1747 
Q 959 1119 1226 758 
Q 1494 397 1959 397 
Q 2419 397 2687 759 
Q 2956 1122 2956 1747 
Q 2956 2369 2687 2733 
Q 2419 3097 1959 3097 
z
M 1959 3584 
Q 2709 3584 3137 3096 
Q 3566 2609 3566 1747 
Q 3566 888 3137 398 
Q 2709 -91 1959 -91 
Q 1206 -91 779 398 
Q 353 888 353 1747 
Q 353 2609 779 3096 
Q 1206 3584 1959 3584 
z
" transform="scale(0.015625)"/>
       <path id="DejaVuSans-6e" d="M 3513 2113 
L 3513 0 
L 2938 0 
L 2938 2094 
Q 2938 2591 2744 2837 
Q 2550 3084 2163 3084 
Q 1697 3084 1428 2787 
Q 1159 2491 1159 1978 
L 1159 0 
L 581 0 
L 581 3500 
L 1159 3500 
L 1159 2956 
Q 1366 3272 1645 3428 
Q 1925 3584 2291 3584 
Q 2894 3584 3203 3211 
Q 3513 2838 3513 2113 
z
" transform="scale(0.015625)"/>
       <path id="DejaVuSans-64" d="M 2906 2969 
L 2906 4863 
L 3481 4863 
L 3481 0 
L 2906 0 
L 2906 525 
Q 2725 213 2448 61 
Q 2172 -91 1784 -91 
Q 1150 -91 751 415 
Q 353 922 353 1747 
Q 353 2572 751 3078 
Q 1150 3584 1784 3584 
Q 2172 3584 2448 3432 
Q 2725 3281 2906 2969 
z
M 947 1747 
Q 947 1113 1208 752 
Q 1469 391 1925 391 
Q 2381 391 2643 752 
Q 2906 1113 2906 1747 
Q 2906 2381 2643 2742 
Q 2381 3103 1925 3103 
Q 1469 3103 1208 2742 
Q 947 2381 947 1747 
z
" transform="scale(0.015625)"/>
       <path id="DejaVuSans-29" d="M 513 4856 
L 1013 4856 
Q 1481 4119 1714 3412 
Q 1947 2706 1947 2009 
Q 1947 1309 1714 600 
Q 1481 -109 1013 -844 
L 513 -844 
Q 928 -128 1133 580 
Q 1338 1288 1338 2009 
Q 1338 2731 1133 3434 
Q 928 4138 513 4856 
z
" transform="scale(0.015625)"/>
      </defs>
      <use xlink:href="#DejaVuSans-54"/>
      <use xlink:href="#DejaVuSans-69" transform="translate(57.958984 0)"/>
      <use xlink:href="#DejaVuSans-6d" transform="translate(85.742188 0)"/>
      <use xlink:href="#DejaVuSans-65" transform="translate(183.154297 0)"/>
      <use xlink:href="#DejaVuSans-20" transform="translate(244.677734 0)"/>
      <use xlink:href="#DejaVuSans-28" transform="translate(276.464844 0)"/>
      <use xlink:href="#DejaVuSans-73" transform="translate(315.478516 0)"/>
      <use xlink:href="#DejaVuSans-65" transform="translate(367.578125 0)"/>
      <use xlink:href="#DejaVuSans-63" transform="translate(429.101562 0)"/>
      <use xlink:href="#DejaVuSans-6f" transform="translate(484.082031 0)"/>
      <use xlink:href="#DejaVuSans-6e" transform="translate(545.263672 0)"/>
      <use xlink:href="#DejaVuSans-64" transform="translate(608.642578 0)"/>
      <use xlink:href="#DejaVuSans-73" transform="translate(672.119141 0)"/>
      <use xlink:href="#DejaVuSans-29" transform="translate(724.21875 0)"/>
     </g>
    </g>
   </g>
   <g id="matplotlib.axis_2">
    <g id="text_7">
     <!-- Signal Amplitude -->
     <g transform="translate(18.398438 178.952031) rotate(-90) scale(0.1 -0.1)">
      <defs>
       <path id="DejaVuSans-53" d="M 3425 4513 
L 3425 3897 
Q 3066 4069 2747 4153 
Q 2428 4238 2131 4238 
Q 1616 4238 1336 4038 
Q 1056 3838 1056 3469 
Q 1056 3159 1242 3001 
Q 1428 2844 1947 2747 
L 2328 2669 
Q 3034 2534 3370 2195 
Q 3706 1856 3706 1288 
Q 3706 609 3251 259 
Q 2797 -91 1919 -91 
Q 1588 -91 1214 -16 
Q 841 59 441 206 
L 441 856 
Q 825 641 1194 531 
Q 1563 422 1919 422 
Q 2459 422 2753 634 
Q 3047 847 3047 1241 
Q 3047 1584 2836 1778 
Q 2625 1972 2144 2069 
L 1759 2144 
Q 1053 2284 737 2584 
Q 422 2884 422 3419 
Q 422 4038 858 4394 
Q 1294 4750 2059 4750 
Q 2388 4750 2728 4690 
Q 3069 4631 3425 4513 
z
" transform="scale(0.015625)"/>
       <path id="DejaVuSans-67" d="M 2906 1791 
Q 2906 2416 2648 2759 
Q 2391 3103 1925 3103 
Q 1463 3103 1205 2759 
Q 947 2416 947 1791 
Q 947 1169 1205 825 
Q 1463 481 1925 481 
Q 2391 481 2648 825 
Q 2906 1169 2906 1791 
z
M 3481 434 
Q 3481 -459 3084 -895 
Q 2688 -1331 1869 -1331 
Q 1566 -1331 1297 -1286 
Q 1028 -1241 775 -1147 
L 775 -588 
Q 1028 -725 1275 -790 
Q 1522 -856 1778 -856 
Q 2344 -856 2625 -561 
Q 2906 -266 2906 331 
L 2906 616 
Q 2728 306 2450 153 
Q 2172 0 1784 0 
Q 1141 0 747 490 
Q 353 981 353 1791 
Q 353 2603 747 3093 
Q 1141 3584 1784 3584 
Q 2172 3584 2450 3431 
Q 2728 3278 2906 2969 
L 2906 3500 
L 3481 3500 
L 3481 434 
z
" transform="scale(0.015625)"/>
       <path id="DejaVuSans-61" d="M 2194 1759 
Q 1497 1759 1228 1600 
Q 959 1441 959 1056 
Q 959 750 1161 570 
Q 1363 391 1709 391 
Q 2188 391 2477 730 
Q 2766 1069 2766 1631 
L 2766 1759 
L 2194 1759 
z
M 3341 1997 
L 3341 0 
L 2766 0 
L 2766 531 
Q 2569 213 2275 61 
Q 1981 -91 1556 -91 
Q 1019 -91 701 211 
Q 384 513 384 1019 
Q 384 1609 779 1909 
Q 1175 2209 1959 2209 
L 2766 2209 
L 2766 2266 
Q 2766 2663 2505 2880 
Q 2244 3097 1772 3097 
Q 1472 3097 1187 3025 
Q 903 2953 641 2809 
L 641 3341 
Q 956 3463 1253 3523 
Q 1550 3584 1831 3584 
Q 2591 3584 2966 3190 
Q 3341 2797 3341 1997 
z
" transform="scale(0.015625)"/>
       <path id="DejaVuSans-6c" d="M 603 4863 
L 1178 4863 
L 1178 0 
L 603 0 
L 603 4863 
z
" transform="scale(0.015625)"/>
       <path id="DejaVuSans-41" d="M 2188 4044 
L 1331 1722 
L 3047 1722 
L 2188 4044 
z
M 1831 4666 
L 2547 4666 
L 4325 0 
L 3669 0 
L 3244 1197 
L 1141 1197 
L 716 0 
L 50 0 
L 1831 4666 
z
" transform="scale(0.015625)"/>
       <path id="DejaVuSans-70" d="M 1159 525 
L 1159 -1331 
L 581 -1331 
L 581 3500 
L 1159 3500 
L 1159 2969 
Q 1341 3281 1617 3432 
Q 1894 3584 2278 3584 
Q 2916 3584 3314 3078 
Q 3713 2572 3713 1747 
Q 3713 922 3314 415 
Q 2916 -91 2278 -91 
Q 1894 -91 1617 61 
Q 1341 213 1159 525 
z
M 3116 1747 
Q 3116 2381 2855 2742 
Q 2594 3103 2138 3103 
Q 1681 3103 1420 2742 
Q 1159 2381 1159 1747 
Q 1159 1113 1420 752 
Q 1681 391 2138 391 
Q 2594 391 2855 752 
Q 3116 1113 3116 1747 
z
" transform="scale(0.015625)"/>
       <path id="DejaVuSans-74" d="M 1172 4494 
L 1172 3500 
L 2356 3500 
L 2356 3053 
L 1172 3053 
L 1172 1153 
Q 1172 725 1289 603 
Q 1406 481 1766 481 
L 2356 481 
L 2356 0 
L 1766 0 
Q 1100 0 847 248 
Q 594 497 594 1153 
L 594 3053 
L 172 3053 
L 172 3500 
L 594 3500 
L 594 4494 
L 1172 4494 
z
" transform="scale(0.015625)"/>
       <path id="DejaVuSans-75" d="M 544 1381 
L 544 3500 
L 1119 3500 
L 1119 1403 
Q 1119 906 1312 657 
Q 1506 409 1894 409 
Q 2359 409 2629 706 
Q 2900 1003 2900 1516 
L 2900 3500 
L 3475 3500 
L 3475 0 
L 2900 0 
L 2900 538 
Q 2691 219 2414 64 
Q 2138 -91 1772 -91 
Q 1169 -91 856 284 
Q 544 659 544 1381 
z
M 1991 3584 
L 1991 3584 
z
" transform="scale(0.015625)"/>
      </defs>
      <use xlink:href="#DejaVuSans-53"/>
      <use xlink:href="#DejaVuSans-69" transform="translate(63.476562 0)"/>
      <use xlink:href="#DejaVuSans-67" transform="translate(91.259766 0)"/>
      <use xlink:href="#DejaVuSans-6e" transform="translate(154.736328 0)"/>
      <use xlink:href="#DejaVuSans-61" transform="translate(218.115234 0)"/>
      <use xlink:href="#DejaVuSans-6c" transform="translate(279.394531 0)"/>
      <use xlink:href="#DejaVuSans-20" transform="translate(307.177734 0)"/>
      <use xlink:href="#DejaVuSans-41" transform="translate(338.964844 0)"/>
      <use xlink:href="#DejaVuSans-6d" transform="translate(407.373047 0)"/>
      <use xlink:href="#DejaVuSans-70" transform="translate(504.785156 0)"/>
      <use xlink:href="#DejaVuSans-6c" transform="translate(568.261719 0)"/>
      <use xlink:href="#DejaVuSans-69" transform="translate(596.044922 0)"/>
      <use xlink:href="#DejaVuSans-74" transform="translate(623.828125 0)"/>
      <use xlink:href="#DejaVuSans-75" transform="translate(663.037109 0)"/>
      <use xlink:href="#DejaVuSans-64" transform="translate(726.416016 0)"/>
      <use xlink:href="#DejaVuSans-65" transform="translate(789.892578 0)"/>
     </g>
    </g>
   </g>
   <g id="line2d_6">
    <path d="M 24.478125 209.896783 
L 25.324171 197.112923 
L 26.170217 189.50897 
L 27.016263 190.055666 
L 27.862309 198.394333 
L 29.554401 224.808285 
L 30.400447 232.281817 
L 31.246493 232.108053 
L 32.092539 224.1799 
L 33.784631 197.079931 
L 34.630677 189.735621 
L 35.476723 190.639761 
L 36.322769 199.268973 
L 38.014861 225.233865 
L 38.860907 233.948301 
L 39.706953 233.965355 
L 40.552999 224.988974 
L 42.245091 196.799404 
L 43.091137 188.171519 
L 43.937183 187.440496 
L 44.783229 196.220234 
L 46.475321 224.119207 
L 47.321367 233.274751 
L 48.167413 233.500944 
L 49.013459 224.74653 
L 50.705551 197.699903 
L 51.551597 188.847228 
L 52.397643 189.00127 
L 53.243689 197.370362 
L 54.935781 223.967963 
L 55.781827 232.172713 
L 56.627873 232.579911 
L 57.473919 224.423676 
L 59.166011 196.381752 
L 60.012056 188.403263 
L 60.858102 188.769926 
L 61.704148 196.401713 
L 63.39624 222.458129 
L 64.242286 230.511778 
L 65.088332 230.370134 
L 65.934378 221.697893 
L 68.472516 188.86705 
L 69.318562 188.8284 
L 70.164608 196.581303 
L 71.8567 224.025378 
L 72.702746 233.190751 
L 73.548792 231.578528 
L 74.394838 222.18769 
L 76.08693 195.18053 
L 76.932976 187.817283 
L 77.779022 188.848087 
L 78.625068 196.322714 
L 80.31716 223.285262 
L 81.163206 231.474896 
L 82.009252 231.049105 
L 82.855298 223.294657 
L 84.54739 197.631867 
L 85.393436 190.96844 
L 86.239482 192.00281 
L 87.085528 199.322084 
L 88.77762 226.854437 
L 89.623666 234.578907 
L 90.469712 234.351577 
L 91.315758 226.664028 
L 93.00785 201.05565 
L 93.853896 192.659483 
L 94.699942 191.812615 
L 95.545988 198.874565 
L 97.23808 225.444885 
L 98.084126 232.8035 
L 98.930172 232.743163 
L 99.776218 224.921499 
L 101.46831 200.184031 
L 102.314356 192.326689 
L 103.160402 191.700552 
L 104.006448 199.775474 
L 105.69854 226.948675 
L 106.544586 233.702389 
L 107.390632 232.689773 
L 108.236678 223.708678 
L 109.92877 197.106147 
L 110.774816 189.309955 
L 111.620862 189.933745 
L 112.466908 198.538609 
L 114.159 224.46364 
L 115.005046 231.798227 
L 115.851092 230.593422 
L 116.697138 221.910655 
L 118.38923 197.31589 
L 119.235276 190.34347 
L 120.081322 191.41242 
L 120.927368 198.960797 
L 121.773414 209.94668 
L 122.61946 222.580557 
L 123.465506 231.467252 
L 124.311552 232.067001 
L 125.157598 225.325285 
L 126.84969 199.522854 
L 127.695736 191.193537 
L 128.541782 191.034345 
L 129.387828 198.720009 
L 131.079919 223.977881 
L 131.925965 231.9932 
L 132.772011 232.683003 
L 133.618057 225.574816 
L 135.310149 199.807251 
L 136.156195 191.814273 
L 137.002241 191.767212 
L 137.848287 199.325314 
L 139.540379 224.674701 
L 140.386425 232.31204 
L 141.232471 232.970135 
L 142.078517 225.593086 
L 143.770609 198.739167 
L 144.616655 190.697442 
L 145.462701 189.721435 
L 146.308747 197.550684 
L 147.154793 211.980153 
L 148.000839 224.137606 
L 148.846885 231.635119 
L 149.692931 230.607831 
L 150.538977 221.458617 
L 152.231069 192.813782 
L 153.077115 183.744129 
L 153.923161 183.678496 
L 154.769207 191.906138 
L 156.461299 217.078759 
L 157.307345 225.858816 
L 158.153391 224.480347 
L 158.999437 213.199362 
L 160.691529 183.418981 
L 161.537575 174.377671 
L 162.383621 174.231918 
L 163.229667 180.78888 
L 164.921759 207.160161 
L 165.767805 214.977168 
L 166.613851 215.029496 
L 167.459897 206.88001 
L 169.151989 180.30914 
L 169.998035 172.627824 
L 170.844081 172.560689 
L 171.690127 180.157669 
L 173.382219 209.435874 
L 174.228265 218.341775 
L 175.074311 219.024668 
L 175.920357 211.646615 
L 177.612449 187.865818 
L 178.458495 183.44439 
L 179.304541 186.175298 
L 180.150587 195.704195 
L 181.842679 226.294195 
L 182.688725 234.667505 
L 183.534771 234.934904 
L 184.380817 227.111404 
L 186.072909 201.2565 
L 186.918955 193.472507 
L 187.765001 193.425689 
L 188.611047 201.355829 
L 190.303139 226.954583 
L 191.149185 235.31752 
L 191.995231 236.801676 
L 192.841277 228.684983 
L 194.533369 201.31983 
L 195.379415 193.002176 
L 196.225461 192.936689 
L 197.071507 200.95215 
L 198.763599 226.650729 
L 199.609645 234.534705 
L 200.455691 234.587353 
L 201.301736 226.387927 
L 202.993828 201.834091 
L 203.839874 195.007989 
L 204.68592 197.638838 
L 206.378012 217.673151 
L 207.224058 227.8288 
L 208.070104 234.890497 
L 208.91615 228.24031 
L 209.762196 209.203324 
L 212.300334 140.189854 
L 213.14638 125.619618 
L 215.684518 96.222669 
L 216.530564 84.743344 
L 218.222656 45.643431 
L 219.068702 35.960199 
L 219.914748 38.37007 
L 220.760794 56.38452 
L 221.60684 83.074007 
L 222.452886 119.137024 
L 224.144978 202.634611 
L 224.991024 224.80185 
L 225.83707 232.310614 
L 226.683116 227.941269 
L 228.375208 198.778835 
L 229.221254 190.159986 
L 230.0673 189.191985 
L 230.913346 195.361099 
L 232.605438 221.490763 
L 233.451484 230.003248 
L 234.29753 229.766185 
L 235.143576 221.392619 
L 236.835668 196.792095 
L 237.681714 189.243291 
L 238.52776 188.56316 
L 239.373806 196.378705 
L 241.065898 224.18161 
L 241.911944 230.722175 
L 242.75799 230.731992 
L 243.604036 222.882621 
L 245.296128 196.546636 
L 246.142174 189.036491 
L 246.98822 189.974478 
L 247.834266 198.519158 
L 248.680312 212.353256 
L 249.526358 224.343132 
L 250.372404 230.801317 
L 251.21845 231.416514 
L 252.064496 223.842754 
L 253.756588 197.367923 
L 254.602634 188.965366 
L 255.44868 188.836488 
L 256.294726 197.333891 
L 257.986818 222.096158 
L 258.832864 230.023633 
L 259.67891 230.959521 
L 260.524956 222.353791 
L 262.217048 196.40387 
L 263.063094 187.211758 
L 263.90914 185.972044 
L 264.755186 193.938811 
L 266.447278 220.455994 
L 267.293324 228.913088 
L 268.13937 229.452596 
L 268.985416 220.760194 
L 270.677508 193.507995 
L 271.523553 183.923324 
L 272.369599 183.247367 
L 273.215645 191.782885 
L 274.907737 219.346712 
L 275.753783 227.817135 
L 276.599829 228.531291 
L 277.445875 221.016886 
L 279.137967 193.682896 
L 279.984013 184.30856 
L 280.830059 183.280463 
L 281.676105 191.251939 
L 283.368197 217.449877 
L 284.214243 225.342511 
L 285.060289 224.961447 
L 285.906335 217.316301 
L 287.598427 190.845473 
L 288.444473 182.900841 
L 289.290519 181.76711 
L 290.136565 188.619774 
L 291.828657 214.160134 
L 292.674703 221.974528 
L 293.520749 221.560747 
L 294.366795 213.083817 
L 296.058887 185.949316 
L 296.904933 178.119202 
L 297.750979 178.306244 
L 298.597025 186.999819 
L 300.289117 211.339851 
L 301.135163 219.200994 
L 301.981209 219.326674 
L 302.827255 210.693429 
L 304.519347 182.977427 
L 305.365393 174.611996 
L 306.211439 174.742552 
L 307.057485 182.105234 
L 308.749577 206.790679 
L 309.595623 212.877278 
L 310.441669 211.959228 
L 311.287715 202.954116 
L 312.979807 176.210371 
L 313.825853 167.627713 
L 314.671899 168.406555 
L 315.517945 176.09856 
L 317.210037 197.66849 
L 318.056083 204.988787 
L 318.902129 203.376891 
L 319.748175 193.038076 
L 321.440267 166.024031 
L 322.286313 156.534433 
L 323.132359 154.849745 
L 323.978405 161.557338 
L 325.670497 185.320906 
L 326.516543 193.164659 
L 327.362589 190.796459 
L 328.208635 179.915169 
L 329.900727 153.753291 
L 330.746773 143.447883 
L 331.592819 142.886755 
L 332.438865 150.456052 
L 333.284911 162.241462 
L 334.130957 175.66862 
L 334.977003 183.970597 
L 335.823049 183.212471 
L 336.669095 174.698972 
L 338.361187 147.2609 
L 339.207233 137.125841 
L 340.053279 136.952348 
L 340.899325 145.464911 
L 342.591416 172.631178 
L 343.437462 181.487697 
L 344.283508 182.550709 
L 345.129554 175.684619 
L 346.821646 150.576768 
L 347.667692 143.435045 
L 348.513738 144.860829 
L 349.359784 154.926006 
L 351.051876 186.431947 
L 351.897922 196.514281 
L 352.743968 198.684523 
L 353.590014 193.469821 
L 355.282106 170.20973 
L 356.128152 164.391636 
L 356.974198 166.821313 
L 357.820244 176.221648 
L 358.66629 189.857204 
L 359.512336 205.706985 
L 360.358382 216.033394 
L 361.204428 215.57406 
L 362.050474 208.677805 
L 363.742566 184.029026 
L 364.588612 177.748226 
L 365.434658 179.217398 
L 366.280704 186.810151 
L 367.12675 201.41355 
L 367.972796 218.119142 
L 368.818842 227.047239 
L 369.664888 227.065301 
L 370.510934 219.700816 
L 372.203026 193.753971 
L 373.049072 186.01244 
L 373.895118 185.878212 
L 374.741164 194.261777 
L 376.433256 222.235629 
L 377.279302 229.784839 
L 378.125348 230.562975 
L 378.971394 223.421485 
L 380.663486 197.321427 
L 381.509532 190.086372 
L 382.355578 191.577573 
L 383.201624 200.405029 
L 384.04767 212.006829 
L 384.893716 225.218403 
L 385.739762 234.551694 
L 386.585808 233.62339 
L 387.431854 224.759745 
L 389.123946 199.477301 
L 389.969992 191.577382 
L 390.816038 190.212575 
L 391.662084 198.116794 
L 393.354176 225.734679 
L 394.200222 233.130143 
L 395.046268 233.519401 
L 395.892314 224.559259 
L 397.584406 198.268738 
L 398.430452 189.861116 
L 399.276498 189.516125 
L 400.122544 197.825007 
L 401.814636 224.778307 
L 402.660682 233.045548 
L 403.506728 232.473789 
L 404.352774 223.348256 
L 406.044866 197.236913 
L 406.890912 189.537143 
L 407.736958 189.403721 
L 408.583004 197.346316 
L 410.275096 224.762891 
L 411.121142 233.090303 
L 411.967187 231.893438 
L 411.967187 231.893438 
" clip-path="url(#pc14f1d137f)" style="fill: none; stroke: #1f77b4; stroke-width: 1.5; stroke-linecap: square"/>
   </g>
   <g id="patch_3">
    <path d="M 24.478125 246.84375 
L 24.478125 25.918125 
" style="fill: none; stroke: #000000; stroke-width: 0.8; stroke-linejoin: miter; stroke-linecap: square"/>
   </g>
   <g id="patch_4">
    <path d="M 411.967188 246.84375 
L 411.967188 25.918125 
" style="fill: none; stroke: #000000; stroke-width: 0.8; stroke-linejoin: miter; stroke-linecap: square"/>
   </g>
   <g id="patch_5">
    <path d="M 24.478125 246.84375 
L 411.967187 246.84375 
" style="fill: none; stroke: #000000; stroke-width: 0.8; stroke-linejoin: miter; stroke-linecap: square"/>
   </g>
   <g id="patch_6">
    <path d="M 24.478125 25.918125 
L 411.967187 25.918125 
" style="fill: none; stroke: #000000; stroke-width: 0.8; stroke-linejoin: miter; stroke-linecap: square"/>
   </g>
   <g id="text_8">
    <!-- ECG with mains interference -->
    <g transform="translate(132.426406 19.918125) scale(0.12 -0.12)">
     <defs>
      <path id="DejaVuSans-45" d="M 628 4666 
L 3578 4666 
L 3578 4134 
L 1259 4134 
L 1259 2753 
L 3481 2753 
L 3481 2222 
L 1259 2222 
L 1259 531 
L 3634 531 
L 3634 0 
L 628 0 
L 628 4666 
z
" transform="scale(0.015625)"/>
      <path id="DejaVuSans-43" d="M 4122 4306 
L 4122 3641 
Q 3803 3938 3442 4084 
Q 3081 4231 2675 4231 
Q 1875 4231 1450 3742 
Q 1025 3253 1025 2328 
Q 1025 1406 1450 917 
Q 1875 428 2675 428 
Q 3081 428 3442 575 
Q 3803 722 4122 1019 
L 4122 359 
Q 3791 134 3420 21 
Q 3050 -91 2638 -91 
Q 1578 -91 968 557 
Q 359 1206 359 2328 
Q 359 3453 968 4101 
Q 1578 4750 2638 4750 
Q 3056 4750 3426 4639 
Q 3797 4528 4122 4306 
z
" transform="scale(0.015625)"/>
      <path id="DejaVuSans-47" d="M 3809 666 
L 3809 1919 
L 2778 1919 
L 2778 2438 
L 4434 2438 
L 4434 434 
Q 4069 175 3628 42 
Q 3188 -91 2688 -91 
Q 1594 -91 976 548 
Q 359 1188 359 2328 
Q 359 3472 976 4111 
Q 1594 4750 2688 4750 
Q 3144 4750 3555 4637 
Q 3966 4525 4313 4306 
L 4313 3634 
Q 3963 3931 3569 4081 
Q 3175 4231 2741 4231 
Q 1884 4231 1454 3753 
Q 1025 3275 1025 2328 
Q 1025 1384 1454 906 
Q 1884 428 2741 428 
Q 3075 428 3337 486 
Q 3600 544 3809 666 
z
" transform="scale(0.015625)"/>
      <path id="DejaVuSans-77" d="M 269 3500 
L 844 3500 
L 1563 769 
L 2278 3500 
L 2956 3500 
L 3675 769 
L 4391 3500 
L 4966 3500 
L 4050 0 
L 3372 0 
L 2619 2869 
L 1863 0 
L 1184 0 
L 269 3500 
z
" transform="scale(0.015625)"/>
      <path id="DejaVuSans-68" d="M 3513 2113 
L 3513 0 
L 2938 0 
L 2938 2094 
Q 2938 2591 2744 2837 
Q 2550 3084 2163 3084 
Q 1697 3084 1428 2787 
Q 1159 2491 1159 1978 
L 1159 0 
L 581 0 
L 581 4863 
L 1159 4863 
L 1159 2956 
Q 1366 3272 1645 3428 
Q 1925 3584 2291 3584 
Q 2894 3584 3203 3211 
Q 3513 2838 3513 2113 
z
" transform="scale(0.015625)"/>
      <path id="DejaVuSans-72" d="M 2631 2963 
Q 2534 3019 2420 3045 
Q 2306 3072 2169 3072 
Q 1681 3072 1420 2755 
Q 1159 2438 1159 1844 
L 1159 0 
L 581 0 
L 581 3500 
L 1159 3500 
L 1159 2956 
Q 1341 3275 1631 3429 
Q 1922 3584 2338 3584 
Q 2397 3584 2469 3576 
Q 2541 3569 2628 3553 
L 2631 2963 
z
" transform="scale(0.015625)"/>
      <path id="DejaVuSans-66" d="M 2375 4863 
L 2375 4384 
L 1825 4384 
Q 1516 4384 1395 4259 
Q 1275 4134 1275 3809 
L 1275 3500 
L 2222 3500 
L 2222 3053 
L 1275 3053 
L 1275 0 
L 697 0 
L 697 3053 
L 147 3053 
L 147 3500 
L 697 3500 
L 697 3744 
Q 697 4328 969 4595 
Q 1241 4863 1831 4863 
L 2375 4863 
z
" transform="scale(0.015625)"/>
     </defs>
     <use xlink:href="#DejaVuSans-45"/>
     <use xlink:href="#DejaVuSans-43" transform="translate(63.183594 0)"/>
     <use xlink:href="#DejaVuSans-47" transform="translate(133.007812 0)"/>
     <use xlink:href="#DejaVuSans-20" transform="translate(210.498047 0)"/>
     <use xlink:href="#DejaVuSans-77" transform="translate(242.285156 0)"/>
     <use xlink:href="#DejaVuSans-69" transform="translate(324.072266 0)"/>
     <use xlink:href="#DejaVuSans-74" transform="translate(351.855469 0)"/>
     <use xlink:href="#DejaVuSans-68" transform="translate(391.064453 0)"/>
     <use xlink:href="#DejaVuSans-20" transform="translate(454.443359 0)"/>
     <use xlink:href="#DejaVuSans-6d" transform="translate(486.230469 0)"/>
     <use xlink:href="#DejaVuSans-61" transform="translate(583.642578 0)"/>
     <use xlink:href="#DejaVuSans-69" transform="translate(644.921875 0)"/>
     <use xlink:href="#DejaVuSans-6e" transform="translate(672.705078 0)"/>
     <use xlink:href="#DejaVuSans-73" transform="translate(736.083984 0)"/>
     <use xlink:href="#DejaVuSans-20" transform="translate(788.183594 0)"/>
     <use xlink:href="#DejaVuSans-69" transform="translate(819.970703 0)"/>
     <use xlink:href="#DejaVuSans-6e" transform="translate(847.753906 0)"/>
     <use xlink:href="#DejaVuSans-74" transform="translate(911.132812 0)"/>
     <use xlink:href="#DejaVuSans-65" transform="translate(950.341797 0)"/>
     <use xlink:href="#DejaVuSans-72" transform="translate(1011.865234 0)"/>
     <use xlink:href="#DejaVuSans-66" transform="translate(1052.978516 0)"/>
     <use xlink:href="#DejaVuSans-65" transform="translate(1088.183594 0)"/>
     <use xlink:href="#DejaVuSans-72" transform="translate(1149.707031 0)"/>
     <use xlink:href="#DejaVuSans-65" transform="translate(1188.570312 0)"/>
     <use xlink:href="#DejaVuSans-6e" transform="translate(1250.09375 0)"/>
     <use xlink:href="#DejaVuSans-63" transform="translate(1313.472656 0)"/>
     <use xlink:href="#DejaVuSans-65" transform="translate(1368.453125 0)"/>
    </g>
   </g>
  </g>
  <g id="axes_2">
   <g id="patch_7">
    <path d="M 465.710938 246.84375 
L 853.2 246.84375 
L 853.2 25.918125 
L 465.710938 25.918125 
z
" style="fill: #ffffff"/>
   </g>
   <g id="matplotlib.axis_3">
    <g id="xtick_6">
     <g id="line2d_7">
      <path d="M 465.710938 246.84375 
L 465.710938 25.918125 
" clip-path="url(#p367286d278)" style="fill: none; stroke: #b0b0b0; stroke-width: 0.8; stroke-linecap: square"/>
     </g>
     <g id="line2d_8">
      <g>
       <use xlink:href="#m19bfe1383f" x="465.710938" y="246.84375" style="stroke: #000000; stroke-width: 0.8"/>
      </g>
     </g>
     <g id="text_9">
      <!-- 0 -->
      <g transform="translate(462.529688 261.442187) scale(0.1 -0.1)">
       <use xlink:href="#DejaVuSans-30"/>
      </g>
     </g>
    </g>
    <g id="xtick_7">
     <g id="line2d_9">
      <path d="M 543.377959 246.84375 
L 543.377959 25.918125 
" clip-path="url(#p367286d278)" style="fill: none; stroke: #b0b0b0; stroke-width: 0.8; stroke-linecap: square"/>
     </g>
     <g id="line2d_10">
      <g>
       <use xlink:href="#m19bfe1383f" x="543.377959" y="246.84375" style="stroke: #000000; stroke-width: 0.8"/>
      </g>
     </g>
     <g id="text_10">
      <!-- 50 -->
      <g transform="translate(537.015459 261.442187) scale(0.1 -0.1)">
       <defs>
        <path id="DejaVuSans-35" d="M 691 4666 
L 3169 4666 
L 3169 4134 
L 1269 4134 
L 1269 2991 
Q 1406 3038 1543 3061 
Q 1681 3084 1819 3084 
Q 2600 3084 3056 2656 
Q 3513 2228 3513 1497 
Q 3513 744 3044 326 
Q 2575 -91 1722 -91 
Q 1428 -91 1123 -41 
Q 819 9 494 109 
L 494 744 
Q 775 591 1075 516 
Q 1375 441 1709 441 
Q 2250 441 2565 725 
Q 2881 1009 2881 1497 
Q 2881 1984 2565 2268 
Q 2250 2553 1709 2553 
Q 1456 2553 1204 2497 
Q 953 2441 691 2322 
L 691 4666 
z
" transform="scale(0.015625)"/>
       </defs>
       <use xlink:href="#DejaVuSans-35"/>
       <use xlink:href="#DejaVuSans-30" transform="translate(63.623047 0)"/>
      </g>
     </g>
    </g>
    <g id="xtick_8">
     <g id="line2d_11">
      <path d="M 621.044981 246.84375 
L 621.044981 25.918125 
" clip-path="url(#p367286d278)" style="fill: none; stroke: #b0b0b0; stroke-width: 0.8; stroke-linecap: square"/>
     </g>
     <g id="line2d_12">
      <g>
       <use xlink:href="#m19bfe1383f" x="621.044981" y="246.84375" style="stroke: #000000; stroke-width: 0.8"/>
      </g>
     </g>
     <g id="text_11">
      <!-- 100 -->
      <g transform="translate(611.501231 261.442187) scale(0.1 -0.1)">
       <defs>
        <path id="DejaVuSans-31" d="M 794 531 
L 1825 531 
L 1825 4091 
L 703 3866 
L 703 4441 
L 1819 4666 
L 2450 4666 
L 2450 531 
L 3481 531 
L 3481 0 
L 794 0 
L 794 531 
z
" transform="scale(0.015625)"/>
       </defs>
       <use xlink:href="#DejaVuSans-31"/>
       <use xlink:href="#DejaVuSans-30" transform="translate(63.623047 0)"/>
       <use xlink:href="#DejaVuSans-30" transform="translate(127.246094 0)"/>
      </g>
     </g>
    </g>
    <g id="xtick_9">
     <g id="line2d_13">
      <path d="M 698.712003 246.84375 
L 698.712003 25.918125 
" clip-path="url(#p367286d278)" style="fill: none; stroke: #b0b0b0; stroke-width: 0.8; stroke-linecap: square"/>
     </g>
     <g id="line2d_14">
      <g>
       <use xlink:href="#m19bfe1383f" x="698.712003" y="246.84375" style="stroke: #000000; stroke-width: 0.8"/>
      </g>
     </g>
     <g id="text_12">
      <!-- 150 -->
      <g transform="translate(689.168253 261.442187) scale(0.1 -0.1)">
       <use xlink:href="#DejaVuSans-31"/>
       <use xlink:href="#DejaVuSans-35" transform="translate(63.623047 0)"/>
       <use xlink:href="#DejaVuSans-30" transform="translate(127.246094 0)"/>
      </g>
     </g>
    </g>
    <g id="xtick_10">
     <g id="line2d_15">
      <path d="M 776.379024 246.84375 
L 776.379024 25.918125 
" clip-path="url(#p367286d278)" style="fill: none; stroke: #b0b0b0; stroke-width: 0.8; stroke-linecap: square"/>
     </g>
     <g id="line2d_16">
      <g>
       <use xlink:href="#m19bfe1383f" x="776.379024" y="246.84375" style="stroke: #000000; stroke-width: 0.8"/>
      </g>
     </g>
     <g id="text_13">
      <!-- 200 -->
      <g transform="translate(766.835274 261.442187) scale(0.1 -0.1)">
       <use xlink:href="#DejaVuSans-32"/>
       <use xlink:href="#DejaVuSans-30" transform="translate(63.623047 0)"/>
       <use xlink:href="#DejaVuSans-30" transform="translate(127.246094 0)"/>
      </g>
     </g>
    </g>
    <g id="text_14">
     <!-- Frequency -->
     <g transform="translate(633.625781 275.120313) scale(0.1 -0.1)">
      <defs>
       <path id="DejaVuSans-46" d="M 628 4666 
L 3309 4666 
L 3309 4134 
L 1259 4134 
L 1259 2759 
L 3109 2759 
L 3109 2228 
L 1259 2228 
L 1259 0 
L 628 0 
L 628 4666 
z
" transform="scale(0.015625)"/>
       <path id="DejaVuSans-71" d="M 947 1747 
Q 947 1113 1208 752 
Q 1469 391 1925 391 
Q 2381 391 2643 752 
Q 2906 1113 2906 1747 
Q 2906 2381 2643 2742 
Q 2381 3103 1925 3103 
Q 1469 3103 1208 2742 
Q 947 2381 947 1747 
z
M 2906 525 
Q 2725 213 2448 61 
Q 2172 -91 1784 -91 
Q 1150 -91 751 415 
Q 353 922 353 1747 
Q 353 2572 751 3078 
Q 1150 3584 1784 3584 
Q 2172 3584 2448 3432 
Q 2725 3281 2906 2969 
L 2906 3500 
L 3481 3500 
L 3481 -1331 
L 2906 -1331 
L 2906 525 
z
" transform="scale(0.015625)"/>
       <path id="DejaVuSans-79" d="M 2059 -325 
Q 1816 -950 1584 -1140 
Q 1353 -1331 966 -1331 
L 506 -1331 
L 506 -850 
L 844 -850 
Q 1081 -850 1212 -737 
Q 1344 -625 1503 -206 
L 1606 56 
L 191 3500 
L 800 3500 
L 1894 763 
L 2988 3500 
L 3597 3500 
L 2059 -325 
z
" transform="scale(0.015625)"/>
      </defs>
      <use xlink:href="#DejaVuSans-46"/>
      <use xlink:href="#DejaVuSans-72" transform="translate(50.269531 0)"/>
      <use xlink:href="#DejaVuSans-65" transform="translate(89.132812 0)"/>
      <use xlink:href="#DejaVuSans-71" transform="translate(150.65625 0)"/>
      <use xlink:href="#DejaVuSans-75" transform="translate(214.132812 0)"/>
      <use xlink:href="#DejaVuSans-65" transform="translate(277.511719 0)"/>
      <use xlink:href="#DejaVuSans-6e" transform="translate(339.035156 0)"/>
      <use xlink:href="#DejaVuSans-63" transform="translate(402.414062 0)"/>
      <use xlink:href="#DejaVuSans-79" transform="translate(457.394531 0)"/>
     </g>
    </g>
   </g>
   <g id="matplotlib.axis_4">
    <g id="ytick_1">
     <g id="line2d_17">
      <path d="M 465.710938 236.826761 
L 853.2 236.826761 
" clip-path="url(#p367286d278)" style="fill: none; stroke: #b0b0b0; stroke-width: 0.8; stroke-linecap: square"/>
     </g>
     <g id="line2d_18">
      <defs>
       <path id="maeb6659249" d="M 0 0 
L -3.5 0 
" style="stroke: #000000; stroke-width: 0.8"/>
      </defs>
      <g>
       <use xlink:href="#maeb6659249" x="465.710938" y="236.826761" style="stroke: #000000; stroke-width: 0.8"/>
      </g>
     </g>
     <g id="text_15">
      <!-- 0.00 -->
      <g transform="translate(436.445313 240.625979) scale(0.1 -0.1)">
       <use xlink:href="#DejaVuSans-30"/>
       <use xlink:href="#DejaVuSans-2e" transform="translate(63.623047 0)"/>
       <use xlink:href="#DejaVuSans-30" transform="translate(95.410156 0)"/>
       <use xlink:href="#DejaVuSans-30" transform="translate(159.033203 0)"/>
      </g>
     </g>
    </g>
    <g id="ytick_2">
     <g id="line2d_19">
      <path d="M 465.710938 196.553315 
L 853.2 196.553315 
" clip-path="url(#p367286d278)" style="fill: none; stroke: #b0b0b0; stroke-width: 0.8; stroke-linecap: square"/>
     </g>
     <g id="line2d_20">
      <g>
       <use xlink:href="#maeb6659249" x="465.710938" y="196.553315" style="stroke: #000000; stroke-width: 0.8"/>
      </g>
     </g>
     <g id="text_16">
      <!-- 0.01 -->
      <g transform="translate(436.445313 200.352534) scale(0.1 -0.1)">
       <use xlink:href="#DejaVuSans-30"/>
       <use xlink:href="#DejaVuSans-2e" transform="translate(63.623047 0)"/>
       <use xlink:href="#DejaVuSans-30" transform="translate(95.410156 0)"/>
       <use xlink:href="#DejaVuSans-31" transform="translate(159.033203 0)"/>
      </g>
     </g>
    </g>
    <g id="ytick_3">
     <g id="line2d_21">
      <path d="M 465.710938 156.279869 
L 853.2 156.279869 
" clip-path="url(#p367286d278)" style="fill: none; stroke: #b0b0b0; stroke-width: 0.8; stroke-linecap: square"/>
     </g>
     <g id="line2d_22">
      <g>
       <use xlink:href="#maeb6659249" x="465.710938" y="156.279869" style="stroke: #000000; stroke-width: 0.8"/>
      </g>
     </g>
     <g id="text_17">
      <!-- 0.02 -->
      <g transform="translate(436.445313 160.079088) scale(0.1 -0.1)">
       <use xlink:href="#DejaVuSans-30"/>
       <use xlink:href="#DejaVuSans-2e" transform="translate(63.623047 0)"/>
       <use xlink:href="#DejaVuSans-30" transform="translate(95.410156 0)"/>
       <use xlink:href="#DejaVuSans-32" transform="translate(159.033203 0)"/>
      </g>
     </g>
    </g>
    <g id="ytick_4">
     <g id="line2d_23">
      <path d="M 465.710938 116.006423 
L 853.2 116.006423 
" clip-path="url(#p367286d278)" style="fill: none; stroke: #b0b0b0; stroke-width: 0.8; stroke-linecap: square"/>
     </g>
     <g id="line2d_24">
      <g>
       <use xlink:href="#maeb6659249" x="465.710938" y="116.006423" style="stroke: #000000; stroke-width: 0.8"/>
      </g>
     </g>
     <g id="text_18">
      <!-- 0.03 -->
      <g transform="translate(436.445313 119.805642) scale(0.1 -0.1)">
       <defs>
        <path id="DejaVuSans-33" d="M 2597 2516 
Q 3050 2419 3304 2112 
Q 3559 1806 3559 1356 
Q 3559 666 3084 287 
Q 2609 -91 1734 -91 
Q 1441 -91 1130 -33 
Q 819 25 488 141 
L 488 750 
Q 750 597 1062 519 
Q 1375 441 1716 441 
Q 2309 441 2620 675 
Q 2931 909 2931 1356 
Q 2931 1769 2642 2001 
Q 2353 2234 1838 2234 
L 1294 2234 
L 1294 2753 
L 1863 2753 
Q 2328 2753 2575 2939 
Q 2822 3125 2822 3475 
Q 2822 3834 2567 4026 
Q 2313 4219 1838 4219 
Q 1578 4219 1281 4162 
Q 984 4106 628 3988 
L 628 4550 
Q 988 4650 1302 4700 
Q 1616 4750 1894 4750 
Q 2613 4750 3031 4423 
Q 3450 4097 3450 3541 
Q 3450 3153 3228 2886 
Q 3006 2619 2597 2516 
z
" transform="scale(0.015625)"/>
       </defs>
       <use xlink:href="#DejaVuSans-30"/>
       <use xlink:href="#DejaVuSans-2e" transform="translate(63.623047 0)"/>
       <use xlink:href="#DejaVuSans-30" transform="translate(95.410156 0)"/>
       <use xlink:href="#DejaVuSans-33" transform="translate(159.033203 0)"/>
      </g>
     </g>
    </g>
    <g id="ytick_5">
     <g id="line2d_25">
      <path d="M 465.710938 75.732977 
L 853.2 75.732977 
" clip-path="url(#p367286d278)" style="fill: none; stroke: #b0b0b0; stroke-width: 0.8; stroke-linecap: square"/>
     </g>
     <g id="line2d_26">
      <g>
       <use xlink:href="#maeb6659249" x="465.710938" y="75.732977" style="stroke: #000000; stroke-width: 0.8"/>
      </g>
     </g>
     <g id="text_19">
      <!-- 0.04 -->
      <g transform="translate(436.445313 79.532196) scale(0.1 -0.1)">
       <use xlink:href="#DejaVuSans-30"/>
       <use xlink:href="#DejaVuSans-2e" transform="translate(63.623047 0)"/>
       <use xlink:href="#DejaVuSans-30" transform="translate(95.410156 0)"/>
       <use xlink:href="#DejaVuSans-34" transform="translate(159.033203 0)"/>
      </g>
     </g>
    </g>
    <g id="ytick_6">
     <g id="line2d_27">
      <path d="M 465.710938 35.459531 
L 853.2 35.459531 
" clip-path="url(#p367286d278)" style="fill: none; stroke: #b0b0b0; stroke-width: 0.8; stroke-linecap: square"/>
     </g>
     <g id="line2d_28">
      <g>
       <use xlink:href="#maeb6659249" x="465.710938" y="35.459531" style="stroke: #000000; stroke-width: 0.8"/>
      </g>
     </g>
     <g id="text_20">
      <!-- 0.05 -->
      <g transform="translate(436.445313 39.25875) scale(0.1 -0.1)">
       <use xlink:href="#DejaVuSans-30"/>
       <use xlink:href="#DejaVuSans-2e" transform="translate(63.623047 0)"/>
       <use xlink:href="#DejaVuSans-30" transform="translate(95.410156 0)"/>
       <use xlink:href="#DejaVuSans-35" transform="translate(159.033203 0)"/>
      </g>
     </g>
    </g>
    <g id="text_21">
     <!-- Magnitude (energy) -->
     <g transform="translate(430.365625 185.784844) rotate(-90) scale(0.1 -0.1)">
      <defs>
       <path id="DejaVuSans-4d" d="M 628 4666 
L 1569 4666 
L 2759 1491 
L 3956 4666 
L 4897 4666 
L 4897 0 
L 4281 0 
L 4281 4097 
L 3078 897 
L 2444 897 
L 1241 4097 
L 1241 0 
L 628 0 
L 628 4666 
z
" transform="scale(0.015625)"/>
      </defs>
      <use xlink:href="#DejaVuSans-4d"/>
      <use xlink:href="#DejaVuSans-61" transform="translate(86.279297 0)"/>
      <use xlink:href="#DejaVuSans-67" transform="translate(147.558594 0)"/>
      <use xlink:href="#DejaVuSans-6e" transform="translate(211.035156 0)"/>
      <use xlink:href="#DejaVuSans-69" transform="translate(274.414062 0)"/>
      <use xlink:href="#DejaVuSans-74" transform="translate(302.197266 0)"/>
      <use xlink:href="#DejaVuSans-75" transform="translate(341.40625 0)"/>
      <use xlink:href="#DejaVuSans-64" transform="translate(404.785156 0)"/>
      <use xlink:href="#DejaVuSans-65" transform="translate(468.261719 0)"/>
      <use xlink:href="#DejaVuSans-20" transform="translate(529.785156 0)"/>
      <use xlink:href="#DejaVuSans-28" transform="translate(561.572266 0)"/>
      <use xlink:href="#DejaVuSans-65" transform="translate(600.585938 0)"/>
      <use xlink:href="#DejaVuSans-6e" transform="translate(662.109375 0)"/>
      <use xlink:href="#DejaVuSans-65" transform="translate(725.488281 0)"/>
      <use xlink:href="#DejaVuSans-72" transform="translate(787.011719 0)"/>
      <use xlink:href="#DejaVuSans-67" transform="translate(826.375 0)"/>
      <use xlink:href="#DejaVuSans-79" transform="translate(889.851562 0)"/>
      <use xlink:href="#DejaVuSans-29" transform="translate(949.03125 0)"/>
     </g>
    </g>
   </g>
   <g id="line2d_29">
    <path d="M 465.710938 204.441597 
L 467.403029 163.84827 
L 469.095121 161.283033 
L 470.787213 98.992315 
L 472.479305 109.355276 
L 474.171397 134.156029 
L 475.863489 95.261962 
L 477.555581 77.866039 
L 479.247673 96.983781 
L 480.939765 104.68227 
L 484.323949 133.013964 
L 486.016041 135.798249 
L 487.708133 134.468658 
L 489.400225 132.496748 
L 491.092317 131.018339 
L 492.784409 134.782947 
L 494.476501 140.750717 
L 496.168593 146.282201 
L 499.552777 158.314848 
L 502.936961 167.905914 
L 504.629053 173.566071 
L 506.321145 177.871151 
L 508.013237 180.975928 
L 511.397421 189.054734 
L 514.781605 195.94415 
L 518.165789 205.806394 
L 519.857881 209.467996 
L 521.549973 212.148673 
L 523.242065 212.225193 
L 524.934157 211.43015 
L 526.626249 213.984873 
L 528.318341 217.289249 
L 533.394617 222.60044 
L 536.7788 222.207341 
L 538.470892 224.307253 
L 540.162984 223.927381 
L 541.855076 118.394954 
L 543.547168 35.960199 
L 545.23926 149.566831 
L 546.931352 227.844858 
L 548.623444 228.792388 
L 550.315536 230.478444 
L 552.007628 231.761338 
L 553.69972 232.127159 
L 555.391812 233.345661 
L 557.083904 233.82613 
L 558.775996 235.143385 
L 560.468088 235.504787 
L 562.16018 234.383886 
L 563.852272 234.293723 
L 565.544364 235.744835 
L 567.236456 235.919081 
L 568.928548 236.541052 
L 570.62064 236.143288 
L 572.312732 236.224568 
L 574.004824 236.135375 
L 575.696916 235.920197 
L 577.389008 235.53917 
L 579.0811 235.848941 
L 580.773192 235.557922 
L 582.465284 234.838551 
L 584.157376 235.000317 
L 585.849468 235.83096 
L 587.54156 236.168132 
L 589.233652 235.402425 
L 590.925744 234.879289 
L 592.617836 235.454567 
L 594.309928 235.839927 
L 596.00202 236.107287 
L 597.694112 236.253142 
L 601.078296 236.039703 
L 602.770388 235.651242 
L 604.46248 236.171454 
L 606.154572 236.339022 
L 607.846663 235.546679 
L 609.538755 234.976657 
L 611.230847 235.392178 
L 612.922939 236.372671 
L 619.691307 235.951864 
L 621.383399 235.556882 
L 623.075491 235.316838 
L 624.767583 234.737732 
L 626.459675 234.663375 
L 628.151767 235.202194 
L 629.843859 235.176864 
L 631.535951 235.021636 
L 633.228043 234.439647 
L 634.920135 234.428092 
L 636.612227 235.357709 
L 638.304319 235.469269 
L 639.996411 235.881013 
L 641.688503 236.448881 
L 646.764779 235.780224 
L 648.456871 235.706839 
L 650.148963 235.790923 
L 651.841055 235.752635 
L 655.225239 235.960169 
L 656.917331 235.792621 
L 658.609423 236.119352 
L 660.301515 236.629961 
L 661.993607 236.354127 
L 663.685699 236.330057 
L 668.761975 235.574171 
L 675.530343 235.635793 
L 678.914526 236.55582 
L 680.606618 236.464484 
L 682.29871 235.969389 
L 683.990802 236.024284 
L 685.682894 236.261249 
L 687.374986 236.021766 
L 689.067078 236.121795 
L 690.75917 236.588996 
L 692.451262 236.336824 
L 694.143354 236.32197 
L 695.835446 236.454887 
L 697.527538 236.750955 
L 699.21963 236.649508 
L 700.911722 236.207186 
L 702.603814 236.114611 
L 704.295906 235.841157 
L 705.987998 235.9296 
L 707.68009 235.315082 
L 709.372182 234.843504 
L 711.064274 234.837331 
L 714.448458 235.614773 
L 716.14055 236.009643 
L 717.832642 236.2176 
L 719.524734 236.002311 
L 721.216826 235.617374 
L 727.985194 236.493108 
L 731.369378 236.264131 
L 733.06147 236.501317 
L 738.137746 236.614699 
L 741.52193 236.614731 
L 743.214022 236.695507 
L 744.906114 236.494494 
L 746.598206 236.569134 
L 748.290297 236.801676 
L 749.982389 236.705188 
L 751.674481 236.407665 
L 753.366573 236.388255 
L 755.058665 236.626992 
L 756.750757 236.329247 
L 758.442849 236.207617 
L 761.827033 236.738206 
L 763.519125 236.70621 
L 765.211217 236.560124 
L 766.903309 236.056134 
L 768.595401 236.08436 
L 770.287493 236.451963 
L 771.979585 236.650182 
L 785.516321 236.526702 
L 787.208413 236.462379 
L 795.668873 236.749603 
L 804.129333 236.634792 
L 815.973977 236.400252 
L 822.742344 236.46114 
L 831.202804 236.800488 
L 843.047448 236.650973 
L 846.431632 236.759245 
L 853.2 236.777127 
L 853.2 236.777127 
" clip-path="url(#p367286d278)" style="fill: none; stroke: #1f77b4; stroke-width: 1.5; stroke-linecap: square"/>
   </g>
   <g id="patch_8">
    <path d="M 465.710938 246.84375 
L 465.710938 25.918125 
" style="fill: none; stroke: #000000; stroke-width: 0.8; stroke-linejoin: miter; stroke-linecap: square"/>
   </g>
   <g id="patch_9">
    <path d="M 853.2 246.84375 
L 853.2 25.918125 
" style="fill: none; stroke: #000000; stroke-width: 0.8; stroke-linejoin: miter; stroke-linecap: square"/>
   </g>
   <g id="patch_10">
    <path d="M 465.710938 246.84375 
L 853.2 246.84375 
" style="fill: none; stroke: #000000; stroke-width: 0.8; stroke-linejoin: miter; stroke-linecap: square"/>
   </g>
   <g id="patch_11">
    <path d="M 465.710938 25.918125 
L 853.2 25.918125 
" style="fill: none; stroke: #000000; stroke-width: 0.8; stroke-linejoin: miter; stroke-linecap: square"/>
   </g>
   <g id="patch_12">
    <path d="M 588.772784 73.784772 
Q 566.838694 55.266598 545.758891 37.469668 
" style="fill: none; stroke: #d62728; stroke-linecap: round"/>
    <path d="M 547.525081 41.578265 
L 545.758891 37.469668 
L 550.105483 38.521875 
" style="fill: none; stroke: #d62728; stroke-linecap: round"/>
   </g>
   <g id="text_22">
    <!-- Mains  -->
    <g transform="translate(574.444768 84.671888) scale(0.1 -0.1)">
     <use xlink:href="#DejaVuSans-4d"/>
     <use xlink:href="#DejaVuSans-61" transform="translate(86.279297 0)"/>
     <use xlink:href="#DejaVuSans-69" transform="translate(147.558594 0)"/>
     <use xlink:href="#DejaVuSans-6e" transform="translate(175.341797 0)"/>
     <use xlink:href="#DejaVuSans-73" transform="translate(238.720703 0)"/>
     <use xlink:href="#DejaVuSans-20" transform="translate(290.820312 0)"/>
    </g>
    <!-- Interference -->
    <g transform="translate(574.444768 95.8697) scale(0.1 -0.1)">
     <defs>
      <path id="DejaVuSans-49" d="M 628 4666 
L 1259 4666 
L 1259 0 
L 628 0 
L 628 4666 
z
" transform="scale(0.015625)"/>
     </defs>
     <use xlink:href="#DejaVuSans-49"/>
     <use xlink:href="#DejaVuSans-6e" transform="translate(29.492188 0)"/>
     <use xlink:href="#DejaVuSans-74" transform="translate(92.871094 0)"/>
     <use xlink:href="#DejaVuSans-65" transform="translate(132.080078 0)"/>
     <use xlink:href="#DejaVuSans-72" transform="translate(193.603516 0)"/>
     <use xlink:href="#DejaVuSans-66" transform="translate(234.716797 0)"/>
     <use xlink:href="#DejaVuSans-65" transform="translate(269.921875 0)"/>
     <use xlink:href="#DejaVuSans-72" transform="translate(331.445312 0)"/>
     <use xlink:href="#DejaVuSans-65" transform="translate(370.308594 0)"/>
     <use xlink:href="#DejaVuSans-6e" transform="translate(431.832031 0)"/>
     <use xlink:href="#DejaVuSans-63" transform="translate(495.210938 0)"/>
     <use xlink:href="#DejaVuSans-65" transform="translate(550.191406 0)"/>
    </g>
   </g>
   <g id="text_23">
    <!-- Spectrum of noisy ECG -->
    <g transform="translate(590.429219 19.918125) scale(0.12 -0.12)">
     <use xlink:href="#DejaVuSans-53"/>
     <use xlink:href="#DejaVuSans-70" transform="translate(63.476562 0)"/>
     <use xlink:href="#DejaVuSans-65" transform="translate(126.953125 0)"/>
     <use xlink:href="#DejaVuSans-63" transform="translate(188.476562 0)"/>
     <use xlink:href="#DejaVuSans-74" transform="translate(243.457031 0)"/>
     <use xlink:href="#DejaVuSans-72" transform="translate(282.666016 0)"/>
     <use xlink:href="#DejaVuSans-75" transform="translate(323.779297 0)"/>
     <use xlink:href="#DejaVuSans-6d" transform="translate(387.158203 0)"/>
     <use xlink:href="#DejaVuSans-20" transform="translate(484.570312 0)"/>
     <use xlink:href="#DejaVuSans-6f" transform="translate(516.357422 0)"/>
     <use xlink:href="#DejaVuSans-66" transform="translate(577.539062 0)"/>
     <use xlink:href="#DejaVuSans-20" transform="translate(612.744141 0)"/>
     <use xlink:href="#DejaVuSans-6e" transform="translate(644.53125 0)"/>
     <use xlink:href="#DejaVuSans-6f" transform="translate(707.910156 0)"/>
     <use xlink:href="#DejaVuSans-69" transform="translate(769.091797 0)"/>
     <use xlink:href="#DejaVuSans-73" transform="translate(796.875 0)"/>
     <use xlink:href="#DejaVuSans-79" transform="translate(848.974609 0)"/>
     <use xlink:href="#DejaVuSans-20" transform="translate(908.154297 0)"/>
     <use xlink:href="#DejaVuSans-45" transform="translate(939.941406 0)"/>
     <use xlink:href="#DejaVuSans-43" transform="translate(1003.125 0)"/>
     <use xlink:href="#DejaVuSans-47" transform="translate(1072.949219 0)"/>
    </g>
   </g>
  </g>
 </g>
 <defs>
  <clipPath id="pc14f1d137f">
   <rect x="24.478125" y="25.918125" width="387.489062" height="220.925625"/>
  </clipPath>
  <clipPath id="p367286d278">
   <rect x="465.710938" y="25.918125" width="387.489062" height="220.925625"/>
  </clipPath>
 </defs>
</svg>
