<?xml version="1.0" encoding="utf-8" standalone="no"?>
<!DOCTYPE svg PUBLIC "-//W3C//DTD SVG 1.1//EN"
  "http://www.w3.org/Graphics/SVG/1.1/DTD/svg11.dtd">
<svg xmlns:xlink="http://www.w3.org/1999/xlink" width="648pt" height="432pt" viewBox="0 0 648 432" xmlns="http://www.w3.org/2000/svg" version="1.1">
 <metadata>
  <rdf:RDF xmlns:dc="http://purl.org/dc/elements/1.1/" xmlns:cc="http://creativecommons.org/ns#" xmlns:rdf="http://www.w3.org/1999/02/22-rdf-syntax-ns#">
   <cc:Work>
    <dc:type rdf:resource="http://purl.org/dc/dcmitype/StillImage"/>
    <dc:date>2025-08-04T13:47:49.095380</dc:date>
    <dc:format>image/svg+xml</dc:format>
    <dc:creator>
     <cc:Agent>
      <dc:title>Matplotlib v3.10.3, https://matplotlib.org/</dc:title>
     </cc:Agent>
    </dc:creator>
   </cc:Work>
  </rdf:RDF>
 </metadata>
 <defs>
  <style type="text/css">*{stroke-linejoin: round; stroke-linecap: butt}</style>
 </defs>
 <g id="figure_1">
  <g id="patch_1">
   <path d="M 0 432 
L 648 432 
L 648 0 
L 0 0 
z
" style="fill: #ffffff"/>
  </g>
  <g id="axes_1">
   <g id="patch_2">
    <path d="M 81 384.48 
L 583.2 384.48 
L 583.2 51.84 
L 81 51.84 
z
" style="fill: #ffffff"/>
   </g>
   <g id="matplotlib.axis_1">
    <g id="xtick_1">
     <g id="line2d_1">
      <defs>
       <path id="mde314abd6d" d="M 0 0 
L 0 3.5 
" style="stroke: #000000; stroke-width: 0.8"/>
      </defs>
      <g>
       <use xlink:href="#mde314abd6d" x="103.827273" y="384.48" style="stroke: #000000; stroke-width: 0.8"/>
      </g>
     </g>
     <g id="text_1">
      <!-- 0 -->
      <g transform="translate(100.646023 399.078438) scale(0.1 -0.1)">
       <defs>
        <path id="DejaVuSans-30" d="M 2034 4250 
Q 1547 4250 1301 3770 
Q 1056 3291 1056 2328 
Q 1056 1369 1301 889 
Q 1547 409 2034 409 
Q 2525 409 2770 889 
Q 3016 1369 3016 2328 
Q 3016 3291 2770 3770 
Q 2525 4250 2034 4250 
z
M 2034 4750 
Q 2819 4750 3233 4129 
Q 3647 3509 3647 2328 
Q 3647 1150 3233 529 
Q 2819 -91 2034 -91 
Q 1250 -91 836 529 
Q 422 1150 422 2328 
Q 422 3509 836 4129 
Q 1250 4750 2034 4750 
z
" transform="scale(0.015625)"/>
       </defs>
       <use xlink:href="#DejaVuSans-30"/>
      </g>
     </g>
    </g>
    <g id="xtick_2">
     <g id="line2d_2">
      <g>
       <use xlink:href="#mde314abd6d" x="195.136364" y="384.48" style="stroke: #000000; stroke-width: 0.8"/>
      </g>
     </g>
     <g id="text_2">
      <!-- 50 -->
      <g transform="translate(188.773864 399.078438) scale(0.1 -0.1)">
       <defs>
        <path id="DejaVuSans-35" d="M 691 4666 
L 3169 4666 
L 3169 4134 
L 1269 4134 
L 1269 2991 
Q 1406 3038 1543 3061 
Q 1681 3084 1819 3084 
Q 2600 3084 3056 2656 
Q 3513 2228 3513 1497 
Q 3513 744 3044 326 
Q 2575 -91 1722 -91 
Q 1428 -91 1123 -41 
Q 819 9 494 109 
L 494 744 
Q 775 591 1075 516 
Q 1375 441 1709 441 
Q 2250 441 2565 725 
Q 2881 1009 2881 1497 
Q 2881 1984 2565 2268 
Q 2250 2553 1709 2553 
Q 1456 2553 1204 2497 
Q 953 2441 691 2322 
L 691 4666 
z
" transform="scale(0.015625)"/>
       </defs>
       <use xlink:href="#DejaVuSans-35"/>
       <use xlink:href="#DejaVuSans-30" transform="translate(63.623047 0)"/>
      </g>
     </g>
    </g>
    <g id="xtick_3">
     <g id="line2d_3">
      <g>
       <use xlink:href="#mde314abd6d" x="286.445455" y="384.48" style="stroke: #000000; stroke-width: 0.8"/>
      </g>
     </g>
     <g id="text_3">
      <!-- 100 -->
      <g transform="translate(276.901705 399.078438) scale(0.1 -0.1)">
       <defs>
        <path id="DejaVuSans-31" d="M 794 531 
L 1825 531 
L 1825 4091 
L 703 3866 
L 703 4441 
L 1819 4666 
L 2450 4666 
L 2450 531 
L 3481 531 
L 3481 0 
L 794 0 
L 794 531 
z
" transform="scale(0.015625)"/>
       </defs>
       <use xlink:href="#DejaVuSans-31"/>
       <use xlink:href="#DejaVuSans-30" transform="translate(63.623047 0)"/>
       <use xlink:href="#DejaVuSans-30" transform="translate(127.246094 0)"/>
      </g>
     </g>
    </g>
    <g id="xtick_4">
     <g id="line2d_4">
      <g>
       <use xlink:href="#mde314abd6d" x="377.754545" y="384.48" style="stroke: #000000; stroke-width: 0.8"/>
      </g>
     </g>
     <g id="text_4">
      <!-- 150 -->
      <g transform="translate(368.210795 399.078438) scale(0.1 -0.1)">
       <use xlink:href="#DejaVuSans-31"/>
       <use xlink:href="#DejaVuSans-35" transform="translate(63.623047 0)"/>
       <use xlink:href="#DejaVuSans-30" transform="translate(127.246094 0)"/>
      </g>
     </g>
    </g>
    <g id="xtick_5">
     <g id="line2d_5">
      <g>
       <use xlink:href="#mde314abd6d" x="469.063636" y="384.48" style="stroke: #000000; stroke-width: 0.8"/>
      </g>
     </g>
     <g id="text_5">
      <!-- 200 -->
      <g transform="translate(459.519886 399.078438) scale(0.1 -0.1)">
       <defs>
        <path id="DejaVuSans-32" d="M 1228 531 
L 3431 531 
L 3431 0 
L 469 0 
L 469 531 
Q 828 903 1448 1529 
Q 2069 2156 2228 2338 
Q 2531 2678 2651 2914 
Q 2772 3150 2772 3378 
Q 2772 3750 2511 3984 
Q 2250 4219 1831 4219 
Q 1534 4219 1204 4116 
Q 875 4013 500 3803 
L 500 4441 
Q 881 4594 1212 4672 
Q 1544 4750 1819 4750 
Q 2544 4750 2975 4387 
Q 3406 4025 3406 3419 
Q 3406 3131 3298 2873 
Q 3191 2616 2906 2266 
Q 2828 2175 2409 1742 
Q 1991 1309 1228 531 
z
" transform="scale(0.015625)"/>
       </defs>
       <use xlink:href="#DejaVuSans-32"/>
       <use xlink:href="#DejaVuSans-30" transform="translate(63.623047 0)"/>
       <use xlink:href="#DejaVuSans-30" transform="translate(127.246094 0)"/>
      </g>
     </g>
    </g>
    <g id="xtick_6">
     <g id="line2d_6">
      <g>
       <use xlink:href="#mde314abd6d" x="560.372727" y="384.48" style="stroke: #000000; stroke-width: 0.8"/>
      </g>
     </g>
     <g id="text_6">
      <!-- 250 -->
      <g transform="translate(550.828977 399.078438) scale(0.1 -0.1)">
       <use xlink:href="#DejaVuSans-32"/>
       <use xlink:href="#DejaVuSans-35" transform="translate(63.623047 0)"/>
       <use xlink:href="#DejaVuSans-30" transform="translate(127.246094 0)"/>
      </g>
     </g>
    </g>
    <g id="text_7">
     <!-- Frequency -->
     <g transform="translate(306.270313 412.756563) scale(0.1 -0.1)">
      <defs>
       <path id="DejaVuSans-46" d="M 628 4666 
L 3309 4666 
L 3309 4134 
L 1259 4134 
L 1259 2759 
L 3109 2759 
L 3109 2228 
L 1259 2228 
L 1259 0 
L 628 0 
L 628 4666 
z
" transform="scale(0.015625)"/>
       <path id="DejaVuSans-72" d="M 2631 2963 
Q 2534 3019 2420 3045 
Q 2306 3072 2169 3072 
Q 1681 3072 1420 2755 
Q 1159 2438 1159 1844 
L 1159 0 
L 581 0 
L 581 3500 
L 1159 3500 
L 1159 2956 
Q 1341 3275 1631 3429 
Q 1922 3584 2338 3584 
Q 2397 3584 2469 3576 
Q 2541 3569 2628 3553 
L 2631 2963 
z
" transform="scale(0.015625)"/>
       <path id="DejaVuSans-65" d="M 3597 1894 
L 3597 1613 
L 953 1613 
Q 991 1019 1311 708 
Q 1631 397 2203 397 
Q 2534 397 2845 478 
Q 3156 559 3463 722 
L 3463 178 
Q 3153 47 2828 -22 
Q 2503 -91 2169 -91 
Q 1331 -91 842 396 
Q 353 884 353 1716 
Q 353 2575 817 3079 
Q 1281 3584 2069 3584 
Q 2775 3584 3186 3129 
Q 3597 2675 3597 1894 
z
M 3022 2063 
Q 3016 2534 2758 2815 
Q 2500 3097 2075 3097 
Q 1594 3097 1305 2825 
Q 1016 2553 972 2059 
L 3022 2063 
z
" transform="scale(0.015625)"/>
       <path id="DejaVuSans-71" d="M 947 1747 
Q 947 1113 1208 752 
Q 1469 391 1925 391 
Q 2381 391 2643 752 
Q 2906 1113 2906 1747 
Q 2906 2381 2643 2742 
Q 2381 3103 1925 3103 
Q 1469 3103 1208 2742 
Q 947 2381 947 1747 
z
M 2906 525 
Q 2725 213 2448 61 
Q 2172 -91 1784 -91 
Q 1150 -91 751 415 
Q 353 922 353 1747 
Q 353 2572 751 3078 
Q 1150 3584 1784 3584 
Q 2172 3584 2448 3432 
Q 2725 3281 2906 2969 
L 2906 3500 
L 3481 3500 
L 3481 -1331 
L 2906 -1331 
L 2906 525 
z
" transform="scale(0.015625)"/>
       <path id="DejaVuSans-75" d="M 544 1381 
L 544 3500 
L 1119 3500 
L 1119 1403 
Q 1119 906 1312 657 
Q 1506 409 1894 409 
Q 2359 409 2629 706 
Q 2900 1003 2900 1516 
L 2900 3500 
L 3475 3500 
L 3475 0 
L 2900 0 
L 2900 538 
Q 2691 219 2414 64 
Q 2138 -91 1772 -91 
Q 1169 -91 856 284 
Q 544 659 544 1381 
z
M 1991 3584 
L 1991 3584 
z
" transform="scale(0.015625)"/>
       <path id="DejaVuSans-6e" d="M 3513 2113 
L 3513 0 
L 2938 0 
L 2938 2094 
Q 2938 2591 2744 2837 
Q 2550 3084 2163 3084 
Q 1697 3084 1428 2787 
Q 1159 2491 1159 1978 
L 1159 0 
L 581 0 
L 581 3500 
L 1159 3500 
L 1159 2956 
Q 1366 3272 1645 3428 
Q 1925 3584 2291 3584 
Q 2894 3584 3203 3211 
Q 3513 2838 3513 2113 
z
" transform="scale(0.015625)"/>
       <path id="DejaVuSans-63" d="M 3122 3366 
L 3122 2828 
Q 2878 2963 2633 3030 
Q 2388 3097 2138 3097 
Q 1578 3097 1268 2742 
Q 959 2388 959 1747 
Q 959 1106 1268 751 
Q 1578 397 2138 397 
Q 2388 397 2633 464 
Q 2878 531 3122 666 
L 3122 134 
Q 2881 22 2623 -34 
Q 2366 -91 2075 -91 
Q 1284 -91 818 406 
Q 353 903 353 1747 
Q 353 2603 823 3093 
Q 1294 3584 2113 3584 
Q 2378 3584 2631 3529 
Q 2884 3475 3122 3366 
z
" transform="scale(0.015625)"/>
       <path id="DejaVuSans-79" d="M 2059 -325 
Q 1816 -950 1584 -1140 
Q 1353 -1331 966 -1331 
L 506 -1331 
L 506 -850 
L 844 -850 
Q 1081 -850 1212 -737 
Q 1344 -625 1503 -206 
L 1606 56 
L 191 3500 
L 800 3500 
L 1894 763 
L 2988 3500 
L 3597 3500 
L 2059 -325 
z
" transform="scale(0.015625)"/>
      </defs>
      <use xlink:href="#DejaVuSans-46"/>
      <use xlink:href="#DejaVuSans-72" transform="translate(50.269531 0)"/>
      <use xlink:href="#DejaVuSans-65" transform="translate(89.132812 0)"/>
      <use xlink:href="#DejaVuSans-71" transform="translate(150.65625 0)"/>
      <use xlink:href="#DejaVuSans-75" transform="translate(214.132812 0)"/>
      <use xlink:href="#DejaVuSans-65" transform="translate(277.511719 0)"/>
      <use xlink:href="#DejaVuSans-6e" transform="translate(339.035156 0)"/>
      <use xlink:href="#DejaVuSans-63" transform="translate(402.414062 0)"/>
      <use xlink:href="#DejaVuSans-79" transform="translate(457.394531 0)"/>
     </g>
    </g>
   </g>
   <g id="matplotlib.axis_2">
    <g id="ytick_1">
     <g id="line2d_7">
      <defs>
       <path id="m38db49a2a9" d="M 0 0 
L -3.5 0 
" style="stroke: #000000; stroke-width: 0.8"/>
      </defs>
      <g>
       <use xlink:href="#m38db49a2a9" x="81" y="369.364963" style="stroke: #000000; stroke-width: 0.8"/>
      </g>
     </g>
     <g id="text_8">
      <!-- 0.000 -->
      <g transform="translate(45.371875 373.164182) scale(0.1 -0.1)">
       <defs>
        <path id="DejaVuSans-2e" d="M 684 794 
L 1344 794 
L 1344 0 
L 684 0 
L 684 794 
z
" transform="scale(0.015625)"/>
       </defs>
       <use xlink:href="#DejaVuSans-30"/>
       <use xlink:href="#DejaVuSans-2e" transform="translate(63.623047 0)"/>
       <use xlink:href="#DejaVuSans-30" transform="translate(95.410156 0)"/>
       <use xlink:href="#DejaVuSans-30" transform="translate(159.033203 0)"/>
       <use xlink:href="#DejaVuSans-30" transform="translate(222.65625 0)"/>
      </g>
     </g>
    </g>
    <g id="ytick_2">
     <g id="line2d_8">
      <g>
       <use xlink:href="#m38db49a2a9" x="81" y="315.571775" style="stroke: #000000; stroke-width: 0.8"/>
      </g>
     </g>
     <g id="text_9">
      <!-- 0.005 -->
      <g transform="translate(45.371875 319.370994) scale(0.1 -0.1)">
       <use xlink:href="#DejaVuSans-30"/>
       <use xlink:href="#DejaVuSans-2e" transform="translate(63.623047 0)"/>
       <use xlink:href="#DejaVuSans-30" transform="translate(95.410156 0)"/>
       <use xlink:href="#DejaVuSans-30" transform="translate(159.033203 0)"/>
       <use xlink:href="#DejaVuSans-35" transform="translate(222.65625 0)"/>
      </g>
     </g>
    </g>
    <g id="ytick_3">
     <g id="line2d_9">
      <g>
       <use xlink:href="#m38db49a2a9" x="81" y="261.778586" style="stroke: #000000; stroke-width: 0.8"/>
      </g>
     </g>
     <g id="text_10">
      <!-- 0.010 -->
      <g transform="translate(45.371875 265.577805) scale(0.1 -0.1)">
       <use xlink:href="#DejaVuSans-30"/>
       <use xlink:href="#DejaVuSans-2e" transform="translate(63.623047 0)"/>
       <use xlink:href="#DejaVuSans-30" transform="translate(95.410156 0)"/>
       <use xlink:href="#DejaVuSans-31" transform="translate(159.033203 0)"/>
       <use xlink:href="#DejaVuSans-30" transform="translate(222.65625 0)"/>
      </g>
     </g>
    </g>
    <g id="ytick_4">
     <g id="line2d_10">
      <g>
       <use xlink:href="#m38db49a2a9" x="81" y="207.985397" style="stroke: #000000; stroke-width: 0.8"/>
      </g>
     </g>
     <g id="text_11">
      <!-- 0.015 -->
      <g transform="translate(45.371875 211.784616) scale(0.1 -0.1)">
       <use xlink:href="#DejaVuSans-30"/>
       <use xlink:href="#DejaVuSans-2e" transform="translate(63.623047 0)"/>
       <use xlink:href="#DejaVuSans-30" transform="translate(95.410156 0)"/>
       <use xlink:href="#DejaVuSans-31" transform="translate(159.033203 0)"/>
       <use xlink:href="#DejaVuSans-35" transform="translate(222.65625 0)"/>
      </g>
     </g>
    </g>
    <g id="ytick_5">
     <g id="line2d_11">
      <g>
       <use xlink:href="#m38db49a2a9" x="81" y="154.192209" style="stroke: #000000; stroke-width: 0.8"/>
      </g>
     </g>
     <g id="text_12">
      <!-- 0.020 -->
      <g transform="translate(45.371875 157.991428) scale(0.1 -0.1)">
       <use xlink:href="#DejaVuSans-30"/>
       <use xlink:href="#DejaVuSans-2e" transform="translate(63.623047 0)"/>
       <use xlink:href="#DejaVuSans-30" transform="translate(95.410156 0)"/>
       <use xlink:href="#DejaVuSans-32" transform="translate(159.033203 0)"/>
       <use xlink:href="#DejaVuSans-30" transform="translate(222.65625 0)"/>
      </g>
     </g>
    </g>
    <g id="ytick_6">
     <g id="line2d_12">
      <g>
       <use xlink:href="#m38db49a2a9" x="81" y="100.39902" style="stroke: #000000; stroke-width: 0.8"/>
      </g>
     </g>
     <g id="text_13">
      <!-- 0.025 -->
      <g transform="translate(45.371875 104.198239) scale(0.1 -0.1)">
       <use xlink:href="#DejaVuSans-30"/>
       <use xlink:href="#DejaVuSans-2e" transform="translate(63.623047 0)"/>
       <use xlink:href="#DejaVuSans-30" transform="translate(95.410156 0)"/>
       <use xlink:href="#DejaVuSans-32" transform="translate(159.033203 0)"/>
       <use xlink:href="#DejaVuSans-35" transform="translate(222.65625 0)"/>
      </g>
     </g>
    </g>
    <g id="text_14">
     <!-- Magnitude (energy) -->
     <g transform="translate(39.292187 267.563906) rotate(-90) scale(0.1 -0.1)">
      <defs>
       <path id="DejaVuSans-4d" d="M 628 4666 
L 1569 4666 
L 2759 1491 
L 3956 4666 
L 4897 4666 
L 4897 0 
L 4281 0 
L 4281 4097 
L 3078 897 
L 2444 897 
L 1241 4097 
L 1241 0 
L 628 0 
L 628 4666 
z
" transform="scale(0.015625)"/>
       <path id="DejaVuSans-61" d="M 2194 1759 
Q 1497 1759 1228 1600 
Q 959 1441 959 1056 
Q 959 750 1161 570 
Q 1363 391 1709 391 
Q 2188 391 2477 730 
Q 2766 1069 2766 1631 
L 2766 1759 
L 2194 1759 
z
M 3341 1997 
L 3341 0 
L 2766 0 
L 2766 531 
Q 2569 213 2275 61 
Q 1981 -91 1556 -91 
Q 1019 -91 701 211 
Q 384 513 384 1019 
Q 384 1609 779 1909 
Q 1175 2209 1959 2209 
L 2766 2209 
L 2766 2266 
Q 2766 2663 2505 2880 
Q 2244 3097 1772 3097 
Q 1472 3097 1187 3025 
Q 903 2953 641 2809 
L 641 3341 
Q 956 3463 1253 3523 
Q 1550 3584 1831 3584 
Q 2591 3584 2966 3190 
Q 3341 2797 3341 1997 
z
" transform="scale(0.015625)"/>
       <path id="DejaVuSans-67" d="M 2906 1791 
Q 2906 2416 2648 2759 
Q 2391 3103 1925 3103 
Q 1463 3103 1205 2759 
Q 947 2416 947 1791 
Q 947 1169 1205 825 
Q 1463 481 1925 481 
Q 2391 481 2648 825 
Q 2906 1169 2906 1791 
z
M 3481 434 
Q 3481 -459 3084 -895 
Q 2688 -1331 1869 -1331 
Q 1566 -1331 1297 -1286 
Q 1028 -1241 775 -1147 
L 775 -588 
Q 1028 -725 1275 -790 
Q 1522 -856 1778 -856 
Q 2344 -856 2625 -561 
Q 2906 -266 2906 331 
L 2906 616 
Q 2728 306 2450 153 
Q 2172 0 1784 0 
Q 1141 0 747 490 
Q 353 981 353 1791 
Q 353 2603 747 3093 
Q 1141 3584 1784 3584 
Q 2172 3584 2450 3431 
Q 2728 3278 2906 2969 
L 2906 3500 
L 3481 3500 
L 3481 434 
z
" transform="scale(0.015625)"/>
       <path id="DejaVuSans-69" d="M 603 3500 
L 1178 3500 
L 1178 0 
L 603 0 
L 603 3500 
z
M 603 4863 
L 1178 4863 
L 1178 4134 
L 603 4134 
L 603 4863 
z
" transform="scale(0.015625)"/>
       <path id="DejaVuSans-74" d="M 1172 4494 
L 1172 3500 
L 2356 3500 
L 2356 3053 
L 1172 3053 
L 1172 1153 
Q 1172 725 1289 603 
Q 1406 481 1766 481 
L 2356 481 
L 2356 0 
L 1766 0 
Q 1100 0 847 248 
Q 594 497 594 1153 
L 594 3053 
L 172 3053 
L 172 3500 
L 594 3500 
L 594 4494 
L 1172 4494 
z
" transform="scale(0.015625)"/>
       <path id="DejaVuSans-64" d="M 2906 2969 
L 2906 4863 
L 3481 4863 
L 3481 0 
L 2906 0 
L 2906 525 
Q 2725 213 2448 61 
Q 2172 -91 1784 -91 
Q 1150 -91 751 415 
Q 353 922 353 1747 
Q 353 2572 751 3078 
Q 1150 3584 1784 3584 
Q 2172 3584 2448 3432 
Q 2725 3281 2906 2969 
z
M 947 1747 
Q 947 1113 1208 752 
Q 1469 391 1925 391 
Q 2381 391 2643 752 
Q 2906 1113 2906 1747 
Q 2906 2381 2643 2742 
Q 2381 3103 1925 3103 
Q 1469 3103 1208 2742 
Q 947 2381 947 1747 
z
" transform="scale(0.015625)"/>
       <path id="DejaVuSans-20" transform="scale(0.015625)"/>
       <path id="DejaVuSans-28" d="M 1984 4856 
Q 1566 4138 1362 3434 
Q 1159 2731 1159 2009 
Q 1159 1288 1364 580 
Q 1569 -128 1984 -844 
L 1484 -844 
Q 1016 -109 783 600 
Q 550 1309 550 2009 
Q 550 2706 781 3412 
Q 1013 4119 1484 4856 
L 1984 4856 
z
" transform="scale(0.015625)"/>
       <path id="DejaVuSans-29" d="M 513 4856 
L 1013 4856 
Q 1481 4119 1714 3412 
Q 1947 2706 1947 2009 
Q 1947 1309 1714 600 
Q 1481 -109 1013 -844 
L 513 -844 
Q 928 -128 1133 580 
Q 1338 1288 1338 2009 
Q 1338 2731 1133 3434 
Q 928 4138 513 4856 
z
" transform="scale(0.015625)"/>
      </defs>
      <use xlink:href="#DejaVuSans-4d"/>
      <use xlink:href="#DejaVuSans-61" transform="translate(86.279297 0)"/>
      <use xlink:href="#DejaVuSans-67" transform="translate(147.558594 0)"/>
      <use xlink:href="#DejaVuSans-6e" transform="translate(211.035156 0)"/>
      <use xlink:href="#DejaVuSans-69" transform="translate(274.414062 0)"/>
      <use xlink:href="#DejaVuSans-74" transform="translate(302.197266 0)"/>
      <use xlink:href="#DejaVuSans-75" transform="translate(341.40625 0)"/>
      <use xlink:href="#DejaVuSans-64" transform="translate(404.785156 0)"/>
      <use xlink:href="#DejaVuSans-65" transform="translate(468.261719 0)"/>
      <use xlink:href="#DejaVuSans-20" transform="translate(529.785156 0)"/>
      <use xlink:href="#DejaVuSans-28" transform="translate(561.572266 0)"/>
      <use xlink:href="#DejaVuSans-65" transform="translate(600.585938 0)"/>
      <use xlink:href="#DejaVuSans-6e" transform="translate(662.109375 0)"/>
      <use xlink:href="#DejaVuSans-65" transform="translate(725.488281 0)"/>
      <use xlink:href="#DejaVuSans-72" transform="translate(787.011719 0)"/>
      <use xlink:href="#DejaVuSans-67" transform="translate(826.375 0)"/>
      <use xlink:href="#DejaVuSans-79" transform="translate(889.851562 0)"/>
      <use xlink:href="#DejaVuSans-29" transform="translate(949.03125 0)"/>
     </g>
    </g>
   </g>
   <g id="line2d_13">
    <path d="M 103.827273 355.452871 
L 104.009891 288.134565 
L 104.375127 335.898178 
L 104.557745 327.276402 
L 104.740364 302.750907 
L 104.922982 317.393294 
L 105.1056 344.713847 
L 105.288218 348.963291 
L 105.470836 319.567939 
L 105.653455 139.391079 
L 105.836073 95.19176 
L 106.018691 288.561662 
L 106.201309 346.921313 
L 106.383927 338.358717 
L 106.566545 340.929207 
L 106.749164 353.436625 
L 106.931782 351.753112 
L 107.1144 345.73553 
L 107.297018 360.05622 
L 107.479636 320.967474 
L 107.662255 211.273626 
L 107.844873 234.658942 
L 108.027491 330.886064 
L 108.210109 350.257689 
L 108.392727 351.648024 
L 108.575345 349.103108 
L 108.757964 348.302546 
L 108.940582 342.274546 
L 109.1232 325.406249 
L 109.305818 326.828061 
L 109.488436 247.209878 
L 109.671055 66.96 
L 110.218909 352.801058 
L 110.401527 353.214145 
L 110.584145 359.848644 
L 110.949382 339.5148 
L 111.132 307.423718 
L 111.314618 294.891151 
L 111.497236 251.973491 
L 111.679855 170.410794 
L 112.045091 340.492874 
L 112.227709 361.26422 
L 112.410327 354.077228 
L 112.592945 356.158776 
L 112.958182 368.38543 
L 113.323418 356.227795 
L 113.506036 313.046669 
L 113.688655 299.10256 
L 114.053891 358.178272 
L 114.419127 339.554711 
L 114.601745 343.773368 
L 114.784364 337.833874 
L 115.1496 279.494891 
L 115.332218 334.729636 
L 115.514836 190.09253 
L 115.697455 186.84526 
L 116.062691 338.906518 
L 116.245309 336.914885 
L 116.427927 340.443233 
L 116.610545 327.498269 
L 116.793164 299.403158 
L 116.975782 298.755453 
L 117.1584 294.804772 
L 117.341018 307.096299 
L 117.523636 190.904354 
L 117.706255 221.170595 
L 118.071491 341.397376 
L 118.254109 358.057016 
L 118.436727 361.602765 
L 118.619345 349.179561 
L 118.984582 299.110089 
L 119.1672 320.149003 
L 119.349818 302.867269 
L 119.532436 227.921439 
L 119.715055 257.950772 
L 119.897673 316.859881 
L 120.262909 342.62082 
L 120.445527 342.632706 
L 120.810764 307.544395 
L 120.993382 299.79998 
L 121.176 365.006423 
L 121.358618 253.439877 
L 121.541236 221.320046 
L 121.906473 318.783851 
L 122.271709 342.219028 
L 122.454327 318.836274 
L 122.819564 305.581247 
L 123.002182 311.890455 
L 123.1848 358.904185 
L 123.367418 277.721519 
L 123.550036 266.721519 
L 124.097891 357.488635 
L 124.280509 352.20092 
L 124.463127 333.898069 
L 124.828364 327.72187 
L 125.010982 327.164759 
L 125.1936 348.4491 
L 125.376218 281.219232 
L 125.558836 283.372849 
L 125.924073 338.469021 
L 126.106691 339.364643 
L 126.289309 330.795482 
L 126.471927 308.949932 
L 127.019782 343.049329 
L 127.2024 318.092881 
L 127.385018 268.596509 
L 127.567636 277.524898 
L 127.932873 344.707232 
L 128.115491 338.284768 
L 128.298109 316.687387 
L 128.480727 314.082602 
L 128.663345 318.230172 
L 128.845964 317.95339 
L 129.028582 336.426087 
L 129.393818 286.060474 
L 129.576436 299.022203 
L 129.759055 329.691301 
L 129.941673 332.126863 
L 130.124291 315.190097 
L 130.306909 327.025349 
L 130.489527 328.722857 
L 130.672145 335.082505 
L 130.854764 326.106662 
L 131.037382 342.218303 
L 131.402618 283.971361 
L 131.767855 324.232937 
L 131.950473 301.840433 
L 132.133091 293.489112 
L 132.680945 339.814528 
L 132.863564 331.945949 
L 133.046182 335.468421 
L 133.2288 293.81618 
L 133.411418 278.339547 
L 133.776655 328.594087 
L 133.959273 315.377431 
L 134.141891 316.511816 
L 134.324509 318.497781 
L 134.507127 331.71567 
L 134.689745 330.385778 
L 134.872364 334.894461 
L 135.054982 327.689765 
L 135.420218 291.379595 
L 135.602836 319.544012 
L 135.785455 313.230939 
L 135.968073 312.719671 
L 136.150691 319.666688 
L 136.515927 344.818085 
L 136.698545 341.230287 
L 136.881164 334.126328 
L 137.063782 331.347326 
L 137.2464 298.821855 
L 137.429018 302.097502 
L 137.611636 327.58477 
L 137.794255 309.122211 
L 137.976873 309.26628 
L 138.159491 328.898778 
L 138.342109 333.455467 
L 138.524727 341.865654 
L 138.707345 342.312073 
L 138.889964 329.217377 
L 139.072582 328.101981 
L 139.2552 295.962909 
L 139.437818 316.934371 
L 139.620436 313.683095 
L 139.803055 296.366675 
L 140.350909 342.257589 
L 140.533527 350.539078 
L 140.716145 344.667248 
L 141.264 313.362507 
L 141.446618 330.677414 
L 141.811855 302.542696 
L 141.994473 314.232166 
L 142.359709 351.123622 
L 142.542327 358.271702 
L 142.907564 335.481381 
L 143.090182 321.3501 
L 143.2728 327.806803 
L 143.455418 326.425386 
L 143.638036 309.555914 
L 144.003273 330.04099 
L 144.551127 363.963361 
L 145.098982 312.767237 
L 145.2816 333.670556 
L 145.646836 319.935822 
L 145.829455 319.01118 
L 146.012073 328.018469 
L 146.377309 356.829073 
L 146.559927 357.993326 
L 146.925164 327.549948 
L 147.107782 323.884839 
L 147.2904 333.022504 
L 147.473018 318.413137 
L 147.655636 314.406222 
L 148.203491 362.44663 
L 148.386109 358.964141 
L 148.568727 361.88411 
L 148.751345 351.617901 
L 148.933964 319.12958 
L 149.116582 338.309581 
L 149.481818 312.019713 
L 149.664436 320.24205 
L 150.212291 359.721808 
L 150.394909 360.68196 
L 150.577527 354.734823 
L 150.942764 328.451611 
L 151.125382 360.186687 
L 151.490618 319.34762 
L 151.673236 325.544238 
L 152.038473 351.365149 
L 152.221091 349.999189 
L 152.403709 361.41867 
L 152.586327 357.99429 
L 152.768945 331.690183 
L 152.951564 331.103225 
L 153.134182 348.063786 
L 153.3168 319.660338 
L 153.499418 319.100261 
L 153.864655 356.69401 
L 154.047273 350.75267 
L 154.229891 352.085125 
L 154.412509 367.054135 
L 154.595127 359.167439 
L 154.777745 327.746958 
L 155.142982 349.850054 
L 155.3256 332.37475 
L 155.508218 330.022806 
L 155.873455 359.232424 
L 156.056073 361.536581 
L 156.238691 365.406339 
L 156.603927 349.387499 
L 156.786545 328.218505 
L 156.969164 361.781734 
L 157.3344 325.498103 
L 157.517018 329.811708 
L 157.882255 353.647672 
L 158.064873 363.730046 
L 158.430109 359.209266 
L 158.612727 345.35669 
L 158.795345 341.585159 
L 158.977964 357.317235 
L 159.160582 344.174671 
L 159.3432 340.762444 
L 159.525818 344.389097 
L 159.708436 352.606106 
L 159.891055 352.286237 
L 160.073673 357.472942 
L 160.256291 357.173113 
L 160.438909 364.964297 
L 160.621527 338.452949 
L 160.804145 344.527875 
L 160.986764 359.158008 
L 161.352 337.249065 
L 161.717236 350.144755 
L 161.899855 351.164157 
L 162.082473 360.272171 
L 162.265091 353.539671 
L 162.447709 364.708774 
L 162.630327 336.062643 
L 162.995564 357.234023 
L 163.178182 347.944537 
L 163.908655 364.732427 
L 164.273891 352.50916 
L 164.456509 355.018733 
L 164.639127 334.811067 
L 164.821745 353.244355 
L 165.004364 358.565035 
L 165.186982 353.1317 
L 165.3696 353.864007 
L 165.552218 349.64822 
L 165.734836 349.744728 
L 165.917455 357.387879 
L 166.100073 353.293338 
L 166.282691 358.536961 
L 166.647927 346.711044 
L 166.830545 365.544874 
L 167.195782 346.82514 
L 167.3784 346.82652 
L 167.743636 356.110481 
L 167.926255 355.900246 
L 168.108873 349.680629 
L 168.291491 360.530735 
L 168.474109 352.725271 
L 168.839345 358.394867 
L 169.021964 352.32376 
L 169.204582 354.088705 
L 169.3872 351.675224 
L 169.569818 353.132538 
L 169.752436 363.390372 
L 169.935055 360.952619 
L 170.117673 355.73763 
L 170.300291 365.578321 
L 170.482909 353.654245 
L 170.665527 365.256016 
L 171.030764 351.727134 
L 171.213382 351.749902 
L 171.396 350.651888 
L 171.578618 350.775112 
L 171.761236 355.930021 
L 171.943855 351.711088 
L 172.126473 356.445849 
L 172.309091 355.572269 
L 172.491709 346.806122 
L 172.674327 364.738365 
L 173.222182 347.918148 
L 173.770036 360.757361 
L 173.952655 357.487862 
L 174.135273 361.909579 
L 174.500509 347.509281 
L 174.683127 365.183792 
L 174.865745 361.370328 
L 175.230982 348.417846 
L 175.596218 362.93139 
L 175.961455 351.492428 
L 176.144073 363.676593 
L 176.326691 354.581235 
L 176.874545 363.561786 
L 177.239782 358.829664 
L 177.605018 368.664142 
L 177.787636 364.543555 
L 177.970255 356.837144 
L 178.152873 364.452238 
L 178.335491 355.088289 
L 178.700727 363.640058 
L 178.883345 364.496318 
L 179.065964 360.276833 
L 179.248582 359.215443 
L 179.4312 362.831695 
L 179.613818 359.826049 
L 179.796436 354.200588 
L 179.979055 359.489061 
L 180.161673 360.994877 
L 180.344291 357.58455 
L 180.709527 364.446529 
L 180.892145 365.171957 
L 181.074764 362.894891 
L 181.257382 365.065432 
L 181.44 361.5269 
L 181.805236 349.570792 
L 181.987855 359.421652 
L 182.353091 358.51802 
L 182.535709 356.638415 
L 182.718327 363.547815 
L 182.900945 364.510322 
L 183.083564 362.186762 
L 183.266182 364.193185 
L 183.4488 363.352464 
L 183.814036 353.958586 
L 183.996655 364.678784 
L 184.179273 357.353571 
L 184.544509 364.37972 
L 184.727127 368.949387 
L 185.092364 361.41378 
L 185.274982 364.459343 
L 185.4576 365.032157 
L 185.640218 356.641296 
L 185.822836 353.992643 
L 186.005455 367.343624 
L 186.188073 362.322039 
L 186.370691 361.99514 
L 186.553309 361.965525 
L 186.918545 357.721583 
L 187.101164 361.409598 
L 187.283782 361.290902 
L 187.649018 351.089253 
L 187.831636 353.355153 
L 188.014255 364.245166 
L 188.196873 360.037627 
L 188.379491 359.316944 
L 188.562109 366.169317 
L 188.927345 368.829448 
L 189.109964 368.152773 
L 189.657818 357.525291 
L 189.840436 364.446497 
L 190.205673 361.420565 
L 190.388291 365.540504 
L 190.753527 365.649946 
L 190.936145 366.857007 
L 191.118764 366.910986 
L 191.484 360.44507 
L 191.666618 357.190389 
L 192.031855 366.799382 
L 192.214473 361.79163 
L 192.579709 364.716521 
L 192.944945 368.899847 
L 193.127564 368.066331 
L 193.4928 357.828642 
L 193.675418 356.057725 
L 193.858036 366.531687 
L 194.223273 360.909923 
L 194.588509 367.839228 
L 194.771127 364.984166 
L 194.953745 359.729535 
L 195.136364 365.801535 
L 195.5016 354.2025 
L 195.684218 356.949849 
L 195.866836 366.229343 
L 196.232073 360.312321 
L 196.597309 362.648883 
L 196.779927 360.541799 
L 197.145164 365.989757 
L 197.5104 358.135456 
L 197.875636 365.581082 
L 198.058255 363.900932 
L 198.240873 366.933999 
L 198.423491 365.710746 
L 198.606109 363.050731 
L 198.788727 363.750321 
L 198.971345 362.785806 
L 199.153964 362.711122 
L 199.336582 360.566437 
L 199.5192 360.040495 
L 199.701818 367.473644 
L 199.884436 366.16058 
L 200.067055 363.757275 
L 200.249673 364.959257 
L 200.432291 364.02188 
L 200.980145 368.889079 
L 201.345382 361.097444 
L 201.528 360.398133 
L 201.710618 363.45353 
L 202.075855 360.160907 
L 202.441091 366.485454 
L 202.623709 365.620343 
L 202.806327 363.19948 
L 202.988945 366.418744 
L 203.5368 358.100096 
L 203.719418 358.405487 
L 204.084655 363.170018 
L 204.267273 361.94547 
L 204.632509 368.006799 
L 204.997745 365.934168 
L 205.180364 366.290211 
L 205.362982 365.455927 
L 205.5456 365.352063 
L 205.910836 362.173925 
L 206.093455 363.994999 
L 206.276073 364.640969 
L 206.458691 367.030586 
L 206.641309 365.51963 
L 206.823927 361.87233 
L 207.006545 362.92114 
L 207.189164 366.035905 
L 207.371782 365.688955 
L 207.5544 366.158633 
L 207.737018 364.747504 
L 207.919636 367.47105 
L 208.284873 360.833913 
L 208.467491 361.261583 
L 208.832727 368.469405 
L 209.197964 366.171065 
L 209.5632 368.304728 
L 209.745818 368.640624 
L 210.111055 368.627502 
L 210.293673 367.232395 
L 210.476291 367.909807 
L 210.658909 367.761259 
L 210.841527 367.112254 
L 211.024145 364.008902 
L 211.206764 366.420387 
L 211.389382 367.033496 
L 211.754618 365.868593 
L 211.937236 367.013767 
L 212.119855 364.824396 
L 212.302473 365.862483 
L 212.667709 363.201393 
L 212.850327 362.225418 
L 213.032945 362.167389 
L 213.215564 365.562439 
L 213.398182 365.068685 
L 213.5808 365.622199 
L 213.763418 367.402686 
L 213.946036 363.845638 
L 214.311273 368.888513 
L 214.493891 367.826454 
L 214.676509 363.394459 
L 214.859127 363.290795 
L 215.041745 367.714419 
L 215.406982 364.24203 
L 215.5896 365.315653 
L 215.772218 367.711554 
L 216.320073 361.495068 
L 216.685309 364.575553 
L 217.050545 367.584712 
L 217.233164 366.418875 
L 217.415782 363.918111 
L 217.5984 363.465844 
L 217.781018 368.142996 
L 218.146255 361.439844 
L 218.328873 360.120448 
L 218.694109 367.559536 
L 218.876727 368.027359 
L 219.059345 368.897086 
L 219.241964 368.08286 
L 219.424582 366.588038 
L 219.6072 363.417895 
L 219.789818 363.206848 
L 220.155055 366.229715 
L 220.520291 366.77046 
L 220.702909 367.809214 
L 220.885527 367.800897 
L 221.068145 367.478251 
L 221.433382 363.462853 
L 221.616 365.411984 
L 221.798618 365.59397 
L 221.981236 366.171653 
L 222.163855 368.435057 
L 222.346473 368.100634 
L 222.529091 368.543723 
L 222.711709 367.022932 
L 222.894327 367.066306 
L 223.076945 367.790396 
L 223.442182 365.628618 
L 223.6248 367.059056 
L 223.807418 366.851907 
L 223.990036 366.151224 
L 224.172655 366.274254 
L 224.355273 367.508135 
L 224.537891 365.96277 
L 224.720509 366.043685 
L 224.903127 367.421791 
L 225.085745 366.269021 
L 225.268364 366.378475 
L 225.450982 366.822535 
L 225.6336 367.783977 
L 225.816218 367.528414 
L 225.998836 364.046791 
L 226.181455 363.231022 
L 226.546691 367.62671 
L 226.729309 367.648062 
L 226.911927 367.976419 
L 227.094545 365.756075 
L 227.277164 365.785644 
L 227.459782 368.22067 
L 227.6424 366.429402 
L 227.825018 366.561753 
L 228.190255 368.428942 
L 228.555491 365.206047 
L 228.920727 367.320537 
L 229.103345 367.397024 
L 229.285964 368.525138 
L 229.468582 367.712158 
L 229.6512 366.350242 
L 230.016436 367.92769 
L 230.381673 364.577658 
L 230.564291 364.77908 
L 230.746909 366.424698 
L 230.929527 365.027304 
L 231.112145 365.563309 
L 231.294764 367.486541 
L 231.477382 366.415745 
L 231.842618 367.418396 
L 232.025236 366.664688 
L 232.207855 366.957699 
L 232.573091 364.933505 
L 232.938327 368.357742 
L 233.120945 367.867435 
L 233.303564 364.320048 
L 233.486182 364.046015 
L 233.6688 366.287012 
L 233.851418 366.818938 
L 234.034036 366.174496 
L 234.216655 364.563465 
L 234.399273 363.980019 
L 234.581891 366.712897 
L 234.764509 367.366919 
L 235.129745 365.935249 
L 235.312364 367.94552 
L 235.494982 367.950253 
L 236.042836 364.455277 
L 236.225455 367.324148 
L 236.408073 367.840258 
L 236.590691 367.587669 
L 236.773309 366.048765 
L 236.955927 367.861748 
L 237.138545 368.442905 
L 237.321164 367.191908 
L 237.503782 367.415108 
L 237.6864 365.402824 
L 237.869018 365.420165 
L 238.234255 367.216927 
L 238.416873 365.576047 
L 238.599491 365.141783 
L 238.964727 366.370236 
L 239.147345 366.211658 
L 239.512582 368.521042 
L 239.877818 364.056053 
L 240.243055 367.22868 
L 240.425673 366.930068 
L 240.608291 367.934678 
L 240.790909 366.757396 
L 241.156145 368.889162 
L 241.521382 366.484178 
L 241.704 365.696605 
L 241.886618 365.425439 
L 242.251855 366.04074 
L 242.434473 368.290309 
L 242.617091 368.516557 
L 242.982327 366.09962 
L 243.164945 368.667178 
L 243.347564 367.82915 
L 243.530182 367.801966 
L 243.895418 366.142332 
L 244.078036 368.084751 
L 244.260655 368.411952 
L 244.625891 366.430756 
L 244.808509 367.608182 
L 245.356364 367.857825 
L 245.538982 367.516869 
L 245.7216 365.356536 
L 245.904218 369.045825 
L 246.086836 362.850197 
L 246.269455 363.667946 
L 246.452073 368.781976 
L 246.634691 365.837379 
L 246.817309 365.378919 
L 246.999927 365.745324 
L 247.182545 365.397238 
L 247.547782 362.451746 
L 247.7304 364.295036 
L 247.913018 367.619845 
L 248.095636 367.338049 
L 248.278255 366.474913 
L 248.460873 367.832501 
L 248.643491 367.427012 
L 248.826109 368.745381 
L 249.008727 368.272362 
L 249.191345 368.153615 
L 249.556582 364.250064 
L 249.921818 366.740144 
L 250.104436 366.731784 
L 250.287055 367.049227 
L 250.469673 367.924246 
L 250.834909 362.854197 
L 251.200145 366.492817 
L 251.382764 368.082435 
L 251.565382 368.310969 
L 251.748 367.762056 
L 251.930618 366.349706 
L 252.295855 367.678204 
L 252.478473 366.080983 
L 252.661091 367.153598 
L 252.843709 366.708835 
L 253.026327 369.169211 
L 253.208945 366.734684 
L 253.391564 366.601666 
L 253.574182 368.036862 
L 253.7568 367.352459 
L 253.939418 364.355671 
L 254.304655 368.991784 
L 254.669891 367.555964 
L 254.852509 366.320906 
L 255.217745 368.8985 
L 255.582982 367.418058 
L 255.7656 368.177165 
L 256.130836 366.837756 
L 256.313455 366.090055 
L 256.496073 364.258212 
L 256.678691 364.63557 
L 257.226545 368.996766 
L 257.409164 366.490606 
L 257.591782 365.711958 
L 257.7744 367.655749 
L 257.957018 367.761939 
L 258.504873 363.925218 
L 258.687491 364.942418 
L 258.870109 367.652183 
L 259.052727 367.718639 
L 259.235345 367.483935 
L 259.417964 367.914937 
L 259.600582 366.867797 
L 259.7832 368.367171 
L 259.965818 367.975725 
L 260.148436 366.343528 
L 260.513673 367.655403 
L 260.696291 367.366409 
L 260.878909 367.458567 
L 261.061527 366.966415 
L 261.244145 365.539806 
L 261.426764 367.132952 
L 261.609382 367.326375 
L 261.792 367.048745 
L 261.974618 367.214058 
L 262.157236 368.149676 
L 262.522473 366.122943 
L 262.887709 368.812252 
L 263.252945 364.553672 
L 263.435564 365.783874 
L 263.618182 366.237962 
L 263.8008 365.740903 
L 263.983418 365.893555 
L 264.166036 365.259653 
L 264.348655 364.091914 
L 264.531273 366.625647 
L 264.713891 367.128274 
L 265.079127 365.069614 
L 265.261745 365.54479 
L 265.626982 368.441757 
L 265.8096 368.930061 
L 265.992218 367.082495 
L 266.357455 366.221732 
L 266.540073 366.736295 
L 266.722691 366.801703 
L 266.905309 366.005569 
L 267.270545 366.88141 
L 267.635782 369.011154 
L 267.8184 368.035106 
L 268.001018 368.771996 
L 268.183636 366.202136 
L 268.548873 366.570361 
L 268.731491 368.099745 
L 269.096727 366.659568 
L 269.279345 366.949017 
L 269.644582 365.535655 
L 269.8272 366.549401 
L 270.009818 368.935365 
L 270.375055 364.912779 
L 270.922909 368.57597 
L 271.105527 368.750531 
L 271.470764 366.944119 
L 271.653382 365.932405 
L 271.836 365.63473 
L 272.201236 363.765506 
L 272.566473 368.578726 
L 272.931709 367.062706 
L 273.114327 367.780901 
L 273.479564 366.110732 
L 273.662182 367.294763 
L 273.8448 366.635108 
L 274.027418 367.968124 
L 274.392655 366.924017 
L 274.575273 367.183879 
L 274.757891 369.017427 
L 274.940509 369.265025 
L 275.123127 367.742551 
L 275.488364 363.933178 
L 275.8536 367.292879 
L 276.036218 366.748235 
L 276.218836 364.742846 
L 276.401455 365.796809 
L 276.584073 365.989886 
L 276.766691 366.41169 
L 277.314545 368.503659 
L 277.679782 367.725699 
L 277.8624 366.386935 
L 278.045018 366.93212 
L 278.227636 368.017266 
L 278.410255 368.193125 
L 278.592873 367.875719 
L 278.775491 366.282706 
L 278.958109 366.611743 
L 279.140727 368.835229 
L 279.505964 365.857006 
L 279.688582 365.77574 
L 279.8712 365.09059 
L 280.053818 367.073578 
L 280.236436 365.42566 
L 280.419055 365.741699 
L 280.601673 367.453676 
L 280.784291 367.943338 
L 280.966909 368.845796 
L 281.149527 368.142806 
L 281.514764 364.177251 
L 281.697382 364.216722 
L 281.88 363.710816 
L 282.245236 367.948114 
L 282.610473 368.422022 
L 282.975709 363.757588 
L 283.158327 367.739215 
L 283.340945 366.228571 
L 283.523564 366.168667 
L 283.8888 368.228366 
L 284.071418 365.683095 
L 284.436655 367.425231 
L 284.619273 366.490286 
L 284.801891 366.382347 
L 285.167127 368.344418 
L 285.349745 367.741652 
L 285.8976 363.480858 
L 286.262836 365.889377 
L 286.445455 365.921677 
L 286.628073 367.819747 
L 286.993309 365.701239 
L 287.175927 367.089744 
L 287.358545 366.427996 
L 287.541164 365.254859 
L 287.723782 366.541197 
L 287.9064 366.886793 
L 288.089018 363.06508 
L 288.271636 364.545266 
L 288.454255 367.911227 
L 288.636873 365.096403 
L 288.819491 365.993189 
L 289.002109 368.684774 
L 289.184727 366.847271 
L 289.367345 366.40499 
L 289.549964 368.292492 
L 289.732582 364.402593 
L 289.9152 365.530955 
L 290.097818 367.935723 
L 290.280436 368.668388 
L 290.463055 367.560585 
L 290.645673 365.259725 
L 291.010909 368.600606 
L 291.376145 364.250212 
L 291.558764 364.708293 
L 291.741382 364.708215 
L 291.924 364.234559 
L 292.106618 365.047628 
L 292.289236 366.814647 
L 292.471855 367.212213 
L 292.654473 368.286232 
L 293.202327 366.183134 
L 293.384945 366.775004 
L 293.567564 368.937642 
L 293.750182 368.016815 
L 293.9328 368.299414 
L 294.115418 367.981195 
L 294.298036 367.079776 
L 294.480655 368.347828 
L 294.663273 367.929122 
L 294.845891 368.302359 
L 295.211127 364.100558 
L 295.576364 366.695656 
L 295.758982 366.027711 
L 295.9416 366.301369 
L 296.306836 368.646311 
L 296.672073 365.859804 
L 296.854691 365.799788 
L 297.037309 365.980259 
L 297.219927 366.566889 
L 297.402545 368.588272 
L 297.585164 368.986816 
L 297.9504 365.4721 
L 298.315636 367.766619 
L 298.498255 367.724278 
L 298.680873 367.187713 
L 299.046109 368.585888 
L 299.228727 366.713464 
L 299.776582 368.817343 
L 299.9592 366.735349 
L 300.141818 366.218735 
L 300.324436 368.13535 
L 300.689673 369.054369 
L 301.054909 367.70013 
L 301.237527 368.181318 
L 301.420145 368.210414 
L 301.602764 367.369141 
L 301.968 367.623986 
L 302.150618 366.116198 
L 302.333236 366.83292 
L 302.515855 368.764685 
L 302.698473 368.478634 
L 302.881091 367.351009 
L 303.063709 367.083652 
L 303.246327 368.374235 
L 303.428945 368.811855 
L 303.794182 366.676654 
L 304.159418 368.023198 
L 304.342036 368.027763 
L 304.524655 368.356608 
L 304.707273 368.134848 
L 304.889891 367.71005 
L 305.072509 368.798301 
L 305.255127 368.698343 
L 305.437745 368.070628 
L 305.620364 367.995967 
L 305.9856 366.753154 
L 306.533455 369.114023 
L 306.898691 364.128138 
L 307.081309 365.403157 
L 307.263927 367.644733 
L 307.446545 367.061572 
L 307.629164 368.04226 
L 307.811782 367.941484 
L 307.9944 366.37365 
L 308.359636 368.456646 
L 308.542255 368.336553 
L 308.724873 369.063349 
L 308.907491 367.146101 
L 309.090109 367.852329 
L 309.272727 366.749125 
L 309.455345 367.700357 
L 309.637964 367.84347 
L 309.820582 365.327618 
L 310.0032 365.554466 
L 310.185818 367.947883 
L 310.368436 367.447959 
L 310.551055 368.361164 
L 310.733673 368.635826 
L 311.281527 366.604269 
L 311.464145 367.280886 
L 311.646764 367.429209 
L 311.829382 366.658909 
L 312.012 368.369764 
L 312.194618 366.114538 
L 312.377236 366.364069 
L 312.559855 368.415678 
L 312.742473 368.961012 
L 312.925091 368.446854 
L 313.107709 368.5634 
L 313.290327 366.564395 
L 313.655564 367.695023 
L 313.838182 367.266144 
L 314.0208 367.27781 
L 314.203418 368.817625 
L 314.386036 368.555214 
L 314.568655 367.413825 
L 314.751273 366.977652 
L 314.933891 368.413088 
L 315.299127 367.875253 
L 315.481745 368.968287 
L 315.846982 366.360974 
L 316.0296 366.520589 
L 316.212218 368.20932 
L 316.394836 367.709565 
L 316.577455 368.893889 
L 316.760073 369.021115 
L 316.942691 368.867842 
L 317.307927 367.128026 
L 317.490545 367.140966 
L 317.673164 366.573519 
L 317.855782 366.432232 
L 318.0384 366.626897 
L 318.586255 368.675652 
L 318.768873 367.251916 
L 318.951491 368.883256 
L 319.134109 366.93653 
L 319.316727 367.125949 
L 319.681964 364.927383 
L 319.864582 366.182719 
L 320.0472 368.668682 
L 320.412436 366.969121 
L 320.777673 366.456112 
L 320.960291 366.814398 
L 321.325527 369.063916 
L 321.508145 367.79417 
L 321.690764 368.870064 
L 322.421236 368.073613 
L 322.603855 366.262135 
L 322.969091 368.725247 
L 323.334327 368.057444 
L 323.882182 365.872948 
L 324.0648 365.758981 
L 324.247418 366.190366 
L 324.430036 366.27537 
L 324.795273 368.303999 
L 325.160509 366.849825 
L 325.343127 368.594381 
L 325.525745 366.288685 
L 325.890982 367.304873 
L 326.0736 365.302755 
L 326.256218 365.315411 
L 326.438836 367.6054 
L 326.621455 367.87146 
L 326.804073 367.857906 
L 326.986691 368.213943 
L 327.351927 368.176921 
L 327.534545 367.037625 
L 327.899782 366.56265 
L 328.0824 367.474183 
L 328.265018 367.762175 
L 328.447636 367.76454 
L 328.630255 367.116629 
L 328.812873 367.785116 
L 328.995491 369.031849 
L 329.360727 367.70172 
L 329.543345 366.342277 
L 329.908582 368.528219 
L 330.0912 367.216969 
L 330.273818 367.990008 
L 330.456436 367.492094 
L 330.639055 367.66782 
L 330.821673 368.881143 
L 331.004291 368.853931 
L 331.369527 366.878625 
L 331.552145 366.586286 
L 331.734764 367.988644 
L 331.917382 368.197947 
L 332.1 367.404881 
L 332.647855 368.755806 
L 333.195709 366.197974 
L 333.378327 367.370079 
L 333.560945 366.793481 
L 333.743564 365.438497 
L 333.926182 366.136272 
L 334.1088 368.003774 
L 334.291418 367.335747 
L 334.474036 367.249237 
L 334.656655 368.911098 
L 334.839273 368.365269 
L 335.021891 368.610359 
L 335.204509 368.271424 
L 335.387127 368.912049 
L 335.569745 368.796324 
L 335.934982 366.365271 
L 336.1176 367.935735 
L 336.300218 366.862189 
L 336.665455 368.234208 
L 336.848073 368.366304 
L 337.213309 366.586365 
L 337.395927 366.892747 
L 337.578545 368.77397 
L 337.761164 368.271747 
L 338.1264 366.863002 
L 338.491636 368.776222 
L 338.856873 366.114952 
L 339.039491 369.012775 
L 339.222109 367.294678 
L 339.404727 369.027312 
L 339.587345 368.772449 
L 339.769964 368.318962 
L 339.952582 367.228414 
L 340.1352 367.544971 
L 340.317818 368.798645 
L 340.500436 367.683076 
L 340.683055 368.291908 
L 340.865673 367.818035 
L 341.230909 368.849243 
L 341.596145 366.657625 
L 341.778764 366.598885 
L 341.961382 367.877101 
L 342.509236 369.275874 
L 342.691855 369.089459 
L 343.239709 367.738024 
L 343.422327 366.684984 
L 343.787564 368.237422 
L 343.970182 368.829864 
L 344.335418 364.995545 
L 344.518036 364.843266 
L 344.883273 367.19688 
L 345.065891 367.791401 
L 345.248509 369.097237 
L 345.431127 367.818333 
L 345.613745 367.32934 
L 345.978982 367.784585 
L 346.1616 368.308446 
L 346.344218 367.349492 
L 346.526836 367.295141 
L 346.709455 367.705091 
L 346.892073 366.441548 
L 347.257309 368.783738 
L 347.439927 369.090153 
L 347.622545 368.637938 
L 347.805164 368.945612 
L 347.987782 368.267636 
L 348.1704 368.98422 
L 348.535636 367.034778 
L 348.718255 367.132779 
L 348.900873 366.98616 
L 349.083491 367.193975 
L 349.266109 367.784468 
L 349.448727 367.471484 
L 349.631345 367.685174 
L 349.813964 368.674395 
L 349.996582 367.431078 
L 350.1792 368.221603 
L 350.361818 368.332734 
L 350.727055 367.619522 
L 350.909673 368.234393 
L 351.092291 368.237515 
L 351.274909 367.086791 
L 351.457527 367.296425 
L 351.640145 368.149026 
L 351.822764 368.322242 
L 352.370618 365.747362 
L 352.735855 367.077987 
L 352.918473 365.87402 
L 353.283709 368.317021 
L 353.466327 368.135153 
L 353.648945 368.194335 
L 353.831564 368.720593 
L 354.014182 368.149026 
L 354.1968 367.028417 
L 354.562036 368.368943 
L 354.744655 367.878677 
L 354.927273 366.671283 
L 355.109891 368.506155 
L 355.475127 369.010559 
L 355.657745 367.791771 
L 355.840364 368.056687 
L 356.2056 366.156754 
L 356.388218 366.327534 
L 356.570836 368.04223 
L 356.753455 367.197218 
L 356.936073 367.459057 
L 357.118691 368.802277 
L 357.301309 368.680811 
L 357.483927 367.670677 
L 357.666545 367.755137 
L 357.849164 368.595659 
L 358.397018 368.61587 
L 358.762255 368.010685 
L 358.944873 368.161614 
L 359.127491 368.691042 
L 359.310109 368.131881 
L 359.492727 367.094048 
L 360.2232 369.20038 
L 360.405818 366.867391 
L 360.588436 366.559672 
L 360.771055 368.390153 
L 360.953673 368.55571 
L 361.318909 368.36609 
L 361.501527 367.322661 
L 361.866764 368.982599 
L 362.049382 368.263893 
L 362.414618 368.01445 
L 362.779855 369.067721 
L 362.962473 368.798941 
L 363.510327 365.89068 
L 363.692945 366.432483 
L 364.058182 368.949035 
L 364.2408 368.871253 
L 364.423418 368.403657 
L 364.606036 368.390783 
L 364.971273 366.8284 
L 365.336509 366.349014 
L 365.519127 368.443854 
L 365.701745 368.034093 
L 365.884364 368.360533 
L 366.066982 368.202351 
L 366.2496 367.444508 
L 366.432218 365.729229 
L 366.614836 365.483471 
L 366.980073 368.364398 
L 367.162691 367.753388 
L 367.345309 365.883954 
L 367.527927 365.636844 
L 367.893164 367.279057 
L 368.075782 366.17446 
L 368.2584 367.559329 
L 368.441018 367.691421 
L 368.623636 367.381452 
L 368.806255 368.144309 
L 368.988873 368.371295 
L 369.171491 367.728038 
L 369.354109 367.665383 
L 369.719345 366.258407 
L 370.084582 369.080933 
L 370.2672 368.627454 
L 370.449818 368.591127 
L 370.632436 368.398794 
L 370.815055 366.820236 
L 370.997673 366.75623 
L 371.362909 367.656502 
L 371.545527 367.113997 
L 371.728145 368.298024 
L 371.910764 368.687541 
L 372.093382 368.416254 
L 372.276 369.038107 
L 372.458618 368.860498 
L 372.641236 368.900488 
L 372.823855 368.808006 
L 373.189091 366.744837 
L 373.371709 367.545333 
L 373.736945 365.908215 
L 373.919564 365.756865 
L 374.2848 368.128374 
L 374.467418 367.950927 
L 374.650036 367.082889 
L 374.832655 367.555894 
L 375.015273 367.344024 
L 375.380509 368.351072 
L 375.563127 367.983664 
L 375.745745 368.159848 
L 376.110982 366.075042 
L 376.2936 366.416264 
L 376.476218 367.238954 
L 376.658836 367.330365 
L 377.024073 368.581037 
L 377.389309 357.204254 
L 377.754545 367.998175 
L 378.119782 365.902699 
L 378.3024 361.707273 
L 378.485018 360.866265 
L 378.667636 366.013298 
L 378.850255 367.096307 
L 379.032873 366.305888 
L 379.215491 367.604369 
L 379.398109 366.20031 
L 379.945964 368.587697 
L 380.3112 368.039439 
L 380.493818 366.399361 
L 380.676436 366.506465 
L 381.041673 368.494414 
L 381.224291 367.021219 
L 381.406909 367.199257 
L 381.589527 368.791575 
L 381.954764 366.510973 
L 382.137382 367.795032 
L 382.32 367.551997 
L 382.502618 366.764878 
L 382.685236 367.240833 
L 382.867855 367.359317 
L 383.233091 368.572889 
L 383.415709 368.587618 
L 383.598327 368.448445 
L 383.780945 368.962138 
L 384.146182 366.544883 
L 384.511418 368.768148 
L 384.694036 368.155991 
L 384.876655 368.349945 
L 385.059273 368.302428 
L 385.241891 366.973222 
L 385.424509 367.287551 
L 385.789745 368.784931 
L 385.972364 368.792338 
L 386.154982 368.567139 
L 386.3376 369.324797 
L 386.520218 368.29086 
L 386.702836 368.560546 
L 387.068073 367.149886 
L 387.250691 368.414456 
L 387.433309 368.597773 
L 387.615927 368.204878 
L 387.798545 368.682826 
L 387.981164 368.461329 
L 388.163782 368.693619 
L 388.529018 368.097659 
L 388.711636 368.235319 
L 388.894255 368.688082 
L 389.259491 368.760148 
L 389.442109 368.420702 
L 389.624727 366.655152 
L 389.989964 367.791725 
L 390.172582 368.140441 
L 390.3552 367.531768 
L 390.537818 368.262409 
L 390.720436 367.358179 
L 391.268291 368.090563 
L 391.450909 368.117969 
L 391.633527 368.841928 
L 391.816145 368.582297 
L 391.998764 368.6297 
L 392.181382 367.977371 
L 392.364 366.780523 
L 392.546618 367.179128 
L 392.729236 367.890665 
L 392.911855 367.773979 
L 393.277091 368.699302 
L 393.459709 368.513187 
L 393.642327 368.720275 
L 393.824945 368.29833 
L 394.007564 368.389749 
L 394.190182 367.446404 
L 394.3728 368.522006 
L 394.555418 368.242764 
L 394.738036 368.43365 
L 395.103273 367.496068 
L 395.285891 368.56319 
L 395.468509 367.734694 
L 395.651127 368.078714 
L 395.833745 368.021025 
L 396.016364 368.324972 
L 396.198982 369.162791 
L 396.3816 368.866504 
L 396.564218 368.197612 
L 396.746836 368.558054 
L 396.929455 368.511105 
L 397.112073 368.738074 
L 397.294691 368.103028 
L 397.477309 368.031234 
L 397.659927 366.760216 
L 398.025164 368.679235 
L 398.207782 369.034408 
L 398.3904 368.891683 
L 398.573018 369.115337 
L 398.938255 366.186549 
L 399.120873 366.970676 
L 399.303491 368.977283 
L 399.486109 368.866045 
L 399.851345 366.747481 
L 400.216582 367.381402 
L 400.3992 366.593794 
L 400.581818 367.553283 
L 400.764436 367.566193 
L 400.947055 368.292724 
L 401.312291 366.314869 
L 401.860145 369.033303 
L 402.590618 368.622511 
L 402.773236 368.901631 
L 402.955855 368.663732 
L 403.138473 368.736122 
L 403.321091 369.092761 
L 403.503709 368.34486 
L 403.686327 368.181572 
L 403.868945 368.427803 
L 404.4168 367.279929 
L 404.599418 367.985596 
L 404.964655 367.992373 
L 405.147273 368.894931 
L 405.329891 368.718904 
L 405.512509 368.904465 
L 405.695127 368.913153 
L 405.877745 367.564687 
L 406.060364 367.099198 
L 406.242982 368.316062 
L 406.4256 368.31636 
L 406.608218 367.296585 
L 406.973455 368.631472 
L 407.156073 367.168135 
L 407.521309 367.688402 
L 407.703927 368.641523 
L 407.886545 368.900552 
L 408.251782 368.617887 
L 408.4344 368.817732 
L 408.799636 367.417597 
L 408.982255 367.474175 
L 409.347491 369.114467 
L 409.530109 369.092691 
L 409.895345 368.093251 
L 410.077964 366.792927 
L 410.260582 367.262521 
L 410.4432 368.248619 
L 410.625818 368.614967 
L 410.808436 368.353296 
L 410.991055 367.822154 
L 411.173673 367.720285 
L 411.538909 368.679476 
L 411.721527 368.180651 
L 411.904145 368.429155 
L 412.086764 369.003014 
L 412.452 367.89704 
L 412.634618 367.786513 
L 412.817236 367.38785 
L 412.999855 368.614564 
L 413.182473 368.614543 
L 413.547709 368.404429 
L 413.730327 367.829491 
L 413.912945 369.133517 
L 414.095564 367.671749 
L 414.278182 367.610011 
L 414.4608 368.605744 
L 414.643418 368.696485 
L 414.826036 368.471872 
L 415.008655 367.66185 
L 415.191273 368.917197 
L 415.556509 366.995589 
L 415.739127 366.502381 
L 416.104364 368.138903 
L 416.286982 368.089944 
L 416.4696 368.442206 
L 416.652218 368.423587 
L 416.834836 368.773243 
L 417.200073 367.635693 
L 417.382691 367.859762 
L 417.565309 368.721725 
L 417.747927 368.789919 
L 417.930545 369.199267 
L 418.295782 367.553954 
L 418.4784 368.005518 
L 418.843636 369.21425 
L 419.208873 368.651614 
L 419.574109 366.478922 
L 419.756727 367.994515 
L 420.121964 368.754296 
L 420.304582 367.900837 
L 420.4872 368.654552 
L 420.669818 367.691757 
L 421.035055 367.48477 
L 421.217673 368.097414 
L 421.582909 368.353354 
L 421.765527 369.051454 
L 421.948145 368.346348 
L 422.130764 367.140069 
L 422.313382 367.159321 
L 422.496 367.959318 
L 422.678618 367.92308 
L 422.861236 368.387526 
L 423.043855 368.47389 
L 423.226473 368.692849 
L 423.409091 368.254121 
L 423.591709 368.223804 
L 424.139564 365.818941 
L 424.322182 367.074013 
L 424.687418 367.328803 
L 424.870036 368.964963 
L 425.052655 368.528541 
L 425.600509 368.919073 
L 425.783127 369.224752 
L 426.148364 368.440527 
L 426.330982 368.372376 
L 426.878836 367.612906 
L 427.061455 367.752237 
L 427.426691 369.001764 
L 427.609309 368.560305 
L 427.791927 367.785631 
L 427.974545 367.740767 
L 428.157164 366.975798 
L 428.5224 368.745818 
L 428.705018 368.535383 
L 428.887636 368.516843 
L 429.252873 368.853435 
L 429.435491 368.175474 
L 429.618109 368.460674 
L 429.800727 367.693964 
L 429.983345 368.391422 
L 430.165964 368.078218 
L 430.348582 368.649558 
L 430.5312 367.507227 
L 430.713818 367.51736 
L 430.896436 369.062677 
L 431.079055 367.81044 
L 431.261673 368.536327 
L 431.444291 368.639175 
L 431.992145 367.753471 
L 432.174764 368.539638 
L 432.54 369.107902 
L 432.905236 367.871539 
L 433.087855 368.236286 
L 433.270473 368.957376 
L 433.453091 368.579214 
L 433.635709 369.241393 
L 433.818327 367.896556 
L 434.183564 367.794403 
L 434.366182 368.076644 
L 434.5488 369.286019 
L 434.731418 368.974235 
L 434.914036 369.048232 
L 435.096655 367.923486 
L 435.279273 367.682181 
L 435.461891 368.399438 
L 435.827127 368.151823 
L 436.009745 368.635098 
L 436.192364 368.655606 
L 436.374982 368.39384 
L 436.740218 368.966817 
L 436.922836 368.597826 
L 437.105455 368.619746 
L 437.288073 368.32995 
L 437.653309 367.290034 
L 437.835927 367.231649 
L 438.018545 367.708865 
L 438.383782 369.173604 
L 438.5664 368.982749 
L 438.749018 369.078919 
L 438.931636 368.946744 
L 439.296873 367.735142 
L 439.479491 368.907575 
L 439.662109 367.435761 
L 439.844727 367.909693 
L 440.027345 368.942904 
L 440.209964 369.157299 
L 440.392582 368.546051 
L 440.5752 368.75449 
L 440.757818 368.735979 
L 441.123055 367.597613 
L 441.305673 367.987512 
L 441.488291 368.766944 
L 441.670909 368.639633 
L 442.036145 368.967154 
L 442.401382 368.912198 
L 442.584 369.045344 
L 442.766618 368.885636 
L 442.949236 368.531878 
L 443.131855 368.578637 
L 443.314473 368.334192 
L 443.679709 367.149966 
L 443.862327 368.200412 
L 444.044945 368.543024 
L 444.227564 369.169663 
L 444.410182 368.110615 
L 444.5928 368.93604 
L 444.775418 367.883289 
L 444.958036 367.756985 
L 445.140655 368.062157 
L 445.323273 368.636477 
L 445.505891 368.235704 
L 445.688509 368.596043 
L 445.871127 369.22741 
L 446.418982 368.207396 
L 446.784218 369.143988 
L 447.149455 368.713231 
L 447.332073 368.960228 
L 447.697309 367.475422 
L 447.879927 367.688944 
L 448.062545 368.72956 
L 448.245164 368.950189 
L 448.427782 368.953561 
L 448.793018 368.037136 
L 448.975636 368.686518 
L 449.158255 368.860192 
L 449.523491 367.720315 
L 450.071345 369.226535 
L 450.253964 368.686728 
L 450.436582 368.50077 
L 450.6192 368.81334 
L 450.801818 368.594926 
L 450.984436 368.725402 
L 451.167055 368.487705 
L 451.349673 368.544288 
L 451.532291 368.925983 
L 451.714909 368.725055 
L 451.897527 368.854083 
L 452.080145 368.704444 
L 452.262764 369.205219 
L 452.445382 369.046152 
L 452.628 369.071381 
L 452.993236 368.475656 
L 453.175855 368.474736 
L 453.541091 367.447348 
L 453.906327 369.275955 
L 454.271564 368.118588 
L 454.454182 369.076528 
L 454.819418 368.555399 
L 455.184655 368.933444 
L 455.367273 368.589646 
L 455.549891 368.534565 
L 455.732509 368.987199 
L 455.915127 369.095281 
L 456.097745 368.351304 
L 456.6456 369.192306 
L 456.828218 369.043211 
L 457.193455 368.605135 
L 457.376073 368.444713 
L 457.741309 369.108278 
L 457.923927 369.038956 
L 458.106545 369.125999 
L 458.837018 368.28053 
L 459.202255 369.088048 
L 459.384873 368.692842 
L 459.750109 369.310085 
L 459.932727 368.980326 
L 460.115345 369.056552 
L 460.297964 368.106589 
L 460.480582 367.913497 
L 460.6632 368.709454 
L 460.845818 368.652503 
L 461.028436 368.15816 
L 461.211055 368.782313 
L 461.576291 368.951023 
L 461.941527 368.257212 
L 462.306764 369.273326 
L 462.489382 369.073969 
L 462.672 368.597557 
L 463.037236 369.257073 
L 463.402473 368.751227 
L 463.767709 369.200464 
L 463.950327 368.293766 
L 464.132945 368.633644 
L 464.315564 368.252937 
L 464.498182 368.1681 
L 464.6808 369.212016 
L 464.863418 368.70372 
L 465.228655 368.73482 
L 465.411273 368.851196 
L 465.593891 368.181109 
L 465.776509 368.146355 
L 466.141745 368.964458 
L 466.324364 368.942184 
L 466.6896 368.369052 
L 466.872218 368.971973 
L 467.054836 368.944182 
L 467.237455 368.457712 
L 467.420073 368.741917 
L 467.602691 368.576895 
L 467.785309 367.87862 
L 467.967927 367.863974 
L 468.150545 368.551601 
L 468.333164 368.432758 
L 468.515782 367.757389 
L 468.6984 368.494572 
L 468.881018 368.46714 
L 469.063636 368.897889 
L 469.246255 368.419434 
L 469.428873 368.575506 
L 469.611491 367.939227 
L 469.794109 368.567448 
L 469.976727 368.589366 
L 470.159345 367.929249 
L 470.341964 367.953988 
L 470.524582 368.583076 
L 470.7072 368.625282 
L 470.889818 368.435627 
L 471.072436 369.013547 
L 471.255055 369.00141 
L 471.437673 368.391123 
L 471.802909 369.011238 
L 471.985527 368.965796 
L 472.168145 368.728201 
L 472.350764 368.229648 
L 472.533382 368.235825 
L 472.716 368.890395 
L 473.263855 368.816595 
L 473.446473 369.243737 
L 473.629091 368.361821 
L 473.811709 368.36319 
L 473.994327 368.655878 
L 474.176945 368.328045 
L 474.359564 369.098368 
L 474.7248 368.712901 
L 475.090036 369.194404 
L 475.272655 369.060861 
L 475.455273 368.594151 
L 475.820509 369.201545 
L 476.185745 368.224572 
L 476.7336 369.057573 
L 476.916218 368.929248 
L 477.098836 368.356304 
L 477.281455 368.792605 
L 477.464073 368.851098 
L 477.646691 368.170671 
L 477.829309 368.315182 
L 478.011927 369.129017 
L 478.194545 369.016024 
L 478.377164 369.330232 
L 478.7424 368.887668 
L 478.925018 369.154342 
L 479.290255 368.445656 
L 479.655491 368.651667 
L 480.020727 369.212474 
L 480.203345 369.094015 
L 480.385964 369.214236 
L 480.7512 368.680857 
L 481.116436 368.838529 
L 481.481673 369.251372 
L 481.846909 368.936392 
L 482.029527 368.581881 
L 482.212145 369.069699 
L 482.394764 369.133207 
L 482.577382 368.731445 
L 482.76 368.828165 
L 482.942618 369.10163 
L 483.307855 368.739808 
L 483.490473 368.832018 
L 483.673091 369.185695 
L 483.855709 368.451986 
L 484.220945 369.28943 
L 484.586182 368.080348 
L 484.7688 368.566954 
L 485.316655 368.981119 
L 485.499273 369.246069 
L 485.864509 369.216788 
L 486.047127 368.839267 
L 486.229745 368.929032 
L 486.412364 368.839663 
L 486.594982 369.019964 
L 486.960218 368.796524 
L 487.142836 368.898415 
L 487.325455 368.840372 
L 487.508073 369.052842 
L 487.690691 368.817989 
L 487.873309 368.918426 
L 488.055927 369.208232 
L 488.238545 369.001626 
L 488.603782 368.2924 
L 488.7864 368.507712 
L 488.969018 369.033597 
L 489.151636 368.932707 
L 489.334255 368.526043 
L 489.699491 369.155624 
L 490.064727 369.00714 
L 490.247345 368.364167 
L 490.429964 368.26981 
L 490.612582 368.860883 
L 490.7952 369.034852 
L 490.977818 368.894383 
L 491.343055 369.294195 
L 491.708291 368.635141 
L 492.073527 369.065033 
L 492.256145 369.290894 
L 492.621382 368.620743 
L 492.804 368.863926 
L 492.986618 368.473306 
L 493.351855 368.505268 
L 493.534473 369.084222 
L 493.717091 368.55605 
L 493.899709 369.289701 
L 494.264945 368.617568 
L 494.447564 368.000414 
L 494.995418 368.81644 
L 495.178036 368.796501 
L 495.543273 369.23455 
L 495.908509 368.984976 
L 496.091127 369.012386 
L 496.273745 369.15536 
L 496.456364 368.910024 
L 496.638982 369.039417 
L 497.004218 368.505777 
L 497.369455 369.074859 
L 497.734691 368.907873 
L 497.917309 369.262818 
L 498.099927 369.064015 
L 498.465164 368.21448 
L 498.647782 369.065287 
L 498.8304 368.541255 
L 499.378255 369.184013 
L 499.560873 369.171134 
L 499.743491 369.33191 
L 500.291345 368.197113 
L 500.473964 368.214695 
L 501.021818 369.005983 
L 501.204436 368.961755 
L 501.387055 369.09018 
L 501.569673 369.041449 
L 501.752291 368.869328 
L 501.934909 369.01442 
L 502.117527 368.985319 
L 502.300145 368.68608 
L 502.665382 368.954609 
L 502.848 368.556079 
L 503.030618 368.654978 
L 503.213236 369.181627 
L 503.395855 369.143202 
L 503.578473 369.291486 
L 503.943709 368.712611 
L 504.308945 368.683242 
L 504.491564 369.275522 
L 504.674182 369.061671 
L 504.8568 369.108665 
L 505.222036 368.594659 
L 505.587273 369.275444 
L 505.769891 369.063511 
L 505.952509 369.044273 
L 506.135127 368.691141 
L 506.317745 368.805772 
L 506.500364 368.758696 
L 506.8656 369.037699 
L 507.048218 368.741198 
L 507.230836 369.305119 
L 507.413455 368.483456 
L 507.596073 368.547936 
L 507.778691 368.98784 
L 507.961309 368.833076 
L 508.143927 368.889848 
L 508.326545 368.623164 
L 508.509164 368.940803 
L 508.691782 368.819935 
L 508.8744 369.098687 
L 509.604873 369.150858 
L 509.970109 368.401217 
L 510.152727 368.758012 
L 510.335345 368.796896 
L 510.517964 369.14231 
L 510.700582 369.165027 
L 511.065818 368.736795 
L 511.431055 368.726114 
L 511.796291 369.022613 
L 511.978909 369.036749 
L 512.161527 369.252872 
L 513.074618 368.970344 
L 513.257236 369.172786 
L 513.439855 368.605621 
L 513.805091 368.451926 
L 513.987709 367.977454 
L 514.170327 368.221055 
L 514.535564 368.964423 
L 514.718182 368.977403 
L 514.9008 369.127694 
L 515.266036 368.97435 
L 515.448655 368.881304 
L 515.631273 368.986452 
L 515.996509 368.689672 
L 516.361745 369.209717 
L 516.544364 368.927196 
L 516.726982 368.930611 
L 517.092218 368.550183 
L 517.640073 369.109011 
L 517.822691 368.863546 
L 518.005309 369.104657 
L 518.187927 369.096572 
L 518.553164 368.27788 
L 518.735782 368.559254 
L 518.9184 369.161732 
L 519.101018 369.328123 
L 519.466255 369.222949 
L 519.831491 368.814335 
L 520.379345 369.251067 
L 520.561964 369.149772 
L 520.744582 368.8453 
L 520.9272 368.831926 
L 521.292436 369.121428 
L 521.840291 368.87533 
L 522.022909 369.004991 
L 522.388145 368.448645 
L 522.570764 368.549735 
L 522.936 369.249774 
L 523.118618 368.876504 
L 523.483855 369.067512 
L 523.666473 369.103241 
L 524.031709 368.730884 
L 524.214327 369.220475 
L 524.396945 368.984407 
L 524.579564 369.150244 
L 524.762182 369.011172 
L 525.127418 369.19365 
L 525.310036 368.833134 
L 526.223127 369.016723 
L 526.588364 369.128242 
L 526.9536 368.642772 
L 527.136218 368.663204 
L 527.501455 369.162269 
L 527.684073 369.094736 
L 528.049309 368.590041 
L 528.597164 369.36 
L 528.9624 369.136506 
L 529.145018 368.828195 
L 529.327636 368.859992 
L 529.692873 369.246697 
L 530.423345 369.199754 
L 530.9712 368.720967 
L 531.153818 369.07016 
L 531.336436 369.062401 
L 531.519055 368.887121 
L 531.701673 369.191837 
L 531.884291 369.169042 
L 532.066909 368.858282 
L 532.249527 368.975276 
L 532.432145 369.284894 
L 532.614764 369.13898 
L 532.98 369.218497 
L 533.345236 368.931074 
L 533.893091 368.932496 
L 534.440945 369.183011 
L 535.171418 369.250351 
L 535.354036 369.263593 
L 535.536655 369.157283 
L 535.719273 369.214069 
L 535.901891 369.133694 
L 536.267127 369.237443 
L 536.814982 368.568189 
L 537.180218 369.073605 
L 537.728073 368.749048 
L 537.910691 368.938333 
L 538.458545 369.101337 
L 538.641164 369.341745 
L 539.189018 368.652266 
L 539.554255 369.254219 
L 540.102109 369.067282 
L 540.284727 369.263155 
L 540.467345 368.8948 
L 540.649964 369.125423 
L 541.197818 369.15167 
L 541.380436 369.296114 
L 541.563055 369.197231 
L 541.928291 369.23955 
L 542.293527 369.14635 
L 542.658764 369.017408 
L 542.841382 369.143742 
L 543.024 369.079591 
L 543.389236 369.16423 
L 543.571855 369.074424 
L 543.754473 369.232916 
L 543.937091 368.940987 
L 544.484945 369.223228 
L 544.667564 369.115028 
L 545.215418 369.173701 
L 545.398036 369.1217 
L 545.763273 368.699775 
L 546.311127 369.19246 
L 547.224218 368.992955 
L 547.589455 369.221506 
L 547.772073 368.882372 
L 548.137309 369.262642 
L 548.502545 368.977247 
L 548.685164 369.229839 
L 549.233018 368.940022 
L 549.415636 368.926322 
L 549.598255 369.085688 
L 550.146109 369.06047 
L 550.511345 369.183936 
L 550.693964 369.00371 
L 550.876582 369.125098 
L 551.0592 368.895623 
L 551.424436 369.227069 
L 551.789673 369.163135 
L 551.972291 369.265018 
L 552.337527 369.0878 
L 552.520145 369.185555 
L 552.702764 369.070656 
L 552.885382 369.114972 
L 553.068 369.289021 
L 553.250618 369.227207 
L 553.615855 368.982373 
L 553.798473 369.229336 
L 553.981091 369.027207 
L 554.163709 369.068919 
L 554.346327 369.255352 
L 554.894182 369.230356 
L 555.259418 369.145375 
L 555.624655 369.02181 
L 555.807273 369.233261 
L 555.989891 369.03327 
L 556.172509 368.657679 
L 556.720364 368.870344 
L 557.0856 369.098898 
L 557.268218 369.094581 
L 557.633455 368.714116 
L 557.998691 369.23506 
L 558.363927 369.211605 
L 558.729164 368.735119 
L 558.911782 368.785863 
L 559.0944 368.701219 
L 559.459636 368.883578 
L 560.007491 367.440047 
L 560.372727 369.253984 
L 560.372727 369.253984 
" clip-path="url(#pa48dfa427c)" style="fill: none; stroke: #1f77b4; stroke-width: 1.5; stroke-linecap: square"/>
   </g>
   <g id="patch_3">
    <path d="M 81 384.48 
L 81 51.84 
" style="fill: none; stroke: #000000; stroke-width: 0.8; stroke-linejoin: miter; stroke-linecap: square"/>
   </g>
   <g id="patch_4">
    <path d="M 583.2 384.48 
L 583.2 51.84 
" style="fill: none; stroke: #000000; stroke-width: 0.8; stroke-linejoin: miter; stroke-linecap: square"/>
   </g>
   <g id="patch_5">
    <path d="M 81 384.48 
L 583.2 384.48 
" style="fill: none; stroke: #000000; stroke-width: 0.8; stroke-linejoin: miter; stroke-linecap: square"/>
   </g>
   <g id="patch_6">
    <path d="M 81 51.84 
L 583.2 51.84 
" style="fill: none; stroke: #000000; stroke-width: 0.8; stroke-linejoin: miter; stroke-linecap: square"/>
   </g>
   <g id="text_15">
    <!-- ECG Spectrum -->
    <g transform="translate(288.488438 45.84) scale(0.12 -0.12)">
     <defs>
      <path id="DejaVuSans-45" d="M 628 4666 
L 3578 4666 
L 3578 4134 
L 1259 4134 
L 1259 2753 
L 3481 2753 
L 3481 2222 
L 1259 2222 
L 1259 531 
L 3634 531 
L 3634 0 
L 628 0 
L 628 4666 
z
" transform="scale(0.015625)"/>
      <path id="DejaVuSans-43" d="M 4122 4306 
L 4122 3641 
Q 3803 3938 3442 4084 
Q 3081 4231 2675 4231 
Q 1875 4231 1450 3742 
Q 1025 3253 1025 2328 
Q 1025 1406 1450 917 
Q 1875 428 2675 428 
Q 3081 428 3442 575 
Q 3803 722 4122 1019 
L 4122 359 
Q 3791 134 3420 21 
Q 3050 -91 2638 -91 
Q 1578 -91 968 557 
Q 359 1206 359 2328 
Q 359 3453 968 4101 
Q 1578 4750 2638 4750 
Q 3056 4750 3426 4639 
Q 3797 4528 4122 4306 
z
" transform="scale(0.015625)"/>
      <path id="DejaVuSans-47" d="M 3809 666 
L 3809 1919 
L 2778 1919 
L 2778 2438 
L 4434 2438 
L 4434 434 
Q 4069 175 3628 42 
Q 3188 -91 2688 -91 
Q 1594 -91 976 548 
Q 359 1188 359 2328 
Q 359 3472 976 4111 
Q 1594 4750 2688 4750 
Q 3144 4750 3555 4637 
Q 3966 4525 4313 4306 
L 4313 3634 
Q 3963 3931 3569 4081 
Q 3175 4231 2741 4231 
Q 1884 4231 1454 3753 
Q 1025 3275 1025 2328 
Q 1025 1384 1454 906 
Q 1884 428 2741 428 
Q 3075 428 3337 486 
Q 3600 544 3809 666 
z
" transform="scale(0.015625)"/>
      <path id="DejaVuSans-53" d="M 3425 4513 
L 3425 3897 
Q 3066 4069 2747 4153 
Q 2428 4238 2131 4238 
Q 1616 4238 1336 4038 
Q 1056 3838 1056 3469 
Q 1056 3159 1242 3001 
Q 1428 2844 1947 2747 
L 2328 2669 
Q 3034 2534 3370 2195 
Q 3706 1856 3706 1288 
Q 3706 609 3251 259 
Q 2797 -91 1919 -91 
Q 1588 -91 1214 -16 
Q 841 59 441 206 
L 441 856 
Q 825 641 1194 531 
Q 1563 422 1919 422 
Q 2459 422 2753 634 
Q 3047 847 3047 1241 
Q 3047 1584 2836 1778 
Q 2625 1972 2144 2069 
L 1759 2144 
Q 1053 2284 737 2584 
Q 422 2884 422 3419 
Q 422 4038 858 4394 
Q 1294 4750 2059 4750 
Q 2388 4750 2728 4690 
Q 3069 4631 3425 4513 
z
" transform="scale(0.015625)"/>
      <path id="DejaVuSans-70" d="M 1159 525 
L 1159 -1331 
L 581 -1331 
L 581 3500 
L 1159 3500 
L 1159 2969 
Q 1341 3281 1617 3432 
Q 1894 3584 2278 3584 
Q 2916 3584 3314 3078 
Q 3713 2572 3713 1747 
Q 3713 922 3314 415 
Q 2916 -91 2278 -91 
Q 1894 -91 1617 61 
Q 1341 213 1159 525 
z
M 3116 1747 
Q 3116 2381 2855 2742 
Q 2594 3103 2138 3103 
Q 1681 3103 1420 2742 
Q 1159 2381 1159 1747 
Q 1159 1113 1420 752 
Q 1681 391 2138 391 
Q 2594 391 2855 752 
Q 3116 1113 3116 1747 
z
" transform="scale(0.015625)"/>
      <path id="DejaVuSans-6d" d="M 3328 2828 
Q 3544 3216 3844 3400 
Q 4144 3584 4550 3584 
Q 5097 3584 5394 3201 
Q 5691 2819 5691 2113 
L 5691 0 
L 5113 0 
L 5113 2094 
Q 5113 2597 4934 2840 
Q 4756 3084 4391 3084 
Q 3944 3084 3684 2787 
Q 3425 2491 3425 1978 
L 3425 0 
L 2847 0 
L 2847 2094 
Q 2847 2600 2669 2842 
Q 2491 3084 2119 3084 
Q 1678 3084 1418 2786 
Q 1159 2488 1159 1978 
L 1159 0 
L 581 0 
L 581 3500 
L 1159 3500 
L 1159 2956 
Q 1356 3278 1631 3431 
Q 1906 3584 2284 3584 
Q 2666 3584 2933 3390 
Q 3200 3197 3328 2828 
z
" transform="scale(0.015625)"/>
     </defs>
     <use xlink:href="#DejaVuSans-45"/>
     <use xlink:href="#DejaVuSans-43" transform="translate(63.183594 0)"/>
     <use xlink:href="#DejaVuSans-47" transform="translate(133.007812 0)"/>
     <use xlink:href="#DejaVuSans-20" transform="translate(210.498047 0)"/>
     <use xlink:href="#DejaVuSans-53" transform="translate(242.285156 0)"/>
     <use xlink:href="#DejaVuSans-70" transform="translate(305.761719 0)"/>
     <use xlink:href="#DejaVuSans-65" transform="translate(369.238281 0)"/>
     <use xlink:href="#DejaVuSans-63" transform="translate(430.761719 0)"/>
     <use xlink:href="#DejaVuSans-74" transform="translate(485.742188 0)"/>
     <use xlink:href="#DejaVuSans-72" transform="translate(524.951172 0)"/>
     <use xlink:href="#DejaVuSans-75" transform="translate(566.064453 0)"/>
     <use xlink:href="#DejaVuSans-6d" transform="translate(629.443359 0)"/>
    </g>
   </g>
  </g>
 </g>
 <defs>
  <clipPath id="pa48dfa427c">
   <rect x="81" y="51.84" width="502.2" height="332.64"/>
  </clipPath>
 </defs>
</svg>
