<?xml version="1.0" encoding="utf-8" standalone="no"?>
<!DOCTYPE svg PUBLIC "-//W3C//DTD SVG 1.1//EN"
  "http://www.w3.org/Graphics/SVG/1.1/DTD/svg11.dtd">
<svg xmlns:xlink="http://www.w3.org/1999/xlink" width="720pt" height="288pt" viewBox="0 0 720 288" xmlns="http://www.w3.org/2000/svg" version="1.1">
 <metadata>
  <rdf:RDF xmlns:dc="http://purl.org/dc/elements/1.1/" xmlns:cc="http://creativecommons.org/ns#" xmlns:rdf="http://www.w3.org/1999/02/22-rdf-syntax-ns#">
   <cc:Work>
    <dc:type rdf:resource="http://purl.org/dc/dcmitype/StillImage"/>
    <dc:date>2025-08-18T22:22:12.887097</dc:date>
    <dc:format>image/svg+xml</dc:format>
    <dc:creator>
     <cc:Agent>
      <dc:title>Matplotlib v3.10.5, https://matplotlib.org/</dc:title>
     </cc:Agent>
    </dc:creator>
   </cc:Work>
  </rdf:RDF>
 </metadata>
 <defs>
  <style type="text/css">*{stroke-linejoin: round; stroke-linecap: butt}</style>
 </defs>
 <g id="figure_1">
  <g id="patch_1">
   <path d="M 0 288 
L 720 288 
L 720 0 
L 0 0 
z
" style="fill: #ffffff"/>
  </g>
  <g id="axes_1">
   <g id="patch_2">
    <path d="M 62.39 244.6 
L 354.015 244.6 
L 354.015 10.8 
L 62.39 10.8 
z
" style="fill: #ffffff"/>
   </g>
   <g id="matplotlib.axis_1">
    <g id="xtick_1">
     <g id="line2d_1">
      <path d="M 62.39 244.6 
L 62.39 10.8 
" clip-path="url(#p2d88b03bb2)" style="fill: none; stroke: #b0b0b0; stroke-width: 0.8; stroke-linecap: square"/>
     </g>
     <g id="line2d_2">
      <defs>
       <path id="mddb2e97cfa" d="M 0 0 
L 0 3.5 
" style="stroke: #000000; stroke-width: 0.8"/>
      </defs>
      <g>
       <use xlink:href="#mddb2e97cfa" x="62.39" y="244.6" style="stroke: #000000; stroke-width: 0.8"/>
      </g>
     </g>
     <g id="text_1">
      <!-- 0.0 -->
      <g transform="translate(54.438438 259.198438) scale(0.1 -0.1)">
       <defs>
        <path id="DejaVuSans-30" d="M 2034 4250 
Q 1547 4250 1301 3770 
Q 1056 3291 1056 2328 
Q 1056 1369 1301 889 
Q 1547 409 2034 409 
Q 2525 409 2770 889 
Q 3016 1369 3016 2328 
Q 3016 3291 2770 3770 
Q 2525 4250 2034 4250 
z
M 2034 4750 
Q 2819 4750 3233 4129 
Q 3647 3509 3647 2328 
Q 3647 1150 3233 529 
Q 2819 -91 2034 -91 
Q 1250 -91 836 529 
Q 422 1150 422 2328 
Q 422 3509 836 4129 
Q 1250 4750 2034 4750 
z
" transform="scale(0.015625)"/>
        <path id="DejaVuSans-2e" d="M 684 794 
L 1344 794 
L 1344 0 
L 684 0 
L 684 794 
z
" transform="scale(0.015625)"/>
       </defs>
       <use xlink:href="#DejaVuSans-30"/>
       <use xlink:href="#DejaVuSans-2e" transform="translate(63.623047 0)"/>
       <use xlink:href="#DejaVuSans-30" transform="translate(95.410156 0)"/>
      </g>
     </g>
    </g>
    <g id="xtick_2">
     <g id="line2d_3">
      <path d="M 120.715 244.6 
L 120.715 10.8 
" clip-path="url(#p2d88b03bb2)" style="fill: none; stroke: #b0b0b0; stroke-width: 0.8; stroke-linecap: square"/>
     </g>
     <g id="line2d_4">
      <g>
       <use xlink:href="#mddb2e97cfa" x="120.715" y="244.6" style="stroke: #000000; stroke-width: 0.8"/>
      </g>
     </g>
     <g id="text_2">
      <!-- 0.2 -->
      <g transform="translate(112.763438 259.198438) scale(0.1 -0.1)">
       <defs>
        <path id="DejaVuSans-32" d="M 1228 531 
L 3431 531 
L 3431 0 
L 469 0 
L 469 531 
Q 828 903 1448 1529 
Q 2069 2156 2228 2338 
Q 2531 2678 2651 2914 
Q 2772 3150 2772 3378 
Q 2772 3750 2511 3984 
Q 2250 4219 1831 4219 
Q 1534 4219 1204 4116 
Q 875 4013 500 3803 
L 500 4441 
Q 881 4594 1212 4672 
Q 1544 4750 1819 4750 
Q 2544 4750 2975 4387 
Q 3406 4025 3406 3419 
Q 3406 3131 3298 2873 
Q 3191 2616 2906 2266 
Q 2828 2175 2409 1742 
Q 1991 1309 1228 531 
z
" transform="scale(0.015625)"/>
       </defs>
       <use xlink:href="#DejaVuSans-30"/>
       <use xlink:href="#DejaVuSans-2e" transform="translate(63.623047 0)"/>
       <use xlink:href="#DejaVuSans-32" transform="translate(95.410156 0)"/>
      </g>
     </g>
    </g>
    <g id="xtick_3">
     <g id="line2d_5">
      <path d="M 179.04 244.6 
L 179.04 10.8 
" clip-path="url(#p2d88b03bb2)" style="fill: none; stroke: #b0b0b0; stroke-width: 0.8; stroke-linecap: square"/>
     </g>
     <g id="line2d_6">
      <g>
       <use xlink:href="#mddb2e97cfa" x="179.04" y="244.6" style="stroke: #000000; stroke-width: 0.8"/>
      </g>
     </g>
     <g id="text_3">
      <!-- 0.4 -->
      <g transform="translate(171.088438 259.198438) scale(0.1 -0.1)">
       <defs>
        <path id="DejaVuSans-34" d="M 2419 4116 
L 825 1625 
L 2419 1625 
L 2419 4116 
z
M 2253 4666 
L 3047 4666 
L 3047 1625 
L 3713 1625 
L 3713 1100 
L 3047 1100 
L 3047 0 
L 2419 0 
L 2419 1100 
L 313 1100 
L 313 1709 
L 2253 4666 
z
" transform="scale(0.015625)"/>
       </defs>
       <use xlink:href="#DejaVuSans-30"/>
       <use xlink:href="#DejaVuSans-2e" transform="translate(63.623047 0)"/>
       <use xlink:href="#DejaVuSans-34" transform="translate(95.410156 0)"/>
      </g>
     </g>
    </g>
    <g id="xtick_4">
     <g id="line2d_7">
      <path d="M 237.365 244.6 
L 237.365 10.8 
" clip-path="url(#p2d88b03bb2)" style="fill: none; stroke: #b0b0b0; stroke-width: 0.8; stroke-linecap: square"/>
     </g>
     <g id="line2d_8">
      <g>
       <use xlink:href="#mddb2e97cfa" x="237.365" y="244.6" style="stroke: #000000; stroke-width: 0.8"/>
      </g>
     </g>
     <g id="text_4">
      <!-- 0.6 -->
      <g transform="translate(229.413438 259.198438) scale(0.1 -0.1)">
       <defs>
        <path id="DejaVuSans-36" d="M 2113 2584 
Q 1688 2584 1439 2293 
Q 1191 2003 1191 1497 
Q 1191 994 1439 701 
Q 1688 409 2113 409 
Q 2538 409 2786 701 
Q 3034 994 3034 1497 
Q 3034 2003 2786 2293 
Q 2538 2584 2113 2584 
z
M 3366 4563 
L 3366 3988 
Q 3128 4100 2886 4159 
Q 2644 4219 2406 4219 
Q 1781 4219 1451 3797 
Q 1122 3375 1075 2522 
Q 1259 2794 1537 2939 
Q 1816 3084 2150 3084 
Q 2853 3084 3261 2657 
Q 3669 2231 3669 1497 
Q 3669 778 3244 343 
Q 2819 -91 2113 -91 
Q 1303 -91 875 529 
Q 447 1150 447 2328 
Q 447 3434 972 4092 
Q 1497 4750 2381 4750 
Q 2619 4750 2861 4703 
Q 3103 4656 3366 4563 
z
" transform="scale(0.015625)"/>
       </defs>
       <use xlink:href="#DejaVuSans-30"/>
       <use xlink:href="#DejaVuSans-2e" transform="translate(63.623047 0)"/>
       <use xlink:href="#DejaVuSans-36" transform="translate(95.410156 0)"/>
      </g>
     </g>
    </g>
    <g id="xtick_5">
     <g id="line2d_9">
      <path d="M 295.69 244.6 
L 295.69 10.8 
" clip-path="url(#p2d88b03bb2)" style="fill: none; stroke: #b0b0b0; stroke-width: 0.8; stroke-linecap: square"/>
     </g>
     <g id="line2d_10">
      <g>
       <use xlink:href="#mddb2e97cfa" x="295.69" y="244.6" style="stroke: #000000; stroke-width: 0.8"/>
      </g>
     </g>
     <g id="text_5">
      <!-- 0.8 -->
      <g transform="translate(287.738437 259.198438) scale(0.1 -0.1)">
       <defs>
        <path id="DejaVuSans-38" d="M 2034 2216 
Q 1584 2216 1326 1975 
Q 1069 1734 1069 1313 
Q 1069 891 1326 650 
Q 1584 409 2034 409 
Q 2484 409 2743 651 
Q 3003 894 3003 1313 
Q 3003 1734 2745 1975 
Q 2488 2216 2034 2216 
z
M 1403 2484 
Q 997 2584 770 2862 
Q 544 3141 544 3541 
Q 544 4100 942 4425 
Q 1341 4750 2034 4750 
Q 2731 4750 3128 4425 
Q 3525 4100 3525 3541 
Q 3525 3141 3298 2862 
Q 3072 2584 2669 2484 
Q 3125 2378 3379 2068 
Q 3634 1759 3634 1313 
Q 3634 634 3220 271 
Q 2806 -91 2034 -91 
Q 1263 -91 848 271 
Q 434 634 434 1313 
Q 434 1759 690 2068 
Q 947 2378 1403 2484 
z
M 1172 3481 
Q 1172 3119 1398 2916 
Q 1625 2713 2034 2713 
Q 2441 2713 2670 2916 
Q 2900 3119 2900 3481 
Q 2900 3844 2670 4047 
Q 2441 4250 2034 4250 
Q 1625 4250 1398 4047 
Q 1172 3844 1172 3481 
z
" transform="scale(0.015625)"/>
       </defs>
       <use xlink:href="#DejaVuSans-30"/>
       <use xlink:href="#DejaVuSans-2e" transform="translate(63.623047 0)"/>
       <use xlink:href="#DejaVuSans-38" transform="translate(95.410156 0)"/>
      </g>
     </g>
    </g>
    <g id="xtick_6">
     <g id="line2d_11">
      <path d="M 354.015 244.6 
L 354.015 10.8 
" clip-path="url(#p2d88b03bb2)" style="fill: none; stroke: #b0b0b0; stroke-width: 0.8; stroke-linecap: square"/>
     </g>
     <g id="line2d_12">
      <g>
       <use xlink:href="#mddb2e97cfa" x="354.015" y="244.6" style="stroke: #000000; stroke-width: 0.8"/>
      </g>
     </g>
     <g id="text_6">
      <!-- 1.0 -->
      <g transform="translate(346.063437 259.198438) scale(0.1 -0.1)">
       <defs>
        <path id="DejaVuSans-31" d="M 794 531 
L 1825 531 
L 1825 4091 
L 703 3866 
L 703 4441 
L 1819 4666 
L 2450 4666 
L 2450 531 
L 3481 531 
L 3481 0 
L 794 0 
L 794 531 
z
" transform="scale(0.015625)"/>
       </defs>
       <use xlink:href="#DejaVuSans-31"/>
       <use xlink:href="#DejaVuSans-2e" transform="translate(63.623047 0)"/>
       <use xlink:href="#DejaVuSans-30" transform="translate(95.410156 0)"/>
      </g>
     </g>
    </g>
    <g id="text_7">
     <!-- Time $t$ (seconds) -->
     <g transform="translate(166.3025 272.876562) scale(0.1 -0.1)">
      <defs>
       <path id="DejaVuSans-54" d="M -19 4666 
L 3928 4666 
L 3928 4134 
L 2272 4134 
L 2272 0 
L 1638 0 
L 1638 4134 
L -19 4134 
L -19 4666 
z
" transform="scale(0.015625)"/>
       <path id="DejaVuSans-69" d="M 603 3500 
L 1178 3500 
L 1178 0 
L 603 0 
L 603 3500 
z
M 603 4863 
L 1178 4863 
L 1178 4134 
L 603 4134 
L 603 4863 
z
" transform="scale(0.015625)"/>
       <path id="DejaVuSans-6d" d="M 3328 2828 
Q 3544 3216 3844 3400 
Q 4144 3584 4550 3584 
Q 5097 3584 5394 3201 
Q 5691 2819 5691 2113 
L 5691 0 
L 5113 0 
L 5113 2094 
Q 5113 2597 4934 2840 
Q 4756 3084 4391 3084 
Q 3944 3084 3684 2787 
Q 3425 2491 3425 1978 
L 3425 0 
L 2847 0 
L 2847 2094 
Q 2847 2600 2669 2842 
Q 2491 3084 2119 3084 
Q 1678 3084 1418 2786 
Q 1159 2488 1159 1978 
L 1159 0 
L 581 0 
L 581 3500 
L 1159 3500 
L 1159 2956 
Q 1356 3278 1631 3431 
Q 1906 3584 2284 3584 
Q 2666 3584 2933 3390 
Q 3200 3197 3328 2828 
z
" transform="scale(0.015625)"/>
       <path id="DejaVuSans-65" d="M 3597 1894 
L 3597 1613 
L 953 1613 
Q 991 1019 1311 708 
Q 1631 397 2203 397 
Q 2534 397 2845 478 
Q 3156 559 3463 722 
L 3463 178 
Q 3153 47 2828 -22 
Q 2503 -91 2169 -91 
Q 1331 -91 842 396 
Q 353 884 353 1716 
Q 353 2575 817 3079 
Q 1281 3584 2069 3584 
Q 2775 3584 3186 3129 
Q 3597 2675 3597 1894 
z
M 3022 2063 
Q 3016 2534 2758 2815 
Q 2500 3097 2075 3097 
Q 1594 3097 1305 2825 
Q 1016 2553 972 2059 
L 3022 2063 
z
" transform="scale(0.015625)"/>
       <path id="DejaVuSans-20" transform="scale(0.015625)"/>
       <path id="DejaVuSans-Oblique-74" d="M 2706 3500 
L 2619 3053 
L 1472 3053 
L 1100 1153 
Q 1081 1047 1072 975 
Q 1063 903 1063 863 
Q 1063 663 1183 572 
Q 1303 481 1569 481 
L 2150 481 
L 2053 0 
L 1503 0 
Q 991 0 739 200 
Q 488 400 488 806 
Q 488 878 497 964 
Q 506 1050 525 1153 
L 897 3053 
L 409 3053 
L 500 3500 
L 978 3500 
L 1172 4494 
L 1747 4494 
L 1556 3500 
L 2706 3500 
z
" transform="scale(0.015625)"/>
       <path id="DejaVuSans-28" d="M 1984 4856 
Q 1566 4138 1362 3434 
Q 1159 2731 1159 2009 
Q 1159 1288 1364 580 
Q 1569 -128 1984 -844 
L 1484 -844 
Q 1016 -109 783 600 
Q 550 1309 550 2009 
Q 550 2706 781 3412 
Q 1013 4119 1484 4856 
L 1984 4856 
z
" transform="scale(0.015625)"/>
       <path id="DejaVuSans-73" d="M 2834 3397 
L 2834 2853 
Q 2591 2978 2328 3040 
Q 2066 3103 1784 3103 
Q 1356 3103 1142 2972 
Q 928 2841 928 2578 
Q 928 2378 1081 2264 
Q 1234 2150 1697 2047 
L 1894 2003 
Q 2506 1872 2764 1633 
Q 3022 1394 3022 966 
Q 3022 478 2636 193 
Q 2250 -91 1575 -91 
Q 1294 -91 989 -36 
Q 684 19 347 128 
L 347 722 
Q 666 556 975 473 
Q 1284 391 1588 391 
Q 1994 391 2212 530 
Q 2431 669 2431 922 
Q 2431 1156 2273 1281 
Q 2116 1406 1581 1522 
L 1381 1569 
Q 847 1681 609 1914 
Q 372 2147 372 2553 
Q 372 3047 722 3315 
Q 1072 3584 1716 3584 
Q 2034 3584 2315 3537 
Q 2597 3491 2834 3397 
z
" transform="scale(0.015625)"/>
       <path id="DejaVuSans-63" d="M 3122 3366 
L 3122 2828 
Q 2878 2963 2633 3030 
Q 2388 3097 2138 3097 
Q 1578 3097 1268 2742 
Q 959 2388 959 1747 
Q 959 1106 1268 751 
Q 1578 397 2138 397 
Q 2388 397 2633 464 
Q 2878 531 3122 666 
L 3122 134 
Q 2881 22 2623 -34 
Q 2366 -91 2075 -91 
Q 1284 -91 818 406 
Q 353 903 353 1747 
Q 353 2603 823 3093 
Q 1294 3584 2113 3584 
Q 2378 3584 2631 3529 
Q 2884 3475 3122 3366 
z
" transform="scale(0.015625)"/>
       <path id="DejaVuSans-6f" d="M 1959 3097 
Q 1497 3097 1228 2736 
Q 959 2375 959 1747 
Q 959 1119 1226 758 
Q 1494 397 1959 397 
Q 2419 397 2687 759 
Q 2956 1122 2956 1747 
Q 2956 2369 2687 2733 
Q 2419 3097 1959 3097 
z
M 1959 3584 
Q 2709 3584 3137 3096 
Q 3566 2609 3566 1747 
Q 3566 888 3137 398 
Q 2709 -91 1959 -91 
Q 1206 -91 779 398 
Q 353 888 353 1747 
Q 353 2609 779 3096 
Q 1206 3584 1959 3584 
z
" transform="scale(0.015625)"/>
       <path id="DejaVuSans-6e" d="M 3513 2113 
L 3513 0 
L 2938 0 
L 2938 2094 
Q 2938 2591 2744 2837 
Q 2550 3084 2163 3084 
Q 1697 3084 1428 2787 
Q 1159 2491 1159 1978 
L 1159 0 
L 581 0 
L 581 3500 
L 1159 3500 
L 1159 2956 
Q 1366 3272 1645 3428 
Q 1925 3584 2291 3584 
Q 2894 3584 3203 3211 
Q 3513 2838 3513 2113 
z
" transform="scale(0.015625)"/>
       <path id="DejaVuSans-64" d="M 2906 2969 
L 2906 4863 
L 3481 4863 
L 3481 0 
L 2906 0 
L 2906 525 
Q 2725 213 2448 61 
Q 2172 -91 1784 -91 
Q 1150 -91 751 415 
Q 353 922 353 1747 
Q 353 2572 751 3078 
Q 1150 3584 1784 3584 
Q 2172 3584 2448 3432 
Q 2725 3281 2906 2969 
z
M 947 1747 
Q 947 1113 1208 752 
Q 1469 391 1925 391 
Q 2381 391 2643 752 
Q 2906 1113 2906 1747 
Q 2906 2381 2643 2742 
Q 2381 3103 1925 3103 
Q 1469 3103 1208 2742 
Q 947 2381 947 1747 
z
" transform="scale(0.015625)"/>
       <path id="DejaVuSans-29" d="M 513 4856 
L 1013 4856 
Q 1481 4119 1714 3412 
Q 1947 2706 1947 2009 
Q 1947 1309 1714 600 
Q 1481 -109 1013 -844 
L 513 -844 
Q 928 -128 1133 580 
Q 1338 1288 1338 2009 
Q 1338 2731 1133 3434 
Q 928 4138 513 4856 
z
" transform="scale(0.015625)"/>
      </defs>
      <use xlink:href="#DejaVuSans-54" transform="translate(0 0.015625)"/>
      <use xlink:href="#DejaVuSans-69" transform="translate(61.083984 0.015625)"/>
      <use xlink:href="#DejaVuSans-6d" transform="translate(88.867188 0.015625)"/>
      <use xlink:href="#DejaVuSans-65" transform="translate(186.279297 0.015625)"/>
      <use xlink:href="#DejaVuSans-20" transform="translate(247.802734 0.015625)"/>
      <use xlink:href="#DejaVuSans-Oblique-74" transform="translate(279.589844 0.015625)"/>
      <use xlink:href="#DejaVuSans-20" transform="translate(318.798828 0.015625)"/>
      <use xlink:href="#DejaVuSans-28" transform="translate(350.585938 0.015625)"/>
      <use xlink:href="#DejaVuSans-73" transform="translate(389.599609 0.015625)"/>
      <use xlink:href="#DejaVuSans-65" transform="translate(441.699219 0.015625)"/>
      <use xlink:href="#DejaVuSans-63" transform="translate(503.222656 0.015625)"/>
      <use xlink:href="#DejaVuSans-6f" transform="translate(558.203125 0.015625)"/>
      <use xlink:href="#DejaVuSans-6e" transform="translate(619.384766 0.015625)"/>
      <use xlink:href="#DejaVuSans-64" transform="translate(682.763672 0.015625)"/>
      <use xlink:href="#DejaVuSans-73" transform="translate(746.240234 0.015625)"/>
      <use xlink:href="#DejaVuSans-29" transform="translate(798.339844 0.015625)"/>
     </g>
    </g>
   </g>
   <g id="matplotlib.axis_2">
    <g id="ytick_1">
     <g id="line2d_13">
      <path d="M 62.39 233.981119 
L 354.015 233.981119 
" clip-path="url(#p2d88b03bb2)" style="fill: none; stroke: #b0b0b0; stroke-width: 0.8; stroke-linecap: square"/>
     </g>
     <g id="line2d_14">
      <defs>
       <path id="m228297c1f3" d="M 0 0 
L -3.5 0 
" style="stroke: #000000; stroke-width: 0.8"/>
      </defs>
      <g>
       <use xlink:href="#m228297c1f3" x="62.39" y="233.981119" style="stroke: #000000; stroke-width: 0.8"/>
      </g>
     </g>
     <g id="text_8">
      <!-- −1.00 -->
      <g transform="translate(24.744688 237.780338) scale(0.1 -0.1)">
       <defs>
        <path id="DejaVuSans-2212" d="M 678 2272 
L 4684 2272 
L 4684 1741 
L 678 1741 
L 678 2272 
z
" transform="scale(0.015625)"/>
       </defs>
       <use xlink:href="#DejaVuSans-2212"/>
       <use xlink:href="#DejaVuSans-31" transform="translate(83.789062 0)"/>
       <use xlink:href="#DejaVuSans-2e" transform="translate(147.412109 0)"/>
       <use xlink:href="#DejaVuSans-30" transform="translate(179.199219 0)"/>
       <use xlink:href="#DejaVuSans-30" transform="translate(242.822266 0)"/>
      </g>
     </g>
    </g>
    <g id="ytick_2">
     <g id="line2d_15">
      <path d="M 62.39 207.410839 
L 354.015 207.410839 
" clip-path="url(#p2d88b03bb2)" style="fill: none; stroke: #b0b0b0; stroke-width: 0.8; stroke-linecap: square"/>
     </g>
     <g id="line2d_16">
      <g>
       <use xlink:href="#m228297c1f3" x="62.39" y="207.410839" style="stroke: #000000; stroke-width: 0.8"/>
      </g>
     </g>
     <g id="text_9">
      <!-- −0.75 -->
      <g transform="translate(24.744688 211.210058) scale(0.1 -0.1)">
       <defs>
        <path id="DejaVuSans-37" d="M 525 4666 
L 3525 4666 
L 3525 4397 
L 1831 0 
L 1172 0 
L 2766 4134 
L 525 4134 
L 525 4666 
z
" transform="scale(0.015625)"/>
        <path id="DejaVuSans-35" d="M 691 4666 
L 3169 4666 
L 3169 4134 
L 1269 4134 
L 1269 2991 
Q 1406 3038 1543 3061 
Q 1681 3084 1819 3084 
Q 2600 3084 3056 2656 
Q 3513 2228 3513 1497 
Q 3513 744 3044 326 
Q 2575 -91 1722 -91 
Q 1428 -91 1123 -41 
Q 819 9 494 109 
L 494 744 
Q 775 591 1075 516 
Q 1375 441 1709 441 
Q 2250 441 2565 725 
Q 2881 1009 2881 1497 
Q 2881 1984 2565 2268 
Q 2250 2553 1709 2553 
Q 1456 2553 1204 2497 
Q 953 2441 691 2322 
L 691 4666 
z
" transform="scale(0.015625)"/>
       </defs>
       <use xlink:href="#DejaVuSans-2212"/>
       <use xlink:href="#DejaVuSans-30" transform="translate(83.789062 0)"/>
       <use xlink:href="#DejaVuSans-2e" transform="translate(147.412109 0)"/>
       <use xlink:href="#DejaVuSans-37" transform="translate(179.199219 0)"/>
       <use xlink:href="#DejaVuSans-35" transform="translate(242.822266 0)"/>
      </g>
     </g>
    </g>
    <g id="ytick_3">
     <g id="line2d_17">
      <path d="M 62.39 180.840559 
L 354.015 180.840559 
" clip-path="url(#p2d88b03bb2)" style="fill: none; stroke: #b0b0b0; stroke-width: 0.8; stroke-linecap: square"/>
     </g>
     <g id="line2d_18">
      <g>
       <use xlink:href="#m228297c1f3" x="62.39" y="180.840559" style="stroke: #000000; stroke-width: 0.8"/>
      </g>
     </g>
     <g id="text_10">
      <!-- −0.50 -->
      <g transform="translate(24.744688 184.639778) scale(0.1 -0.1)">
       <use xlink:href="#DejaVuSans-2212"/>
       <use xlink:href="#DejaVuSans-30" transform="translate(83.789062 0)"/>
       <use xlink:href="#DejaVuSans-2e" transform="translate(147.412109 0)"/>
       <use xlink:href="#DejaVuSans-35" transform="translate(179.199219 0)"/>
       <use xlink:href="#DejaVuSans-30" transform="translate(242.822266 0)"/>
      </g>
     </g>
    </g>
    <g id="ytick_4">
     <g id="line2d_19">
      <path d="M 62.39 154.27028 
L 354.015 154.27028 
" clip-path="url(#p2d88b03bb2)" style="fill: none; stroke: #b0b0b0; stroke-width: 0.8; stroke-linecap: square"/>
     </g>
     <g id="line2d_20">
      <g>
       <use xlink:href="#m228297c1f3" x="62.39" y="154.27028" style="stroke: #000000; stroke-width: 0.8"/>
      </g>
     </g>
     <g id="text_11">
      <!-- −0.25 -->
      <g transform="translate(24.744688 158.069498) scale(0.1 -0.1)">
       <use xlink:href="#DejaVuSans-2212"/>
       <use xlink:href="#DejaVuSans-30" transform="translate(83.789062 0)"/>
       <use xlink:href="#DejaVuSans-2e" transform="translate(147.412109 0)"/>
       <use xlink:href="#DejaVuSans-32" transform="translate(179.199219 0)"/>
       <use xlink:href="#DejaVuSans-35" transform="translate(242.822266 0)"/>
      </g>
     </g>
    </g>
    <g id="ytick_5">
     <g id="line2d_21">
      <path d="M 62.39 127.7 
L 354.015 127.7 
" clip-path="url(#p2d88b03bb2)" style="fill: none; stroke: #b0b0b0; stroke-width: 0.8; stroke-linecap: square"/>
     </g>
     <g id="line2d_22">
      <g>
       <use xlink:href="#m228297c1f3" x="62.39" y="127.7" style="stroke: #000000; stroke-width: 0.8"/>
      </g>
     </g>
     <g id="text_12">
      <!-- 0.00 -->
      <g transform="translate(33.124375 131.499219) scale(0.1 -0.1)">
       <use xlink:href="#DejaVuSans-30"/>
       <use xlink:href="#DejaVuSans-2e" transform="translate(63.623047 0)"/>
       <use xlink:href="#DejaVuSans-30" transform="translate(95.410156 0)"/>
       <use xlink:href="#DejaVuSans-30" transform="translate(159.033203 0)"/>
      </g>
     </g>
    </g>
    <g id="ytick_6">
     <g id="line2d_23">
      <path d="M 62.39 101.12972 
L 354.015 101.12972 
" clip-path="url(#p2d88b03bb2)" style="fill: none; stroke: #b0b0b0; stroke-width: 0.8; stroke-linecap: square"/>
     </g>
     <g id="line2d_24">
      <g>
       <use xlink:href="#m228297c1f3" x="62.39" y="101.12972" style="stroke: #000000; stroke-width: 0.8"/>
      </g>
     </g>
     <g id="text_13">
      <!-- 0.25 -->
      <g transform="translate(33.124375 104.928939) scale(0.1 -0.1)">
       <use xlink:href="#DejaVuSans-30"/>
       <use xlink:href="#DejaVuSans-2e" transform="translate(63.623047 0)"/>
       <use xlink:href="#DejaVuSans-32" transform="translate(95.410156 0)"/>
       <use xlink:href="#DejaVuSans-35" transform="translate(159.033203 0)"/>
      </g>
     </g>
    </g>
    <g id="ytick_7">
     <g id="line2d_25">
      <path d="M 62.39 74.559441 
L 354.015 74.559441 
" clip-path="url(#p2d88b03bb2)" style="fill: none; stroke: #b0b0b0; stroke-width: 0.8; stroke-linecap: square"/>
     </g>
     <g id="line2d_26">
      <g>
       <use xlink:href="#m228297c1f3" x="62.39" y="74.559441" style="stroke: #000000; stroke-width: 0.8"/>
      </g>
     </g>
     <g id="text_14">
      <!-- 0.50 -->
      <g transform="translate(33.124375 78.358659) scale(0.1 -0.1)">
       <use xlink:href="#DejaVuSans-30"/>
       <use xlink:href="#DejaVuSans-2e" transform="translate(63.623047 0)"/>
       <use xlink:href="#DejaVuSans-35" transform="translate(95.410156 0)"/>
       <use xlink:href="#DejaVuSans-30" transform="translate(159.033203 0)"/>
      </g>
     </g>
    </g>
    <g id="ytick_8">
     <g id="line2d_27">
      <path d="M 62.39 47.989161 
L 354.015 47.989161 
" clip-path="url(#p2d88b03bb2)" style="fill: none; stroke: #b0b0b0; stroke-width: 0.8; stroke-linecap: square"/>
     </g>
     <g id="line2d_28">
      <g>
       <use xlink:href="#m228297c1f3" x="62.39" y="47.989161" style="stroke: #000000; stroke-width: 0.8"/>
      </g>
     </g>
     <g id="text_15">
      <!-- 0.75 -->
      <g transform="translate(33.124375 51.78838) scale(0.1 -0.1)">
       <use xlink:href="#DejaVuSans-30"/>
       <use xlink:href="#DejaVuSans-2e" transform="translate(63.623047 0)"/>
       <use xlink:href="#DejaVuSans-37" transform="translate(95.410156 0)"/>
       <use xlink:href="#DejaVuSans-35" transform="translate(159.033203 0)"/>
      </g>
     </g>
    </g>
    <g id="ytick_9">
     <g id="line2d_29">
      <path d="M 62.39 21.418881 
L 354.015 21.418881 
" clip-path="url(#p2d88b03bb2)" style="fill: none; stroke: #b0b0b0; stroke-width: 0.8; stroke-linecap: square"/>
     </g>
     <g id="line2d_30">
      <g>
       <use xlink:href="#m228297c1f3" x="62.39" y="21.418881" style="stroke: #000000; stroke-width: 0.8"/>
      </g>
     </g>
     <g id="text_16">
      <!-- 1.00 -->
      <g transform="translate(33.124375 25.2181) scale(0.1 -0.1)">
       <use xlink:href="#DejaVuSans-31"/>
       <use xlink:href="#DejaVuSans-2e" transform="translate(63.623047 0)"/>
       <use xlink:href="#DejaVuSans-30" transform="translate(95.410156 0)"/>
       <use xlink:href="#DejaVuSans-30" transform="translate(159.033203 0)"/>
      </g>
     </g>
    </g>
    <g id="text_17">
     <!-- Amplitude -->
     <g transform="translate(18.665 153.322656) rotate(-90) scale(0.1 -0.1)">
      <defs>
       <path id="DejaVuSans-41" d="M 2188 4044 
L 1331 1722 
L 3047 1722 
L 2188 4044 
z
M 1831 4666 
L 2547 4666 
L 4325 0 
L 3669 0 
L 3244 1197 
L 1141 1197 
L 716 0 
L 50 0 
L 1831 4666 
z
" transform="scale(0.015625)"/>
       <path id="DejaVuSans-70" d="M 1159 525 
L 1159 -1331 
L 581 -1331 
L 581 3500 
L 1159 3500 
L 1159 2969 
Q 1341 3281 1617 3432 
Q 1894 3584 2278 3584 
Q 2916 3584 3314 3078 
Q 3713 2572 3713 1747 
Q 3713 922 3314 415 
Q 2916 -91 2278 -91 
Q 1894 -91 1617 61 
Q 1341 213 1159 525 
z
M 3116 1747 
Q 3116 2381 2855 2742 
Q 2594 3103 2138 3103 
Q 1681 3103 1420 2742 
Q 1159 2381 1159 1747 
Q 1159 1113 1420 752 
Q 1681 391 2138 391 
Q 2594 391 2855 752 
Q 3116 1113 3116 1747 
z
" transform="scale(0.015625)"/>
       <path id="DejaVuSans-6c" d="M 603 4863 
L 1178 4863 
L 1178 0 
L 603 0 
L 603 4863 
z
" transform="scale(0.015625)"/>
       <path id="DejaVuSans-74" d="M 1172 4494 
L 1172 3500 
L 2356 3500 
L 2356 3053 
L 1172 3053 
L 1172 1153 
Q 1172 725 1289 603 
Q 1406 481 1766 481 
L 2356 481 
L 2356 0 
L 1766 0 
Q 1100 0 847 248 
Q 594 497 594 1153 
L 594 3053 
L 172 3053 
L 172 3500 
L 594 3500 
L 594 4494 
L 1172 4494 
z
" transform="scale(0.015625)"/>
       <path id="DejaVuSans-75" d="M 544 1381 
L 544 3500 
L 1119 3500 
L 1119 1403 
Q 1119 906 1312 657 
Q 1506 409 1894 409 
Q 2359 409 2629 706 
Q 2900 1003 2900 1516 
L 2900 3500 
L 3475 3500 
L 3475 0 
L 2900 0 
L 2900 538 
Q 2691 219 2414 64 
Q 2138 -91 1772 -91 
Q 1169 -91 856 284 
Q 544 659 544 1381 
z
M 1991 3584 
L 1991 3584 
z
" transform="scale(0.015625)"/>
      </defs>
      <use xlink:href="#DejaVuSans-41"/>
      <use xlink:href="#DejaVuSans-6d" transform="translate(68.408203 0)"/>
      <use xlink:href="#DejaVuSans-70" transform="translate(165.820312 0)"/>
      <use xlink:href="#DejaVuSans-6c" transform="translate(229.296875 0)"/>
      <use xlink:href="#DejaVuSans-69" transform="translate(257.080078 0)"/>
      <use xlink:href="#DejaVuSans-74" transform="translate(284.863281 0)"/>
      <use xlink:href="#DejaVuSans-75" transform="translate(324.072266 0)"/>
      <use xlink:href="#DejaVuSans-64" transform="translate(387.451172 0)"/>
      <use xlink:href="#DejaVuSans-65" transform="translate(450.927734 0)"/>
     </g>
    </g>
   </g>
   <g id="line2d_31">
    <path d="M 62.39 127.7 
L 69.389 96.130088 
L 72.8885 81.242847 
L 75.80475 69.628598 
L 78.721 58.930168 
L 81.054 51.144751 
L 83.387 44.132386 
L 85.72 37.963883 
L 87.46975 33.929101 
L 89.2195 30.427144 
L 90.96925 27.477911 
L 92.719 25.098159 
L 93.8855 23.83485 
L 95.052 22.833914 
L 96.2185 22.097878 
L 97.385 21.628603 
L 98.5515 21.427273 
L 99.718 21.494397 
L 100.8845 21.829806 
L 102.051 22.432652 
L 103.2175 23.301412 
L 104.384 24.433892 
L 105.5505 25.827232 
L 106.717 27.477911 
L 108.46675 30.427144 
L 110.2165 33.929101 
L 111.96625 37.963883 
L 113.716 42.508564 
L 116.049 49.316281 
L 118.382 56.915514 
L 120.715 65.229526 
L 123.63125 76.498681 
L 127.13075 91.070965 
L 131.2135 109.098353 
L 144.62825 169.295631 
L 148.12775 183.516147 
L 151.044 194.41174 
L 153.377 202.378425 
L 155.71 209.591009 
L 158.043 215.976661 
L 159.79275 220.184103 
L 161.5425 223.866031 
L 163.29225 227.001525 
L 165.042 229.572768 
L 166.2085 230.966108 
L 167.375 232.098588 
L 168.5415 232.967348 
L 169.708 233.570194 
L 170.8745 233.905603 
L 172.041 233.972727 
L 173.2075 233.771397 
L 174.374 233.302122 
L 175.5405 232.566086 
L 176.707 231.56515 
L 177.8735 230.301841 
L 179.04 228.779351 
L 180.78975 226.018241 
L 182.5395 222.698467 
L 184.28925 218.838892 
L 186.039 214.461449 
L 188.372 207.862681 
L 190.705 200.454432 
L 193.038 192.311512 
L 195.95425 181.225637 
L 199.45375 166.824689 
L 203.5365 148.9254 
L 218.11775 83.6597 
L 221.61725 69.628598 
L 224.5335 58.930168 
L 226.8665 51.144751 
L 229.1995 44.132386 
L 231.5325 37.963883 
L 233.28225 33.929101 
L 235.032 30.427144 
L 236.78175 27.477911 
L 238.5315 25.098159 
L 239.698 23.83485 
L 240.8645 22.833914 
L 242.031 22.097878 
L 243.1975 21.628603 
L 244.364 21.427273 
L 245.5305 21.494397 
L 246.697 21.829806 
L 247.8635 22.432652 
L 249.03 23.301412 
L 250.1965 24.433892 
L 251.363 25.827232 
L 252.5295 27.477911 
L 254.27925 30.427144 
L 256.029 33.929101 
L 257.77875 37.963883 
L 259.5285 42.508564 
L 261.8615 49.316281 
L 264.1945 56.915514 
L 266.5275 65.229526 
L 269.44375 76.498681 
L 272.94325 91.070965 
L 277.026 109.098353 
L 290.44075 169.295631 
L 293.94025 183.516147 
L 296.8565 194.41174 
L 299.1895 202.378425 
L 301.5225 209.591009 
L 303.8555 215.976661 
L 305.60525 220.184103 
L 307.355 223.866031 
L 309.10475 227.001525 
L 310.8545 229.572768 
L 312.021 230.966108 
L 313.1875 232.098588 
L 314.354 232.967348 
L 315.5205 233.570194 
L 316.687 233.905603 
L 317.8535 233.972727 
L 319.02 233.771397 
L 320.1865 233.302122 
L 321.353 232.566086 
L 322.5195 231.56515 
L 323.686 230.301841 
L 324.8525 228.779351 
L 326.60225 226.018241 
L 328.352 222.698467 
L 330.10175 218.838892 
L 331.8515 214.461449 
L 334.1845 207.862681 
L 336.5175 200.454432 
L 338.8505 192.311512 
L 341.76675 181.225637 
L 345.26625 166.824689 
L 349.349 148.9254 
L 354.015 127.7 
L 354.015 127.7 
" clip-path="url(#p2d88b03bb2)" style="fill: none; stroke: #1f77b4; stroke-width: 1.5; stroke-linecap: square"/>
   </g>
   <g id="patch_3">
    <path d="M 62.39 244.6 
L 62.39 10.8 
" style="fill: none; stroke: #000000; stroke-width: 0.8; stroke-linejoin: miter; stroke-linecap: square"/>
   </g>
   <g id="patch_4">
    <path d="M 354.015 244.6 
L 354.015 10.8 
" style="fill: none; stroke: #000000; stroke-width: 0.8; stroke-linejoin: miter; stroke-linecap: square"/>
   </g>
   <g id="patch_5">
    <path d="M 62.39 244.6 
L 354.015 244.6 
" style="fill: none; stroke: #000000; stroke-width: 0.8; stroke-linejoin: miter; stroke-linecap: square"/>
   </g>
   <g id="patch_6">
    <path d="M 62.39 10.8 
L 354.015 10.8 
" style="fill: none; stroke: #000000; stroke-width: 0.8; stroke-linejoin: miter; stroke-linecap: square"/>
   </g>
   <g id="legend_1">
    <g id="patch_7">
     <path d="M 297.315 33.478125 
L 347.015 33.478125 
Q 349.015 33.478125 349.015 31.478125 
L 349.015 17.8 
Q 349.015 15.8 347.015 15.8 
L 297.315 15.8 
Q 295.315 15.8 295.315 17.8 
L 295.315 31.478125 
Q 295.315 33.478125 297.315 33.478125 
z
" style="fill: #ffffff; opacity: 0.8; stroke: #cccccc; stroke-linejoin: miter"/>
    </g>
    <g id="line2d_32">
     <path d="M 299.315 23.898438 
L 309.315 23.898438 
L 319.315 23.898438 
" style="fill: none; stroke: #1f77b4; stroke-width: 1.5; stroke-linecap: square"/>
    </g>
    <g id="text_18">
     <!-- $x(t)$ -->
     <g transform="translate(327.315 27.398438) scale(0.1 -0.1)">
      <defs>
       <path id="DejaVuSans-Oblique-78" d="M 3841 3500 
L 2234 1784 
L 3219 0 
L 2559 0 
L 1819 1388 
L 531 0 
L -166 0 
L 1556 1844 
L 641 3500 
L 1300 3500 
L 1972 2234 
L 3144 3500 
L 3841 3500 
z
" transform="scale(0.015625)"/>
      </defs>
      <use xlink:href="#DejaVuSans-Oblique-78" transform="translate(0 0.125)"/>
      <use xlink:href="#DejaVuSans-28" transform="translate(59.179688 0.125)"/>
      <use xlink:href="#DejaVuSans-Oblique-74" transform="translate(98.193359 0.125)"/>
      <use xlink:href="#DejaVuSans-29" transform="translate(137.402344 0.125)"/>
     </g>
    </g>
   </g>
  </g>
  <g id="axes_2">
   <g id="patch_8">
    <path d="M 409.655 244.6 
L 701.28 244.6 
L 701.28 10.8 
L 409.655 10.8 
z
" style="fill: #ffffff"/>
   </g>
   <g id="FillBetweenPolyCollection_1">
    <defs>
     <path id="me2bcffe37c" d="M 409.655 -54.027273 
L 409.655 -54.027273 
L 410.23825 -54.161521 
L 410.8215 -54.563927 
L 411.40475 -55.233473 
L 411.988 -56.168469 
L 412.57125 -57.366553 
L 413.1545 -58.824698 
L 413.73775 -60.539221 
L 414.321 -62.505791 
L 414.90425 -64.719439 
L 415.4875 -67.174575 
L 416.07075 -69.864996 
L 416.654 -72.783907 
L 417.23725 -75.923933 
L 417.8205 -79.277142 
L 418.40375 -82.835065 
L 418.987 -86.588713 
L 419.57025 -90.528605 
L 420.1535 -94.644788 
L 420.73675 -98.926863 
L 421.32 -103.364016 
L 421.90325 -107.945036 
L 422.4865 -112.658351 
L 423.06975 -117.492056 
L 423.653 -122.433939 
L 424.23625 -127.471518 
L 424.8195 -132.592068 
L 425.40275 -137.782652 
L 425.986 -143.030159 
L 426.56925 -148.321334 
L 427.1525 -153.64281 
L 427.73575 -158.981145 
L 428.319 -164.322855 
L 428.90225 -169.654444 
L 429.4855 -174.962446 
L 430.06875 -180.233452 
L 430.652 -185.454146 
L 431.23525 -190.611342 
L 431.8185 -195.69201 
L 432.40175 -200.683318 
L 432.985 -205.572656 
L 433.56825 -210.347674 
L 434.1515 -214.99631 
L 434.73475 -219.506821 
L 435.318 -223.867812 
L 435.90125 -228.068268 
L 436.4845 -232.097578 
L 437.06775 -235.945563 
L 437.651 -239.602503 
L 438.23425 -243.059161 
L 438.8175 -246.306804 
L 439.40075 -249.337229 
L 439.984 -252.142781 
L 440.56725 -254.716372 
L 441.1505 -257.051502 
L 441.73375 -259.142272 
L 442.317 -260.983399 
L 442.90025 -262.570234 
L 443.4835 -263.898768 
L 444.06675 -264.965645 
L 444.65 -265.76817 
L 445.23325 -266.304316 
L 445.8165 -266.572727 
L 446.39975 -266.572727 
L 446.983 -266.304316 
L 447.56625 -265.76817 
L 448.1495 -264.965645 
L 448.73275 -263.898768 
L 449.316 -262.570234 
L 449.89925 -260.983399 
L 450.4825 -259.142272 
L 451.06575 -257.051502 
L 451.649 -254.716372 
L 452.23225 -252.142781 
L 452.8155 -249.337229 
L 453.39875 -246.306804 
L 453.982 -243.059161 
L 454.56525 -239.602503 
L 455.1485 -235.945563 
L 455.73175 -232.097578 
L 456.315 -228.068268 
L 456.89825 -223.867812 
L 457.4815 -219.506821 
L 458.06475 -214.99631 
L 458.648 -210.347674 
L 459.23125 -205.572656 
L 459.8145 -200.683318 
L 460.39775 -195.69201 
L 460.981 -190.611342 
L 461.56425 -185.454146 
L 462.1475 -180.233452 
L 462.73075 -174.962446 
L 463.314 -169.654444 
L 463.89725 -164.322855 
L 464.4805 -158.981145 
L 465.06375 -153.64281 
L 465.647 -148.321334 
L 466.23025 -143.030159 
L 466.8135 -137.782652 
L 467.39675 -132.592068 
L 467.98 -127.471518 
L 468.56325 -122.433939 
L 469.1465 -117.492056 
L 469.72975 -112.658351 
L 470.313 -107.945036 
L 470.89625 -103.364016 
L 471.4795 -98.926863 
L 472.06275 -94.644788 
L 472.646 -90.528605 
L 473.22925 -86.588713 
L 473.8125 -82.835065 
L 474.39575 -79.277142 
L 474.979 -75.923933 
L 475.56225 -72.783907 
L 476.1455 -69.864996 
L 476.72875 -67.174575 
L 477.312 -64.719439 
L 477.89525 -62.505791 
L 478.4785 -60.539221 
L 479.06175 -58.824698 
L 479.645 -57.366553 
L 480.22825 -56.168469 
L 480.8115 -55.233473 
L 481.39475 -54.563927 
L 481.978 -54.161521 
L 482.56125 -54.027273 
L 483.1445 -54.161521 
L 483.72775 -54.563927 
L 484.311 -55.233473 
L 484.89425 -56.168469 
L 485.4775 -57.366553 
L 486.06075 -58.824698 
L 486.644 -60.539221 
L 487.22725 -62.505791 
L 487.8105 -64.719439 
L 488.39375 -67.174575 
L 488.977 -69.864996 
L 489.56025 -72.783907 
L 490.1435 -75.923933 
L 490.72675 -79.277142 
L 491.31 -82.835065 
L 491.89325 -86.588713 
L 492.4765 -90.528605 
L 493.05975 -94.644788 
L 493.643 -98.926863 
L 494.22625 -103.364016 
L 494.8095 -107.945036 
L 495.39275 -112.658351 
L 495.976 -117.492056 
L 496.55925 -122.433939 
L 497.1425 -127.471518 
L 497.72575 -132.592068 
L 498.309 -137.782652 
L 498.89225 -143.030159 
L 499.4755 -148.321334 
L 500.05875 -153.64281 
L 500.642 -158.981145 
L 501.22525 -164.322855 
L 501.8085 -169.654444 
L 502.39175 -174.962446 
L 502.975 -180.233452 
L 503.55825 -185.454146 
L 504.1415 -190.611342 
L 504.72475 -195.69201 
L 505.308 -200.683318 
L 505.89125 -205.572656 
L 506.4745 -210.347674 
L 507.05775 -214.99631 
L 507.641 -219.506821 
L 508.22425 -223.867812 
L 508.8075 -228.068268 
L 509.39075 -232.097578 
L 509.974 -235.945563 
L 510.55725 -239.602503 
L 511.1405 -243.059161 
L 511.72375 -246.306804 
L 512.307 -249.337229 
L 512.89025 -252.142781 
L 513.4735 -254.716372 
L 514.05675 -257.051502 
L 514.64 -259.142272 
L 515.22325 -260.983399 
L 515.8065 -262.570234 
L 516.38975 -263.898768 
L 516.973 -264.965645 
L 517.55625 -265.76817 
L 518.1395 -266.304316 
L 518.72275 -266.572727 
L 519.306 -266.572727 
L 519.88925 -266.304316 
L 520.4725 -265.76817 
L 521.05575 -264.965645 
L 521.639 -263.898768 
L 522.22225 -262.570234 
L 522.8055 -260.983399 
L 523.38875 -259.142272 
L 523.972 -257.051502 
L 524.55525 -254.716372 
L 525.1385 -252.142781 
L 525.72175 -249.337229 
L 526.305 -246.306804 
L 526.88825 -243.059161 
L 527.4715 -239.602503 
L 528.05475 -235.945563 
L 528.638 -232.097578 
L 529.22125 -228.068268 
L 529.8045 -223.867812 
L 530.38775 -219.506821 
L 530.971 -214.99631 
L 531.55425 -210.347674 
L 532.1375 -205.572656 
L 532.72075 -200.683318 
L 533.304 -195.69201 
L 533.88725 -190.611342 
L 534.4705 -185.454146 
L 535.05375 -180.233452 
L 535.637 -174.962446 
L 536.22025 -169.654444 
L 536.8035 -164.322855 
L 537.38675 -158.981145 
L 537.97 -153.64281 
L 538.55325 -148.321334 
L 539.1365 -143.030159 
L 539.71975 -137.782652 
L 540.303 -132.592068 
L 540.88625 -127.471518 
L 541.4695 -122.433939 
L 542.05275 -117.492056 
L 542.636 -112.658351 
L 543.21925 -107.945036 
L 543.8025 -103.364016 
L 544.38575 -98.926863 
L 544.969 -94.644788 
L 545.55225 -90.528605 
L 546.1355 -86.588713 
L 546.71875 -82.835065 
L 547.302 -79.277142 
L 547.88525 -75.923933 
L 548.4685 -72.783907 
L 549.05175 -69.864996 
L 549.635 -67.174575 
L 550.21825 -64.719439 
L 550.8015 -62.505791 
L 551.38475 -60.539221 
L 551.968 -58.824698 
L 552.55125 -57.366553 
L 553.1345 -56.168469 
L 553.71775 -55.233473 
L 554.301 -54.563927 
L 554.88425 -54.161521 
L 555.4675 -54.027273 
L 556.05075 -54.161521 
L 556.634 -54.563927 
L 557.21725 -55.233473 
L 557.8005 -56.168469 
L 558.38375 -57.366553 
L 558.967 -58.824698 
L 559.55025 -60.539221 
L 560.1335 -62.505791 
L 560.71675 -64.719439 
L 561.3 -67.174575 
L 561.88325 -69.864996 
L 562.4665 -72.783907 
L 563.04975 -75.923933 
L 563.633 -79.277142 
L 564.21625 -82.835065 
L 564.7995 -86.588713 
L 565.38275 -90.528605 
L 565.966 -94.644788 
L 566.54925 -98.926863 
L 567.1325 -103.364016 
L 567.71575 -107.945036 
L 568.299 -112.658351 
L 568.88225 -117.492056 
L 569.4655 -122.433939 
L 570.04875 -127.471518 
L 570.632 -132.592068 
L 571.21525 -137.782652 
L 571.7985 -143.030159 
L 572.38175 -148.321334 
L 572.965 -153.64281 
L 573.54825 -158.981145 
L 574.1315 -164.322855 
L 574.71475 -169.654444 
L 575.298 -174.962446 
L 575.88125 -180.233452 
L 576.4645 -185.454146 
L 577.04775 -190.611342 
L 577.631 -195.69201 
L 578.21425 -200.683318 
L 578.7975 -205.572656 
L 579.38075 -210.347674 
L 579.964 -214.99631 
L 580.54725 -219.506821 
L 581.1305 -223.867812 
L 581.71375 -228.068268 
L 582.297 -232.097578 
L 582.88025 -235.945563 
L 583.4635 -239.602503 
L 584.04675 -243.059161 
L 584.63 -246.306804 
L 585.21325 -249.337229 
L 585.7965 -252.142781 
L 586.37975 -254.716372 
L 586.963 -257.051502 
L 587.54625 -259.142272 
L 588.1295 -260.983399 
L 588.71275 -262.570234 
L 589.296 -263.898768 
L 589.87925 -264.965645 
L 590.4625 -265.76817 
L 591.04575 -266.304316 
L 591.629 -266.572727 
L 592.21225 -266.572727 
L 592.7955 -266.304316 
L 593.37875 -265.76817 
L 593.962 -264.965645 
L 594.54525 -263.898768 
L 595.1285 -262.570234 
L 595.71175 -260.983399 
L 596.295 -259.142272 
L 596.87825 -257.051502 
L 597.4615 -254.716372 
L 598.04475 -252.142781 
L 598.628 -249.337229 
L 599.21125 -246.306804 
L 599.7945 -243.059161 
L 600.37775 -239.602503 
L 600.961 -235.945563 
L 601.54425 -232.097578 
L 602.1275 -228.068268 
L 602.71075 -223.867812 
L 603.294 -219.506821 
L 603.87725 -214.99631 
L 604.4605 -210.347674 
L 605.04375 -205.572656 
L 605.627 -200.683318 
L 606.21025 -195.69201 
L 606.7935 -190.611342 
L 607.37675 -185.454146 
L 607.96 -180.233452 
L 608.54325 -174.962446 
L 609.1265 -169.654444 
L 609.70975 -164.322855 
L 610.293 -158.981145 
L 610.87625 -153.64281 
L 611.4595 -148.321334 
L 612.04275 -143.030159 
L 612.626 -137.782652 
L 613.20925 -132.592068 
L 613.7925 -127.471518 
L 614.37575 -122.433939 
L 614.959 -117.492056 
L 615.54225 -112.658351 
L 616.1255 -107.945036 
L 616.70875 -103.364016 
L 617.292 -98.926863 
L 617.87525 -94.644788 
L 618.4585 -90.528605 
L 619.04175 -86.588713 
L 619.625 -82.835065 
L 620.20825 -79.277142 
L 620.7915 -75.923933 
L 621.37475 -72.783907 
L 621.958 -69.864996 
L 622.54125 -67.174575 
L 623.1245 -64.719439 
L 623.70775 -62.505791 
L 624.291 -60.539221 
L 624.87425 -58.824698 
L 625.4575 -57.366553 
L 626.04075 -56.168469 
L 626.624 -55.233473 
L 627.20725 -54.563927 
L 627.7905 -54.161521 
L 628.37375 -54.027273 
L 628.957 -54.161521 
L 629.54025 -54.563927 
L 630.1235 -55.233473 
L 630.70675 -56.168469 
L 631.29 -57.366553 
L 631.87325 -58.824698 
L 632.4565 -60.539221 
L 633.03975 -62.505791 
L 633.623 -64.719439 
L 634.20625 -67.174575 
L 634.7895 -69.864996 
L 635.37275 -72.783907 
L 635.956 -75.923933 
L 636.53925 -79.277142 
L 637.1225 -82.835065 
L 637.70575 -86.588713 
L 638.289 -90.528605 
L 638.87225 -94.644788 
L 639.4555 -98.926863 
L 640.03875 -103.364016 
L 640.622 -107.945036 
L 641.20525 -112.658351 
L 641.7885 -117.492056 
L 642.37175 -122.433939 
L 642.955 -127.471518 
L 643.53825 -132.592068 
L 644.1215 -137.782652 
L 644.70475 -143.030159 
L 645.288 -148.321334 
L 645.87125 -153.64281 
L 646.4545 -158.981145 
L 647.03775 -164.322855 
L 647.621 -169.654444 
L 648.20425 -174.962446 
L 648.7875 -180.233452 
L 649.37075 -185.454146 
L 649.954 -190.611342 
L 650.53725 -195.69201 
L 651.1205 -200.683318 
L 651.70375 -205.572656 
L 652.287 -210.347674 
L 652.87025 -214.99631 
L 653.4535 -219.506821 
L 654.03675 -223.867812 
L 654.62 -228.068268 
L 655.20325 -232.097578 
L 655.7865 -235.945563 
L 656.36975 -239.602503 
L 656.953 -243.059161 
L 657.53625 -246.306804 
L 658.1195 -249.337229 
L 658.70275 -252.142781 
L 659.286 -254.716372 
L 659.86925 -257.051502 
L 660.4525 -259.142272 
L 661.03575 -260.983399 
L 661.619 -262.570234 
L 662.20225 -263.898768 
L 662.7855 -264.965645 
L 663.36875 -265.76817 
L 663.952 -266.304316 
L 664.53525 -266.572727 
L 665.1185 -266.572727 
L 665.70175 -266.304316 
L 666.285 -265.76817 
L 666.86825 -264.965645 
L 667.4515 -263.898768 
L 668.03475 -262.570234 
L 668.618 -260.983399 
L 669.20125 -259.142272 
L 669.7845 -257.051502 
L 670.36775 -254.716372 
L 670.951 -252.142781 
L 671.53425 -249.337229 
L 672.1175 -246.306804 
L 672.70075 -243.059161 
L 673.284 -239.602503 
L 673.86725 -235.945563 
L 674.4505 -232.097578 
L 675.03375 -228.068268 
L 675.617 -223.867812 
L 676.20025 -219.506821 
L 676.7835 -214.99631 
L 677.36675 -210.347674 
L 677.95 -205.572656 
L 678.53325 -200.683318 
L 679.1165 -195.69201 
L 679.69975 -190.611342 
L 680.283 -185.454146 
L 680.86625 -180.233452 
L 681.4495 -174.962446 
L 682.03275 -169.654444 
L 682.616 -164.322855 
L 683.19925 -158.981145 
L 683.7825 -153.64281 
L 684.36575 -148.321334 
L 684.949 -143.030159 
L 685.53225 -137.782652 
L 686.1155 -132.592068 
L 686.69875 -127.471518 
L 687.282 -122.433939 
L 687.86525 -117.492056 
L 688.4485 -112.658351 
L 689.03175 -107.945036 
L 689.615 -103.364016 
L 690.19825 -98.926863 
L 690.7815 -94.644788 
L 691.36475 -90.528605 
L 691.948 -86.588713 
L 692.53125 -82.835065 
L 693.1145 -79.277142 
L 693.69775 -75.923933 
L 694.281 -72.783907 
L 694.86425 -69.864996 
L 695.4475 -67.174575 
L 696.03075 -64.719439 
L 696.614 -62.505791 
L 697.19725 -60.539221 
L 697.7805 -58.824698 
L 698.36375 -57.366553 
L 698.947 -56.168469 
L 699.53025 -55.233473 
L 700.1135 -54.563927 
L 700.69675 -54.161521 
L 701.28 -54.027273 
L 701.28 -54.027273 
L 701.28 -54.027273 
L 700.69675 -54.027273 
L 700.1135 -54.027273 
L 699.53025 -54.027273 
L 698.947 -54.027273 
L 698.36375 -54.027273 
L 697.7805 -54.027273 
L 697.19725 -54.027273 
L 696.614 -54.027273 
L 696.03075 -54.027273 
L 695.4475 -54.027273 
L 694.86425 -54.027273 
L 694.281 -54.027273 
L 693.69775 -54.027273 
L 693.1145 -54.027273 
L 692.53125 -54.027273 
L 691.948 -54.027273 
L 691.36475 -54.027273 
L 690.7815 -54.027273 
L 690.19825 -54.027273 
L 689.615 -54.027273 
L 689.03175 -54.027273 
L 688.4485 -54.027273 
L 687.86525 -54.027273 
L 687.282 -54.027273 
L 686.69875 -54.027273 
L 686.1155 -54.027273 
L 685.53225 -54.027273 
L 684.949 -54.027273 
L 684.36575 -54.027273 
L 683.7825 -54.027273 
L 683.19925 -54.027273 
L 682.616 -54.027273 
L 682.03275 -54.027273 
L 681.4495 -54.027273 
L 680.86625 -54.027273 
L 680.283 -54.027273 
L 679.69975 -54.027273 
L 679.1165 -54.027273 
L 678.53325 -54.027273 
L 677.95 -54.027273 
L 677.36675 -54.027273 
L 676.7835 -54.027273 
L 676.20025 -54.027273 
L 675.617 -54.027273 
L 675.03375 -54.027273 
L 674.4505 -54.027273 
L 673.86725 -54.027273 
L 673.284 -54.027273 
L 672.70075 -54.027273 
L 672.1175 -54.027273 
L 671.53425 -54.027273 
L 670.951 -54.027273 
L 670.36775 -54.027273 
L 669.7845 -54.027273 
L 669.20125 -54.027273 
L 668.618 -54.027273 
L 668.03475 -54.027273 
L 667.4515 -54.027273 
L 666.86825 -54.027273 
L 666.285 -54.027273 
L 665.70175 -54.027273 
L 665.1185 -54.027273 
L 664.53525 -54.027273 
L 663.952 -54.027273 
L 663.36875 -54.027273 
L 662.7855 -54.027273 
L 662.20225 -54.027273 
L 661.619 -54.027273 
L 661.03575 -54.027273 
L 660.4525 -54.027273 
L 659.86925 -54.027273 
L 659.286 -54.027273 
L 658.70275 -54.027273 
L 658.1195 -54.027273 
L 657.53625 -54.027273 
L 656.953 -54.027273 
L 656.36975 -54.027273 
L 655.7865 -54.027273 
L 655.20325 -54.027273 
L 654.62 -54.027273 
L 654.03675 -54.027273 
L 653.4535 -54.027273 
L 652.87025 -54.027273 
L 652.287 -54.027273 
L 651.70375 -54.027273 
L 651.1205 -54.027273 
L 650.53725 -54.027273 
L 649.954 -54.027273 
L 649.37075 -54.027273 
L 648.7875 -54.027273 
L 648.20425 -54.027273 
L 647.621 -54.027273 
L 647.03775 -54.027273 
L 646.4545 -54.027273 
L 645.87125 -54.027273 
L 645.288 -54.027273 
L 644.70475 -54.027273 
L 644.1215 -54.027273 
L 643.53825 -54.027273 
L 642.955 -54.027273 
L 642.37175 -54.027273 
L 641.7885 -54.027273 
L 641.20525 -54.027273 
L 640.622 -54.027273 
L 640.03875 -54.027273 
L 639.4555 -54.027273 
L 638.87225 -54.027273 
L 638.289 -54.027273 
L 637.70575 -54.027273 
L 637.1225 -54.027273 
L 636.53925 -54.027273 
L 635.956 -54.027273 
L 635.37275 -54.027273 
L 634.7895 -54.027273 
L 634.20625 -54.027273 
L 633.623 -54.027273 
L 633.03975 -54.027273 
L 632.4565 -54.027273 
L 631.87325 -54.027273 
L 631.29 -54.027273 
L 630.70675 -54.027273 
L 630.1235 -54.027273 
L 629.54025 -54.027273 
L 628.957 -54.027273 
L 628.37375 -54.027273 
L 627.7905 -54.027273 
L 627.20725 -54.027273 
L 626.624 -54.027273 
L 626.04075 -54.027273 
L 625.4575 -54.027273 
L 624.87425 -54.027273 
L 624.291 -54.027273 
L 623.70775 -54.027273 
L 623.1245 -54.027273 
L 622.54125 -54.027273 
L 621.958 -54.027273 
L 621.37475 -54.027273 
L 620.7915 -54.027273 
L 620.20825 -54.027273 
L 619.625 -54.027273 
L 619.04175 -54.027273 
L 618.4585 -54.027273 
L 617.87525 -54.027273 
L 617.292 -54.027273 
L 616.70875 -54.027273 
L 616.1255 -54.027273 
L 615.54225 -54.027273 
L 614.959 -54.027273 
L 614.37575 -54.027273 
L 613.7925 -54.027273 
L 613.20925 -54.027273 
L 612.626 -54.027273 
L 612.04275 -54.027273 
L 611.4595 -54.027273 
L 610.87625 -54.027273 
L 610.293 -54.027273 
L 609.70975 -54.027273 
L 609.1265 -54.027273 
L 608.54325 -54.027273 
L 607.96 -54.027273 
L 607.37675 -54.027273 
L 606.7935 -54.027273 
L 606.21025 -54.027273 
L 605.627 -54.027273 
L 605.04375 -54.027273 
L 604.4605 -54.027273 
L 603.87725 -54.027273 
L 603.294 -54.027273 
L 602.71075 -54.027273 
L 602.1275 -54.027273 
L 601.54425 -54.027273 
L 600.961 -54.027273 
L 600.37775 -54.027273 
L 599.7945 -54.027273 
L 599.21125 -54.027273 
L 598.628 -54.027273 
L 598.04475 -54.027273 
L 597.4615 -54.027273 
L 596.87825 -54.027273 
L 596.295 -54.027273 
L 595.71175 -54.027273 
L 595.1285 -54.027273 
L 594.54525 -54.027273 
L 593.962 -54.027273 
L 593.37875 -54.027273 
L 592.7955 -54.027273 
L 592.21225 -54.027273 
L 591.629 -54.027273 
L 591.04575 -54.027273 
L 590.4625 -54.027273 
L 589.87925 -54.027273 
L 589.296 -54.027273 
L 588.71275 -54.027273 
L 588.1295 -54.027273 
L 587.54625 -54.027273 
L 586.963 -54.027273 
L 586.37975 -54.027273 
L 585.7965 -54.027273 
L 585.21325 -54.027273 
L 584.63 -54.027273 
L 584.04675 -54.027273 
L 583.4635 -54.027273 
L 582.88025 -54.027273 
L 582.297 -54.027273 
L 581.71375 -54.027273 
L 581.1305 -54.027273 
L 580.54725 -54.027273 
L 579.964 -54.027273 
L 579.38075 -54.027273 
L 578.7975 -54.027273 
L 578.21425 -54.027273 
L 577.631 -54.027273 
L 577.04775 -54.027273 
L 576.4645 -54.027273 
L 575.88125 -54.027273 
L 575.298 -54.027273 
L 574.71475 -54.027273 
L 574.1315 -54.027273 
L 573.54825 -54.027273 
L 572.965 -54.027273 
L 572.38175 -54.027273 
L 571.7985 -54.027273 
L 571.21525 -54.027273 
L 570.632 -54.027273 
L 570.04875 -54.027273 
L 569.4655 -54.027273 
L 568.88225 -54.027273 
L 568.299 -54.027273 
L 567.71575 -54.027273 
L 567.1325 -54.027273 
L 566.54925 -54.027273 
L 565.966 -54.027273 
L 565.38275 -54.027273 
L 564.7995 -54.027273 
L 564.21625 -54.027273 
L 563.633 -54.027273 
L 563.04975 -54.027273 
L 562.4665 -54.027273 
L 561.88325 -54.027273 
L 561.3 -54.027273 
L 560.71675 -54.027273 
L 560.1335 -54.027273 
L 559.55025 -54.027273 
L 558.967 -54.027273 
L 558.38375 -54.027273 
L 557.8005 -54.027273 
L 557.21725 -54.027273 
L 556.634 -54.027273 
L 556.05075 -54.027273 
L 555.4675 -54.027273 
L 554.88425 -54.027273 
L 554.301 -54.027273 
L 553.71775 -54.027273 
L 553.1345 -54.027273 
L 552.55125 -54.027273 
L 551.968 -54.027273 
L 551.38475 -54.027273 
L 550.8015 -54.027273 
L 550.21825 -54.027273 
L 549.635 -54.027273 
L 549.05175 -54.027273 
L 548.4685 -54.027273 
L 547.88525 -54.027273 
L 547.302 -54.027273 
L 546.71875 -54.027273 
L 546.1355 -54.027273 
L 545.55225 -54.027273 
L 544.969 -54.027273 
L 544.38575 -54.027273 
L 543.8025 -54.027273 
L 543.21925 -54.027273 
L 542.636 -54.027273 
L 542.05275 -54.027273 
L 541.4695 -54.027273 
L 540.88625 -54.027273 
L 540.303 -54.027273 
L 539.71975 -54.027273 
L 539.1365 -54.027273 
L 538.55325 -54.027273 
L 537.97 -54.027273 
L 537.38675 -54.027273 
L 536.8035 -54.027273 
L 536.22025 -54.027273 
L 535.637 -54.027273 
L 535.05375 -54.027273 
L 534.4705 -54.027273 
L 533.88725 -54.027273 
L 533.304 -54.027273 
L 532.72075 -54.027273 
L 532.1375 -54.027273 
L 531.55425 -54.027273 
L 530.971 -54.027273 
L 530.38775 -54.027273 
L 529.8045 -54.027273 
L 529.22125 -54.027273 
L 528.638 -54.027273 
L 528.05475 -54.027273 
L 527.4715 -54.027273 
L 526.88825 -54.027273 
L 526.305 -54.027273 
L 525.72175 -54.027273 
L 525.1385 -54.027273 
L 524.55525 -54.027273 
L 523.972 -54.027273 
L 523.38875 -54.027273 
L 522.8055 -54.027273 
L 522.22225 -54.027273 
L 521.639 -54.027273 
L 521.05575 -54.027273 
L 520.4725 -54.027273 
L 519.88925 -54.027273 
L 519.306 -54.027273 
L 518.72275 -54.027273 
L 518.1395 -54.027273 
L 517.55625 -54.027273 
L 516.973 -54.027273 
L 516.38975 -54.027273 
L 515.8065 -54.027273 
L 515.22325 -54.027273 
L 514.64 -54.027273 
L 514.05675 -54.027273 
L 513.4735 -54.027273 
L 512.89025 -54.027273 
L 512.307 -54.027273 
L 511.72375 -54.027273 
L 511.1405 -54.027273 
L 510.55725 -54.027273 
L 509.974 -54.027273 
L 509.39075 -54.027273 
L 508.8075 -54.027273 
L 508.22425 -54.027273 
L 507.641 -54.027273 
L 507.05775 -54.027273 
L 506.4745 -54.027273 
L 505.89125 -54.027273 
L 505.308 -54.027273 
L 504.72475 -54.027273 
L 504.1415 -54.027273 
L 503.55825 -54.027273 
L 502.975 -54.027273 
L 502.39175 -54.027273 
L 501.8085 -54.027273 
L 501.22525 -54.027273 
L 500.642 -54.027273 
L 500.05875 -54.027273 
L 499.4755 -54.027273 
L 498.89225 -54.027273 
L 498.309 -54.027273 
L 497.72575 -54.027273 
L 497.1425 -54.027273 
L 496.55925 -54.027273 
L 495.976 -54.027273 
L 495.39275 -54.027273 
L 494.8095 -54.027273 
L 494.22625 -54.027273 
L 493.643 -54.027273 
L 493.05975 -54.027273 
L 492.4765 -54.027273 
L 491.89325 -54.027273 
L 491.31 -54.027273 
L 490.72675 -54.027273 
L 490.1435 -54.027273 
L 489.56025 -54.027273 
L 488.977 -54.027273 
L 488.39375 -54.027273 
L 487.8105 -54.027273 
L 487.22725 -54.027273 
L 486.644 -54.027273 
L 486.06075 -54.027273 
L 485.4775 -54.027273 
L 484.89425 -54.027273 
L 484.311 -54.027273 
L 483.72775 -54.027273 
L 483.1445 -54.027273 
L 482.56125 -54.027273 
L 481.978 -54.027273 
L 481.39475 -54.027273 
L 480.8115 -54.027273 
L 480.22825 -54.027273 
L 479.645 -54.027273 
L 479.06175 -54.027273 
L 478.4785 -54.027273 
L 477.89525 -54.027273 
L 477.312 -54.027273 
L 476.72875 -54.027273 
L 476.1455 -54.027273 
L 475.56225 -54.027273 
L 474.979 -54.027273 
L 474.39575 -54.027273 
L 473.8125 -54.027273 
L 473.22925 -54.027273 
L 472.646 -54.027273 
L 472.06275 -54.027273 
L 471.4795 -54.027273 
L 470.89625 -54.027273 
L 470.313 -54.027273 
L 469.72975 -54.027273 
L 469.1465 -54.027273 
L 468.56325 -54.027273 
L 467.98 -54.027273 
L 467.39675 -54.027273 
L 466.8135 -54.027273 
L 466.23025 -54.027273 
L 465.647 -54.027273 
L 465.06375 -54.027273 
L 464.4805 -54.027273 
L 463.89725 -54.027273 
L 463.314 -54.027273 
L 462.73075 -54.027273 
L 462.1475 -54.027273 
L 461.56425 -54.027273 
L 460.981 -54.027273 
L 460.39775 -54.027273 
L 459.8145 -54.027273 
L 459.23125 -54.027273 
L 458.648 -54.027273 
L 458.06475 -54.027273 
L 457.4815 -54.027273 
L 456.89825 -54.027273 
L 456.315 -54.027273 
L 455.73175 -54.027273 
L 455.1485 -54.027273 
L 454.56525 -54.027273 
L 453.982 -54.027273 
L 453.39875 -54.027273 
L 452.8155 -54.027273 
L 452.23225 -54.027273 
L 451.649 -54.027273 
L 451.06575 -54.027273 
L 450.4825 -54.027273 
L 449.89925 -54.027273 
L 449.316 -54.027273 
L 448.73275 -54.027273 
L 448.1495 -54.027273 
L 447.56625 -54.027273 
L 446.983 -54.027273 
L 446.39975 -54.027273 
L 445.8165 -54.027273 
L 445.23325 -54.027273 
L 444.65 -54.027273 
L 444.06675 -54.027273 
L 443.4835 -54.027273 
L 442.90025 -54.027273 
L 442.317 -54.027273 
L 441.73375 -54.027273 
L 441.1505 -54.027273 
L 440.56725 -54.027273 
L 439.984 -54.027273 
L 439.40075 -54.027273 
L 438.8175 -54.027273 
L 438.23425 -54.027273 
L 437.651 -54.027273 
L 437.06775 -54.027273 
L 436.4845 -54.027273 
L 435.90125 -54.027273 
L 435.318 -54.027273 
L 434.73475 -54.027273 
L 434.1515 -54.027273 
L 433.56825 -54.027273 
L 432.985 -54.027273 
L 432.40175 -54.027273 
L 431.8185 -54.027273 
L 431.23525 -54.027273 
L 430.652 -54.027273 
L 430.06875 -54.027273 
L 429.4855 -54.027273 
L 428.90225 -54.027273 
L 428.319 -54.027273 
L 427.73575 -54.027273 
L 427.1525 -54.027273 
L 426.56925 -54.027273 
L 425.986 -54.027273 
L 425.40275 -54.027273 
L 424.8195 -54.027273 
L 424.23625 -54.027273 
L 423.653 -54.027273 
L 423.06975 -54.027273 
L 422.4865 -54.027273 
L 421.90325 -54.027273 
L 421.32 -54.027273 
L 420.73675 -54.027273 
L 420.1535 -54.027273 
L 419.57025 -54.027273 
L 418.987 -54.027273 
L 418.40375 -54.027273 
L 417.8205 -54.027273 
L 417.23725 -54.027273 
L 416.654 -54.027273 
L 416.07075 -54.027273 
L 415.4875 -54.027273 
L 414.90425 -54.027273 
L 414.321 -54.027273 
L 413.73775 -54.027273 
L 413.1545 -54.027273 
L 412.57125 -54.027273 
L 411.988 -54.027273 
L 411.40475 -54.027273 
L 410.8215 -54.027273 
L 410.23825 -54.027273 
L 409.655 -54.027273 
z
" style="stroke: #1f77b4; stroke-opacity: 0.3"/>
    </defs>
    <g clip-path="url(#p628d2da76c)">
     <use xlink:href="#me2bcffe37c" x="0" y="288" style="fill: #1f77b4; fill-opacity: 0.3; stroke: #1f77b4; stroke-opacity: 0.3"/>
    </g>
   </g>
   <g id="matplotlib.axis_3">
    <g id="xtick_7">
     <g id="line2d_33">
      <path d="M 409.655 244.6 
L 409.655 10.8 
" clip-path="url(#p628d2da76c)" style="fill: none; stroke: #b0b0b0; stroke-width: 0.8; stroke-linecap: square"/>
     </g>
     <g id="line2d_34">
      <g>
       <use xlink:href="#mddb2e97cfa" x="409.655" y="244.6" style="stroke: #000000; stroke-width: 0.8"/>
      </g>
     </g>
     <g id="text_19">
      <!-- 0.0 -->
      <g transform="translate(401.703437 259.198438) scale(0.1 -0.1)">
       <use xlink:href="#DejaVuSans-30"/>
       <use xlink:href="#DejaVuSans-2e" transform="translate(63.623047 0)"/>
       <use xlink:href="#DejaVuSans-30" transform="translate(95.410156 0)"/>
      </g>
     </g>
    </g>
    <g id="xtick_8">
     <g id="line2d_35">
      <path d="M 467.98 244.6 
L 467.98 10.8 
" clip-path="url(#p628d2da76c)" style="fill: none; stroke: #b0b0b0; stroke-width: 0.8; stroke-linecap: square"/>
     </g>
     <g id="line2d_36">
      <g>
       <use xlink:href="#mddb2e97cfa" x="467.98" y="244.6" style="stroke: #000000; stroke-width: 0.8"/>
      </g>
     </g>
     <g id="text_20">
      <!-- 0.2 -->
      <g transform="translate(460.028437 259.198438) scale(0.1 -0.1)">
       <use xlink:href="#DejaVuSans-30"/>
       <use xlink:href="#DejaVuSans-2e" transform="translate(63.623047 0)"/>
       <use xlink:href="#DejaVuSans-32" transform="translate(95.410156 0)"/>
      </g>
     </g>
    </g>
    <g id="xtick_9">
     <g id="line2d_37">
      <path d="M 526.305 244.6 
L 526.305 10.8 
" clip-path="url(#p628d2da76c)" style="fill: none; stroke: #b0b0b0; stroke-width: 0.8; stroke-linecap: square"/>
     </g>
     <g id="line2d_38">
      <g>
       <use xlink:href="#mddb2e97cfa" x="526.305" y="244.6" style="stroke: #000000; stroke-width: 0.8"/>
      </g>
     </g>
     <g id="text_21">
      <!-- 0.4 -->
      <g transform="translate(518.353437 259.198438) scale(0.1 -0.1)">
       <use xlink:href="#DejaVuSans-30"/>
       <use xlink:href="#DejaVuSans-2e" transform="translate(63.623047 0)"/>
       <use xlink:href="#DejaVuSans-34" transform="translate(95.410156 0)"/>
      </g>
     </g>
    </g>
    <g id="xtick_10">
     <g id="line2d_39">
      <path d="M 584.63 244.6 
L 584.63 10.8 
" clip-path="url(#p628d2da76c)" style="fill: none; stroke: #b0b0b0; stroke-width: 0.8; stroke-linecap: square"/>
     </g>
     <g id="line2d_40">
      <g>
       <use xlink:href="#mddb2e97cfa" x="584.63" y="244.6" style="stroke: #000000; stroke-width: 0.8"/>
      </g>
     </g>
     <g id="text_22">
      <!-- 0.6 -->
      <g transform="translate(576.678437 259.198438) scale(0.1 -0.1)">
       <use xlink:href="#DejaVuSans-30"/>
       <use xlink:href="#DejaVuSans-2e" transform="translate(63.623047 0)"/>
       <use xlink:href="#DejaVuSans-36" transform="translate(95.410156 0)"/>
      </g>
     </g>
    </g>
    <g id="xtick_11">
     <g id="line2d_41">
      <path d="M 642.955 244.6 
L 642.955 10.8 
" clip-path="url(#p628d2da76c)" style="fill: none; stroke: #b0b0b0; stroke-width: 0.8; stroke-linecap: square"/>
     </g>
     <g id="line2d_42">
      <g>
       <use xlink:href="#mddb2e97cfa" x="642.955" y="244.6" style="stroke: #000000; stroke-width: 0.8"/>
      </g>
     </g>
     <g id="text_23">
      <!-- 0.8 -->
      <g transform="translate(635.003437 259.198438) scale(0.1 -0.1)">
       <use xlink:href="#DejaVuSans-30"/>
       <use xlink:href="#DejaVuSans-2e" transform="translate(63.623047 0)"/>
       <use xlink:href="#DejaVuSans-38" transform="translate(95.410156 0)"/>
      </g>
     </g>
    </g>
    <g id="xtick_12">
     <g id="line2d_43">
      <path d="M 701.28 244.6 
L 701.28 10.8 
" clip-path="url(#p628d2da76c)" style="fill: none; stroke: #b0b0b0; stroke-width: 0.8; stroke-linecap: square"/>
     </g>
     <g id="line2d_44">
      <g>
       <use xlink:href="#mddb2e97cfa" x="701.28" y="244.6" style="stroke: #000000; stroke-width: 0.8"/>
      </g>
     </g>
     <g id="text_24">
      <!-- 1.0 -->
      <g transform="translate(693.328437 259.198438) scale(0.1 -0.1)">
       <use xlink:href="#DejaVuSans-31"/>
       <use xlink:href="#DejaVuSans-2e" transform="translate(63.623047 0)"/>
       <use xlink:href="#DejaVuSans-30" transform="translate(95.410156 0)"/>
      </g>
     </g>
    </g>
    <g id="text_25">
     <!-- Time $t$ (seconds) -->
     <g transform="translate(513.5675 272.876562) scale(0.1 -0.1)">
      <use xlink:href="#DejaVuSans-54" transform="translate(0 0.015625)"/>
      <use xlink:href="#DejaVuSans-69" transform="translate(61.083984 0.015625)"/>
      <use xlink:href="#DejaVuSans-6d" transform="translate(88.867188 0.015625)"/>
      <use xlink:href="#DejaVuSans-65" transform="translate(186.279297 0.015625)"/>
      <use xlink:href="#DejaVuSans-20" transform="translate(247.802734 0.015625)"/>
      <use xlink:href="#DejaVuSans-Oblique-74" transform="translate(279.589844 0.015625)"/>
      <use xlink:href="#DejaVuSans-20" transform="translate(318.798828 0.015625)"/>
      <use xlink:href="#DejaVuSans-28" transform="translate(350.585938 0.015625)"/>
      <use xlink:href="#DejaVuSans-73" transform="translate(389.599609 0.015625)"/>
      <use xlink:href="#DejaVuSans-65" transform="translate(441.699219 0.015625)"/>
      <use xlink:href="#DejaVuSans-63" transform="translate(503.222656 0.015625)"/>
      <use xlink:href="#DejaVuSans-6f" transform="translate(558.203125 0.015625)"/>
      <use xlink:href="#DejaVuSans-6e" transform="translate(619.384766 0.015625)"/>
      <use xlink:href="#DejaVuSans-64" transform="translate(682.763672 0.015625)"/>
      <use xlink:href="#DejaVuSans-73" transform="translate(746.240234 0.015625)"/>
      <use xlink:href="#DejaVuSans-29" transform="translate(798.339844 0.015625)"/>
     </g>
    </g>
   </g>
   <g id="matplotlib.axis_4">
    <g id="ytick_10">
     <g id="line2d_45">
      <path d="M 409.655 233.972727 
L 701.28 233.972727 
" clip-path="url(#p628d2da76c)" style="fill: none; stroke: #b0b0b0; stroke-width: 0.8; stroke-linecap: square"/>
     </g>
     <g id="line2d_46">
      <g>
       <use xlink:href="#m228297c1f3" x="409.655" y="233.972727" style="stroke: #000000; stroke-width: 0.8"/>
      </g>
     </g>
     <g id="text_26">
      <!-- 0.0 -->
      <g transform="translate(386.751875 237.771946) scale(0.1 -0.1)">
       <use xlink:href="#DejaVuSans-30"/>
       <use xlink:href="#DejaVuSans-2e" transform="translate(63.623047 0)"/>
       <use xlink:href="#DejaVuSans-30" transform="translate(95.410156 0)"/>
      </g>
     </g>
    </g>
    <g id="ytick_11">
     <g id="line2d_47">
      <path d="M 409.655 191.456923 
L 701.28 191.456923 
" clip-path="url(#p628d2da76c)" style="fill: none; stroke: #b0b0b0; stroke-width: 0.8; stroke-linecap: square"/>
     </g>
     <g id="line2d_48">
      <g>
       <use xlink:href="#m228297c1f3" x="409.655" y="191.456923" style="stroke: #000000; stroke-width: 0.8"/>
      </g>
     </g>
     <g id="text_27">
      <!-- 0.2 -->
      <g transform="translate(386.751875 195.256142) scale(0.1 -0.1)">
       <use xlink:href="#DejaVuSans-30"/>
       <use xlink:href="#DejaVuSans-2e" transform="translate(63.623047 0)"/>
       <use xlink:href="#DejaVuSans-32" transform="translate(95.410156 0)"/>
      </g>
     </g>
    </g>
    <g id="ytick_12">
     <g id="line2d_49">
      <path d="M 409.655 148.941119 
L 701.28 148.941119 
" clip-path="url(#p628d2da76c)" style="fill: none; stroke: #b0b0b0; stroke-width: 0.8; stroke-linecap: square"/>
     </g>
     <g id="line2d_50">
      <g>
       <use xlink:href="#m228297c1f3" x="409.655" y="148.941119" style="stroke: #000000; stroke-width: 0.8"/>
      </g>
     </g>
     <g id="text_28">
      <!-- 0.4 -->
      <g transform="translate(386.751875 152.740337) scale(0.1 -0.1)">
       <use xlink:href="#DejaVuSans-30"/>
       <use xlink:href="#DejaVuSans-2e" transform="translate(63.623047 0)"/>
       <use xlink:href="#DejaVuSans-34" transform="translate(95.410156 0)"/>
      </g>
     </g>
    </g>
    <g id="ytick_13">
     <g id="line2d_51">
      <path d="M 409.655 106.425314 
L 701.28 106.425314 
" clip-path="url(#p628d2da76c)" style="fill: none; stroke: #b0b0b0; stroke-width: 0.8; stroke-linecap: square"/>
     </g>
     <g id="line2d_52">
      <g>
       <use xlink:href="#m228297c1f3" x="409.655" y="106.425314" style="stroke: #000000; stroke-width: 0.8"/>
      </g>
     </g>
     <g id="text_29">
      <!-- 0.6 -->
      <g transform="translate(386.751875 110.224533) scale(0.1 -0.1)">
       <use xlink:href="#DejaVuSans-30"/>
       <use xlink:href="#DejaVuSans-2e" transform="translate(63.623047 0)"/>
       <use xlink:href="#DejaVuSans-36" transform="translate(95.410156 0)"/>
      </g>
     </g>
    </g>
    <g id="ytick_14">
     <g id="line2d_53">
      <path d="M 409.655 63.90951 
L 701.28 63.90951 
" clip-path="url(#p628d2da76c)" style="fill: none; stroke: #b0b0b0; stroke-width: 0.8; stroke-linecap: square"/>
     </g>
     <g id="line2d_54">
      <g>
       <use xlink:href="#m228297c1f3" x="409.655" y="63.90951" style="stroke: #000000; stroke-width: 0.8"/>
      </g>
     </g>
     <g id="text_30">
      <!-- 0.8 -->
      <g transform="translate(386.751875 67.708728) scale(0.1 -0.1)">
       <use xlink:href="#DejaVuSans-30"/>
       <use xlink:href="#DejaVuSans-2e" transform="translate(63.623047 0)"/>
       <use xlink:href="#DejaVuSans-38" transform="translate(95.410156 0)"/>
      </g>
     </g>
    </g>
    <g id="ytick_15">
     <g id="line2d_55">
      <path d="M 409.655 21.393705 
L 701.28 21.393705 
" clip-path="url(#p628d2da76c)" style="fill: none; stroke: #b0b0b0; stroke-width: 0.8; stroke-linecap: square"/>
     </g>
     <g id="line2d_56">
      <g>
       <use xlink:href="#m228297c1f3" x="409.655" y="21.393705" style="stroke: #000000; stroke-width: 0.8"/>
      </g>
     </g>
     <g id="text_31">
      <!-- 1.0 -->
      <g transform="translate(386.751875 25.192924) scale(0.1 -0.1)">
       <use xlink:href="#DejaVuSans-31"/>
       <use xlink:href="#DejaVuSans-2e" transform="translate(63.623047 0)"/>
       <use xlink:href="#DejaVuSans-30" transform="translate(95.410156 0)"/>
      </g>
     </g>
    </g>
    <g id="text_32">
     <!-- Power -->
     <g transform="translate(380.672188 142.814062) rotate(-90) scale(0.1 -0.1)">
      <defs>
       <path id="DejaVuSans-50" d="M 1259 4147 
L 1259 2394 
L 2053 2394 
Q 2494 2394 2734 2622 
Q 2975 2850 2975 3272 
Q 2975 3691 2734 3919 
Q 2494 4147 2053 4147 
L 1259 4147 
z
M 628 4666 
L 2053 4666 
Q 2838 4666 3239 4311 
Q 3641 3956 3641 3272 
Q 3641 2581 3239 2228 
Q 2838 1875 2053 1875 
L 1259 1875 
L 1259 0 
L 628 0 
L 628 4666 
z
" transform="scale(0.015625)"/>
       <path id="DejaVuSans-77" d="M 269 3500 
L 844 3500 
L 1563 769 
L 2278 3500 
L 2956 3500 
L 3675 769 
L 4391 3500 
L 4966 3500 
L 4050 0 
L 3372 0 
L 2619 2869 
L 1863 0 
L 1184 0 
L 269 3500 
z
" transform="scale(0.015625)"/>
       <path id="DejaVuSans-72" d="M 2631 2963 
Q 2534 3019 2420 3045 
Q 2306 3072 2169 3072 
Q 1681 3072 1420 2755 
Q 1159 2438 1159 1844 
L 1159 0 
L 581 0 
L 581 3500 
L 1159 3500 
L 1159 2956 
Q 1341 3275 1631 3429 
Q 1922 3584 2338 3584 
Q 2397 3584 2469 3576 
Q 2541 3569 2628 3553 
L 2631 2963 
z
" transform="scale(0.015625)"/>
      </defs>
      <use xlink:href="#DejaVuSans-50"/>
      <use xlink:href="#DejaVuSans-6f" transform="translate(56.677734 0)"/>
      <use xlink:href="#DejaVuSans-77" transform="translate(117.859375 0)"/>
      <use xlink:href="#DejaVuSans-65" transform="translate(199.646484 0)"/>
      <use xlink:href="#DejaVuSans-72" transform="translate(261.169922 0)"/>
     </g>
    </g>
   </g>
   <g id="line2d_57">
    <path d="M 409.655 233.972727 
L 410.23825 233.838479 
L 410.8215 233.436073 
L 411.40475 232.766527 
L 411.988 231.831531 
L 412.57125 230.633447 
L 413.73775 227.460779 
L 414.90425 223.280561 
L 416.07075 218.135004 
L 417.23725 212.076067 
L 418.987 201.411287 
L 420.73675 189.073137 
L 423.06975 170.507944 
L 425.986 144.969841 
L 432.985 82.427344 
L 435.318 64.132188 
L 437.06775 52.054437 
L 438.8175 41.693196 
L 439.984 35.857219 
L 441.1505 30.948498 
L 442.317 27.016601 
L 443.4835 24.101232 
L 444.06675 23.034355 
L 444.65 22.23183 
L 445.23325 21.695684 
L 445.8165 21.427273 
L 446.39975 21.427273 
L 446.983 21.695684 
L 447.56625 22.23183 
L 448.1495 23.034355 
L 448.73275 24.101232 
L 449.89925 27.016601 
L 451.06575 30.948498 
L 452.23225 35.857219 
L 453.39875 41.693196 
L 455.1485 52.054437 
L 456.89825 64.132188 
L 458.648 77.652326 
L 460.981 97.388658 
L 465.06375 134.35719 
L 468.56325 165.566061 
L 470.89625 184.635984 
L 472.646 197.471395 
L 474.39575 208.722858 
L 476.1455 218.135004 
L 477.312 223.280561 
L 478.4785 227.460779 
L 479.645 230.633447 
L 480.22825 231.831531 
L 480.8115 232.766527 
L 481.39475 233.436073 
L 481.978 233.838479 
L 482.56125 233.972727 
L 483.1445 233.838479 
L 483.72775 233.436073 
L 484.311 232.766527 
L 484.89425 231.831531 
L 485.4775 230.633447 
L 486.644 227.460779 
L 487.8105 223.280561 
L 488.977 218.135004 
L 490.1435 212.076067 
L 491.89325 201.411287 
L 493.643 189.073137 
L 495.976 170.507944 
L 498.89225 144.969841 
L 505.89125 82.427344 
L 508.22425 64.132188 
L 509.974 52.054437 
L 511.72375 41.693196 
L 512.89025 35.857219 
L 514.05675 30.948498 
L 515.22325 27.016601 
L 516.38975 24.101232 
L 516.973 23.034355 
L 517.55625 22.23183 
L 518.1395 21.695684 
L 518.72275 21.427273 
L 519.306 21.427273 
L 519.88925 21.695684 
L 520.4725 22.23183 
L 521.05575 23.034355 
L 521.639 24.101232 
L 522.8055 27.016601 
L 523.972 30.948498 
L 525.1385 35.857219 
L 526.305 41.693196 
L 528.05475 52.054437 
L 529.8045 64.132188 
L 531.55425 77.652326 
L 533.88725 97.388658 
L 537.97 134.35719 
L 541.4695 165.566061 
L 543.8025 184.635984 
L 545.55225 197.471395 
L 547.302 208.722858 
L 549.05175 218.135004 
L 550.21825 223.280561 
L 551.38475 227.460779 
L 552.55125 230.633447 
L 553.1345 231.831531 
L 553.71775 232.766527 
L 554.301 233.436073 
L 554.88425 233.838479 
L 555.4675 233.972727 
L 556.05075 233.838479 
L 556.634 233.436073 
L 557.21725 232.766527 
L 557.8005 231.831531 
L 558.38375 230.633447 
L 559.55025 227.460779 
L 560.71675 223.280561 
L 561.88325 218.135004 
L 563.04975 212.076067 
L 564.7995 201.411287 
L 566.54925 189.073137 
L 568.88225 170.507944 
L 571.7985 144.969841 
L 578.7975 82.427344 
L 581.1305 64.132188 
L 582.88025 52.054437 
L 584.63 41.693196 
L 585.7965 35.857219 
L 586.963 30.948498 
L 588.1295 27.016601 
L 589.296 24.101232 
L 589.87925 23.034355 
L 590.4625 22.23183 
L 591.04575 21.695684 
L 591.629 21.427273 
L 592.21225 21.427273 
L 592.7955 21.695684 
L 593.37875 22.23183 
L 593.962 23.034355 
L 594.54525 24.101232 
L 595.71175 27.016601 
L 596.87825 30.948498 
L 598.04475 35.857219 
L 599.21125 41.693196 
L 600.961 52.054437 
L 602.71075 64.132188 
L 604.4605 77.652326 
L 606.7935 97.388658 
L 610.87625 134.35719 
L 614.37575 165.566061 
L 616.70875 184.635984 
L 618.4585 197.471395 
L 620.20825 208.722858 
L 621.958 218.135004 
L 623.1245 223.280561 
L 624.291 227.460779 
L 625.4575 230.633447 
L 626.04075 231.831531 
L 626.624 232.766527 
L 627.20725 233.436073 
L 627.7905 233.838479 
L 628.37375 233.972727 
L 628.957 233.838479 
L 629.54025 233.436073 
L 630.1235 232.766527 
L 630.70675 231.831531 
L 631.29 230.633447 
L 632.4565 227.460779 
L 633.623 223.280561 
L 634.7895 218.135004 
L 635.956 212.076067 
L 637.70575 201.411287 
L 639.4555 189.073137 
L 641.7885 170.507944 
L 644.70475 144.969841 
L 651.70375 82.427344 
L 654.03675 64.132188 
L 655.7865 52.054437 
L 657.53625 41.693196 
L 658.70275 35.857219 
L 659.86925 30.948498 
L 661.03575 27.016601 
L 662.20225 24.101232 
L 662.7855 23.034355 
L 663.36875 22.23183 
L 663.952 21.695684 
L 664.53525 21.427273 
L 665.1185 21.427273 
L 665.70175 21.695684 
L 666.285 22.23183 
L 666.86825 23.034355 
L 667.4515 24.101232 
L 668.618 27.016601 
L 669.7845 30.948498 
L 670.951 35.857219 
L 672.1175 41.693196 
L 673.86725 52.054437 
L 675.617 64.132188 
L 677.36675 77.652326 
L 679.69975 97.388658 
L 683.7825 134.35719 
L 687.282 165.566061 
L 689.615 184.635984 
L 691.36475 197.471395 
L 693.1145 208.722858 
L 694.86425 218.135004 
L 696.03075 223.280561 
L 697.19725 227.460779 
L 698.36375 230.633447 
L 698.947 231.831531 
L 699.53025 232.766527 
L 700.1135 233.436073 
L 700.69675 233.838479 
L 701.28 233.972727 
L 701.28 233.972727 
" clip-path="url(#p628d2da76c)" style="fill: none; stroke: #1f77b4; stroke-width: 1.5; stroke-linecap: square"/>
   </g>
   <g id="line2d_58">
    <path d="M 409.655 127.895371 
L 701.28 127.895371 
L 701.28 127.895371 
" clip-path="url(#p628d2da76c)" style="fill: none; stroke: #d62728; stroke-width: 1.5; stroke-linecap: square"/>
   </g>
   <g id="patch_9">
    <path d="M 409.655 244.6 
L 409.655 10.8 
" style="fill: none; stroke: #000000; stroke-width: 0.8; stroke-linejoin: miter; stroke-linecap: square"/>
   </g>
   <g id="patch_10">
    <path d="M 701.28 244.6 
L 701.28 10.8 
" style="fill: none; stroke: #000000; stroke-width: 0.8; stroke-linejoin: miter; stroke-linecap: square"/>
   </g>
   <g id="patch_11">
    <path d="M 409.655 244.6 
L 701.28 244.6 
" style="fill: none; stroke: #000000; stroke-width: 0.8; stroke-linejoin: miter; stroke-linecap: square"/>
   </g>
   <g id="patch_12">
    <path d="M 409.655 10.8 
L 701.28 10.8 
" style="fill: none; stroke: #000000; stroke-width: 0.8; stroke-linejoin: miter; stroke-linecap: square"/>
   </g>
   <g id="patch_13">
    <path d="M 496.657416 69.152401 
Q 507.023982 76.578307 516.481647 83.353137 
" style="fill: none; stroke: #1f77b4; stroke-linecap: round"/>
    <path d="M 514.394542 79.397888 
L 516.481647 83.353137 
L 512.065185 82.649672 
" style="fill: none; stroke: #1f77b4; stroke-linecap: round"/>
   </g>
   <g id="text_33">
    <!-- Energy -->
    <g transform="translate(467.98 63.90951) scale(0.1 -0.1)">
     <defs>
      <path id="DejaVuSans-45" d="M 628 4666 
L 3578 4666 
L 3578 4134 
L 1259 4134 
L 1259 2753 
L 3481 2753 
L 3481 2222 
L 1259 2222 
L 1259 531 
L 3634 531 
L 3634 0 
L 628 0 
L 628 4666 
z
" transform="scale(0.015625)"/>
      <path id="DejaVuSans-67" d="M 2906 1791 
Q 2906 2416 2648 2759 
Q 2391 3103 1925 3103 
Q 1463 3103 1205 2759 
Q 947 2416 947 1791 
Q 947 1169 1205 825 
Q 1463 481 1925 481 
Q 2391 481 2648 825 
Q 2906 1169 2906 1791 
z
M 3481 434 
Q 3481 -459 3084 -895 
Q 2688 -1331 1869 -1331 
Q 1566 -1331 1297 -1286 
Q 1028 -1241 775 -1147 
L 775 -588 
Q 1028 -725 1275 -790 
Q 1522 -856 1778 -856 
Q 2344 -856 2625 -561 
Q 2906 -266 2906 331 
L 2906 616 
Q 2728 306 2450 153 
Q 2172 0 1784 0 
Q 1141 0 747 490 
Q 353 981 353 1791 
Q 353 2603 747 3093 
Q 1141 3584 1784 3584 
Q 2172 3584 2450 3431 
Q 2728 3278 2906 2969 
L 2906 3500 
L 3481 3500 
L 3481 434 
z
" transform="scale(0.015625)"/>
      <path id="DejaVuSans-79" d="M 2059 -325 
Q 1816 -950 1584 -1140 
Q 1353 -1331 966 -1331 
L 506 -1331 
L 506 -850 
L 844 -850 
Q 1081 -850 1212 -737 
Q 1344 -625 1503 -206 
L 1606 56 
L 191 3500 
L 800 3500 
L 1894 763 
L 2988 3500 
L 3597 3500 
L 2059 -325 
z
" transform="scale(0.015625)"/>
     </defs>
     <use xlink:href="#DejaVuSans-45"/>
     <use xlink:href="#DejaVuSans-6e" transform="translate(63.183594 0)"/>
     <use xlink:href="#DejaVuSans-65" transform="translate(126.5625 0)"/>
     <use xlink:href="#DejaVuSans-72" transform="translate(188.085938 0)"/>
     <use xlink:href="#DejaVuSans-67" transform="translate(227.449219 0)"/>
     <use xlink:href="#DejaVuSans-79" transform="translate(290.925781 0)"/>
    </g>
   </g>
   <g id="legend_2">
    <g id="patch_14">
     <path d="M 639.38 48.978125 
L 694.28 48.978125 
Q 696.28 48.978125 696.28 46.978125 
L 696.28 17.8 
Q 696.28 15.8 694.28 15.8 
L 639.38 15.8 
Q 637.38 15.8 637.38 17.8 
L 637.38 46.978125 
Q 637.38 48.978125 639.38 48.978125 
z
" style="fill: #ffffff; opacity: 0.8; stroke: #cccccc; stroke-linejoin: miter"/>
    </g>
    <g id="line2d_59">
     <path d="M 641.38 24.720312 
L 651.38 24.720312 
L 661.38 24.720312 
" style="fill: none; stroke: #1f77b4; stroke-width: 1.5; stroke-linecap: square"/>
    </g>
    <g id="text_34">
     <!-- $x^2(t)$ -->
     <g transform="translate(669.38 28.220312) scale(0.1 -0.1)">
      <use xlink:href="#DejaVuSans-Oblique-78" transform="translate(0 0.765625)"/>
      <use xlink:href="#DejaVuSans-32" transform="translate(63.645833 39.046875) scale(0.7)"/>
      <use xlink:href="#DejaVuSans-28" transform="translate(110.916341 0.765625)"/>
      <use xlink:href="#DejaVuSans-Oblique-74" transform="translate(149.930013 0.765625)"/>
      <use xlink:href="#DejaVuSans-29" transform="translate(189.138997 0.765625)"/>
     </g>
    </g>
    <g id="line2d_60">
     <path d="M 641.38 39.398437 
L 651.38 39.398437 
L 661.38 39.398437 
" style="fill: none; stroke: #d62728; stroke-width: 1.5; stroke-linecap: square"/>
    </g>
    <g id="text_35">
     <!-- $P_x$ -->
     <g transform="translate(669.38 42.898437) scale(0.1 -0.1)">
      <defs>
       <path id="DejaVuSans-Oblique-50" d="M 1081 4666 
L 2541 4666 
Q 3178 4666 3512 4369 
Q 3847 4072 3847 3500 
Q 3847 2731 3353 2303 
Q 2859 1875 1966 1875 
L 1172 1875 
L 806 0 
L 172 0 
L 1081 4666 
z
M 1613 4147 
L 1275 2394 
L 2069 2394 
Q 2606 2394 2893 2669 
Q 3181 2944 3181 3456 
Q 3181 3784 2986 3965 
Q 2791 4147 2438 4147 
L 1613 4147 
z
" transform="scale(0.015625)"/>
      </defs>
      <use xlink:href="#DejaVuSans-Oblique-50" transform="translate(0 0.09375)"/>
      <use xlink:href="#DejaVuSans-Oblique-78" transform="translate(60.302734 -16.3125) scale(0.7)"/>
     </g>
    </g>
   </g>
  </g>
 </g>
 <defs>
  <clipPath id="p2d88b03bb2">
   <rect x="62.39" y="10.8" width="291.625" height="233.8"/>
  </clipPath>
  <clipPath id="p628d2da76c">
   <rect x="409.655" y="10.8" width="291.625" height="233.8"/>
  </clipPath>
 </defs>
</svg>
