<?xml version="1.0" encoding="UTF-8" standalone="no"?>
<svg
   version="1.1"
   id="ntnulogo"
   width="401.20521706605mm"
   height="37.632969mm"
   viewBox="0 0 1137.2722361426 106.67590795627"
   sodipodi:docname="phphmLVzc"
   xmlns:inkscape="http://www.inkscape.org/namespaces/inkscape"
   xmlns:sodipodi="http://sodipodi.sourceforge.net/DTD/sodipodi-0.dtd"
   xmlns="http://www.w3.org/2000/svg"
   xmlns:svg="http://www.w3.org/2000/svg">
  <sodipodi:namedview
     id="namedview16"
     pagecolor="#ffffff"
     bordercolor="#666666"
     borderopacity="1.0"
     inkscape:pageshadow="2"
     inkscape:pageopacity="0.0"
     inkscape:pagecheckerboard="0"
     inkscape:document-units="mm" />
  <defs
     id="defs" />
  <g
     transform="matrix(2,0,0,2,0,1.1437865)"
     id="g">
    <path
       d="M 33.081001,17.082001 H 11.024 v 22.062 h 22.057001 z m 0,33.084999 H 11.024 C 4.935,50.167 0,45.23 0,39.144001 v -22.062 C 0,10.998 4.935,6.062 11.024,6.062 h 22.057001 c 6.087998,0 11.022,4.936 11.022,11.020001 v 22.062 c 0,6.085999 -4.934002,11.022999 -11.022,11.022999 z"
       stroke="none"
       stroke-width="1"
       stroke-linecap="butt"
       stroke-linejoin="miter"
       stroke-miterlimit="4"
       stroke-opacity="1"
       transform="matrix(1,0,0,-1,0,53.570301)"
       fill="#00509e"
       fill-rule="nonzero"
       fill-opacity="1"
       id="logo-firkant" />
    <path
       d="m 0,0 c -4.997,0 -9.046,-4.054 -9.046,-9.049 0,-4.998 4.049,-9.045999 9.046,-9.045999 4.996,0 9.046,4.047999 9.046,9.045999 C 9.046,-4.054 4.996,0 0,0 Z"
       stroke="none"
       stroke-width="1"
       stroke-linecap="butt"
       stroke-linejoin="miter"
       stroke-miterlimit="4"
       stroke-opacity="1"
       transform="matrix(1,0,0,-1,21.978201,16.333)"
       fill="#00509e"
       fill-rule="nonzero"
       fill-opacity="1"
       id="logo-runding" />
    <path
       d="M 0,0 21.479,-31.225 V -7.2 l -0.062,5.714 H 14.962 V 0 H 28.805 V -1.486 H 23.466 L 23.404,-7.2 V -44.386002 L 22.411,-44.696999 -6.394,-2.792 v -33.649002 l 0.061,-5.896 H 0.308 V -43.827 h -14.337 v 1.489998 h 5.71 l 0.061,5.896 V -7.2 l -0.061,5.714 h -5.71 V 0 Z"
       stroke="none"
       stroke-width="1"
       stroke-linecap="butt"
       stroke-linejoin="miter"
       stroke-miterlimit="4"
       stroke-opacity="1"
       transform="matrix(1,0,0,-1,74.955803,3.4502)"
       fill="#000000"
       fill-rule="nonzero"
       fill-opacity="1"
       id="n1" />
    <path
       d="m 0,0 v -14.027 h -1.863 c -0.187,2.172 -0.436,4.901 -2.36,8.131 -2.234,3.786 -5.277,3.974 -8.256,4.098 h -3.478 l -0.06,-5.588 v -28.616998 l 0.06,-6.334004 H -9.25 V -43.827 h -20.361 v 1.489998 h 6.702 l 0.064,6.334004 V -7.386 l -0.064,5.588 h -2.855999 c -3.600001,-0.062 -6.330002,-0.062 -8.938,-4.221 -2.048,-3.292 -2.235001,-5.899 -2.360001,-8.008 h -1.799 V 0 Z"
       stroke="none"
       stroke-width="1"
       stroke-linecap="butt"
       stroke-linejoin="miter"
       stroke-miterlimit="4"
       stroke-opacity="1"
       transform="matrix(1,0,0,-1,146.5964,3.4502)"
       fill="#000000"
       fill-rule="nonzero"
       fill-opacity="1"
       id="t" />
    <path
       d="M 0,0 21.479,-31.225 V -7.2 l -0.061,5.714 H 14.961 V 0 H 28.804001 V -1.486 H 23.465 L 23.402,-7.2 V -44.386002 L 22.409,-44.696999 -6.396,-2.792 v -33.649002 l 0.063,-5.896 H 0.312 V -43.827 h -14.343 v 1.489998 h 5.714 l 0.058,5.896 V -7.2 l -0.058,5.714 h -5.714 V 0 Z"
       stroke="none"
       stroke-width="1"
       stroke-linecap="butt"
       stroke-linejoin="miter"
       stroke-miterlimit="4"
       stroke-opacity="1"
       transform="matrix(1,0,0,-1,164.2263,3.4502)"
       fill="#000000"
       fill-rule="nonzero"
       fill-opacity="1"
       id="n2" />
    <path
       d="m 0,0 v -1.486 h -6.148 l -0.059,-5.28 V -30.48 c 0.059,-6.145999 0.186,-11.979999 11.732,-11.979999 11.67,0 12.415001,5.09 12.6,10.615 V -6.766 l -0.06,5.28 H 11.797 V 0 H 25.511999 V -1.486 H 20.115 l -0.062,-5.28 v -22.598 c -0.065,-8.131998 -0.126,-15.082999 -16.204,-15.082999 -2.294,0 -7.761,0.246998 -11.235,1.675999 -5.525,2.359001 -5.649,7.200001 -5.712,13.160999 V -6.766 l -0.063,5.28 H -18.5 V 0 Z"
       stroke="none"
       stroke-width="1"
       stroke-linecap="butt"
       stroke-linejoin="miter"
       stroke-miterlimit="4"
       stroke-opacity="1"
       transform="matrix(1,0,0,-1,217.13451,3.4502)"
       fill="#000000"
       fill-rule="nonzero"
       fill-opacity="1"
       id="u" />
    <path
       d="m 0,0 c -0.276,0 -0.5,0.224 -0.5,0.5 v 42.859 c 0,0.277001 0.224,0.5 0.5,0.5 0.276,0 0.5,-0.222999 0.5,-0.5 V 0.5 C 0.5,0.224 0.276,0 0,0 Z"
       stroke="none"
       stroke-width="1"
       stroke-linecap="butt"
       stroke-linejoin="miter"
       stroke-miterlimit="4"
       stroke-opacity="1"
       transform="matrix(1,0,0,-1,269.759,47.291)"
       fill="#000000"
       fill-rule="nonzero"
       fill-opacity="1"
       id="strek" />
    <g
       aria-label="Norwegian University of"
       id="tekst1"
       style="font-size:24.0018px;line-height:125%;font-family:'Open Sans';text-align:left;letter-spacing:0px;word-spacing:0px;display:inline;stroke-width:0.375001px">
      <path
         d="m 313.73946,20.5 h -2.27361 L 302.10187,6.120015 h -0.0938 q 0.18752,2.5314399 0.18752,4.640973 V 20.5 h -1.83998 V 3.3659022 h 2.25016 l 9.34055,14.3213868 h 0.0938 q -0.0234,-0.31643 -0.10548,-2.027496 -0.082,-1.722785 -0.0586,-2.461122 V 3.3659022 h 1.86342 z"
         id="path18" />
      <path
         d="m 329.24453,14.065924 q 0,3.14086 -1.58215,4.910524 -1.58215,1.757945 -4.37142,1.757945 -1.72279,0 -3.05882,-0.808655 -1.33604,-0.808654 -2.06266,-2.320486 -0.72661,-1.511833 -0.72661,-3.539328 0,-3.140861 1.57043,-4.8870858 1.57043,-1.7579444 4.3597,-1.7579444 2.69551,0 4.27766,1.7931033 1.59387,1.7931029 1.59387,4.8519269 z m -9.78589,0 q 0,2.461122 0.98445,3.750281 0.98445,1.289159 2.89475,1.289159 1.9103,0 2.89475,-1.277439 0.99617,-1.28916 0.99617,-3.762001 0,-2.449403 -0.99617,-3.715123 -0.98445,-1.2774394 -2.91819,-1.2774394 -1.9103,0 -2.88303,1.2540004 -0.97273,1.254 -0.97273,3.738562 z"
         id="path20" />
      <path
         d="m 338.51476,7.4208938 q 0.85553,0 1.53527,0.1406356 l -0.26955,1.8048229 q -0.79694,-0.1757944 -1.40636,-0.1757944 -1.55871,0 -2.67207,1.2657201 -1.10165,1.26572 -1.10165,3.15258 V 20.5 h -1.94546 V 7.6552864 h 1.60559 l 0.22268,2.3790846 h 0.0937 q 0.7149,-1.2540002 1.72279,-1.9337387 1.00789,-0.6797385 2.21501,-0.6797385 z"
         id="path22" />
      <path
         d="m 352.94162,20.5 -2.35564,-7.535722 q -0.22268,-0.691458 -0.8321,-3.1408602 h -0.0937 q -0.46879,2.0509352 -0.82038,3.1643002 L 346.41379,20.5 h -2.25017 L 340.65945,7.6552864 h 2.03922 q 1.24228,4.8402066 1.88686,7.3716466 0.6563,2.53144 0.75005,3.410412 h 0.0938 q 0.12892,-0.668019 0.41019,-1.722785 0.29299,-1.066486 0.50394,-1.687627 l 2.35565,-7.3716466 h 2.10953 l 2.29705,7.3716466 q 0.6563,2.015776 0.89069,3.386973 h 0.0938 q 0.0469,-0.421907 0.24611,-1.300879 0.21095,-0.878972 2.4494,-9.4577406 h 2.01578 L 355.25039,20.5 Z"
         id="path24" />
      <path
         d="m 366.54811,20.734393 q -2.84787,0 -4.50034,-1.734506 -1.64074,-1.734505 -1.64074,-4.816767 0,-3.105702 1.52355,-4.933964 1.53527,-1.8282622 4.11359,-1.8282622 2.41424,0 3.8206,1.5938696 1.40635,1.5821496 1.40635,4.1839076 v 1.230561 h -8.84832 q 0.0586,2.261889 1.13681,3.433851 1.08992,1.171963 3.05882,1.171963 2.07437,0 4.10187,-0.867252 v 1.734505 q -1.03133,0.445346 -1.95718,0.63286 -0.91413,0.199234 -2.21501,0.199234 z M 366.02073,9.0499223 q -1.54699,0 -2.47284,1.0078877 -0.91413,1.007889 -1.07821,2.789272 h 6.71535 q 0,-1.839982 -0.82038,-2.812711 -0.82037,-0.9844487 -2.34392,-0.9844487 z"
         id="path26" />
      <path
         d="m 385.10029,7.6552864 v 1.2305611 l -2.37909,0.2812711 q 0.32815,0.410187 0.58598,1.0782054 0.25783,0.6563 0.25783,1.488393 0,1.886861 -1.28915,3.011945 -1.28916,1.125084 -3.53933,1.125084 -0.57426,0 -1.07821,-0.09376 -1.24228,0.6563 -1.24228,1.652468 0,0.527383 0.43363,0.785215 0.43362,0.246113 1.48839,0.246113 h 2.27361 q 2.08609,0 3.19946,0.878972 1.12508,0.878972 1.12508,2.554879 0,2.132972 -1.71106,3.246337 -1.71107,1.125085 -4.99257,1.125085 -2.51972,0 -3.89091,-0.937571 -1.35948,-0.93757 -1.35948,-2.648636 0,-1.171963 0.75006,-2.027496 0.75005,-0.855533 2.10953,-1.160243 -0.49223,-0.222673 -0.8321,-0.691458 -0.32814,-0.468785 -0.32814,-1.089926 0,-0.703177 0.37502,-1.230561 0.37503,-0.527383 1.18369,-1.019608 -0.99617,-0.410187 -1.62903,-1.394635 -0.62114,-0.984449 -0.62114,-2.250169 0,-2.1095335 1.26572,-3.2463375 1.26572,-1.1485237 3.5862,-1.1485237 1.00789,0 1.81655,0.2343926 z M 374.85733,22.656412 q 0,1.043047 0.87897,1.58215 0.87897,0.539103 2.51972,0.539103 2.4494,0 3.62137,-0.738337 1.18368,-0.726617 1.18368,-1.980617 0,-1.043047 -0.64458,-1.453234 -0.64458,-0.398468 -2.42596,-0.398468 h -2.33221 q -1.32432,0 -2.06265,0.63286 -0.73834,0.63286 -0.73834,1.816543 z m 1.05477,-10.887536 q 0,1.347758 0.76177,2.039216 0.76178,0.691458 2.12126,0.691458 2.84787,0 2.84787,-2.765833 0,-2.894748 -2.88303,-2.894748 -1.3712,0 -2.10954,0.7383366 -0.73833,0.7383364 -0.73833,2.1915704 z"
         id="path28" />
      <path
         d="M 389.68266,20.5 H 387.7372 V 7.6552864 h 1.94546 z M 387.57313,4.1745566 q 0,-0.6680189 0.32814,-0.9727293 0.32815,-0.3164299 0.82038,-0.3164299 0.46878,0 0.80865,0.3164299 0.33987,0.31643 0.33987,0.9727293 0,0.6562992 -0.33987,0.9844488 -0.33987,0.31643 -0.80865,0.31643 -0.49223,0 -0.82038,-0.31643 -0.32814,-0.3281496 -0.32814,-0.9844488 z"
         id="path30" />
      <path
         d="m 401.707,20.5 -0.38675,-1.828262 h -0.0937 q -0.96101,1.207122 -1.92202,1.640748 -0.94929,0.421907 -2.37909,0.421907 -1.9103,0 -3.00022,-0.984449 -1.07821,-0.984449 -1.07821,-2.800992 0,-3.890917 6.22312,-4.078431 l 2.17985,-0.07032 v -0.796935 q 0,-1.511832 -0.65629,-2.2267297 -0.64458,-0.726617 -2.07438,-0.726617 -1.60559,0 -3.63308,0.9844487 l -0.5977,-1.4883928 q 0.94929,-0.5156636 2.07437,-0.8086544 1.1368,-0.2929907 2.27361,-0.2929907 2.29704,0 3.39869,1.0196077 1.11336,1.0196078 1.11336,3.2697762 V 20.5 Z m -4.39486,-1.371197 q 1.81654,0 2.84787,-0.996168 1.04305,-0.996169 1.04305,-2.789272 V 14.18312 l -1.94546,0.08204 q -2.32049,0.08204 -3.35182,0.726617 -1.0196,0.63286 -1.0196,1.980618 0,1.054766 0.63286,1.605589 0.64458,0.550822 1.7931,0.550822 z"
         id="path32" />
      <path
         d="m 415.94635,20.5 v -8.309217 q 0,-1.57043 -0.7149,-2.3439259 -0.7149,-0.7734955 -2.23845,-0.7734955 -2.01577,0 -2.95335,1.0899254 -0.93757,1.089926 -0.93757,3.597926 V 20.5 h -1.94545 V 7.6552864 h 1.58215 l 0.31643,1.7579444 h 0.0937 q 0.5977,-0.94929 1.67591,-1.4649536 1.07821,-0.5273834 2.40252,-0.5273834 2.32049,0 3.49245,1.1250844 1.17197,1.1133648 1.17197,3.5744868 V 20.5 Z"
         id="path34" />
      <path
         d="M 441.35451,3.3659022 V 14.452671 q 0,2.929908 -1.76966,4.605815 -1.76967,1.675907 -4.86365,1.675907 -3.09398,0 -4.79333,-1.687627 -1.68762,-1.687627 -1.68762,-4.640973 V 3.3659022 h 1.99233 V 14.546428 q 0,2.144693 1.17197,3.293216 1.17196,1.148524 3.44557,1.148524 2.16813,0 3.34009,-1.148524 1.17196,-1.160243 1.17196,-3.316655 V 3.3659022 Z"
         id="path36" />
      <path
         d="m 454.38672,20.5 v -8.309217 q 0,-1.57043 -0.71489,-2.3439259 -0.7149,-0.7734955 -2.23845,-0.7734955 -2.01578,0 -2.95335,1.0899254 -0.93757,1.089926 -0.93757,3.597926 V 20.5 H 445.597 V 7.6552864 h 1.58215 l 0.31643,1.7579444 h 0.0938 q 0.5977,-0.94929 1.67591,-1.4649536 1.0782,-0.5273834 2.40252,-0.5273834 2.32049,0 3.49245,1.1250844 1.17196,1.1133648 1.17196,3.5744868 V 20.5 Z"
         id="path38" />
      <path
         d="m 462.27404,20.5 h -1.94546 V 7.6552864 h 1.94546 z M 460.16451,4.1745566 q 0,-0.6680189 0.32815,-0.9727293 0.32815,-0.3164299 0.82037,-0.3164299 0.46879,0 0.80866,0.3164299 0.33987,0.31643 0.33987,0.9727293 0,0.6562992 -0.33987,0.9844488 -0.33987,0.31643 -0.80866,0.31643 -0.49222,0 -0.82037,-0.31643 -0.32815,-0.3281496 -0.32815,-0.9844488 z"
         id="path40" />
      <path
         d="M 469.21207,20.5 464.3367,7.6552864 h 2.08609 l 2.76584,7.6177586 q 0.93757,2.672076 1.10164,3.469011 h 0.0938 q 0.12892,-0.621141 0.80865,-2.566599 0.69146,-1.957178 3.08227,-8.5201706 h 2.08609 L 471.48567,20.5 Z"
         id="path42" />
      <path
         d="m 483.84988,20.734393 q -2.84787,0 -4.50034,-1.734506 -1.64074,-1.734505 -1.64074,-4.816767 0,-3.105702 1.52355,-4.933964 1.53527,-1.8282622 4.11359,-1.8282622 2.41424,0 3.8206,1.5938696 1.40635,1.5821496 1.40635,4.1839076 v 1.230561 h -8.84832 q 0.0586,2.261889 1.13681,3.433851 1.08992,1.171963 3.05882,1.171963 2.07437,0 4.10187,-0.867252 v 1.734505 q -1.03133,0.445346 -1.95718,0.63286 -0.91413,0.199234 -2.21501,0.199234 z M 483.3225,9.0499223 q -1.54699,0 -2.47284,1.0078877 -0.91413,1.007889 -1.07821,2.789272 h 6.71535 q 0,-1.839982 -0.82038,-2.812711 -0.82037,-0.9844487 -2.34392,-0.9844487 z"
         id="path44" />
      <path
         d="m 497.74936,7.4208938 q 0.85553,0 1.53527,0.1406356 l -0.26955,1.8048229 q -0.79694,-0.1757944 -1.40636,-0.1757944 -1.55871,0 -2.67207,1.2657201 -1.10165,1.26572 -1.10165,3.15258 V 20.5 h -1.94546 V 7.6552864 h 1.60559 l 0.22268,2.3790846 h 0.0937 q 0.7149,-1.2540002 1.72279,-1.9337387 1.00789,-0.6797385 2.21501,-0.6797385 z"
         id="path46" />
      <path
         d="m 509.97293,16.995831 q 0,1.793103 -1.33604,2.765832 -1.33604,0.97273 -3.75028,0.97273 -2.55488,0 -3.98467,-0.808655 v -1.804823 q 0.92585,0.468785 1.98061,0.738337 1.06649,0.269551 2.05094,0.269551 1.52355,0 2.34392,-0.480504 0.82038,-0.492225 0.82038,-1.488393 0,-0.750057 -0.6563,-1.27744 -0.64458,-0.539103 -2.53144,-1.26572 -1.7931,-0.668019 -2.55488,-1.160243 -0.75006,-0.503944 -1.12508,-1.136804 -0.36331,-0.63286 -0.36331,-1.511832 0,-1.5704306 1.27744,-2.4728421 1.27744,-0.9141311 3.50417,-0.9141311 2.07437,0 4.05499,0.8438133 l -0.69146,1.58215 q -1.93374,-0.7969348 -3.50417,-0.7969348 -1.38292,0 -2.08609,0.4336263 -0.70318,0.4336263 -0.70318,1.1954024 0,0.515663 0.25783,0.878972 0.26955,0.363308 0.85553,0.691458 0.58598,0.32815 2.25017,0.94929 2.28533,0.832094 3.08226,1.675907 0.80866,0.843813 0.80866,2.121253 z"
         id="path48" />
      <path
         d="m 515.0827,20.5 h -1.94546 V 7.6552864 h 1.94546 z M 512.97316,4.1745566 q 0,-0.6680189 0.32815,-0.9727293 0.32815,-0.3164299 0.82038,-0.3164299 0.46878,0 0.80865,0.3164299 0.33987,0.31643 0.33987,0.9727293 0,0.6562992 -0.33987,0.9844488 -0.33987,0.31643 -0.80865,0.31643 -0.49223,0 -0.82038,-0.31643 -0.32815,-0.3281496 -0.32815,-0.9844488 z"
         id="path50" />
      <path
         d="m 523.35674,19.128803 q 0.51567,0 0.99617,-0.07032 0.48051,-0.08204 0.76178,-0.164075 v 1.488393 q -0.31643,0.152355 -0.93757,0.246112 -0.60942,0.105477 -1.10165,0.105477 -3.72684,0 -3.72684,-3.926076 V 9.1671186 h -1.83998 V 8.2295483 l 1.83998,-0.8086545 0.82037,-2.7423932 h 1.12509 v 2.9767858 h 3.72684 v 1.5118322 h -3.72684 v 7.5591604 q 0,1.160244 0.55082,1.781384 0.55082,0.62114 1.51183,0.62114 z"
         id="path52" />
      <path
         d="m 525.64208,7.6552864 h 2.08609 l 2.81271,7.3247686 q 0.92585,2.508 1.14852,3.621365 h 0.0938 q 0.15236,-0.597701 0.63286,-2.039215 0.49223,-1.453234 3.18774,-8.9069186 h 2.0861 l -5.51995,14.6260976 q -0.82037,2.168131 -1.92202,3.070542 -1.08992,0.914132 -2.68379,0.914132 -0.8907,0 -1.75795,-0.199234 v -1.558711 q 0.64458,0.140636 1.44152,0.140636 2.00405,0 2.85959,-2.250169 l 0.71489,-1.828262 z"
         id="path54" />
      <path
         d="m 557.09756,14.065924 q 0,3.14086 -1.58215,4.910524 -1.58215,1.757945 -4.37142,1.757945 -1.72279,0 -3.05883,-0.808655 -1.33603,-0.808654 -2.06265,-2.320486 -0.72662,-1.511833 -0.72662,-3.539328 0,-3.140861 1.57043,-4.8870858 1.57043,-1.7579444 4.35971,-1.7579444 2.69551,0 4.27766,1.7931033 1.59387,1.7931029 1.59387,4.8519269 z m -9.78589,0 q 0,2.461122 0.98445,3.750281 0.98445,1.289159 2.89475,1.289159 1.9103,0 2.89474,-1.277439 0.99617,-1.28916 0.99617,-3.762001 0,-2.449403 -0.99617,-3.715123 -0.98444,-1.2774394 -2.91818,-1.2774394 -1.9103,0 -2.88303,1.2540004 -0.97273,1.254 -0.97273,3.738562 z"
         id="path56" />
      <path
         d="m 566.29746,9.1671186 h -3.26977 V 20.5 h -1.94546 V 9.1671186 h -2.29705 V 8.2881464 l 2.29705,-0.7031777 V 6.8700713 q 0,-4.7347302 4.13703,-4.7347302 1.01961,0 2.3908,0.410187 l -0.50394,1.5587107 q -1.12509,-0.3633085 -1.92202,-0.3633085 -1.10165,0 -1.62903,0.7383366 -0.52738,0.726617 -0.52738,2.3439259 v 0.8320936 h 3.26977 z"
         id="path58" />
    </g>
    <g
       aria-label="Science and Technology"
       id="tekst2"
       style="font-size:24.0018px;line-height:125%;font-family:'Open Sans';text-align:left;letter-spacing:0px;word-spacing:0px;display:inline;stroke-width:0.375001px">
      <path
         d="m 310.02434,42.441064 q 0,2.261889 -1.64075,3.527609 -1.64075,1.26572 -4.45346,1.26572 -3.0471,0 -4.68785,-0.785216 v -1.922019 q 1.05477,0.445346 2.29705,0.703178 1.24228,0.257832 2.46112,0.257832 1.99234,0 3.00023,-0.750056 1.00788,-0.761776 1.00788,-2.109534 0,-0.890691 -0.36331,-1.453234 -0.35158,-0.574262 -1.1954,-1.054766 -0.83209,-0.480505 -2.54316,-1.089926 -2.3908,-0.855533 -3.42213,-2.027496 -1.01961,-1.171963 -1.01961,-3.058823 0,-1.980617 1.4884,-3.15258 1.48839,-1.171963 3.93779,-1.171963 2.55488,0 4.69957,0.93757 l -0.62114,1.734505 q -2.12125,-0.890691 -4.12531,-0.890691 -1.58215,0 -2.47284,0.679738 -0.89069,0.679739 -0.89069,1.88686 0,0.890692 0.32815,1.464954 0.32815,0.562542 1.10164,1.043047 0.78522,0.468785 2.39081,1.043047 2.69551,0.96101 3.7034,2.062655 1.01961,1.101645 1.01961,2.859589 z"
         id="path61" />
      <path
         d="m 318.36872,47.234393 q -2.78928,0 -4.32455,-1.711066 -1.52355,-1.722786 -1.52355,-4.863646 0,-3.222898 1.54699,-4.980843 1.55871,-1.757944 4.43002,-1.757944 0.92585,0 1.8517,0.199234 0.92585,0.199233 1.45324,0.468785 l -0.5977,1.652467 q -0.64458,-0.257831 -1.40636,-0.421906 -0.76178,-0.175795 -1.34776,-0.175795 -3.91435,0 -3.91435,4.992562 0,2.367365 0.94929,3.633085 0.96101,1.26572 2.83615,1.26572 1.60559,0 3.29321,-0.691458 v 1.722786 q -1.28916,0.668019 -3.24633,0.668019 z"
         id="path63" />
      <path
         d="m 326.60762,47 h -1.94546 V 34.155286 h 1.94546 z m -2.10954,-16.325443 q 0,-0.668019 0.32815,-0.97273 0.32815,-0.31643 0.82038,-0.31643 0.46878,0 0.80865,0.31643 0.33987,0.31643 0.33987,0.97273 0,0.656299 -0.33987,0.984448 -0.33987,0.31643 -0.80865,0.31643 -0.49223,0 -0.82038,-0.31643 -0.32815,-0.328149 -0.32815,-0.984448 z"
         id="path65" />
      <path
         d="m 336.15911,47.234393 q -2.84787,0 -4.50034,-1.734506 -1.64074,-1.734505 -1.64074,-4.816767 0,-3.105702 1.52355,-4.933964 1.53527,-1.828262 4.11359,-1.828262 2.41424,0 3.8206,1.593869 1.40635,1.58215 1.40635,4.183908 v 1.230561 h -8.84832 q 0.0586,2.261889 1.13681,3.433851 1.08992,1.171963 3.05882,1.171963 2.07437,0 4.10187,-0.867252 v 1.734505 q -1.03133,0.445346 -1.95718,0.63286 -0.91413,0.199234 -2.21501,0.199234 z m -0.52738,-11.684471 q -1.54699,0 -2.47284,1.007888 -0.91413,1.007889 -1.07821,2.789272 h 6.71535 q 0,-1.839982 -0.82038,-2.812711 -0.82037,-0.984449 -2.34392,-0.984449 z"
         id="path67" />
      <path
         d="m 352.9885,47 v -8.309217 q 0,-1.57043 -0.7149,-2.343926 -0.71489,-0.773495 -2.23845,-0.773495 -2.01577,0 -2.95334,1.089925 -0.93757,1.089926 -0.93757,3.597926 V 47 h -1.94546 V 34.155286 h 1.58215 l 0.31643,1.757945 h 0.0938 q 0.5977,-0.94929 1.6759,-1.464954 1.07821,-0.527383 2.40253,-0.527383 2.32048,0 3.49245,1.125084 1.17196,1.113365 1.17196,3.574487 V 47 Z"
         id="path69" />
      <path
         d="m 364.06355,47.234393 q -2.78927,0 -4.32454,-1.711066 -1.52355,-1.722786 -1.52355,-4.863646 0,-3.222898 1.54699,-4.980843 1.55871,-1.757944 4.43002,-1.757944 0.92585,0 1.8517,0.199234 0.92585,0.199233 1.45323,0.468785 l -0.5977,1.652467 q -0.64458,-0.257831 -1.40635,-0.421906 -0.76178,-0.175795 -1.34776,-0.175795 -3.91436,0 -3.91436,4.992562 0,2.367365 0.94929,3.633085 0.96101,1.26572 2.83615,1.26572 1.60559,0 3.29322,-0.691458 v 1.722786 q -1.28916,0.668019 -3.24634,0.668019 z"
         id="path71" />
      <path
         d="m 375.78318,47.234393 q -2.84787,0 -4.50034,-1.734506 -1.64075,-1.734505 -1.64075,-4.816767 0,-3.105702 1.52355,-4.933964 1.53527,-1.828262 4.11359,-1.828262 2.41425,0 3.8206,1.593869 1.40636,1.58215 1.40636,4.183908 v 1.230561 h -8.84832 q 0.0586,2.261889 1.1368,3.433851 1.08993,1.171963 3.05883,1.171963 2.07437,0 4.10187,-0.867252 v 1.734505 q -1.03133,0.445346 -1.95718,0.63286 -0.91413,0.199234 -2.21501,0.199234 z m -0.52739,-11.684471 q -1.54699,0 -2.47284,1.007888 -0.91413,1.007889 -1.0782,2.789272 h 6.71534 q 0,-1.839982 -0.82037,-2.812711 -0.82037,-0.984449 -2.34393,-0.984449 z"
         id="path73" />
      <path
         d="m 397.95672,47 -0.38675,-1.828262 h -0.0938 q -0.96101,1.207122 -1.92202,1.640748 -0.94929,0.421907 -2.37908,0.421907 -1.9103,0 -3.00023,-0.984449 -1.0782,-0.984449 -1.0782,-2.800992 0,-3.890917 6.22312,-4.078431 l 2.17985,-0.07032 v -0.796935 q 0,-1.511832 -0.6563,-2.22673 -0.64458,-0.726617 -2.07437,-0.726617 -1.60559,0 -3.63309,0.984449 l -0.5977,-1.488393 q 0.94929,-0.515663 2.07438,-0.808654 1.1368,-0.292991 2.27361,-0.292991 2.29704,0 3.39869,1.019608 1.11336,1.019608 1.11336,3.269776 V 47 Z m -4.39486,-1.371197 q 1.81654,0 2.84787,-0.996168 1.04304,-0.996169 1.04304,-2.789272 V 40.68312 l -1.94545,0.08204 q -2.32049,0.08204 -3.35182,0.726617 -1.01961,0.63286 -1.01961,1.980618 0,1.054766 0.63286,1.605589 0.64458,0.550822 1.79311,0.550822 z"
         id="path75" />
      <path
         d="m 412.19607,47 v -8.309217 q 0,-1.57043 -0.7149,-2.343926 -0.7149,-0.773495 -2.23845,-0.773495 -2.01578,0 -2.95335,1.089925 -0.93757,1.089926 -0.93757,3.597926 V 47 h -1.94546 V 34.155286 h 1.58215 l 0.31643,1.757945 h 0.0938 q 0.5977,-0.94929 1.67591,-1.464954 1.0782,-0.527383 2.40252,-0.527383 2.32049,0 3.49245,1.125084 1.17196,1.113365 1.17196,3.574487 V 47 Z"
         id="path77" />
      <path
         d="m 426.88076,45.277215 h -0.10547 q -1.34776,1.957178 -4.03156,1.957178 -2.51972,0 -3.92607,-1.722786 -1.39464,-1.722785 -1.39464,-4.898805 0,-3.176019 1.40636,-4.933964 1.40635,-1.757944 3.91435,-1.757944 2.61348,0 4.00812,1.89858 h 0.15235 l -0.082,-0.925851 -0.0469,-0.902411 v -5.226955 h 1.94545 V 47 h -1.58215 z m -3.89091,0.328149 q 1.99233,0 2.88302,-1.078206 0.90242,-1.089925 0.90242,-3.504169 v -0.410187 q 0,-2.730673 -0.91414,-3.890917 -0.90241,-1.171963 -2.89474,-1.171963 -1.71107,0 -2.6252,1.336038 -0.90241,1.324318 -0.90241,3.750281 0,2.461122 0.90241,3.715123 0.90241,1.254 2.64864,1.254 z"
         id="path79" />
      <path
         d="m 444.64771,47 h -1.99233 V 31.635566 h -5.42619 v -1.769664 h 12.84471 v 1.769664 h -5.42619 z"
         id="path81" />
      <path
         d="m 457.78543,47.234393 q -2.84787,0 -4.50034,-1.734506 -1.64075,-1.734505 -1.64075,-4.816767 0,-3.105702 1.52355,-4.933964 1.53528,-1.828262 4.11359,-1.828262 2.41425,0 3.8206,1.593869 1.40636,1.58215 1.40636,4.183908 v 1.230561 h -8.84832 q 0.0586,2.261889 1.1368,3.433851 1.08993,1.171963 3.05883,1.171963 2.07437,0 4.10187,-0.867252 v 1.734505 q -1.03133,0.445346 -1.95718,0.63286 -0.91413,0.199234 -2.21501,0.199234 z m -0.52739,-11.684471 q -1.54699,0 -2.47284,1.007888 -0.91413,1.007889 -1.0782,2.789272 h 6.71534 q 0,-1.839982 -0.82037,-2.812711 -0.82037,-0.984449 -2.34393,-0.984449 z"
         id="path83" />
      <path
         d="m 470.95829,47.234393 q -2.78927,0 -4.32454,-1.711066 -1.52356,-1.722786 -1.52356,-4.863646 0,-3.222898 1.54699,-4.980843 1.55871,-1.757944 4.43002,-1.757944 0.92585,0 1.85171,0.199234 0.92585,0.199233 1.45323,0.468785 l -0.5977,1.652467 q -0.64458,-0.257831 -1.40636,-0.421906 -0.76177,-0.175795 -1.34775,-0.175795 -3.91436,0 -3.91436,4.992562 0,2.367365 0.94929,3.633085 0.96101,1.26572 2.83615,1.26572 1.60559,0 3.29322,-0.691458 v 1.722786 q -1.28916,0.668019 -3.24634,0.668019 z"
         id="path85" />
      <path
         d="m 486.04145,47 v -8.309217 q 0,-1.57043 -0.7149,-2.343926 -0.7149,-0.773495 -2.23845,-0.773495 -2.02749,0 -2.96506,1.101645 -0.92586,1.101645 -0.92586,3.609645 V 47 h -1.94545 V 28.764257 h 1.94545 v 5.519945 q 0,0.996169 -0.0937,1.652468 h 0.11719 q 0.57427,-0.925851 1.62903,-1.453234 1.06649,-0.539103 2.42597,-0.539103 2.35564,0 3.5276,1.125085 1.18369,1.113364 1.18369,3.551047 V 47 Z"
         id="path87" />
      <path
         d="m 500.77303,47 v -8.309217 q 0,-1.57043 -0.7149,-2.343926 -0.71489,-0.773495 -2.23845,-0.773495 -2.01577,0 -2.95334,1.089925 -0.93757,1.089926 -0.93757,3.597926 V 47 h -1.94546 V 34.155286 h 1.58215 l 0.31643,1.757945 h 0.0938 q 0.5977,-0.94929 1.6759,-1.464954 1.07821,-0.527383 2.40253,-0.527383 2.32048,0 3.49245,1.125084 1.17196,1.113365 1.17196,3.574487 V 47 Z"
         id="path89" />
      <path
         d="m 517.80165,40.565924 q 0,3.14086 -1.58215,4.910524 -1.58215,1.757945 -4.37143,1.757945 -1.72278,0 -3.05882,-0.808655 -1.33604,-0.808654 -2.06265,-2.320486 -0.72662,-1.511833 -0.72662,-3.539328 0,-3.140861 1.57043,-4.887086 1.57043,-1.757944 4.3597,-1.757944 2.69552,0 4.27767,1.793103 1.59387,1.793103 1.59387,4.851927 z m -9.78589,0 q 0,2.461122 0.98444,3.750281 0.98445,1.289159 2.89475,1.289159 1.9103,0 2.89475,-1.277439 0.99617,-1.28916 0.99617,-3.762001 0,-2.449403 -0.99617,-3.715123 -0.98445,-1.277439 -2.91819,-1.277439 -1.9103,0 -2.88303,1.254 -0.97272,1.254 -0.97272,3.738562 z"
         id="path91" />
      <path
         d="m 523.15751,47 h -1.94546 V 28.764257 h 1.94546 z"
         id="path93" />
      <path
         d="m 538.36959,40.565924 q 0,3.14086 -1.58215,4.910524 -1.58215,1.757945 -4.37142,1.757945 -1.72278,0 -3.05882,-0.808655 -1.33604,-0.808654 -2.06266,-2.320486 -0.72661,-1.511833 -0.72661,-3.539328 0,-3.140861 1.57043,-4.887086 1.57043,-1.757944 4.3597,-1.757944 2.69551,0 4.27766,1.793103 1.59387,1.793103 1.59387,4.851927 z m -9.78589,0 q 0,2.461122 0.98445,3.750281 0.98445,1.289159 2.89475,1.289159 1.9103,0 2.89475,-1.277439 0.99617,-1.28916 0.99617,-3.762001 0,-2.449403 -0.99617,-3.715123 -0.98445,-1.277439 -2.91819,-1.277439 -1.9103,0 -2.88303,1.254 -0.97273,1.254 -0.97273,3.738562 z"
         id="path95" />
      <path
         d="m 552.29251,34.155286 v 1.230561 l -2.37909,0.281272 q 0.32815,0.410187 0.58599,1.078205 0.25783,0.6563 0.25783,1.488393 0,1.886861 -1.28916,3.011945 -1.28916,1.125084 -3.53933,1.125084 -0.57426,0 -1.07821,-0.09376 -1.24228,0.6563 -1.24228,1.652468 0,0.527383 0.43363,0.785215 0.43363,0.246113 1.48839,0.246113 h 2.27361 q 2.08609,0 3.19946,0.878972 1.12508,0.878972 1.12508,2.554879 0,2.132972 -1.71106,3.246337 -1.71107,1.125085 -4.99256,1.125085 -2.51972,0 -3.89092,-0.937571 -1.35948,-0.93757 -1.35948,-2.648636 0,-1.171963 0.75006,-2.027496 0.75005,-0.855533 2.10953,-1.160243 -0.49222,-0.222673 -0.83209,-0.691458 -0.32815,-0.468785 -0.32815,-1.089926 0,-0.703177 0.37503,-1.230561 0.37502,-0.527383 1.18368,-1.019608 -0.99617,-0.410187 -1.62903,-1.394635 -0.62114,-0.984449 -0.62114,-2.250169 0,-2.109533 1.26572,-3.246337 1.26572,-1.148524 3.58621,-1.148524 1.00788,0 1.81654,0.234392 z m -10.24296,15.001126 q 0,1.043047 0.87897,1.58215 0.87898,0.539103 2.51972,0.539103 2.44941,0 3.62137,-0.738337 1.18368,-0.726617 1.18368,-1.980617 0,-1.043047 -0.64458,-1.453234 -0.64458,-0.398468 -2.42596,-0.398468 h -2.33221 q -1.32431,0 -2.06265,0.63286 -0.73834,0.63286 -0.73834,1.816543 z m 1.05477,-10.887536 q 0,1.347758 0.76177,2.039216 0.76178,0.691458 2.12126,0.691458 2.84787,0 2.84787,-2.765833 0,-2.894748 -2.88303,-2.894748 -1.3712,0 -2.10953,0.738337 -0.73834,0.738336 -0.73834,2.19157 z"
         id="path97" />
      <path
         d="m 552.89021,34.155286 h 2.0861 l 2.81271,7.324769 q 0.92585,2.508 1.14852,3.621365 h 0.0938 q 0.15236,-0.597701 0.63286,-2.039215 0.49222,-1.453234 3.18774,-8.906919 h 2.08609 l -5.51994,14.626098 q -0.82038,2.168131 -1.92202,3.070542 -1.08993,0.914132 -2.6838,0.914132 -0.89069,0 -1.75794,-0.199234 v -1.558711 q 0.64458,0.140636 1.44151,0.140636 2.00406,0 2.85959,-2.250169 l 0.7149,-1.828262 z"
         id="path99" />
    </g>
  </g>
</svg>
