<svg width="1280" height="720" xmlns="http://www.w3.org/2000/svg" xmlns:xlink="http://www.w3.org/1999/xlink" overflow="hidden"><g><rect x="0" y="0" width="1280" height="720" fill="#FFFFFF"/><g><g><g><path d="M36.2277 18.7069 12.0726 18.7069 12.0726 42.8674 36.2277 42.8674ZM36.2277 54.939 12.0726 54.939C5.40442 54.939 0 49.5323 0 42.8674L0 18.7069C0 12.0441 5.40442 6.63863 12.0726 6.63863L36.2277 6.63863C42.8948 6.63863 48.2981 12.0441 48.2981 18.7069L48.2981 42.8674C48.2981 49.5323 42.8948 54.939 36.2277 54.939Z" fill="#00509E" transform="matrix(1.00221 0 0 -1 974.343 725.939)"/><path d="M0 0C-5.47232 0-9.90647-4.43962-9.90647-9.90975-9.90647-15.3832-5.47232-19.8162 0-19.8162 5.47123-19.8162 9.90647-15.3832 9.90647-9.90975 9.90647-4.43962 5.47123 0 0 0Z" fill="#00509E" transform="matrix(1.00221 0 0 -1 998.465 685.16)"/><path d="M0 0 23.5221-34.1952 23.5221-7.88487 23.4542-1.62735 16.3852-1.62735 16.3852 0 31.545 0 31.545-1.62735 25.6981-1.62735 25.6302-7.88487 25.6302-48.6081 24.5428-48.9486-7.00221-3.05758-7.00221-39.9073-6.9354-46.3642 0.337297-46.3642 0.337297-47.9959-15.3635-47.9959-15.3635-46.3642-9.11032-46.3642-9.04351-39.9073-9.04351-7.88487-9.11032-1.62735-15.3635-1.62735-15.3635 0Z" transform="matrix(1.00221 0 0 -1 1056.61 671.051)"/><path d="M0 0 0-15.3613-2.04021-15.3613C-2.245-12.9827-2.51768-9.99408-4.6247-6.45684-7.0712-2.31071-10.4037-2.10482-13.666-1.96903L-17.4749-1.96903-17.5406-8.08857-17.5406-39.4277-17.4749-46.3642-10.1299-46.3642-10.1299-47.9959-32.4276-47.9959-32.4276-46.3642-25.0881-46.3642-25.018-39.4277-25.018-8.08857-25.0881-1.96903-28.2158-1.96903C-32.1582-2.03693-35.1479-2.03693-38.004-6.59154-40.2468-10.1967-40.4516-13.0517-40.5885-15.3613L-42.5586-15.3613-42.5586 0Z" transform="matrix(1.00221 0 0 -1 1135.24 671.051)"/><path d="M0 0 23.5221-34.1952 23.5221-7.88487 23.4553-1.62735 16.3841-1.62735 16.3841 0 31.5439 0 31.5439-1.62735 25.697-1.62735 25.628-7.88487 25.628-48.6081 24.5406-48.9486-7.0044-3.05758-7.0044-39.9073-6.9354-46.3642 0.341678-46.3642 0.341678-47.9959-15.3656-47.9959-15.3656-46.3642-9.10812-46.3642-9.04461-39.9073-9.04461-7.88487-9.10812-1.62735-15.3656-1.62735-15.3656 0Z" transform="matrix(1.00221 0 0 -1 1154.59 671.051)"/><path d="M0 0 0-1.62735-6.73281-1.62735-6.79742-7.40959-6.79742-33.3793C-6.73281-40.1099-6.59373-46.4989 6.05055-46.4989 18.8306-46.4989 19.6465-40.9247 19.8491-34.8741L19.8491-7.40959 19.7834-1.62735 12.9191-1.62735 12.9191 0 27.9387 0 27.9387-1.62735 22.0284-1.62735 21.9605-7.40959 21.9605-32.1571C21.8893-41.0627 21.8225-48.6749 4.21512-48.6749 1.70291-48.6749-4.28411-48.4044-8.08857-46.8394-14.1391-44.256-14.2749-38.9546-14.3439-32.4265L-14.3439-7.40959-14.4129-1.62735-20.2597-1.62735-20.2597 0Z" transform="matrix(1.00221 0 0 -1 1212.66 671.051)"/></g></g></g></g></svg>