<svg width="960" height="720" xmlns="http://www.w3.org/2000/svg" xmlns:xlink="http://www.w3.org/1999/xlink" overflow="hidden"><g><rect x="0" y="0" width="960" height="720" fill="#FFFFFF"/><g><g><g><path d="M25.701 13.2712 8.56466 13.2712 8.56466 30.4114 25.701 30.4114ZM25.701 38.9752 8.56466 38.9752C3.83405 38.9752 0 35.1396 0 30.4114L0 13.2712C0 8.54446 3.83405 4.70963 8.56466 4.70963L25.701 4.70963C30.4308 4.70963 34.2641 8.54446 34.2641 13.2712L34.2641 30.4114C34.2641 35.1396 30.4308 38.9752 25.701 38.9752Z" fill="#00509E" transform="matrix(1 0 0 -1.00685 771.243 724.242)"/><path d="M0 0C-3.88222 0-7.02793-3.14959-7.02793-7.03026-7.02793-10.9133-3.88222-14.0582 0-14.0582 3.88144-14.0582 7.02793-10.9133 7.02793-7.03026 7.02793-3.14959 3.88144 0 0 0Z" fill="#00509E" transform="matrix(1 0 0 -1.00685 788.318 695.114)"/><path d="M0 0 16.6872-24.259 16.6872-5.59375 16.6391-1.15449 11.6241-1.15449 11.6241 0 22.3789 0 22.3789-1.15449 18.231-1.15449 18.1828-5.59375 18.1828-34.4839 17.4113-34.7255-4.96756-2.16913-4.96756-28.3114-4.92017-32.892 0.239288-32.892 0.239288-34.0496-10.8993-34.0496-10.8993-32.892-6.46311-32.892-6.41572-28.3114-6.41572-5.59375-6.46311-1.15449-10.8993-1.15449-10.8993 0Z" transform="matrix(1 0 0 -1.00685 829.477 685.037)"/><path d="M0 0 0-10.8977-1.44738-10.8977C-1.59267-9.21027-1.78612-7.09008-3.28089-4.58066-5.01651-1.63928-7.38064-1.49322-9.69506-1.39688L-12.3972-1.39688-12.4438-5.73826-12.4438-27.9711-12.3972-32.892-7.18642-32.892-7.18642-34.0496-23.0051-34.0496-23.0051-32.892-17.7982-32.892-17.7485-27.9711-17.7485-5.73826-17.7982-1.39688-20.0171-1.39688C-22.814-1.44505-24.9349-1.44505-26.9611-4.67622-28.5522-7.23381-28.6975-9.25921-28.7946-10.8977L-30.1923-10.8977-30.1923 0Z" transform="matrix(1 0 0 -1.00685 885.135 685.037)"/><path d="M0 0 16.6872-24.259 16.6872-5.59375 16.6399-1.15449 11.6234-1.15449 11.6234 0 22.3781 0 22.3781-1.15449 18.2302-1.15449 18.1812-5.59375 18.1812-34.4839 17.4098-34.7255-4.96912-2.16913-4.96912-28.3114-4.92017-32.892 0.242396-32.892 0.242396-34.0496-10.9008-34.0496-10.9008-32.892-6.46156-32.892-6.4165-28.3114-6.4165-5.59375-6.46156-1.15449-10.9008-1.15449-10.9008 0Z" transform="matrix(1 0 0 -1.00685 898.832 685.037)"/><path d="M0 0 0-1.15449-4.77644-1.15449-4.82228-5.25657-4.82228-23.6802C-4.77644-28.4551-4.67777-32.9876 4.29243-32.9876 13.359-32.9876 13.9378-29.0331 14.0815-24.7407L14.0815-5.25657 14.0349-1.15449 9.16521-1.15449 9.16521 0 19.8205 0 19.8205-1.15449 15.6275-1.15449 15.5794-5.25657 15.5794-22.8132C15.5289-29.131 15.4815-34.5313 2.99033-34.5313 1.20809-34.5313-3.03927-34.3394-5.73826-33.2292-10.0307-31.3965-10.127-27.6355-10.176-23.0043L-10.176-5.25657-10.2249-1.15449-14.3728-1.15449-14.3728 0Z" transform="matrix(1 0 0 -1.00685 939.937 685.037)"/></g></g></g></g></svg>