<?xml version="1.0" encoding="utf-8" standalone="no"?>
<!DOCTYPE svg PUBLIC "-//W3C//DTD SVG 1.1//EN"
  "http://www.w3.org/Graphics/SVG/1.1/DTD/svg11.dtd">
<svg xmlns:xlink="http://www.w3.org/1999/xlink" width="576pt" height="324pt" viewBox="0 0 576 324" xmlns="http://www.w3.org/2000/svg" version="1.1">
 <metadata>
  <rdf:RDF xmlns:dc="http://purl.org/dc/elements/1.1/" xmlns:cc="http://creativecommons.org/ns#" xmlns:rdf="http://www.w3.org/1999/02/22-rdf-syntax-ns#">
   <cc:Work>
    <dc:type rdf:resource="http://purl.org/dc/dcmitype/StillImage"/>
    <dc:date>2025-08-31T20:51:03.539802</dc:date>
    <dc:format>image/svg+xml</dc:format>
    <dc:creator>
     <cc:Agent>
      <dc:title>Matplotlib v3.10.5, https://matplotlib.org/</dc:title>
     </cc:Agent>
    </dc:creator>
   </cc:Work>
  </rdf:RDF>
 </metadata>
 <defs>
  <style type="text/css">*{stroke-linejoin: round; stroke-linecap: butt}</style>
 </defs>
 <g id="figure_1">
  <g id="patch_1">
   <path d="M 0 324 
L 576 324 
L 576 0 
L 0 0 
z
" style="fill: #ffffff"/>
  </g>
  <g id="axes_1">
   <g id="patch_2">
    <path d="M 24.88 282.04 
L 565.2 282.04 
L 565.2 26.88 
L 24.88 26.88 
z
" style="fill: #ffffff"/>
   </g>
   <g id="matplotlib.axis_1">
    <g id="xtick_1">
     <g id="line2d_1">
      <defs>
       <path id="md9b35b9c5a" d="M 0 0 
L 0 3.5 
" style="stroke: #000000; stroke-width: 0.8"/>
      </defs>
      <g>
       <use xlink:href="#md9b35b9c5a" x="24.88" y="282.04" style="stroke: #000000; stroke-width: 0.8"/>
      </g>
     </g>
     <g id="text_1">
      <!-- 0.0 -->
      <g transform="translate(16.928438 296.638438) scale(0.1 -0.1)">
       <defs>
        <path id="DejaVuSans-30" d="M 2034 4250 
Q 1547 4250 1301 3770 
Q 1056 3291 1056 2328 
Q 1056 1369 1301 889 
Q 1547 409 2034 409 
Q 2525 409 2770 889 
Q 3016 1369 3016 2328 
Q 3016 3291 2770 3770 
Q 2525 4250 2034 4250 
z
M 2034 4750 
Q 2819 4750 3233 4129 
Q 3647 3509 3647 2328 
Q 3647 1150 3233 529 
Q 2819 -91 2034 -91 
Q 1250 -91 836 529 
Q 422 1150 422 2328 
Q 422 3509 836 4129 
Q 1250 4750 2034 4750 
z
" transform="scale(0.015625)"/>
        <path id="DejaVuSans-2e" d="M 684 794 
L 1344 794 
L 1344 0 
L 684 0 
L 684 794 
z
" transform="scale(0.015625)"/>
       </defs>
       <use xlink:href="#DejaVuSans-30"/>
       <use xlink:href="#DejaVuSans-2e" transform="translate(63.623047 0)"/>
       <use xlink:href="#DejaVuSans-30" transform="translate(95.410156 0)"/>
      </g>
     </g>
    </g>
    <g id="xtick_2">
     <g id="line2d_2">
      <g>
       <use xlink:href="#md9b35b9c5a" x="142.853799" y="282.04" style="stroke: #000000; stroke-width: 0.8"/>
      </g>
     </g>
     <g id="text_2">
      <!-- 0.2 -->
      <g transform="translate(134.902237 296.638438) scale(0.1 -0.1)">
       <defs>
        <path id="DejaVuSans-32" d="M 1228 531 
L 3431 531 
L 3431 0 
L 469 0 
L 469 531 
Q 828 903 1448 1529 
Q 2069 2156 2228 2338 
Q 2531 2678 2651 2914 
Q 2772 3150 2772 3378 
Q 2772 3750 2511 3984 
Q 2250 4219 1831 4219 
Q 1534 4219 1204 4116 
Q 875 4013 500 3803 
L 500 4441 
Q 881 4594 1212 4672 
Q 1544 4750 1819 4750 
Q 2544 4750 2975 4387 
Q 3406 4025 3406 3419 
Q 3406 3131 3298 2873 
Q 3191 2616 2906 2266 
Q 2828 2175 2409 1742 
Q 1991 1309 1228 531 
z
" transform="scale(0.015625)"/>
       </defs>
       <use xlink:href="#DejaVuSans-30"/>
       <use xlink:href="#DejaVuSans-2e" transform="translate(63.623047 0)"/>
       <use xlink:href="#DejaVuSans-32" transform="translate(95.410156 0)"/>
      </g>
     </g>
    </g>
    <g id="xtick_3">
     <g id="line2d_3">
      <g>
       <use xlink:href="#md9b35b9c5a" x="260.827598" y="282.04" style="stroke: #000000; stroke-width: 0.8"/>
      </g>
     </g>
     <g id="text_3">
      <!-- 0.4 -->
      <g transform="translate(252.876036 296.638438) scale(0.1 -0.1)">
       <defs>
        <path id="DejaVuSans-34" d="M 2419 4116 
L 825 1625 
L 2419 1625 
L 2419 4116 
z
M 2253 4666 
L 3047 4666 
L 3047 1625 
L 3713 1625 
L 3713 1100 
L 3047 1100 
L 3047 0 
L 2419 0 
L 2419 1100 
L 313 1100 
L 313 1709 
L 2253 4666 
z
" transform="scale(0.015625)"/>
       </defs>
       <use xlink:href="#DejaVuSans-30"/>
       <use xlink:href="#DejaVuSans-2e" transform="translate(63.623047 0)"/>
       <use xlink:href="#DejaVuSans-34" transform="translate(95.410156 0)"/>
      </g>
     </g>
    </g>
    <g id="xtick_4">
     <g id="line2d_4">
      <g>
       <use xlink:href="#md9b35b9c5a" x="378.801397" y="282.04" style="stroke: #000000; stroke-width: 0.8"/>
      </g>
     </g>
     <g id="text_4">
      <!-- 0.6 -->
      <g transform="translate(370.849835 296.638438) scale(0.1 -0.1)">
       <defs>
        <path id="DejaVuSans-36" d="M 2113 2584 
Q 1688 2584 1439 2293 
Q 1191 2003 1191 1497 
Q 1191 994 1439 701 
Q 1688 409 2113 409 
Q 2538 409 2786 701 
Q 3034 994 3034 1497 
Q 3034 2003 2786 2293 
Q 2538 2584 2113 2584 
z
M 3366 4563 
L 3366 3988 
Q 3128 4100 2886 4159 
Q 2644 4219 2406 4219 
Q 1781 4219 1451 3797 
Q 1122 3375 1075 2522 
Q 1259 2794 1537 2939 
Q 1816 3084 2150 3084 
Q 2853 3084 3261 2657 
Q 3669 2231 3669 1497 
Q 3669 778 3244 343 
Q 2819 -91 2113 -91 
Q 1303 -91 875 529 
Q 447 1150 447 2328 
Q 447 3434 972 4092 
Q 1497 4750 2381 4750 
Q 2619 4750 2861 4703 
Q 3103 4656 3366 4563 
z
" transform="scale(0.015625)"/>
       </defs>
       <use xlink:href="#DejaVuSans-30"/>
       <use xlink:href="#DejaVuSans-2e" transform="translate(63.623047 0)"/>
       <use xlink:href="#DejaVuSans-36" transform="translate(95.410156 0)"/>
      </g>
     </g>
    </g>
    <g id="xtick_5">
     <g id="line2d_5">
      <g>
       <use xlink:href="#md9b35b9c5a" x="496.775197" y="282.04" style="stroke: #000000; stroke-width: 0.8"/>
      </g>
     </g>
     <g id="text_5">
      <!-- 0.8 -->
      <g transform="translate(488.823634 296.638438) scale(0.1 -0.1)">
       <defs>
        <path id="DejaVuSans-38" d="M 2034 2216 
Q 1584 2216 1326 1975 
Q 1069 1734 1069 1313 
Q 1069 891 1326 650 
Q 1584 409 2034 409 
Q 2484 409 2743 651 
Q 3003 894 3003 1313 
Q 3003 1734 2745 1975 
Q 2488 2216 2034 2216 
z
M 1403 2484 
Q 997 2584 770 2862 
Q 544 3141 544 3541 
Q 544 4100 942 4425 
Q 1341 4750 2034 4750 
Q 2731 4750 3128 4425 
Q 3525 4100 3525 3541 
Q 3525 3141 3298 2862 
Q 3072 2584 2669 2484 
Q 3125 2378 3379 2068 
Q 3634 1759 3634 1313 
Q 3634 634 3220 271 
Q 2806 -91 2034 -91 
Q 1263 -91 848 271 
Q 434 634 434 1313 
Q 434 1759 690 2068 
Q 947 2378 1403 2484 
z
M 1172 3481 
Q 1172 3119 1398 2916 
Q 1625 2713 2034 2713 
Q 2441 2713 2670 2916 
Q 2900 3119 2900 3481 
Q 2900 3844 2670 4047 
Q 2441 4250 2034 4250 
Q 1625 4250 1398 4047 
Q 1172 3844 1172 3481 
z
" transform="scale(0.015625)"/>
       </defs>
       <use xlink:href="#DejaVuSans-30"/>
       <use xlink:href="#DejaVuSans-2e" transform="translate(63.623047 0)"/>
       <use xlink:href="#DejaVuSans-38" transform="translate(95.410156 0)"/>
      </g>
     </g>
    </g>
    <g id="text_6">
     <!-- Time (seconds) -->
     <g transform="translate(256.878281 310.316563) scale(0.1 -0.1)">
      <defs>
       <path id="DejaVuSans-54" d="M -19 4666 
L 3928 4666 
L 3928 4134 
L 2272 4134 
L 2272 0 
L 1638 0 
L 1638 4134 
L -19 4134 
L -19 4666 
z
" transform="scale(0.015625)"/>
       <path id="DejaVuSans-69" d="M 603 3500 
L 1178 3500 
L 1178 0 
L 603 0 
L 603 3500 
z
M 603 4863 
L 1178 4863 
L 1178 4134 
L 603 4134 
L 603 4863 
z
" transform="scale(0.015625)"/>
       <path id="DejaVuSans-6d" d="M 3328 2828 
Q 3544 3216 3844 3400 
Q 4144 3584 4550 3584 
Q 5097 3584 5394 3201 
Q 5691 2819 5691 2113 
L 5691 0 
L 5113 0 
L 5113 2094 
Q 5113 2597 4934 2840 
Q 4756 3084 4391 3084 
Q 3944 3084 3684 2787 
Q 3425 2491 3425 1978 
L 3425 0 
L 2847 0 
L 2847 2094 
Q 2847 2600 2669 2842 
Q 2491 3084 2119 3084 
Q 1678 3084 1418 2786 
Q 1159 2488 1159 1978 
L 1159 0 
L 581 0 
L 581 3500 
L 1159 3500 
L 1159 2956 
Q 1356 3278 1631 3431 
Q 1906 3584 2284 3584 
Q 2666 3584 2933 3390 
Q 3200 3197 3328 2828 
z
" transform="scale(0.015625)"/>
       <path id="DejaVuSans-65" d="M 3597 1894 
L 3597 1613 
L 953 1613 
Q 991 1019 1311 708 
Q 1631 397 2203 397 
Q 2534 397 2845 478 
Q 3156 559 3463 722 
L 3463 178 
Q 3153 47 2828 -22 
Q 2503 -91 2169 -91 
Q 1331 -91 842 396 
Q 353 884 353 1716 
Q 353 2575 817 3079 
Q 1281 3584 2069 3584 
Q 2775 3584 3186 3129 
Q 3597 2675 3597 1894 
z
M 3022 2063 
Q 3016 2534 2758 2815 
Q 2500 3097 2075 3097 
Q 1594 3097 1305 2825 
Q 1016 2553 972 2059 
L 3022 2063 
z
" transform="scale(0.015625)"/>
       <path id="DejaVuSans-20" transform="scale(0.015625)"/>
       <path id="DejaVuSans-28" d="M 1984 4856 
Q 1566 4138 1362 3434 
Q 1159 2731 1159 2009 
Q 1159 1288 1364 580 
Q 1569 -128 1984 -844 
L 1484 -844 
Q 1016 -109 783 600 
Q 550 1309 550 2009 
Q 550 2706 781 3412 
Q 1013 4119 1484 4856 
L 1984 4856 
z
" transform="scale(0.015625)"/>
       <path id="DejaVuSans-73" d="M 2834 3397 
L 2834 2853 
Q 2591 2978 2328 3040 
Q 2066 3103 1784 3103 
Q 1356 3103 1142 2972 
Q 928 2841 928 2578 
Q 928 2378 1081 2264 
Q 1234 2150 1697 2047 
L 1894 2003 
Q 2506 1872 2764 1633 
Q 3022 1394 3022 966 
Q 3022 478 2636 193 
Q 2250 -91 1575 -91 
Q 1294 -91 989 -36 
Q 684 19 347 128 
L 347 722 
Q 666 556 975 473 
Q 1284 391 1588 391 
Q 1994 391 2212 530 
Q 2431 669 2431 922 
Q 2431 1156 2273 1281 
Q 2116 1406 1581 1522 
L 1381 1569 
Q 847 1681 609 1914 
Q 372 2147 372 2553 
Q 372 3047 722 3315 
Q 1072 3584 1716 3584 
Q 2034 3584 2315 3537 
Q 2597 3491 2834 3397 
z
" transform="scale(0.015625)"/>
       <path id="DejaVuSans-63" d="M 3122 3366 
L 3122 2828 
Q 2878 2963 2633 3030 
Q 2388 3097 2138 3097 
Q 1578 3097 1268 2742 
Q 959 2388 959 1747 
Q 959 1106 1268 751 
Q 1578 397 2138 397 
Q 2388 397 2633 464 
Q 2878 531 3122 666 
L 3122 134 
Q 2881 22 2623 -34 
Q 2366 -91 2075 -91 
Q 1284 -91 818 406 
Q 353 903 353 1747 
Q 353 2603 823 3093 
Q 1294 3584 2113 3584 
Q 2378 3584 2631 3529 
Q 2884 3475 3122 3366 
z
" transform="scale(0.015625)"/>
       <path id="DejaVuSans-6f" d="M 1959 3097 
Q 1497 3097 1228 2736 
Q 959 2375 959 1747 
Q 959 1119 1226 758 
Q 1494 397 1959 397 
Q 2419 397 2687 759 
Q 2956 1122 2956 1747 
Q 2956 2369 2687 2733 
Q 2419 3097 1959 3097 
z
M 1959 3584 
Q 2709 3584 3137 3096 
Q 3566 2609 3566 1747 
Q 3566 888 3137 398 
Q 2709 -91 1959 -91 
Q 1206 -91 779 398 
Q 353 888 353 1747 
Q 353 2609 779 3096 
Q 1206 3584 1959 3584 
z
" transform="scale(0.015625)"/>
       <path id="DejaVuSans-6e" d="M 3513 2113 
L 3513 0 
L 2938 0 
L 2938 2094 
Q 2938 2591 2744 2837 
Q 2550 3084 2163 3084 
Q 1697 3084 1428 2787 
Q 1159 2491 1159 1978 
L 1159 0 
L 581 0 
L 581 3500 
L 1159 3500 
L 1159 2956 
Q 1366 3272 1645 3428 
Q 1925 3584 2291 3584 
Q 2894 3584 3203 3211 
Q 3513 2838 3513 2113 
z
" transform="scale(0.015625)"/>
       <path id="DejaVuSans-64" d="M 2906 2969 
L 2906 4863 
L 3481 4863 
L 3481 0 
L 2906 0 
L 2906 525 
Q 2725 213 2448 61 
Q 2172 -91 1784 -91 
Q 1150 -91 751 415 
Q 353 922 353 1747 
Q 353 2572 751 3078 
Q 1150 3584 1784 3584 
Q 2172 3584 2448 3432 
Q 2725 3281 2906 2969 
z
M 947 1747 
Q 947 1113 1208 752 
Q 1469 391 1925 391 
Q 2381 391 2643 752 
Q 2906 1113 2906 1747 
Q 2906 2381 2643 2742 
Q 2381 3103 1925 3103 
Q 1469 3103 1208 2742 
Q 947 2381 947 1747 
z
" transform="scale(0.015625)"/>
       <path id="DejaVuSans-29" d="M 513 4856 
L 1013 4856 
Q 1481 4119 1714 3412 
Q 1947 2706 1947 2009 
Q 1947 1309 1714 600 
Q 1481 -109 1013 -844 
L 513 -844 
Q 928 -128 1133 580 
Q 1338 1288 1338 2009 
Q 1338 2731 1133 3434 
Q 928 4138 513 4856 
z
" transform="scale(0.015625)"/>
      </defs>
      <use xlink:href="#DejaVuSans-54"/>
      <use xlink:href="#DejaVuSans-69" transform="translate(57.958984 0)"/>
      <use xlink:href="#DejaVuSans-6d" transform="translate(85.742188 0)"/>
      <use xlink:href="#DejaVuSans-65" transform="translate(183.154297 0)"/>
      <use xlink:href="#DejaVuSans-20" transform="translate(244.677734 0)"/>
      <use xlink:href="#DejaVuSans-28" transform="translate(276.464844 0)"/>
      <use xlink:href="#DejaVuSans-73" transform="translate(315.478516 0)"/>
      <use xlink:href="#DejaVuSans-65" transform="translate(367.578125 0)"/>
      <use xlink:href="#DejaVuSans-63" transform="translate(429.101562 0)"/>
      <use xlink:href="#DejaVuSans-6f" transform="translate(484.082031 0)"/>
      <use xlink:href="#DejaVuSans-6e" transform="translate(545.263672 0)"/>
      <use xlink:href="#DejaVuSans-64" transform="translate(608.642578 0)"/>
      <use xlink:href="#DejaVuSans-73" transform="translate(672.119141 0)"/>
      <use xlink:href="#DejaVuSans-29" transform="translate(724.21875 0)"/>
     </g>
    </g>
   </g>
   <g id="matplotlib.axis_2">
    <g id="text_7">
     <!-- Signal Amplitude -->
     <g transform="translate(18.800313 197.031094) rotate(-90) scale(0.1 -0.1)">
      <defs>
       <path id="DejaVuSans-53" d="M 3425 4513 
L 3425 3897 
Q 3066 4069 2747 4153 
Q 2428 4238 2131 4238 
Q 1616 4238 1336 4038 
Q 1056 3838 1056 3469 
Q 1056 3159 1242 3001 
Q 1428 2844 1947 2747 
L 2328 2669 
Q 3034 2534 3370 2195 
Q 3706 1856 3706 1288 
Q 3706 609 3251 259 
Q 2797 -91 1919 -91 
Q 1588 -91 1214 -16 
Q 841 59 441 206 
L 441 856 
Q 825 641 1194 531 
Q 1563 422 1919 422 
Q 2459 422 2753 634 
Q 3047 847 3047 1241 
Q 3047 1584 2836 1778 
Q 2625 1972 2144 2069 
L 1759 2144 
Q 1053 2284 737 2584 
Q 422 2884 422 3419 
Q 422 4038 858 4394 
Q 1294 4750 2059 4750 
Q 2388 4750 2728 4690 
Q 3069 4631 3425 4513 
z
" transform="scale(0.015625)"/>
       <path id="DejaVuSans-67" d="M 2906 1791 
Q 2906 2416 2648 2759 
Q 2391 3103 1925 3103 
Q 1463 3103 1205 2759 
Q 947 2416 947 1791 
Q 947 1169 1205 825 
Q 1463 481 1925 481 
Q 2391 481 2648 825 
Q 2906 1169 2906 1791 
z
M 3481 434 
Q 3481 -459 3084 -895 
Q 2688 -1331 1869 -1331 
Q 1566 -1331 1297 -1286 
Q 1028 -1241 775 -1147 
L 775 -588 
Q 1028 -725 1275 -790 
Q 1522 -856 1778 -856 
Q 2344 -856 2625 -561 
Q 2906 -266 2906 331 
L 2906 616 
Q 2728 306 2450 153 
Q 2172 0 1784 0 
Q 1141 0 747 490 
Q 353 981 353 1791 
Q 353 2603 747 3093 
Q 1141 3584 1784 3584 
Q 2172 3584 2450 3431 
Q 2728 3278 2906 2969 
L 2906 3500 
L 3481 3500 
L 3481 434 
z
" transform="scale(0.015625)"/>
       <path id="DejaVuSans-61" d="M 2194 1759 
Q 1497 1759 1228 1600 
Q 959 1441 959 1056 
Q 959 750 1161 570 
Q 1363 391 1709 391 
Q 2188 391 2477 730 
Q 2766 1069 2766 1631 
L 2766 1759 
L 2194 1759 
z
M 3341 1997 
L 3341 0 
L 2766 0 
L 2766 531 
Q 2569 213 2275 61 
Q 1981 -91 1556 -91 
Q 1019 -91 701 211 
Q 384 513 384 1019 
Q 384 1609 779 1909 
Q 1175 2209 1959 2209 
L 2766 2209 
L 2766 2266 
Q 2766 2663 2505 2880 
Q 2244 3097 1772 3097 
Q 1472 3097 1187 3025 
Q 903 2953 641 2809 
L 641 3341 
Q 956 3463 1253 3523 
Q 1550 3584 1831 3584 
Q 2591 3584 2966 3190 
Q 3341 2797 3341 1997 
z
" transform="scale(0.015625)"/>
       <path id="DejaVuSans-6c" d="M 603 4863 
L 1178 4863 
L 1178 0 
L 603 0 
L 603 4863 
z
" transform="scale(0.015625)"/>
       <path id="DejaVuSans-41" d="M 2188 4044 
L 1331 1722 
L 3047 1722 
L 2188 4044 
z
M 1831 4666 
L 2547 4666 
L 4325 0 
L 3669 0 
L 3244 1197 
L 1141 1197 
L 716 0 
L 50 0 
L 1831 4666 
z
" transform="scale(0.015625)"/>
       <path id="DejaVuSans-70" d="M 1159 525 
L 1159 -1331 
L 581 -1331 
L 581 3500 
L 1159 3500 
L 1159 2969 
Q 1341 3281 1617 3432 
Q 1894 3584 2278 3584 
Q 2916 3584 3314 3078 
Q 3713 2572 3713 1747 
Q 3713 922 3314 415 
Q 2916 -91 2278 -91 
Q 1894 -91 1617 61 
Q 1341 213 1159 525 
z
M 3116 1747 
Q 3116 2381 2855 2742 
Q 2594 3103 2138 3103 
Q 1681 3103 1420 2742 
Q 1159 2381 1159 1747 
Q 1159 1113 1420 752 
Q 1681 391 2138 391 
Q 2594 391 2855 752 
Q 3116 1113 3116 1747 
z
" transform="scale(0.015625)"/>
       <path id="DejaVuSans-74" d="M 1172 4494 
L 1172 3500 
L 2356 3500 
L 2356 3053 
L 1172 3053 
L 1172 1153 
Q 1172 725 1289 603 
Q 1406 481 1766 481 
L 2356 481 
L 2356 0 
L 1766 0 
Q 1100 0 847 248 
Q 594 497 594 1153 
L 594 3053 
L 172 3053 
L 172 3500 
L 594 3500 
L 594 4494 
L 1172 4494 
z
" transform="scale(0.015625)"/>
       <path id="DejaVuSans-75" d="M 544 1381 
L 544 3500 
L 1119 3500 
L 1119 1403 
Q 1119 906 1312 657 
Q 1506 409 1894 409 
Q 2359 409 2629 706 
Q 2900 1003 2900 1516 
L 2900 3500 
L 3475 3500 
L 3475 0 
L 2900 0 
L 2900 538 
Q 2691 219 2414 64 
Q 2138 -91 1772 -91 
Q 1169 -91 856 284 
Q 544 659 544 1381 
z
M 1991 3584 
L 1991 3584 
z
" transform="scale(0.015625)"/>
      </defs>
      <use xlink:href="#DejaVuSans-53"/>
      <use xlink:href="#DejaVuSans-69" transform="translate(63.476562 0)"/>
      <use xlink:href="#DejaVuSans-67" transform="translate(91.259766 0)"/>
      <use xlink:href="#DejaVuSans-6e" transform="translate(154.736328 0)"/>
      <use xlink:href="#DejaVuSans-61" transform="translate(218.115234 0)"/>
      <use xlink:href="#DejaVuSans-6c" transform="translate(279.394531 0)"/>
      <use xlink:href="#DejaVuSans-20" transform="translate(307.177734 0)"/>
      <use xlink:href="#DejaVuSans-41" transform="translate(338.964844 0)"/>
      <use xlink:href="#DejaVuSans-6d" transform="translate(407.373047 0)"/>
      <use xlink:href="#DejaVuSans-70" transform="translate(504.785156 0)"/>
      <use xlink:href="#DejaVuSans-6c" transform="translate(568.261719 0)"/>
      <use xlink:href="#DejaVuSans-69" transform="translate(596.044922 0)"/>
      <use xlink:href="#DejaVuSans-74" transform="translate(623.828125 0)"/>
      <use xlink:href="#DejaVuSans-75" transform="translate(663.037109 0)"/>
      <use xlink:href="#DejaVuSans-64" transform="translate(726.416016 0)"/>
      <use xlink:href="#DejaVuSans-65" transform="translate(789.892578 0)"/>
     </g>
    </g>
   </g>
   <g id="line2d_6">
    <path d="M 24.88 256.243898 
L 26.059738 256.761372 
L 28.419214 258.116402 
L 29.598952 258.333833 
L 30.77869 258.437559 
L 31.958428 258.337324 
L 33.138166 257.493119 
L 34.317904 257.279888 
L 35.497642 257.566212 
L 36.67738 256.789235 
L 37.857118 256.720886 
L 40.216594 258.833163 
L 41.396332 259.407132 
L 42.57607 258.786563 
L 43.755808 258.859567 
L 44.935546 259.538117 
L 46.115284 259.559045 
L 47.295022 258.559053 
L 49.654498 256.376642 
L 50.834236 255.804303 
L 52.013974 254.907239 
L 53.193712 255.665923 
L 54.37345 257.066199 
L 55.553188 257.491733 
L 56.732926 258.711582 
L 57.912664 258.98915 
L 59.092402 258.261542 
L 60.27214 257.785112 
L 61.451878 257.481674 
L 62.631616 256.633487 
L 64.991092 257.077284 
L 66.17083 257.448403 
L 67.350568 257.306136 
L 68.530306 257.359234 
L 69.710044 257.85892 
L 70.889782 257.865357 
L 72.06952 257.060228 
L 73.249258 255.864128 
L 74.428996 256.088683 
L 75.608734 256.538627 
L 77.96821 255.161852 
L 79.147948 255.453369 
L 81.507424 255.14723 
L 82.687162 254.520459 
L 83.8669 256.702868 
L 85.046638 258.222249 
L 86.226376 256.657812 
L 87.406114 256.610383 
L 88.585852 256.109004 
L 89.76559 255.886709 
L 90.945328 257.376593 
L 92.125066 258.608502 
L 93.304803 256.630089 
L 94.484541 255.121505 
L 95.664279 254.867975 
L 96.844017 254.390068 
L 98.023755 255.369608 
L 99.203493 256.634541 
L 100.383231 255.79168 
L 102.742707 256.468372 
L 103.922445 256.50292 
L 105.102183 255.980417 
L 106.281921 256.479901 
L 107.461659 257.402192 
L 108.641397 257.398186 
L 109.821135 259.236497 
L 111.000873 260.505806 
L 112.180611 259.472307 
L 113.360349 260.55124 
L 114.540087 260.848225 
L 115.719825 260.311954 
L 116.899563 260.03299 
L 119.259039 261.174368 
L 120.438777 261.599623 
L 121.618515 261.311632 
L 122.798253 260.272411 
L 123.977991 258.923141 
L 125.157729 258.921212 
L 126.337467 259.118516 
L 127.517205 258.133294 
L 128.696943 258.059251 
L 129.876681 258.476252 
L 131.056419 259.280758 
L 132.236157 260.53003 
L 133.415895 260.90325 
L 134.595633 260.134895 
L 135.775371 260.028677 
L 136.955109 260.681631 
L 138.134847 260.963867 
L 139.314585 259.23635 
L 140.494323 257.993736 
L 141.674061 256.987959 
L 142.853799 256.179289 
L 144.033537 256.753056 
L 145.213275 257.201315 
L 146.393013 257.966788 
L 147.572751 258.510878 
L 149.932227 257.914399 
L 151.111965 256.89969 
L 152.291703 255.421233 
L 153.471441 254.781546 
L 154.651179 255.696361 
L 158.190393 259.78132 
L 159.370131 259.028959 
L 160.549869 256.305128 
L 161.729607 255.603604 
L 162.909345 256.493539 
L 164.089083 257.229511 
L 165.268821 258.971751 
L 166.448559 259.507444 
L 167.628297 259.718678 
L 169.987773 259.317371 
L 171.167511 258.73348 
L 172.347249 257.886772 
L 173.526987 257.318307 
L 174.706725 257.138947 
L 175.886463 257.985428 
L 177.066201 259.277959 
L 178.245939 260.145772 
L 179.425677 260.067671 
L 180.605415 260.274447 
L 181.785153 260.216697 
L 182.964891 259.47627 
L 184.144629 259.086818 
L 185.324367 258.173399 
L 186.504105 257.530206 
L 187.683843 258.337776 
L 188.863581 259.30038 
L 191.223057 258.75699 
L 192.402795 258.903946 
L 193.582533 257.706256 
L 194.762271 257.298563 
L 195.942009 258.800471 
L 197.121747 257.514311 
L 198.301485 256.699534 
L 200.660961 254.226835 
L 201.840699 253.474376 
L 203.020437 251.485753 
L 204.200175 250.371305 
L 205.379913 250.290765 
L 206.559651 250.371953 
L 207.739389 249.8805 
L 208.919127 248.852165 
L 210.098865 249.611242 
L 211.278603 247.919676 
L 212.458341 244.091629 
L 213.638079 242.875964 
L 214.817817 239.957081 
L 215.997555 238.877414 
L 217.177293 238.698555 
L 218.357031 236.729596 
L 219.536769 235.976823 
L 220.716507 236.680725 
L 221.896245 236.25801 
L 224.255721 236.336942 
L 225.435459 236.058698 
L 226.615197 236.140891 
L 227.794934 236.730118 
L 228.974672 236.647734 
L 230.15441 235.955016 
L 231.334148 236.753572 
L 232.513886 239.473328 
L 236.0531 242.186202 
L 237.232838 242.912268 
L 238.412576 245.413943 
L 239.592314 250.003485 
L 240.772052 253.354674 
L 241.95179 255.032674 
L 243.131528 257.783799 
L 244.311266 260.160733 
L 246.670742 260.74881 
L 249.030218 261.57977 
L 250.209956 261.846092 
L 251.389694 262.30932 
L 252.569432 262.251869 
L 253.74917 261.967983 
L 254.928908 262.193889 
L 256.108646 260.971118 
L 257.288384 261.218331 
L 258.468122 263.039588 
L 259.64786 263.094548 
L 260.827598 261.655116 
L 262.007336 261.923807 
L 264.366812 261.651801 
L 265.54655 261.472614 
L 266.726288 261.833624 
L 267.906026 260.598247 
L 269.085764 260.257713 
L 271.44524 260.275756 
L 272.624978 260.814751 
L 274.984454 264.193561 
L 277.34393 270.441818 
L 278.523668 265.786537 
L 279.703406 262.043898 
L 280.883144 260.694317 
L 282.062882 252.533652 
L 283.24262 239.187958 
L 284.422358 227.194558 
L 285.602096 213.417045 
L 287.961572 179.044788 
L 289.14131 156.969093 
L 291.500786 100.545645 
L 293.860262 51.007404 
L 295.04 38.478182 
L 296.219738 42.80054 
L 297.399476 61.962745 
L 300.93869 161.074557 
L 302.118428 198.085226 
L 303.298166 231.127272 
L 304.477904 248.314203 
L 305.657642 257.528457 
L 306.83738 262.181912 
L 308.017118 261.101624 
L 309.196856 258.805667 
L 310.376594 258.244416 
L 311.556332 257.056549 
L 312.73607 254.61165 
L 313.915808 254.950312 
L 315.095546 254.266282 
L 316.275284 254.697012 
L 318.63476 254.145846 
L 319.814498 254.775435 
L 320.994236 256.367673 
L 322.173974 257.119509 
L 323.353712 256.284898 
L 324.53345 255.860388 
L 325.713188 257.303557 
L 326.892926 257.568311 
L 328.072664 255.579231 
L 329.252402 255.591277 
L 330.43214 255.974278 
L 332.791616 256.066462 
L 333.971354 256.865739 
L 335.151092 258.016774 
L 336.33083 258.487009 
L 337.510568 259.258317 
L 338.690306 257.766519 
L 339.870044 255.676349 
L 342.22952 257.152488 
L 343.409258 256.932631 
L 344.588996 257.07429 
L 345.768734 256.778458 
L 346.948472 256.620307 
L 348.12821 257.032529 
L 349.307948 256.812771 
L 350.487686 255.009183 
L 351.667424 254.722026 
L 352.847162 255.870485 
L 354.0269 255.325333 
L 355.206638 255.482319 
L 356.386376 255.891269 
L 357.566114 254.626547 
L 358.745852 253.105253 
L 359.92559 252.866314 
L 361.105328 253.413585 
L 362.285066 252.996483 
L 363.464803 253.35924 
L 364.644541 254.021288 
L 365.824279 253.369777 
L 367.004017 253.115785 
L 368.183755 252.337644 
L 369.363493 250.591201 
L 370.543231 249.761712 
L 371.722969 250.220704 
L 372.902707 251.15247 
L 375.262183 252.01436 
L 377.621659 253.684772 
L 378.801397 253.292859 
L 379.981135 252.552271 
L 381.160873 251.063937 
L 382.340611 249.802325 
L 384.700087 249.322244 
L 385.879825 249.307577 
L 387.059563 248.977666 
L 388.239301 248.51005 
L 389.419039 249.143662 
L 390.598777 249.309944 
L 391.778515 249.070375 
L 392.958253 249.336478 
L 394.137991 247.94524 
L 395.317729 246.339146 
L 396.497467 245.95227 
L 397.677205 245.270624 
L 401.216419 243.94984 
L 402.396157 243.79248 
L 403.575895 243.062139 
L 404.755633 243.46877 
L 405.935371 243.698296 
L 407.115109 244.351246 
L 408.294847 244.040194 
L 409.474585 241.809761 
L 410.654323 241.441206 
L 411.834061 241.595432 
L 413.013799 241.016515 
L 415.373275 239.415235 
L 416.553013 239.164961 
L 417.732751 239.325171 
L 418.912489 238.344938 
L 420.092227 237.773056 
L 421.271965 236.227321 
L 422.451703 233.681165 
L 424.811179 231.519347 
L 425.990917 230.643059 
L 427.170655 231.111156 
L 428.350393 230.594316 
L 429.530131 231.550058 
L 430.709869 230.97395 
L 431.889607 227.427486 
L 433.069345 225.033181 
L 434.249083 224.000936 
L 435.428821 222.022925 
L 436.608559 219.351045 
L 438.968035 218.61116 
L 440.147773 216.981384 
L 441.327511 214.914047 
L 442.507249 213.129933 
L 443.686987 210.798581 
L 444.866725 209.88105 
L 446.046463 209.491156 
L 447.226201 206.585058 
L 448.405939 203.24749 
L 449.585677 203.632814 
L 450.765415 203.553327 
L 451.945153 200.922444 
L 454.304629 199.507177 
L 455.484367 197.764471 
L 457.843843 198.208816 
L 459.023581 197.278495 
L 460.203319 196.846523 
L 461.383057 196.940595 
L 462.562795 195.586299 
L 463.742533 193.164456 
L 464.922271 192.951557 
L 466.102009 193.382381 
L 467.281747 193.689164 
L 468.461485 194.309064 
L 469.641223 195.161968 
L 470.820961 196.466425 
L 473.180437 199.491156 
L 474.360175 199.655311 
L 475.539913 200.906689 
L 476.719651 202.656317 
L 477.899389 204.992405 
L 480.258865 211.244445 
L 481.438603 213.601588 
L 482.618341 216.264763 
L 483.798079 219.880854 
L 484.977817 222.298245 
L 486.157555 223.747571 
L 488.517031 229.604755 
L 489.696769 231.124995 
L 490.876507 231.652665 
L 492.056245 234.897484 
L 493.235983 237.55414 
L 494.415721 236.990475 
L 495.595459 238.543076 
L 496.775197 240.479515 
L 497.954934 240.705688 
L 499.134672 243.013533 
L 500.31441 244.816403 
L 501.494148 244.118499 
L 502.673886 245.833841 
L 503.853624 250.128855 
L 505.033362 251.069595 
L 506.2131 251.091759 
L 508.572576 253.049046 
L 509.752314 252.63949 
L 510.932052 253.154824 
L 512.11179 252.990109 
L 513.291528 253.262636 
L 514.471266 254.818084 
L 515.651004 255.180332 
L 516.830742 254.428994 
L 518.01048 255.383871 
L 519.190218 256.635535 
L 520.369956 256.279492 
L 521.549694 257.017234 
L 522.729432 258.154082 
L 523.90917 259.983985 
L 525.088908 260.801225 
L 526.268646 258.833205 
L 527.448384 258.840593 
L 528.628122 260.27856 
L 529.80786 259.139407 
L 530.987598 258.277759 
L 532.167336 259.146476 
L 533.347074 259.662778 
L 534.526812 259.983749 
L 535.70655 258.308949 
L 536.886288 257.993255 
L 538.066026 259.918277 
L 539.245764 259.474133 
L 540.425502 258.534128 
L 541.60524 259.011799 
L 542.784978 258.031736 
L 545.144454 258.179711 
L 546.324192 257.877662 
L 547.50393 257.454313 
L 548.683668 257.635193 
L 549.863406 257.675811 
L 551.043144 258.300537 
L 552.222882 258.430318 
L 553.40262 257.728694 
L 554.582358 256.545673 
L 555.762096 255.761137 
L 556.941834 256.913524 
L 558.121572 257.480105 
L 560.481048 257.047776 
L 561.660786 256.733659 
L 562.840524 258.28162 
L 564.020262 258.485239 
L 565.2 257.016526 
L 565.2 257.016526 
" clip-path="url(#pbde9a4c54d)" style="fill: none; stroke-dasharray: 2,3.3; stroke-dashoffset: 0; stroke: #1f77b4; stroke-width: 2"/>
   </g>
   <g id="line2d_7">
    <defs>
     <path id="m98c407b7ba" d="M 0 4 
C 1.060812 4 2.078319 3.578535 2.828427 2.828427 
C 3.578535 2.078319 4 1.060812 4 0 
C 4 -1.060812 3.578535 -2.078319 2.828427 -2.828427 
C 2.078319 -3.578535 1.060812 -4 0 -4 
C -1.060812 -4 -2.078319 -3.578535 -2.828427 -2.828427 
C -3.578535 -2.078319 -4 -1.060812 -4 0 
C -4 1.060812 -3.578535 2.078319 -2.828427 2.828427 
C -2.078319 3.578535 -1.060812 4 0 4 
z
" style="stroke: #d62728"/>
    </defs>
    <g clip-path="url(#pbde9a4c54d)">
     <use xlink:href="#m98c407b7ba" x="39.036856" y="257.723663" style="fill: #d62728; stroke: #d62728"/>
     <use xlink:href="#m98c407b7ba" x="57.912664" y="258.98915" style="fill: #d62728; stroke: #d62728"/>
     <use xlink:href="#m98c407b7ba" x="76.788472" y="255.888622" style="fill: #d62728; stroke: #d62728"/>
     <use xlink:href="#m98c407b7ba" x="95.664279" y="254.867975" style="fill: #d62728; stroke: #d62728"/>
     <use xlink:href="#m98c407b7ba" x="114.540087" y="260.848225" style="fill: #d62728; stroke: #d62728"/>
     <use xlink:href="#m98c407b7ba" x="133.415895" y="260.90325" style="fill: #d62728; stroke: #d62728"/>
     <use xlink:href="#m98c407b7ba" x="152.291703" y="255.421233" style="fill: #d62728; stroke: #d62728"/>
     <use xlink:href="#m98c407b7ba" x="171.167511" y="258.73348" style="fill: #d62728; stroke: #d62728"/>
     <use xlink:href="#m98c407b7ba" x="190.043319" y="259.048822" style="fill: #d62728; stroke: #d62728"/>
     <use xlink:href="#m98c407b7ba" x="208.919127" y="248.852165" style="fill: #d62728; stroke: #d62728"/>
     <use xlink:href="#m98c407b7ba" x="227.794934" y="236.730118" style="fill: #d62728; stroke: #d62728"/>
     <use xlink:href="#m98c407b7ba" x="246.670742" y="260.74881" style="fill: #d62728; stroke: #d62728"/>
     <use xlink:href="#m98c407b7ba" x="265.54655" y="261.472614" style="fill: #d62728; stroke: #d62728"/>
     <use xlink:href="#m98c407b7ba" x="284.422358" y="227.194558" style="fill: #d62728; stroke: #d62728"/>
     <use xlink:href="#m98c407b7ba" x="303.298166" y="231.127272" style="fill: #d62728; stroke: #d62728"/>
     <use xlink:href="#m98c407b7ba" x="322.173974" y="257.119509" style="fill: #d62728; stroke: #d62728"/>
     <use xlink:href="#m98c407b7ba" x="341.049782" y="256.431276" style="fill: #d62728; stroke: #d62728"/>
     <use xlink:href="#m98c407b7ba" x="359.92559" y="252.866314" style="fill: #d62728; stroke: #d62728"/>
     <use xlink:href="#m98c407b7ba" x="378.801397" y="253.292859" style="fill: #d62728; stroke: #d62728"/>
     <use xlink:href="#m98c407b7ba" x="397.677205" y="245.270624" style="fill: #d62728; stroke: #d62728"/>
     <use xlink:href="#m98c407b7ba" x="416.553013" y="239.164961" style="fill: #d62728; stroke: #d62728"/>
     <use xlink:href="#m98c407b7ba" x="435.428821" y="222.022925" style="fill: #d62728; stroke: #d62728"/>
     <use xlink:href="#m98c407b7ba" x="454.304629" y="199.507177" style="fill: #d62728; stroke: #d62728"/>
     <use xlink:href="#m98c407b7ba" x="473.180437" y="199.491156" style="fill: #d62728; stroke: #d62728"/>
     <use xlink:href="#m98c407b7ba" x="492.056245" y="234.897484" style="fill: #d62728; stroke: #d62728"/>
     <use xlink:href="#m98c407b7ba" x="510.932052" y="253.154824" style="fill: #d62728; stroke: #d62728"/>
     <use xlink:href="#m98c407b7ba" x="529.80786" y="259.139407" style="fill: #d62728; stroke: #d62728"/>
     <use xlink:href="#m98c407b7ba" x="548.683668" y="257.635193" style="fill: #d62728; stroke: #d62728"/>
    </g>
   </g>
   <g id="patch_3">
    <path d="M 24.88 282.04 
L 24.88 26.88 
" style="fill: none; stroke: #000000; stroke-width: 0.8; stroke-linejoin: miter; stroke-linecap: square"/>
   </g>
   <g id="patch_4">
    <path d="M 565.2 282.04 
L 565.2 26.88 
" style="fill: none; stroke: #000000; stroke-width: 0.8; stroke-linejoin: miter; stroke-linecap: square"/>
   </g>
   <g id="patch_5">
    <path d="M 24.88 282.04 
L 565.2 282.04 
" style="fill: none; stroke: #000000; stroke-width: 0.8; stroke-linejoin: miter; stroke-linecap: square"/>
   </g>
   <g id="patch_6">
    <path d="M 24.88 26.88 
L 565.2 26.88 
" style="fill: none; stroke: #000000; stroke-width: 0.8; stroke-linejoin: miter; stroke-linecap: square"/>
   </g>
   <g id="text_8">
    <!-- ECG Signal -->
    <g transform="translate(262.071875 20.88) scale(0.12 -0.12)">
     <defs>
      <path id="DejaVuSans-45" d="M 628 4666 
L 3578 4666 
L 3578 4134 
L 1259 4134 
L 1259 2753 
L 3481 2753 
L 3481 2222 
L 1259 2222 
L 1259 531 
L 3634 531 
L 3634 0 
L 628 0 
L 628 4666 
z
" transform="scale(0.015625)"/>
      <path id="DejaVuSans-43" d="M 4122 4306 
L 4122 3641 
Q 3803 3938 3442 4084 
Q 3081 4231 2675 4231 
Q 1875 4231 1450 3742 
Q 1025 3253 1025 2328 
Q 1025 1406 1450 917 
Q 1875 428 2675 428 
Q 3081 428 3442 575 
Q 3803 722 4122 1019 
L 4122 359 
Q 3791 134 3420 21 
Q 3050 -91 2638 -91 
Q 1578 -91 968 557 
Q 359 1206 359 2328 
Q 359 3453 968 4101 
Q 1578 4750 2638 4750 
Q 3056 4750 3426 4639 
Q 3797 4528 4122 4306 
z
" transform="scale(0.015625)"/>
      <path id="DejaVuSans-47" d="M 3809 666 
L 3809 1919 
L 2778 1919 
L 2778 2438 
L 4434 2438 
L 4434 434 
Q 4069 175 3628 42 
Q 3188 -91 2688 -91 
Q 1594 -91 976 548 
Q 359 1188 359 2328 
Q 359 3472 976 4111 
Q 1594 4750 2688 4750 
Q 3144 4750 3555 4637 
Q 3966 4525 4313 4306 
L 4313 3634 
Q 3963 3931 3569 4081 
Q 3175 4231 2741 4231 
Q 1884 4231 1454 3753 
Q 1025 3275 1025 2328 
Q 1025 1384 1454 906 
Q 1884 428 2741 428 
Q 3075 428 3337 486 
Q 3600 544 3809 666 
z
" transform="scale(0.015625)"/>
     </defs>
     <use xlink:href="#DejaVuSans-45"/>
     <use xlink:href="#DejaVuSans-43" transform="translate(63.183594 0)"/>
     <use xlink:href="#DejaVuSans-47" transform="translate(133.007812 0)"/>
     <use xlink:href="#DejaVuSans-20" transform="translate(210.498047 0)"/>
     <use xlink:href="#DejaVuSans-53" transform="translate(242.285156 0)"/>
     <use xlink:href="#DejaVuSans-69" transform="translate(305.761719 0)"/>
     <use xlink:href="#DejaVuSans-67" transform="translate(333.544922 0)"/>
     <use xlink:href="#DejaVuSans-6e" transform="translate(397.021484 0)"/>
     <use xlink:href="#DejaVuSans-61" transform="translate(460.400391 0)"/>
     <use xlink:href="#DejaVuSans-6c" transform="translate(521.679688 0)"/>
    </g>
   </g>
   <g id="legend_1">
    <g id="patch_7">
     <path d="M 435.825 64.23625 
L 558.2 64.23625 
Q 560.2 64.23625 560.2 62.23625 
L 560.2 33.88 
Q 560.2 31.88 558.2 31.88 
L 435.825 31.88 
Q 433.825 31.88 433.825 33.88 
L 433.825 62.23625 
Q 433.825 64.23625 435.825 64.23625 
z
" style="fill: #ffffff; opacity: 0.8; stroke: #cccccc; stroke-linejoin: miter"/>
    </g>
    <g id="line2d_8">
     <path d="M 437.825 39.978437 
L 447.825 39.978437 
L 457.825 39.978437 
" style="fill: none; stroke-dasharray: 2,3.3; stroke-dashoffset: 0; stroke: #1f77b4; stroke-width: 2"/>
    </g>
    <g id="text_9">
     <!-- Continuous Signal -->
     <g transform="translate(465.825 43.478437) scale(0.1 -0.1)">
      <use xlink:href="#DejaVuSans-43"/>
      <use xlink:href="#DejaVuSans-6f" transform="translate(69.824219 0)"/>
      <use xlink:href="#DejaVuSans-6e" transform="translate(131.005859 0)"/>
      <use xlink:href="#DejaVuSans-74" transform="translate(194.384766 0)"/>
      <use xlink:href="#DejaVuSans-69" transform="translate(233.59375 0)"/>
      <use xlink:href="#DejaVuSans-6e" transform="translate(261.376953 0)"/>
      <use xlink:href="#DejaVuSans-75" transform="translate(324.755859 0)"/>
      <use xlink:href="#DejaVuSans-6f" transform="translate(388.134766 0)"/>
      <use xlink:href="#DejaVuSans-75" transform="translate(449.316406 0)"/>
      <use xlink:href="#DejaVuSans-73" transform="translate(512.695312 0)"/>
      <use xlink:href="#DejaVuSans-20" transform="translate(564.794922 0)"/>
      <use xlink:href="#DejaVuSans-53" transform="translate(596.582031 0)"/>
      <use xlink:href="#DejaVuSans-69" transform="translate(660.058594 0)"/>
      <use xlink:href="#DejaVuSans-67" transform="translate(687.841797 0)"/>
      <use xlink:href="#DejaVuSans-6e" transform="translate(751.318359 0)"/>
      <use xlink:href="#DejaVuSans-61" transform="translate(814.697266 0)"/>
      <use xlink:href="#DejaVuSans-6c" transform="translate(875.976562 0)"/>
     </g>
    </g>
    <g id="line2d_9">
     <g>
      <use xlink:href="#m98c407b7ba" x="447.825" y="54.656563" style="fill: #d62728; stroke: #d62728"/>
     </g>
    </g>
    <g id="text_10">
     <!-- Sampled Signal -->
     <g transform="translate(465.825 58.156563) scale(0.1 -0.1)">
      <use xlink:href="#DejaVuSans-53"/>
      <use xlink:href="#DejaVuSans-61" transform="translate(63.476562 0)"/>
      <use xlink:href="#DejaVuSans-6d" transform="translate(124.755859 0)"/>
      <use xlink:href="#DejaVuSans-70" transform="translate(222.167969 0)"/>
      <use xlink:href="#DejaVuSans-6c" transform="translate(285.644531 0)"/>
      <use xlink:href="#DejaVuSans-65" transform="translate(313.427734 0)"/>
      <use xlink:href="#DejaVuSans-64" transform="translate(374.951172 0)"/>
      <use xlink:href="#DejaVuSans-20" transform="translate(438.427734 0)"/>
      <use xlink:href="#DejaVuSans-53" transform="translate(470.214844 0)"/>
      <use xlink:href="#DejaVuSans-69" transform="translate(533.691406 0)"/>
      <use xlink:href="#DejaVuSans-67" transform="translate(561.474609 0)"/>
      <use xlink:href="#DejaVuSans-6e" transform="translate(624.951172 0)"/>
      <use xlink:href="#DejaVuSans-61" transform="translate(688.330078 0)"/>
      <use xlink:href="#DejaVuSans-6c" transform="translate(749.609375 0)"/>
     </g>
    </g>
   </g>
  </g>
 </g>
 <defs>
  <clipPath id="pbde9a4c54d">
   <rect x="24.88" y="26.88" width="540.32" height="255.16"/>
  </clipPath>
 </defs>
</svg>
