<?xml version="1.0" encoding="utf-8" standalone="no"?>
<!DOCTYPE svg PUBLIC "-//W3C//DTD SVG 1.1//EN"
  "http://www.w3.org/Graphics/SVG/1.1/DTD/svg11.dtd">
<svg xmlns:xlink="http://www.w3.org/1999/xlink" width="648pt" height="360pt" viewBox="0 0 648 360" xmlns="http://www.w3.org/2000/svg" version="1.1">
 <metadata>
  <rdf:RDF xmlns:dc="http://purl.org/dc/elements/1.1/" xmlns:cc="http://creativecommons.org/ns#" xmlns:rdf="http://www.w3.org/1999/02/22-rdf-syntax-ns#">
   <cc:Work>
    <dc:type rdf:resource="http://purl.org/dc/dcmitype/StillImage"/>
    <dc:date>2025-11-02T22:02:49.708822</dc:date>
    <dc:format>image/svg+xml</dc:format>
    <dc:creator>
     <cc:Agent>
      <dc:title>Matplotlib v3.10.5, https://matplotlib.org/</dc:title>
     </cc:Agent>
    </dc:creator>
   </cc:Work>
  </rdf:RDF>
 </metadata>
 <defs>
  <style type="text/css">*{stroke-linejoin: round; stroke-linecap: butt}</style>
 </defs>
 <g id="figure_1">
  <g id="patch_1">
   <path d="M 0 360 
L 648 360 
L 648 0 
L 0 0 
z
" style="fill: #ffffff"/>
  </g>
  <g id="axes_1">
   <g id="patch_2">
    <path d="M 38.27 140.56 
L 627.705 140.56 
L 627.705 28.032 
L 38.27 28.032 
z
" style="fill: #ffffff"/>
   </g>
   <g id="matplotlib.axis_1">
    <g id="xtick_1">
     <g id="line2d_1">
      <path d="M 38.27 140.56 
L 38.27 28.032 
" clip-path="url(#pcea5ab87f0)" style="fill: none; stroke: #b0b0b0; stroke-width: 0.8; stroke-linecap: square"/>
     </g>
     <g id="line2d_2">
      <defs>
       <path id="md923dcad3a" d="M 0 0 
L 0 3.5 
" style="stroke: #000000; stroke-width: 0.8"/>
      </defs>
      <g>
       <use xlink:href="#md923dcad3a" x="38.27" y="140.56" style="stroke: #000000; stroke-width: 0.8"/>
      </g>
     </g>
     <g id="text_1">
      <!-- −600 -->
      <g transform="translate(24.536406 155.158438) scale(0.1 -0.1)">
       <defs>
        <path id="DejaVuSans-2212" d="M 678 2272 
L 4684 2272 
L 4684 1741 
L 678 1741 
L 678 2272 
z
" transform="scale(0.015625)"/>
        <path id="DejaVuSans-36" d="M 2113 2584 
Q 1688 2584 1439 2293 
Q 1191 2003 1191 1497 
Q 1191 994 1439 701 
Q 1688 409 2113 409 
Q 2538 409 2786 701 
Q 3034 994 3034 1497 
Q 3034 2003 2786 2293 
Q 2538 2584 2113 2584 
z
M 3366 4563 
L 3366 3988 
Q 3128 4100 2886 4159 
Q 2644 4219 2406 4219 
Q 1781 4219 1451 3797 
Q 1122 3375 1075 2522 
Q 1259 2794 1537 2939 
Q 1816 3084 2150 3084 
Q 2853 3084 3261 2657 
Q 3669 2231 3669 1497 
Q 3669 778 3244 343 
Q 2819 -91 2113 -91 
Q 1303 -91 875 529 
Q 447 1150 447 2328 
Q 447 3434 972 4092 
Q 1497 4750 2381 4750 
Q 2619 4750 2861 4703 
Q 3103 4656 3366 4563 
z
" transform="scale(0.015625)"/>
        <path id="DejaVuSans-30" d="M 2034 4250 
Q 1547 4250 1301 3770 
Q 1056 3291 1056 2328 
Q 1056 1369 1301 889 
Q 1547 409 2034 409 
Q 2525 409 2770 889 
Q 3016 1369 3016 2328 
Q 3016 3291 2770 3770 
Q 2525 4250 2034 4250 
z
M 2034 4750 
Q 2819 4750 3233 4129 
Q 3647 3509 3647 2328 
Q 3647 1150 3233 529 
Q 2819 -91 2034 -91 
Q 1250 -91 836 529 
Q 422 1150 422 2328 
Q 422 3509 836 4129 
Q 1250 4750 2034 4750 
z
" transform="scale(0.015625)"/>
       </defs>
       <use xlink:href="#DejaVuSans-2212"/>
       <use xlink:href="#DejaVuSans-36" transform="translate(83.789062 0)"/>
       <use xlink:href="#DejaVuSans-30" transform="translate(147.412109 0)"/>
       <use xlink:href="#DejaVuSans-30" transform="translate(211.035156 0)"/>
      </g>
     </g>
    </g>
    <g id="xtick_2">
     <g id="line2d_3">
      <path d="M 87.389583 140.56 
L 87.389583 28.032 
" clip-path="url(#pcea5ab87f0)" style="fill: none; stroke: #b0b0b0; stroke-width: 0.8; stroke-linecap: square"/>
     </g>
     <g id="line2d_4">
      <g>
       <use xlink:href="#md923dcad3a" x="87.389583" y="140.56" style="stroke: #000000; stroke-width: 0.8"/>
      </g>
     </g>
     <g id="text_2">
      <!-- −500 -->
      <g transform="translate(73.65599 155.158438) scale(0.1 -0.1)">
       <defs>
        <path id="DejaVuSans-35" d="M 691 4666 
L 3169 4666 
L 3169 4134 
L 1269 4134 
L 1269 2991 
Q 1406 3038 1543 3061 
Q 1681 3084 1819 3084 
Q 2600 3084 3056 2656 
Q 3513 2228 3513 1497 
Q 3513 744 3044 326 
Q 2575 -91 1722 -91 
Q 1428 -91 1123 -41 
Q 819 9 494 109 
L 494 744 
Q 775 591 1075 516 
Q 1375 441 1709 441 
Q 2250 441 2565 725 
Q 2881 1009 2881 1497 
Q 2881 1984 2565 2268 
Q 2250 2553 1709 2553 
Q 1456 2553 1204 2497 
Q 953 2441 691 2322 
L 691 4666 
z
" transform="scale(0.015625)"/>
       </defs>
       <use xlink:href="#DejaVuSans-2212"/>
       <use xlink:href="#DejaVuSans-35" transform="translate(83.789062 0)"/>
       <use xlink:href="#DejaVuSans-30" transform="translate(147.412109 0)"/>
       <use xlink:href="#DejaVuSans-30" transform="translate(211.035156 0)"/>
      </g>
     </g>
    </g>
    <g id="xtick_3">
     <g id="line2d_5">
      <path d="M 136.509167 140.56 
L 136.509167 28.032 
" clip-path="url(#pcea5ab87f0)" style="fill: none; stroke: #b0b0b0; stroke-width: 0.8; stroke-linecap: square"/>
     </g>
     <g id="line2d_6">
      <g>
       <use xlink:href="#md923dcad3a" x="136.509167" y="140.56" style="stroke: #000000; stroke-width: 0.8"/>
      </g>
     </g>
     <g id="text_3">
      <!-- −400 -->
      <g transform="translate(122.775573 155.158438) scale(0.1 -0.1)">
       <defs>
        <path id="DejaVuSans-34" d="M 2419 4116 
L 825 1625 
L 2419 1625 
L 2419 4116 
z
M 2253 4666 
L 3047 4666 
L 3047 1625 
L 3713 1625 
L 3713 1100 
L 3047 1100 
L 3047 0 
L 2419 0 
L 2419 1100 
L 313 1100 
L 313 1709 
L 2253 4666 
z
" transform="scale(0.015625)"/>
       </defs>
       <use xlink:href="#DejaVuSans-2212"/>
       <use xlink:href="#DejaVuSans-34" transform="translate(83.789062 0)"/>
       <use xlink:href="#DejaVuSans-30" transform="translate(147.412109 0)"/>
       <use xlink:href="#DejaVuSans-30" transform="translate(211.035156 0)"/>
      </g>
     </g>
    </g>
    <g id="xtick_4">
     <g id="line2d_7">
      <path d="M 185.62875 140.56 
L 185.62875 28.032 
" clip-path="url(#pcea5ab87f0)" style="fill: none; stroke: #b0b0b0; stroke-width: 0.8; stroke-linecap: square"/>
     </g>
     <g id="line2d_8">
      <g>
       <use xlink:href="#md923dcad3a" x="185.62875" y="140.56" style="stroke: #000000; stroke-width: 0.8"/>
      </g>
     </g>
     <g id="text_4">
      <!-- −300 -->
      <g transform="translate(171.895156 155.158438) scale(0.1 -0.1)">
       <defs>
        <path id="DejaVuSans-33" d="M 2597 2516 
Q 3050 2419 3304 2112 
Q 3559 1806 3559 1356 
Q 3559 666 3084 287 
Q 2609 -91 1734 -91 
Q 1441 -91 1130 -33 
Q 819 25 488 141 
L 488 750 
Q 750 597 1062 519 
Q 1375 441 1716 441 
Q 2309 441 2620 675 
Q 2931 909 2931 1356 
Q 2931 1769 2642 2001 
Q 2353 2234 1838 2234 
L 1294 2234 
L 1294 2753 
L 1863 2753 
Q 2328 2753 2575 2939 
Q 2822 3125 2822 3475 
Q 2822 3834 2567 4026 
Q 2313 4219 1838 4219 
Q 1578 4219 1281 4162 
Q 984 4106 628 3988 
L 628 4550 
Q 988 4650 1302 4700 
Q 1616 4750 1894 4750 
Q 2613 4750 3031 4423 
Q 3450 4097 3450 3541 
Q 3450 3153 3228 2886 
Q 3006 2619 2597 2516 
z
" transform="scale(0.015625)"/>
       </defs>
       <use xlink:href="#DejaVuSans-2212"/>
       <use xlink:href="#DejaVuSans-33" transform="translate(83.789062 0)"/>
       <use xlink:href="#DejaVuSans-30" transform="translate(147.412109 0)"/>
       <use xlink:href="#DejaVuSans-30" transform="translate(211.035156 0)"/>
      </g>
     </g>
    </g>
    <g id="xtick_5">
     <g id="line2d_9">
      <path d="M 234.748333 140.56 
L 234.748333 28.032 
" clip-path="url(#pcea5ab87f0)" style="fill: none; stroke: #b0b0b0; stroke-width: 0.8; stroke-linecap: square"/>
     </g>
     <g id="line2d_10">
      <g>
       <use xlink:href="#md923dcad3a" x="234.748333" y="140.56" style="stroke: #000000; stroke-width: 0.8"/>
      </g>
     </g>
     <g id="text_5">
      <!-- −200 -->
      <g transform="translate(221.01474 155.158438) scale(0.1 -0.1)">
       <defs>
        <path id="DejaVuSans-32" d="M 1228 531 
L 3431 531 
L 3431 0 
L 469 0 
L 469 531 
Q 828 903 1448 1529 
Q 2069 2156 2228 2338 
Q 2531 2678 2651 2914 
Q 2772 3150 2772 3378 
Q 2772 3750 2511 3984 
Q 2250 4219 1831 4219 
Q 1534 4219 1204 4116 
Q 875 4013 500 3803 
L 500 4441 
Q 881 4594 1212 4672 
Q 1544 4750 1819 4750 
Q 2544 4750 2975 4387 
Q 3406 4025 3406 3419 
Q 3406 3131 3298 2873 
Q 3191 2616 2906 2266 
Q 2828 2175 2409 1742 
Q 1991 1309 1228 531 
z
" transform="scale(0.015625)"/>
       </defs>
       <use xlink:href="#DejaVuSans-2212"/>
       <use xlink:href="#DejaVuSans-32" transform="translate(83.789062 0)"/>
       <use xlink:href="#DejaVuSans-30" transform="translate(147.412109 0)"/>
       <use xlink:href="#DejaVuSans-30" transform="translate(211.035156 0)"/>
      </g>
     </g>
    </g>
    <g id="xtick_6">
     <g id="line2d_11">
      <path d="M 283.867917 140.56 
L 283.867917 28.032 
" clip-path="url(#pcea5ab87f0)" style="fill: none; stroke: #b0b0b0; stroke-width: 0.8; stroke-linecap: square"/>
     </g>
     <g id="line2d_12">
      <g>
       <use xlink:href="#md923dcad3a" x="283.867917" y="140.56" style="stroke: #000000; stroke-width: 0.8"/>
      </g>
     </g>
     <g id="text_6">
      <!-- −100 -->
      <g transform="translate(270.134323 155.158438) scale(0.1 -0.1)">
       <defs>
        <path id="DejaVuSans-31" d="M 794 531 
L 1825 531 
L 1825 4091 
L 703 3866 
L 703 4441 
L 1819 4666 
L 2450 4666 
L 2450 531 
L 3481 531 
L 3481 0 
L 794 0 
L 794 531 
z
" transform="scale(0.015625)"/>
       </defs>
       <use xlink:href="#DejaVuSans-2212"/>
       <use xlink:href="#DejaVuSans-31" transform="translate(83.789062 0)"/>
       <use xlink:href="#DejaVuSans-30" transform="translate(147.412109 0)"/>
       <use xlink:href="#DejaVuSans-30" transform="translate(211.035156 0)"/>
      </g>
     </g>
    </g>
    <g id="xtick_7">
     <g id="line2d_13">
      <path d="M 332.9875 140.56 
L 332.9875 28.032 
" clip-path="url(#pcea5ab87f0)" style="fill: none; stroke: #b0b0b0; stroke-width: 0.8; stroke-linecap: square"/>
     </g>
     <g id="line2d_14">
      <g>
       <use xlink:href="#md923dcad3a" x="332.9875" y="140.56" style="stroke: #000000; stroke-width: 0.8"/>
      </g>
     </g>
     <g id="text_7">
      <!-- 0 -->
      <g transform="translate(329.80625 155.158438) scale(0.1 -0.1)">
       <use xlink:href="#DejaVuSans-30"/>
      </g>
     </g>
    </g>
    <g id="xtick_8">
     <g id="line2d_15">
      <path d="M 382.107083 140.56 
L 382.107083 28.032 
" clip-path="url(#pcea5ab87f0)" style="fill: none; stroke: #b0b0b0; stroke-width: 0.8; stroke-linecap: square"/>
     </g>
     <g id="line2d_16">
      <g>
       <use xlink:href="#md923dcad3a" x="382.107083" y="140.56" style="stroke: #000000; stroke-width: 0.8"/>
      </g>
     </g>
     <g id="text_8">
      <!-- 100 -->
      <g transform="translate(372.563333 155.158438) scale(0.1 -0.1)">
       <use xlink:href="#DejaVuSans-31"/>
       <use xlink:href="#DejaVuSans-30" transform="translate(63.623047 0)"/>
       <use xlink:href="#DejaVuSans-30" transform="translate(127.246094 0)"/>
      </g>
     </g>
    </g>
    <g id="xtick_9">
     <g id="line2d_17">
      <path d="M 431.226667 140.56 
L 431.226667 28.032 
" clip-path="url(#pcea5ab87f0)" style="fill: none; stroke: #b0b0b0; stroke-width: 0.8; stroke-linecap: square"/>
     </g>
     <g id="line2d_18">
      <g>
       <use xlink:href="#md923dcad3a" x="431.226667" y="140.56" style="stroke: #000000; stroke-width: 0.8"/>
      </g>
     </g>
     <g id="text_9">
      <!-- 200 -->
      <g transform="translate(421.682917 155.158438) scale(0.1 -0.1)">
       <use xlink:href="#DejaVuSans-32"/>
       <use xlink:href="#DejaVuSans-30" transform="translate(63.623047 0)"/>
       <use xlink:href="#DejaVuSans-30" transform="translate(127.246094 0)"/>
      </g>
     </g>
    </g>
    <g id="xtick_10">
     <g id="line2d_19">
      <path d="M 480.34625 140.56 
L 480.34625 28.032 
" clip-path="url(#pcea5ab87f0)" style="fill: none; stroke: #b0b0b0; stroke-width: 0.8; stroke-linecap: square"/>
     </g>
     <g id="line2d_20">
      <g>
       <use xlink:href="#md923dcad3a" x="480.34625" y="140.56" style="stroke: #000000; stroke-width: 0.8"/>
      </g>
     </g>
     <g id="text_10">
      <!-- 300 -->
      <g transform="translate(470.8025 155.158438) scale(0.1 -0.1)">
       <use xlink:href="#DejaVuSans-33"/>
       <use xlink:href="#DejaVuSans-30" transform="translate(63.623047 0)"/>
       <use xlink:href="#DejaVuSans-30" transform="translate(127.246094 0)"/>
      </g>
     </g>
    </g>
    <g id="xtick_11">
     <g id="line2d_21">
      <path d="M 529.465833 140.56 
L 529.465833 28.032 
" clip-path="url(#pcea5ab87f0)" style="fill: none; stroke: #b0b0b0; stroke-width: 0.8; stroke-linecap: square"/>
     </g>
     <g id="line2d_22">
      <g>
       <use xlink:href="#md923dcad3a" x="529.465833" y="140.56" style="stroke: #000000; stroke-width: 0.8"/>
      </g>
     </g>
     <g id="text_11">
      <!-- 400 -->
      <g transform="translate(519.922083 155.158438) scale(0.1 -0.1)">
       <use xlink:href="#DejaVuSans-34"/>
       <use xlink:href="#DejaVuSans-30" transform="translate(63.623047 0)"/>
       <use xlink:href="#DejaVuSans-30" transform="translate(127.246094 0)"/>
      </g>
     </g>
    </g>
    <g id="xtick_12">
     <g id="line2d_23">
      <path d="M 578.585417 140.56 
L 578.585417 28.032 
" clip-path="url(#pcea5ab87f0)" style="fill: none; stroke: #b0b0b0; stroke-width: 0.8; stroke-linecap: square"/>
     </g>
     <g id="line2d_24">
      <g>
       <use xlink:href="#md923dcad3a" x="578.585417" y="140.56" style="stroke: #000000; stroke-width: 0.8"/>
      </g>
     </g>
     <g id="text_12">
      <!-- 500 -->
      <g transform="translate(569.041667 155.158438) scale(0.1 -0.1)">
       <use xlink:href="#DejaVuSans-35"/>
       <use xlink:href="#DejaVuSans-30" transform="translate(63.623047 0)"/>
       <use xlink:href="#DejaVuSans-30" transform="translate(127.246094 0)"/>
      </g>
     </g>
    </g>
    <g id="xtick_13">
     <g id="line2d_25">
      <path d="M 627.705 140.56 
L 627.705 28.032 
" clip-path="url(#pcea5ab87f0)" style="fill: none; stroke: #b0b0b0; stroke-width: 0.8; stroke-linecap: square"/>
     </g>
     <g id="line2d_26">
      <g>
       <use xlink:href="#md923dcad3a" x="627.705" y="140.56" style="stroke: #000000; stroke-width: 0.8"/>
      </g>
     </g>
     <g id="text_13">
      <!-- 600 -->
      <g transform="translate(618.16125 155.158438) scale(0.1 -0.1)">
       <use xlink:href="#DejaVuSans-36"/>
       <use xlink:href="#DejaVuSans-30" transform="translate(63.623047 0)"/>
       <use xlink:href="#DejaVuSans-30" transform="translate(127.246094 0)"/>
      </g>
     </g>
    </g>
    <g id="text_14">
     <!-- Frequency $f$ (Hz) -->
     <g transform="translate(291.4375 168.838125) scale(0.1 -0.1)">
      <defs>
       <path id="DejaVuSans-46" d="M 628 4666 
L 3309 4666 
L 3309 4134 
L 1259 4134 
L 1259 2759 
L 3109 2759 
L 3109 2228 
L 1259 2228 
L 1259 0 
L 628 0 
L 628 4666 
z
" transform="scale(0.015625)"/>
       <path id="DejaVuSans-72" d="M 2631 2963 
Q 2534 3019 2420 3045 
Q 2306 3072 2169 3072 
Q 1681 3072 1420 2755 
Q 1159 2438 1159 1844 
L 1159 0 
L 581 0 
L 581 3500 
L 1159 3500 
L 1159 2956 
Q 1341 3275 1631 3429 
Q 1922 3584 2338 3584 
Q 2397 3584 2469 3576 
Q 2541 3569 2628 3553 
L 2631 2963 
z
" transform="scale(0.015625)"/>
       <path id="DejaVuSans-65" d="M 3597 1894 
L 3597 1613 
L 953 1613 
Q 991 1019 1311 708 
Q 1631 397 2203 397 
Q 2534 397 2845 478 
Q 3156 559 3463 722 
L 3463 178 
Q 3153 47 2828 -22 
Q 2503 -91 2169 -91 
Q 1331 -91 842 396 
Q 353 884 353 1716 
Q 353 2575 817 3079 
Q 1281 3584 2069 3584 
Q 2775 3584 3186 3129 
Q 3597 2675 3597 1894 
z
M 3022 2063 
Q 3016 2534 2758 2815 
Q 2500 3097 2075 3097 
Q 1594 3097 1305 2825 
Q 1016 2553 972 2059 
L 3022 2063 
z
" transform="scale(0.015625)"/>
       <path id="DejaVuSans-71" d="M 947 1747 
Q 947 1113 1208 752 
Q 1469 391 1925 391 
Q 2381 391 2643 752 
Q 2906 1113 2906 1747 
Q 2906 2381 2643 2742 
Q 2381 3103 1925 3103 
Q 1469 3103 1208 2742 
Q 947 2381 947 1747 
z
M 2906 525 
Q 2725 213 2448 61 
Q 2172 -91 1784 -91 
Q 1150 -91 751 415 
Q 353 922 353 1747 
Q 353 2572 751 3078 
Q 1150 3584 1784 3584 
Q 2172 3584 2448 3432 
Q 2725 3281 2906 2969 
L 2906 3500 
L 3481 3500 
L 3481 -1331 
L 2906 -1331 
L 2906 525 
z
" transform="scale(0.015625)"/>
       <path id="DejaVuSans-75" d="M 544 1381 
L 544 3500 
L 1119 3500 
L 1119 1403 
Q 1119 906 1312 657 
Q 1506 409 1894 409 
Q 2359 409 2629 706 
Q 2900 1003 2900 1516 
L 2900 3500 
L 3475 3500 
L 3475 0 
L 2900 0 
L 2900 538 
Q 2691 219 2414 64 
Q 2138 -91 1772 -91 
Q 1169 -91 856 284 
Q 544 659 544 1381 
z
M 1991 3584 
L 1991 3584 
z
" transform="scale(0.015625)"/>
       <path id="DejaVuSans-6e" d="M 3513 2113 
L 3513 0 
L 2938 0 
L 2938 2094 
Q 2938 2591 2744 2837 
Q 2550 3084 2163 3084 
Q 1697 3084 1428 2787 
Q 1159 2491 1159 1978 
L 1159 0 
L 581 0 
L 581 3500 
L 1159 3500 
L 1159 2956 
Q 1366 3272 1645 3428 
Q 1925 3584 2291 3584 
Q 2894 3584 3203 3211 
Q 3513 2838 3513 2113 
z
" transform="scale(0.015625)"/>
       <path id="DejaVuSans-63" d="M 3122 3366 
L 3122 2828 
Q 2878 2963 2633 3030 
Q 2388 3097 2138 3097 
Q 1578 3097 1268 2742 
Q 959 2388 959 1747 
Q 959 1106 1268 751 
Q 1578 397 2138 397 
Q 2388 397 2633 464 
Q 2878 531 3122 666 
L 3122 134 
Q 2881 22 2623 -34 
Q 2366 -91 2075 -91 
Q 1284 -91 818 406 
Q 353 903 353 1747 
Q 353 2603 823 3093 
Q 1294 3584 2113 3584 
Q 2378 3584 2631 3529 
Q 2884 3475 3122 3366 
z
" transform="scale(0.015625)"/>
       <path id="DejaVuSans-79" d="M 2059 -325 
Q 1816 -950 1584 -1140 
Q 1353 -1331 966 -1331 
L 506 -1331 
L 506 -850 
L 844 -850 
Q 1081 -850 1212 -737 
Q 1344 -625 1503 -206 
L 1606 56 
L 191 3500 
L 800 3500 
L 1894 763 
L 2988 3500 
L 3597 3500 
L 2059 -325 
z
" transform="scale(0.015625)"/>
       <path id="DejaVuSans-20" transform="scale(0.015625)"/>
       <path id="DejaVuSans-Oblique-66" d="M 3059 4863 
L 2969 4384 
L 2419 4384 
Q 2106 4384 1964 4261 
Q 1822 4138 1753 3809 
L 1691 3500 
L 2638 3500 
L 2553 3053 
L 1606 3053 
L 1013 0 
L 434 0 
L 1031 3053 
L 481 3053 
L 563 3500 
L 1113 3500 
L 1159 3744 
Q 1278 4363 1576 4613 
Q 1875 4863 2516 4863 
L 3059 4863 
z
" transform="scale(0.015625)"/>
       <path id="DejaVuSans-28" d="M 1984 4856 
Q 1566 4138 1362 3434 
Q 1159 2731 1159 2009 
Q 1159 1288 1364 580 
Q 1569 -128 1984 -844 
L 1484 -844 
Q 1016 -109 783 600 
Q 550 1309 550 2009 
Q 550 2706 781 3412 
Q 1013 4119 1484 4856 
L 1984 4856 
z
" transform="scale(0.015625)"/>
       <path id="DejaVuSans-48" d="M 628 4666 
L 1259 4666 
L 1259 2753 
L 3553 2753 
L 3553 4666 
L 4184 4666 
L 4184 0 
L 3553 0 
L 3553 2222 
L 1259 2222 
L 1259 0 
L 628 0 
L 628 4666 
z
" transform="scale(0.015625)"/>
       <path id="DejaVuSans-7a" d="M 353 3500 
L 3084 3500 
L 3084 2975 
L 922 459 
L 3084 459 
L 3084 0 
L 275 0 
L 275 525 
L 2438 3041 
L 353 3041 
L 353 3500 
z
" transform="scale(0.015625)"/>
       <path id="DejaVuSans-29" d="M 513 4856 
L 1013 4856 
Q 1481 4119 1714 3412 
Q 1947 2706 1947 2009 
Q 1947 1309 1714 600 
Q 1481 -109 1013 -844 
L 513 -844 
Q 928 -128 1133 580 
Q 1338 1288 1338 2009 
Q 1338 2731 1133 3434 
Q 928 4138 513 4856 
z
" transform="scale(0.015625)"/>
      </defs>
      <use xlink:href="#DejaVuSans-46" transform="translate(0 0.015625)"/>
      <use xlink:href="#DejaVuSans-72" transform="translate(57.519531 0.015625)"/>
      <use xlink:href="#DejaVuSans-65" transform="translate(98.632812 0.015625)"/>
      <use xlink:href="#DejaVuSans-71" transform="translate(160.15625 0.015625)"/>
      <use xlink:href="#DejaVuSans-75" transform="translate(223.632812 0.015625)"/>
      <use xlink:href="#DejaVuSans-65" transform="translate(287.011719 0.015625)"/>
      <use xlink:href="#DejaVuSans-6e" transform="translate(348.535156 0.015625)"/>
      <use xlink:href="#DejaVuSans-63" transform="translate(411.914062 0.015625)"/>
      <use xlink:href="#DejaVuSans-79" transform="translate(466.894531 0.015625)"/>
      <use xlink:href="#DejaVuSans-20" transform="translate(526.074219 0.015625)"/>
      <use xlink:href="#DejaVuSans-Oblique-66" transform="translate(557.861328 0.015625)"/>
      <use xlink:href="#DejaVuSans-20" transform="translate(593.066406 0.015625)"/>
      <use xlink:href="#DejaVuSans-28" transform="translate(624.853516 0.015625)"/>
      <use xlink:href="#DejaVuSans-48" transform="translate(663.867188 0.015625)"/>
      <use xlink:href="#DejaVuSans-7a" transform="translate(739.0625 0.015625)"/>
      <use xlink:href="#DejaVuSans-29" transform="translate(791.552734 0.015625)"/>
     </g>
    </g>
   </g>
   <g id="matplotlib.axis_2">
    <g id="ytick_1">
     <g id="line2d_27">
      <path d="M 38.27 135.445091 
L 627.705 135.445091 
" clip-path="url(#pcea5ab87f0)" style="fill: none; stroke: #b0b0b0; stroke-width: 0.8; stroke-linecap: square"/>
     </g>
     <g id="line2d_28">
      <defs>
       <path id="mcc0bdb1e89" d="M 0 0 
L -3.5 0 
" style="stroke: #000000; stroke-width: 0.8"/>
      </defs>
      <g>
       <use xlink:href="#mcc0bdb1e89" x="38.27" y="135.445091" style="stroke: #000000; stroke-width: 0.8"/>
      </g>
     </g>
     <g id="text_15">
      <!-- 0 -->
      <g transform="translate(24.9075 139.24431) scale(0.1 -0.1)">
       <use xlink:href="#DejaVuSans-30"/>
      </g>
     </g>
    </g>
    <g id="ytick_2">
     <g id="line2d_29">
      <path d="M 38.27 33.146909 
L 627.705 33.146909 
" clip-path="url(#pcea5ab87f0)" style="fill: none; stroke: #b0b0b0; stroke-width: 0.8; stroke-linecap: square"/>
     </g>
     <g id="line2d_30">
      <g>
       <use xlink:href="#mcc0bdb1e89" x="38.27" y="33.146909" style="stroke: #000000; stroke-width: 0.8"/>
      </g>
     </g>
     <g id="text_16">
      <!-- 1 -->
      <g transform="translate(24.9075 36.946128) scale(0.1 -0.1)">
       <use xlink:href="#DejaVuSans-31"/>
      </g>
     </g>
    </g>
    <g id="text_17">
     <!-- Magnitude -->
     <g transform="translate(18.827813 110.785844) rotate(-90) scale(0.1 -0.1)">
      <defs>
       <path id="DejaVuSans-4d" d="M 628 4666 
L 1569 4666 
L 2759 1491 
L 3956 4666 
L 4897 4666 
L 4897 0 
L 4281 0 
L 4281 4097 
L 3078 897 
L 2444 897 
L 1241 4097 
L 1241 0 
L 628 0 
L 628 4666 
z
" transform="scale(0.015625)"/>
       <path id="DejaVuSans-61" d="M 2194 1759 
Q 1497 1759 1228 1600 
Q 959 1441 959 1056 
Q 959 750 1161 570 
Q 1363 391 1709 391 
Q 2188 391 2477 730 
Q 2766 1069 2766 1631 
L 2766 1759 
L 2194 1759 
z
M 3341 1997 
L 3341 0 
L 2766 0 
L 2766 531 
Q 2569 213 2275 61 
Q 1981 -91 1556 -91 
Q 1019 -91 701 211 
Q 384 513 384 1019 
Q 384 1609 779 1909 
Q 1175 2209 1959 2209 
L 2766 2209 
L 2766 2266 
Q 2766 2663 2505 2880 
Q 2244 3097 1772 3097 
Q 1472 3097 1187 3025 
Q 903 2953 641 2809 
L 641 3341 
Q 956 3463 1253 3523 
Q 1550 3584 1831 3584 
Q 2591 3584 2966 3190 
Q 3341 2797 3341 1997 
z
" transform="scale(0.015625)"/>
       <path id="DejaVuSans-67" d="M 2906 1791 
Q 2906 2416 2648 2759 
Q 2391 3103 1925 3103 
Q 1463 3103 1205 2759 
Q 947 2416 947 1791 
Q 947 1169 1205 825 
Q 1463 481 1925 481 
Q 2391 481 2648 825 
Q 2906 1169 2906 1791 
z
M 3481 434 
Q 3481 -459 3084 -895 
Q 2688 -1331 1869 -1331 
Q 1566 -1331 1297 -1286 
Q 1028 -1241 775 -1147 
L 775 -588 
Q 1028 -725 1275 -790 
Q 1522 -856 1778 -856 
Q 2344 -856 2625 -561 
Q 2906 -266 2906 331 
L 2906 616 
Q 2728 306 2450 153 
Q 2172 0 1784 0 
Q 1141 0 747 490 
Q 353 981 353 1791 
Q 353 2603 747 3093 
Q 1141 3584 1784 3584 
Q 2172 3584 2450 3431 
Q 2728 3278 2906 2969 
L 2906 3500 
L 3481 3500 
L 3481 434 
z
" transform="scale(0.015625)"/>
       <path id="DejaVuSans-69" d="M 603 3500 
L 1178 3500 
L 1178 0 
L 603 0 
L 603 3500 
z
M 603 4863 
L 1178 4863 
L 1178 4134 
L 603 4134 
L 603 4863 
z
" transform="scale(0.015625)"/>
       <path id="DejaVuSans-74" d="M 1172 4494 
L 1172 3500 
L 2356 3500 
L 2356 3053 
L 1172 3053 
L 1172 1153 
Q 1172 725 1289 603 
Q 1406 481 1766 481 
L 2356 481 
L 2356 0 
L 1766 0 
Q 1100 0 847 248 
Q 594 497 594 1153 
L 594 3053 
L 172 3053 
L 172 3500 
L 594 3500 
L 594 4494 
L 1172 4494 
z
" transform="scale(0.015625)"/>
       <path id="DejaVuSans-64" d="M 2906 2969 
L 2906 4863 
L 3481 4863 
L 3481 0 
L 2906 0 
L 2906 525 
Q 2725 213 2448 61 
Q 2172 -91 1784 -91 
Q 1150 -91 751 415 
Q 353 922 353 1747 
Q 353 2572 751 3078 
Q 1150 3584 1784 3584 
Q 2172 3584 2448 3432 
Q 2725 3281 2906 2969 
z
M 947 1747 
Q 947 1113 1208 752 
Q 1469 391 1925 391 
Q 2381 391 2643 752 
Q 2906 1113 2906 1747 
Q 2906 2381 2643 2742 
Q 2381 3103 1925 3103 
Q 1469 3103 1208 2742 
Q 947 2381 947 1747 
z
" transform="scale(0.015625)"/>
      </defs>
      <use xlink:href="#DejaVuSans-4d"/>
      <use xlink:href="#DejaVuSans-61" transform="translate(86.279297 0)"/>
      <use xlink:href="#DejaVuSans-67" transform="translate(147.558594 0)"/>
      <use xlink:href="#DejaVuSans-6e" transform="translate(211.035156 0)"/>
      <use xlink:href="#DejaVuSans-69" transform="translate(274.414062 0)"/>
      <use xlink:href="#DejaVuSans-74" transform="translate(302.197266 0)"/>
      <use xlink:href="#DejaVuSans-75" transform="translate(341.40625 0)"/>
      <use xlink:href="#DejaVuSans-64" transform="translate(404.785156 0)"/>
      <use xlink:href="#DejaVuSans-65" transform="translate(468.261719 0)"/>
     </g>
    </g>
   </g>
   <g id="line2d_31">
    <path d="M 431.226667 140.56 
L 431.226667 28.032 
" clip-path="url(#pcea5ab87f0)" style="fill: none; stroke-dasharray: 9.6,2.4,1.5,2.4; stroke-dashoffset: 0; stroke: #000000; stroke-width: 1.5"/>
   </g>
   <g id="line2d_32">
    <path d="M 234.748333 140.56 
L 234.748333 28.032 
" clip-path="url(#pcea5ab87f0)" style="fill: none; stroke-dasharray: 9.6,2.4,1.5,2.4; stroke-dashoffset: 0; stroke: #000000; stroke-width: 1.5"/>
   </g>
   <g id="line2d_33">
    <path d="M 529.465833 140.56 
L 529.465833 28.032 
" clip-path="url(#pcea5ab87f0)" style="fill: none; stroke-dasharray: 5.55,2.4; stroke-dashoffset: 0; stroke: #000000; stroke-width: 1.5"/>
   </g>
   <g id="line2d_34">
    <path d="M 136.509167 140.56 
L 136.509167 28.032 
" clip-path="url(#pcea5ab87f0)" style="fill: none; stroke-dasharray: 5.55,2.4; stroke-dashoffset: 0; stroke: #000000; stroke-width: 1.5"/>
   </g>
   <g id="line2d_35">
    <path d="M 38.27 135.445091 
L 185.62875 135.445091 
L 283.867917 33.146909 
L 382.107083 33.146909 
L 480.34625 135.445091 
L 627.705 135.445091 
L 627.705 135.445091 
" clip-path="url(#pcea5ab87f0)" style="fill: none; stroke: #1f77b4; stroke-width: 2; stroke-linecap: square"/>
   </g>
   <g id="line2d_36">
    <path d="M 38.27 135.445091 
L 382.107083 135.445091 
L 480.34625 33.146909 
L 578.585417 33.146909 
L 627.705 84.296 
L 627.705 84.296 
" clip-path="url(#pcea5ab87f0)" style="fill: none; stroke-dasharray: 5.55,2.4; stroke-dashoffset: 0; stroke: #d62728; stroke-width: 1.5"/>
   </g>
   <g id="line2d_37">
    <path d="M 38.27 135.445091 
L 578.585417 135.445091 
L 627.705 84.296 
L 627.705 84.296 
" clip-path="url(#pcea5ab87f0)" style="fill: none; stroke-dasharray: 5.55,2.4; stroke-dashoffset: 0; stroke: #d62728; stroke-width: 1.5"/>
   </g>
   <g id="line2d_38">
    <path d="M 38.27 84.296 
L 87.389583 33.146909 
L 185.62875 33.146909 
L 283.867917 135.445091 
L 627.705 135.445091 
L 627.705 135.445091 
" clip-path="url(#pcea5ab87f0)" style="fill: none; stroke-dasharray: 5.55,2.4; stroke-dashoffset: 0; stroke: #d62728; stroke-width: 1.5"/>
   </g>
   <g id="line2d_39">
    <path d="M 38.27 84.296 
L 87.389583 135.445091 
L 627.705 135.445091 
L 627.705 135.445091 
" clip-path="url(#pcea5ab87f0)" style="fill: none; stroke-dasharray: 5.55,2.4; stroke-dashoffset: 0; stroke: #d62728; stroke-width: 1.5"/>
   </g>
   <g id="patch_3">
    <path d="M 38.27 140.56 
L 38.27 28.032 
" style="fill: none; stroke: #000000; stroke-width: 0.8; stroke-linejoin: miter; stroke-linecap: square"/>
   </g>
   <g id="patch_4">
    <path d="M 627.705 140.56 
L 627.705 28.032 
" style="fill: none; stroke: #000000; stroke-width: 0.8; stroke-linejoin: miter; stroke-linecap: square"/>
   </g>
   <g id="patch_5">
    <path d="M 38.27 140.56 
L 627.705 140.56 
" style="fill: none; stroke: #000000; stroke-width: 0.8; stroke-linejoin: miter; stroke-linecap: square"/>
   </g>
   <g id="patch_6">
    <path d="M 38.27 28.032 
L 627.705 28.032 
" style="fill: none; stroke: #000000; stroke-width: 0.8; stroke-linejoin: miter; stroke-linecap: square"/>
   </g>
   <g id="text_18">
    <g id="patch_7">
     <path d="M 77.051979 81.161926 
L 195.966354 81.161926 
Q 200.766354 81.161926 200.766354 76.361926 
L 200.766354 51.310801 
Q 200.766354 46.510801 195.966354 46.510801 
L 77.051979 46.510801 
Q 72.251979 46.510801 72.251979 51.310801 
L 72.251979 76.361926 
Q 72.251979 81.161926 77.051979 81.161926 
z
" style="fill: #ffffff; opacity: 0.7; stroke: #808080; stroke-linejoin: miter"/>
    </g>
    <!-- Spectral copy -->
    <g style="fill: #d62728" transform="translate(95.500104 60.428926) scale(0.12 -0.12)">
     <defs>
      <path id="DejaVuSans-53" d="M 3425 4513 
L 3425 3897 
Q 3066 4069 2747 4153 
Q 2428 4238 2131 4238 
Q 1616 4238 1336 4038 
Q 1056 3838 1056 3469 
Q 1056 3159 1242 3001 
Q 1428 2844 1947 2747 
L 2328 2669 
Q 3034 2534 3370 2195 
Q 3706 1856 3706 1288 
Q 3706 609 3251 259 
Q 2797 -91 1919 -91 
Q 1588 -91 1214 -16 
Q 841 59 441 206 
L 441 856 
Q 825 641 1194 531 
Q 1563 422 1919 422 
Q 2459 422 2753 634 
Q 3047 847 3047 1241 
Q 3047 1584 2836 1778 
Q 2625 1972 2144 2069 
L 1759 2144 
Q 1053 2284 737 2584 
Q 422 2884 422 3419 
Q 422 4038 858 4394 
Q 1294 4750 2059 4750 
Q 2388 4750 2728 4690 
Q 3069 4631 3425 4513 
z
" transform="scale(0.015625)"/>
      <path id="DejaVuSans-70" d="M 1159 525 
L 1159 -1331 
L 581 -1331 
L 581 3500 
L 1159 3500 
L 1159 2969 
Q 1341 3281 1617 3432 
Q 1894 3584 2278 3584 
Q 2916 3584 3314 3078 
Q 3713 2572 3713 1747 
Q 3713 922 3314 415 
Q 2916 -91 2278 -91 
Q 1894 -91 1617 61 
Q 1341 213 1159 525 
z
M 3116 1747 
Q 3116 2381 2855 2742 
Q 2594 3103 2138 3103 
Q 1681 3103 1420 2742 
Q 1159 2381 1159 1747 
Q 1159 1113 1420 752 
Q 1681 391 2138 391 
Q 2594 391 2855 752 
Q 3116 1113 3116 1747 
z
" transform="scale(0.015625)"/>
      <path id="DejaVuSans-6c" d="M 603 4863 
L 1178 4863 
L 1178 0 
L 603 0 
L 603 4863 
z
" transform="scale(0.015625)"/>
      <path id="DejaVuSans-6f" d="M 1959 3097 
Q 1497 3097 1228 2736 
Q 959 2375 959 1747 
Q 959 1119 1226 758 
Q 1494 397 1959 397 
Q 2419 397 2687 759 
Q 2956 1122 2956 1747 
Q 2956 2369 2687 2733 
Q 2419 3097 1959 3097 
z
M 1959 3584 
Q 2709 3584 3137 3096 
Q 3566 2609 3566 1747 
Q 3566 888 3137 398 
Q 2709 -91 1959 -91 
Q 1206 -91 779 398 
Q 353 888 353 1747 
Q 353 2609 779 3096 
Q 1206 3584 1959 3584 
z
" transform="scale(0.015625)"/>
     </defs>
     <use xlink:href="#DejaVuSans-53"/>
     <use xlink:href="#DejaVuSans-70" transform="translate(63.476562 0)"/>
     <use xlink:href="#DejaVuSans-65" transform="translate(126.953125 0)"/>
     <use xlink:href="#DejaVuSans-63" transform="translate(188.476562 0)"/>
     <use xlink:href="#DejaVuSans-74" transform="translate(243.457031 0)"/>
     <use xlink:href="#DejaVuSans-72" transform="translate(282.666016 0)"/>
     <use xlink:href="#DejaVuSans-61" transform="translate(323.779297 0)"/>
     <use xlink:href="#DejaVuSans-6c" transform="translate(385.058594 0)"/>
     <use xlink:href="#DejaVuSans-20" transform="translate(412.841797 0)"/>
     <use xlink:href="#DejaVuSans-63" transform="translate(444.628906 0)"/>
     <use xlink:href="#DejaVuSans-6f" transform="translate(499.609375 0)"/>
     <use xlink:href="#DejaVuSans-70" transform="translate(560.791016 0)"/>
     <use xlink:href="#DejaVuSans-79" transform="translate(624.267578 0)"/>
    </g>
    <!-- from downsampling -->
    <g style="fill: #d62728" transform="translate(77.051979 73.866301) scale(0.12 -0.12)">
     <defs>
      <path id="DejaVuSans-66" d="M 2375 4863 
L 2375 4384 
L 1825 4384 
Q 1516 4384 1395 4259 
Q 1275 4134 1275 3809 
L 1275 3500 
L 2222 3500 
L 2222 3053 
L 1275 3053 
L 1275 0 
L 697 0 
L 697 3053 
L 147 3053 
L 147 3500 
L 697 3500 
L 697 3744 
Q 697 4328 969 4595 
Q 1241 4863 1831 4863 
L 2375 4863 
z
" transform="scale(0.015625)"/>
      <path id="DejaVuSans-6d" d="M 3328 2828 
Q 3544 3216 3844 3400 
Q 4144 3584 4550 3584 
Q 5097 3584 5394 3201 
Q 5691 2819 5691 2113 
L 5691 0 
L 5113 0 
L 5113 2094 
Q 5113 2597 4934 2840 
Q 4756 3084 4391 3084 
Q 3944 3084 3684 2787 
Q 3425 2491 3425 1978 
L 3425 0 
L 2847 0 
L 2847 2094 
Q 2847 2600 2669 2842 
Q 2491 3084 2119 3084 
Q 1678 3084 1418 2786 
Q 1159 2488 1159 1978 
L 1159 0 
L 581 0 
L 581 3500 
L 1159 3500 
L 1159 2956 
Q 1356 3278 1631 3431 
Q 1906 3584 2284 3584 
Q 2666 3584 2933 3390 
Q 3200 3197 3328 2828 
z
" transform="scale(0.015625)"/>
      <path id="DejaVuSans-77" d="M 269 3500 
L 844 3500 
L 1563 769 
L 2278 3500 
L 2956 3500 
L 3675 769 
L 4391 3500 
L 4966 3500 
L 4050 0 
L 3372 0 
L 2619 2869 
L 1863 0 
L 1184 0 
L 269 3500 
z
" transform="scale(0.015625)"/>
      <path id="DejaVuSans-73" d="M 2834 3397 
L 2834 2853 
Q 2591 2978 2328 3040 
Q 2066 3103 1784 3103 
Q 1356 3103 1142 2972 
Q 928 2841 928 2578 
Q 928 2378 1081 2264 
Q 1234 2150 1697 2047 
L 1894 2003 
Q 2506 1872 2764 1633 
Q 3022 1394 3022 966 
Q 3022 478 2636 193 
Q 2250 -91 1575 -91 
Q 1294 -91 989 -36 
Q 684 19 347 128 
L 347 722 
Q 666 556 975 473 
Q 1284 391 1588 391 
Q 1994 391 2212 530 
Q 2431 669 2431 922 
Q 2431 1156 2273 1281 
Q 2116 1406 1581 1522 
L 1381 1569 
Q 847 1681 609 1914 
Q 372 2147 372 2553 
Q 372 3047 722 3315 
Q 1072 3584 1716 3584 
Q 2034 3584 2315 3537 
Q 2597 3491 2834 3397 
z
" transform="scale(0.015625)"/>
     </defs>
     <use xlink:href="#DejaVuSans-66"/>
     <use xlink:href="#DejaVuSans-72" transform="translate(35.205078 0)"/>
     <use xlink:href="#DejaVuSans-6f" transform="translate(74.068359 0)"/>
     <use xlink:href="#DejaVuSans-6d" transform="translate(135.25 0)"/>
     <use xlink:href="#DejaVuSans-20" transform="translate(232.662109 0)"/>
     <use xlink:href="#DejaVuSans-64" transform="translate(264.449219 0)"/>
     <use xlink:href="#DejaVuSans-6f" transform="translate(327.925781 0)"/>
     <use xlink:href="#DejaVuSans-77" transform="translate(389.107422 0)"/>
     <use xlink:href="#DejaVuSans-6e" transform="translate(470.894531 0)"/>
     <use xlink:href="#DejaVuSans-73" transform="translate(534.273438 0)"/>
     <use xlink:href="#DejaVuSans-61" transform="translate(586.373047 0)"/>
     <use xlink:href="#DejaVuSans-6d" transform="translate(647.652344 0)"/>
     <use xlink:href="#DejaVuSans-70" transform="translate(745.064453 0)"/>
     <use xlink:href="#DejaVuSans-6c" transform="translate(808.541016 0)"/>
     <use xlink:href="#DejaVuSans-69" transform="translate(836.324219 0)"/>
     <use xlink:href="#DejaVuSans-6e" transform="translate(864.107422 0)"/>
     <use xlink:href="#DejaVuSans-67" transform="translate(927.486328 0)"/>
    </g>
   </g>
   <g id="text_19">
    <g id="patch_8">
     <path d="M 470.008646 81.161926 
L 588.923021 81.161926 
Q 593.723021 81.161926 593.723021 76.361926 
L 593.723021 51.310801 
Q 593.723021 46.510801 588.923021 46.510801 
L 470.008646 46.510801 
Q 465.208646 46.510801 465.208646 51.310801 
L 465.208646 76.361926 
Q 465.208646 81.161926 470.008646 81.161926 
z
" style="fill: #ffffff; opacity: 0.7; stroke: #808080; stroke-linejoin: miter"/>
    </g>
    <!-- Spectral copy -->
    <g style="fill: #d62728" transform="translate(488.456771 60.428926) scale(0.12 -0.12)">
     <use xlink:href="#DejaVuSans-53"/>
     <use xlink:href="#DejaVuSans-70" transform="translate(63.476562 0)"/>
     <use xlink:href="#DejaVuSans-65" transform="translate(126.953125 0)"/>
     <use xlink:href="#DejaVuSans-63" transform="translate(188.476562 0)"/>
     <use xlink:href="#DejaVuSans-74" transform="translate(243.457031 0)"/>
     <use xlink:href="#DejaVuSans-72" transform="translate(282.666016 0)"/>
     <use xlink:href="#DejaVuSans-61" transform="translate(323.779297 0)"/>
     <use xlink:href="#DejaVuSans-6c" transform="translate(385.058594 0)"/>
     <use xlink:href="#DejaVuSans-20" transform="translate(412.841797 0)"/>
     <use xlink:href="#DejaVuSans-63" transform="translate(444.628906 0)"/>
     <use xlink:href="#DejaVuSans-6f" transform="translate(499.609375 0)"/>
     <use xlink:href="#DejaVuSans-70" transform="translate(560.791016 0)"/>
     <use xlink:href="#DejaVuSans-79" transform="translate(624.267578 0)"/>
    </g>
    <!-- from downsampling -->
    <g style="fill: #d62728" transform="translate(470.008646 73.866301) scale(0.12 -0.12)">
     <use xlink:href="#DejaVuSans-66"/>
     <use xlink:href="#DejaVuSans-72" transform="translate(35.205078 0)"/>
     <use xlink:href="#DejaVuSans-6f" transform="translate(74.068359 0)"/>
     <use xlink:href="#DejaVuSans-6d" transform="translate(135.25 0)"/>
     <use xlink:href="#DejaVuSans-20" transform="translate(232.662109 0)"/>
     <use xlink:href="#DejaVuSans-64" transform="translate(264.449219 0)"/>
     <use xlink:href="#DejaVuSans-6f" transform="translate(327.925781 0)"/>
     <use xlink:href="#DejaVuSans-77" transform="translate(389.107422 0)"/>
     <use xlink:href="#DejaVuSans-6e" transform="translate(470.894531 0)"/>
     <use xlink:href="#DejaVuSans-73" transform="translate(534.273438 0)"/>
     <use xlink:href="#DejaVuSans-61" transform="translate(586.373047 0)"/>
     <use xlink:href="#DejaVuSans-6d" transform="translate(647.652344 0)"/>
     <use xlink:href="#DejaVuSans-70" transform="translate(745.064453 0)"/>
     <use xlink:href="#DejaVuSans-6c" transform="translate(808.541016 0)"/>
     <use xlink:href="#DejaVuSans-69" transform="translate(836.324219 0)"/>
     <use xlink:href="#DejaVuSans-6e" transform="translate(864.107422 0)"/>
     <use xlink:href="#DejaVuSans-67" transform="translate(927.486328 0)"/>
    </g>
   </g>
   <g id="text_20">
    <g id="patch_9">
     <path d="M 269.469063 91.391744 
L 396.505938 91.391744 
Q 401.305938 91.391744 401.305938 86.591744 
L 401.305938 61.540619 
Q 401.305938 56.740619 396.505938 56.740619 
L 269.469063 56.740619 
Q 264.669063 56.740619 264.669063 61.540619 
L 264.669063 86.591744 
Q 264.669063 91.391744 269.469063 91.391744 
z
" style="fill: #ffffff; opacity: 0.7; stroke: #808080; stroke-linejoin: miter"/>
    </g>
    <!-- Decimation filter -->
    <g style="fill: #1f77b4" transform="translate(282.832188 70.658744) scale(0.12 -0.12)">
     <defs>
      <path id="DejaVuSans-44" d="M 1259 4147 
L 1259 519 
L 2022 519 
Q 2988 519 3436 956 
Q 3884 1394 3884 2338 
Q 3884 3275 3436 3711 
Q 2988 4147 2022 4147 
L 1259 4147 
z
M 628 4666 
L 1925 4666 
Q 3281 4666 3915 4102 
Q 4550 3538 4550 2338 
Q 4550 1131 3912 565 
Q 3275 0 1925 0 
L 628 0 
L 628 4666 
z
" transform="scale(0.015625)"/>
     </defs>
     <use xlink:href="#DejaVuSans-44"/>
     <use xlink:href="#DejaVuSans-65" transform="translate(77.001953 0)"/>
     <use xlink:href="#DejaVuSans-63" transform="translate(138.525391 0)"/>
     <use xlink:href="#DejaVuSans-69" transform="translate(193.505859 0)"/>
     <use xlink:href="#DejaVuSans-6d" transform="translate(221.289062 0)"/>
     <use xlink:href="#DejaVuSans-61" transform="translate(318.701172 0)"/>
     <use xlink:href="#DejaVuSans-74" transform="translate(379.980469 0)"/>
     <use xlink:href="#DejaVuSans-69" transform="translate(419.189453 0)"/>
     <use xlink:href="#DejaVuSans-6f" transform="translate(446.972656 0)"/>
     <use xlink:href="#DejaVuSans-6e" transform="translate(508.154297 0)"/>
     <use xlink:href="#DejaVuSans-20" transform="translate(571.533203 0)"/>
     <use xlink:href="#DejaVuSans-66" transform="translate(603.320312 0)"/>
     <use xlink:href="#DejaVuSans-69" transform="translate(638.525391 0)"/>
     <use xlink:href="#DejaVuSans-6c" transform="translate(666.308594 0)"/>
     <use xlink:href="#DejaVuSans-74" transform="translate(694.091797 0)"/>
     <use xlink:href="#DejaVuSans-65" transform="translate(733.300781 0)"/>
     <use xlink:href="#DejaVuSans-72" transform="translate(794.824219 0)"/>
    </g>
    <!--  magnitude response -->
    <g style="fill: #1f77b4" transform="translate(269.469063 84.096119) scale(0.12 -0.12)">
     <use xlink:href="#DejaVuSans-20"/>
     <use xlink:href="#DejaVuSans-6d" transform="translate(31.787109 0)"/>
     <use xlink:href="#DejaVuSans-61" transform="translate(129.199219 0)"/>
     <use xlink:href="#DejaVuSans-67" transform="translate(190.478516 0)"/>
     <use xlink:href="#DejaVuSans-6e" transform="translate(253.955078 0)"/>
     <use xlink:href="#DejaVuSans-69" transform="translate(317.333984 0)"/>
     <use xlink:href="#DejaVuSans-74" transform="translate(345.117188 0)"/>
     <use xlink:href="#DejaVuSans-75" transform="translate(384.326172 0)"/>
     <use xlink:href="#DejaVuSans-64" transform="translate(447.705078 0)"/>
     <use xlink:href="#DejaVuSans-65" transform="translate(511.181641 0)"/>
     <use xlink:href="#DejaVuSans-20" transform="translate(572.705078 0)"/>
     <use xlink:href="#DejaVuSans-72" transform="translate(604.492188 0)"/>
     <use xlink:href="#DejaVuSans-65" transform="translate(643.355469 0)"/>
     <use xlink:href="#DejaVuSans-73" transform="translate(704.878906 0)"/>
     <use xlink:href="#DejaVuSans-70" transform="translate(756.978516 0)"/>
     <use xlink:href="#DejaVuSans-6f" transform="translate(820.455078 0)"/>
     <use xlink:href="#DejaVuSans-6e" transform="translate(881.636719 0)"/>
     <use xlink:href="#DejaVuSans-73" transform="translate(945.015625 0)"/>
     <use xlink:href="#DejaVuSans-65" transform="translate(997.115234 0)"/>
    </g>
   </g>
   <g id="text_21">
    <!-- Stage 1: $f_{s, \text{old}} = 1\ 200 \longrightarrow f_{s, \text{int}} = 400 $ -->
    <g transform="translate(226.4875 22.032) scale(0.12 -0.12)">
     <defs>
      <path id="DejaVuSans-3a" d="M 750 794 
L 1409 794 
L 1409 0 
L 750 0 
L 750 794 
z
M 750 3309 
L 1409 3309 
L 1409 2516 
L 750 2516 
L 750 3309 
z
" transform="scale(0.015625)"/>
      <path id="DejaVuSans-Oblique-73" d="M 3200 3397 
L 3091 2853 
Q 2863 2978 2609 3040 
Q 2356 3103 2088 3103 
Q 1634 3103 1373 2948 
Q 1113 2794 1113 2528 
Q 1113 2219 1719 2053 
Q 1766 2041 1788 2034 
L 1972 1978 
Q 2547 1819 2739 1644 
Q 2931 1469 2931 1166 
Q 2931 609 2489 259 
Q 2047 -91 1331 -91 
Q 1053 -91 747 -37 
Q 441 16 72 128 
L 184 722 
Q 500 559 806 475 
Q 1113 391 1394 391 
Q 1816 391 2080 572 
Q 2344 753 2344 1031 
Q 2344 1331 1650 1516 
L 1591 1531 
L 1394 1581 
Q 956 1697 753 1886 
Q 550 2075 550 2369 
Q 550 2928 970 3256 
Q 1391 3584 2113 3584 
Q 2397 3584 2667 3537 
Q 2938 3491 3200 3397 
z
" transform="scale(0.015625)"/>
      <path id="DejaVuSans-2c" d="M 750 794 
L 1409 794 
L 1409 256 
L 897 -744 
L 494 -744 
L 750 256 
L 750 794 
z
" transform="scale(0.015625)"/>
      <path id="DejaVuSans-3d" d="M 678 2906 
L 4684 2906 
L 4684 2381 
L 678 2381 
L 678 2906 
z
M 678 1631 
L 4684 1631 
L 4684 1100 
L 678 1100 
L 678 1631 
z
" transform="scale(0.015625)"/>
      <path id="DejaVuSans-27f6" d="M 8863 2147 
L 8863 1866 
L 7634 638 
L 7259 1013 
L 7988 1741 
L 366 1741 
L 366 2272 
L 7988 2272 
L 7259 3000 
L 7634 3375 
L 8863 2147 
z
" transform="scale(0.015625)"/>
     </defs>
     <use xlink:href="#DejaVuSans-53" transform="translate(0 0.015625)"/>
     <use xlink:href="#DejaVuSans-74" transform="translate(63.476562 0.015625)"/>
     <use xlink:href="#DejaVuSans-61" transform="translate(102.685547 0.015625)"/>
     <use xlink:href="#DejaVuSans-67" transform="translate(163.964844 0.015625)"/>
     <use xlink:href="#DejaVuSans-65" transform="translate(227.441406 0.015625)"/>
     <use xlink:href="#DejaVuSans-20" transform="translate(288.964844 0.015625)"/>
     <use xlink:href="#DejaVuSans-31" transform="translate(320.751953 0.015625)"/>
     <use xlink:href="#DejaVuSans-3a" transform="translate(384.375 0.015625)"/>
     <use xlink:href="#DejaVuSans-20" transform="translate(418.066406 0.015625)"/>
     <use xlink:href="#DejaVuSans-Oblique-66" transform="translate(449.853516 0.015625)"/>
     <use xlink:href="#DejaVuSans-Oblique-73" transform="translate(485.058594 -16.390625) scale(0.7)"/>
     <use xlink:href="#DejaVuSans-2c" transform="translate(521.52832 -16.390625) scale(0.7)"/>
     <use xlink:href="#DejaVuSans-6f" transform="translate(557.416992 -16.390625) scale(0.7)"/>
     <use xlink:href="#DejaVuSans-6c" transform="translate(600.244141 -16.390625) scale(0.7)"/>
     <use xlink:href="#DejaVuSans-64" transform="translate(619.692383 -16.390625) scale(0.7)"/>
     <use xlink:href="#DejaVuSans-3d" transform="translate(686.342773 0.015625)"/>
     <use xlink:href="#DejaVuSans-31" transform="translate(789.614258 0.015625)"/>
     <use xlink:href="#DejaVuSans-32" transform="translate(885.707683 0.015625)"/>
     <use xlink:href="#DejaVuSans-30" transform="translate(949.33073 0.015625)"/>
     <use xlink:href="#DejaVuSans-30" transform="translate(1012.953777 0.015625)"/>
     <use xlink:href="#DejaVuSans-27f6" transform="translate(1096.059246 0.015625)"/>
     <use xlink:href="#DejaVuSans-Oblique-66" transform="translate(1258.901042 0.015625)"/>
     <use xlink:href="#DejaVuSans-Oblique-73" transform="translate(1294.106121 -16.390625) scale(0.7)"/>
     <use xlink:href="#DejaVuSans-2c" transform="translate(1330.575847 -16.390625) scale(0.7)"/>
     <use xlink:href="#DejaVuSans-69" transform="translate(1366.464519 -16.390625) scale(0.7)"/>
     <use xlink:href="#DejaVuSans-6e" transform="translate(1385.912761 -16.390625) scale(0.7)"/>
     <use xlink:href="#DejaVuSans-74" transform="translate(1430.277996 -16.390625) scale(0.7)"/>
     <use xlink:href="#DejaVuSans-3d" transform="translate(1479.941082 0.015625)"/>
     <use xlink:href="#DejaVuSans-34" transform="translate(1583.212566 0.015625)"/>
     <use xlink:href="#DejaVuSans-30" transform="translate(1646.835613 0.015625)"/>
     <use xlink:href="#DejaVuSans-30" transform="translate(1710.45866 0.015625)"/>
    </g>
   </g>
  </g>
  <g id="axes_2">
   <g id="patch_10">
    <path d="M 38.27 315.16 
L 627.705 315.16 
L 627.705 202.632 
L 38.27 202.632 
z
" style="fill: #ffffff"/>
   </g>
   <g id="matplotlib.axis_3">
    <g id="xtick_14">
     <g id="line2d_40">
      <path d="M 38.27 315.16 
L 38.27 202.632 
" clip-path="url(#padb094f705)" style="fill: none; stroke: #b0b0b0; stroke-width: 0.8; stroke-linecap: square"/>
     </g>
     <g id="line2d_41">
      <g>
       <use xlink:href="#md923dcad3a" x="38.27" y="315.16" style="stroke: #000000; stroke-width: 0.8"/>
      </g>
     </g>
     <g id="text_22">
      <!-- −200 -->
      <g transform="translate(24.536406 329.758438) scale(0.1 -0.1)">
       <use xlink:href="#DejaVuSans-2212"/>
       <use xlink:href="#DejaVuSans-32" transform="translate(83.789062 0)"/>
       <use xlink:href="#DejaVuSans-30" transform="translate(147.412109 0)"/>
       <use xlink:href="#DejaVuSans-30" transform="translate(211.035156 0)"/>
      </g>
     </g>
    </g>
    <g id="xtick_15">
     <g id="line2d_42">
      <path d="M 111.949375 315.16 
L 111.949375 202.632 
" clip-path="url(#padb094f705)" style="fill: none; stroke: #b0b0b0; stroke-width: 0.8; stroke-linecap: square"/>
     </g>
     <g id="line2d_43">
      <g>
       <use xlink:href="#md923dcad3a" x="111.949375" y="315.16" style="stroke: #000000; stroke-width: 0.8"/>
      </g>
     </g>
     <g id="text_23">
      <!-- −150 -->
      <g transform="translate(98.215781 329.758438) scale(0.1 -0.1)">
       <use xlink:href="#DejaVuSans-2212"/>
       <use xlink:href="#DejaVuSans-31" transform="translate(83.789062 0)"/>
       <use xlink:href="#DejaVuSans-35" transform="translate(147.412109 0)"/>
       <use xlink:href="#DejaVuSans-30" transform="translate(211.035156 0)"/>
      </g>
     </g>
    </g>
    <g id="xtick_16">
     <g id="line2d_44">
      <path d="M 185.62875 315.16 
L 185.62875 202.632 
" clip-path="url(#padb094f705)" style="fill: none; stroke: #b0b0b0; stroke-width: 0.8; stroke-linecap: square"/>
     </g>
     <g id="line2d_45">
      <g>
       <use xlink:href="#md923dcad3a" x="185.62875" y="315.16" style="stroke: #000000; stroke-width: 0.8"/>
      </g>
     </g>
     <g id="text_24">
      <!-- −100 -->
      <g transform="translate(171.895156 329.758438) scale(0.1 -0.1)">
       <use xlink:href="#DejaVuSans-2212"/>
       <use xlink:href="#DejaVuSans-31" transform="translate(83.789062 0)"/>
       <use xlink:href="#DejaVuSans-30" transform="translate(147.412109 0)"/>
       <use xlink:href="#DejaVuSans-30" transform="translate(211.035156 0)"/>
      </g>
     </g>
    </g>
    <g id="xtick_17">
     <g id="line2d_46">
      <path d="M 259.308125 315.16 
L 259.308125 202.632 
" clip-path="url(#padb094f705)" style="fill: none; stroke: #b0b0b0; stroke-width: 0.8; stroke-linecap: square"/>
     </g>
     <g id="line2d_47">
      <g>
       <use xlink:href="#md923dcad3a" x="259.308125" y="315.16" style="stroke: #000000; stroke-width: 0.8"/>
      </g>
     </g>
     <g id="text_25">
      <!-- −50 -->
      <g transform="translate(248.755781 329.758438) scale(0.1 -0.1)">
       <use xlink:href="#DejaVuSans-2212"/>
       <use xlink:href="#DejaVuSans-35" transform="translate(83.789062 0)"/>
       <use xlink:href="#DejaVuSans-30" transform="translate(147.412109 0)"/>
      </g>
     </g>
    </g>
    <g id="xtick_18">
     <g id="line2d_48">
      <path d="M 332.9875 315.16 
L 332.9875 202.632 
" clip-path="url(#padb094f705)" style="fill: none; stroke: #b0b0b0; stroke-width: 0.8; stroke-linecap: square"/>
     </g>
     <g id="line2d_49">
      <g>
       <use xlink:href="#md923dcad3a" x="332.9875" y="315.16" style="stroke: #000000; stroke-width: 0.8"/>
      </g>
     </g>
     <g id="text_26">
      <!-- 0 -->
      <g transform="translate(329.80625 329.758438) scale(0.1 -0.1)">
       <use xlink:href="#DejaVuSans-30"/>
      </g>
     </g>
    </g>
    <g id="xtick_19">
     <g id="line2d_50">
      <path d="M 406.666875 315.16 
L 406.666875 202.632 
" clip-path="url(#padb094f705)" style="fill: none; stroke: #b0b0b0; stroke-width: 0.8; stroke-linecap: square"/>
     </g>
     <g id="line2d_51">
      <g>
       <use xlink:href="#md923dcad3a" x="406.666875" y="315.16" style="stroke: #000000; stroke-width: 0.8"/>
      </g>
     </g>
     <g id="text_27">
      <!-- 50 -->
      <g transform="translate(400.304375 329.758438) scale(0.1 -0.1)">
       <use xlink:href="#DejaVuSans-35"/>
       <use xlink:href="#DejaVuSans-30" transform="translate(63.623047 0)"/>
      </g>
     </g>
    </g>
    <g id="xtick_20">
     <g id="line2d_52">
      <path d="M 480.34625 315.16 
L 480.34625 202.632 
" clip-path="url(#padb094f705)" style="fill: none; stroke: #b0b0b0; stroke-width: 0.8; stroke-linecap: square"/>
     </g>
     <g id="line2d_53">
      <g>
       <use xlink:href="#md923dcad3a" x="480.34625" y="315.16" style="stroke: #000000; stroke-width: 0.8"/>
      </g>
     </g>
     <g id="text_28">
      <!-- 100 -->
      <g transform="translate(470.8025 329.758438) scale(0.1 -0.1)">
       <use xlink:href="#DejaVuSans-31"/>
       <use xlink:href="#DejaVuSans-30" transform="translate(63.623047 0)"/>
       <use xlink:href="#DejaVuSans-30" transform="translate(127.246094 0)"/>
      </g>
     </g>
    </g>
    <g id="xtick_21">
     <g id="line2d_54">
      <path d="M 554.025625 315.16 
L 554.025625 202.632 
" clip-path="url(#padb094f705)" style="fill: none; stroke: #b0b0b0; stroke-width: 0.8; stroke-linecap: square"/>
     </g>
     <g id="line2d_55">
      <g>
       <use xlink:href="#md923dcad3a" x="554.025625" y="315.16" style="stroke: #000000; stroke-width: 0.8"/>
      </g>
     </g>
     <g id="text_29">
      <!-- 150 -->
      <g transform="translate(544.481875 329.758438) scale(0.1 -0.1)">
       <use xlink:href="#DejaVuSans-31"/>
       <use xlink:href="#DejaVuSans-35" transform="translate(63.623047 0)"/>
       <use xlink:href="#DejaVuSans-30" transform="translate(127.246094 0)"/>
      </g>
     </g>
    </g>
    <g id="xtick_22">
     <g id="line2d_56">
      <path d="M 627.705 315.16 
L 627.705 202.632 
" clip-path="url(#padb094f705)" style="fill: none; stroke: #b0b0b0; stroke-width: 0.8; stroke-linecap: square"/>
     </g>
     <g id="line2d_57">
      <g>
       <use xlink:href="#md923dcad3a" x="627.705" y="315.16" style="stroke: #000000; stroke-width: 0.8"/>
      </g>
     </g>
     <g id="text_30">
      <!-- 200 -->
      <g transform="translate(618.16125 329.758438) scale(0.1 -0.1)">
       <use xlink:href="#DejaVuSans-32"/>
       <use xlink:href="#DejaVuSans-30" transform="translate(63.623047 0)"/>
       <use xlink:href="#DejaVuSans-30" transform="translate(127.246094 0)"/>
      </g>
     </g>
    </g>
    <g id="text_31">
     <!-- Frequency $f$ (Hz) -->
     <g transform="translate(291.4375 343.438125) scale(0.1 -0.1)">
      <use xlink:href="#DejaVuSans-46" transform="translate(0 0.015625)"/>
      <use xlink:href="#DejaVuSans-72" transform="translate(57.519531 0.015625)"/>
      <use xlink:href="#DejaVuSans-65" transform="translate(98.632812 0.015625)"/>
      <use xlink:href="#DejaVuSans-71" transform="translate(160.15625 0.015625)"/>
      <use xlink:href="#DejaVuSans-75" transform="translate(223.632812 0.015625)"/>
      <use xlink:href="#DejaVuSans-65" transform="translate(287.011719 0.015625)"/>
      <use xlink:href="#DejaVuSans-6e" transform="translate(348.535156 0.015625)"/>
      <use xlink:href="#DejaVuSans-63" transform="translate(411.914062 0.015625)"/>
      <use xlink:href="#DejaVuSans-79" transform="translate(466.894531 0.015625)"/>
      <use xlink:href="#DejaVuSans-20" transform="translate(526.074219 0.015625)"/>
      <use xlink:href="#DejaVuSans-Oblique-66" transform="translate(557.861328 0.015625)"/>
      <use xlink:href="#DejaVuSans-20" transform="translate(593.066406 0.015625)"/>
      <use xlink:href="#DejaVuSans-28" transform="translate(624.853516 0.015625)"/>
      <use xlink:href="#DejaVuSans-48" transform="translate(663.867188 0.015625)"/>
      <use xlink:href="#DejaVuSans-7a" transform="translate(739.0625 0.015625)"/>
      <use xlink:href="#DejaVuSans-29" transform="translate(791.552734 0.015625)"/>
     </g>
    </g>
   </g>
   <g id="matplotlib.axis_4">
    <g id="ytick_3">
     <g id="line2d_58">
      <path d="M 38.27 310.045091 
L 627.705 310.045091 
" clip-path="url(#padb094f705)" style="fill: none; stroke: #b0b0b0; stroke-width: 0.8; stroke-linecap: square"/>
     </g>
     <g id="line2d_59">
      <g>
       <use xlink:href="#mcc0bdb1e89" x="38.27" y="310.045091" style="stroke: #000000; stroke-width: 0.8"/>
      </g>
     </g>
     <g id="text_32">
      <!-- 0 -->
      <g transform="translate(24.9075 313.84431) scale(0.1 -0.1)">
       <use xlink:href="#DejaVuSans-30"/>
      </g>
     </g>
    </g>
    <g id="ytick_4">
     <g id="line2d_60">
      <path d="M 38.27 207.746909 
L 627.705 207.746909 
" clip-path="url(#padb094f705)" style="fill: none; stroke: #b0b0b0; stroke-width: 0.8; stroke-linecap: square"/>
     </g>
     <g id="line2d_61">
      <g>
       <use xlink:href="#mcc0bdb1e89" x="38.27" y="207.746909" style="stroke: #000000; stroke-width: 0.8"/>
      </g>
     </g>
     <g id="text_33">
      <!-- 1 -->
      <g transform="translate(24.9075 211.546128) scale(0.1 -0.1)">
       <use xlink:href="#DejaVuSans-31"/>
      </g>
     </g>
    </g>
    <g id="text_34">
     <!-- Magnitude -->
     <g transform="translate(18.827813 285.385844) rotate(-90) scale(0.1 -0.1)">
      <use xlink:href="#DejaVuSans-4d"/>
      <use xlink:href="#DejaVuSans-61" transform="translate(86.279297 0)"/>
      <use xlink:href="#DejaVuSans-67" transform="translate(147.558594 0)"/>
      <use xlink:href="#DejaVuSans-6e" transform="translate(211.035156 0)"/>
      <use xlink:href="#DejaVuSans-69" transform="translate(274.414062 0)"/>
      <use xlink:href="#DejaVuSans-74" transform="translate(302.197266 0)"/>
      <use xlink:href="#DejaVuSans-75" transform="translate(341.40625 0)"/>
      <use xlink:href="#DejaVuSans-64" transform="translate(404.785156 0)"/>
      <use xlink:href="#DejaVuSans-65" transform="translate(468.261719 0)"/>
     </g>
    </g>
   </g>
   <g id="line2d_62">
    <path d="M 480.34625 315.16 
L 480.34625 202.632 
" clip-path="url(#padb094f705)" style="fill: none; stroke-dasharray: 9.6,2.4,1.5,2.4; stroke-dashoffset: 0; stroke: #000000; stroke-width: 1.5"/>
   </g>
   <g id="line2d_63">
    <path d="M 185.62875 315.16 
L 185.62875 202.632 
" clip-path="url(#padb094f705)" style="fill: none; stroke-dasharray: 9.6,2.4,1.5,2.4; stroke-dashoffset: 0; stroke: #000000; stroke-width: 1.5"/>
   </g>
   <g id="line2d_64">
    <path d="M 38.27 258.896 
L 185.62875 207.746909 
L 480.34625 207.746909 
L 627.705 258.896 
L 627.705 258.896 
" clip-path="url(#padb094f705)" style="fill: none; stroke: #808080; stroke-width: 1.5; stroke-linecap: square"/>
   </g>
   <g id="line2d_65">
    <path d="M 38.27 310.045091 
L 480.34625 310.045091 
L 627.705 258.896 
L 627.705 258.896 
" clip-path="url(#padb094f705)" style="fill: none; stroke-dasharray: 5.55,2.4; stroke-dashoffset: 0; stroke: #808080; stroke-width: 1.5"/>
   </g>
   <g id="line2d_66">
    <path d="M 38.27 258.896 
L 185.62875 310.045091 
L 627.705 310.045091 
L 627.705 310.045091 
" clip-path="url(#padb094f705)" style="fill: none; stroke-dasharray: 5.55,2.4; stroke-dashoffset: 0; stroke: #808080; stroke-width: 1.5"/>
   </g>
   <g id="line2d_67">
    <path d="M 38.27 310.045091 
L 179.7344 310.045091 
L 191.5231 207.746909 
L 474.4519 207.746909 
L 486.2406 310.045091 
L 627.705 310.045091 
L 627.705 310.045091 
" clip-path="url(#padb094f705)" style="fill: none; stroke: #1f77b4; stroke-width: 2; stroke-linecap: square"/>
   </g>
   <g id="line2d_68">
    <path d="M 38.27 310.045091 
L 474.4519 310.045091 
L 486.2406 207.746909 
L 627.705 207.746909 
L 627.705 207.746909 
" clip-path="url(#padb094f705)" style="fill: none; stroke-dasharray: 5.55,2.4; stroke-dashoffset: 0; stroke: #d62728; stroke-width: 1.5"/>
   </g>
   <g id="line2d_69">
    <path d="M 38.27 207.746909 
L 179.7344 207.746909 
L 191.5231 310.045091 
L 627.705 310.045091 
L 627.705 310.045091 
" clip-path="url(#padb094f705)" style="fill: none; stroke-dasharray: 5.55,2.4; stroke-dashoffset: 0; stroke: #d62728; stroke-width: 1.5"/>
   </g>
   <g id="patch_11">
    <path d="M 38.27 315.16 
L 38.27 202.632 
" style="fill: none; stroke: #000000; stroke-width: 0.8; stroke-linejoin: miter; stroke-linecap: square"/>
   </g>
   <g id="patch_12">
    <path d="M 627.705 315.16 
L 627.705 202.632 
" style="fill: none; stroke: #000000; stroke-width: 0.8; stroke-linejoin: miter; stroke-linecap: square"/>
   </g>
   <g id="patch_13">
    <path d="M 38.27 315.16 
L 627.705 315.16 
" style="fill: none; stroke: #000000; stroke-width: 0.8; stroke-linejoin: miter; stroke-linecap: square"/>
   </g>
   <g id="patch_14">
    <path d="M 38.27 202.632 
L 627.705 202.632 
" style="fill: none; stroke: #000000; stroke-width: 0.8; stroke-linejoin: miter; stroke-linecap: square"/>
   </g>
   <g id="text_35">
    <g id="patch_15">
     <path d="M 45.12425 255.761926 
L 164.038625 255.761926 
Q 168.838625 255.761926 168.838625 250.961926 
L 168.838625 225.910801 
Q 168.838625 221.110801 164.038625 221.110801 
L 45.12425 221.110801 
Q 40.32425 221.110801 40.32425 225.910801 
L 40.32425 250.961926 
Q 40.32425 255.761926 45.12425 255.761926 
z
" style="fill: #ffffff; opacity: 0.7; stroke: #808080; stroke-linejoin: miter"/>
    </g>
    <!-- Spectral copy -->
    <g style="fill: #d62728" transform="translate(63.572375 235.028926) scale(0.12 -0.12)">
     <use xlink:href="#DejaVuSans-53"/>
     <use xlink:href="#DejaVuSans-70" transform="translate(63.476562 0)"/>
     <use xlink:href="#DejaVuSans-65" transform="translate(126.953125 0)"/>
     <use xlink:href="#DejaVuSans-63" transform="translate(188.476562 0)"/>
     <use xlink:href="#DejaVuSans-74" transform="translate(243.457031 0)"/>
     <use xlink:href="#DejaVuSans-72" transform="translate(282.666016 0)"/>
     <use xlink:href="#DejaVuSans-61" transform="translate(323.779297 0)"/>
     <use xlink:href="#DejaVuSans-6c" transform="translate(385.058594 0)"/>
     <use xlink:href="#DejaVuSans-20" transform="translate(412.841797 0)"/>
     <use xlink:href="#DejaVuSans-63" transform="translate(444.628906 0)"/>
     <use xlink:href="#DejaVuSans-6f" transform="translate(499.609375 0)"/>
     <use xlink:href="#DejaVuSans-70" transform="translate(560.791016 0)"/>
     <use xlink:href="#DejaVuSans-79" transform="translate(624.267578 0)"/>
    </g>
    <!-- from downsampling -->
    <g style="fill: #d62728" transform="translate(45.12425 248.466301) scale(0.12 -0.12)">
     <use xlink:href="#DejaVuSans-66"/>
     <use xlink:href="#DejaVuSans-72" transform="translate(35.205078 0)"/>
     <use xlink:href="#DejaVuSans-6f" transform="translate(74.068359 0)"/>
     <use xlink:href="#DejaVuSans-6d" transform="translate(135.25 0)"/>
     <use xlink:href="#DejaVuSans-20" transform="translate(232.662109 0)"/>
     <use xlink:href="#DejaVuSans-64" transform="translate(264.449219 0)"/>
     <use xlink:href="#DejaVuSans-6f" transform="translate(327.925781 0)"/>
     <use xlink:href="#DejaVuSans-77" transform="translate(389.107422 0)"/>
     <use xlink:href="#DejaVuSans-6e" transform="translate(470.894531 0)"/>
     <use xlink:href="#DejaVuSans-73" transform="translate(534.273438 0)"/>
     <use xlink:href="#DejaVuSans-61" transform="translate(586.373047 0)"/>
     <use xlink:href="#DejaVuSans-6d" transform="translate(647.652344 0)"/>
     <use xlink:href="#DejaVuSans-70" transform="translate(745.064453 0)"/>
     <use xlink:href="#DejaVuSans-6c" transform="translate(808.541016 0)"/>
     <use xlink:href="#DejaVuSans-69" transform="translate(836.324219 0)"/>
     <use xlink:href="#DejaVuSans-6e" transform="translate(864.107422 0)"/>
     <use xlink:href="#DejaVuSans-67" transform="translate(927.486328 0)"/>
    </g>
   </g>
   <g id="text_36">
    <g id="patch_16">
     <path d="M 501.936375 255.761926 
L 620.85075 255.761926 
Q 625.65075 255.761926 625.65075 250.961926 
L 625.65075 225.910801 
Q 625.65075 221.110801 620.85075 221.110801 
L 501.936375 221.110801 
Q 497.136375 221.110801 497.136375 225.910801 
L 497.136375 250.961926 
Q 497.136375 255.761926 501.936375 255.761926 
z
" style="fill: #ffffff; opacity: 0.7; stroke: #808080; stroke-linejoin: miter"/>
    </g>
    <!-- Spectral copy -->
    <g style="fill: #d62728" transform="translate(520.3845 235.028926) scale(0.12 -0.12)">
     <use xlink:href="#DejaVuSans-53"/>
     <use xlink:href="#DejaVuSans-70" transform="translate(63.476562 0)"/>
     <use xlink:href="#DejaVuSans-65" transform="translate(126.953125 0)"/>
     <use xlink:href="#DejaVuSans-63" transform="translate(188.476562 0)"/>
     <use xlink:href="#DejaVuSans-74" transform="translate(243.457031 0)"/>
     <use xlink:href="#DejaVuSans-72" transform="translate(282.666016 0)"/>
     <use xlink:href="#DejaVuSans-61" transform="translate(323.779297 0)"/>
     <use xlink:href="#DejaVuSans-6c" transform="translate(385.058594 0)"/>
     <use xlink:href="#DejaVuSans-20" transform="translate(412.841797 0)"/>
     <use xlink:href="#DejaVuSans-63" transform="translate(444.628906 0)"/>
     <use xlink:href="#DejaVuSans-6f" transform="translate(499.609375 0)"/>
     <use xlink:href="#DejaVuSans-70" transform="translate(560.791016 0)"/>
     <use xlink:href="#DejaVuSans-79" transform="translate(624.267578 0)"/>
    </g>
    <!-- from downsampling -->
    <g style="fill: #d62728" transform="translate(501.936375 248.466301) scale(0.12 -0.12)">
     <use xlink:href="#DejaVuSans-66"/>
     <use xlink:href="#DejaVuSans-72" transform="translate(35.205078 0)"/>
     <use xlink:href="#DejaVuSans-6f" transform="translate(74.068359 0)"/>
     <use xlink:href="#DejaVuSans-6d" transform="translate(135.25 0)"/>
     <use xlink:href="#DejaVuSans-20" transform="translate(232.662109 0)"/>
     <use xlink:href="#DejaVuSans-64" transform="translate(264.449219 0)"/>
     <use xlink:href="#DejaVuSans-6f" transform="translate(327.925781 0)"/>
     <use xlink:href="#DejaVuSans-77" transform="translate(389.107422 0)"/>
     <use xlink:href="#DejaVuSans-6e" transform="translate(470.894531 0)"/>
     <use xlink:href="#DejaVuSans-73" transform="translate(534.273438 0)"/>
     <use xlink:href="#DejaVuSans-61" transform="translate(586.373047 0)"/>
     <use xlink:href="#DejaVuSans-6d" transform="translate(647.652344 0)"/>
     <use xlink:href="#DejaVuSans-70" transform="translate(745.064453 0)"/>
     <use xlink:href="#DejaVuSans-6c" transform="translate(808.541016 0)"/>
     <use xlink:href="#DejaVuSans-69" transform="translate(836.324219 0)"/>
     <use xlink:href="#DejaVuSans-6e" transform="translate(864.107422 0)"/>
     <use xlink:href="#DejaVuSans-67" transform="translate(927.486328 0)"/>
    </g>
   </g>
   <g id="text_37">
    <g id="patch_17">
     <path d="M 269.469063 250.647017 
L 396.505938 250.647017 
Q 401.305938 250.647017 401.305938 245.847017 
L 401.305938 220.795892 
Q 401.305938 215.995892 396.505938 215.995892 
L 269.469063 215.995892 
Q 264.669063 215.995892 264.669063 220.795892 
L 264.669063 245.847017 
Q 264.669063 250.647017 269.469063 250.647017 
z
" style="fill: #ffffff; opacity: 0.7; stroke: #808080; stroke-linejoin: miter"/>
    </g>
    <!-- Decimation filter -->
    <g style="fill: #1f77b4" transform="translate(282.832188 229.914017) scale(0.12 -0.12)">
     <use xlink:href="#DejaVuSans-44"/>
     <use xlink:href="#DejaVuSans-65" transform="translate(77.001953 0)"/>
     <use xlink:href="#DejaVuSans-63" transform="translate(138.525391 0)"/>
     <use xlink:href="#DejaVuSans-69" transform="translate(193.505859 0)"/>
     <use xlink:href="#DejaVuSans-6d" transform="translate(221.289062 0)"/>
     <use xlink:href="#DejaVuSans-61" transform="translate(318.701172 0)"/>
     <use xlink:href="#DejaVuSans-74" transform="translate(379.980469 0)"/>
     <use xlink:href="#DejaVuSans-69" transform="translate(419.189453 0)"/>
     <use xlink:href="#DejaVuSans-6f" transform="translate(446.972656 0)"/>
     <use xlink:href="#DejaVuSans-6e" transform="translate(508.154297 0)"/>
     <use xlink:href="#DejaVuSans-20" transform="translate(571.533203 0)"/>
     <use xlink:href="#DejaVuSans-66" transform="translate(603.320312 0)"/>
     <use xlink:href="#DejaVuSans-69" transform="translate(638.525391 0)"/>
     <use xlink:href="#DejaVuSans-6c" transform="translate(666.308594 0)"/>
     <use xlink:href="#DejaVuSans-74" transform="translate(694.091797 0)"/>
     <use xlink:href="#DejaVuSans-65" transform="translate(733.300781 0)"/>
     <use xlink:href="#DejaVuSans-72" transform="translate(794.824219 0)"/>
    </g>
    <!--  magnitude response -->
    <g style="fill: #1f77b4" transform="translate(269.469063 243.351392) scale(0.12 -0.12)">
     <use xlink:href="#DejaVuSans-20"/>
     <use xlink:href="#DejaVuSans-6d" transform="translate(31.787109 0)"/>
     <use xlink:href="#DejaVuSans-61" transform="translate(129.199219 0)"/>
     <use xlink:href="#DejaVuSans-67" transform="translate(190.478516 0)"/>
     <use xlink:href="#DejaVuSans-6e" transform="translate(253.955078 0)"/>
     <use xlink:href="#DejaVuSans-69" transform="translate(317.333984 0)"/>
     <use xlink:href="#DejaVuSans-74" transform="translate(345.117188 0)"/>
     <use xlink:href="#DejaVuSans-75" transform="translate(384.326172 0)"/>
     <use xlink:href="#DejaVuSans-64" transform="translate(447.705078 0)"/>
     <use xlink:href="#DejaVuSans-65" transform="translate(511.181641 0)"/>
     <use xlink:href="#DejaVuSans-20" transform="translate(572.705078 0)"/>
     <use xlink:href="#DejaVuSans-72" transform="translate(604.492188 0)"/>
     <use xlink:href="#DejaVuSans-65" transform="translate(643.355469 0)"/>
     <use xlink:href="#DejaVuSans-73" transform="translate(704.878906 0)"/>
     <use xlink:href="#DejaVuSans-70" transform="translate(756.978516 0)"/>
     <use xlink:href="#DejaVuSans-6f" transform="translate(820.455078 0)"/>
     <use xlink:href="#DejaVuSans-6e" transform="translate(881.636719 0)"/>
     <use xlink:href="#DejaVuSans-73" transform="translate(945.015625 0)"/>
     <use xlink:href="#DejaVuSans-65" transform="translate(997.115234 0)"/>
    </g>
   </g>
   <g id="text_38">
    <!-- Stage 2: $f_{s, \text{int}} = 400 \longrightarrow f_{s, \text{new}} = 200 $ -->
    <g transform="translate(230.0275 196.632) scale(0.12 -0.12)">
     <use xlink:href="#DejaVuSans-53" transform="translate(0 0.015625)"/>
     <use xlink:href="#DejaVuSans-74" transform="translate(63.476562 0.015625)"/>
     <use xlink:href="#DejaVuSans-61" transform="translate(102.685547 0.015625)"/>
     <use xlink:href="#DejaVuSans-67" transform="translate(163.964844 0.015625)"/>
     <use xlink:href="#DejaVuSans-65" transform="translate(227.441406 0.015625)"/>
     <use xlink:href="#DejaVuSans-20" transform="translate(288.964844 0.015625)"/>
     <use xlink:href="#DejaVuSans-32" transform="translate(320.751953 0.015625)"/>
     <use xlink:href="#DejaVuSans-3a" transform="translate(384.375 0.015625)"/>
     <use xlink:href="#DejaVuSans-20" transform="translate(418.066406 0.015625)"/>
     <use xlink:href="#DejaVuSans-Oblique-66" transform="translate(449.853516 0.015625)"/>
     <use xlink:href="#DejaVuSans-Oblique-73" transform="translate(485.058594 -16.390625) scale(0.7)"/>
     <use xlink:href="#DejaVuSans-2c" transform="translate(521.52832 -16.390625) scale(0.7)"/>
     <use xlink:href="#DejaVuSans-69" transform="translate(557.416992 -16.390625) scale(0.7)"/>
     <use xlink:href="#DejaVuSans-6e" transform="translate(576.865234 -16.390625) scale(0.7)"/>
     <use xlink:href="#DejaVuSans-74" transform="translate(621.230469 -16.390625) scale(0.7)"/>
     <use xlink:href="#DejaVuSans-3d" transform="translate(670.893555 0.015625)"/>
     <use xlink:href="#DejaVuSans-34" transform="translate(774.165039 0.015625)"/>
     <use xlink:href="#DejaVuSans-30" transform="translate(837.788086 0.015625)"/>
     <use xlink:href="#DejaVuSans-30" transform="translate(901.411133 0.015625)"/>
     <use xlink:href="#DejaVuSans-27f6" transform="translate(984.516602 0.015625)"/>
     <use xlink:href="#DejaVuSans-Oblique-66" transform="translate(1147.358398 0.015625)"/>
     <use xlink:href="#DejaVuSans-Oblique-73" transform="translate(1182.563477 -16.390625) scale(0.7)"/>
     <use xlink:href="#DejaVuSans-2c" transform="translate(1219.033203 -16.390625) scale(0.7)"/>
     <use xlink:href="#DejaVuSans-6e" transform="translate(1254.921875 -16.390625) scale(0.7)"/>
     <use xlink:href="#DejaVuSans-65" transform="translate(1299.287109 -16.390625) scale(0.7)"/>
     <use xlink:href="#DejaVuSans-77" transform="translate(1342.353516 -16.390625) scale(0.7)"/>
     <use xlink:href="#DejaVuSans-3d" transform="translate(1421.821289 0.015625)"/>
     <use xlink:href="#DejaVuSans-32" transform="translate(1525.092773 0.015625)"/>
     <use xlink:href="#DejaVuSans-30" transform="translate(1588.71582 0.015625)"/>
     <use xlink:href="#DejaVuSans-30" transform="translate(1652.338867 0.015625)"/>
    </g>
   </g>
  </g>
 </g>
 <defs>
  <clipPath id="pcea5ab87f0">
   <rect x="38.27" y="28.032" width="589.435" height="112.528"/>
  </clipPath>
  <clipPath id="padb094f705">
   <rect x="38.27" y="202.632" width="589.435" height="112.528"/>
  </clipPath>
 </defs>
</svg>
